<svg xmlns="http://www.w3.org/2000/svg" viewBox="0 0 1160 800"><defs><style>.cls-1{fill:#fff;}.cls-2{fill:#091440;}.cls-3{fill:#c4cbd2;}.cls-4,.cls-5,.cls-7{fill:none;}.cls-4{stroke:#c4cbd2;stroke-miterlimit:10;stroke-width:20px;}.cls-6{fill:#2dd8a3;}.cls-7{stroke:#ed6d47;stroke-width:15px;}.cls-8{fill:#ed6d47;}</style></defs><g id="Layer_2" data-name="Layer 2"><g id="s5_-_f4_-_denied" data-name="s5 - f4 - denied"><rect class="cls-1" width="1160" height="800"/><path class="cls-2" d="M611.84,229.59h481.31A21.85,21.85,0,0,1,1115,251.43V723.24a31.35,31.35,0,0,1-31.35,31.35H611.84A21.85,21.85,0,0,1,590,732.74V251.43a21.85,21.85,0,0,1,21.85-21.85Z" transform="translate(1705 984.17) rotate(-180)"/><path class="cls-2" d="M598.2,45.41h508.6a8.2,8.2,0,0,1,8.2,8.2v54a11.77,11.77,0,0,1-11.77,11.77h-505a8.2,8.2,0,0,1-8.2-8.2V53.62a8.2,8.2,0,0,1,8.2-8.2Z" transform="translate(1705 164.83) rotate(-180)"/><path class="cls-2" d="M593.08,138.91h518.83A3.09,3.09,0,0,1,1115,142v66.49a4.43,4.43,0,0,1-4.43,4.43H593.08a3.09,3.09,0,0,1-3.09-3.09V142a3.09,3.09,0,0,1,3.09-3.09Z" transform="translate(1705 351.83) rotate(-180)"/><circle class="cls-3" cx="627" cy="267.59" r="25"/><path class="cls-2" d="M625.94,278a10.6,10.6,0,0,1-4.19-.75,7.72,7.72,0,0,1-2.87-2.06l2.43-3.38a8.72,8.72,0,0,0,1.94,1.38,5,5,0,0,0,2.13.5,4.07,4.07,0,0,0,2.09-.47,1.53,1.53,0,0,0,.78-1.41,2.48,2.48,0,0,0-.19-1,1.61,1.61,0,0,0-.72-.75,4.65,4.65,0,0,0-1.5-.47,17.13,17.13,0,0,0-2.53-.15v-3.75a10.8,10.8,0,0,0,2.07-.16,4.2,4.2,0,0,0,1.34-.44,1.73,1.73,0,0,0,.69-.71,2,2,0,0,0,.21-.94c0-1.21-.68-1.81-2.06-1.81a3.82,3.82,0,0,0-1.78.4,9.42,9.42,0,0,0-1.72,1.22L619.37,260a11.84,11.84,0,0,1,3-1.87,8.3,8.3,0,0,1,3.4-.69,8.43,8.43,0,0,1,5.22,1.47,4.8,4.8,0,0,1,2,4.12q0,2.88-3.19,4.28v.13a6,6,0,0,1,2.75,1.72,4.29,4.29,0,0,1,1.06,3,4.91,4.91,0,0,1-.62,2.5,5.82,5.82,0,0,1-1.69,1.81,7.36,7.36,0,0,1-2.43,1.13A11.39,11.39,0,0,1,625.94,278Z"/><circle class="cls-3" cx="627" cy="175.34" r="25"/><path class="cls-2" d="M619.37,185.34v-3.06q1.75-1.64,3.25-3.07c1-1,1.91-1.85,2.66-2.68a14.57,14.57,0,0,0,1.75-2.41,4.39,4.39,0,0,0,.66-2.16,2.55,2.55,0,0,0-.69-2,2.39,2.39,0,0,0-1.75-.65,2.89,2.89,0,0,0-1.78.59,14.31,14.31,0,0,0-1.47,1.28l-2.88-2.87a17.49,17.49,0,0,1,1.54-1.41,7,7,0,0,1,1.56-1,7.22,7.22,0,0,1,1.75-.59,9.93,9.93,0,0,1,2-.19,7.82,7.82,0,0,1,2.75.47,6.55,6.55,0,0,1,2.16,1.31,5.75,5.75,0,0,1,1.4,2.06,6.71,6.71,0,0,1,.5,2.66,6.15,6.15,0,0,1-.53,2.44,14.2,14.2,0,0,1-1.31,2.44,22.23,22.23,0,0,1-1.84,2.37c-.67.77-1.34,1.5-2,2.19.49-.06,1.06-.12,1.68-.16s1.19-.09,1.63-.09h3.31v4.5Z"/><circle class="cls-3" cx="627" cy="82.41" r="25"/><path class="cls-2" d="M620.31,92.41V88.1h4.25V77.85h-3.75V74.54a20.12,20.12,0,0,0,2.88-.78A11.9,11.9,0,0,0,626,72.6h3.94V88.1h3.56v4.31Z"/><g id="robot"><rect class="cls-3" x="720.36" y="399.79" width="257.14" height="205.71" rx="18"/><path class="cls-2" d="M778.21,534.79H919.64a12.85,12.85,0,0,1,12.86,12.85h0a12.86,12.86,0,0,1-12.86,12.86H778.21a12.85,12.85,0,0,1-12.85-12.86h0A12.85,12.85,0,0,1,778.21,534.79Z"/><rect class="cls-1" x="829.64" y="547.64" width="12.86" height="12.86"/><rect class="cls-1" x="816.78" y="534.79" width="12.86" height="12.86"/><rect class="cls-1" x="791.07" y="534.79" width="12.86" height="12.86"/><rect class="cls-1" x="855.36" y="547.64" width="12.86" height="12.86"/><rect class="cls-1" x="868.21" y="534.79" width="12.86" height="12.86"/><rect class="cls-1" x="906.78" y="547.64" width="12.86" height="12.86"/><rect class="cls-1" x="893.93" y="534.79" width="12.86" height="12.86"/><path class="cls-3" d="M881.07,341.93a32.15,32.15,0,1,0-38.57,31.5v26.36h12.86V373.43A32.15,32.15,0,0,0,881.07,341.93Z"/><path class="cls-3" d="M668.93,488.5a18,18,0,0,1,18-18H707.5v64.29H686.93a18,18,0,0,1-18-18Z"/><path class="cls-3" d="M990.36,470.5h20.57a18,18,0,0,1,18,18v28.29a18,18,0,0,1-18,18H990.36Z"/><circle class="cls-1" cx="797.5" cy="476.93" r="38.57"/><circle class="cls-2" cx="792.36" cy="471.79" r="25.71"/><circle class="cls-1" cx="900.36" cy="476.93" r="38.57"/><circle class="cls-2" cx="895.21" cy="471.79" r="25.71"/><polyline id="textline" class="cls-4" points="688.93 677.67 728.93 657.67 768.93 677.67 808.93 657.67 848.93 677.67 888.93 657.67 928.93 677.67 968.93 657.67 1008.93 677.67"/></g><rect id="BG" class="cls-3" x="45.6" y="45.41" width="524.06" height="709.17" rx="14.06"/><path class="cls-2" d="M569.67,217.83c-1-.82-2-1.69-2.89-2.62a42,42,0,0,1-12.29-29.68H507.26a42,42,0,1,1-84,0H376a42,42,0,0,1-83.79,0H244.88a42,42,0,1,1-84,0H113.64a42,42,0,0,1-42,42V500.39h498Z"/><rect id="BG-2" data-name="BG" class="cls-5" x="45.6" y="45.41" width="524.06" height="709.17" rx="14.06"/><path class="cls-6" d="M540.55,215.21a42,42,0,0,1-12.3-29.68H481a42,42,0,0,1-84,0H349.83a42,42,0,0,1-83.8,0H218.6a42,42,0,0,1-84,0H87.45a42,42,0,0,1-41.85,42v513a14.07,14.07,0,0,0,14.06,14.06h496a14.07,14.07,0,0,0,14.06-14.06v-513A41.93,41.93,0,0,1,540.55,215.21Z"/><path class="cls-2" d="M360.32,503.15a52.48,52.48,0,0,0-104.95,0Z"/><path class="cls-2" d="M136.79,396.73a39.36,39.36,0,0,0,78.71,0l-39.36-39.36A39.36,39.36,0,0,0,136.79,396.73Z"/><path class="cls-2" d="M477.88,396.72a39.36,39.36,0,0,0-39.36-39.35l-39.35,39.35a39.36,39.36,0,1,0,78.71,0Z"/><path class="cls-7" d="M1062.24,515.51l-42.71-159.4a7.51,7.51,0,0,0-9.19-5.31L648.06,447.88a7.49,7.49,0,0,0-5.3,9.18l42.71,159.41a7.5,7.5,0,0,0,9.19,5.3l362.28-97.07A7.5,7.5,0,0,0,1062.24,515.51Z"/><path class="cls-8" d="M699.12,569.32l-19.18-71.59,21.15-5.66a53.77,53.77,0,0,1,15.4-2,30.84,30.84,0,0,1,13.35,3.15,29.06,29.06,0,0,1,10.44,9,44.1,44.1,0,0,1,7.09,15.45,46.66,46.66,0,0,1,1.73,17,30.07,30.07,0,0,1-4.48,13.24,30.58,30.58,0,0,1-9.6,9.54,47.76,47.76,0,0,1-13.65,5.9ZM714,549.05l1.11-.3a30.14,30.14,0,0,0,7-2.83,14.34,14.34,0,0,0,5-4.87,15.82,15.82,0,0,0,2.25-7.45A32.69,32.69,0,0,0,728,522.87a31.78,31.78,0,0,0-4.17-9.86,15.1,15.1,0,0,0-5.62-5.11,13.23,13.23,0,0,0-6.64-1.41,30.3,30.3,0,0,0-7.5,1.07l-1.1.29Zm50,2.89-19.18-71.59L791.06,468l4.25,15.86L768,491.14l3,11.23,23.35-6.26L798.61,512l-23.35,6.26L778.68,531l28.42-7.61,4.25,15.86Zm55.4-14.85-19.18-71.58,19.38-5.2L844,488l11.14,14.25.44-.12c-.74-1.85-1.55-3.87-2.46-6.07s-1.78-4.44-2.63-6.73l-2.58-7c-.79-2.38-1.49-4.68-2.08-6.88l-5.54-20.7,18.06-4.84,19.18,71.58-19.38,5.2-24.45-27.8L822.6,484.77l-.44.12q2.31,6,5.14,13a118.44,118.44,0,0,1,4.6,13.64l5.55,20.71Zm68.2-18.27-19.18-71.59,18.94-5.07,19.18,71.59Zm29-7.78-19.18-71.59,46.25-12.4L948,442.91l-27.31,7.32,3,11.24L947,455.21l4.25,15.86-23.35,6.26,3.42,12.77,28.42-7.61L964,498.35ZM972,496.19,952.86,424.6,974,418.94a54.21,54.21,0,0,1,15.4-2,30.88,30.88,0,0,1,13.36,3.15,29.16,29.16,0,0,1,10.44,9,44.07,44.07,0,0,1,7.09,15.46,46.81,46.81,0,0,1,1.73,17,30,30,0,0,1-14.09,22.78,47.58,47.58,0,0,1-13.64,5.9Zm14.87-20.27,1.1-.3a29.79,29.79,0,0,0,7-2.83,14.52,14.52,0,0,0,5-4.86,16,16,0,0,0,2.25-7.45,32.72,32.72,0,0,0-1.34-10.74,31.77,31.77,0,0,0-4.18-9.86,14.84,14.84,0,0,0-5.62-5.1,13,13,0,0,0-6.63-1.41,29.81,29.81,0,0,0-7.5,1.06l-1.11.3Z"/></g></g></svg>