<svg xmlns="http://www.w3.org/2000/svg" viewBox="0 0 1160 800"><defs><style>.cls-1{fill:#fff;}.cls-2{fill:#091440;}.cls-3{fill:#c4cbd2;}.cls-4{fill:none;}.cls-5{fill:#2dd8a3;}</style></defs><g id="Layer_2" data-name="Layer 2"><g id="s5_-_f1_-_block_creation" data-name="s5 - f1 - block creation"><rect class="cls-1" width="1160" height="800"/><path class="cls-2" d="M598.2,45.41h508.6a8.2,8.2,0,0,1,8.2,8.2v504a11.77,11.77,0,0,1-11.77,11.77h-505a8.2,8.2,0,0,1-8.2-8.2V53.62a8.2,8.2,0,0,1,8.2-8.2Z" transform="translate(1705 614.83) rotate(-180)"/><rect class="cls-1" x="691.5" y="261.81" width="150.4" height="35.6"/><rect class="cls-1" x="861.9" y="261.81" width="149.6" height="35.6"/><rect class="cls-1" x="691.5" y="377.01" width="150.4" height="40.4"/><rect class="cls-1" x="861.9" y="377.01" width="149.6" height="40.4"/><rect class="cls-1" x="691.5" y="147.41" width="320" height="40"/><rect class="cls-3" x="691.5" y="281.81" width="150.4" height="70.4"/><rect class="cls-3" x="861.9" y="281.81" width="149.6" height="70.4"/><rect class="cls-3" x="691.5" y="397.01" width="150.4" height="70.4"/><rect class="cls-3" x="861.9" y="397.01" width="149.6" height="70.4"/><rect class="cls-3" x="691.5" y="167.41" width="320" height="70"/><rect class="cls-4" x="671.5" y="127.41" width="360" height="360"/><path class="cls-1" d="M731.67,497.21a70,70,0,1,0-70-70A70,70,0,0,0,731.67,497.21Z"/><path class="cls-2" d="M762.64,398l-37.17,37.17-24.78-24.78L688.3,422.78,725.47,460,775,410.39Z"/><g id="repetitive"><rect id="BG" class="cls-3" x="45.6" y="45.41" width="524.06" height="709.17" rx="14.06"/><path class="cls-2" d="M598.2,588.16h508.6a8.2,8.2,0,0,1,8.2,8.2v54a11.77,11.77,0,0,1-11.77,11.77h-505A8.2,8.2,0,0,1,590,654v-57.6a8.2,8.2,0,0,1,8.2-8.2Z" transform="translate(1705 1250.31) rotate(-180)"/><path class="cls-2" d="M598.2,680.59h508.6a8.2,8.2,0,0,1,8.2,8.2v54a11.77,11.77,0,0,1-11.77,11.77h-505a8.2,8.2,0,0,1-8.2-8.2v-57.6a8.2,8.2,0,0,1,8.2-8.2Z" transform="translate(1705 1435.17) rotate(-180)"/><circle class="cls-3" cx="627" cy="717.59" r="25"/><path class="cls-2" d="M625.94,728a10.6,10.6,0,0,1-4.19-.75,7.72,7.72,0,0,1-2.87-2.06l2.43-3.38a8.72,8.72,0,0,0,1.94,1.38,5,5,0,0,0,2.13.5,4.07,4.07,0,0,0,2.09-.47,1.53,1.53,0,0,0,.78-1.41,2.48,2.48,0,0,0-.19-1,1.61,1.61,0,0,0-.72-.75,4.65,4.65,0,0,0-1.5-.47,17.13,17.13,0,0,0-2.53-.15v-3.75a10.8,10.8,0,0,0,2.07-.16,4.2,4.2,0,0,0,1.34-.44,1.73,1.73,0,0,0,.69-.71,2,2,0,0,0,.21-.94c0-1.21-.68-1.81-2.06-1.81a3.82,3.82,0,0,0-1.78.4,9.42,9.42,0,0,0-1.72,1.22L619.37,710a11.84,11.84,0,0,1,3-1.87,8.3,8.3,0,0,1,3.4-.69,8.43,8.43,0,0,1,5.22,1.47,4.8,4.8,0,0,1,2,4.12q0,2.88-3.19,4.28v.13a6,6,0,0,1,2.75,1.72,4.29,4.29,0,0,1,1.06,3,4.91,4.91,0,0,1-.62,2.5,5.82,5.82,0,0,1-1.69,1.81,7.36,7.36,0,0,1-2.43,1.13A11.39,11.39,0,0,1,625.94,728Z"/><circle class="cls-3" cx="627" cy="625.08" r="25"/><path class="cls-2" d="M619.37,635.08V632q1.75-1.62,3.25-3.06c1-1,1.91-1.86,2.66-2.69a14.17,14.17,0,0,0,1.75-2.41,4.39,4.39,0,0,0,.66-2.15,2.52,2.52,0,0,0-.69-2,2.36,2.36,0,0,0-1.75-.66,2.83,2.83,0,0,0-1.78.6A13.19,13.19,0,0,0,622,621l-2.88-2.88a15.89,15.89,0,0,1,1.54-1.4,7,7,0,0,1,1.56-1,7.25,7.25,0,0,1,1.75-.6,10.69,10.69,0,0,1,2-.19,7.82,7.82,0,0,1,2.75.47,6.57,6.57,0,0,1,2.16,1.32,5.75,5.75,0,0,1,1.4,2.06,6.66,6.66,0,0,1,.5,2.65,6.08,6.08,0,0,1-.53,2.44,13.84,13.84,0,0,1-1.31,2.44,22.23,22.23,0,0,1-1.84,2.37c-.67.78-1.34,1.5-2,2.19.49-.06,1.06-.11,1.68-.15a15.45,15.45,0,0,1,1.63-.1h3.31v4.5Z"/><circle class="cls-3" cx="627" cy="82.41" r="25"/><path class="cls-2" d="M620.31,92.41V88.1h4.25V77.85h-3.75V74.54a20.12,20.12,0,0,0,2.88-.78A11.9,11.9,0,0,0,626,72.6h3.94V88.1h3.56v4.31Z"/></g><path class="cls-2" d="M467,220.4a23.18,23.18,0,0,1-23.18-23.17H417.7a23.17,23.17,0,0,1-46.34,0H345.24a23.17,23.17,0,0,1-46.25,0H272.88a23.18,23.18,0,0,1-46.35,0H200.44a23.18,23.18,0,0,1-23.17,23.17V371H481.43Z"/><path class="cls-5" d="M452.46,298.63V220.4a23.18,23.18,0,0,1-23.17-23.17H403.2a23.18,23.18,0,0,1-46.35,0h-26a23.17,23.17,0,0,1-46.25,0H258.37a23.17,23.17,0,1,1-46.34,0H186a23.18,23.18,0,0,1-23.17,23.17v78.23a65.18,65.18,0,1,0,0,130.35v86.89h57.93v57.94a14.48,14.48,0,1,0,0,29h14.48a14.48,14.48,0,0,0,14.48-14.48V515.87H365.57v72.42a14.48,14.48,0,0,0,14.48,14.48h14.48a14.48,14.48,0,1,0,0-29V515.87h57.93V429a65.18,65.18,0,1,0,0-130.35ZM126.6,363.81a36.26,36.26,0,0,1,36.21-36.21V400a36.26,36.26,0,0,1-36.21-36.2ZM452.46,400V327.6a36.21,36.21,0,1,1,0,72.41Z"/><path class="cls-2" d="M336.6,357.94a29,29,0,1,0-57.93,0Z"/><path class="cls-2" d="M278.67,357.94a29,29,0,1,0,57.93,0Z"/><path class="cls-2" d="M235.22,334.84a21.73,21.73,0,1,0-21.72-21.72A21.73,21.73,0,0,0,235.22,334.84Z"/><path class="cls-2" d="M380.05,334.84a21.73,21.73,0,1,0-21.72-21.72A21.72,21.72,0,0,0,380.05,334.84Z"/></g></g></svg>