<svg xmlns="http://www.w3.org/2000/svg" viewBox="0 0 1160 800"><defs><style>.cls-1{fill:#fff;}.cls-2{fill:#c4cbd2;}.cls-3{fill:#091440;}.cls-4,.cls-6,.cls-9{fill:none;}.cls-5{fill:#2dd8a3;}.cls-6{stroke:#c4cbd2;stroke-miterlimit:10;stroke-width:20px;}.cls-7{fill:#ed6d47;}.cls-8{fill:#ffc84e;}.cls-9{stroke:#091440;stroke-width:9.74px;}</style></defs><g id="Layer_2" data-name="Layer 2"><g id="s5_-_f5_-_good_proposal" data-name="s5 - f5 - good proposal"><rect class="cls-1" width="1160" height="800"/><rect id="BG" class="cls-2" x="45.6" y="45.41" width="524.06" height="709.17" rx="14.06"/><path class="cls-3" d="M569.67,217.83c-1-.82-2-1.69-2.89-2.62a42,42,0,0,1-12.29-29.68H507.26a42,42,0,1,1-84,0H376a42,42,0,0,1-83.79,0H244.88a42,42,0,1,1-84,0H113.64a42,42,0,0,1-42,42V500.39h498Z"/><rect id="BG-2" data-name="BG" class="cls-4" x="45.6" y="45.41" width="524.06" height="709.17" rx="14.06"/><path class="cls-5" d="M540.55,215.21a42,42,0,0,1-12.3-29.68H481a42,42,0,0,1-84,0H349.83a42,42,0,0,1-83.8,0H218.6a42,42,0,0,1-84,0H87.45a42,42,0,0,1-41.85,42v513a14.07,14.07,0,0,0,14.06,14.06h496a14.07,14.07,0,0,0,14.06-14.06v-513A41.93,41.93,0,0,1,540.55,215.21Z"/><path class="cls-3" d="M176.66,434.83a39.36,39.36,0,1,0-39.36-39.35A39.35,39.35,0,0,0,176.66,434.83Z"/><path class="cls-3" d="M439,434.83a39.36,39.36,0,1,0-39.36-39.35A39.36,39.36,0,0,0,439,434.83Z"/><path class="cls-3" d="M307.64,536.94a52.88,52.88,0,1,0-52.89-52.88A52.88,52.88,0,0,0,307.64,536.94Z"/><path class="cls-3" d="M598.2,45.41h508.6a8.2,8.2,0,0,1,8.2,8.2v54a11.77,11.77,0,0,1-11.77,11.77h-505a8.2,8.2,0,0,1-8.2-8.2V53.62A8.2,8.2,0,0,1,598.2,45.41Z" transform="translate(1705 164.83) rotate(-180)"/><path class="cls-3" d="M593.08,138.91h518.83A3.09,3.09,0,0,1,1115,142v66.49a4.43,4.43,0,0,1-4.43,4.43H593.08a3.09,3.09,0,0,1-3.09-3.09V142a3.09,3.09,0,0,1,3.09-3.09Z" transform="translate(1705 351.83) rotate(-180)"/><path class="cls-3" d="M611.84,229.59h481.31A21.85,21.85,0,0,1,1115,251.43V723.24a31.35,31.35,0,0,1-31.35,31.35H611.84A21.85,21.85,0,0,1,590,732.74V251.43a21.85,21.85,0,0,1,21.85-21.85Z" transform="translate(1705 984.17) rotate(-180)"/><circle class="cls-2" cx="627" cy="267.59" r="25"/><path class="cls-3" d="M625.94,278a10.6,10.6,0,0,1-4.19-.75,7.72,7.72,0,0,1-2.87-2.06l2.43-3.38a8.72,8.72,0,0,0,1.94,1.38,5,5,0,0,0,2.13.5,4.07,4.07,0,0,0,2.09-.47,1.53,1.53,0,0,0,.78-1.41,2.48,2.48,0,0,0-.19-1,1.61,1.61,0,0,0-.72-.75,4.65,4.65,0,0,0-1.5-.47,17.13,17.13,0,0,0-2.53-.15v-3.75a10.8,10.8,0,0,0,2.07-.16,4.2,4.2,0,0,0,1.34-.44,1.73,1.73,0,0,0,.69-.71,2,2,0,0,0,.21-.94c0-1.21-.68-1.81-2.06-1.81a3.82,3.82,0,0,0-1.78.4,9.42,9.42,0,0,0-1.72,1.22L619.37,260a11.84,11.84,0,0,1,3-1.87,8.3,8.3,0,0,1,3.4-.69,8.43,8.43,0,0,1,5.22,1.47,4.8,4.8,0,0,1,2,4.12q0,2.88-3.19,4.28v.13a6,6,0,0,1,2.75,1.72,4.29,4.29,0,0,1,1.06,3,4.91,4.91,0,0,1-.62,2.5,5.82,5.82,0,0,1-1.69,1.81,7.36,7.36,0,0,1-2.43,1.13A11.39,11.39,0,0,1,625.94,278Z"/><circle class="cls-2" cx="627" cy="175.34" r="25"/><path class="cls-3" d="M619.37,185.34v-3.06q1.75-1.64,3.25-3.07c1-1,1.91-1.85,2.66-2.68a14.57,14.57,0,0,0,1.75-2.41,4.39,4.39,0,0,0,.66-2.16,2.55,2.55,0,0,0-.69-2,2.39,2.39,0,0,0-1.75-.65,2.89,2.89,0,0,0-1.78.59,14.31,14.31,0,0,0-1.47,1.28l-2.88-2.87a17.49,17.49,0,0,1,1.54-1.41,7,7,0,0,1,1.56-1,7.22,7.22,0,0,1,1.75-.59,9.93,9.93,0,0,1,2-.19,7.82,7.82,0,0,1,2.75.47,6.55,6.55,0,0,1,2.16,1.31,5.75,5.75,0,0,1,1.4,2.06,6.71,6.71,0,0,1,.5,2.66,6.15,6.15,0,0,1-.53,2.44,14.2,14.2,0,0,1-1.31,2.44,22.23,22.23,0,0,1-1.84,2.37c-.67.77-1.34,1.5-2,2.19.49-.06,1.06-.12,1.68-.16s1.19-.09,1.63-.09h3.31v4.5Z"/><circle class="cls-2" cx="627" cy="82.41" r="25"/><path class="cls-3" d="M620.31,92.41V88.1h4.25V77.85h-3.75V74.54a20.12,20.12,0,0,0,2.88-.78A11.9,11.9,0,0,0,626,72.6h3.94V88.1h3.56v4.31Z"/><g id="dude"><polyline class="cls-6" points="680.7 678.41 720.7 678.41 760.7 678.41 800.7 678.41 840.7 678.41 880.7 678.41 920.7 678.41 960.7 678.41 1000.7 678.41"/><path class="cls-7" d="M666.3,308.61H865.72a88.12,88.12,0,0,1,88.12,88.11H754.42a88.11,88.11,0,0,1-88.12-88.11Z"/><rect class="cls-2" x="751.63" y="396.72" width="202.2" height="92.75"/><path class="cls-8" d="M751.63,489.48H953.84v45.15a74.21,74.21,0,0,1-43.27,67.45l-57.84,26.53L794.9,602.08a74.21,74.21,0,0,1-43.27-67.45Z"/><path class="cls-3" d="M852.73,466.29h0a11.59,11.59,0,0,1,11.6,11.59v23.19a11.6,11.6,0,0,1-11.6,11.6h0a11.59,11.59,0,0,1-11.59-11.6V477.88A11.59,11.59,0,0,1,852.73,466.29Z"/><path class="cls-9" d="M797.08,540l11.66,3.88a139.11,139.11,0,0,0,88,0L908.39,540"/><circle class="cls-1" cx="809.6" cy="443.1" r="17.89"/><circle class="cls-3" cx="809.6" cy="443.1" r="11.93"/><circle class="cls-1" cx="895.86" cy="443.1" r="17.89"/><circle class="cls-3" cx="895.86" cy="443.1" r="11.93"/></g></g></g></svg>