<svg xmlns="http://www.w3.org/2000/svg" viewBox="0 0 1160 800"><defs><style>.cls-1{fill:#fff;}.cls-2{fill:#091440;}.cls-3{fill:#c4cbd2;}.cls-10,.cls-4,.cls-6,.cls-9{fill:none;}.cls-5{fill:#2dd8a3;}.cls-6{stroke:#c4cbd2;stroke-miterlimit:10;stroke-width:20px;}.cls-7{fill:#ed6d47;}.cls-8{fill:#ffc84e;}.cls-9{stroke:#091440;stroke-width:9.74px;}.cls-10{stroke:#2dd8a3;stroke-width:10.97px;}</style></defs><g id="Layer_2" data-name="Layer 2"><g id="s5_-_f6_-_approved" data-name="s5 - f6 - approved"><rect class="cls-1" width="1160" height="800"/><path class="cls-2" d="M611.84,229.59h481.31A21.85,21.85,0,0,1,1115,251.43V723.24a31.35,31.35,0,0,1-31.35,31.35H611.84A21.85,21.85,0,0,1,590,732.74V251.43a21.85,21.85,0,0,1,21.85-21.85Z" transform="translate(1705 984.17) rotate(-180)"/><rect id="BG" class="cls-3" x="45.6" y="45.41" width="524.06" height="709.17" rx="14.06"/><path class="cls-2" d="M569.67,217.83c-1-.82-2-1.69-2.89-2.62a42,42,0,0,1-12.29-29.68H507.26a42,42,0,1,1-84,0H376a42,42,0,0,1-83.79,0H244.88a42,42,0,1,1-84,0H113.64a42,42,0,0,1-42,42V500.39h498Z"/><rect id="BG-2" data-name="BG" class="cls-4" x="45.6" y="45.41" width="524.06" height="709.17" rx="14.06"/><path class="cls-5" d="M540.55,215.21a42,42,0,0,1-12.3-29.68H481a42,42,0,0,1-84,0H349.83a42,42,0,0,1-83.8,0H218.6a42,42,0,0,1-84,0H87.45a42,42,0,0,1-41.85,42v513a14.07,14.07,0,0,0,14.06,14.06h496a14.07,14.07,0,0,0,14.06-14.06v-513A41.93,41.93,0,0,1,540.55,215.21Z"/><path class="cls-2" d="M255.37,450.68a52.48,52.48,0,0,0,105,0Z"/><path class="cls-2" d="M176.66,434.83a39.36,39.36,0,1,0-39.36-39.35A39.35,39.35,0,0,0,176.66,434.83Z"/><path class="cls-2" d="M439,434.83a39.36,39.36,0,1,0-39.36-39.35A39.36,39.36,0,0,0,439,434.83Z"/><path class="cls-2" d="M598.2,45.41h508.6a8.2,8.2,0,0,1,8.2,8.2v54a11.77,11.77,0,0,1-11.77,11.77h-505a8.2,8.2,0,0,1-8.2-8.2V53.62a8.2,8.2,0,0,1,8.2-8.2Z" transform="translate(1705 164.83) rotate(-180)"/><path class="cls-2" d="M593.08,138.91h518.83A3.09,3.09,0,0,1,1115,142v66.49a4.43,4.43,0,0,1-4.43,4.43H593.08a3.09,3.09,0,0,1-3.09-3.09V142a3.09,3.09,0,0,1,3.09-3.09Z" transform="translate(1705 351.83) rotate(-180)"/><circle class="cls-3" cx="627" cy="267.59" r="25"/><path class="cls-2" d="M625.94,278a10.6,10.6,0,0,1-4.19-.75,7.72,7.72,0,0,1-2.87-2.06l2.43-3.38a8.72,8.72,0,0,0,1.94,1.38,5,5,0,0,0,2.13.5,4.07,4.07,0,0,0,2.09-.47,1.53,1.53,0,0,0,.78-1.41,2.48,2.48,0,0,0-.19-1,1.61,1.61,0,0,0-.72-.75,4.65,4.65,0,0,0-1.5-.47,17.13,17.13,0,0,0-2.53-.15v-3.75a10.8,10.8,0,0,0,2.07-.16,4.2,4.2,0,0,0,1.34-.44,1.73,1.73,0,0,0,.69-.71,2,2,0,0,0,.21-.94c0-1.21-.68-1.81-2.06-1.81a3.82,3.82,0,0,0-1.78.4,9.42,9.42,0,0,0-1.72,1.22L619.37,260a11.84,11.84,0,0,1,3-1.87,8.3,8.3,0,0,1,3.4-.69,8.43,8.43,0,0,1,5.22,1.47,4.8,4.8,0,0,1,2,4.12q0,2.88-3.19,4.28v.13a6,6,0,0,1,2.75,1.72,4.29,4.29,0,0,1,1.06,3,4.91,4.91,0,0,1-.62,2.5,5.82,5.82,0,0,1-1.69,1.81,7.36,7.36,0,0,1-2.43,1.13A11.39,11.39,0,0,1,625.94,278Z"/><circle class="cls-3" cx="627" cy="175.34" r="25"/><path class="cls-2" d="M619.37,185.34v-3.06q1.75-1.64,3.25-3.07c1-1,1.91-1.85,2.66-2.68a14.57,14.57,0,0,0,1.75-2.41,4.39,4.39,0,0,0,.66-2.16,2.55,2.55,0,0,0-.69-2,2.39,2.39,0,0,0-1.75-.65,2.89,2.89,0,0,0-1.78.59,14.31,14.31,0,0,0-1.47,1.28l-2.88-2.87a17.49,17.49,0,0,1,1.54-1.41,7,7,0,0,1,1.56-1,7.22,7.22,0,0,1,1.75-.59,9.93,9.93,0,0,1,2-.19,7.82,7.82,0,0,1,2.75.47,6.55,6.55,0,0,1,2.16,1.31,5.75,5.75,0,0,1,1.4,2.06,6.71,6.71,0,0,1,.5,2.66,6.15,6.15,0,0,1-.53,2.44,14.2,14.2,0,0,1-1.31,2.44,22.23,22.23,0,0,1-1.84,2.37c-.67.77-1.34,1.5-2,2.19.49-.06,1.06-.12,1.68-.16s1.19-.09,1.63-.09h3.31v4.5Z"/><circle class="cls-3" cx="627" cy="82.41" r="25"/><path class="cls-2" d="M620.31,92.41V88.1h4.25V77.85h-3.75V74.54a20.12,20.12,0,0,0,2.88-.78A11.9,11.9,0,0,0,626,72.6h3.94V88.1h3.56v4.31Z"/><g id="dude"><polyline class="cls-6" points="680.7 678.41 720.7 678.41 760.7 678.41 800.7 678.41 840.7 678.41 880.7 678.41 920.7 678.41 960.7 678.41 1000.7 678.41"/><path class="cls-7" d="M666.3,308.61H865.72a88.12,88.12,0,0,1,88.12,88.11H754.42a88.11,88.11,0,0,1-88.12-88.11Z"/><rect class="cls-3" x="751.63" y="396.72" width="202.2" height="92.75"/><path class="cls-8" d="M751.63,489.48H953.84v45.15a74.21,74.21,0,0,1-43.27,67.45l-57.84,26.53L794.9,602.08a74.21,74.21,0,0,1-43.27-67.45Z"/><path class="cls-2" d="M852.73,466.29h0a11.59,11.59,0,0,1,11.6,11.59v23.19a11.6,11.6,0,0,1-11.6,11.6h0a11.59,11.59,0,0,1-11.59-11.6V477.88A11.59,11.59,0,0,1,852.73,466.29Z"/><path class="cls-9" d="M797.08,540l11.66,3.88a139.11,139.11,0,0,0,88,0L908.39,540"/><circle class="cls-1" cx="809.6" cy="443.1" r="17.89"/><circle class="cls-2" cx="809.6" cy="443.1" r="11.93"/><circle class="cls-1" cx="895.86" cy="443.1" r="17.89"/><circle class="cls-2" cx="895.86" cy="443.1" r="11.93"/></g><rect class="cls-10" x="651.69" y="416.15" width="402.09" height="131.64" rx="5.48" transform="translate(-95.69 237.13) rotate(-15)"/><path class="cls-5" d="M691.13,528.66l.09,3.86,9.66-2.59L699,526.55q-2-3.52-4.14-7.7c-1.43-2.78-2.83-5.4-4.17-7.86l-.33.09c.13,2.84.27,5.83.42,8.95S691.1,526,691.13,528.66ZM677.82,559.5l1.92-56.61,16.75-4.49,30,48.07L711.8,550.4,706.25,540l-14.66,3.92.4,11.81Zm49.39-13.23-14-52.35,19.16-5.13a37.81,37.81,0,0,1,8.38-1.29,18,18,0,0,1,7.54,1.08,14.59,14.59,0,0,1,6,4.17,17.82,17.82,0,0,1,4,7.74,18.72,18.72,0,0,1,.45,8.77,16.59,16.59,0,0,1-3.06,6.94,21.92,21.92,0,0,1-5.8,5.1,30.92,30.92,0,0,1-7.61,3.16L736.62,526l4.45,16.59ZM733.69,515l5-1.34q4.11-1.11,5.52-3.55a7.5,7.5,0,0,0,.55-6q-1-3.54-3.52-4.41a11.48,11.48,0,0,0-6.58.21L730,501.17ZM772,534.28l-14-52.35,19.17-5.13a37.26,37.26,0,0,1,8.37-1.3,18.11,18.11,0,0,1,7.54,1.09,14.53,14.53,0,0,1,6,4.16,17.92,17.92,0,0,1,4,7.74,18.47,18.47,0,0,1,.45,8.77,16.63,16.63,0,0,1-3.06,6.95,21.51,21.51,0,0,1-5.79,5.09,30.63,30.63,0,0,1-7.62,3.17L781.38,514l4.44,16.59ZM778.44,503l5-1.33q4.09-1.11,5.52-3.55a7.5,7.5,0,0,0,.54-6q-.94-3.54-3.51-4.41a11.52,11.52,0,0,0-6.59.21l-4.67,1.25Zm38.29,19.26-14-52.34,19.81-5.31a39.47,39.47,0,0,1,8.19-1.33,18.92,18.92,0,0,1,7.42.95,14.06,14.06,0,0,1,6,4,18.13,18.13,0,0,1,3.87,7.68,17.86,17.86,0,0,1,.17,10,16.42,16.42,0,0,1-4.57,7.44l16.8,17.25-15.47,4.14-13.72-15.14L825.87,501l4.71,17.55Zm6.21-32.22,5-1.33q8.39-2.25,6.52-9.17-.9-3.39-3.42-4.09a12.42,12.42,0,0,0-6.55.37l-5,1.34Zm62.6,14.82a27.12,27.12,0,0,1-10.48.83,22.75,22.75,0,0,1-9.08-3.27,26.43,26.43,0,0,1-7.22-7.3A36.87,36.87,0,0,1,853.88,484a35.33,35.33,0,0,1-1.29-11.91,24.44,24.44,0,0,1,2.65-9.77,21.56,21.56,0,0,1,6.24-7.29,29.77,29.77,0,0,1,19.89-5.33,20.85,20.85,0,0,1,9.06,3.19,25,25,0,0,1,7.26,7.11,35.48,35.48,0,0,1,4.83,11,36.88,36.88,0,0,1,1.34,12.08,25.67,25.67,0,0,1-2.69,9.95,21.62,21.62,0,0,1-6.22,7.37A26.69,26.69,0,0,1,885.54,504.88ZM882.35,493a8.65,8.65,0,0,0,6.3-6.09q1.62-4.92-.3-12.09t-5.7-10.3a8.74,8.74,0,0,0-8.46-2,9,9,0,0,0-6.43,6q-1.63,4.57.29,11.74t5.7,10.64A8.87,8.87,0,0,0,882.35,493Zm40.46.9-29.49-48.2L908,441.73l11.61,21.4q2.25,3.9,4.15,7.78t4.16,7.78l.32-.09q0-4.56-.29-8.81c-.14-2.9-.24-5.83-.29-8.81l-.81-24.3,14.17-3.8-1.43,56.49Zm33-8.84-14-52.34,33.82-9.07,3.11,11.6-20,5.35,2.2,8.22L978,444.2l3.11,11.6L964,460.37l2.5,9.34,20.77-5.56,3.11,11.59Zm40.51-10.85-14-52.35,15.46-4.14a39.44,39.44,0,0,1,11.26-1.46,22.59,22.59,0,0,1,9.77,2.3,21.39,21.39,0,0,1,7.63,6.58,32.45,32.45,0,0,1,5.19,11.3,34.51,34.51,0,0,1,1.26,12.44,21.95,21.95,0,0,1-10.3,16.65,34.92,34.92,0,0,1-10,4.32Zm10.88-14.83.8-.21a22.28,22.28,0,0,0,5.14-2.07,10.58,10.58,0,0,0,3.63-3.56,11.6,11.6,0,0,0,1.64-5.45,23.87,23.87,0,0,0-1-7.85,23.42,23.42,0,0,0-3-7.21,11,11,0,0,0-4.11-3.73,9.56,9.56,0,0,0-4.85-1,21.39,21.39,0,0,0-5.49.78l-.8.21Z"/></g></g></svg>