<svg width="92" height="92" viewBox="0 0 92 92" fill="none" xmlns="http://www.w3.org/2000/svg">
<rect width="92" height="92" fill="#E6EAED"/>
<path d="M68.6111 24.5565C66.8022 24.5565 65.3222 23.0929 65.3222 21.2676H61.6222C61.6222 23.0765 60.1587 24.5565 58.3333 24.5565C56.508 24.5565 55.0444 23.0929 55.0444 21.2676H51.328C51.2951 23.06 49.8316 24.4907 48.0391 24.4907C46.2467 24.4907 44.7831 23.06 44.7502 21.2676H41.0667C41.0667 23.0765 39.6031 24.5565 37.7778 24.5565C35.9524 24.5565 34.4889 23.0929 34.4889 21.2676H30.7889C30.7889 23.0765 29.3253 24.5565 27.5 24.5565V45.9342H70.6667L68.6111 24.5565Z" fill="#091440"/>
<path d="M66.5555 35.6565V24.5565C64.7466 24.5565 63.2666 23.0929 63.2666 21.2676H59.5666C59.5666 23.0765 58.1031 24.5565 56.2778 24.5565C54.4524 24.5565 52.9889 23.0929 52.9889 21.2676H49.2889C49.256 23.06 47.7924 24.4907 46 24.4907C44.2075 24.4907 42.744 23.06 42.7111 21.2676H38.9946C38.9946 23.0765 37.5311 24.5565 35.7058 24.5565C33.8804 24.5565 32.4169 23.0929 32.4169 21.2676H28.7333C28.7333 23.0765 27.2698 24.5565 25.4444 24.5565V35.6565C20.3466 35.6565 16.2026 39.8005 16.2026 44.8982C16.2026 49.996 20.3466 54.14 25.4444 54.14V66.4733H33.6666V74.6956C32.532 74.6956 31.6111 75.6165 31.6111 76.7511C31.6111 77.8858 32.532 78.8067 33.6666 78.8067H35.7222C36.8569 78.8067 37.7778 77.8858 37.7778 76.7511V66.4733H54.2222V76.7511C54.2222 77.8858 55.1431 78.8067 56.2778 78.8067H58.3333C59.468 78.8067 60.3889 77.8858 60.3889 76.7511C60.3889 75.6165 59.468 74.6956 58.3333 74.6956V66.4733H66.5555V54.14C71.6533 54.14 75.7973 49.996 75.7973 44.8982C75.7973 39.8005 71.6533 35.6565 66.5555 35.6565ZM20.3137 44.9147C20.3137 42.0862 22.616 39.784 25.4444 39.784V50.0618C22.616 50.0453 20.3137 47.7431 20.3137 44.9147ZM66.5555 50.0454V39.7676C69.384 39.7676 71.6862 42.0698 71.6862 44.8982C71.6862 47.7267 69.384 50.0454 66.5555 50.0454Z" fill="#2DD8A3"/>
<path d="M41.8889 43.8789C41.8889 46.1482 43.7307 47.99 46 47.99C48.2694 47.99 50.1111 46.1482 50.1111 43.8789H41.8889Z" fill="#091440"/>
<path d="M35.7222 40.8042C37.4296 40.8042 38.8137 39.4201 38.8137 37.7127C38.8137 36.0052 37.4296 34.6211 35.7222 34.6211C34.0147 34.6211 32.6306 36.0052 32.6306 37.7127C32.6306 39.4201 34.0147 40.8042 35.7222 40.8042Z" fill="#091440"/>
<path d="M56.2776 40.8042C57.985 40.8042 59.3692 39.4201 59.3692 37.7127C59.3692 36.0052 57.985 34.6211 56.2776 34.6211C54.5702 34.6211 53.186 36.0052 53.186 37.7127C53.186 39.4201 54.5702 40.8042 56.2776 40.8042Z" fill="#091440"/>
</svg>
