<svg id="Layer_1" data-name="Layer 1" xmlns="http://www.w3.org/2000/svg" viewBox="0 0 1160 800"><defs><style>.cls-1{fill:#fff;}.cls-2{fill:#091440;}.cls-3{fill:#394269;}.cls-4{fill:#ffc84e;}.cls-5{fill:none;}.cls-6{fill:#2970ff;}</style></defs><rect class="cls-1" width="1160" height="800"/><path class="cls-2" d="M568,60.19a13.88,13.88,0,0,0-1.69-6.67,14.17,14.17,0,0,0-2.41-3.23c-.29-.29-.59-.55-.9-.81l-.27-.23-.72-.54-.3-.2a13.64,13.64,0,0,0-3.55-1.69c-.44-.14-.88-.25-1.34-.35s-.92-.16-1.39-.21a13.56,13.56,0,0,0-1.43-.07H58.73a14,14,0,0,0-14,14v681.5a14,14,0,0,0,14,14H554c.48,0,1,0,1.43-.07a12.58,12.58,0,0,0,1.39-.22,11.94,11.94,0,0,0,1.34-.34c.44-.14.87-.29,1.29-.47a14,14,0,0,0,2.26-1.22l.3-.21.72-.53.28-.23c.3-.26.6-.53.89-.81a14.17,14.17,0,0,0,2.41-3.23,13.88,13.88,0,0,0,1.69-6.67Z"/><path class="cls-3" d="M197.41,166.7a4.93,4.93,0,0,0-6.34-3L65.91,209.3a5,5,0,0,0-3,6.34l19.87,54.6a4.93,4.93,0,0,0,4.64,3.26,4.87,4.87,0,0,0,1.71-.31l125.16-45.55a5,5,0,0,0,2.95-6.34Zm16.11,58.73L88.36,271A2.58,2.58,0,0,1,85,269.43L65.16,214.84a2.58,2.58,0,0,1,1.55-3.34L191.87,166a2.62,2.62,0,0,1,.91-.17,2.63,2.63,0,0,1,2.43,1.72l19.87,54.6A2.56,2.56,0,0,1,213.52,225.43Z"/><rect class="cls-3" x="145.05" y="205.66" width="16.15" height="16.15" transform="translate(-63.87 65.26) rotate(-20)"/><path class="cls-3" d="M176.32,195.58a9.23,9.23,0,1,0,11.83,5.52A9.18,9.18,0,0,0,176.32,195.58Z"/><polygon class="cls-3" points="120.08 235.47 139.79 228.3 123.69 214.74 120.08 235.47"/><polygon class="cls-3" points="93.03 226.79 91.37 236.32 98.77 242.56 108.04 239.19 109.7 229.65 102.3 223.42 93.03 226.79"/><path class="cls-3" d="M228,250.63a5,5,0,0,0-6.34-2.95L96.46,293.23a5,5,0,0,0-3,6.34l19.87,54.6a5,5,0,0,0,4.66,3.26,5,5,0,0,0,1.69-.3l125.16-45.56a4.93,4.93,0,0,0,3-6.34ZM245.55,308a2.61,2.61,0,0,1-1.48,1.34L118.91,354.92a2.57,2.57,0,0,1-3.33-1.55l-5.1-14L95.7,298.77a2.59,2.59,0,0,1,1.56-3.34l125.16-45.55a2.58,2.58,0,0,1,3.34,1.56L245.63,306A2.62,2.62,0,0,1,245.55,308Z"/><rect class="cls-3" x="201.03" y="280.34" width="16.15" height="16.15" transform="translate(-86.03 88.91) rotate(-20)"/><path class="cls-3" d="M154,298.74a9.23,9.23,0,1,0,11.83,5.52A9.31,9.31,0,0,0,154,298.74Z"/><polygon class="cls-3" points="176.45 310.01 196.16 302.83 180.13 289.47 176.45 310.01"/><polygon class="cls-3" points="123.58 310.72 121.92 320.26 129.32 326.49 138.59 323.12 140.25 313.58 132.85 307.35 123.58 310.72"/><path class="cls-3" d="M93.81,361.29l-19.87-54.6a5,5,0,0,0-6.35-2.95l-22.86,8.32v2.5l23.67-8.62a2.65,2.65,0,0,1,.91-.16,2.57,2.57,0,0,1,2.42,1.72L91.6,362.1a2.57,2.57,0,0,1-1.55,3.33l-45.32,16.5v2.49l46.12-16.78A5,5,0,0,0,93.81,361.29Z"/><polygon class="cls-3" points="49.19 337.8 47.52 347.33 54.93 353.57 63.99 350.27 65.66 340.73 58.26 334.5 49.19 337.8"/><path class="cls-3" d="M63.1,281.14a4.91,4.91,0,0,0,.16-3.78L44.73,226.44v6.86l16.32,44.86a2.6,2.6,0,0,1-1.55,3.34l-14.77,5.37v2.5L60.3,283.7A4.9,4.9,0,0,0,63.1,281.14Z"/><path class="cls-3" d="M156.15,57.56a4.93,4.93,0,0,0,.16-3.79l-2.76-7.58h-2.5l3.06,8.38a2.58,2.58,0,0,1-1.56,3.34L44.73,97.15v2.5L153.35,60.11A4.92,4.92,0,0,0,156.15,57.56Z"/><path class="cls-3" d="M46.52,54.22l-.54.2a13.9,13.9,0,0,0-1.25,5.77V72.06L52,69.4Z"/><path class="cls-3" d="M58.78,58.47a9.23,9.23,0,0,0,17.34-6.32,9.2,9.2,0,0,0-7.15-6H66a9.24,9.24,0,0,0-7.25,12.28Z"/><polygon class="cls-3" points="106.21 50.8 100.68 46.19 88.62 46.19 86.5 57.97 106.21 50.8"/><rect class="cls-3" x="143.06" y="111.72" width="16.15" height="16.15" transform="matrix(0.94, -0.34, 0.34, 0.94, -31.86, 58.92)"/><polygon class="cls-3" points="92.83 132.12 91.17 141.65 98.57 147.89 107.64 144.59 109.3 135.05 101.9 128.82 92.83 132.12"/><path class="cls-3" d="M122.51,120.42A9.19,9.19,0,0,0,117,132.25a9.23,9.23,0,1,0,5.52-11.83Z"/><polygon class="cls-3" points="67.84 159.74 87.55 152.57 71.46 139 67.84 159.74"/><path class="cls-3" d="M54.92,189.36a5,5,0,0,0,2.08.46,4.87,4.87,0,0,0,1.71-.31L183.87,144a5,5,0,0,0,3-6.34L167,83a5,5,0,0,0-6.35-3L44.73,122.24v2.5L161.42,82.27a2.66,2.66,0,0,1,.91-.17,2.57,2.57,0,0,1,2.42,1.72l19.87,54.6a2.58,2.58,0,0,1-1.55,3.34L57.91,187.31a2.59,2.59,0,0,1-3.34-1.55l-9.84-27v6.86l7.64,21A4.92,4.92,0,0,0,54.92,189.36Z"/><path class="cls-3" d="M180.4,50a5,5,0,0,0,1.69-.29l9.52-3.47h-6.86l-3.46,1.26a2.56,2.56,0,0,1-3.2-1.26h-2.53l.19.51A5,5,0,0,0,180.4,50Z"/><path class="cls-3" d="M186.39,76l19.87,54.59a5,5,0,0,0,4.66,3.26,5,5,0,0,0,1.69-.3L337.77,88a4.94,4.94,0,0,0,3-6.35L327.84,46.19h-2.5l13.18,36.22A2.58,2.58,0,0,1,337,85.74L211.8,131.3a2.58,2.58,0,0,1-3.33-1.56L188.6,75.14a2.57,2.57,0,0,1,1.55-3.33l70.39-25.62h-6.86L189.35,69.6A5,5,0,0,0,186.39,76Z"/><rect class="cls-3" x="293.92" y="56.71" width="16.15" height="16.15" transform="translate(-3.95 107.2) rotate(-20)"/><path class="cls-3" d="M246.94,75.11a9.23,9.23,0,1,0,11.83,5.52A9.32,9.32,0,0,0,246.94,75.11Z"/><polygon class="cls-3" points="269.34 86.38 289.05 79.2 273.03 65.84 269.34 86.38"/><polygon class="cls-3" points="216.47 87.09 214.81 96.63 222.21 102.86 231.48 99.49 233.14 89.96 225.74 83.72 216.47 87.09"/><path class="cls-3" d="M364.79,77.79a5,5,0,0,0,1.69-.29l86-31.31h-6.86l-79.95,29.1a2.57,2.57,0,0,1-3.34-1.55l-5.09-14-4.94-13.55h-2.49l10.32,28.35A4.94,4.94,0,0,0,364.79,77.79Z"/><polygon class="cls-3" points="376.7 46.19 374.95 46.19 375.15 46.75 376.7 46.19"/><path class="cls-3" d="M544.62,102.16a5,5,0,0,0,4.65,3.25,4.79,4.79,0,0,0,1.69-.3l17-6.2V96.42l-17.84,6.49a2.58,2.58,0,0,1-3.34-1.56L527,46.76a2.35,2.35,0,0,1-.13-.57h-2.34a4.69,4.69,0,0,0,.27,1.37Z"/><path class="cls-3" d="M554.83,58.71l-1.66,9.53,7.4,6.24L568,71.77V60.19a12.82,12.82,0,0,0-.11-1.65l-3.8-3.2Z"/><path class="cls-3" d="M555.46,127.71a4.86,4.86,0,0,0-.16,3.78l12.7,34.9v-6.85l-10.5-28.85a2.58,2.58,0,0,1,1.56-3.33L568,124.1v-2.5l-9.75,3.55A4.88,4.88,0,0,0,555.46,127.71Z"/><path class="cls-3" d="M381.86,194.62a4.94,4.94,0,0,0-6.34-3L250.36,237.22a4.93,4.93,0,0,0-3,6.34l19.87,54.6a4.93,4.93,0,0,0,2.56,2.8,5,5,0,0,0,2.07.46,4.79,4.79,0,0,0,1.71-.31l125.16-45.55a5,5,0,0,0,3-6.34ZM398,253.35,272.81,298.91a2.59,2.59,0,0,1-3.34-1.56L249.6,242.76a2.58,2.58,0,0,1,1.56-3.34l125.16-45.55a2.61,2.61,0,0,1,.9-.17,2.63,2.63,0,0,1,2.44,1.72L399.53,250A2.57,2.57,0,0,1,398,253.35Z"/><rect class="cls-3" x="328.47" y="233.95" width="16.15" height="16.15" transform="translate(-62.48 129.7) rotate(-20)"/><path class="cls-3" d="M307.94,242.73a9.23,9.23,0,1,0,11.83,5.51A9.31,9.31,0,0,0,307.94,242.73Z"/><polygon class="cls-3" points="356.62 243.87 376.33 236.69 360.3 223.33 356.62 243.87"/><polygon class="cls-3" points="277.48 254.71 275.82 264.24 283.22 270.48 292.49 267.1 294.15 257.57 286.75 251.34 277.48 254.71"/><path class="cls-3" d="M535.73,138.61a4.94,4.94,0,0,0-6.34-3L404.23,181.21a4.94,4.94,0,0,0-3,6.34l19.87,54.6a4.93,4.93,0,0,0,4.64,3.26,5.09,5.09,0,0,0,1.71-.3l125.16-45.55a5,5,0,0,0,3-6.35Zm16.11,58.74L426.68,242.9a2.5,2.5,0,0,1-2-.08,2.55,2.55,0,0,1-1.34-1.47l-19.88-54.6a2.6,2.6,0,0,1,1.56-3.33l125.16-45.56a2.69,2.69,0,0,1,.91-.16,2.58,2.58,0,0,1,2.43,1.72L553.4,194A2.57,2.57,0,0,1,551.84,197.35Z"/><rect class="cls-3" x="432.91" y="195.94" width="16.15" height="16.15" transform="translate(-43.18 163.13) rotate(-20)"/><polygon class="cls-3" points="510.98 169.72 509.32 179.25 516.72 185.49 525.79 182.19 527.45 172.65 520.05 166.42 510.98 169.72"/><path class="cls-3" d="M463.59,186.08a9.23,9.23,0,1,0,11.83,5.51A9.17,9.17,0,0,0,463.59,186.08Z"/><polygon class="cls-3" points="485.8 197.41 505.51 190.24 489.48 176.88 485.8 197.41"/><path class="cls-3" d="M351.31,110.68a4.94,4.94,0,0,0-6.34-3L219.81,153.28a5,5,0,0,0-3,6.34l19.87,54.6a4.94,4.94,0,0,0,6.34,3l125.17-45.55a5,5,0,0,0,2.79-2.56,4.89,4.89,0,0,0,.16-3.79Zm17.59,57.4a2.61,2.61,0,0,1-1.48,1.34L242.26,215a2.58,2.58,0,0,1-3.33-1.56l-5.1-14-14.78-40.61a2.57,2.57,0,0,1,1.56-3.33l125.16-45.56a2.59,2.59,0,0,1,3.34,1.56L369,166.09A2.59,2.59,0,0,1,368.9,168.08Z"/><rect class="cls-3" x="248.49" y="168.01" width="16.15" height="16.15" transform="translate(-44.75 98.37) rotate(-20)"/><polygon class="cls-3" points="326.56 141.79 324.9 151.32 332.3 157.56 341.37 154.26 343.03 144.72 335.63 138.49 326.56 141.79"/><path class="cls-3" d="M279.17,158.15A9.23,9.23,0,1,0,291,163.66,9.17,9.17,0,0,0,279.17,158.15Z"/><polygon class="cls-3" points="301.37 169.49 321.08 162.31 305.06 148.95 301.37 169.49"/><rect class="cls-3" x="481.29" y="83.38" width="16.15" height="16.15" transform="translate(-1.77 172.89) rotate(-20)"/><polygon class="cls-3" points="431.06 103.78 429.39 113.31 436.8 119.55 445.87 116.25 447.53 106.71 440.13 100.48 431.06 103.78"/><path class="cls-3" d="M460.73,92.09a9.16,9.16,0,0,0-5.51,11.82,9.23,9.23,0,1,0,5.51-11.82Z"/><polygon class="cls-3" points="406.07 131.4 425.78 124.23 409.68 110.67 406.07 131.4"/><path class="cls-3" d="M505.18,54.68a4.92,4.92,0,0,0-2.55-2.8,5,5,0,0,0-3.79-.16L373.68,97.28a5,5,0,0,0-3,6.34l19.87,54.6a4.93,4.93,0,0,0,2.56,2.8,5,5,0,0,0,2.08.46,5.09,5.09,0,0,0,1.71-.3L522.1,115.62a4.92,4.92,0,0,0,2.95-6.34Zm17.59,57.39a2.59,2.59,0,0,1-1.48,1.35L396.13,159a2.58,2.58,0,0,1-3.33-1.55l-5.1-14-14.77-40.6a2.58,2.58,0,0,1,1.55-3.34L499.64,53.93a2.5,2.5,0,0,1,2,.08A2.57,2.57,0,0,1,503,55.48l19.87,54.6A2.59,2.59,0,0,1,522.77,112.07Z"/><path class="cls-3" d="M154.75,528.73l-19.87-54.6a4.94,4.94,0,0,0-6.34-3L44.73,501.68v2.49l84.61-30.79a2.55,2.55,0,0,1,.9-.16,2.62,2.62,0,0,1,1.09.24,2.55,2.55,0,0,1,1.34,1.47l19.87,54.6a2.58,2.58,0,0,1-1.55,3.34L44.73,571.54V574l107.06-39A5,5,0,0,0,154.75,528.73Z"/><polygon class="cls-3" points="44.96 529.18 44.73 529.26 44.73 546.45 50.48 544.36 44.96 529.18"/><polygon class="cls-3" points="110.13 505.24 108.47 514.77 115.87 521 124.94 517.71 126.6 508.17 119.2 501.94 110.13 505.24"/><path class="cls-3" d="M62.73,521.59a9.23,9.23,0,1,0,11.83,5.52A9.18,9.18,0,0,0,62.73,521.59Z"/><polygon class="cls-3" points="84.94 532.93 104.65 525.76 88.63 512.39 84.94 532.93"/><rect class="cls-3" x="80.47" y="418.98" width="16.15" height="16.15" transform="translate(-140.72 56.04) rotate(-20)"/><polygon class="cls-3" points="46.71 442.32 44.73 440.65 44.73 451.97 45.04 451.85 46.71 442.32"/><path class="cls-3" d="M59.91,427.69a9.17,9.17,0,0,0-5.51,11.83,9.23,9.23,0,1,0,5.51-11.83Z"/><path class="cls-3" d="M124.23,444.88l-19.87-54.6A5,5,0,0,0,98,387.33L44.73,406.72v2.5l54.09-19.69a2.65,2.65,0,0,1,.91-.16,2.58,2.58,0,0,1,2.43,1.72L122,445.69a2.57,2.57,0,0,1-1.56,3.33L44.73,476.59v2.5l76.55-27.86A5,5,0,0,0,124.23,444.88Z"/><path class="cls-3" d="M319.36,501.75a5,5,0,0,0-6.34-3L187.86,544.35a4.93,4.93,0,0,0-3,6.34l19.87,54.6a5,5,0,0,0,6.34,3l125.16-45.56a4.94,4.94,0,0,0,3-6.34ZM337,559.14a2.57,2.57,0,0,1-1.48,1.34L210.31,606a2.56,2.56,0,0,1-3.33-1.56l-5.1-14-14.78-40.6a2.58,2.58,0,0,1,1.56-3.34L313.82,501a2.58,2.58,0,0,1,3.34,1.55L337,557.15A2.59,2.59,0,0,1,337,559.14Z"/><rect class="cls-3" x="267" y="540.71" width="16.15" height="16.15" transform="translate(-171.11 127.18) rotate(-20)"/><path class="cls-3" d="M298.27,530.63a9.23,9.23,0,1,0,11.83,5.52A9.18,9.18,0,0,0,298.27,530.63Z"/><polygon class="cls-3" points="242.03 570.52 261.74 563.35 245.64 549.79 242.03 570.52"/><polygon class="cls-3" points="214.98 561.84 213.32 571.37 220.72 577.61 229.99 574.24 231.65 564.7 224.25 558.47 214.98 561.84"/><path class="cls-3" d="M349.91,585.68a4.94,4.94,0,0,0-6.34-2.95L218.41,628.28a5,5,0,0,0-3,6.34l19.87,54.6a4.93,4.93,0,0,0,4.64,3.26,5,5,0,0,0,1.7-.3l125.16-45.56a5,5,0,0,0,3-6.34ZM366,644.42,240.86,690a2.5,2.5,0,0,1-2-.08,2.57,2.57,0,0,1-1.35-1.47l-19.87-54.6a2.57,2.57,0,0,1,1.56-3.33l125.16-45.56a2.59,2.59,0,0,1,.9-.16,2.55,2.55,0,0,1,1.09.24,2.59,2.59,0,0,1,1.35,1.48l19.87,54.59A2.58,2.58,0,0,1,366,644.42Z"/><rect class="cls-3" x="322.98" y="615.39" width="16.15" height="16.15" transform="translate(-193.27 150.83) rotate(-20)"/><path class="cls-3" d="M276,633.79a9.23,9.23,0,1,0,11.83,5.52A9.31,9.31,0,0,0,276,633.79Z"/><polygon class="cls-3" points="298.4 645.06 318.11 637.88 302.08 624.52 298.4 645.06"/><polygon class="cls-3" points="245.53 645.77 243.87 655.31 251.27 661.54 260.54 658.17 262.2 648.63 254.8 642.4 245.53 645.77"/><path class="cls-3" d="M61.88,752.35,44.73,705.21v6.86l15,41.08a2.59,2.59,0,0,1-.08,2,2.48,2.48,0,0,1-.36.55h2.64A4.91,4.91,0,0,0,61.88,752.35Z"/><path class="cls-3" d="M195.88,641.74a4.93,4.93,0,0,0-6.34-3L64.38,684.34a5,5,0,0,0-3,6.34l19.87,54.6a5,5,0,0,0,6.35,3L212.8,702.68a4.92,4.92,0,0,0,2.8-2.55,5,5,0,0,0,.16-3.79Zm17.59,57.4a2.59,2.59,0,0,1-1.47,1.34L86.83,746a2.58,2.58,0,0,1-3.33-1.56l-19.87-54.6a2.57,2.57,0,0,1,1.55-3.33L190.34,641a2.65,2.65,0,0,1,.91-.16,2.57,2.57,0,0,1,2.43,1.72l19.87,54.59A2.62,2.62,0,0,1,213.47,699.14Z"/><rect class="cls-3" x="93.06" y="699.07" width="16.15" height="16.15" transform="translate(-235.76 77.24) rotate(-20)"/><polygon class="cls-3" points="171.14 672.85 169.47 682.38 176.88 688.62 185.94 685.32 187.61 675.78 180.2 669.55 171.14 672.85"/><path class="cls-3" d="M123.74,689.21a9.23,9.23,0,1,0,11.83,5.51A9.17,9.17,0,0,0,123.74,689.21Z"/><polygon class="cls-3" points="145.95 700.54 165.66 693.37 149.63 680.01 145.95 700.54"/><rect class="cls-3" x="141.44" y="586.51" width="16.15" height="16.15" transform="translate(-194.34 87) rotate(-20)"/><polygon class="cls-3" points="91.21 606.91 89.55 616.44 96.95 622.68 106.02 619.38 107.68 609.84 100.28 603.61 91.21 606.91"/><path class="cls-3" d="M120.89,595.22A9.17,9.17,0,0,0,115.37,607a9.23,9.23,0,1,0,5.52-11.82Z"/><polygon class="cls-3" points="66.22 634.53 85.93 627.36 69.83 613.8 66.22 634.53"/><path class="cls-3" d="M53.3,664.15a5,5,0,0,0,2.08.46,5.09,5.09,0,0,0,1.71-.3l125.16-45.56a5,5,0,0,0,3-6.34l-19.88-54.6a4.93,4.93,0,0,0-6.34-3L44.73,596.44v2.5l115.06-41.88a2.65,2.65,0,0,1,.91-.16,2.62,2.62,0,0,1,1.09.24,2.59,2.59,0,0,1,1.34,1.47L183,613.21a2.58,2.58,0,0,1-1.55,3.34L56.29,662.1a2.62,2.62,0,0,1-2-.08A2.59,2.59,0,0,1,53,660.55L44.73,638v6.86l6,16.54A4.92,4.92,0,0,0,53.3,664.15Z"/><path class="cls-3" d="M258.39,334.22a5,5,0,0,0-2.56-2.79,4.89,4.89,0,0,0-3.79-.16L126.88,376.82a5,5,0,0,0-2.8,2.56,4.91,4.91,0,0,0-.15,3.78l19.87,54.6a4.91,4.91,0,0,0,4.63,3.26,5,5,0,0,0,1.71-.3L275.3,395.17a5,5,0,0,0,3-6.35ZM274.5,393,149.34,438.51a2.53,2.53,0,0,1-2-.08A2.59,2.59,0,0,1,146,437l-5.09-14-14.78-40.61a2.58,2.58,0,0,1,1.56-3.33l125.16-45.56a2.58,2.58,0,0,1,3.33,1.56l19.87,54.6A2.57,2.57,0,0,1,274.5,393Z"/><rect class="cls-3" x="155.57" y="391.55" width="16.15" height="16.15" transform="translate(-126.81 80.07) rotate(-20)"/><polygon class="cls-3" points="233.64 365.33 231.97 374.86 239.38 381.1 248.44 377.8 250.11 368.26 242.71 362.03 233.64 365.33"/><path class="cls-3" d="M186.24,381.69a9.23,9.23,0,1,0,11.83,5.51A9.17,9.17,0,0,0,186.24,381.69Z"/><polygon class="cls-3" points="208.45 393.02 228.16 385.85 212.14 372.49 208.45 393.02"/><rect class="cls-3" x="265.01" y="446.77" width="16.15" height="16.15" transform="matrix(0.94, -0.34, 0.34, 0.94, -139.1, 120.83)"/><polygon class="cls-3" points="214.78 467.17 213.12 476.7 220.52 482.94 229.59 479.64 231.25 470.1 223.85 463.87 214.78 467.17"/><path class="cls-3" d="M244.45,455.47a9.17,9.17,0,0,0-5.51,11.83,9.23,9.23,0,1,0,5.51-11.83Z"/><polygon class="cls-3" points="189.79 494.79 209.5 487.62 193.4 474.06 189.79 494.79"/><path class="cls-3" d="M288.9,418.07a4.92,4.92,0,0,0-2.55-2.8,5,5,0,0,0-3.79-.16L157.4,460.67a5,5,0,0,0-3,6.34l19.87,54.6a5,5,0,0,0,6.35,3L305.82,479a4.9,4.9,0,0,0,2.8-2.56,5,5,0,0,0,.16-3.78Zm17.59,57.39a2.57,2.57,0,0,1-1.47,1.35L179.85,522.36a2.57,2.57,0,0,1-3.33-1.55l-5.1-14-14.77-40.6a2.58,2.58,0,0,1,1.55-3.34l125.16-45.55a2.53,2.53,0,0,1,2,.08,2.59,2.59,0,0,1,1.34,1.47l19.87,54.6A2.59,2.59,0,0,1,306.49,475.46Z"/><path class="cls-3" d="M412.28,278.21a4.93,4.93,0,0,0-6.34-3L280.78,320.81a5,5,0,0,0-3,6.34l19.88,54.6a4.92,4.92,0,0,0,2.55,2.8,5,5,0,0,0,2.08.46,5.09,5.09,0,0,0,1.71-.3L429.2,339.15a4.92,4.92,0,0,0,2.8-2.55,5,5,0,0,0,.16-3.79Zm17.59,57.39A2.57,2.57,0,0,1,428.4,337L303.24,382.5A2.59,2.59,0,0,1,299.9,381L280,326.35a2.58,2.58,0,0,1,1.55-3.34l125.16-45.55a2.59,2.59,0,0,1,3.34,1.55L430,333.61A2.59,2.59,0,0,1,429.87,335.6Z"/><rect class="cls-3" x="359.92" y="317.17" width="16.15" height="16.15" transform="translate(-89.05 145.48) rotate(-20)"/><path class="cls-3" d="M391.19,307.09A9.23,9.23,0,1,0,403,312.61,9.18,9.18,0,0,0,391.19,307.09Z"/><polygon class="cls-3" points="334.95 346.98 354.66 339.81 338.56 326.25 334.95 346.98"/><polygon class="cls-3" points="307.91 338.3 306.24 347.83 313.64 354.07 322.91 350.7 324.57 341.16 317.17 334.93 307.91 338.3"/><path class="cls-3" d="M442.8,362.06a4.93,4.93,0,0,0-6.34-3L311.3,404.65a4.94,4.94,0,0,0-3,6.35l19.87,54.59a4.93,4.93,0,0,0,4.64,3.26,5.09,5.09,0,0,0,1.71-.3L459.72,423a5,5,0,0,0,2.95-6.35Zm16.11,58.73L333.75,466.35a2.58,2.58,0,0,1-3.33-1.56l-19.88-54.6a2.6,2.6,0,0,1,1.56-3.33L437.26,361.3a2.61,2.61,0,0,1,.91-.16,2.54,2.54,0,0,1,1.08.24,2.62,2.62,0,0,1,1.35,1.48l19.87,54.6A2.57,2.57,0,0,1,458.91,420.79Z"/><rect class="cls-3" x="415.87" y="391.76" width="16.15" height="16.15" transform="translate(-111.18 169.11) rotate(-20)"/><path class="cls-3" d="M368.88,410.16a9.23,9.23,0,1,0,11.83,5.52A9.31,9.31,0,0,0,368.88,410.16Z"/><polygon class="cls-3" points="391.29 421.43 411 414.25 394.97 400.89 391.29 421.43"/><polygon class="cls-3" points="338.42 422.14 336.76 431.68 344.16 437.91 353.43 434.54 355.09 425.01 347.69 418.77 338.42 422.14"/><path class="cls-3" d="M462.37,351.2a4.93,4.93,0,0,0-.16,3.79l19.87,54.6a5,5,0,0,0,2.56,2.8,5,5,0,0,0,2.08.46,5.09,5.09,0,0,0,1.71-.3l79.57-29v-2.49l-80.38,29.25a2.58,2.58,0,0,1-3.33-1.55l-19.87-54.6a2.6,2.6,0,0,1,1.55-3.34l102-37.13v-2.5L465.17,348.65A4.92,4.92,0,0,0,462.37,351.2Z"/><rect class="cls-3" x="493.85" y="363.37" width="16.15" height="16.15" transform="translate(-96.77 194.07) rotate(-20)"/><path class="cls-3" d="M524.53,353.51A9.23,9.23,0,1,0,536.36,359,9.18,9.18,0,0,0,524.53,353.51Z"/><polygon class="cls-3" points="546.74 364.85 566.45 357.68 550.42 344.31 546.74 364.85"/><rect class="cls-3" x="542.26" y="250.9" width="16.15" height="16.15" transform="translate(-55.39 203.85) rotate(-20)"/><polygon class="cls-3" points="492.03 271.3 490.37 280.84 497.77 287.07 506.84 283.77 508.5 274.24 501.1 268 492.03 271.3"/><path class="cls-3" d="M521.71,259.61a9.18,9.18,0,0,0-5.52,11.83,9.23,9.23,0,1,0,5.52-11.83Z"/><polygon class="cls-3" points="467.04 298.93 486.75 291.75 470.66 278.19 467.04 298.93"/><path class="cls-3" d="M559.81,219.25,434.65,264.8a4.92,4.92,0,0,0-2.95,6.34l19.87,54.6a5,5,0,0,0,4.65,3.26,5,5,0,0,0,1.69-.3L568,288.63v-2.5L457.11,326.5a2.59,2.59,0,0,1-3.34-1.56l-19.87-54.6a2.58,2.58,0,0,1,1.56-3.33l125.16-45.56a2.65,2.65,0,0,1,.91-.16A2.57,2.57,0,0,1,564,223l4,11.12v-6.86l-1.84-5.07A5,5,0,0,0,559.81,219.25Z"/><path class="cls-3" d="M503.81,529.67a4.94,4.94,0,0,0-6.34-3L372.3,572.27a5,5,0,0,0-2.95,6.34l19.87,54.6a5,5,0,0,0,4.65,3.25,4.79,4.79,0,0,0,1.69-.3l125.16-45.55a4.94,4.94,0,0,0,3-6.34Zm17.58,57.39a2.52,2.52,0,0,1-1.47,1.34L394.76,634a2.58,2.58,0,0,1-3.34-1.56l-19.87-54.59a2.58,2.58,0,0,1,1.56-3.34l125.16-45.55a2.56,2.56,0,0,1,.9-.17,2.63,2.63,0,0,1,1.09.25,2.55,2.55,0,0,1,1.34,1.47l19.88,54.6A2.55,2.55,0,0,1,521.39,587.06Z"/><rect class="cls-3" x="450.42" y="569" width="16.15" height="16.15" transform="translate(-169.72 191.62) rotate(-20)"/><path class="cls-3" d="M429.89,577.78a9.23,9.23,0,1,0,11.83,5.51A9.32,9.32,0,0,0,429.89,577.78Z"/><polygon class="cls-3" points="478.56 578.92 498.28 571.74 482.25 558.38 478.56 578.92"/><polygon class="cls-3" points="399.43 589.76 397.77 599.29 405.17 605.53 414.43 602.15 416.1 592.62 408.69 586.39 399.43 589.76"/><path class="cls-3" d="M523.22,522.6l19.87,54.6a4.94,4.94,0,0,0,6.34,3L568,573.4v-2.49L548.63,578a2.58,2.58,0,0,1-3.34-1.56l-5.09-14L525.42,521.8a2.57,2.57,0,0,1,1.56-3.33l41-14.93V501l-41.82,15.22A5,5,0,0,0,523.22,522.6Z"/><polygon class="cls-3" points="552.59 534.24 558.11 549.41 568 545.81 568 529.37 567.76 528.71 552.59 534.24"/><path class="cls-3" d="M473.26,445.73a5,5,0,0,0-6.34-3L341.75,488.33a4.95,4.95,0,0,0-2.95,6.35l19.87,54.59a4.9,4.9,0,0,0,2.56,2.8,4.84,4.84,0,0,0,2.07.46,5,5,0,0,0,1.71-.3l125.16-45.55a5,5,0,0,0,3-6.35Zm16.11,58.74L364.21,550a2.59,2.59,0,0,1-2-.08,2.62,2.62,0,0,1-1.35-1.48L341,493.87a2.58,2.58,0,0,1,1.56-3.33L467.72,445a2.65,2.65,0,0,1,.91-.16,2.57,2.57,0,0,1,2.42,1.72l19.88,54.6A2.57,2.57,0,0,1,489.37,504.47Z"/><rect class="cls-3" x="370.44" y="503.06" width="16.15" height="16.15" transform="translate(-151.99 160.28) rotate(-20)"/><polygon class="cls-3" points="448.51 476.84 446.85 486.38 454.25 492.61 463.32 489.31 464.98 479.77 457.58 473.54 448.51 476.84"/><path class="cls-3" d="M401.12,493.2a9.23,9.23,0,1,0,11.82,5.51A9.16,9.16,0,0,0,401.12,493.2Z"/><polygon class="cls-3" points="423.32 504.54 443.03 497.36 427.01 484 423.32 504.54"/><polygon class="cls-3" points="553.01 438.83 551.34 448.36 558.75 454.6 567.81 451.3 568 450.23 568 440.52 562.07 435.53 553.01 438.83"/><polygon class="cls-3" points="528.02 466.45 547.73 459.28 531.63 445.72 528.02 466.45"/><path class="cls-3" d="M492.83,434.88a4.89,4.89,0,0,0-.16,3.79l19.87,54.6a4.93,4.93,0,0,0,2.56,2.8,4.95,4.95,0,0,0,3.78.16L568,478.35v-2.5L518.08,494a2.59,2.59,0,0,1-2-.08,2.55,2.55,0,0,1-1.34-1.47l-19.88-54.6a2.59,2.59,0,0,1,.08-2,2.62,2.62,0,0,1,1.48-1.35l71.57-26V406l-72.37,26.34A4.92,4.92,0,0,0,492.83,434.88Z"/><path class="cls-3" d="M223.78,722.62a4.91,4.91,0,0,0-3.78-.16l-91.3,33.23h6.86l85.24-31a2.5,2.5,0,0,1,2,.08,2.55,2.55,0,0,1,1.34,1.47l10.73,29.47h2.5l-11-30.27A4.93,4.93,0,0,0,223.78,722.62Z"/><polygon class="cls-3" points="203.89 755.69 213.58 755.69 210.66 753.22 203.89 755.69"/><path class="cls-3" d="M408.27,750.24a4.93,4.93,0,0,0-3.79-.16l-15.41,5.61h6.86l9.35-3.41a2.86,2.86,0,0,1,.91-.16,2.54,2.54,0,0,1,1.08.24,2.62,2.62,0,0,1,1.35,1.48l.67,1.85h2.5l-1-2.65A4.92,4.92,0,0,0,408.27,750.24Z"/><rect class="cls-3" x="356.47" y="698.06" width="16.15" height="16.15" transform="translate(-219.53 167.27) rotate(-20)"/><polygon class="cls-3" points="306.24 718.46 304.58 727.99 311.98 734.22 321.05 730.92 322.71 721.39 315.31 715.15 306.24 718.46"/><path class="cls-3" d="M335.92,706.76a9.18,9.18,0,0,0-5.52,11.83,9.23,9.23,0,1,0,5.52-11.83Z"/><polygon class="cls-3" points="281.25 746.08 300.96 738.9 284.87 725.34 281.25 746.08"/><path class="cls-3" d="M400.08,727.74a5,5,0,0,0,.16-3.78l-19.88-54.6a5,5,0,0,0-6.34-3L248.86,712a4.94,4.94,0,0,0-3,6.35l13.61,37.39H262l-13.9-38.2a2.58,2.58,0,0,1,1.55-3.33L374.83,668.6a2.65,2.65,0,0,1,.91-.16,2.57,2.57,0,0,1,2.42,1.72L398,724.76a2.59,2.59,0,0,1-.08,2,2.55,2.55,0,0,1-1.47,1.34l-75.82,27.6h6.86l69.76-25.39A4.93,4.93,0,0,0,400.08,727.74Z"/><path class="cls-3" d="M534.26,613.34a4.94,4.94,0,0,0-6.34-3L402.76,655.94a5,5,0,0,0-3,6.34l19.87,54.6a5,5,0,0,0,4.66,3.26,5,5,0,0,0,1.69-.3l125.16-45.56a4.91,4.91,0,0,0,3-6.34Zm17.59,57.4a2.61,2.61,0,0,1-1.48,1.34L425.21,717.63a2.57,2.57,0,0,1-3.33-1.55L402,661.48a2.58,2.58,0,0,1,1.55-3.34l125.16-45.55a2.69,2.69,0,0,1,.91-.16,2.58,2.58,0,0,1,2.43,1.72l19.87,54.59A2.62,2.62,0,0,1,551.85,670.74Z"/><rect class="cls-3" x="507.33" y="643.05" width="16.15" height="16.15" transform="translate(-191.61 215.55) rotate(-20)"/><path class="cls-3" d="M460.35,661.45A9.23,9.23,0,1,0,472.17,667,9.32,9.32,0,0,0,460.35,661.45Z"/><polygon class="cls-3" points="482.75 672.72 502.46 665.54 486.44 652.18 482.75 672.72"/><polygon class="cls-3" points="429.88 673.43 428.22 682.97 435.62 689.2 444.89 685.83 446.55 676.29 439.15 670.06 429.88 673.43"/><path class="cls-3" d="M553.67,606.28,568,645.64v-6.86l-12.12-33.31a2.57,2.57,0,0,1,1.55-3.33L568,598.29V595.8l-11.37,4.13A5,5,0,0,0,553.67,606.28Z"/><path class="cls-3" d="M432.54,743.17a2.62,2.62,0,0,1,1.48-1.35l125.16-45.55a2.59,2.59,0,0,1,3.34,1.56L568,712.89V706l-3.28-9a4.9,4.9,0,0,0-2.56-2.8,5,5,0,0,0-3.78-.16L433.22,739.62a4.94,4.94,0,0,0-3,6.34l3.54,9.73h2.5l-3.84-10.53A2.59,2.59,0,0,1,432.54,743.17Z"/><polygon class="cls-3" points="464.86 755.69 476.12 755.69 474.8 752.07 464.86 755.69"/><polygon class="cls-3" points="539.97 728.13 538.31 737.66 545.71 743.9 554.78 740.6 556.44 731.06 549.04 724.83 539.97 728.13"/><path class="cls-3" d="M504.41,750a9.17,9.17,0,0,0-11.83-5.51,9.3,9.3,0,0,0-5.71,11.2h17.7A9.17,9.17,0,0,0,504.41,750Z"/><polygon class="cls-3" points="518.47 735.28 514.81 755.69 515.15 755.69 534.49 748.65 518.47 735.28"/><rect class="cls-4" x="591" y="45.88" width="524" height="709.31" rx="14"/><path class="cls-2" d="M973,535.37A20.88,20.88,0,0,1,952.38,556H753.61A20.88,20.88,0,0,1,733,535.37V265.7a20.64,20.64,0,0,1,20.61-20.61H900.68c.69,0,1,0,1.39.34a3.85,3.85,0,0,1,3.5.7l66.37,65.33a2.77,2.77,0,0,1,.7,3.49c0,.35.35,1.05.35,1.4Z"/><path class="cls-1" d="M961.11,310.41,907,257V291.2a19.6,19.6,0,0,0,17.47,19.21h36.68Z"/><path class="cls-1" d="M854.52,495a87.07,87.07,0,0,1-86.19-72.53l9.42-1.41c6.12,37.21,38.62,64.52,76.77,64.52,42.86,0,78.18-34.38,78.18-77.24s-34.85-77.24-78.18-77.24c-31.09,0-58.87,17.9-71.12,45.68l12.72-4.23,2.82,8.94-25.43,8H772.1a3.6,3.6,0,0,1-2.36-.94,8.39,8.39,0,0,1-2.35-3.3l-3.3-26.84,9.42-1.42,1.88,14.13c14.13-30.61,44.75-50.39,79.6-50.39,48,0,87.6,38.62,87.6,86.66S902.56,495,854.52,495Z"/><path class="cls-1" d="M883.21,360.36H847.58l-23.76,55.89h23.76L835.7,458.17l47.51-55.89H859Z"/><rect class="cls-5" x="44.73" y="46.19" width="523.27" height="709.5" rx="14"/><path class="cls-1" d="M171.94,268.82h220a20,20,0,0,1,20,20v36h-260v-36A20,20,0,0,1,171.94,268.82Z"/><path class="cls-6" d="M191.94,528.82h240a20,20,0,0,0,20-20v-180a20,20,0,0,0-20-20h-260a20,20,0,0,1-20-20h0v200A40,40,0,0,0,191.94,528.82Z"/><path class="cls-1" d="M401.94,418.82a50.27,50.27,0,0,0,50,50v-100A50.26,50.26,0,0,0,401.94,418.82Z"/><rect class="cls-5" x="111.94" y="228.82" width="360" height="360"/></svg>