<svg id="Layer_1" data-name="Layer 1" xmlns="http://www.w3.org/2000/svg" xmlns:xlink="http://www.w3.org/1999/xlink" viewBox="0 0 1160 800"><defs><style>.cls-1{fill:none;}.cls-2{fill:#fff;}.cls-3{fill:#feb8a5;}.cls-4{fill:#c4cbd2;}.cls-5{fill:#2970ff;}.cls-6,.cls-8{fill:#091440;}.cls-7{clip-path:url(#clip-path);}.cls-8{fill-rule:evenodd;}</style><clipPath id="clip-path"><path class="cls-1" d="M794.34,410h310.9a9.55,9.55,0,0,1,9.55,9.55v321.8a13.7,13.7,0,0,1-13.7,13.7H794.34a9.55,9.55,0,0,1-9.55-9.55v-326a9.55,9.55,0,0,1,9.55-9.55Z" transform="translate(1899.59 1165.05) rotate(-180)"/></clipPath></defs><rect class="cls-2" width="1160" height="800"/><path class="cls-3" d="M803.15,410.56H1101a14,14,0,0,1,14,14V741.61a14,14,0,0,1-14,14H799a14,14,0,0,1-14-14V428.72A18.16,18.16,0,0,1,803.15,410.56Z"/><path class="cls-4" d="M803.15,45.41H1101a14,14,0,0,1,14,14V376.47a14,14,0,0,1-14,14H799a14,14,0,0,1-14-14V63.57A18.16,18.16,0,0,1,803.15,45.41Z"/><rect id="BG" class="cls-5" x="45.6" y="45.41" width="726.4" height="709.17" rx="14"/><path class="cls-2" d="M870,124.61h146.67A13.33,13.33,0,0,1,1030,137.94v24H856.67v-24A13.33,13.33,0,0,1,870,124.61Z"/><path class="cls-6" d="M883.33,297.94h160a13.33,13.33,0,0,0,13.34-13.33v-120a13.34,13.34,0,0,0-13.34-13.34H870a13.33,13.33,0,0,1-13.33-13.33h0V271.27A26.67,26.67,0,0,0,883.33,297.94Z"/><path class="cls-2" d="M1023.33,224.61a33.51,33.51,0,0,0,33.34,33.33V191.27A33.52,33.52,0,0,0,1023.33,224.61Z"/><circle class="cls-2" cx="903.33" cy="251.27" r="60"/><rect class="cls-1" x="830" y="97.94" width="240" height="240"/><path class="cls-6" d="M933.12,250.57a29.82,29.82,0,0,0-29.79-29.81v29.88Z"/><circle class="cls-4" cx="903.33" cy="250.57" r="5.96"/><rect class="cls-1" x="849.67" y="190.95" width="107.33" height="107.33"/><path class="cls-4" d="M906.31,208.94v-3.09h5.94a9,9,0,0,0-9-8.94h0a8.94,8.94,0,0,0-8.94,8.94h6v3.09a41.74,41.74,0,1,0,6,0Zm-3,77.41a35.78,35.78,0,1,1,35.78-35.78A35.82,35.82,0,0,1,903.33,286.35Z"/><rect class="cls-6" x="45.6" y="606.18" width="726.4" height="12.01"/><path class="cls-6" d="M772,476.12V59.48a14.07,14.07,0,0,0-14.07-14.07H59.67A14.07,14.07,0,0,0,45.6,59.48V476.12Z"/><rect class="cls-6" x="45.6" y="486.12" width="726.4" height="20.01"/><rect class="cls-6" x="45.6" y="516.14" width="726.4" height="30.02"/><circle class="cls-2" cx="419.57" cy="408.43" r="210"/><rect class="cls-1" x="250.82" y="239.68" width="337.5" height="337.5" transform="translate(828 -11.14) rotate(90)"/><g id="gears"><g class="cls-7"><path class="cls-8" d="M892.54,552.92h16.37v16.36H892.54Zm98.18,16.36H974.36v16.37H925.27V569.28H908.91v16.37H892.54V602H876.18v16.36H859.81v49.09h16.37V634.74h16.36v32.72h16.37v16.37h32.72V667.46H908.91V651.1h81.81v16.36H958v16.37h32.72V667.46h16.37V634.74h16.36v32.72h16.36V618.37h-16.36V602h-16.36V585.65H990.72Zm0,0V552.92h16.37v16.36ZM908.91,602h16.36v16.36H908.91Zm65.45,0h16.36v16.36H974.36Z"/></g></g><path class="cls-6" d="M932.74,533.74c0-10.39,7.44-17.46,17.43-17.46s17.43,7.07,17.43,17.46-7.43,17.74-17.43,17.74S932.74,544.16,932.74,533.74Zm5.48-78-.84-23.16H963l-.85,23.18-3.55,49.11H941.77Z"/><path class="cls-6" d="M512,539.63,468.1,393.23h75.47v-48h-24v24h-24V305.39l24-.16-100-72.8-100,72.8,24,.16v63.84h-24v-24h-24v48H371l-43.92,146.4H283.57v24h272v-24Zm-56.45-146.4Zm17.12,98.83-38.12-50.83,16.34-21.78Zm-32.12-98.83-21,28-21-28Zm-57,0Zm4.66,26.22,16.34,21.78-38.12,50.83ZM360.77,539.63l58.8-78.4,58.8,78.4Z"/><path class="cls-2" d="M447.29,304.85a56.06,56.06,0,0,0-27.72-7.62,54.34,54.34,0,0,0-48,28,56,56,0,0,0,48,28,54.7,54.7,0,0,0,48-28A56.05,56.05,0,0,0,447.29,304.85ZM441,325.18a21.38,21.38,0,1,1-6.42-15.28l-15,15.27H441Z"/><rect class="cls-1" x="239.57" y="218.43" width="360" height="360" transform="translate(839.14 796.86) rotate(-180)"/><polygon class="cls-3" points="420 325.19 772 410.19 772 741.19 420 325.19"/></svg>