<svg id="Layer_1" data-name="Layer 1" xmlns="http://www.w3.org/2000/svg" viewBox="0 0 1160 800"><defs><style>.cls-1{fill:#fff;}.cls-2{fill:#2970ff;}.cls-3{fill:none;}.cls-4{fill:#ffc84e;}.cls-5{fill:#091440;}.cls-6{fill:#c4cbd2;}.cls-7{fill:#394269;}.cls-8{fill:#2c3860;}</style></defs><rect class="cls-1" width="1160" height="800"/><rect class="cls-2" x="44.73" y="45.88" width="1070.27" height="340" rx="14"/><path class="cls-3" d="M57.2,289.71l-.7-3.94,11.88-2.09.7,3.94ZM81,285.52l-.7-3.94,11.89-2.09.69,3.94Zm23.76-4.19-.69-3.94,11.88-2.09.69,3.94Zm23.76-4.19-.69-3.94,11.88-2.09.7,3.94ZM152.25,273l-.7-3.94,11.88-2.09.7,3.94ZM176,268.76l-.69-3.94,11.88-2.09.69,3.94Zm23.76-4.19-.69-3.94L211,258.54l.69,3.94Zm23.77-4.19-.7-3.94,11.88-2.09.7,3.94Zm23.76-4.19-.7-3.94,11.89-2.09.69,3.94ZM271.06,252l-.69-3.94L282.25,246l.69,3.94Zm23.77-4.19-.7-3.94L306,241.78l.7,3.94Zm23.76-4.19-.7-3.94,11.88-2.09.7,3.94Zm23.76-4.19-.69-3.94,11.88-2.09.69,3.94Zm23.76-4.19-.69-3.94,11.88-2.09.7,3.93Zm23.77-4.19-.7-3.94L401.06,225l.7,3.94Zm23.76-4.19-.7-3.94,11.89-2.09.69,3.93Zm23.76-4.19-.69-3.94,11.88-2.09.69,3.93Zm23.77-4.19-.7-3.94,11.88-2.09.7,3.94Zm23.76-4.19-.7-3.94,11.88-2.09.7,3.93Zm23.76-4.19-.69-3.94,11.88-2.09.69,3.94Zm23.76-4.19-.69-3.94,11.88-2.09.7,3.93Zm23.77-4.19-.7-3.94,11.88-2.1.7,3.94ZM580,197.53l-.7-3.94,11.89-2.09.69,3.93Zm23.76-4.19-.69-3.94,11.88-2.1.69,3.94Zm23.76-4.19-.69-3.94,11.88-2.09.7,3.93ZM651.27,185l-.7-3.94,11.88-2.09.7,3.93ZM675,180.77l-.69-3.94,11.88-2.09.69,3.93Zm23.76-4.19-.69-3.94L710,170.55l.69,3.93Zm23.77-4.19-.7-3.94,11.88-2.1.7,3.94Zm23.76-4.19-.7-3.94,11.89-2.1.69,3.94ZM770.08,164l-.69-3.94,11.88-2.1.69,3.94Zm23.77-4.19-.7-3.94,11.88-2.1.7,3.94Zm23.76-4.19-.7-3.94,11.89-2.09.69,3.93Zm23.76-4.19-.69-3.94,11.88-2.1.69,3.94Zm23.76-4.19-.69-3.94,11.88-2.1.7,3.94Zm23.77-4.19-.7-3.94,11.88-2.1.7,3.94Zm23.76-4.19-.7-3.94,11.89-2.1.69,3.94Zm23.76-4.19-.69-3.94,11.88-2.1.69,3.94Zm23.77-4.19-.7-3.94,11.88-2.1.7,3.94ZM984,126.3l-.7-3.94,11.88-2.1.7,3.94Zm23.76-4.19-.69-3.94,11.88-2.1.69,3.94Zm23.76-4.19-.69-3.94,11.88-2.1.7,3.94Zm23.77-4.19-.7-3.94,11.88-2.1.7,3.94Zm23.76-4.19-.7-3.94,11.89-2.1.69,3.94Zm35.64-6.29-11.88,2.1-.69-3.94,11.88-2.1Z"/><rect class="cls-4" x="1054.8" y="108.71" width="12.07" height="4" transform="translate(-3.1 186.07) rotate(-10.01)"/><rect class="cls-4" x="840.93" y="146.42" width="12.07" height="4" transform="translate(-12.91 149.47) rotate(-10.01)"/><rect class="cls-4" x="722.12" y="167.37" width="12.07" height="4" transform="translate(-18.36 129.14) rotate(-10.01)"/><rect class="cls-4" x="793.41" y="154.8" width="12.06" height="4" transform="translate(-15.08 141.14) rotate(-10)"/><rect class="cls-4" x="817.17" y="150.61" width="12.07" height="4" transform="translate(-14 145.41) rotate(-10.01)"/><rect class="cls-4" x="769.64" y="158.99" width="12.06" height="4" transform="translate(-16.18 137.27) rotate(-10.01)"/><rect class="cls-4" x="603.3" y="188.32" width="12.07" height="4" transform="translate(-23.81 108.81) rotate(-10.01)"/><rect class="cls-4" x="627.07" y="184.13" width="12.07" height="4" transform="translate(-22.72 112.87) rotate(-10.01)"/><rect class="cls-4" x="650.83" y="179.94" width="12.06" height="4" transform="translate(-21.63 116.94) rotate(-10.01)"/><rect class="cls-4" x="698.35" y="171.56" width="12.06" height="4" transform="translate(-19.45 125.07) rotate(-10.01)"/><rect class="cls-4" x="674.59" y="175.75" width="12.06" height="4" transform="translate(-20.54 121.01) rotate(-10.01)"/><rect class="cls-4" x="1102.32" y="100.33" width="12.06" height="4" transform="translate(-0.93 194.05) rotate(-10)"/><rect class="cls-4" x="983.51" y="121.28" width="12.06" height="4" transform="translate(-6.37 173.87) rotate(-10.01)"/><rect class="cls-4" x="1007.27" y="117.09" width="12.06" height="4" transform="translate(-5.28 177.94) rotate(-10.01)"/><rect class="cls-4" x="1031.04" y="112.9" width="12.07" height="4" transform="translate(-4.19 182.01) rotate(-10.01)"/><rect class="cls-4" x="579.54" y="192.51" width="12.07" height="4" transform="translate(-24.9 104.74) rotate(-10.01)"/><rect class="cls-4" x="1078.56" y="104.52" width="12.07" height="4" transform="translate(-2.01 190.14) rotate(-10.01)"/><rect class="cls-4" x="888.46" y="138.04" width="12.06" height="4" transform="translate(-10.73 157.61) rotate(-10.01)"/><rect class="cls-4" x="912.22" y="133.85" width="12.07" height="4" transform="translate(-9.64 161.45) rotate(-10)"/><rect class="cls-4" x="864.7" y="142.23" width="12.06" height="4" transform="translate(-11.82 153.54) rotate(-10.01)"/><rect class="cls-4" x="959.75" y="125.47" width="12.07" height="4" transform="translate(-7.46 169.81) rotate(-10.01)"/><rect class="cls-4" x="935.98" y="129.66" width="12.07" height="4" transform="translate(-8.55 165.74) rotate(-10.01)"/><rect class="cls-4" x="745.88" y="163.18" width="12.07" height="4" transform="translate(-17.27 133.21) rotate(-10.01)"/><rect class="cls-4" x="223.1" y="255.36" width="12.06" height="4" transform="translate(-41.19 43.68) rotate(-10)"/><rect class="cls-4" x="199.33" y="259.55" width="12.06" height="4" transform="translate(-42.34 39.68) rotate(-10.01)"/><rect class="cls-4" x="270.62" y="246.98" width="12.07" height="4" transform="translate(-39.07 51.88) rotate(-10.01)"/><rect class="cls-4" x="294.39" y="242.79" width="12.06" height="4" transform="translate(-37.98 55.94) rotate(-10.01)"/><rect class="cls-4" x="246.86" y="251.17" width="12.07" height="4" transform="translate(-40.16 47.81) rotate(-10.01)"/><rect class="cls-4" x="175.57" y="263.74" width="12.06" height="4" transform="translate(-43.37 35.56) rotate(-10)"/><rect class="cls-4" x="56.76" y="284.69" width="12.07" height="4" transform="translate(-48.84 15.26) rotate(-10)"/><rect class="cls-4" x="555.78" y="196.7" width="12.07" height="4" transform="translate(-25.99 100.67) rotate(-10.01)"/><rect class="cls-4" x="80.52" y="280.5" width="12.07" height="4" transform="translate(-47.72 19.31) rotate(-10)"/><rect class="cls-4" x="128.04" y="272.12" width="12.07" height="4" transform="translate(-45.58 27.46) rotate(-10)"/><rect class="cls-4" x="104.28" y="276.31" width="12.06" height="4" transform="translate(-46.63 23.37) rotate(-10)"/><rect class="cls-4" x="151.81" y="267.93" width="12.06" height="4" transform="translate(-44.46 31.49) rotate(-10)"/><rect class="cls-4" x="484.49" y="209.27" width="12.07" height="4" transform="translate(-29.26 88.47) rotate(-10.01)"/><rect class="cls-4" x="460.73" y="213.46" width="12.07" height="4" transform="translate(-30.35 84.41) rotate(-10.01)"/><rect class="cls-4" x="532.01" y="200.89" width="12.06" height="4" transform="translate(-27.08 96.61) rotate(-10.01)"/><rect class="cls-4" x="508.25" y="205.08" width="12.06" height="4" transform="translate(-28.17 92.54) rotate(-10.01)"/><rect class="cls-4" x="436.96" y="217.65" width="12.06" height="4" transform="translate(-31.44 80.34) rotate(-10.01)"/><rect class="cls-4" x="413.2" y="221.84" width="12.06" height="4" transform="translate(-32.53 76.28) rotate(-10.01)"/><rect class="cls-4" x="318.15" y="238.6" width="12.06" height="4" transform="translate(-36.89 60.01) rotate(-10.01)"/><rect class="cls-4" x="365.67" y="230.22" width="12.07" height="4" transform="translate(-34.71 68.14) rotate(-10.01)"/><rect class="cls-4" x="341.91" y="234.41" width="12.07" height="4" transform="translate(-35.75 63.98) rotate(-10)"/><rect class="cls-4" x="389.44" y="226.03" width="12.07" height="4" transform="translate(-33.62 72.21) rotate(-10.01)"/><rect class="cls-3" x="44.73" y="45.88" width="1070.27" height="340" rx="24"/><polygon class="cls-5" points="44.73 146.82 162.09 270.25 111.68 385.88 114.95 385.88 165.24 270.54 165.63 269.63 44.73 142.47 44.73 146.82"/><polygon class="cls-5" points="655.09 182.25 566.32 385.88 569.59 385.88 658.24 182.54 658.63 181.63 529.56 45.88 525.42 45.88 655.09 182.25"/><polygon class="cls-5" points="165.18 268.64 262.3 45.88 259.02 45.88 162.03 268.35 161.64 269.26 272.52 385.88 276.65 385.88 165.18 268.64"/><polygon class="cls-5" points="658.67 181.62 717.85 45.88 714.58 45.88 655.52 181.34 655.13 182.25 848.74 385.88 852.88 385.88 658.67 181.62"/><polygon class="cls-5" points="1115 179.77 1115 172.26 1021.87 385.88 1025.14 385.88 1115 179.77"/><rect class="cls-5" x="44.73" y="405.69" width="1070.27" height="350" rx="14"/><rect class="cls-1" x="94.39" y="557.89" width="75.2" height="17.8"/><rect class="cls-1" x="179.59" y="557.89" width="74.8" height="17.8"/><rect class="cls-1" x="94.39" y="615.49" width="75.2" height="20.2"/><rect class="cls-1" x="179.59" y="615.49" width="74.8" height="20.2"/><rect class="cls-1" x="94.39" y="500.69" width="160" height="20"/><rect class="cls-6" x="94.39" y="567.89" width="75.2" height="35.2"/><rect class="cls-6" x="179.59" y="567.89" width="74.8" height="35.2"/><rect class="cls-6" x="94.39" y="625.49" width="75.2" height="35.2"/><rect class="cls-6" x="179.59" y="625.49" width="74.8" height="35.2"/><rect class="cls-6" x="94.39" y="510.69" width="160" height="35"/><rect class="cls-3" x="84.39" y="490.69" width="180" height="180"/><rect class="cls-1" x="314.39" y="557.89" width="75.2" height="17.8"/><rect class="cls-1" x="399.59" y="557.89" width="74.8" height="17.8"/><rect class="cls-1" x="314.39" y="615.49" width="75.2" height="20.2"/><rect class="cls-1" x="399.59" y="615.49" width="74.8" height="20.2"/><rect class="cls-1" x="314.39" y="500.69" width="160" height="20"/><rect class="cls-6" x="314.39" y="567.89" width="75.2" height="35.2"/><rect class="cls-6" x="399.59" y="567.89" width="74.8" height="35.2"/><rect class="cls-6" x="314.39" y="625.49" width="75.2" height="35.2"/><rect class="cls-6" x="399.59" y="625.49" width="74.8" height="35.2"/><rect class="cls-6" x="314.39" y="510.69" width="160" height="35"/><rect class="cls-3" x="304.39" y="490.69" width="180" height="180"/><rect class="cls-1" x="534.39" y="557.89" width="75.2" height="17.8"/><rect class="cls-1" x="619.59" y="557.89" width="74.8" height="17.8"/><rect class="cls-1" x="534.39" y="615.49" width="75.2" height="20.2"/><rect class="cls-1" x="619.59" y="615.49" width="74.8" height="20.2"/><rect class="cls-1" x="534.39" y="500.69" width="160" height="20"/><rect class="cls-6" x="534.39" y="567.89" width="75.2" height="35.2"/><rect class="cls-6" x="619.59" y="567.89" width="74.8" height="35.2"/><rect class="cls-6" x="534.39" y="625.49" width="75.2" height="35.2"/><rect class="cls-6" x="619.59" y="625.49" width="74.8" height="35.2"/><rect class="cls-6" x="534.39" y="510.69" width="160" height="35"/><rect class="cls-3" x="524.39" y="490.69" width="180" height="180"/><rect class="cls-7" x="754.39" y="557.89" width="75.2" height="17.8"/><rect class="cls-7" x="839.59" y="557.89" width="74.8" height="17.8"/><rect class="cls-7" x="754.39" y="615.49" width="75.2" height="20.2"/><rect class="cls-7" x="839.59" y="615.49" width="74.8" height="20.2"/><rect class="cls-7" x="754.39" y="500.69" width="160" height="20"/><rect class="cls-8" x="754.39" y="567.89" width="75.2" height="35.2"/><rect class="cls-8" x="839.59" y="567.89" width="74.8" height="35.2"/><rect class="cls-8" x="754.39" y="625.49" width="75.2" height="35.2"/><rect class="cls-8" x="839.59" y="625.49" width="74.8" height="35.2"/><rect class="cls-8" x="754.39" y="510.69" width="160" height="35"/><rect class="cls-3" x="744.39" y="490.69" width="180" height="180"/><rect class="cls-1" x="974.84" y="615.69" width="120" height="120" rx="14"/><path class="cls-5" d="M1034.84,682.35V649a33.34,33.34,0,1,0,33.34,33.33Z"/><rect class="cls-3" x="974.84" y="615.69" width="120" height="120"/><path class="cls-6" d="M1038.18,635.81V629h10v-6.67h-26.67V629h10v6.79a46.67,46.67,0,1,0,6.67,0Zm-3.34,86.54a40,40,0,1,1,40-40A40,40,0,0,1,1034.84,722.35Z"/><circle class="cls-1" cx="914" cy="500.19" r="60"/><rect class="cls-3" x="854" y="440.19" width="120" height="120"/><rect class="cls-5" x="860.67" y="492.45" width="106.67" height="13.7" rx="6.85" transform="translate(620.76 -500.05) rotate(45)"/><path class="cls-6" d="M917.3,450.22A53.32,53.32,0,0,0,864,503.49l20-20,4.72,4.71,14.14-14.14-4.72-4.71Z"/><circle class="cls-1" cx="794.39" cy="580.69" r="15"/><circle class="cls-1" cx="834.39" cy="580.69" r="15"/><circle class="cls-1" cx="874.39" cy="580.69" r="15"/><circle class="cls-4" cx="410.05" cy="224.95" r="30"/><path class="cls-5" d="M420.17,200.6l-16.78,3-6.77,27,11.18-2-2.28,19.75,18-29-11.42,2Z"/><path class="cls-1" d="M156.7,198.38a71.11,71.11,0,1,0,82.38,57.68A71.12,71.12,0,0,0,156.7,198.38Z"/><path class="cls-5" d="M188,267.64A31.11,31.11,0,1,0,151,274.19,71.13,71.13,0,0,0,118.68,305a62.29,62.29,0,0,0,61.18,24.71,62.31,62.31,0,0,0,49-44.14A71.16,71.16,0,0,0,188,267.64Z"/><rect class="cls-3" x="88.98" y="188.48" width="160" height="160" transform="translate(-44.05 33.42) rotate(-10)"/><path class="cls-1" d="M645,111.27A71.1,71.1,0,1,0,727.37,169,71.1,71.1,0,0,0,645,111.27Z"/><path class="cls-5" d="M676.33,180.53a31.11,31.11,0,1,0-37.09,6.54A71.1,71.1,0,0,0,607,217.86a62.3,62.3,0,0,0,110.22-19.44A71.17,71.17,0,0,0,676.33,180.53Z"/><rect class="cls-3" x="577.27" y="101.36" width="160" height="160" transform="translate(-21.51 116.89) rotate(-10)"/><rect class="cls-3" x="44.73" y="45.88" width="1070.27" height="340" rx="24"/><rect class="cls-1" x="974.84" y="246.28" width="120" height="120" rx="14"/><rect class="cls-3" x="974.84" y="246.28" width="120" height="120"/><path class="cls-6" d="M1038.18,266.4v-6.78h10V253h-26.67v6.67h10v6.78a46.67,46.67,0,1,0,6.67,0ZM1034.84,353a40,40,0,1,1,40-40A40,40,0,0,1,1034.84,353Z"/><path class="cls-5" d="M1048.87,283.31a33,33,0,1,1-14-3.12v33Z"/><circle class="cls-6" cx="1004.85" cy="335.41" r="26.63"/><polygon class="cls-5" points="1016.64 325.25 1002.5 339.39 993.07 329.96 988.36 334.67 1002.5 348.82 1021.35 329.96 1016.64 325.25"/></svg>