<svg id="Layer_1" data-name="Layer 1" xmlns="http://www.w3.org/2000/svg" viewBox="0 0 1160 800"><defs><style>.cls-1{fill:#fff;}.cls-2{fill:#c4cbd2;}.cls-3{fill:#feb8a5;}.cls-4{fill:#091440;}.cls-5{fill:none;}.cls-6,.cls-7{fill:#ed6d47;}.cls-6{fill-rule:evenodd;}</style></defs><rect class="cls-1" width="1160" height="800"/><rect class="cls-2" x="410.6" y="410.27" width="704.35" height="344.59" rx="14"/><rect class="cls-3" x="410.6" y="45.88" width="704.35" height="344.59" rx="14"/><rect class="cls-3" x="44.73" y="45.88" width="343.33" height="280" rx="14"/><path class="cls-1" d="M682.78,489.23H829.45a13.33,13.33,0,0,1,13.33,13.34v24H669.45v-24A13.33,13.33,0,0,1,682.78,489.23Z"/><path class="cls-4" d="M696.11,662.57h160a13.34,13.34,0,0,0,13.34-13.34v-120a13.33,13.33,0,0,0-13.34-13.33H682.78a13.33,13.33,0,0,1-13.33-13.33h0V635.9A26.66,26.66,0,0,0,696.11,662.57Z"/><path class="cls-1" d="M836.11,589.23a33.52,33.52,0,0,0,33.34,33.34V555.9A33.51,33.51,0,0,0,836.11,589.23Z"/><circle class="cls-1" cx="716.11" cy="615.9" r="60"/><rect class="cls-5" x="642.78" y="462.57" width="240" height="240"/><rect class="cls-4" x="686.48" y="607.46" width="27.85" height="6.59"/><rect class="cls-4" x="718.04" y="607.46" width="27.7" height="6.59"/><rect class="cls-4" x="686.48" y="628.79" width="27.85" height="7.48"/><rect class="cls-4" x="718.04" y="628.79" width="27.7" height="7.48"/><rect class="cls-4" x="686.48" y="586.27" width="59.26" height="7.41"/><rect class="cls-2" x="686.48" y="611.16" width="27.85" height="13.04"/><rect class="cls-2" x="718.04" y="611.16" width="27.7" height="13.04"/><rect class="cls-2" x="686.48" y="632.49" width="27.85" height="13.04"/><rect class="cls-2" x="718.04" y="632.49" width="27.7" height="13.04"/><rect class="cls-2" x="686.48" y="589.97" width="59.26" height="12.96"/><rect class="cls-5" x="682.78" y="582.57" width="66.67" height="66.67"/><path class="cls-6" d="M140,98.61h21.82v21.82H140Zm130.91,21.82H249.12v21.81H183.67V120.43H161.85v21.81H140v21.82H118.21v21.82H96.39v65.45h21.82V207.7H140v43.63h21.82v21.82h43.63V251.33H161.85V229.52H270.94v21.81H227.3v21.82h43.64V251.33h21.82V207.7h21.81v43.63h21.82V185.88H314.57V164.06H292.76V142.24H270.94Zm0,0V98.61h21.82v21.82ZM161.85,164.06h21.82v21.82H161.85Zm87.27,0h21.82v21.82H249.12Z"/><rect class="cls-3" x="44.73" y="345.88" width="343.33" height="280" rx="14"/><path class="cls-6" d="M140,398.61h21.82v21.82H140Zm130.91,21.82H249.12v21.81H183.67V420.43H161.85v21.81H140v21.82H118.21v21.82H96.39v65.45h21.82V507.7H140v43.63h21.82v21.82h43.63V551.33H161.85V529.52H270.94v21.81H227.3v21.82h43.64V551.33h21.82V507.7h21.81v43.63h21.82V485.88H314.57V464.06H292.76V442.24H270.94Zm0,0V398.61h21.82v21.82ZM161.85,464.06h21.82v21.82H161.85Zm87.27,0h21.82v21.82H249.12Z"/><rect class="cls-3" x="44.73" y="645.88" width="343.33" height="109.31" rx="8.75"/><rect class="cls-5" x="44.73" y="645.88" width="343.33" height="109.31" rx="8.75"/><path class="cls-4" d="M1115,195.19V59.88a14,14,0,0,0-14-14H424.6a14,14,0,0,0-14,14V195.19Z"/><rect class="cls-4" x="410.6" y="325.19" width="704.35" height="12"/><rect class="cls-4" x="410.6" y="205.19" width="704.35" height="20"/><rect class="cls-4" x="410.6" y="235.19" width="704.35" height="30"/><path class="cls-1" d="M682.78,124.84H829.45a13.33,13.33,0,0,1,13.33,13.33v24H669.45v-24A13.33,13.33,0,0,1,682.78,124.84Z"/><path class="cls-2" d="M696.11,298.17h160a13.33,13.33,0,0,0,13.34-13.33v-120a13.33,13.33,0,0,0-13.34-13.33H682.78a13.33,13.33,0,0,1-13.33-13.34h0V271.51A26.66,26.66,0,0,0,696.11,298.17Z"/><path class="cls-1" d="M836.11,224.84a33.51,33.51,0,0,0,33.34,33.33V191.51A33.51,33.51,0,0,0,836.11,224.84Z"/><circle class="cls-1" cx="716.11" cy="251.51" r="60"/><rect class="cls-5" x="642.78" y="98.17" width="240" height="240"/><path class="cls-4" d="M737.41,218.17H711.85l-17,38.1h17l-8.52,28.57,34.08-38.1H720Z"/><rect class="cls-7" x="140.03" y="698.61" width="21.82" height="21.82"/><rect class="cls-7" x="270.94" y="698.61" width="21.82" height="21.82"/><polygon class="cls-7" points="249.12 742.24 183.67 742.24 183.67 720.43 161.85 720.43 161.85 742.24 140.03 742.24 140.03 755.19 292.76 755.19 292.76 742.24 270.94 742.24 270.94 720.43 249.12 720.43 249.12 742.24"/></svg>