<svg id="Layer_1" data-name="Layer 1" xmlns="http://www.w3.org/2000/svg" viewBox="0 0 1160 800"><defs><style>.cls-1{fill:#fff;}.cls-2{fill:#091440;}.cls-3{fill:none;}.cls-4,.cls-5{fill:#2970ff;}.cls-4{fill-rule:evenodd;}.cls-6{fill:#feb8a5;}.cls-7{fill:#2dd8a3;}.cls-8{fill:#c4cbd2;}.cls-9{fill:#ed6d47;}</style></defs><rect class="cls-1" width="1160" height="800"/><rect class="cls-2" x="410.43" y="46.69" width="704" height="708.67" rx="14"/><rect class="cls-3" x="410.43" y="315.69" width="704" height="10"/><path class="cls-4" d="M531.83,435.69c0-16.47,51.9-30.72,127.45-37.6-115.19,5.58-197.45,20.31-197.45,37.6s82.26,32,197.45,37.6C583.73,466.41,531.83,452.16,531.83,435.69Z"/><path class="cls-4" d="M864.38,398.09c75.55,6.88,127.45,21.13,127.45,37.6s-51.9,30.72-127.45,37.6c115.18-5.59,197.45-20.31,197.45-37.6S979.56,403.67,864.38,398.09Z"/><path class="cls-4" d="M623.83,435.69c0-9.88,31.14-18.43,76.47-22.56-69.11,3.35-118.47,12.19-118.47,22.56s49.36,19.21,118.47,22.56C655,454.12,623.83,445.57,623.83,435.69Z"/><path class="cls-4" d="M823.36,413.13c45.33,4.13,76.47,12.68,76.47,22.56s-31.14,18.43-76.47,22.56c69.11-3.35,118.47-12.19,118.47-22.56S892.47,416.48,823.36,413.13Z"/><rect class="cls-5" x="410.43" y="285.69" width="704" height="10" transform="translate(1524.86 581.38) rotate(180)"/><rect class="cls-5" x="410.43" y="195.69" width="704" height="60" transform="translate(1524.86 451.38) rotate(180)"/><path class="cls-5" d="M410.43,45.69h704a0,0,0,0,1,0,0v124a14,14,0,0,1-14,14h-676a14,14,0,0,1-14-14v-124A0,0,0,0,1,410.43,45.69Z" transform="translate(1524.86 229.38) rotate(180)"/><rect class="cls-5" x="410.43" y="315.69" width="704" height="10" transform="translate(1524.86 641.38) rotate(180)"/><path class="cls-5" d="M915.31,485.69c79.09-3.4,147.82-9.35,199.12-17v-66c-51.3-7.65-120-13.6-199.12-17,113.32,9.15,191.17,28.1,191.17,50S1028.63,476.53,915.31,485.69Z"/><path class="cls-5" d="M609.56,385.69c-79.1,3.4-147.83,9.35-199.13,17v66c51.3,7.66,120,13.61,199.13,17-113.33-9.16-191.18-28.11-191.18-50S496.23,394.84,609.56,385.69Z"/><rect class="cls-6" x="44.73" y="45.88" width="343.33" height="340" rx="15.43"/><rect class="cls-6" x="45.03" y="415.19" width="343.33" height="340" rx="15.43"/><rect class="cls-2" x="254.21" y="135.17" width="15.25" height="15.25"/><rect class="cls-2" x="162.7" y="135.17" width="15.25" height="15.25"/><rect class="cls-2" x="223.71" y="241.93" width="30.5" height="15.25"/><path class="cls-2" d="M284.72,196.18V180.93H269.47V165.67H254.21V150.42H239v15.25H193.21V150.42H178v15.25H162.7v15.26H147.45v15.25H132.2v45.75h15.25v-30.5H162.7v30.5H178V226.68h76.25v15.25h15.26v-30.5h15.25v30.5H300V196.18ZM199,188h-7v7h7v7h-7v-7h-7v7h-7v-7h7v-7h-7v-7h7v7h7v-7h7Zm55.23,0h-7v7h7v7h-7v-7h-7v7h-7v-7h7v-7h-7v-7h7v7h7v-7h7Z"/><rect class="cls-2" x="177.96" y="241.93" width="30.5" height="15.25"/><path class="cls-2" d="M85.93,298.7c0-10.76,6.7-16.73,15-16.73a13,13,0,0,1,9.5,4.11l-4.6,5.19a6.33,6.33,0,0,0-4.9-2.06c-3.47,0-6.31,3.43-6.31,9.2,0,6,2.2,9.3,6.75,9.3a3.74,3.74,0,0,0,2.16-.59v-4.4h-4v-6.85H111V311A16,16,0,0,1,100.85,315C92.68,315,85.93,309.57,85.93,298.7Z"/><path class="cls-2" d="M122.92,282.56H133.1l9.59,31.8h-8.91l-3.57-15.46c-.68-3-1.61-6.85-2.3-10.08h-.19c-.69,3.23-1.52,7.05-2.21,10.08l-3.57,15.46h-8.61Zm-2.69,18.54h15.46v6.51H120.23Z"/><path class="cls-2" d="M145.23,282.56h8.57l2.59,10.37.88,4.11h.2l.88-4.11,2.59-10.37h8.56v31.8h-6.94v-7.48c0-3.77.68-12.43,1.07-16.15h-.14l-2.7,9.44L159.13,306h-3.72l-1.76-5.78-2.45-9.44H151c.39,3.72,1.07,12.38,1.07,16.15v7.48h-6.85Z"/><path class="cls-2" d="M176.16,282.56h21.63v7H184.57v5h11.26v7.05H184.57v5.68h13.71v7H176.16Z"/><path class="cls-2" d="M232.43,298.31c0-10.76,5.28-16.34,13-16.34s13,5.58,13,16.34c0,11.06-5.28,16.64-13,16.64S232.43,309.37,232.43,298.31Zm17.42,0c0-6.06-1.66-9.1-4.4-9.1s-4.41,3-4.41,9.1c0,6.36,1.67,9.4,4.41,9.4S249.85,304.67,249.85,298.31Z"/><path class="cls-2" d="M260.32,282.56h8.9l3.33,13.89c.88,3.38,1.47,6.66,2.35,10.08h.2c.88-3.42,1.51-6.7,2.35-10.08l3.23-13.89h8.61l-9.4,31.8H269.71Z"/><path class="cls-2" d="M293.59,282.56h21.63v7H302v5h11.25v7.05H302v5.68h13.7v7H293.59Z"/><path class="cls-2" d="M321.68,282.56h11.84c6.85,0,12.72,2.34,12.72,10.27,0,7.68-5.87,10.87-12.72,10.87H330.1v10.66h-8.42ZM332.93,297c3.33,0,5.09-1.47,5.09-4.21s-1.76-3.62-5.09-3.62H330.1V297Zm4.75-1.12L348,314.36h-9.4L332,301.49Z"/><polygon class="cls-1" points="688.59 432.87 968.59 152.87 1038.59 222.87 828.95 432.15 688.59 432.87"/><circle class="cls-2" cx="784.49" cy="406.97" r="19.8"/><circle class="cls-2" cx="821.83" cy="369.64" r="19.8"/><circle class="cls-2" cx="859.16" cy="332.31" r="19.8"/><circle class="cls-2" cx="896.49" cy="294.97" r="19.8"/><circle class="cls-7" cx="966.33" cy="225.17" r="39.6"/><polygon class="cls-2" points="968.03 202.09 968.03 231.83 948.21 231.83 948.21 241.74 977.95 241.74 977.95 202.09 968.03 202.09"/><path class="cls-8" d="M251.66,671.85a94.73,94.73,0,0,1-21.88,5.8A92.71,92.71,0,0,0,251.66,671.85Z"/><path class="cls-1" d="M217,491.85a93.34,93.34,0,1,0,93.33,93.34A93.33,93.33,0,0,0,217,491.85Zm0,133.34a40,40,0,1,1,40-40A40,40,0,0,1,217,625.19Z"/><path class="cls-9" d="M254,600.5l49.29,20.41a93.67,93.67,0,0,0,0-71.45L254,569.88A40.1,40.1,0,0,1,254,600.5Z"/><path class="cls-9" d="M232.31,548.23l20.41-49.29a93.65,93.65,0,0,0-71.44,0l20.41,49.29A40.1,40.1,0,0,1,232.31,548.23Z"/><path class="cls-9" d="M180,569.88l-49.29-20.42a93.67,93.67,0,0,0,0,71.45L180,600.5A40.1,40.1,0,0,1,180,569.88Z"/><path class="cls-9" d="M201.69,622.15l-20.41,49.28a93.56,93.56,0,0,0,71.44,0l-20.41-49.28A40.19,40.19,0,0,1,201.69,622.15Z"/><rect class="cls-3" x="97" y="465.19" width="240" height="240"/><rect class="cls-1" x="52.28" y="570.21" width="329.45" height="29.97" transform="translate(-350.23 324.84) rotate(-45)"/><path class="cls-6" d="M322.88,465.19,337,479.31,111.12,705.19,97,691.07,322.88,465.19m0-14.14-7.07,7.07L89.93,684l-7.07,7.07,7.07,7.07,14.12,14.12,7.07,7.07,7.07-7.07L344.07,486.38l7.07-7.07-7.07-7.07L330,458.12l-7.07-7.07Z"/></svg>