<svg width="1160" height="800" viewBox="0 0 1160 800" fill="none" xmlns="http://www.w3.org/2000/svg">
<path d="M1160 0H0V800H1160V0Z" fill="white"/>
<path d="M1101 45.8809H58.73C50.998 45.8809 44.73 52.1489 44.73 59.8809V371.881C44.73 379.613 50.998 385.881 58.73 385.881H1101C1108.73 385.881 1115 379.613 1115 371.881V59.8809C1115 52.1489 1108.73 45.8809 1101 45.8809Z" fill="#091440"/>
<path d="M374.06 405.689H58.73C50.998 405.689 44.73 411.957 44.73 419.689V741.689C44.73 749.421 50.998 755.689 58.73 755.689H374.06C381.792 755.689 388.06 749.421 388.06 741.689V419.689C388.06 411.957 381.792 405.689 374.06 405.689Z" fill="#C4CBD2"/>
<path d="M1102.59 406.189H787.26C779.528 406.189 773.26 412.457 773.26 420.189V742.189C773.26 749.921 779.528 756.189 787.26 756.189H1102.59C1110.32 756.189 1116.59 749.921 1116.59 742.189V420.189C1116.59 412.457 1110.32 406.189 1102.59 406.189Z" fill="#C4CBD2"/>
<path d="M737.53 406.189H422.2C414.468 406.189 408.2 412.457 408.2 420.189V742.189C408.2 749.921 414.468 756.189 422.2 756.189H737.53C745.262 756.189 751.53 749.921 751.53 742.189V420.189C751.53 412.457 745.262 406.189 737.53 406.189Z" fill="#C4CBD2"/>
<path d="M666.22 518.999V657.399L643.46 643.999L640.46 642.249H493.64V518.999H666.22ZM666.45 506.399H493.45C490.169 506.399 487.023 507.702 484.703 510.022C482.383 512.342 481.08 515.488 481.08 518.769V642.429C481.08 645.71 482.383 648.856 484.703 651.176C487.023 653.496 490.169 654.799 493.45 654.799H637.06L678.82 679.419V518.739C678.82 515.458 677.517 512.312 675.197 509.992C672.877 507.672 669.731 506.369 666.45 506.369V506.399Z" fill="white"/>
<path d="M579.93 679.631L631.66 592.891H528.2L579.93 679.631Z" fill="#091440"/>
<path d="M579.93 481.551L528.2 568.281H631.66L579.93 481.551Z" fill="#091440"/>
<path d="M944.93 476.9C918.408 476.9 892.973 487.436 874.219 506.19C855.466 524.943 844.93 550.379 844.93 576.9C844.93 603.422 855.466 628.857 874.219 647.611C892.973 666.365 918.408 676.9 944.93 676.9H1044.73L1015.19 647.79C1029.24 633.855 1038.84 616.06 1042.77 596.662C1046.7 577.264 1044.78 557.136 1037.25 538.831C1029.73 520.526 1016.93 504.868 1000.5 493.843C984.062 482.817 964.722 476.92 944.93 476.9Z" fill="white"/>
<path d="M907.34 564.381H882.35V589.371H907.34V564.381Z" fill="#091440"/>
<path d="M957.32 564.381H932.33V589.371H957.32V564.381Z" fill="#091440"/>
<path d="M1007.31 564.381H982.32V589.371H1007.31V564.381Z" fill="#091440"/>
<path d="M302.14 536.25V495.57H149.45V683.51H302.14V536.25Z" fill="white"/>
<path d="M137.7 519.07V683.51H114.21V519.07L125.96 495.57L137.7 519.07Z" fill="#091440"/>
<path d="M114.21 519.07L125.96 495.57L137.7 519.07H114.21Z" fill="white"/>
<path d="M278.65 566.051H196.43V577.801H278.65V566.051Z" fill="#091440"/>
<path d="M278.65 530.811H196.43V542.561H278.65V530.811Z" fill="#091440"/>
<path d="M278.65 601.289H196.43V613.039H278.65V601.289Z" fill="#091440"/>
<path d="M278.65 636.52H196.43V648.27H278.65V636.52Z" fill="#091440"/>
<path d="M184.69 566.051H172.94V577.801H184.69V566.051Z" fill="#091440"/>
<path d="M184.69 530.811H172.94V542.561H184.69V530.811Z" fill="#091440"/>
<path d="M184.69 601.289H172.94V613.039H184.69V601.289Z" fill="#091440"/>
<path d="M184.69 636.52H172.94V648.27H184.69V636.52Z" fill="#091440"/>
<path d="M302.14 523.751C317.703 523.751 330.32 511.134 330.32 495.571C330.32 480.007 317.703 467.391 302.14 467.391C286.577 467.391 273.96 480.007 273.96 495.571C273.96 511.134 286.577 523.751 302.14 523.751Z" fill="white"/>
<path d="M289.62 486.18C289.623 488.198 290.114 490.186 291.051 491.974C291.987 493.762 293.342 495.298 295 496.45C290.052 497.678 285.504 500.157 281.79 503.65C283.412 507.731 286.221 511.231 289.855 513.697C293.488 516.163 297.779 517.481 302.17 517.481C306.561 517.481 310.852 516.163 314.485 513.697C318.119 511.231 320.928 507.731 322.55 503.65C318.838 500.155 314.288 497.676 309.34 496.45C311.104 495.217 312.521 493.551 313.453 491.612C314.386 489.673 314.803 487.526 314.664 485.379C314.525 483.232 313.836 481.156 312.661 479.353C311.487 477.55 309.868 476.08 307.96 475.085C306.052 474.09 303.92 473.604 301.77 473.672C299.619 473.741 297.522 474.363 295.682 475.478C293.842 476.593 292.32 478.164 291.263 480.038C290.207 481.913 289.651 484.028 289.65 486.18H289.62Z" fill="#091440"/>
<path d="M318.49 163.82C325.41 163.82 331.02 158.21 331.02 151.29C331.02 144.37 325.41 138.76 318.49 138.76C311.57 138.76 305.96 144.37 305.96 151.29C305.96 158.21 311.57 163.82 318.49 163.82Z" fill="white"/>
<path d="M396.47 191.12C396.467 177.232 390.949 163.914 381.128 154.095C371.307 144.276 357.988 138.76 344.1 138.76H339V163.83H344.07C351.162 163.83 357.963 166.647 362.978 171.662C367.993 176.676 370.81 183.478 370.81 190.57C370.81 205.33 359.99 217.31 343 217.31H305.4V269.67H329.4V242.37H345.24C375.24 241.92 395.82 220.16 396.52 192.45C396.48 192 396.47 191.57 396.47 191.12Z" fill="white"/>
<path d="M292.31 295.849C299.23 295.849 304.84 290.239 304.84 283.319C304.84 276.399 299.23 270.789 292.31 270.789C285.39 270.789 279.78 276.399 279.78 283.319C279.78 290.239 285.39 295.849 292.31 295.849Z" fill="white"/>
<path d="M214.32 243.489C214.32 257.377 219.836 270.696 229.655 280.517C239.474 290.338 252.792 295.857 266.68 295.859H271.75V270.789H266.68C259.589 270.787 252.789 267.969 247.775 262.955C242.761 257.94 239.943 251.141 239.94 244.049C239.94 229.279 250.76 217.309 267.75 217.309H305.4V164.939H281.45V192.239H265.6C235.6 192.689 215.03 214.449 214.32 242.159C214.31 242.599 214.32 242.999 214.32 243.489Z" fill="white"/>
<path d="M451.43 173.141H967.99V272.131L451.43 271.871V173.141Z" fill="white"/>
<path d="M647.5 242.44C658.435 242.44 667.3 233.575 667.3 222.64C667.3 211.705 658.435 202.84 647.5 202.84C636.565 202.84 627.7 211.705 627.7 222.64C627.7 233.575 636.565 242.44 647.5 242.44Z" fill="#091440"/>
<path d="M593.49 242.44C604.425 242.44 613.29 233.575 613.29 222.64C613.29 211.705 604.425 202.84 593.49 202.84C582.555 202.84 573.69 211.705 573.69 222.64C573.69 233.575 582.555 242.44 593.49 242.44Z" fill="#091440"/>
<path d="M701.51 242.44C712.445 242.44 721.31 233.575 721.31 222.64C721.31 211.705 712.445 202.84 701.51 202.84C690.575 202.84 681.71 211.705 681.71 222.64C681.71 233.575 690.575 242.44 701.51 242.44Z" fill="#091440"/>
<path d="M755.52 242.44C766.455 242.44 775.32 233.575 775.32 222.64C775.32 211.705 766.455 202.84 755.52 202.84C744.585 202.84 735.72 211.705 735.72 222.64C735.72 233.575 744.585 242.44 755.52 242.44Z" fill="#091440"/>
<path d="M809.53 242.44C820.465 242.44 829.33 233.575 829.33 222.64C829.33 211.705 820.465 202.84 809.53 202.84C798.595 202.84 789.73 211.705 789.73 222.64C789.73 233.575 798.595 242.44 809.53 242.44Z" fill="#091440"/>
<path d="M508.31 257.471C527.684 257.471 543.39 241.765 543.39 222.391C543.39 203.016 527.684 187.311 508.31 187.311C488.936 187.311 473.23 203.016 473.23 222.391C473.23 241.765 488.936 257.471 508.31 257.471Z" fill="#2DD8A3"/>
<path d="M492.72 210.701C492.718 213.209 493.324 215.681 494.486 217.905C495.647 220.129 497.33 222.039 499.39 223.471C493.225 225.008 487.56 228.108 482.94 232.471C484.959 237.551 488.456 241.908 492.98 244.977C497.503 248.047 502.843 249.688 508.31 249.688C513.777 249.688 519.117 248.047 523.64 244.977C528.164 241.908 531.661 237.551 533.68 232.471C529.063 228.109 523.402 225.01 517.24 223.471C519.437 221.935 521.201 219.86 522.362 217.444C523.522 215.029 524.041 212.355 523.867 209.681C523.693 207.006 522.833 204.422 521.37 202.177C519.906 199.932 517.888 198.102 515.511 196.864C513.134 195.626 510.478 195.022 507.8 195.11C505.121 195.198 502.511 195.974 500.22 197.365C497.929 198.756 496.035 200.714 494.721 203.05C493.408 205.385 492.718 208.021 492.72 210.701Z" fill="#091440"/>
<path d="M915.78 197.77C912.455 197.768 909.173 198.521 906.18 199.97C905.891 200.11 905.633 200.306 905.421 200.546C905.208 200.787 905.044 201.067 904.94 201.37C904.779 201.827 904.757 202.322 904.879 202.792C905 203.262 905.259 203.684 905.621 204.006C905.984 204.328 906.435 204.535 906.915 204.6C907.396 204.664 907.885 204.584 908.32 204.37C910.642 203.233 913.195 202.648 915.78 202.66C918.025 202.657 920.249 203.098 922.323 203.956C924.398 204.813 926.283 206.072 927.87 207.66C929.458 209.247 930.717 211.132 931.574 213.207C932.432 215.281 932.873 217.505 932.87 219.75C932.91 220.371 933.185 220.954 933.639 221.38C934.093 221.806 934.692 222.044 935.315 222.044C935.938 222.044 936.537 221.806 936.991 221.38C937.445 220.954 937.72 220.371 937.76 219.75C937.76 213.915 935.442 208.319 931.316 204.194C927.191 200.068 921.595 197.75 915.76 197.75L915.78 197.77Z" fill="#091440"/>
<path d="M900.54 207.28C899.991 206.937 899.328 206.825 898.696 206.97C898.064 207.114 897.516 207.503 897.17 208.05C894.968 211.556 893.8 215.611 893.8 219.75V239.75C893.84 240.372 894.115 240.955 894.569 241.381C895.023 241.807 895.622 242.044 896.245 242.044C896.868 242.044 897.467 241.807 897.921 241.381C898.375 240.955 898.65 240.372 898.69 239.75V219.75C898.688 216.532 899.592 213.378 901.3 210.65C901.472 210.379 901.588 210.077 901.643 209.761C901.698 209.445 901.69 209.121 901.619 208.808C901.548 208.495 901.417 208.199 901.232 207.937C901.047 207.675 900.811 207.452 900.54 207.28Z" fill="#091440"/>
<path d="M906 222.189C906.649 222.188 907.272 221.929 907.73 221.469C907.957 221.244 908.137 220.976 908.258 220.681C908.38 220.385 908.442 220.069 908.44 219.749C908.44 217.805 909.212 215.941 910.587 214.566C911.962 213.191 913.826 212.419 915.77 212.419C917.714 212.419 919.578 213.191 920.953 214.566C922.328 215.941 923.1 217.805 923.1 219.749V244.649C923.1 245.296 923.357 245.917 923.815 246.374C924.272 246.832 924.893 247.089 925.54 247.089C926.187 247.089 926.808 246.832 927.265 246.374C927.723 245.917 927.98 245.296 927.98 244.649V219.749C927.98 216.511 926.694 213.405 924.404 211.115C922.114 208.825 919.008 207.539 915.77 207.539C912.532 207.539 909.426 208.825 907.136 211.115C904.846 213.405 903.56 216.511 903.56 219.749C903.565 220.395 903.824 221.012 904.28 221.469C904.737 221.925 905.354 222.184 906 222.189Z" fill="#091440"/>
<path d="M918.22 254.501V219.751C918.22 219.103 917.963 218.483 917.505 218.025C917.048 217.568 916.427 217.311 915.78 217.311C915.133 217.311 914.512 217.568 914.055 218.025C913.597 218.483 913.34 219.103 913.34 219.751V254.501C913.34 255.148 913.597 255.768 914.055 256.226C914.512 256.683 915.133 256.941 915.78 256.941C916.427 256.941 917.048 256.683 917.505 256.226C917.963 255.768 918.22 255.148 918.22 254.501Z" fill="#091440"/>
<path d="M887.94 209.769C888.529 210.033 889.198 210.053 889.802 209.824C890.405 209.595 890.894 209.137 891.16 208.549C893.295 203.807 896.754 199.782 901.122 196.959C905.489 194.135 910.579 192.633 915.78 192.633C920.981 192.633 926.071 194.135 930.438 196.959C934.806 199.782 938.265 203.807 940.4 208.549C940.593 208.983 940.907 209.351 941.304 209.61C941.702 209.869 942.166 210.008 942.64 210.009C942.985 210.013 943.326 209.941 943.64 209.799C944.224 209.531 944.678 209.044 944.906 208.444C945.135 207.843 945.118 207.177 944.86 206.589C939.86 195.139 928.75 188.039 915.8 188.039C902.85 188.039 891.7 195.139 886.71 206.589C886.451 207.181 886.438 207.851 886.672 208.452C886.906 209.054 887.369 209.538 887.96 209.799L887.94 209.769Z" fill="#091440"/>
<path d="M903.57 244.65C903.57 245.297 903.827 245.918 904.285 246.376C904.742 246.833 905.363 247.09 906.01 247.09C906.657 247.09 907.278 246.833 907.735 246.376C908.193 245.918 908.45 245.297 908.45 244.65V229.51C908.45 228.863 908.193 228.243 907.735 227.785C907.278 227.327 906.657 227.07 906.01 227.07C905.363 227.07 904.742 227.327 904.285 227.785C903.827 228.243 903.57 228.863 903.57 229.51V244.65Z" fill="#091440"/>
<path d="M935.31 227.07C934.663 227.07 934.042 227.327 933.585 227.785C933.127 228.243 932.87 228.863 932.87 229.51V239.73C932.87 240.377 933.127 240.998 933.585 241.456C934.042 241.913 934.663 242.17 935.31 242.17C935.957 242.17 936.578 241.913 937.035 241.456C937.493 240.998 937.75 240.377 937.75 239.73V229.51C937.75 228.863 937.493 228.243 937.035 227.785C936.578 227.327 935.957 227.07 935.31 227.07Z" fill="#091440"/>
<path d="M950.24 247.1V256.95H940.39V261.88H955.17V261.23V256.92V247.1H950.24Z" fill="#2DD8A3"/>
<path d="M891.14 256.95H881.28V247.1H876.36V261.88H877.01H881.32H891.14V256.95Z" fill="#2DD8A3"/>
<path d="M940.39 187.99H950.24V197.84H955.17V183.07H954.52H950.21H940.39V187.99Z" fill="#2DD8A3"/>
<path d="M881.28 197.84V187.99H891.14V183.07H876.36V183.72V188.03V197.84H881.28Z" fill="#2DD8A3"/>
</svg>
