<svg xmlns="http://www.w3.org/2000/svg" viewBox="0 0 1160 800"><defs><style>.cls-1{fill:#fff;}.cls-2{fill:#091440;}.cls-3{fill:#ffc84e;}.cls-4{fill:#c4cbd2;}.cls-5{fill:none;}</style></defs><g id="Layer_2" data-name="Layer 2"><g id="s1_-_f4_-_voting" data-name="s1 - f4 - voting"><rect class="cls-1" width="1160" height="800"/><g id="bg"><rect id="BG-2" data-name="BG" class="cls-2" x="45.06" y="218.51" width="726.55" height="536.18" rx="12.23"/><rect class="cls-3" x="784.94" y="218.51" width="330" height="536.49" rx="12.17" transform="translate(1899.88 973.51) rotate(-180)"/></g><rect class="cls-4" x="45" y="45.41" width="630" height="160" rx="14"/><path class="cls-2" d="M69.56,123.32c0-13.8,7.56-20.4,15.72-20.4a16.51,16.51,0,0,1,11.88,4.8l-5.4,6.12A8.65,8.65,0,0,0,86,111.2c-4,0-7.08,3-7.08,12.12,0,9.47,2.94,11.39,5.28,11.39,2.16,0,4.08-1.26,4.08-5.28,0-3.66-2-4.56-4.2-4.56-1.8,0-3.66,1-5,3.61L78.56,122a10.13,10.13,0,0,1,7.56-4.32c6.48,0,11.52,3.6,11.52,11.75s-6,13-13.2,13S69.56,137.11,69.56,123.32Z"/><path class="cls-2" d="M101.09,122.48c0-13,5.76-19.56,14.16-19.56s14.16,6.6,14.16,19.56-5.76,19.91-14.16,19.91S101.09,135.49,101.09,122.48Zm18.6,0c0-10.08-2-11.64-4.44-11.64s-4.44,1.56-4.44,11.64,2,12,4.44,12S119.69,132.55,119.69,122.48Z"/><path class="cls-2" d="M132.87,128c0-3.9,2.16-6.18,5-6.18s5,2.28,5,6.18-2.16,6.23-5,6.23S132.87,131.89,132.87,128Zm6.54,0c0-2.65-.72-3.36-1.5-3.36s-1.5.71-1.5,3.36.72,3.41,1.5,3.41S139.41,130.63,139.41,128Zm9.66-6.18H152L141.51,142h-2.88Zm-1.5,14c0-3.9,2.16-6.18,5-6.18s5,2.28,5,6.18-2.16,6.24-5,6.24S147.57,139.69,147.57,135.79Zm6.54,0c0-2.64-.72-3.36-1.5-3.36s-1.5.72-1.5,3.36.72,3.42,1.5,3.42S154.11,138.43,154.11,135.79Z"/><path class="cls-4" d="M1095.28,45.41H711.62c-10.87,0-19.67,6.27-19.67,14v132c0,7.74,8.8,14,19.67,14h383.66c10.87,0,19.67-6.26,19.67-14v-132C1115,51.68,1106.15,45.41,1095.28,45.41Z"/><path class="cls-2" d="M729.35,121c0-2.58.24-6.42.36-9h-.24c-1,2.28-2,4.56-3.12,6.84l-3.48,6.47H743v7.8H713.15V126l13-22.31H739v38h-9.6Z"/><path class="cls-2" d="M746.21,122.48c0-13,5.76-19.56,14.16-19.56s14.16,6.6,14.16,19.56-5.76,19.91-14.16,19.91S746.21,135.49,746.21,122.48Zm18.6,0c0-10.08-2-11.64-4.44-11.64s-4.44,1.56-4.44,11.64,2,12,4.44,12S764.81,132.55,764.81,122.48Z"/><path class="cls-2" d="M778,128c0-3.9,2.16-6.18,5-6.18s5,2.28,5,6.18-2.16,6.23-5,6.23S778,131.89,778,128Zm6.54,0c0-2.65-.72-3.36-1.5-3.36s-1.5.71-1.5,3.36.72,3.41,1.5,3.41S784.53,130.63,784.53,128Zm9.66-6.18h2.88L786.63,142h-2.88Zm-1.5,14c0-3.9,2.16-6.18,5-6.18s5,2.28,5,6.18-2.16,6.24-5,6.24S792.69,139.69,792.69,135.79Zm6.54,0c0-2.64-.72-3.36-1.5-3.36s-1.5.72-1.5,3.36.72,3.42,1.5,3.42S799.23,138.43,799.23,135.79Z"/><g id="scale"><path class="cls-4" d="M408.33,610.64,500.44,755H316.23Z"/><path class="cls-3" d="M275.73,570.48A120.74,120.74,0,0,0,396.47,449.74H155A120.75,120.75,0,0,0,275.73,570.48Z"/><path class="cls-1" d="M196.89,558.77,629.42,635l-2.51,14.26L194.37,573a7.24,7.24,0,0,1-5.87-8.39h0A7.24,7.24,0,0,1,196.89,558.77Z"/><path class="cls-3" d="M540.94,617.92A120.75,120.75,0,0,0,661.69,497.17H420.19A120.75,120.75,0,0,0,540.94,617.92Z"/></g><polygon class="cls-1" points="843.27 385.44 869.94 398.77 869.94 385.44 856.61 378.77 869.94 372.1 869.94 358.77 843.27 372.1 843.27 385.44"/><polygon class="cls-1" points="1029.94 398.77 1043.27 405.44 1029.94 412.1 1029.94 425.44 1056.61 412.1 1056.61 398.77 1029.94 385.44 1029.94 398.77"/><rect class="cls-2" x="883.27" y="398.78" width="133.33" height="13.33"/><rect class="cls-2" x="883.27" y="372.11" width="55.47" height="13.33"/><rect class="cls-2" x="949.94" y="372.11" width="66.67" height="13.33"/><rect class="cls-2" x="883.27" y="345.44" width="66.67" height="13.33"/><rect class="cls-2" x="961.14" y="345.44" width="55.47" height="13.33"/><polygon class="cls-1" points="843.27 278.77 869.94 292.1 869.94 278.77 856.61 272.1 869.94 265.44 869.94 252.1 843.27 265.44 843.27 278.77"/><polygon class="cls-1" points="1029.94 345.44 1043.27 352.1 1029.94 358.77 1029.94 372.1 1056.61 358.77 1056.61 345.44 1029.94 332.1 1029.94 345.44"/><rect class="cls-2" x="883.27" y="265.44" width="133.33" height="13.33"/><rect class="cls-2" x="883.27" y="292.11" width="66.67" height="13.33"/><rect class="cls-2" x="883.27" y="318.78" width="133.33" height="13.33"/><rect class="cls-5" x="829.94" y="218.51" width="240" height="240"/><polygon class="cls-1" points="843.27 628.19 869.94 641.52 869.94 628.19 856.61 621.52 869.94 614.85 869.94 601.52 843.27 614.85 843.27 628.19"/><polygon class="cls-1" points="1029.94 694.85 1043.27 701.51 1029.94 708.18 1029.94 721.51 1056.61 708.18 1056.61 694.85 1029.94 681.51 1029.94 694.85"/><rect class="cls-2" x="883.27" y="694.85" width="133.33" height="13.33"/><rect class="cls-2" x="883.27" y="668.19" width="55.47" height="13.33"/><rect class="cls-2" x="949.94" y="668.19" width="66.67" height="13.33"/><rect class="cls-2" x="883.27" y="641.52" width="133.33" height="13.33"/><polygon class="cls-1" points="843.27 574.85 869.94 588.18 869.94 574.85 856.61 568.18 869.94 561.51 869.94 548.18 843.27 561.51 843.27 574.85"/><polygon class="cls-1" points="1029.94 588.19 1043.27 594.85 1029.94 601.52 1029.94 614.85 1056.61 601.52 1056.61 588.19 1029.94 574.85 1029.94 588.19"/><rect class="cls-2" x="883.27" y="561.52" width="133.33" height="13.33"/><rect class="cls-2" x="883.27" y="588.19" width="133.33" height="13.33"/><rect class="cls-2" x="883.27" y="614.85" width="66.67" height="13.33"/><rect class="cls-2" x="961.14" y="614.85" width="55.47" height="13.33"/><rect class="cls-5" x="829.94" y="514.59" width="240" height="240"/><g id="arrow"><circle id="Circle" class="cls-2" cx="949.94" cy="486.75" r="50.37"/><path id="Arrow-2" data-name="Arrow" class="cls-1" d="M924.76,485.81l6.83-6.84L945,492.42V462.57h9.67v29.85l13.57-13.57,6.84,6.84-25.25,25.24Z"/></g></g></g></svg>