<svg xmlns="http://www.w3.org/2000/svg" viewBox="0 0 1160 800"><defs><style>.cls-1{fill:#fff;}.cls-2{fill:#091440;}.cls-3{fill:#ffc84e;}.cls-4{fill:#2dd8a3;}.cls-5{fill:#c4cbd2;}.cls-6{fill:none;}.cls-7{fill:#ffe4a7;}</style></defs><g id="Layer_2" data-name="Layer 2"><g id="s1_-_f6_-_ending" data-name="s1 - f6 - ending"><rect class="cls-1" width="1160" height="800"/><g id="bg"><rect id="BG-2" data-name="BG" class="cls-2" x="45.06" y="218.51" width="726.55" height="536.18" rx="12.23"/><rect class="cls-3" x="784.94" y="218.51" width="330" height="536.49" rx="12.17" transform="translate(1899.88 973.51) rotate(-180)"/></g><rect class="cls-4" x="45" y="45.41" width="960" height="160" rx="14"/><path class="cls-2" d="M65.63,137.59l5.4-6.11a8.69,8.69,0,0,0,5.76,2.63c4.08,0,7.08-3,7.08-12.11,0-9.48-2.94-11.4-5.28-11.4-2.16,0-4.08,1.26-4.08,5.28,0,3.66,2,4.56,4.2,4.56,1.8,0,3.66-1,5-3.6l.48,6.48a10.13,10.13,0,0,1-7.56,4.32c-6.48,0-11.52-3.6-11.52-11.76s6-13,13.2-13S93.23,108.2,93.23,122s-7.56,20.39-15.72,20.39A16.51,16.51,0,0,1,65.63,137.59Z"/><path class="cls-2" d="M97.43,123.32c0-13.8,7.56-20.4,15.72-20.4a16.51,16.51,0,0,1,11.88,4.8l-5.4,6.12a8.65,8.65,0,0,0-5.76-2.64c-4,0-7.08,3-7.08,12.12,0,9.47,2.94,11.39,5.28,11.39,2.16,0,4.08-1.26,4.08-5.28,0-3.65-2-4.55-4.2-4.55-1.8,0-3.66,1-5,3.6l-.48-6.48a10.13,10.13,0,0,1,7.56-4.32c6.48,0,11.52,3.6,11.52,11.75s-6,13-13.2,13S97.43,137.11,97.43,123.32Z"/><path class="cls-2" d="M129.19,128c0-3.9,2.16-6.18,5-6.18s5,2.28,5,6.18-2.16,6.23-5,6.23S129.19,131.89,129.19,128Zm6.54,0c0-2.64-.72-3.36-1.5-3.36s-1.5.72-1.5,3.36.72,3.41,1.5,3.41S135.73,130.63,135.73,128Zm9.66-6.18h2.88L137.83,142H135Zm-1.5,14c0-3.9,2.16-6.18,5-6.18s5,2.28,5,6.18-2.16,6.24-5,6.24S143.89,139.69,143.89,135.79Zm6.54,0c0-2.64-.72-3.36-1.5-3.36s-1.5.72-1.5,3.36.72,3.42,1.5,3.42S150.43,138.43,150.43,135.79Z"/><path class="cls-5" d="M1095.28,45.41h-53.66c-10.87,0-19.67,6.27-19.67,14v132c0,7.74,8.8,14,19.67,14h53.66c10.87,0,19.67-6.26,19.67-14v-132C1115,51.68,1106.15,45.41,1095.28,45.41Z"/><g id="scale"><path class="cls-5" d="M408.33,610.64,500.44,755H316.23Z"/><path class="cls-1" d="M196.89,558.77,629.42,635l-2.51,14.26L194.37,573a7.24,7.24,0,0,1-5.87-8.39h0A7.24,7.24,0,0,1,196.89,558.77Z"/></g><polygon class="cls-1" points="843.27 480.35 869.94 493.69 869.94 480.35 856.61 473.69 869.94 467.02 869.94 453.69 843.27 467.02 843.27 480.35"/><polygon class="cls-1" points="1029.94 547.02 1043.27 553.68 1029.94 560.35 1029.94 573.68 1056.61 560.35 1056.61 547.02 1029.94 533.68 1029.94 547.02"/><rect class="cls-2" x="883.27" y="547.02" width="133.33" height="13.33"/><rect class="cls-2" x="883.27" y="520.35" width="55.47" height="13.33"/><rect class="cls-2" x="949.94" y="520.35" width="66.67" height="13.33"/><rect class="cls-2" x="883.27" y="493.69" width="133.33" height="13.33"/><polygon class="cls-1" points="843.27 427.02 869.94 440.35 869.94 427.02 856.61 420.35 869.94 413.68 869.94 400.35 843.27 413.68 843.27 427.02"/><polygon class="cls-1" points="1029.94 440.35 1043.27 447.02 1029.94 453.69 1029.94 467.02 1056.61 453.69 1056.61 440.35 1029.94 427.02 1029.94 440.35"/><rect class="cls-2" x="883.27" y="413.69" width="133.33" height="13.33"/><rect class="cls-2" x="883.27" y="440.35" width="133.33" height="13.33"/><rect class="cls-2" x="883.27" y="467.02" width="66.67" height="13.33"/><rect class="cls-2" x="961.14" y="467.02" width="55.47" height="13.33"/><rect class="cls-6" x="829.94" y="366.75" width="240" height="240"/><g id="checkmark"><path id="Small_circle" data-name="Small circle" class="cls-1" d="M525,172.08a46.67,46.67,0,1,0-46.67-46.67A46.67,46.67,0,0,0,525,172.08Z"/><path id="Checkmark-2" data-name="Checkmark" class="cls-2" d="M545.65,107.6l-24.78,24.78-16.52-16.52-8.26,8.26,24.78,24.78,33-33Z"/></g><path class="cls-3" d="M419.4,286.09V554.73H397.81c-56.63,0-102.54-60.14-102.54-134.32s45.91-134.32,102.54-134.32Z"/><path class="cls-7" d="M302.59,467.18c.92,3.26,2,6.45,3.07,9.59H420.31v-9.59Z"/><path class="cls-7" d="M312.75,493.56q2.46,4.95,5.24,9.6H420.31v-9.6Z"/><path class="cls-7" d="M297.36,440.79c.38,3.25.87,6.44,1.42,9.6H420.31v-9.6Z"/><path class="cls-7" d="M329.88,520a115.34,115.34,0,0,0,9.11,9.59h81.32V520Z"/><path class="cls-7" d="M420.31,549.93v-9.6H352.56a88.62,88.62,0,0,0,19,9.6Z"/><path class="cls-7" d="M299.21,388c-.6,3.15-1.1,6.35-1.52,9.59H420.31V388Z"/><path class="cls-7" d="M296.3,414.41c-.06,2-.11,4-.11,6,0,1.2,0,2.39.07,3.59H420.31v-9.59Z"/><path class="cls-7" d="M379.48,288.48a85.56,85.56,0,0,0-23.09,9.6h63.92v-9.6Z"/><path class="cls-7" d="M341.58,308.87a112.73,112.73,0,0,0-9.58,9.6h88.31v-9.6Z"/><path class="cls-7" d="M319.43,335.26q-2.9,4.62-5.48,9.59H420.31v-9.59Z"/><path class="cls-7" d="M306.51,361.64c-1.17,3.13-2.22,6.34-3.2,9.59h117v-9.59Z"/><ellipse class="cls-3" cx="420" cy="420.41" rx="102.54" ry="134.32"/><ellipse class="cls-1" cx="420" cy="420.41" rx="79.75" ry="111.53"/><path class="cls-2" d="M402.62,395.31,385.84,370h18.08l26.78,40.35H412.63a9.49,9.49,0,0,0-5.06,1.51,14.39,14.39,0,0,0-4.3,4.32,22.31,22.31,0,0,0-2.86,6.47,29.33,29.33,0,0,0,0,15.26,22.37,22.37,0,0,0,2.86,6.46,14.39,14.39,0,0,0,4.3,4.32,9.51,9.51,0,0,0,5.06,1.52h6.78l13.23,19.93h-20a19.25,19.25,0,0,1-10.26-3.05,29.1,29.1,0,0,1-8.7-8.74,45.62,45.62,0,0,1-5.81-13.1,58.59,58.59,0,0,1-2-15.46,47.13,47.13,0,0,1,4.37-21.7c3.05-6.28,7.43-10.8,12.41-12.82Z"/><path class="cls-2" d="M448.91,445.47l16.65,25.31H447.63l-26.56-40.4H439a9.39,9.39,0,0,0,5-1.51,14.44,14.44,0,0,0,4.26-4.33,22.56,22.56,0,0,0,2.85-6.47,30,30,0,0,0,0-15.28,22.56,22.56,0,0,0-2.85-6.47A14.28,14.28,0,0,0,444,392a9.31,9.31,0,0,0-5-1.52h-6.72L419.15,370H439a18.91,18.91,0,0,1,10.18,3,29.1,29.1,0,0,1,8.63,8.76A45.82,45.82,0,0,1,463.55,395a59,59,0,0,1,2,15.47,49,49,0,0,1-4.36,21.87c-3,6.35-7.34,11-12.29,13.17Z"/></g></g></svg>