<svg xmlns="http://www.w3.org/2000/svg" viewBox="0 0 1160 800"><defs><style>.cls-1{fill:#fff;}.cls-2{fill:#091440;}.cls-3{fill:#c4cbd2;}.cls-4{fill:#ffc84e;}.cls-5{fill:#feb8a5;}.cls-6{fill:#ed6d47;}</style></defs><g id="Layer_2" data-name="Layer 2"><g id="s1_-_f2_-_collapse" data-name="s1 - f2 - collapse"><rect class="cls-1" width="1160" height="800"/><g id="bg"><rect id="BG-2" data-name="BG" class="cls-2" x="45.12" y="45.41" width="726.55" height="709.17" rx="14.06"/><rect class="cls-3" x="785" y="45.41" width="330" height="709.59" rx="14" transform="translate(1900 800.41) rotate(-180)"/></g><g id="Bitcoin"><path class="cls-4" d="M560.61,577c-93.72,93.72-245.68,93.72-339.41,0s-93.72-245.69,0-339.41Z"/><path class="cls-4" d="M589.61,238.9C504.4,137.36,353,124.12,251.49,209.32L560,577c101.54-85.2,114.79-236.58,29.59-338.12"/><path class="cls-1" d="M420.65,301.64c-23.63-19.46-49.5-8.05-75.09,13.44L315.68,285.2l-18.22,18.22,29.1,29.1c-4.8,4.79-9.6,9.79-14.38,14.75L282.89,318,264.67,336.2l29.88,29.88c-3.87,4-7.76,7.89-11.54,11.67L257.86,402.9l19.43,19.43s13.21-13.73,13.24-13.24c7.39-7.39,14.07-5.52,18.44-2.54l34,34.05a20.72,20.72,0,0,1,2.05-1.81l-1.93,1.93,47.71,47.71c2,2.64,4.33,7.7-.81,12.85.44,0-13.26,13.26-13.26,13.26l18.11,25.35,23.73-23.73c4.42-4.42,8.84-8.69,13.13-12.92L462,533.46l18.22-18.22-29.91-29.91c5.1-4.9,10-9.7,14.71-14.43l29.76,29.77L513,482.45l-30.17-30.17c28.91-32.41,42.65-61.58,16.6-93-21-25.28-42.19-24.69-63.77-11.46,5.21-15.94,2.35-32-15-46.24Zm39.11,90.15c22.59,22.59-18.74,58.78-31.09,71.15l-40.05-40C401,410.53,436.21,368.23,459.76,391.79Zm-65-48c20.55,20.55-14.17,50.52-24.46,60.81L334,368.24C344.27,358,373.34,322.34,394.78,343.77Z"/></g><g id="bg-3" data-name="bg"><rect class="cls-3" x="785" y="45.41" width="330" height="709.59" rx="14" transform="translate(1900 800.42) rotate(-180)"/></g><g id="Stripes"><rect class="cls-5" x="785" y="693.35" width="330" height="40"/><rect class="cls-5" x="785" y="613.35" width="330" height="40"/><rect class="cls-5" x="785" y="510.11" width="330" height="63.23"/><rect class="cls-5" x="785" y="410" width="330" height="83.08"/></g><path class="cls-6" d="M1115,629.13h-37.38L1115,591.75V565.61l-63.52,63.52H990.6v-87l-87,87H842.7v-87L785,599.81V626l39.21-39.22v42.39H785v18.49h39.21v87l87-87h60.87v87l87-87H1115ZM842.7,690V647.62h42.39Zm129.41-60.88H929.72l42.39-42.39ZM990.6,690V647.62H1033Z"/><polygon class="cls-6" points="890.74 755 911.11 734.64 911.11 755 929.59 755 929.59 690.01 864.6 755 890.74 755"/><polygon class="cls-6" points="1059 734.64 1059 755 1077.49 755 1077.49 690.01 1012.5 755 1038.64 755 1059 734.64"/><path class="cls-1" d="M1115,435V420h-11.2V375H1115V360h-11.2V300h-75v60h-45V300h-75v60h-45V300h-75v60H785v15h3.8v45H785v15h18.8V375h45v60h75V375h45v60h75V375h45v60ZM848.8,360h-45V315h45Zm60,60h-45V375h45Zm60-60h-45V315h45Zm60,60h-45V375h45Zm15-60V315h45v45Z"/><path class="cls-1" d="M1115,285V270h-41.2V225H1115V210h-41.2V150h-75v60h-45V150h-75v60h-45V150H785v15h33.8v45H785v15h33.8v60h75V225h45v60h75V225h45v60ZM878.8,270h-45V225h45Zm60-60h-45V165h45Zm60,60h-45V225h45Zm15-60V165h45v45Z"/><path class="cls-1" d="M1115,60h-11.2V45.7a13.64,13.64,0,0,0-2.8-.28h-12.2V60h-45V45.42h-15V60h-45V45.42h-15V60h-45V45.42h-15V60h-45V45.42h-15V60h-45V45.42H799a13.9,13.9,0,0,0-10.2,4.43V60H785V75h3.8v60h75V75h45v60h75V75h45v60h75V75H1115ZM848.8,120h-45V75h45Zm120,0h-45V75h45Zm120,0h-45V75h45Z"/></g></g></svg>