<svg width="1160" height="806" viewBox="0 0 1160 806" fill="none" xmlns="http://www.w3.org/2000/svg">
<g clip-path="url(#clip0_764_1611)">
<path d="M1160 2.99023H0V802.99H1160V2.99023Z" fill="white"/>
<path d="M1100.95 47.96H59.6001C51.8681 47.96 45.6001 54.228 45.6001 61.96V743.41C45.6001 751.142 51.8681 757.41 59.6001 757.41H1100.95C1108.68 757.41 1114.95 751.142 1114.95 743.41V61.96C1114.95 54.228 1108.68 47.96 1100.95 47.96Z" fill="#C4CBD2"/>
<g opacity="0.3">
<path opacity="0.3" d="M416 611.171C423.657 587.36 440.407 567.535 462.605 556.01C484.803 544.485 510.655 542.191 534.535 549.628C558.416 557.065 578.394 573.631 590.124 595.722C601.854 617.813 604.386 643.642 597.17 667.591L597.04 667.99L676.6 692.581L823.41 217.581L743.41 192.861C739.734 204.763 733.749 215.824 725.797 225.413C717.846 235.002 708.083 242.931 697.067 248.747C686.051 254.563 673.997 258.152 661.594 259.309C649.191 260.466 636.682 259.168 624.78 255.491V255.491C600.873 247.945 580.918 231.257 569.263 209.062C557.608 186.867 555.199 160.964 562.56 137.001L483.4 112.521L336.59 587.521L416.15 612.111C415.88 611.571 415.88 611.571 416 611.171Z" fill="white"/>
<path opacity="0.3" d="M545.09 389.721C574.543 389.721 598.42 365.844 598.42 336.391C598.42 306.937 574.543 283.061 545.09 283.061C515.636 283.061 491.76 306.937 491.76 336.391C491.76 365.844 515.636 389.721 545.09 389.721Z" fill="#091440"/>
<path opacity="0.3" d="M615.21 522.581C644.663 522.581 668.54 498.704 668.54 469.251C668.54 439.798 644.663 415.921 615.21 415.921C585.757 415.921 561.88 439.798 561.88 469.251C561.88 498.704 585.757 522.581 615.21 522.581Z" fill="#091440"/>
<path opacity="0.3" d="M491.06 485.041C510.699 485.041 526.62 469.12 526.62 449.481C526.62 429.842 510.699 413.921 491.06 413.921C471.421 413.921 455.5 429.842 455.5 449.481C455.5 469.12 471.421 485.041 491.06 485.041Z" fill="#091440"/>
<path opacity="0.3" d="M668.94 391.161C688.579 391.161 704.5 375.24 704.5 355.601C704.5 335.962 688.579 320.041 668.94 320.041C649.301 320.041 633.38 335.962 633.38 355.601C633.38 375.24 649.301 391.161 668.94 391.161Z" fill="#091440"/>
</g>
<g opacity="0.3">
<path opacity="0.3" d="M565.27 667.5C561.207 655.561 559.565 642.931 560.44 630.35C561.316 617.768 564.691 605.488 570.369 594.227C576.046 582.965 583.912 572.949 593.507 564.763C603.101 556.578 614.231 550.387 626.246 546.554C638.261 542.721 650.92 541.321 663.482 542.438C676.044 543.555 688.258 547.165 699.408 553.058C710.559 558.95 720.422 567.007 728.422 576.757C736.422 586.507 742.398 597.754 746 609.84V609.84L746.13 610.25L825.41 584.77L673.37 111.46L593.69 137.06C597.502 148.92 598.941 161.414 597.925 173.83C596.909 186.246 593.457 198.34 587.766 209.422C582.076 220.503 574.259 230.356 564.76 238.416C555.262 246.477 544.27 252.588 532.41 256.4C508.49 263.943 482.559 261.72 460.271 250.218C437.984 238.715 421.149 218.866 413.44 195L334.55 220.35L486.63 693.64L565.91 668.17C565.39 667.9 565.39 667.9 565.27 667.5Z" fill="white"/>
<path opacity="0.3" d="M513.46 421.7C542.913 421.7 566.79 397.823 566.79 368.37C566.79 338.917 542.913 315.04 513.46 315.04C484.007 315.04 460.13 338.917 460.13 368.37C460.13 397.823 484.007 421.7 513.46 421.7Z" fill="#091440"/>
<path opacity="0.3" d="M647.09 490.33C676.543 490.33 700.42 466.453 700.42 437C700.42 407.547 676.543 383.67 647.09 383.67C617.636 383.67 593.76 407.547 593.76 437C593.76 466.453 617.636 490.33 647.09 490.33Z" fill="#091440"/>
<path opacity="0.3" d="M534.049 527.56C553.688 527.56 569.609 511.64 569.609 492C569.609 472.361 553.688 456.44 534.049 456.44C514.41 456.44 498.489 472.361 498.489 492C498.489 511.64 514.41 527.56 534.049 527.56Z" fill="#091440"/>
<path opacity="0.3" d="M625.95 348.65C645.589 348.65 661.51 332.73 661.51 313.09C661.51 293.451 645.589 277.53 625.95 277.53C606.31 277.53 590.39 293.451 590.39 313.09C590.39 332.73 606.31 348.65 625.95 348.65Z" fill="#091440"/>
</g>
<path d="M484.92 650.29C484.821 637.75 487.209 625.316 491.945 613.705C496.682 602.094 503.673 591.537 512.515 582.644C521.357 573.752 531.873 566.701 543.457 561.898C555.041 557.095 567.462 554.636 580.002 554.663C592.542 554.69 604.952 557.203 616.515 562.056C628.077 566.908 638.564 574.005 647.367 582.936C656.17 591.866 663.116 602.453 667.802 614.085C672.488 625.716 674.823 638.161 674.67 650.7V650.7V651.12H757.94V154H674.25C674.25 179.158 664.257 203.285 646.47 221.076C628.683 238.867 604.557 248.865 579.4 248.87V248.87C554.317 248.733 530.306 238.681 512.606 220.908C494.906 203.135 484.954 179.083 484.92 154H402.06V651.12H485.33C484.92 650.71 484.92 650.71 484.92 650.29Z" fill="white"/>
<path d="M527.11 402.98C556.564 402.98 580.44 379.104 580.44 349.65C580.44 320.197 556.564 296.32 527.11 296.32C497.657 296.32 473.78 320.197 473.78 349.65C473.78 379.104 497.657 402.98 527.11 402.98Z" fill="#091440"/>
<path d="M633.33 509.21C662.783 509.21 686.66 485.333 686.66 455.88C686.66 426.426 662.783 402.55 633.33 402.55C603.877 402.55 580 426.426 580 455.88C580 485.333 603.877 509.21 633.33 509.21Z" fill="#091440"/>
<path d="M508.89 509.21C528.529 509.21 544.45 493.289 544.45 473.65C544.45 454.011 528.529 438.09 508.89 438.09C489.251 438.09 473.33 454.011 473.33 473.65C473.33 493.289 489.251 509.21 508.89 509.21Z" fill="#091440"/>
<path d="M651.11 366.99C670.749 366.99 686.67 351.069 686.67 331.43C686.67 311.791 670.749 295.87 651.11 295.87C631.471 295.87 615.55 311.791 615.55 331.43C615.55 351.069 631.471 366.99 651.11 366.99Z" fill="#091440"/>
</g>
<defs>
<clipPath id="clip0_764_1611">
<rect width="1160" height="805.1" fill="white"/>
</clipPath>
</defs>
</svg>
