<svg width="1160" height="800" viewBox="0 0 1160 800" fill="none" xmlns="http://www.w3.org/2000/svg">
<path d="M1160 0H0V800H1160V0Z" fill="white"/>
<path d="M1100.95 44.9805H59.6001C51.8681 44.9805 45.6001 51.2485 45.6001 58.9805V740.43C45.6001 748.162 51.8681 754.43 59.6001 754.43H1100.95C1108.68 754.43 1114.95 748.162 1114.95 740.43V58.9805C1114.95 51.2485 1108.68 44.9805 1100.95 44.9805Z" fill="#C4CBD2"/>
<path d="M295.2 648.56L366.67 541.79H864.44L792.98 648.3L295.2 648.56Z" fill="#091440"/>
<path d="M501.52 594.41C518.52 570.23 547.35 552.69 580.02 552.69C612.69 552.69 641.5 570.23 658.52 594.41H757.78V150.68H674.7C674.7 150.68 674.7 151.08 674.7 151.27C674.829 163.787 672.474 176.206 667.773 187.808C663.072 199.409 656.117 209.964 647.311 218.861C638.505 227.758 628.023 234.821 616.47 239.641C604.917 244.461 592.523 246.943 580.005 246.943C567.487 246.943 555.093 244.461 543.54 239.641C531.988 234.821 521.505 227.758 512.699 218.861C503.893 209.964 496.938 199.409 492.237 187.808C487.536 176.206 485.182 163.787 485.31 151.27C485.31 151.08 485.31 150.69 485.31 150.69H402.22V594.41H501.52Z" fill="white"/>
<path d="M655.235 474.851C696.787 433.3 696.787 365.931 655.235 324.379C613.683 282.827 546.314 282.827 504.763 324.379C463.211 365.931 463.211 433.3 504.763 474.851C546.314 516.403 613.683 516.403 655.235 474.851Z" fill="#091440"/>
</svg>
