<svg width="1160" height="800" viewBox="0 0 1160 800" fill="none" xmlns="http://www.w3.org/2000/svg">
<path d="M1160 0H0V800H1160V0Z" fill="white"/>
<path d="M59 755.61H361C368.732 755.61 375 749.342 375 741.61L375 60.0204C375 52.2884 368.732 46.0204 361 46.0204H59C51.268 46.0204 45 52.2884 45 60.0204L45 741.61C45 749.342 51.268 755.61 59 755.61Z" fill="#091440"/>
<path d="M210 750.92C298.366 750.92 370 679.285 370 590.92C370 502.554 298.366 430.92 210 430.92C121.634 430.92 50 502.554 50 590.92C50 679.285 121.634 750.92 210 750.92Z" fill="#2DD8A3"/>
<path d="M301 549.8C294.358 556.442 285.349 560.174 275.955 560.174C266.561 560.174 257.553 556.442 250.91 549.8V549.8C247.619 546.512 245.008 542.608 243.227 538.311C241.445 534.013 240.528 529.407 240.528 524.755C240.528 520.103 241.445 515.497 243.227 511.199C245.008 506.902 247.619 502.998 250.91 499.71V499.71L228.91 477.71L97.0601 609.55L119.06 631.55C125.72 624.991 134.702 621.33 144.049 621.365C153.397 621.401 162.351 625.13 168.961 631.739C175.57 638.349 179.299 647.303 179.335 656.651C179.37 665.998 175.709 674.98 169.15 681.64L191.15 703.64L322.94 571.78L301 549.8Z" fill="white"/>
<path d="M210.37 630.56C232.633 630.56 250.68 612.513 250.68 590.25C250.68 567.988 232.633 549.94 210.37 549.94C188.107 549.94 170.06 567.988 170.06 590.25C170.06 612.513 188.107 630.56 210.37 630.56Z" fill="#091440"/>
<path d="M195.47 598.03V572.83H200.51V592.99H233.26V598.03H195.47Z" fill="white"/>
<path d="M1101 45.4102H409C401.268 45.4102 395 51.6782 395 59.4102V740.58C395 748.312 401.268 754.58 409 754.58H1101C1108.73 754.58 1115 748.312 1115 740.58V59.4102C1115 51.6782 1108.73 45.4102 1101 45.4102Z" fill="#091440"/>
<path d="M798.37 500.03C864.644 500.03 918.37 446.304 918.37 380.03C918.37 313.756 864.644 260.03 798.37 260.03C732.096 260.03 678.37 313.756 678.37 380.03C678.37 446.304 732.096 500.03 798.37 500.03Z" fill="#C4CBD2"/>
<path d="M808 305.78C808.807 309.178 808.936 312.702 808.38 316.15C807.824 319.598 806.594 322.903 804.76 325.875C802.925 328.847 800.523 331.428 797.69 333.471C794.857 335.514 791.649 336.978 788.25 337.78V337.78C784.852 338.587 781.328 338.716 777.88 338.16C774.432 337.604 771.127 336.374 768.155 334.539C765.183 332.705 762.602 330.303 760.559 327.47C758.516 324.637 757.052 321.429 756.25 318.03L733.56 323.39L765.68 459.47L788.38 454.11C786.897 447.303 788.147 440.185 791.861 434.291C795.574 428.396 801.455 424.196 808.235 422.595C815.016 420.994 822.154 422.12 828.112 425.731C834.07 429.342 838.372 435.148 840.09 441.9L862.78 436.54L830.69 300.42L808 305.78Z" fill="white"/>
<path d="M769.19 386.78C767.845 381.039 768.231 375.028 770.301 369.507C772.371 363.986 776.031 359.202 780.819 355.76C785.607 352.319 791.307 350.374 797.2 350.172C803.093 349.97 808.914 351.519 813.927 354.624C818.939 357.729 822.919 362.251 825.362 367.617C827.806 372.983 828.604 378.954 827.655 384.773C826.706 390.593 824.053 396.001 820.031 400.313C816.01 404.625 810.8 407.648 805.06 409C801.249 409.901 797.298 410.041 793.433 409.415C789.567 408.788 785.863 407.405 782.532 405.347C779.201 403.288 776.308 400.593 774.019 397.416C771.73 394.238 770.089 390.641 769.19 386.83V386.78Z" fill="#091440"/>
<path d="M569.9 710.38C636.174 710.38 689.9 656.654 689.9 590.38C689.9 524.106 636.174 470.38 569.9 470.38C503.626 470.38 449.9 524.106 449.9 590.38C449.9 656.654 503.626 710.38 569.9 710.38Z" fill="#C4CBD2"/>
<path d="M613.2 529.31C612.319 532.687 610.781 535.858 608.675 538.641C606.568 541.424 603.933 543.765 600.922 545.529C597.91 547.294 594.58 548.447 591.123 548.924C587.665 549.402 584.147 549.193 580.77 548.31C577.394 547.429 574.224 545.892 571.442 543.785C568.66 541.679 566.32 539.046 564.555 536.035C562.791 533.025 561.637 529.696 561.159 526.24C560.681 522.783 560.889 519.266 561.77 515.89L539.24 510L503.85 645.23L526.41 651.13C528.298 644.431 532.74 638.74 538.78 635.281C544.82 631.822 551.976 630.871 558.71 632.633C565.443 634.395 571.217 638.729 574.789 644.703C578.36 650.677 579.445 657.814 577.81 664.58L600.36 670.48L635.75 535.21L613.2 529.31Z" fill="white"/>
<path d="M541 582.67C542.492 576.963 545.642 571.827 550.053 567.912C554.464 563.996 559.937 561.476 565.78 560.671C571.623 559.866 577.573 560.811 582.879 563.388C588.184 565.965 592.607 570.058 595.586 575.148C598.566 580.238 599.969 586.098 599.618 591.986C599.267 597.873 597.178 603.525 593.615 608.225C590.052 612.926 585.175 616.464 579.601 618.393C574.027 620.321 568.006 620.553 562.3 619.06C554.652 617.055 548.113 612.097 544.119 605.273C540.125 598.45 539.003 590.32 541 582.67V582.67Z" fill="#091440"/>
<path d="M1115 135.76C1110.76 135.314 1106.5 135.091 1102.23 135.09C1070.4 135.09 1039.88 147.733 1017.38 170.237C994.873 192.741 982.23 223.264 982.23 255.09C982.23 286.916 994.873 317.438 1017.38 339.943C1039.88 362.447 1070.4 375.09 1102.23 375.09C1105.75 375.09 1109.23 374.93 1112.7 374.63C1114.19 372.363 1114.99 369.712 1115 367V135.76Z" fill="#C4CBD2"/>
<path d="M1115 205.07H1032.45V228.39C1039.41 228.525 1046.03 231.383 1050.9 236.351C1055.78 241.318 1058.5 247.998 1058.5 254.955C1058.5 261.913 1055.78 268.593 1050.9 273.56C1046.03 278.527 1039.41 281.385 1032.45 281.52V304.83H1115V205.07Z" fill="white"/>
<path d="M1102.36 225.14C1097.9 225.15 1093.5 226.16 1089.48 228.096C1085.46 230.033 1081.93 232.845 1079.14 236.328C1076.36 239.81 1074.39 243.873 1073.38 248.217C1072.37 252.562 1072.35 257.077 1073.32 261.431C1074.29 265.784 1076.22 269.865 1078.97 273.373C1081.73 276.882 1085.23 279.727 1089.23 281.701C1093.23 283.674 1097.62 284.726 1102.08 284.778C1106.54 284.829 1110.96 283.88 1115 282V228C1111.05 226.127 1106.73 225.151 1102.36 225.14V225.14Z" fill="#091440"/>
<path d="M1115 575.26V425.26C1099.46 405.852 1078.28 391.75 1054.38 384.902C1030.48 378.054 1005.04 378.798 981.582 387.032C958.124 395.266 937.801 410.583 923.424 430.867C909.047 451.15 901.325 475.398 901.325 500.26C901.325 525.122 909.047 549.37 923.424 569.653C937.801 589.936 958.124 605.253 981.582 613.487C1005.04 621.721 1030.48 622.466 1054.38 615.618C1078.28 608.77 1099.46 594.668 1115 575.26V575.26Z" fill="#C4CBD2"/>
<path d="M951.3 473.81C958.345 473.813 965.1 476.613 970.081 481.596C975.062 486.578 977.86 493.335 977.86 500.38C977.866 503.873 977.184 507.332 975.853 510.561C974.521 513.79 972.566 516.724 970.099 519.197C967.632 521.669 964.702 523.631 961.476 524.97C958.25 526.309 954.792 526.999 951.3 527V527V550.31H1091.12V527C1084.07 527 1077.31 524.201 1072.33 519.218C1067.35 514.235 1064.55 507.477 1064.55 500.43C1064.55 493.383 1067.35 486.625 1072.33 481.642C1077.31 476.659 1084.07 473.86 1091.12 473.86V450.5H951.3V473.81Z" fill="white"/>
<path d="M1021.21 530.2C1015.31 530.206 1009.54 528.462 1004.63 525.189C999.727 521.916 995.9 517.26 993.638 511.812C991.377 506.364 990.782 500.367 991.929 494.58C993.076 488.794 995.914 483.478 1000.08 479.304C1004.25 475.131 1009.57 472.288 1015.35 471.135C1021.14 469.982 1027.13 470.571 1032.58 472.827C1038.04 475.083 1042.69 478.905 1045.97 483.809C1049.25 488.714 1051 494.48 1051 500.38C1051 504.296 1050.23 508.173 1048.73 511.791C1047.23 515.409 1045.03 518.696 1042.27 521.466C1039.5 524.235 1036.21 526.431 1032.59 527.93C1028.97 529.428 1025.1 530.2 1021.18 530.2H1021.21Z" fill="#091440"/>
<path d="M879 548.21C865.656 539.825 850.792 534.151 835.255 531.511C819.719 528.87 803.814 529.316 788.45 532.822C773.085 536.329 758.562 542.827 745.709 551.946C732.856 561.065 721.925 572.627 713.54 585.97C705.155 599.314 699.48 614.178 696.84 629.715C694.2 645.252 694.646 661.156 698.152 676.521C701.658 691.885 708.157 706.408 717.276 719.261C726.395 732.114 737.956 743.045 751.3 751.43C753.05 752.53 754.82 753.59 756.61 754.59H873.69C891.875 744.433 907.103 729.716 917.876 711.888C928.648 694.061 934.595 673.736 935.131 652.913C935.667 632.09 930.773 611.486 920.931 593.128C911.09 574.77 896.639 559.29 879 548.21V548.21Z" fill="#C4CBD2"/>
<path d="M769.89 590.18C772.845 592.035 775.405 594.455 777.424 597.3C779.444 600.146 780.883 603.361 781.659 606.763C782.435 610.164 782.534 613.686 781.949 617.125C781.364 620.565 780.107 623.856 778.25 626.81V626.81C774.499 632.773 768.533 637.003 761.665 638.571C754.797 640.138 747.587 638.915 741.62 635.17L729.22 654.91L847.61 729.29L860 709.55C854.032 705.802 849.798 699.838 848.228 692.968C846.659 686.099 847.882 678.887 851.63 672.92C855.377 666.952 861.342 662.718 868.211 661.148C875.081 659.579 882.292 660.802 888.26 664.55L900.67 644.81L782.27 570.43L769.89 590.18Z" fill="white"/>
<path d="M799.09 675.11C794.099 671.972 790.15 667.425 787.744 662.043C785.337 656.661 784.58 650.687 785.569 644.875C786.557 639.063 789.247 633.675 793.297 629.391C797.348 625.108 802.578 622.122 808.325 620.81C814.073 619.499 820.08 619.921 825.588 622.024C831.096 624.126 835.856 627.815 839.268 632.622C842.679 637.43 844.589 643.142 844.755 649.035C844.921 654.928 843.335 660.738 840.2 665.73C835.991 672.424 829.296 677.173 821.587 678.932C813.878 680.692 805.785 679.317 799.09 675.11V675.11Z" fill="#091440"/>
<path d="M455.6 683.62C435.736 678.409 414.864 678.409 395 683.62V740.62C395 744.333 396.475 747.894 399.1 750.52C401.726 753.145 405.287 754.62 409 754.62H536.43C529.423 737.304 518.465 721.867 504.431 709.539C490.397 697.212 473.675 688.336 455.6 683.62V683.62Z" fill="#C4CBD2"/>
<path d="M456.67 754.59H488.46L491.09 744.54L468.53 738.64C466.798 745.295 462.544 751.015 456.67 754.59V754.59Z" fill="white"/>
<path d="M429 754.59C424.131 751.611 420.351 747.143 418.219 741.848C416.086 736.553 415.715 730.713 417.16 725.19L395 719.4V740.59C395 744.303 396.475 747.864 399.1 750.49C401.726 753.115 405.287 754.59 409 754.59H429Z" fill="white"/>
<path d="M767.8 192.27C786.032 218.357 813.881 236.132 845.219 241.686C876.557 247.24 908.819 240.117 934.905 221.885C960.992 203.653 978.767 175.804 984.321 144.466C989.875 113.128 982.752 80.8668 964.52 54.7802C962.23 51.5102 959.8 48.3902 957.26 45.4102H775C757.692 65.6287 747.592 91.0256 746.289 117.609C744.985 144.192 752.552 170.455 767.8 192.27V192.27Z" fill="#C4CBD2"/>
<path d="M847.7 51.0004C851.734 56.7775 853.309 63.9202 852.079 70.8583C850.849 77.7964 846.914 83.9622 841.14 88.0004V88.0004C838.28 90.0005 835.055 91.4175 831.647 92.1703C828.239 92.9231 824.717 92.997 821.281 92.3878C817.844 91.7786 814.562 90.4981 811.621 88.6197C808.68 86.7413 806.138 84.3017 804.14 81.4404V81.4404L785 94.7703L865.1 209.37L884.25 196C880.341 190.222 878.862 183.138 880.132 176.278C881.402 169.418 885.319 163.333 891.037 159.337C896.755 155.34 903.815 153.752 910.693 154.917C917.572 156.081 923.716 159.904 927.8 165.56L946.91 152.21L866.81 37.6104L847.7 51.0004Z" fill="white"/>
<path d="M841.53 140.571C838.151 135.736 836.281 130.009 836.157 124.112C836.034 118.215 837.661 112.414 840.835 107.442C844.008 102.471 848.584 98.5516 853.985 96.1809C859.386 93.8102 865.368 93.0943 871.176 94.1238C876.983 95.1533 882.355 97.8818 886.612 101.964C890.869 106.047 893.819 111.3 895.09 117.06C896.361 122.819 895.896 128.826 893.753 134.321C891.61 139.816 887.885 144.552 883.05 147.931C876.568 152.46 868.552 154.229 860.766 152.848C852.98 151.468 846.061 147.052 841.53 140.571Z" fill="#091440"/>
<path d="M512.87 54.8798C497.007 72.5335 486.736 94.4944 483.354 117.986C479.972 141.477 483.632 165.443 493.871 186.855C504.111 208.266 520.469 226.16 540.877 238.274C561.286 250.388 584.829 256.179 608.529 254.913C632.228 253.648 655.02 245.383 674.023 231.164C693.025 216.945 707.385 197.41 715.285 175.031C723.186 152.651 724.273 128.431 718.409 105.433C712.544 82.4358 699.992 61.6937 682.34 45.8298L681.79 45.3398H522.46C519.088 48.3393 515.887 51.5242 512.87 54.8798V54.8798Z" fill="#C4CBD2"/>
<path d="M668.61 100.65C663.898 105.887 657.299 109.04 650.264 109.415C643.229 109.79 636.332 107.357 631.09 102.65V102.65C625.85 97.9391 622.695 91.34 622.32 84.3037C621.945 77.2675 624.38 70.3704 629.09 65.1296L611.74 49.5596L518.29 153.56L535.63 169.14C540.36 163.978 546.936 160.892 553.929 160.552C560.922 160.212 567.766 162.646 572.975 167.325C578.183 172.004 581.334 178.549 581.743 185.538C582.153 192.527 579.787 199.395 575.16 204.65L592.5 220.24L685.95 116.24L668.61 100.65Z" fill="white"/>
<path d="M579.94 114.999C583.882 110.612 589.036 107.492 594.751 106.035C600.466 104.577 606.485 104.846 612.047 106.809C617.608 108.772 622.463 112.341 625.997 117.063C629.531 121.785 631.585 127.449 631.899 133.338C632.214 139.228 630.775 145.078 627.765 150.15C624.754 155.222 620.307 159.287 614.987 161.832C609.666 164.376 603.71 165.286 597.872 164.445C592.034 163.604 586.577 161.052 582.19 157.109C576.308 151.824 572.766 144.417 572.344 136.52C571.922 128.623 574.655 120.882 579.94 114.999V114.999Z" fill="#091440"/>
<path d="M404.54 446.4C422.194 462.263 444.156 472.534 467.648 475.916C491.14 479.297 515.107 475.636 536.518 465.396C557.929 455.156 575.823 438.797 587.937 418.387C600.05 397.977 605.84 374.433 604.572 350.733C603.305 327.033 595.039 304.241 580.818 285.239C566.597 266.237 547.061 251.879 524.68 243.98C502.299 236.081 478.078 234.997 455.081 240.864C432.083 246.73 411.342 259.285 395.48 276.94L395 277.49V436.81C397.999 440.181 401.184 443.383 404.54 446.4V446.4Z" fill="#C4CBD2"/>
<path d="M450.31 290.67C452.904 293.001 455.014 295.821 456.519 298.968C458.023 302.115 458.893 305.527 459.079 309.01C459.265 312.494 458.763 315.979 457.601 319.268C456.44 322.557 454.642 325.585 452.31 328.18V328.18C449.978 330.774 447.159 332.884 444.012 334.388C440.865 335.893 437.452 336.763 433.969 336.949C430.486 337.134 427 336.632 423.711 335.471C420.422 334.309 417.394 332.511 414.8 330.18V330.18L399.21 347.52L503.21 440.97L518.79 423.63C513.549 418.921 510.394 412.323 510.018 405.287C509.642 398.252 512.076 391.355 516.785 386.115C521.494 380.874 528.092 377.718 535.127 377.342C542.163 376.966 549.059 379.401 554.3 384.11L569.89 366.76L465.89 273.31L450.31 290.67Z" fill="white"/>
<path d="M464.63 379.33C460.241 375.389 457.12 370.235 455.661 364.519C454.202 358.804 454.471 352.785 456.433 347.222C458.396 341.66 461.964 336.804 466.686 333.27C471.408 329.735 477.073 327.681 482.963 327.366C488.853 327.051 494.704 328.49 499.776 331.501C504.849 334.512 508.914 338.96 511.458 344.281C514.002 349.603 514.911 355.56 514.069 361.398C513.228 367.236 510.674 372.694 506.73 377.08C501.444 382.959 494.04 386.499 486.146 386.921C478.251 387.343 470.512 384.612 464.63 379.33V379.33Z" fill="#091440"/>
</svg>
