<svg width="1160" height="800" viewBox="0 0 1160 800" fill="none" xmlns="http://www.w3.org/2000/svg">
<path d="M1160 0H0V800H1160V0Z" fill="white"/>
<path d="M751.62 45.8799H408.29V390.47H751.62V45.8799Z" fill="#C4CBD2"/>
<path d="M751.62 410.27H408.29V754.86H751.62V410.27Z" fill="#ED6D47"/>
<path d="M771.62 45.8799H1101C1104.71 45.8799 1108.27 47.3549 1110.9 49.9804C1113.53 52.6059 1115 56.1669 1115 59.8799V390.47H771.62V45.8799Z" fill="#2DD8A3"/>
<path d="M771.62 410.27H1115V740.86C1115 744.573 1113.53 748.134 1110.9 750.759C1108.27 753.385 1104.71 754.86 1101 754.86H771.62V410.27Z" fill="#FFC84E"/>
<path d="M45.6 410.27H388.94V754.86H59.6C55.887 754.86 52.326 753.385 49.7005 750.759C47.075 748.134 45.6 744.573 45.6 740.86V410.27Z" fill="#ED6D47"/>
<path d="M59.6 45.8799H388.94V390.47H45.6V59.8799C45.6 56.1669 47.075 52.6059 49.7005 49.9804C52.326 47.3549 55.887 45.8799 59.6 45.8799V45.8799Z" fill="#C4CBD2"/>
<path d="M181.62 311.08C181.551 306.358 182.423 301.67 184.185 297.289C185.947 292.908 188.563 288.921 191.882 285.561C195.2 282.201 199.154 279.536 203.513 277.72C207.872 275.904 212.549 274.973 217.271 274.983C221.993 274.993 226.666 275.943 231.018 277.778C235.369 279.612 239.312 282.294 242.616 285.668C245.92 289.042 248.52 293.04 250.263 297.428C252.006 301.817 252.858 306.509 252.77 311.23V311.23V311.39H284V125H252.61C252.611 129.671 251.692 134.296 249.906 138.611C248.12 142.927 245.5 146.848 242.198 150.151C238.896 153.454 234.976 156.075 230.661 157.862C226.346 159.65 221.721 160.57 217.05 160.57V160.57C207.645 160.517 198.643 156.748 192.006 150.085C185.369 143.422 181.636 134.405 181.62 125H150.54V311.39H181.77C181.62 311.23 181.62 311.23 181.62 311.08Z" fill="white"/>
<path d="M197.44 218.34C208.486 218.34 217.44 209.386 217.44 198.34C217.44 187.294 208.486 178.34 197.44 178.34C186.394 178.34 177.44 187.294 177.44 198.34C177.44 209.386 186.394 218.34 197.44 218.34Z" fill="#091440"/>
<path d="M237.27 258.17C248.316 258.17 257.27 249.216 257.27 238.17C257.27 227.124 248.316 218.17 237.27 218.17C226.224 218.17 217.27 227.124 217.27 238.17C217.27 249.216 226.224 258.17 237.27 258.17Z" fill="#091440"/>
<path d="M190.6 258.17C197.962 258.17 203.93 252.202 203.93 244.84C203.93 237.478 197.962 231.51 190.6 231.51C183.238 231.51 177.27 237.478 177.27 244.84C177.27 252.202 183.238 258.17 190.6 258.17Z" fill="#091440"/>
<path d="M243.94 204.83C251.302 204.83 257.27 198.862 257.27 191.5C257.27 184.138 251.302 178.17 243.94 178.17C236.578 178.17 230.61 184.138 230.61 191.5C230.61 198.862 236.578 204.83 243.94 204.83Z" fill="#091440"/>
<path d="M625.42 125C625.409 134.387 621.673 143.386 615.032 150.02C608.39 156.654 599.387 160.38 590 160.38C580.613 160.38 571.61 156.654 564.968 150.02C558.327 143.386 554.591 134.387 554.58 125H523.49V311.39H554.58C554.58 301.996 558.312 292.987 564.954 286.344C571.597 279.702 580.606 275.97 590 275.97C599.394 275.97 608.403 279.702 615.046 286.344C621.688 292.987 625.42 301.996 625.42 311.39H656.51V125H625.42Z" fill="white"/>
<path d="M550.24 218.17C550.24 210.306 552.572 202.619 556.941 196.081C561.31 189.542 567.519 184.446 574.784 181.437C582.05 178.427 590.044 177.64 597.757 179.174C605.469 180.708 612.554 184.495 618.115 190.056C623.675 195.616 627.462 202.701 628.996 210.413C630.53 218.126 629.743 226.12 626.733 233.386C623.724 240.651 618.628 246.861 612.089 251.229C605.551 255.598 597.864 257.93 590 257.93C579.455 257.93 569.342 253.741 561.885 246.285C554.429 238.828 550.24 228.715 550.24 218.17V218.17Z" fill="#091440"/>
<path d="M978.71 125C978.71 129.651 977.794 134.257 976.014 138.555C974.234 142.852 971.625 146.757 968.336 150.046C965.047 153.335 961.142 155.944 956.845 157.724C952.547 159.504 947.941 160.42 943.29 160.42C938.638 160.421 934.031 159.506 929.732 157.727C925.434 155.947 921.528 153.338 918.238 150.049C914.948 146.76 912.338 142.855 910.557 138.557C908.776 134.259 907.86 129.652 907.86 125H876.78V311.39H907.86C908.016 302.098 911.817 293.239 918.444 286.723C925.07 280.207 933.991 276.555 943.285 276.555C952.579 276.555 961.5 280.207 968.126 286.723C974.753 293.239 978.554 302.098 978.71 311.39H1009.79V125H978.71Z" fill="white"/>
<path d="M943.26 257.93C965.523 257.93 983.57 239.882 983.57 217.62C983.57 195.357 965.523 177.31 943.26 177.31C920.997 177.31 902.95 195.357 902.95 217.62C902.95 239.882 920.997 257.93 943.26 257.93Z" fill="#091440"/>
<path d="M938.22 233.65L920.4 215.84L923.97 212.27L938.22 226.53L961.38 203.37L964.94 206.93L938.22 233.65Z" fill="white"/>
<path d="M181.78 675.59C181.78 666.174 185.52 657.145 192.178 650.487C198.835 643.83 207.865 640.09 217.28 640.09C226.695 640.09 235.725 643.83 242.382 650.487C249.04 657.145 252.78 666.174 252.78 675.59V675.78H284V489.35H252.76C252.76 498.765 249.02 507.794 242.362 514.452C235.705 521.109 226.675 524.85 217.26 524.85C207.845 524.85 198.815 521.109 192.158 514.452C185.5 507.794 181.76 498.765 181.76 489.35H150.56V675.78H181.76L181.78 675.59Z" fill="#FEB8A5"/>
<path d="M259.7 562.9L250.27 553.47L217.27 586.47L195.92 565.12H217.01V551.78H173.16V595.9H186.49V574.54L217.27 605.33L259.7 562.9Z" fill="#091440"/>
<path d="M544.43 675.57C544.351 670.854 545.211 666.17 546.961 661.791C548.711 657.412 551.315 653.424 554.622 650.062C557.928 646.699 561.871 644.028 566.221 642.205C570.57 640.382 575.239 639.444 579.955 639.444C584.671 639.444 589.34 640.382 593.689 642.205C598.039 644.028 601.982 646.699 605.288 650.062C608.595 653.424 611.199 657.412 612.949 661.791C614.699 666.17 615.559 670.854 615.48 675.57V675.78H646.63V489.35H615.48C615.324 498.668 611.512 507.552 604.867 514.087C598.222 520.622 589.275 524.284 579.955 524.284C570.635 524.284 561.688 520.622 555.043 514.087C548.398 507.552 544.586 498.668 544.43 489.35H513.28V675.78H544.43V675.57Z" fill="#FEB8A5"/>
<path d="M586.62 542.56H573.29V595.89H586.62V542.56Z" fill="#091440"/>
<path d="M586.62 609.23H573.29V622.56H586.62V609.23Z" fill="#091440"/>
<path d="M959.71 647.2L1046.63 631.88L1041.23 601.26C1032.03 602.783 1022.59 600.613 1014.98 595.222C1007.37 589.83 1002.19 581.653 1000.57 572.465C998.946 563.278 1001.02 553.822 1006.33 546.152C1011.64 538.482 1019.76 533.217 1028.93 531.5L1023.53 500.88L959.92 512.1L959.71 647.2Z" fill="white"/>
<path d="M926.84 517.93L839.94 533.26L845.34 563.87C854.592 562.239 864.113 564.35 871.809 569.739C879.504 575.127 884.744 583.353 886.375 592.605C888.006 601.857 885.895 611.378 880.506 619.073C875.117 626.769 866.892 632.009 857.64 633.64L863.04 664.25L926.63 653L926.84 517.93Z" fill="white"/>
<path d="M926.8 546.38C919.868 549.536 913.988 554.617 909.861 561.019C905.733 567.421 903.533 574.874 903.52 582.491C903.507 590.108 905.683 597.569 909.789 603.984C913.895 610.4 919.758 615.501 926.68 618.68L926.8 546.38Z" fill="#091440"/>
<path d="M982.44 575.659C981.325 569.326 978.688 563.357 974.756 558.268C970.825 553.178 965.717 549.119 959.87 546.439L959.75 618.759C967.775 615.107 974.358 608.891 978.465 601.089C982.572 593.288 983.97 584.342 982.44 575.659V575.659Z" fill="#091440"/>
<path d="M938.082 649.304L938.019 689.284L948.649 689.301L948.712 649.321L938.082 649.304Z" fill="#091440"/>
<path d="M938.072 589.299L938.01 629.279L948.64 629.296L948.702 589.316L938.072 589.299Z" fill="#091440"/>
<path d="M938.082 529.286L938.02 569.266L948.65 569.282L948.712 529.302L938.082 529.286Z" fill="#091440"/>
<path d="M938.083 469.282L938.02 509.262L948.65 509.278L948.712 469.298L938.083 469.282Z" fill="#091440"/>
</svg>
