<svg width="1160" height="800" viewBox="0 0 1160 800" fill="none" xmlns="http://www.w3.org/2000/svg">
<path d="M1160 0H0V800H1160V0Z" fill="white"/>
<path d="M1101 45.4102H59C51.268 45.4102 45 51.6782 45 59.4102V740.58C45 748.312 51.268 754.58 59 754.58H1101C1108.73 754.58 1115 748.312 1115 740.58V59.4102C1115 51.6782 1108.73 45.4102 1101 45.4102Z" fill="#091440"/>
<path d="M392.2 589.78C363.814 605.927 341.047 630.371 326.954 659.831C312.861 689.291 308.118 722.357 313.36 754.59H629.22C634.073 724.794 630.397 694.233 618.617 666.438C606.837 638.642 587.434 614.746 562.649 597.511C537.864 580.275 508.708 570.403 478.551 569.035C448.393 567.668 418.463 574.859 392.22 589.78H392.2Z" fill="#C4CBD2"/>
<path d="M810.53 601.57C768.932 643.035 741.499 696.584 732.15 754.57H1101C1104.71 754.57 1108.27 753.095 1110.9 750.469C1113.52 747.844 1115 744.283 1115 740.57V540.53C1013.65 498.92 892.84 519.26 810.53 601.57Z" fill="#C4CBD2"/>
<path d="M1101 45.4102H805.6C779.253 74.2484 760.353 109.088 750.542 146.897C740.732 184.706 740.309 224.34 749.31 262.35C779.76 391.35 909 471.24 1038 440.78C1065.41 434.348 1091.48 423.133 1115 407.65V59.4102C1115 55.6971 1113.52 52.1362 1110.9 49.5107C1108.27 46.8852 1104.71 45.4102 1101 45.4102Z" fill="#C4CBD2"/>
<path d="M45 59.4104V417.69C76.4698 434.899 111.402 444.821 147.219 446.725C183.036 448.629 218.823 442.466 251.94 428.69C374.37 377.9 432.44 237.47 381.65 115.04C371.06 89.4475 356.112 65.8851 337.47 45.4004H59C57.1607 45.4004 55.3393 45.7628 53.6401 46.467C51.9409 47.1712 50.3971 48.2033 49.097 49.5044C47.7968 50.8055 46.7658 52.35 46.0628 54.0498C45.3598 55.7495 44.9987 57.571 45 59.4104V59.4104Z" fill="#C4CBD2"/>
<path d="M198 602C156.531 560.411 102.983 532.986 45 523.64V740.64C45 744.353 46.475 747.914 49.1005 750.539C51.726 753.165 55.287 754.64 59 754.64H276.3C266.899 696.792 239.501 643.381 198 602V602Z" fill="#C4CBD2"/>
<path d="M163.91 366.75C160.956 359.792 159.412 352.318 159.365 344.759C159.319 337.2 160.772 329.707 163.639 322.714C166.507 315.72 170.733 309.364 176.073 304.014C181.412 298.664 187.76 294.426 194.748 291.545C201.736 288.663 209.226 287.196 216.785 287.228C224.344 287.26 231.821 288.79 238.785 291.73C245.748 294.67 252.06 298.962 257.354 304.356C262.649 309.751 266.821 316.142 269.63 323.16V323.16L269.73 323.39L316.08 304.16L201.26 27.4199L154.67 46.7499C157.55 53.6829 159.035 61.1152 159.042 68.6224C159.048 76.1296 157.576 83.5645 154.708 90.5024C151.84 97.4403 147.634 103.745 142.329 109.057C137.024 114.369 130.724 118.583 123.79 121.46V121.46C109.794 127.165 94.1106 127.108 80.1564 121.301C66.2022 115.495 55.1078 104.409 49.29 90.4599L3.16003 109.61L118 386.35L164.35 367.12C164 367 164 367 163.91 366.75Z" fill="white"/>
<path d="M117.96 221.79C135.71 221.79 150.1 207.4 150.1 189.65C150.1 171.899 135.71 157.51 117.96 157.51C100.21 157.51 85.8199 171.899 85.8199 189.65C85.8199 207.4 100.21 221.79 117.96 221.79Z" fill="#091440"/>
<path d="M201.63 256.39C219.38 256.39 233.77 242.001 233.77 224.25C233.77 206.5 219.38 192.11 201.63 192.11C183.88 192.11 169.49 206.5 169.49 224.25C169.49 242.001 183.88 256.39 201.63 256.39Z" fill="#091440"/>
<path d="M136.46 284.32C148.296 284.32 157.89 274.725 157.89 262.89C157.89 251.055 148.296 241.46 136.46 241.46C124.625 241.46 115.03 251.055 115.03 262.89C115.03 274.725 124.625 284.32 136.46 284.32Z" fill="#091440"/>
<path d="M182.78 172.3C194.615 172.3 204.21 162.706 204.21 150.87C204.21 139.035 194.615 129.44 182.78 129.44C170.945 129.44 161.35 139.035 161.35 150.87C161.35 162.706 170.945 172.3 182.78 172.3Z" fill="#091440"/>
<path d="M824.6 185.42C839.309 182.131 854.721 184.783 867.484 192.798C880.248 200.814 889.331 213.544 892.758 228.221C896.185 242.899 893.678 258.335 885.783 271.174C877.889 284.012 865.244 293.215 850.6 296.78V296.78L850.36 296.84L861.89 345.68L1153.49 276.83L1141.9 227.74C1134.59 229.467 1127.02 229.738 1119.61 228.537C1112.2 227.336 1105.1 224.688 1098.71 220.742C1092.32 216.796 1086.77 211.631 1082.38 205.541C1077.99 199.451 1074.85 192.556 1073.12 185.25V185.25C1069.74 170.52 1072.31 155.051 1080.28 142.211C1088.26 129.372 1100.98 120.202 1115.68 116.7L1104.21 68.0996L812.61 136.95L824.14 185.79C824.35 185.48 824.35 185.48 824.6 185.42Z" fill="white"/>
<path d="M1006.78 200.68C1024.53 200.68 1038.92 186.291 1038.92 168.54C1038.92 150.79 1024.53 136.4 1006.78 136.4C989.03 136.4 974.64 150.79 974.64 168.54C974.64 186.291 989.03 200.68 1006.78 200.68Z" fill="#091440"/>
<path d="M959.19 277.69C976.94 277.69 991.33 263.301 991.33 245.55C991.33 227.8 976.94 213.41 959.19 213.41C941.44 213.41 927.05 227.8 927.05 245.55C927.05 263.301 941.44 277.69 959.19 277.69Z" fill="#091440"/>
<path d="M931.52 196.45C943.356 196.45 952.95 186.855 952.95 175.02C952.95 163.184 943.356 153.59 931.52 153.59C919.685 153.59 910.09 163.184 910.09 175.02C910.09 186.855 919.685 196.45 931.52 196.45Z" fill="#091440"/>
<path d="M1034.64 260.18C1046.48 260.18 1056.07 250.586 1056.07 238.75C1056.07 226.915 1046.48 217.32 1034.64 217.32C1022.8 217.32 1013.21 226.915 1013.21 238.75C1013.21 250.586 1022.8 260.18 1034.64 260.18Z" fill="#091440"/>
<path d="M973 587.51L931.39 629.12C943.896 641.628 950.922 658.592 950.922 676.28C950.922 693.968 943.896 710.931 931.39 723.44C918.846 735.83 901.915 742.761 884.284 742.724C866.653 742.686 849.751 735.683 837.26 723.24L805.93 754.58H1101C1104.71 754.58 1108.27 753.105 1110.9 750.479C1113.52 747.854 1115 744.293 1115 740.58V729.54L973 587.51Z" fill="white"/>
<path d="M1008.08 753.85C1021.89 753.85 1033.08 742.657 1033.08 728.85C1033.08 715.042 1021.89 703.85 1008.08 703.85C994.273 703.85 983.08 715.042 983.08 728.85C983.08 742.657 994.273 753.85 1008.08 753.85Z" fill="#091440"/>
<path d="M170.44 722.83C157.932 735.337 140.968 742.362 123.28 742.362C105.592 742.362 88.6284 735.337 76.12 722.83V722.83C63.7305 710.289 56.7995 693.359 56.8369 675.729C56.8744 658.1 63.8773 641.199 76.32 628.71L45 597.4V740.59C45 744.303 46.475 747.864 49.1005 750.49C51.726 753.115 55.287 754.59 59 754.59H202.19L170.44 722.83Z" fill="white"/>
<path d="M524.93 697.86C519.992 689.071 518.731 678.685 521.421 668.97C524.111 659.254 530.535 650.997 539.29 646L522.83 617.06L349.21 715.85L365.76 744.93C365.82 744.7 365.82 744.7 365.97 744.62C373.971 740.101 383.335 738.624 392.339 740.461C401.343 742.299 409.379 747.327 414.97 754.62H570.29L593.53 741.4L576.91 712.17C572.558 714.645 567.76 716.238 562.792 716.858C557.824 717.479 552.782 717.114 547.955 715.785C543.128 714.456 538.61 712.189 534.659 709.113C530.708 706.038 527.402 702.213 524.93 697.86Z" fill="white"/>
<path d="M479.34 721.06C491.175 721.06 500.77 711.466 500.77 699.63C500.77 687.795 491.175 678.2 479.34 678.2C467.505 678.2 457.91 687.795 457.91 699.63C457.91 711.466 467.505 721.06 479.34 721.06Z" fill="#091440"/>
<path d="M452.75 739.2C449.939 740.799 447.527 743.014 445.696 745.68C443.865 748.346 442.663 751.392 442.18 754.59H484.51C484.126 752.001 483.265 749.505 481.97 747.23C480.579 744.783 478.72 742.635 476.499 740.907C474.278 739.179 471.737 737.906 469.024 737.16C466.31 736.415 463.476 736.211 460.684 736.561C457.892 736.911 455.196 737.808 452.75 739.2Z" fill="#091440"/>
<path d="M432.42 732.19C440.312 732.19 446.71 725.793 446.71 717.9C446.71 710.008 440.312 703.61 432.42 703.61C424.528 703.61 418.13 710.008 418.13 717.9C418.13 725.793 424.528 732.19 432.42 732.19Z" fill="#091440"/>
<path d="M510.34 753.599C518.232 753.599 524.63 747.202 524.63 739.31C524.63 731.417 518.232 725.02 510.34 725.02C502.448 725.02 496.05 731.417 496.05 739.31C496.05 747.202 502.448 753.599 510.34 753.599Z" fill="#091440"/>
<path d="M580.31 560C668.676 560 740.31 488.366 740.31 400C740.31 311.634 668.676 240 580.31 240C491.944 240 420.31 311.634 420.31 400C420.31 488.366 491.944 560 580.31 560Z" fill="#C4CBD2"/>
<path d="M541.93 499.36C541.953 489.25 545.99 479.563 553.155 472.43C560.32 465.297 570.025 461.302 580.135 461.325C590.245 461.348 599.932 465.385 607.065 472.55C614.198 479.715 618.193 489.42 618.17 499.53V499.7H651.63V300H618C618 310.108 613.985 319.803 606.838 326.951C599.692 334.1 589.998 338.117 579.89 338.12C569.806 338.07 560.152 334.034 553.033 326.892C545.914 319.751 541.908 310.084 541.89 300H508.64V499.7H542.1C541.93 499.53 541.93 499.53 541.93 499.36Z" fill="white"/>
<path d="M558.88 400C570.715 400 580.31 390.405 580.31 378.57C580.31 366.734 570.715 357.14 558.88 357.14C547.044 357.14 537.45 366.734 537.45 378.57C537.45 390.405 547.044 400 558.88 400Z" fill="#091440"/>
<path d="M601.56 442.68C613.395 442.68 622.99 433.086 622.99 421.25C622.99 409.415 613.395 399.82 601.56 399.82C589.725 399.82 580.13 409.415 580.13 421.25C580.13 433.086 589.725 442.68 601.56 442.68Z" fill="#091440"/>
<path d="M551.56 442.68C559.452 442.68 565.85 436.282 565.85 428.39C565.85 420.497 559.452 414.1 551.56 414.1C543.668 414.1 537.27 420.497 537.27 428.39C537.27 436.282 543.668 442.68 551.56 442.68Z" fill="#091440"/>
<path d="M608.71 385.54C616.602 385.54 623 379.142 623 371.25C623 363.358 616.602 356.96 608.71 356.96C600.818 356.96 594.42 363.358 594.42 371.25C594.42 379.142 600.818 385.54 608.71 385.54Z" fill="#091440"/>
</svg>
