<svg width="1160" height="800" viewBox="0 0 1160 800" fill="none" xmlns="http://www.w3.org/2000/svg">
<path d="M1160 0H0V800H1160V0Z" fill="white"/>
<path d="M1101 45.4102H59C51.268 45.4102 45 51.6782 45 59.4102V740.58C45 748.312 51.268 754.58 59 754.58H1101C1108.73 754.58 1115 748.312 1115 740.58V59.4102C1115 51.6782 1108.73 45.4102 1101 45.4102Z" fill="#091440"/>
<path d="M843 651.45C813.81 680.565 791.439 715.79 777.5 754.59H1101C1104.71 754.59 1108.27 753.115 1110.9 750.49C1113.53 747.864 1115 744.303 1115 740.59V579.36C1067.33 566.292 1017.06 566.079 969.283 578.741C921.507 591.403 877.937 616.49 843 651.45V651.45Z" fill="#C4CBD2"/>
<path d="M963.82 679C973.529 688.711 980.005 701.182 982.363 714.71C984.722 728.239 982.849 742.165 977 754.59H1101C1103.78 754.6 1106.51 753.779 1108.82 752.233C1111.14 750.687 1112.94 748.485 1114 745.91L1005.43 637.39L963.82 679Z" fill="white"/>
<g opacity="0.3">
<path opacity="0.3" d="M541.93 499.36C541.953 489.25 545.991 479.563 553.155 472.43C560.32 465.297 570.025 461.302 580.135 461.325C590.245 461.348 599.932 465.385 607.065 472.55C614.198 479.715 618.193 489.42 618.17 499.53V499.7H651.63V300H618C618 310.108 613.985 319.803 606.839 326.951C599.692 334.1 589.998 338.117 579.89 338.12C569.807 338.07 560.152 334.034 553.033 326.892C545.914 319.751 541.908 310.084 541.89 300H508.64V499.7H542.1C541.93 499.53 541.93 499.53 541.93 499.36Z" fill="white"/>
<path opacity="0.3" d="M558.88 400C570.716 400 580.31 390.405 580.31 378.57C580.31 366.734 570.716 357.14 558.88 357.14C547.045 357.14 537.45 366.734 537.45 378.57C537.45 390.405 547.045 400 558.88 400Z" fill="#091440"/>
<path opacity="0.3" d="M601.56 442.68C613.396 442.68 622.99 433.086 622.99 421.25C622.99 409.415 613.396 399.82 601.56 399.82C589.725 399.82 580.13 409.415 580.13 421.25C580.13 433.086 589.725 442.68 601.56 442.68Z" fill="#091440"/>
<path opacity="0.3" d="M551.56 442.68C559.452 442.68 565.85 436.282 565.85 428.39C565.85 420.497 559.452 414.1 551.56 414.1C543.668 414.1 537.27 420.497 537.27 428.39C537.27 436.282 543.668 442.68 551.56 442.68Z" fill="#091440"/>
<path opacity="0.3" d="M608.71 385.54C616.602 385.54 623 379.142 623 371.25C623 363.358 616.602 356.96 608.71 356.96C600.818 356.96 594.42 363.358 594.42 371.25C594.42 379.142 600.818 385.54 608.71 385.54Z" fill="#091440"/>
</g>
<path d="M417 638.39C395.798 650.425 377.634 667.154 363.898 687.296C350.163 707.438 341.222 730.458 337.76 754.59H654.52C650.776 728.806 640.796 704.325 625.447 683.273C610.097 662.221 589.841 645.232 566.438 633.783C543.034 622.333 517.19 616.768 491.148 617.571C465.106 618.374 439.654 625.52 417 638.39V638.39Z" fill="#C4CBD2"/>
<path d="M391.39 754.59H555.93C553.519 752.174 551.44 749.446 549.75 746.48V746.48C544.822 737.691 543.567 727.311 546.259 717.601C548.95 707.891 555.37 699.638 564.12 694.64L547.64 665.7L391.39 754.59Z" fill="white"/>
<path d="M493.56 729.62C489.308 732.035 486.011 735.832 484.216 740.38C482.42 744.927 482.235 749.952 483.69 754.62H524.6C525.879 750.521 525.895 746.131 524.647 742.022C523.399 737.913 520.944 734.274 517.602 731.578C514.259 728.882 510.182 727.254 505.902 726.905C501.622 726.556 497.335 727.502 493.6 729.62H493.56Z" fill="#091440"/>
<path d="M465.07 754.59C462.873 753.138 460.317 752.323 457.684 752.236C455.052 752.15 452.448 752.795 450.16 754.1C449.9 754.25 449.65 754.42 449.39 754.59H465.07Z" fill="#091440"/>
<path d="M45 59.4102V311C95.3858 324.019 148.645 320.231 196.68 300.21C299.8 257.41 357.25 151.05 342.47 45.4102H59C55.287 45.4102 51.726 46.8852 49.1005 49.5107C46.475 52.1362 45 55.6971 45 59.4102Z" fill="#C4CBD2"/>
<path d="M1101 45.4102H841C822.723 91.1388 819.024 141.398 830.41 189.31C860.54 316.93 987.41 396.47 1114.99 368.67V59.4102C1114.99 55.6989 1113.52 52.1394 1110.89 49.5142C1108.27 46.889 1104.71 45.4128 1101 45.4102Z" fill="#C4CBD2"/>
<path d="M1115 59.4102C1115 55.6971 1113.53 52.1362 1110.9 49.5107C1108.27 46.8852 1104.71 45.4102 1101 45.4102H972L893.76 63.9002L905.29 112.74C905.47 112.44 905.47 112.44 905.72 112.38C920.429 109.092 935.841 111.744 948.605 119.759C961.368 127.774 970.451 140.505 973.878 155.182C977.305 169.859 974.798 185.296 966.903 198.134C959.009 210.973 946.364 220.175 931.72 223.74L931.48 223.8L943 272.64L1115 232V59.4102Z" fill="white"/>
<path d="M1115 112.77V78.2098C1111.26 72.3434 1105.72 67.8481 1099.21 65.3986C1092.7 62.9492 1085.57 62.6778 1078.89 64.6252C1072.21 66.5726 1066.34 70.6337 1062.17 76.1989C1058 81.7641 1055.74 88.5331 1055.74 95.4898C1055.74 102.447 1058 109.216 1062.17 114.781C1066.34 120.346 1072.21 124.407 1078.89 126.354C1085.57 128.302 1092.7 128.03 1099.21 125.581C1105.72 123.132 1111.26 118.636 1115 112.77V112.77Z" fill="#091440"/>
<path d="M1040.3 204.65C1058.05 204.65 1072.44 190.261 1072.44 172.51C1072.44 154.76 1058.05 140.37 1040.3 140.37C1022.55 140.37 1008.16 154.76 1008.16 172.51C1008.16 190.261 1022.55 204.65 1040.3 204.65Z" fill="#091440"/>
<path d="M1012.64 123.41C1024.48 123.41 1034.07 113.815 1034.07 101.98C1034.07 90.1443 1024.48 80.5498 1012.64 80.5498C1000.8 80.5498 991.21 90.1443 991.21 101.98C991.21 113.815 1000.8 123.41 1012.64 123.41Z" fill="#091440"/>
<path d="M1115 144.29C1109.46 144.497 1104.21 146.844 1100.37 150.838C1096.52 154.831 1094.37 160.16 1094.37 165.705C1094.37 171.25 1096.52 176.579 1100.37 180.572C1104.21 184.566 1109.46 186.913 1115 187.12V144.29Z" fill="#091440"/>
<path d="M142.29 602.45C114.656 574.756 81.5097 553.179 45 539.12V740.59C45 744.303 46.475 747.864 49.1005 750.49C51.726 753.115 55.287 754.59 59 754.59H220.53C211.04 696.93 183.671 643.71 142.29 602.45V602.45Z" fill="#C4CBD2"/>
<path d="M45 59.4102V215.14L62.72 257.85L109.07 238.61C108.75 238.48 108.75 238.48 108.65 238.24C103.053 224.256 103.2 208.629 109.058 194.752C114.917 180.876 126.014 169.871 139.94 164.13C153.865 158.388 169.493 158.373 183.43 164.088C197.366 169.802 208.484 180.785 214.37 194.65L214.47 194.88L260.83 175.65L206.83 45.4102H59C57.1615 45.4102 55.341 45.7723 53.6424 46.4758C51.9439 47.1794 50.4005 48.2106 49.1005 49.5107C47.8005 50.8107 46.7693 52.354 46.0657 54.0526C45.3621 55.7511 45 57.5717 45 59.4102V59.4102Z" fill="white"/>
<path d="M45 59.4102V88.0002C50.7462 91.7892 57.5568 93.6341 64.4298 93.2634C71.3028 92.8927 77.8755 90.326 83.1808 85.9409C88.4861 81.5558 92.2441 75.5837 93.9019 68.9033C95.5597 62.223 95.0297 55.1869 92.39 48.8302C91.9034 47.659 91.3491 46.517 90.73 45.4102H59C55.287 45.4102 51.726 46.8852 49.1005 49.5107C46.475 52.1362 45 55.6971 45 59.4102Z" fill="#091440"/>
<path d="M146.37 127.88C164.12 127.88 178.51 113.49 178.51 95.7396C178.51 77.9892 164.12 63.5996 146.37 63.5996C128.62 63.5996 114.23 77.9892 114.23 95.7396C114.23 113.49 128.62 127.88 146.37 127.88Z" fill="#091440"/>
<path d="M81.2 155.81C93.0355 155.81 102.63 146.216 102.63 134.38C102.63 122.545 93.0355 112.95 81.2 112.95C69.3646 112.95 59.77 122.545 59.77 134.38C59.77 146.216 69.3646 155.81 81.2 155.81Z" fill="#091440"/>
<path d="M114.73 723.27C105.786 732.219 94.4798 738.439 82.1325 741.203C69.7852 743.968 56.9063 743.162 45 738.88V740.59C45 744.303 46.475 747.864 49.1005 750.489C51.726 753.115 55.287 754.59 59 754.59H146.05L114.73 723.27Z" fill="white"/>
<path d="M398.17 441.52C434.17 408.4 462 383 462 362.32C462 348.64 454.32 342.16 443.28 342.16C433.2 342.16 425.52 349.36 418.28 356.56L396.2 334.48C412.04 317.68 426.44 310 449 310C479.72 310 501.32 329.68 501.32 359.92C501.32 384.4 478.32 411.28 457.64 432.4C466.081 431.319 474.572 430.678 483.08 430.48H508.52V465H398.17V441.52Z" fill="#FFC84E"/>
<path d="M520.61 446.32L538.85 420.4C547.97 428.56 558.53 434.8 569.57 434.8C583.97 434.8 592.13 428.56 592.13 415.12C592.13 402.12 583.49 395.44 571.49 395.44C563.33 395.44 559.49 396.88 550.37 402.64L532.61 391.12L536.45 312.88H626.7V347.44H572L570.08 369.52C574.684 367.812 579.571 366.997 584.48 367.12C610.88 367.12 633.48 382 633.48 414.12C633.48 448.2 606.83 467.88 575.87 467.88C550.85 467.92 533.09 458.8 520.61 446.32Z" fill="#FFC84E"/>
<path d="M650 391.6C650 336.4 680.24 310 712.88 310C734.48 310 750.32 319.12 760.4 329.2L738.8 353.68C734 348.4 724.4 343.12 715.8 343.12C699.72 343.12 687.48 355.12 687.48 391.6C687.48 429.52 699.24 437.2 708.6 437.2C717.24 437.2 724.92 432.2 724.92 416.08C724.92 401.44 716.76 397.84 708.12 397.84C700.92 397.84 693.48 401.68 687.96 412.24L686 386.32C693.2 375.32 707.36 369.04 716.24 369.04C742.16 369.04 762.32 383.44 762.32 416.04C762.32 448.64 738.32 467.88 709.52 467.88C680.24 467.92 650 446.8 650 391.6Z" fill="#FFC84E"/>
<path d="M679.016 508.009L660.925 518.454L663.395 522.732L681.486 512.287L679.016 508.009Z" fill="white"/>
<path d="M699.423 496.23L681.427 506.62L683.897 510.898L701.893 500.508L699.423 496.23Z" fill="white"/>
<path d="M687.017 521.865L668.925 532.31L671.73 537.168L689.822 526.723L687.017 521.865Z" fill="white"/>
<path d="M707.415 510.09L689.419 520.48L692.224 525.339L710.22 514.949L707.415 510.09Z" fill="white"/>
<path d="M691.462 482.477L652.975 504.697L655.755 509.512L694.242 487.292L691.462 482.477Z" fill="white"/>
<path d="M680.408 510.41L662.317 520.855L667.207 529.325L685.298 518.88L680.408 510.41Z" fill="#C4CBD2"/>
<path d="M700.806 498.636L682.81 509.026L687.7 517.496L705.696 507.106L700.806 498.636Z" fill="#C4CBD2"/>
<path d="M688.4 524.27L670.31 534.719L673.81 540.78C674.184 541.414 674.792 541.875 675.504 542.062C676.216 542.249 676.973 542.148 677.61 541.78L693.29 532.719L688.4 524.27Z" fill="#C4CBD2"/>
<path d="M708.804 512.5L690.808 522.89L695.698 531.359L713.694 520.969L708.804 512.5Z" fill="#C4CBD2"/>
<path d="M692.851 484.887L654.365 507.107L659.225 515.525L697.711 493.305L692.851 484.887Z" fill="#C4CBD2"/>
<path d="M678.25 542.92C684.38 542.92 689.35 537.95 689.35 531.82C689.35 525.689 684.38 520.72 678.25 520.72C672.12 520.72 667.15 525.689 667.15 531.82C667.15 537.95 672.12 542.92 678.25 542.92Z" fill="white"/>
<path d="M680.38 525.7L678.23 533.75L672.86 532.31L672.14 534.99L680.19 537.15L683.07 526.42L680.38 525.7Z" fill="#091440"/>
<path d="M560.747 548.21L540.174 551.838L541.032 556.703L561.605 553.075L560.747 548.21Z" fill="white"/>
<path d="M583.942 544.124L563.478 547.732L564.336 552.597L584.8 548.989L583.942 544.124Z" fill="white"/>
<path d="M558.752 563.306L538.28 566.857L539.234 572.355L559.706 568.804L558.752 563.306Z" fill="white"/>
<path d="M586.715 559.884L566.25 563.492L567.224 569.017L587.689 565.409L586.715 559.884Z" fill="white"/>
<path d="M581.179 528.471L537.415 536.188L538.38 541.663L582.145 533.946L581.179 528.471Z" fill="white"/>
<path d="M561.222 550.954L540.649 554.581L542.348 564.212L562.92 560.585L561.222 550.954Z" fill="#C4CBD2"/>
<path d="M584.428 546.856L563.963 550.465L565.662 560.096L586.126 556.488L584.428 546.856Z" fill="#C4CBD2"/>
<path d="M564 566.7L543.43 570.33L544.65 577.23C544.712 577.589 544.844 577.933 545.039 578.241C545.234 578.549 545.488 578.815 545.786 579.024C546.085 579.233 546.421 579.381 546.777 579.46C547.133 579.538 547.501 579.545 547.86 579.48L565.7 576.33L564 566.7Z" fill="#C4CBD2"/>
<path d="M587.2 562.604L566.736 566.213L568.434 575.844L588.899 572.236L587.2 562.604Z" fill="#C4CBD2"/>
<path d="M581.655 531.203L537.891 538.92L539.578 548.492L583.343 540.775L581.655 531.203Z" fill="#C4CBD2"/>
<path d="M551.88 581.42C558.01 581.42 562.98 576.45 562.98 570.32C562.98 564.189 558.01 559.22 551.88 559.22C545.75 559.22 540.78 564.189 540.78 570.32C540.78 576.45 545.75 581.42 551.88 581.42Z" fill="white"/>
<path d="M555.98 565.3L551.2 572.13L546.65 568.94L545.05 571.21L551.88 575.99L558.25 566.89L555.98 565.3Z" fill="#091440"/>
<path d="M789.902 409.934L740.68 432.887L746.115 444.542L795.337 421.589L789.902 409.934Z" fill="white"/>
<path d="M845.4 384.054L796.441 406.884L801.876 418.539L850.835 395.709L845.4 384.054Z" fill="white"/>
<path d="M807.479 447.634L758.257 470.586L764.423 483.809L813.645 460.857L807.479 447.634Z" fill="white"/>
<path d="M862.987 421.753L814.028 444.583L820.194 457.806L869.153 434.976L862.987 421.753Z" fill="white"/>
<path d="M827.955 346.613L723.222 395.451L729.325 408.538L834.057 359.7L827.955 346.613Z" fill="white"/>
<path d="M792.955 416.483L743.734 439.436L754.477 462.474L803.698 439.522L792.955 416.483Z" fill="#C4CBD2"/>
<path d="M848.464 390.602L799.505 413.432L810.248 436.47L859.207 413.64L848.464 390.602Z" fill="#C4CBD2"/>
<path d="M810.53 454.19L761.31 477.14L769 493.63C769.81 495.367 771.276 496.711 773.076 497.367C774.876 498.023 776.863 497.938 778.6 497.13L821.28 477.23L810.53 454.19Z" fill="#C4CBD2"/>
<path d="M866.039 428.31L817.081 451.14L827.824 474.178L876.782 451.348L866.039 428.31Z" fill="#C4CBD2"/>
<path d="M831.003 353.152L726.27 401.99L736.954 424.902L841.687 376.064L831.003 353.152Z" fill="#C4CBD2"/>
<path d="M782.52 500.29C798.453 500.29 811.37 487.373 811.37 471.44C811.37 455.506 798.453 442.59 782.52 442.59C766.587 442.59 753.67 455.506 753.67 471.44C753.67 487.373 766.587 500.29 782.52 500.29Z" fill="white"/>
<path d="M789.43 456.06L782.02 476.42L768.45 471.48L765.98 478.26L786.34 485.67L796.22 458.53L789.43 456.06Z" fill="#091440"/>
<path d="M530.949 242.41L530.092 247.275L550.664 250.903L551.522 246.038L530.949 242.41Z" fill="white"/>
<path d="M554.254 246.525L553.396 251.39L573.86 254.998L574.718 250.133L554.254 246.525Z" fill="white"/>
<path d="M528.161 258.166L527.187 263.69L547.759 267.318L548.734 261.793L528.161 258.166Z" fill="white"/>
<path d="M548.184 264.057L547.231 269.555L567.595 273.087L568.549 267.589L548.184 264.057Z" fill="white"/>
<path d="M533.709 226.758L532.744 232.233L576.509 239.95L577.474 234.475L533.709 226.758Z" fill="white"/>
<path d="M530.456 245.141L528.757 254.772L549.33 258.4L551.028 248.769L530.456 245.141Z" fill="#C4CBD2"/>
<path d="M550.519 251.083L548.856 260.667L569.221 264.2L570.883 254.615L550.519 251.083Z" fill="#C4CBD2"/>
<path d="M548.26 264.52L527.69 260.9L526.47 267.79C526.342 268.516 526.507 269.262 526.929 269.866C527.351 270.47 527.995 270.881 528.72 271.01L546.56 274.15L548.26 264.52Z" fill="#C4CBD2"/>
<path d="M550.999 265.001L549.301 274.633L569.765 278.241L571.464 268.61L550.999 265.001Z" fill="#C4CBD2"/>
<path d="M533.23 229.498L531.542 239.07L575.307 246.787L576.995 237.215L533.23 229.498Z" fill="#C4CBD2"/>
<path d="M535.63 274.88C541.76 274.88 546.73 269.91 546.73 263.78C546.73 257.649 541.76 252.68 535.63 252.68C529.5 252.68 524.53 257.649 524.53 263.78C524.53 269.91 529.5 274.88 535.63 274.88Z" fill="white"/>
<path d="M541.2 260.46L534.37 265.24L531.18 260.69L528.91 262.28L533.69 269.11L542.79 262.73L541.2 260.46Z" fill="#091440"/>
<path d="M641.109 218.619L640.093 221.41L651.867 225.696L652.883 222.905L641.109 218.619Z" fill="white"/>
<path d="M654.446 223.482L653.431 226.272L665.149 230.537L666.164 227.747L654.446 223.482Z" fill="white"/>
<path d="M637.822 227.649L636.67 230.815L648.444 235.101L649.597 231.934L637.822 227.649Z" fill="white"/>
<path d="M651.154 232.498L650.001 235.665L661.719 239.93L662.872 236.763L651.154 232.498Z" fill="white"/>
<path d="M644.353 209.677L643.214 212.806L668.275 221.927L669.414 218.798L644.353 209.677Z" fill="white"/>
<path d="M640.532 220.195L638.524 225.711L650.298 229.996L652.306 224.48L640.532 220.195Z" fill="#C4CBD2"/>
<path d="M653.87 225.043L651.863 230.559L663.581 234.824L665.588 229.308L653.87 225.043Z" fill="#C4CBD2"/>
<path d="M649 233.5L637.22 229.21L635.79 233.16C635.715 233.366 635.682 233.585 635.691 233.804C635.701 234.023 635.754 234.238 635.847 234.437C635.94 234.636 636.071 234.814 636.233 234.962C636.394 235.11 636.584 235.225 636.79 235.3L647 239L649 233.5Z" fill="#C4CBD2"/>
<path d="M650.594 234.063L648.586 239.579L660.304 243.844L662.312 238.328L650.594 234.063Z" fill="#C4CBD2"/>
<path d="M643.783 211.238L641.789 216.717L666.85 225.838L668.844 220.36L643.783 211.238Z" fill="#C4CBD2"/>
<path d="M641.64 238.4C645.318 238.4 648.3 235.418 648.3 231.74C648.3 228.062 645.318 225.08 641.64 225.08C637.962 225.08 634.98 228.062 634.98 231.74C634.98 235.418 637.962 238.4 641.64 238.4Z" fill="white"/>
<path d="M645.27 230.36L640.74 232.47L639.33 229.45L637.82 230.16L639.94 234.69L645.98 231.87L645.27 230.36Z" fill="#091440"/>
<path d="M318.462 447.972L314.063 460.057L365.098 478.632L369.497 466.547L318.462 447.972Z" fill="white"/>
<path d="M376.275 469.021L371.876 481.105L422.638 499.581L427.037 487.497L376.275 469.021Z" fill="white"/>
<path d="M304.223 487.064L299.233 500.774L350.268 519.35L355.258 505.639L304.223 487.064Z" fill="white"/>
<path d="M362.046 508.113L357.056 521.823L407.818 540.299L412.808 526.589L362.046 508.113Z" fill="white"/>
<path d="M331.908 408.274L326.999 421.848L435.625 461.138L440.535 447.564L331.908 408.274Z" fill="white"/>
<path d="M315.981 454.771L307.287 478.658L358.321 497.233L367.015 473.346L315.981 454.771Z" fill="#C4CBD2"/>
<path d="M373.807 475.811L365.113 499.698L415.875 518.174L424.569 494.287L373.807 475.811Z" fill="#C4CBD2"/>
<path d="M352.79 512.43L301.79 493.85L295.53 511C294.877 512.799 294.965 514.785 295.775 516.519C296.585 518.254 298.051 519.596 299.85 520.25L344.1 536.36L352.79 512.43Z" fill="#C4CBD2"/>
<path d="M359.573 514.902L350.878 538.789L401.641 557.265L410.335 533.378L359.573 514.902Z" fill="#C4CBD2"/>
<path d="M330.114 415.934L321.468 439.689L430.058 479.213L438.705 455.458L330.114 415.934Z" fill="#C4CBD2"/>
<path d="M320.78 533.67C336.713 533.67 349.63 520.753 349.63 504.82C349.63 488.886 336.713 475.97 320.78 475.97C304.847 475.97 291.93 488.886 291.93 504.82C291.93 520.753 304.847 533.67 320.78 533.67Z" fill="white"/>
<path d="M336.55 498.83L316.91 507.99L310.81 494.9L304.26 497.95L313.42 517.59L339.6 505.38L336.55 498.83Z" fill="#091440"/>
<path d="M559.187 548.486L538.615 552.113L539.473 556.978L560.045 553.351L559.187 548.486Z" fill="white"/>
<path d="M582.383 544.391L561.919 547.999L562.777 552.864L583.241 549.256L582.383 544.391Z" fill="white"/>
<path d="M561.959 564.235L541.387 567.862L542.361 573.387L562.934 569.76L561.959 564.235Z" fill="white"/>
<path d="M585.165 560.148L564.701 563.757L565.675 569.282L586.139 565.673L585.165 560.148Z" fill="white"/>
<path d="M579.622 528.757L535.857 536.474L536.822 541.949L580.587 534.232L579.622 528.757Z" fill="white"/>
<path d="M559.673 551.218L539.1 554.846L540.798 564.477L561.371 560.85L559.673 551.218Z" fill="#C4CBD2"/>
<path d="M582.878 547.132L562.414 550.74L564.112 560.372L584.576 556.763L582.878 547.132Z" fill="#C4CBD2"/>
<path d="M562.45 567L541.88 570.63L543.09 577.52C543.219 578.245 543.631 578.889 544.234 579.311C544.838 579.733 545.585 579.898 546.31 579.77L564.15 576.63L562.45 567Z" fill="#C4CBD2"/>
<path d="M585.643 562.892L565.178 566.5L566.877 576.131L587.341 572.523L585.643 562.892Z" fill="#C4CBD2"/>
<path d="M580.108 531.488L536.343 539.205L538.031 548.777L581.795 541.06L580.108 531.488Z" fill="#C4CBD2"/>
<path d="M550.32 581.7C556.45 581.7 561.42 576.73 561.42 570.6C561.42 564.47 556.45 559.5 550.32 559.5C544.19 559.5 539.22 564.47 539.22 570.6C539.22 576.73 544.19 581.7 550.32 581.7Z" fill="white"/>
<path d="M554.42 565.57L549.64 572.4L545.09 569.21L543.5 571.49L550.33 576.27L556.7 567.17L554.42 565.57Z" fill="#091440"/>
<path d="M396.727 295.846L385.875 302.111L387.36 304.683L398.212 298.418L396.727 295.846Z" fill="white"/>
<path d="M408.972 288.776L398.172 295.011L399.657 297.583L410.457 291.348L408.972 288.776Z" fill="white"/>
<path d="M401.535 304.166L390.684 310.431L392.369 313.349L403.22 307.084L401.535 304.166Z" fill="white"/>
<path d="M415.421 298.278L404.573 304.513L406.258 307.445L417.106 301.21L415.421 298.278Z" fill="white"/>
<path d="M404.205 280.52L381.108 293.854L382.773 296.738L405.87 283.403L404.205 280.52Z" fill="white"/>
<path d="M397.562 297.289L386.711 303.554L389.646 308.637L400.497 302.372L397.562 297.289Z" fill="#C4CBD2"/>
<path d="M409.808 290.218L399.008 296.453L401.943 301.537L412.743 295.302L409.808 290.218Z" fill="#C4CBD2"/>
<path d="M402.37 305.6L391.51 311.87L393.61 315.5C393.719 315.69 393.864 315.857 394.038 315.991C394.212 316.125 394.411 316.224 394.623 316.28C394.835 316.337 395.056 316.351 395.273 316.322C395.491 316.293 395.701 316.22 395.89 316.11L405.3 310.68L402.37 305.6Z" fill="#C4CBD2"/>
<path d="M414.605 298.534L403.805 304.769L406.74 309.852L417.54 303.617L414.605 298.534Z" fill="#C4CBD2"/>
<path d="M405.05 281.958L381.953 295.293L384.868 300.342L407.965 287.007L405.05 281.958Z" fill="#C4CBD2"/>
<path d="M396.27 316.79C399.948 316.79 402.93 313.808 402.93 310.13C402.93 306.452 399.948 303.47 396.27 303.47C392.592 303.47 389.61 306.452 389.61 310.13C389.61 313.808 392.592 316.79 396.27 316.79Z" fill="white"/>
<path d="M397.56 306.45L396.26 311.29L393.04 310.42L392.61 312.03L397.44 313.33L399.17 306.89L397.56 306.45Z" fill="#091440"/>
</svg>
