<svg width="1160" height="800" viewBox="0 0 1160 800" fill="none" xmlns="http://www.w3.org/2000/svg">
<path d="M1160 0H0V800H1160V0Z" fill="white"/>
<path d="M1100.95 218.51H59.6001C51.8681 218.51 45.6001 224.778 45.6001 232.51V740.86C45.6001 748.592 51.8681 754.86 59.6001 754.86H1100.95C1108.68 754.86 1114.95 748.592 1114.95 740.86V232.51C1114.95 224.778 1108.68 218.51 1100.95 218.51Z" fill="#FFC84E"/>
<path d="M663.88 443.93L647.38 427.44L730 344.82V314.64H601.67V408H578.33V314.64H450V344.29L532.25 426.54L515.75 443L450 377.29V688H730V377.82L663.88 443.93ZM524.09 501.31C528.896 487.667 537.817 475.852 549.622 467.494C561.428 459.136 575.536 454.648 590 454.648C604.464 454.648 618.572 459.136 630.378 467.494C642.183 475.852 651.104 487.667 655.91 501.31H524.09Z" fill="#091440"/>
<path d="M683.34 641.31H496.67V548H524C528.824 561.65 537.761 573.469 549.581 581.828C561.401 590.187 575.523 594.676 590 594.676C604.477 594.676 618.598 590.187 630.419 581.828C642.239 573.469 651.176 561.65 656 548H683.34V641.31Z" fill="white"/>
<path d="M601.67 524.94C601.672 522.967 601.174 521.027 600.223 519.3C599.271 517.572 597.898 516.114 596.23 515.061C594.563 514.008 592.656 513.395 590.687 513.279C588.718 513.163 586.752 513.548 584.973 514.397C583.193 515.247 581.658 516.534 580.51 518.137C579.362 519.741 578.64 521.609 578.41 523.568C578.18 525.527 578.45 527.512 579.195 529.338C579.94 531.163 581.136 532.771 582.67 534.01L578.35 559.94H601.69L597.35 534C598.699 532.906 599.787 531.525 600.534 529.958C601.281 528.39 601.669 526.676 601.67 524.94V524.94Z" fill="white"/>
<path d="M663.88 443.93L647.38 427.44L706.67 368.14V338H601.67V408H578.33V338H473.33V367.65L532.25 426.57L515.75 443L473.33 400.58V501.31H524.09C528.896 487.667 537.817 475.852 549.622 467.494C561.428 459.137 575.536 454.648 590 454.648C604.464 454.648 618.572 459.137 630.378 467.494C642.183 475.852 651.104 487.667 655.91 501.31H706.67V401.14L663.88 443.93Z" fill="white"/>
<path d="M855.71 45.4102H59.6001C51.8681 45.4102 45.6001 51.6782 45.6001 59.4102V191.41C45.6001 199.142 51.8681 205.41 59.6001 205.41H855.71C863.442 205.41 869.71 199.142 869.71 191.41V59.4102C869.71 51.6782 863.442 45.4102 855.71 45.4102Z" fill="#C4CBD2"/>
<path d="M1100.95 45.4102H1027.05C1019.32 45.4102 1013.05 51.6782 1013.05 59.4102V191.41C1013.05 199.142 1019.32 205.41 1027.05 205.41H1100.95C1108.68 205.41 1114.95 199.142 1114.95 191.41V59.4102C1114.95 51.6782 1108.68 45.4102 1100.95 45.4102Z" fill="#C4CBD2"/>
<path d="M979.06 45.4102H905.16C897.428 45.4102 891.16 51.6782 891.16 59.4102V191.41C891.16 199.142 897.428 205.41 905.16 205.41H979.06C986.792 205.41 993.06 199.142 993.06 191.41V59.4102C993.06 51.6782 986.792 45.4102 979.06 45.4102Z" fill="#C4CBD2"/>
<path d="M973.485 149.862L918.705 95.0825C916.475 92.8526 912.86 92.8526 910.63 95.0825C908.4 97.3124 908.4 100.928 910.63 103.158L965.41 157.937C967.639 160.167 971.255 160.167 973.485 157.937C975.715 155.707 975.715 152.092 973.485 149.862Z" fill="#091440"/>
<path d="M944.81 85.6104C933.038 85.6236 921.753 90.3057 913.429 98.6294C905.105 106.953 900.423 118.239 900.41 130.01L917.09 113.33L921.02 117.26L932.8 105.47L928.87 101.54L944.81 85.6104Z" fill="white"/>
<path d="M111.42 86.4805C111.421 88.4191 111.04 90.3391 110.299 92.1304C109.558 93.9218 108.471 95.5494 107.1 96.9203C105.729 98.2912 104.101 99.3783 102.31 100.12C100.519 100.861 98.5987 101.242 96.66 101.24V101.24C94.7222 101.24 92.8033 100.859 91.0131 100.117C89.2229 99.3748 87.5964 98.2875 86.2266 96.9168C84.8568 95.546 83.7706 93.9188 83.0299 92.1281C82.2892 90.3374 81.9087 88.4183 81.91 86.4805H69V164.16H82C82.1002 160.314 83.6986 156.658 86.4548 153.973C89.211 151.287 92.9069 149.785 96.755 149.785C100.603 149.785 104.299 151.287 107.055 153.973C109.811 156.658 111.41 160.314 111.51 164.16H124.51V86.4805H111.42Z" fill="white"/>
<path d="M80.1001 125.32C80.1001 122.042 81.0722 118.838 82.8933 116.113C84.7145 113.388 87.303 111.264 90.3313 110.01C93.3597 108.757 96.6919 108.429 99.9064 109.069C103.121 109.709 106.073 111.288 108.39 113.607C110.707 115.925 112.285 118.879 112.923 122.093C113.561 125.308 113.232 128.64 111.976 131.668C110.72 134.696 108.595 137.283 105.869 139.102C103.142 140.922 99.9378 141.892 96.6601 141.89C94.4846 141.89 92.3304 141.461 90.3206 140.628C88.3107 139.796 86.4847 138.575 84.9469 137.036C83.409 135.497 82.1894 133.671 81.3578 131.66C80.5262 129.65 80.0988 127.496 80.1001 125.32V125.32Z" fill="#091440"/>
<path d="M1030.68 157.8H1097.34C1100.41 157.8 1102.9 155.311 1102.9 152.24V91.1398C1102.9 88.0691 1100.41 85.5798 1097.34 85.5798L1030.68 85.5798C1027.61 85.5798 1025.12 88.0691 1025.12 91.1398V152.24C1025.12 155.311 1027.61 157.8 1030.68 157.8Z" fill="#091440"/>
<path d="M1097.33 91.1396H1030.67C1027.6 91.1396 1025.11 93.6289 1025.11 96.6996V157.8C1025.11 160.87 1027.6 163.36 1030.67 163.36H1097.33C1100.4 163.36 1102.89 160.87 1102.89 157.8V96.6996C1102.89 93.6289 1100.4 91.1396 1097.33 91.1396Z" fill="white"/>
<path d="M1030.67 118.75V135.42H1025.11V141H1030.67V157.83H1097.34V97.8297C1097.34 97.5353 1097.22 97.253 1097.01 97.0448C1096.81 96.8367 1096.52 96.7197 1096.23 96.7197H1030.67V113.22H1025.11V118.77L1030.67 118.75ZM1036.23 102.25H1091.78V152.25H1036.23V102.25Z" fill="#091440"/>
<path d="M1091.78 168.92H1097.34V163.36H1091.78V168.92Z" fill="#091440"/>
<path d="M1030.67 168.92H1036.23V163.36H1030.67V168.92Z" fill="#091440"/>
<path d="M1077.75 113.5C1075.03 110.779 1071.56 108.925 1067.79 108.174C1064.02 107.423 1060.11 107.808 1056.55 109.279C1053 110.751 1049.96 113.244 1047.82 116.443C1045.68 119.642 1044.54 123.403 1044.54 127.25C1044.54 131.097 1045.68 134.858 1047.82 138.057C1049.96 141.255 1053 143.748 1056.55 145.22C1060.11 146.692 1064.02 147.077 1067.79 146.325C1071.56 145.574 1075.03 143.721 1077.75 141C1079.56 139.198 1081 137.055 1081.98 134.696C1082.96 132.336 1083.47 129.805 1083.47 127.25C1083.47 124.694 1082.96 122.164 1081.98 119.804C1081 117.444 1079.56 115.302 1077.75 113.5V113.5ZM1071.66 115.66L1064 123.32L1056.34 115.66C1058.61 114.16 1061.28 113.361 1064 113.361C1066.72 113.361 1069.39 114.16 1071.66 115.66V115.66ZM1050.11 127.25C1050.11 124.526 1050.91 121.861 1052.41 119.59L1060.07 127.25L1052.41 134.91C1050.91 132.639 1050.1 129.974 1050.11 127.25V127.25ZM1056.34 138.84L1064 131.18L1071.66 138.84C1069.39 140.34 1066.72 141.139 1064 141.139C1061.28 141.139 1058.61 140.34 1056.34 138.84V138.84ZM1075.59 134.91L1067.93 127.25L1075.59 119.59C1077.09 121.863 1077.89 124.526 1077.89 127.25C1077.89 129.973 1077.09 132.637 1075.59 134.91V134.91Z" fill="#091440"/>
</svg>
