<svg width="1160" height="800" viewBox="0 0 1160 800" fill="none" xmlns="http://www.w3.org/2000/svg">
<path d="M1160 0H0V800H1160V0Z" fill="white"/>
<path d="M1100.95 44.9805H59.5996C51.8676 44.9805 45.5996 51.2485 45.5996 58.9805V740.43C45.5996 748.162 51.8676 754.43 59.5996 754.43H1100.95C1108.68 754.43 1114.95 748.162 1114.95 740.43V58.9805C1114.95 51.2485 1108.68 44.9805 1100.95 44.9805Z" fill="#091440"/>
<path d="M396.726 295.405L385.875 301.67L387.36 304.242L398.211 297.977L396.726 295.405Z" fill="white"/>
<path d="M408.977 288.343L398.178 294.578L399.663 297.15L410.462 290.915L408.977 288.343Z" fill="white"/>
<path d="M401.525 303.724L390.674 309.989L392.359 312.908L403.21 306.643L401.525 303.724Z" fill="white"/>
<path d="M415.426 297.854L404.577 304.089L406.262 307.021L417.111 300.786L415.426 297.854Z" fill="white"/>
<path d="M404.21 280.087L381.113 293.422L382.778 296.306L405.875 282.971L404.21 280.087Z" fill="white"/>
<path d="M397.562 296.847L386.711 303.112L389.646 308.196L400.497 301.931L397.562 296.847Z" fill="#C4CBD2"/>
<path d="M411.45 290.949L400.602 297.184L403.537 302.29L414.385 296.056L411.45 290.949Z" fill="#C4CBD2"/>
<path d="M402.37 305.17L391.51 311.43L393.61 315.07C393.831 315.453 394.196 315.732 394.624 315.847C395.051 315.961 395.506 315.901 395.89 315.68L405.3 310.25L402.37 305.17Z" fill="#C4CBD2"/>
<path d="M414.605 298.093L403.806 304.328L406.741 309.412L417.54 303.177L414.605 298.093Z" fill="#C4CBD2"/>
<path d="M406.668 282.68L383.465 296.015L386.38 301.087L409.583 287.752L406.668 282.68Z" fill="#C4CBD2"/>
<path d="M396.27 316.36C399.949 316.36 402.93 313.378 402.93 309.7C402.93 306.022 399.949 303.04 396.27 303.04C392.592 303.04 389.61 306.022 389.61 309.7C389.61 313.378 392.592 316.36 396.27 316.36Z" fill="white"/>
<path d="M397.56 306.02L396.26 310.85L393.04 309.99L392.61 311.6L397.44 312.89L399.17 306.45L397.56 306.02Z" fill="#091440"/>
<path d="M398.17 441.09C434.17 408 462 382.52 462 361.88C462 348.2 454.32 341.72 443.28 341.72C433.2 341.72 425.52 348.92 418.28 356.12L396.25 334C412.09 317.2 426.49 309.52 449.05 309.52C479.77 309.52 501.37 329.2 501.37 359.44C501.37 383.92 478.37 410.81 457.69 431.93C466.131 430.848 474.622 430.207 483.13 430.01H508.57V464.57H398.17V441.09Z" fill="#FFC84E"/>
<path d="M520.61 445.89L538.85 420C547.97 428.16 558.53 434.4 569.57 434.4C583.98 434.4 592.14 428.16 592.14 414.71C592.14 401.71 583.5 395.03 571.49 395.03C563.33 395.03 559.49 396.47 550.37 402.23L532.61 390.71L536.45 312.47H626.7V347H572L570.08 369.08C574.688 367.372 579.578 366.557 584.49 366.68C610.89 366.68 633.49 381.56 633.49 413.68C633.49 447.77 606.85 467.45 575.88 467.45C550.85 467.49 533.09 458.37 520.61 445.89Z" fill="#FFC84E"/>
<path d="M650 391.16C650 335.96 680.24 309.56 712.88 309.56C734.48 309.56 750.32 318.68 760.4 328.76L738.8 353.24C734 347.96 724.4 342.68 715.8 342.68C699.72 342.68 687.48 354.68 687.48 391.16C687.48 429.09 699.24 436.77 708.6 436.77C717.24 436.77 724.92 431.77 724.92 415.64C724.92 401 716.76 397.4 708.12 397.4C700.92 397.4 693.48 401.24 687.96 411.81L686 385.88C693.2 374.88 707.36 368.6 716.24 368.6C742.16 368.6 762.32 383 762.32 415.6C762.32 448.2 738.32 467.45 709.52 467.45C680.24 467.49 650 446.37 650 391.16Z" fill="#FFC84E"/>
<path d="M679.011 507.577L660.92 518.022L663.39 522.301L681.481 511.856L679.011 507.577Z" fill="white"/>
<path d="M699.423 495.79L681.427 506.18L683.897 510.458L701.893 500.068L699.423 495.79Z" fill="white"/>
<path d="M687.022 521.432L668.931 531.877L671.736 536.735L689.827 526.29L687.022 521.432Z" fill="white"/>
<path d="M707.415 509.649L689.419 520.039L692.224 524.898L710.22 514.507L707.415 509.649Z" fill="white"/>
<path d="M691.467 482.045L652.98 504.265L655.76 509.08L694.247 486.86L691.467 482.045Z" fill="white"/>
<path d="M680.403 509.979L662.312 520.424L667.202 528.894L685.293 518.449L680.403 509.979Z" fill="#C4CBD2"/>
<path d="M700.807 498.206L682.811 508.596L687.701 517.065L705.697 506.675L700.807 498.206Z" fill="#C4CBD2"/>
<path d="M688.4 523.84L670.31 534.28L673.81 540.35C674.183 540.984 674.792 541.445 675.504 541.632C676.215 541.82 676.972 541.718 677.61 541.35L693.29 532.3L688.4 523.84Z" fill="#C4CBD2"/>
<path d="M708.805 512.059L690.809 522.449L695.699 530.919L713.695 520.529L708.805 512.059Z" fill="#C4CBD2"/>
<path d="M692.851 484.446L654.365 506.666L659.225 515.084L697.711 492.864L692.851 484.446Z" fill="#C4CBD2"/>
<path d="M678.25 542.49C684.381 542.49 689.35 537.52 689.35 531.39C689.35 525.26 684.381 520.29 678.25 520.29C672.12 520.29 667.15 525.26 667.15 531.39C667.15 537.52 672.12 542.49 678.25 542.49Z" fill="white"/>
<path d="M680.38 525.26L678.23 533.31L672.86 531.88L672.14 534.56L680.19 536.72L683.07 525.98L680.38 525.26Z" fill="#091440"/>
<path d="M560.741 547.777L540.168 551.404L541.026 556.269L561.598 552.642L560.741 547.777Z" fill="white"/>
<path d="M583.946 543.681L563.481 547.289L564.339 552.154L584.804 548.546L583.946 543.681Z" fill="white"/>
<path d="M558.749 562.874L538.277 566.426L539.231 571.924L559.703 568.372L558.749 562.874Z" fill="white"/>
<path d="M586.72 559.45L566.256 563.059L567.23 568.583L587.694 564.975L586.72 559.45Z" fill="white"/>
<path d="M581.185 528.047L537.42 535.764L538.385 541.239L582.15 533.522L581.185 528.047Z" fill="white"/>
<path d="M556.508 549.906L536.036 553.457L537.699 563.041L558.171 559.49L556.508 549.906Z" fill="#C4CBD2"/>
<path d="M584.421 546.424L563.957 550.032L565.655 559.664L586.12 556.055L584.421 546.424Z" fill="#C4CBD2"/>
<path d="M564 566.27L543.43 569.9L544.65 576.789C544.711 577.149 544.843 577.492 545.038 577.8C545.233 578.108 545.487 578.374 545.786 578.583C546.084 578.793 546.421 578.941 546.777 579.019C547.133 579.097 547.501 579.104 547.86 579.039L565.7 575.9L564 566.27Z" fill="#C4CBD2"/>
<path d="M587.206 562.182L566.741 565.79L568.439 575.421L588.904 571.813L587.206 562.182Z" fill="#C4CBD2"/>
<path d="M581.66 530.78L537.896 538.497L539.583 548.069L583.348 540.353L581.66 530.78Z" fill="#C4CBD2"/>
<path d="M551.88 580.99C558.011 580.99 562.98 576.02 562.98 569.89C562.98 563.76 558.011 558.79 551.88 558.79C545.75 558.79 540.78 563.76 540.78 569.89C540.78 576.02 545.75 580.99 551.88 580.99Z" fill="white"/>
<path d="M555.98 564.86L551.2 571.69L546.65 568.5L545.05 570.78L551.88 575.56L558.25 566.46L555.98 564.86Z" fill="#091440"/>
<path d="M789.9 409.505L740.679 432.457L746.114 444.112L795.335 421.16L789.9 409.505Z" fill="white"/>
<path d="M845.404 383.614L796.445 406.444L801.88 418.099L850.839 395.27L845.404 383.614Z" fill="white"/>
<path d="M807.487 447.204L758.266 470.156L764.432 483.379L813.653 460.427L807.487 447.204Z" fill="white"/>
<path d="M862.981 421.314L814.022 444.144L820.188 457.367L869.147 434.537L862.981 421.314Z" fill="white"/>
<path d="M827.949 346.175L723.216 395.013L729.318 408.1L834.051 359.262L827.949 346.175Z" fill="white"/>
<path d="M792.949 416.044L743.728 438.996L754.471 462.034L803.692 439.082L792.949 416.044Z" fill="#C4CBD2"/>
<path d="M848.458 390.163L799.499 412.993L810.242 436.031L859.201 413.202L848.458 390.163Z" fill="#C4CBD2"/>
<path d="M810.53 453.75L761.31 476.7L769 493.2C769.4 494.06 769.967 494.832 770.666 495.473C771.366 496.114 772.185 496.61 773.076 496.934C773.968 497.258 774.915 497.404 775.862 497.362C776.81 497.32 777.74 497.092 778.6 496.69L821.28 476.79L810.53 453.75Z" fill="#C4CBD2"/>
<path d="M866.033 427.862L817.074 450.691L827.817 473.73L876.776 450.9L866.033 427.862Z" fill="#C4CBD2"/>
<path d="M831.001 352.723L726.269 401.561L736.952 424.472L841.685 375.634L831.001 352.723Z" fill="#C4CBD2"/>
<path d="M782.52 499.85C798.453 499.85 811.37 486.934 811.37 471C811.37 455.067 798.453 442.15 782.52 442.15C766.587 442.15 753.67 455.067 753.67 471C753.67 486.934 766.587 499.85 782.52 499.85Z" fill="white"/>
<path d="M789.43 455.62L782.021 475.98L768.451 471.04L765.98 477.83L786.341 485.24L796.22 458.09L789.43 455.62Z" fill="#091440"/>
<path d="M530.946 241.975L530.088 246.84L550.661 250.467L551.518 245.602L530.946 241.975Z" fill="white"/>
<path d="M554.25 246.09L553.393 250.955L573.857 254.563L574.715 249.699L554.25 246.09Z" fill="white"/>
<path d="M528.168 257.73L527.193 263.255L547.766 266.882L548.74 261.358L528.168 257.73Z" fill="white"/>
<path d="M551.471 261.844L550.497 267.369L570.961 270.978L571.936 265.453L551.471 261.844Z" fill="white"/>
<path d="M533.706 226.321L532.74 231.797L576.505 239.514L577.471 234.038L533.706 226.321Z" fill="white"/>
<path d="M527.317 246.447L525.654 256.031L546.126 259.583L547.789 249.998L527.317 246.447Z" fill="#C4CBD2"/>
<path d="M550.518 250.648L548.855 260.232L569.22 263.765L570.882 254.181L550.518 250.648Z" fill="#C4CBD2"/>
<path d="M548.26 264.09L527.69 260.46L526.47 267.36C526.405 267.719 526.412 268.087 526.49 268.443C526.569 268.798 526.717 269.135 526.926 269.434C527.135 269.732 527.401 269.986 527.709 270.181C528.017 270.376 528.36 270.508 528.72 270.57L546.56 273.72L548.26 264.09Z" fill="#C4CBD2"/>
<path d="M547.68 266.332L546.018 275.916L566.382 279.449L568.045 269.864L547.68 266.332Z" fill="#C4CBD2"/>
<path d="M533.216 229.062L531.528 238.635L575.293 246.352L576.981 236.779L533.216 229.062Z" fill="#C4CBD2"/>
<path d="M535.63 274.44C541.761 274.44 546.73 269.471 546.73 263.34C546.73 257.21 541.761 252.24 535.63 252.24C529.5 252.24 524.53 257.21 524.53 263.34C524.53 269.471 529.5 274.44 535.63 274.44Z" fill="white"/>
<path d="M541.2 260.02L534.37 264.8L531.18 260.25L528.91 261.85L533.69 268.67L542.79 262.3L541.2 260.02Z" fill="#091440"/>
<path d="M641.095 218.179L640.079 220.97L651.853 225.255L652.869 222.464L641.095 218.179Z" fill="white"/>
<path d="M654.443 223.041L653.427 225.832L665.145 230.097L666.161 227.306L654.443 223.041Z" fill="white"/>
<path d="M637.809 227.208L636.656 230.375L648.431 234.661L649.583 231.494L637.809 227.208Z" fill="white"/>
<path d="M651.16 232.061L650.008 235.228L661.726 239.493L662.878 236.326L651.16 232.061Z" fill="white"/>
<path d="M644.359 209.239L643.22 212.368L668.281 221.49L669.42 218.361L644.359 209.239Z" fill="white"/>
<path d="M640.528 219.755L638.521 225.271L650.295 229.556L652.303 224.04L640.528 219.755Z" fill="#C4CBD2"/>
<path d="M653.876 224.616L651.868 230.132L663.586 234.397L665.594 228.881L653.876 224.616Z" fill="#C4CBD2"/>
<path d="M649 233.07L637.22 228.78L635.79 232.73C635.716 232.936 635.682 233.154 635.692 233.372C635.702 233.591 635.755 233.805 635.848 234.003C635.941 234.201 636.072 234.379 636.234 234.526C636.395 234.673 636.585 234.787 636.79 234.86L647 238.58L649 233.07Z" fill="#C4CBD2"/>
<path d="M650.591 233.633L648.583 239.149L660.301 243.414L662.309 237.898L650.591 233.633Z" fill="#C4CBD2"/>
<path d="M643.789 210.812L641.795 216.29L666.857 225.412L668.85 219.933L643.789 210.812Z" fill="#C4CBD2"/>
<path d="M641.641 237.97C645.319 237.97 648.3 234.989 648.3 231.31C648.3 227.632 645.319 224.65 641.641 224.65C637.962 224.65 634.98 227.632 634.98 231.31C634.98 234.989 637.962 237.97 641.641 237.97Z" fill="white"/>
<path d="M645.27 229.93L640.74 232.04L639.33 229.02L637.82 229.72L639.94 234.25L645.98 231.44L645.27 229.93Z" fill="#091440"/>
<path d="M318.458 447.531L314.06 459.615L365.094 478.19L369.493 466.106L318.458 447.531Z" fill="white"/>
<path d="M376.271 468.58L371.873 480.664L422.635 499.14L427.034 487.056L376.271 468.58Z" fill="white"/>
<path d="M304.229 486.628L299.239 500.338L350.274 518.913L355.264 505.203L304.229 486.628Z" fill="white"/>
<path d="M361.413 506.552L356.452 520.267L407.231 538.633L412.192 524.919L361.413 506.552Z" fill="white"/>
<path d="M332.58 408.717L327.642 422.286L436.232 461.81L441.171 448.241L332.58 408.717Z" fill="white"/>
<path d="M315.977 454.331L307.283 478.218L358.318 496.793L367.012 472.906L315.977 454.331Z" fill="#C4CBD2"/>
<path d="M373.804 475.371L365.109 499.258L415.872 517.734L424.566 493.847L373.804 475.371Z" fill="#C4CBD2"/>
<path d="M352.79 512L301.79 493.43L295.56 510.53C294.906 512.331 294.994 514.317 295.804 516.054C296.614 517.79 298.08 519.134 299.88 519.79L344.13 535.89L352.79 512Z" fill="#C4CBD2"/>
<path d="M359.579 514.466L350.885 538.353L401.647 556.828L410.341 532.941L359.579 514.466Z" fill="#C4CBD2"/>
<path d="M330.12 415.507L321.474 439.263L430.065 478.787L438.711 455.031L330.12 415.507Z" fill="#C4CBD2"/>
<path d="M320.78 533.23C336.713 533.23 349.63 520.314 349.63 504.38C349.63 488.447 336.713 475.53 320.78 475.53C304.846 475.53 291.93 488.447 291.93 504.38C291.93 520.314 304.846 533.23 320.78 533.23Z" fill="white"/>
<path d="M336.55 498.4L316.91 507.55L310.81 494.46L304.26 497.51L313.42 517.15L339.6 504.94L336.55 498.4Z" fill="#091440"/>
<g opacity="0.1">
<path opacity="0.1" d="M517.6 562.14C517.84 545.762 524.524 530.137 536.204 518.653C547.884 507.168 563.618 500.748 579.999 500.783C596.379 500.819 612.086 507.307 623.716 518.842C635.345 530.378 641.961 546.031 642.13 562.41V562.41V562.69H696.77V236.44H641.85C641.85 252.949 635.294 268.782 623.622 280.458C611.95 292.133 596.119 298.695 579.61 298.7C563.153 298.6 547.402 292 535.789 280.339C524.176 268.677 517.642 252.898 517.61 236.44H463.23V562.69H517.87C517.6 562.42 517.6 562.42 517.6 562.14Z" fill="white"/>
<path opacity="0.1" d="M545.29 399.851C564.62 399.851 580.29 384.181 580.29 364.851C580.29 345.521 564.62 329.851 545.29 329.851C525.96 329.851 510.29 345.521 510.29 364.851C510.29 384.181 525.96 399.851 545.29 399.851Z" fill="#091440"/>
<path opacity="0.1" d="M615 469.561C634.33 469.561 650 453.891 650 434.561C650 415.231 634.33 399.561 615 399.561C595.67 399.561 580 415.231 580 434.561C580 453.891 595.67 469.561 615 469.561Z" fill="#091440"/>
<path opacity="0.1" d="M533.33 469.56C546.215 469.56 556.66 459.115 556.66 446.23C556.66 433.346 546.215 422.9 533.33 422.9C520.445 422.9 510 433.346 510 446.23C510 459.115 520.445 469.56 533.33 469.56Z" fill="#091440"/>
<path opacity="0.1" d="M626.67 376.221C639.555 376.221 650 365.775 650 352.891C650 340.006 639.555 329.561 626.67 329.561C613.785 329.561 603.34 340.006 603.34 352.891C603.34 365.775 613.785 376.221 626.67 376.221Z" fill="#091440"/>
</g>
</svg>
