<svg width="1160" height="800" viewBox="0 0 1160 800" fill="none" xmlns="http://www.w3.org/2000/svg">
<path d="M1160 0H0V800H1160V0Z" fill="white"/>
<path d="M1100.95 218.51H59.6C51.868 218.51 45.6 224.778 45.6 232.51V740.86C45.6 748.592 51.868 754.86 59.6 754.86H1100.95C1108.68 754.86 1114.95 748.592 1114.95 740.86V232.51C1114.95 224.778 1108.68 218.51 1100.95 218.51Z" fill="#FFC84E"/>
<path d="M663.88 443.93L647.38 427.44L730 344.82V314.64H601.67V408H578.33V314.64H450V344.29L532.25 426.54L515.75 443L450 377.29V688H730V377.82L663.88 443.93ZM524.09 501.31C528.896 487.667 537.817 475.852 549.622 467.494C561.428 459.136 575.536 454.648 590 454.648C604.464 454.648 618.572 459.136 630.378 467.494C642.183 475.852 651.104 487.667 655.91 501.31H524.09Z" fill="#091440"/>
<path d="M683.34 641.31H496.67V548H524C528.824 561.65 537.761 573.469 549.581 581.828C561.401 590.187 575.523 594.676 590 594.676C604.477 594.676 618.599 590.187 630.419 581.828C642.239 573.469 651.176 561.65 656 548H683.34V641.31Z" fill="white"/>
<path d="M601.67 524.94C601.672 522.967 601.174 521.027 600.223 519.3C599.271 517.572 597.898 516.114 596.23 515.061C594.563 514.008 592.656 513.395 590.687 513.279C588.718 513.163 586.752 513.548 584.973 514.397C583.193 515.247 581.658 516.534 580.51 518.137C579.362 519.741 578.64 521.609 578.41 523.568C578.18 525.527 578.45 527.512 579.195 529.338C579.94 531.163 581.135 532.771 582.67 534.01L578.35 559.94H601.69L597.35 534C598.699 532.906 599.786 531.525 600.534 529.958C601.281 528.39 601.669 526.676 601.67 524.94V524.94Z" fill="white"/>
<path d="M663.88 443.93L647.38 427.44L706.67 368.14V338H601.67V408H578.33V338H473.33V367.65L532.25 426.57L515.75 443L473.33 400.58V501.31H524.09C528.896 487.667 537.817 475.852 549.622 467.494C561.428 459.137 575.536 454.648 590 454.648C604.464 454.648 618.572 459.137 630.378 467.494C642.183 475.852 651.104 487.667 655.91 501.31H706.67V401.14L663.88 443.93Z" fill="white"/>
<path d="M855.71 45.4102H59.6C51.868 45.4102 45.6 51.6782 45.6 59.4102V191.41C45.6 199.142 51.868 205.41 59.6 205.41H855.71C863.442 205.41 869.71 199.142 869.71 191.41V59.4102C869.71 51.6782 863.442 45.4102 855.71 45.4102Z" fill="#C4CBD2"/>
<path d="M69.8 132C69.8 127.56 72.44 124.92 76.04 123V122.76C73.04 120.48 71.04 117.76 71.04 113.76C71.04 107.05 76.32 102.97 83.76 102.97C90.84 102.97 95.64 107.05 95.64 113.53C95.64 117.01 93.48 119.76 90.78 121.53V121.77C94.5 123.77 97.32 126.77 97.32 131.77C97.32 137.89 91.74 142.45 83.4 142.45C75.62 142.39 69.8 138.19 69.8 132ZM87.74 131.4C87.74 128.64 85.1 127.56 80.6 125.64C79.3556 127.076 78.6486 128.9 78.6 130.8C78.6 133.8 80.94 135.36 83.6 135.36C85.88 135.31 87.74 134.23 87.74 131.35V131.4ZM87.32 114.24C87.32 111.61 85.88 110.05 83.48 110.05C81.62 110.05 80 111.13 80 113.76C80 116.39 82 117.6 85.64 119.04C86.6978 117.641 87.2859 115.943 87.32 114.19V114.24Z" fill="#091440"/>
<path d="M101.35 122.47C101.35 109.47 107.11 102.92 115.51 102.92C123.91 102.92 129.67 109.52 129.67 122.47C129.67 135.42 123.91 142.39 115.51 142.39C107.11 142.39 101.35 135.49 101.35 122.47ZM119.95 122.47C119.95 112.4 117.95 110.83 115.51 110.83C113.07 110.83 111.07 112.4 111.07 122.47C111.07 132.54 113.07 134.47 115.51 134.47C117.95 134.47 120 132.55 120 122.47H119.95Z" fill="#091440"/>
<path d="M133.13 128C133.13 124.1 135.29 121.82 138.13 121.82C140.97 121.82 143.13 124.1 143.13 128C143.13 131.9 140.97 134.24 138.13 134.24C135.29 134.24 133.13 131.89 133.13 128ZM139.67 128C139.67 125.36 138.95 124.64 138.17 124.64C137.39 124.64 136.67 125.36 136.67 128C136.67 130.64 137.39 131.42 138.17 131.42C138.95 131.42 139.67 130.63 139.67 128ZM149.33 121.82H152.21L141.77 142H138.89L149.33 121.82ZM147.83 135.82C147.83 131.92 149.99 129.64 152.83 129.64C155.67 129.64 157.83 131.92 157.83 135.82C157.83 139.72 155.67 142.06 152.83 142.06C149.99 142.06 147.83 139.69 147.83 135.79V135.82ZM154.37 135.82C154.37 133.18 153.65 132.46 152.87 132.46C152.09 132.46 151.37 133.18 151.37 135.82C151.37 138.46 152.09 139.24 152.87 139.24C153.65 139.24 154.37 138.43 154.37 135.79V135.82Z" fill="#091440"/>
<path d="M1100.95 45.4102H1027.05C1019.32 45.4102 1013.05 51.6782 1013.05 59.4102V191.41C1013.05 199.142 1019.32 205.41 1027.05 205.41H1100.95C1108.68 205.41 1114.95 199.142 1114.95 191.41V59.4102C1114.95 51.6782 1108.68 45.4102 1100.95 45.4102Z" fill="#C4CBD2"/>
<path d="M1023 133.39H1031.16V113.71H1024V107.36C1027.55 106.797 1030.95 105.532 1034 103.64H1041.56V133.39H1048.4V141.67H1023V133.39Z" fill="#091440"/>
<path d="M1050.1 122.47C1050.1 109.47 1055.86 102.92 1064.26 102.92C1072.66 102.92 1078.42 109.52 1078.42 122.47C1078.42 135.42 1072.66 142.39 1064.26 142.39C1055.86 142.39 1050.1 135.49 1050.1 122.47ZM1068.7 122.47C1068.7 112.4 1066.7 110.83 1064.26 110.83C1061.82 110.83 1059.82 112.4 1059.82 122.47C1059.82 132.54 1061.82 134.47 1064.26 134.47C1066.7 134.47 1068.7 132.55 1068.7 122.47V122.47Z" fill="#091440"/>
<path d="M1081.12 128C1081.12 124.1 1083.28 121.82 1086.12 121.82C1088.96 121.82 1091.12 124.1 1091.12 128C1091.12 131.9 1088.96 134.24 1086.12 134.24C1083.28 134.24 1081.12 131.89 1081.12 128ZM1087.66 128C1087.66 125.36 1086.94 124.64 1086.16 124.64C1085.38 124.64 1084.66 125.36 1084.66 128C1084.66 130.64 1085.38 131.42 1086.16 131.42C1086.94 131.42 1087.66 130.63 1087.66 128V128ZM1097.32 121.82H1100.2L1089.76 142H1086.88L1097.32 121.82ZM1095.82 135.82C1095.82 131.92 1097.98 129.64 1100.82 129.64C1103.66 129.64 1105.82 131.92 1105.82 135.82C1105.82 139.72 1103.66 142.06 1100.82 142.06C1097.98 142.06 1095.82 139.69 1095.82 135.79V135.82ZM1102.36 135.82C1102.36 133.18 1101.64 132.46 1100.86 132.46C1100.08 132.46 1099.36 133.18 1099.36 135.82C1099.36 138.46 1100.08 139.24 1100.86 139.24C1101.64 139.24 1102.36 138.43 1102.36 135.79V135.82Z" fill="#091440"/>
<path d="M979.06 45.4102H905.16C897.428 45.4102 891.16 51.6782 891.16 59.4102V191.41C891.16 199.142 897.428 205.41 905.16 205.41H979.06C986.792 205.41 993.06 199.142 993.06 191.41V59.4102C993.06 51.6782 986.792 45.4102 979.06 45.4102Z" fill="#C4CBD2"/>
<path d="M901.13 133.39H909.29V113.71H902.09V107.36C905.638 106.797 909.037 105.532 912.09 103.64H919.65V133.39H926.49V141.67H901.13V133.39Z" fill="#091440"/>
<path d="M928.2 122.47C928.2 109.47 933.96 102.92 942.36 102.92C950.76 102.92 956.52 109.52 956.52 122.47C956.52 135.42 950.76 142.39 942.36 142.39C933.96 142.39 928.2 135.49 928.2 122.47ZM946.8 122.47C946.8 112.4 944.8 110.83 942.36 110.83C939.92 110.83 937.92 112.4 937.92 122.47C937.92 132.54 939.92 134.47 942.36 134.47C944.8 134.47 946.8 132.55 946.8 122.47V122.47Z" fill="#091440"/>
<path d="M959.22 128C959.22 124.1 961.38 121.82 964.22 121.82C967.06 121.82 969.22 124.1 969.22 128C969.22 131.9 967.06 134.24 964.22 134.24C961.38 134.24 959.22 131.89 959.22 128ZM965.76 128C965.76 125.36 965.04 124.64 964.26 124.64C963.48 124.64 962.76 125.36 962.76 128C962.76 130.64 963.48 131.42 964.26 131.42C965.04 131.42 965.76 130.63 965.76 128ZM975.42 121.82H978.3L967.86 142H965L975.42 121.82ZM973.92 135.82C973.92 131.92 976.08 129.64 978.92 129.64C981.76 129.64 983.92 131.92 983.92 135.82C983.92 139.72 981.76 142.06 978.92 142.06C976.08 142.06 973.92 139.69 973.92 135.79V135.82ZM980.46 135.82C980.46 133.18 979.74 132.46 978.96 132.46C978.18 132.46 977.46 133.18 977.46 135.82C977.46 138.46 978.18 139.24 978.96 139.24C979.74 139.24 980.46 138.43 980.46 135.79V135.82Z" fill="#091440"/>
</svg>
