<svg width="92" height="92" viewBox="0 0 92 92" fill="none" xmlns="http://www.w3.org/2000/svg">
<rect width="92" height="92" fill="#C4CBD2"/>
<path d="M35.0439 74.6652C35.0439 68.6136 39.9444 63.7132 45.9959 63.7132C52.0475 63.7132 56.9479 68.6136 56.9479 74.6652V74.731H66.5679V17.2412H56.9479C56.9479 23.2928 52.0475 28.1932 45.9959 28.1932C39.9444 28.1932 35.0439 23.2928 35.0439 17.2412H25.4568V74.6981H35.0768C35.0439 74.7145 35.0439 74.6981 35.0439 74.6652Z" fill="white"/>
<path d="M48.4499 58.0893C47.6606 58.2537 46.8548 58.336 46.0655 58.336L46.0491 54.2249C46.5753 54.2249 47.1179 54.1591 47.6442 54.0604C48.1704 53.9453 48.6966 53.7973 49.1899 53.5835L50.7686 57.3822C50.0286 57.6947 49.2392 57.9249 48.4499 58.0893ZM41.3459 57.4315C39.8495 56.8231 38.5011 55.9351 37.3335 54.784L40.2113 51.8569C40.9842 52.6133 41.8886 53.2053 42.8917 53.6164L41.3459 57.4315ZM54.7481 54.7017L51.8375 51.8075C52.5939 51.0346 53.2024 50.1467 53.6135 49.1435L57.4121 50.7058C56.7872 52.2022 55.8993 53.5506 54.7481 54.7017ZM58.333 45.9862L54.2219 46.0026C54.2219 45.46 54.1726 44.9173 54.0575 44.3747C53.9588 43.8484 53.7944 43.3386 53.597 42.8617L57.3957 41.283C57.6917 42.0066 57.9384 42.7795 58.0864 43.5524C58.2508 44.3582 58.333 45.1804 58.333 45.9862ZM51.821 40.1978C51.0481 39.4249 50.1601 38.8328 49.157 38.4217L50.7357 34.623C52.2322 35.2479 53.5806 36.1524 54.7317 37.2871L51.821 40.1978Z" fill="#091440"/>
<path d="M43.5493 33.9146C36.8893 35.2631 32.5644 41.7915 33.9128 48.4515C34.0772 49.2573 34.3239 50.0467 34.6363 50.8031L38.4186 49.208C38.2048 48.6982 38.0404 48.172 37.9417 47.6293C37.0372 43.1893 39.9315 38.8315 44.3715 37.9435C44.9141 37.8284 45.4568 37.7791 45.9995 37.7791V33.668C45.1772 33.668 44.355 33.7502 43.5493 33.9146Z" fill="#091440"/>
</svg>
