<svg width="1160" height="800" viewBox="0 0 1160 800" fill="none" xmlns="http://www.w3.org/2000/svg">
<path d="M1160 0H0V800H1160V0Z" fill="white"/>
<path d="M1102 45.8799H606C598.268 45.8799 592 52.1479 592 59.8799V741.19C592 748.922 598.268 755.19 606 755.19H1102C1109.73 755.19 1116 748.922 1116 741.19V59.8799C1116 52.1479 1109.73 45.8799 1102 45.8799Z" fill="#091440"/>
<path d="M555 46.1904H59.73C51.998 46.1904 45.73 52.4584 45.73 60.1904V741.69C45.73 749.422 51.998 755.69 59.73 755.69H555C562.732 755.69 569 749.422 569 741.69V60.1904C569 52.4584 562.732 46.1904 555 46.1904Z" fill="#091440"/>
<path d="M137.36 660.94H117.36V680.94H137.36V660.94Z" fill="#394269"/>
<path d="M197.36 660.94H177.36V680.94H197.36V660.94Z" fill="#394269"/>
<path d="M257.36 660.94H237.36V680.94H257.36V660.94Z" fill="#394269"/>
<path d="M300.37 677.94H314.37V663.94H300.37V677.94Z" fill="white"/>
<path d="M377.36 660.94H357.36V680.94H377.36V660.94Z" fill="#394269"/>
<path d="M437.36 660.94H417.36V680.94H437.36V660.94Z" fill="#394269"/>
<path d="M497.36 660.94H477.36V680.94H497.36V660.94Z" fill="#394269"/>
<path d="M137.36 540.94H117.36V560.94H137.36V540.94Z" fill="#394269"/>
<path d="M197.36 540.94H177.36V560.94H197.36V540.94Z" fill="#394269"/>
<path d="M257.36 540.94H237.36V560.94H257.36V540.94Z" fill="#394269"/>
<path d="M300.37 557.94H314.37V543.94H300.37V557.94Z" fill="white"/>
<path d="M377.36 540.94H357.36V560.94H377.36V540.94Z" fill="#394269"/>
<path d="M437.36 540.94H417.36V560.94H437.36V540.94Z" fill="#394269"/>
<path d="M497.36 540.94H477.36V560.94H497.36V540.94Z" fill="#394269"/>
<path d="M137.36 600.94H117.36V620.94H137.36V600.94Z" fill="#394269"/>
<path d="M197.36 600.94H177.36V620.94H197.36V600.94Z" fill="#394269"/>
<path d="M257.36 600.94H237.36V620.94H257.36V600.94Z" fill="#394269"/>
<path d="M300.37 617.94H314.37V603.94H300.37V617.94Z" fill="white"/>
<path d="M377.36 600.94H357.36V620.94H377.36V600.94Z" fill="#394269"/>
<path d="M437.36 600.94H417.36V620.94H437.36V600.94Z" fill="#394269"/>
<path d="M497.36 600.94H477.36V620.94H497.36V600.94Z" fill="#394269"/>
<path d="M137.36 420.94H117.36V440.94H137.36V420.94Z" fill="#394269"/>
<path d="M197.36 420.94H177.36V440.94H197.36V420.94Z" fill="#394269"/>
<path d="M257.36 420.94H237.36V440.94H257.36V420.94Z" fill="#394269"/>
<path d="M300.37 437.94H314.37V423.94H300.37V437.94Z" fill="white"/>
<path d="M377.36 420.94H357.36V440.94H377.36V420.94Z" fill="#394269"/>
<path d="M437.36 420.94H417.36V440.94H437.36V420.94Z" fill="#394269"/>
<path d="M497.36 420.94H477.36V440.94H497.36V420.94Z" fill="#394269"/>
<path d="M137.36 480.94H117.36V500.94H137.36V480.94Z" fill="#394269"/>
<path d="M197.36 480.94H177.36V500.94H197.36V480.94Z" fill="#394269"/>
<path d="M257.36 480.94H237.36V500.94H257.36V480.94Z" fill="#394269"/>
<path d="M300.37 497.94H314.37V483.94H300.37V497.94Z" fill="white"/>
<path d="M377.36 480.94H357.36V500.94H377.36V480.94Z" fill="#394269"/>
<path d="M437.36 480.94H417.36V500.94H437.36V480.94Z" fill="#394269"/>
<path d="M497.36 480.94H477.36V500.94H497.36V480.94Z" fill="#394269"/>
<path d="M137.36 300.94H117.36V320.94H137.36V300.94Z" fill="#394269"/>
<path d="M180.37 317.94H194.37V303.94H180.37V317.94Z" fill="white"/>
<path d="M257.36 300.94H237.36V320.94H257.36V300.94Z" fill="#394269"/>
<path d="M300.37 317.94H314.37V303.94H300.37V317.94Z" fill="white"/>
<path d="M377.36 300.94H357.36V320.94H377.36V300.94Z" fill="#394269"/>
<path d="M420.37 317.94H434.37V303.94H420.37V317.94Z" fill="white"/>
<path d="M497.36 300.94H477.36V320.94H497.36V300.94Z" fill="#394269"/>
<path d="M137.36 360.94H117.36V380.94H137.36V360.94Z" fill="#394269"/>
<path d="M180.37 377.94H194.37V363.94H180.37V377.94Z" fill="white"/>
<path d="M240.37 377.94H254.37V363.94H240.37V377.94Z" fill="white"/>
<path d="M300.37 377.94H314.37V363.94H300.37V377.94Z" fill="white"/>
<path d="M360.37 377.94H374.37V363.94H360.37V377.94Z" fill="white"/>
<path d="M420.37 377.94H434.37V363.94H420.37V377.94Z" fill="white"/>
<path d="M497.36 360.94H477.36V380.94H497.36V360.94Z" fill="#394269"/>
<path d="M137.36 180.94H117.36V200.94H137.36V180.94Z" fill="#394269"/>
<path d="M197.36 180.94H177.36V200.94H197.36V180.94Z" fill="#394269"/>
<path d="M257.36 180.94H237.36V200.94H257.36V180.94Z" fill="#394269"/>
<path d="M317.36 180.94H297.36V200.94H317.36V180.94Z" fill="#394269"/>
<path d="M377.36 180.94H357.36V200.94H377.36V180.94Z" fill="#394269"/>
<path d="M437.36 180.94H417.36V200.94H437.36V180.94Z" fill="#394269"/>
<path d="M497.36 180.94H477.36V200.94H497.36V180.94Z" fill="#394269"/>
<path d="M137.36 240.94H117.36V260.94H137.36V240.94Z" fill="#394269"/>
<path d="M257.36 240.94H237.36V260.94H257.36V240.94Z" fill="#394269"/>
<path d="M377.36 240.94H357.36V260.94H377.36V240.94Z" fill="#394269"/>
<path d="M497.36 240.94H477.36V260.94H497.36V240.94Z" fill="#394269"/>
<path d="M137.36 120.94H117.36V140.94H137.36V120.94Z" fill="#394269"/>
<path d="M197.36 120.94H177.36V140.94H197.36V120.94Z" fill="#394269"/>
<path d="M257.36 120.94H237.36V140.94H257.36V120.94Z" fill="#394269"/>
<path d="M317.36 120.94H297.36V140.94H317.36V120.94Z" fill="#394269"/>
<path d="M377.36 120.94H357.36V140.94H377.36V120.94Z" fill="#394269"/>
<path d="M437.36 120.94H417.36V140.94H437.36V120.94Z" fill="#394269"/>
<path d="M497.36 120.94H477.36V140.94H497.36V120.94Z" fill="#394269"/>
<path d="M684 670.53C684 665.007 679.523 660.53 674 660.53C668.477 660.53 664 665.007 664 670.53C664 676.053 668.477 680.53 674 680.53C679.523 680.53 684 676.053 684 670.53Z" fill="#2970FF"/>
<path d="M744 670.53C744 665.007 739.523 660.53 734 660.53C728.477 660.53 724 665.007 724 670.53C724 676.053 728.477 680.53 734 680.53C739.523 680.53 744 676.053 744 670.53Z" fill="#2970FF"/>
<path d="M804 670.53C804 665.007 799.523 660.53 794 660.53C788.477 660.53 784 665.007 784 670.53C784 676.053 788.477 680.53 794 680.53C799.523 680.53 804 676.053 804 670.53Z" fill="#2970FF"/>
<path d="M854.004 680.433L863.904 670.533L854.004 660.634L844.105 670.533L854.004 680.433Z" fill="white"/>
<path d="M924 660.53H904V680.53H924V660.53Z" fill="#2DD8A3"/>
<path d="M984 660.53H964V680.53H984V660.53Z" fill="#2DD8A3"/>
<path d="M1044 660.53H1024V680.53H1044V660.53Z" fill="#2DD8A3"/>
<path d="M684 550.53C684 545.007 679.523 540.53 674 540.53C668.477 540.53 664 545.007 664 550.53C664 556.053 668.477 560.53 674 560.53C679.523 560.53 684 556.053 684 550.53Z" fill="#2970FF"/>
<path d="M744 550.53C744 545.007 739.523 540.53 734 540.53C728.477 540.53 724 545.007 724 550.53C724 556.053 728.477 560.53 734 560.53C739.523 560.53 744 556.053 744 550.53Z" fill="#2970FF"/>
<path d="M804 550.53C804 545.007 799.523 540.53 794 540.53C788.477 540.53 784 545.007 784 550.53C784 556.053 788.477 560.53 794 560.53C799.523 560.53 804 556.053 804 550.53Z" fill="#2970FF"/>
<path d="M854.007 560.435L863.907 550.535L854.007 540.636L844.108 550.535L854.007 560.435Z" fill="white"/>
<path d="M924 540.53H904V560.53H924V540.53Z" fill="#2DD8A3"/>
<path d="M984 540.53H964V560.53H984V540.53Z" fill="#2DD8A3"/>
<path d="M1044 540.53H1024V560.53H1044V540.53Z" fill="#2DD8A3"/>
<path d="M684 610.53C684 605.007 679.523 600.53 674 600.53C668.477 600.53 664 605.007 664 610.53C664 616.053 668.477 620.53 674 620.53C679.523 620.53 684 616.053 684 610.53Z" fill="#2970FF"/>
<path d="M744 610.53C744 605.007 739.523 600.53 734 600.53C728.477 600.53 724 605.007 724 610.53C724 616.053 728.477 620.53 734 620.53C739.523 620.53 744 616.053 744 610.53Z" fill="#2970FF"/>
<path d="M804 610.53C804 605.007 799.523 600.53 794 600.53C788.477 600.53 784 605.007 784 610.53C784 616.053 788.477 620.53 794 620.53C799.523 620.53 804 616.053 804 610.53Z" fill="#2970FF"/>
<path d="M854.001 620.439L863.9 610.539L854.001 600.64L844.101 610.539L854.001 620.439Z" fill="white"/>
<path d="M924 600.53H904V620.53H924V600.53Z" fill="#2DD8A3"/>
<path d="M984 600.53H964V620.53H984V600.53Z" fill="#2DD8A3"/>
<path d="M1044 600.53H1024V620.53H1044V600.53Z" fill="#2DD8A3"/>
<path d="M684 430.53C684 425.007 679.523 420.53 674 420.53C668.477 420.53 664 425.007 664 430.53C664 436.053 668.477 440.53 674 440.53C679.523 440.53 684 436.053 684 430.53Z" fill="#2970FF"/>
<path d="M744 430.53C744 425.007 739.523 420.53 734 420.53C728.477 420.53 724 425.007 724 430.53C724 436.053 728.477 440.53 734 440.53C739.523 440.53 744 436.053 744 430.53Z" fill="#2970FF"/>
<path d="M804 430.53C804 425.007 799.523 420.53 794 420.53C788.477 420.53 784 425.007 784 430.53C784 436.053 788.477 440.53 794 440.53C799.523 440.53 804 436.053 804 430.53Z" fill="#2970FF"/>
<path d="M864 430.53C864 425.007 859.523 420.53 854 420.53C848.477 420.53 844 425.007 844 430.53C844 436.053 848.477 440.53 854 440.53C859.523 440.53 864 436.053 864 430.53Z" fill="#2970FF"/>
<path d="M914.004 440.435L923.903 430.535L914.004 420.636L904.104 430.535L914.004 440.435Z" fill="white"/>
<path d="M984 420.53H964V440.53H984V420.53Z" fill="#2DD8A3"/>
<path d="M1044 420.53H1024V440.53H1044V420.53Z" fill="#2DD8A3"/>
<path d="M684 490.53C684 485.007 679.523 480.53 674 480.53C668.477 480.53 664 485.007 664 490.53C664 496.053 668.477 500.53 674 500.53C679.523 500.53 684 496.053 684 490.53Z" fill="#2970FF"/>
<path d="M744 490.53C744 485.007 739.523 480.53 734 480.53C728.477 480.53 724 485.007 724 490.53C724 496.053 728.477 500.53 734 500.53C739.523 500.53 744 496.053 744 490.53Z" fill="#2970FF"/>
<path d="M804 490.53C804 485.007 799.523 480.53 794 480.53C788.477 480.53 784 485.007 784 490.53C784 496.053 788.477 500.53 794 500.53C799.523 500.53 804 496.053 804 490.53Z" fill="#2970FF"/>
<path d="M864 490.53C864 485.007 859.523 480.53 854 480.53C848.477 480.53 844 485.007 844 490.53C844 496.053 848.477 500.53 854 500.53C859.523 500.53 864 496.053 864 490.53Z" fill="#2970FF"/>
<path d="M914.007 500.438L923.907 490.538L914.007 480.639L904.108 490.538L914.007 500.438Z" fill="white"/>
<path d="M984 480.53H964V500.53H984V480.53Z" fill="#2DD8A3"/>
<path d="M1044 480.53H1024V500.53H1044V480.53Z" fill="#2DD8A3"/>
<path d="M684 310.53C684 305.007 679.523 300.53 674 300.53C668.477 300.53 664 305.007 664 310.53C664 316.053 668.477 320.53 674 320.53C679.523 320.53 684 316.053 684 310.53Z" fill="#2970FF"/>
<path d="M744 310.53C744 305.007 739.523 300.53 734 300.53C728.477 300.53 724 305.007 724 310.53C724 316.053 728.477 320.53 734 320.53C739.523 320.53 744 316.053 744 310.53Z" fill="#2970FF"/>
<path d="M793.999 320.435L803.899 310.535L793.999 300.636L784.1 310.535L793.999 320.435Z" fill="white"/>
<path d="M854.003 320.441L863.902 310.541L854.003 300.642L844.103 310.541L854.003 320.441Z" fill="white"/>
<path d="M924 300.53H904V320.53H924V300.53Z" fill="#2DD8A3"/>
<path d="M984 300.53H964V320.53H984V300.53Z" fill="#2DD8A3"/>
<path d="M1044 300.53H1024V320.53H1044V300.53Z" fill="#2DD8A3"/>
<path d="M684 370.53C684 365.007 679.523 360.53 674 360.53C668.477 360.53 664 365.007 664 370.53C664 376.053 668.477 380.53 674 380.53C679.523 380.53 684 376.053 684 370.53Z" fill="#2970FF"/>
<path d="M744 370.53C744 365.007 739.523 360.53 734 360.53C728.477 360.53 724 365.007 724 370.53C724 376.053 728.477 380.53 734 380.53C739.523 380.53 744 376.053 744 370.53Z" fill="#2970FF"/>
<path d="M804 370.53C804 365.007 799.523 360.53 794 360.53C788.477 360.53 784 365.007 784 370.53C784 376.053 788.477 380.53 794 380.53C799.523 380.53 804 376.053 804 370.53Z" fill="#2970FF"/>
<path d="M864 370.53C864 365.007 859.523 360.53 854 360.53C848.477 360.53 844 365.007 844 370.53C844 376.053 848.477 380.53 854 380.53C859.523 380.53 864 376.053 864 370.53Z" fill="#2970FF"/>
<path d="M914 380.441L923.899 370.541L914 360.642L904.1 370.541L914 380.441Z" fill="white"/>
<path d="M984 360.53H964V380.53H984V360.53Z" fill="#2DD8A3"/>
<path d="M1044 360.53H1024V380.53H1044V360.53Z" fill="#2DD8A3"/>
<path d="M684 180.53H664V200.53H684V180.53Z" fill="#394269"/>
<path d="M744 180.53H724V200.53H744V180.53Z" fill="#394269"/>
<path d="M804 180.53H784V200.53H804V180.53Z" fill="#394269"/>
<path d="M864 180.53H844V200.53H864V180.53Z" fill="#394269"/>
<path d="M924 180.53H904V200.53H924V180.53Z" fill="#394269"/>
<path d="M984 180.53H964V200.53H984V180.53Z" fill="#394269"/>
<path d="M1044 180.53H1024V200.53H1044V180.53Z" fill="#394269"/>
<path d="M684 250.53C684 245.007 679.523 240.53 674 240.53C668.477 240.53 664 245.007 664 250.53C664 256.053 668.477 260.53 674 260.53C679.523 260.53 684 256.053 684 250.53Z" fill="#2970FF"/>
<path d="M744 250.53C744 245.007 739.523 240.53 734 240.53C728.477 240.53 724 245.007 724 250.53C724 256.053 728.477 260.53 734 260.53C739.523 260.53 744 256.053 744 250.53Z" fill="#2970FF"/>
<path d="M801 257.53V243.53H787V257.53H801Z" fill="white"/>
<path d="M864 240.53H844V260.53H864V240.53Z" fill="#2DD8A3"/>
<path d="M924 240.53H904V260.53H924V240.53Z" fill="#2DD8A3"/>
<path d="M984 240.53H964V260.53H984V240.53Z" fill="#2DD8A3"/>
<path d="M1044 240.53H1024V260.53H1044V240.53Z" fill="#2DD8A3"/>
<path d="M684 120.53H664V140.53H684V120.53Z" fill="#394269"/>
<path d="M744 120.53H724V140.53H744V120.53Z" fill="#394269"/>
<path d="M804 120.53H784V140.53H804V120.53Z" fill="#394269"/>
<path d="M864 120.53H844V140.53H864V120.53Z" fill="#394269"/>
<path d="M924 120.53H904V140.53H924V120.53Z" fill="#394269"/>
<path d="M984 120.53H964V140.53H984V120.53Z" fill="#394269"/>
<path d="M1044 120.53H1024V140.53H1044V120.53Z" fill="#394269"/>
<path d="M856 670.53H852V549.71L912 489.71V371.36L853.17 312.53H792V190.53H796V308.53H854.83L916 369.71V491.36L856 551.36V670.53Z" fill="white"/>
<path d="M309.36 670.94H305.36V372.94H185.36V250.83H189.36V368.94H309.36V670.94Z" fill="white"/>
<path d="M429.36 372.94H305.36V250.83H309.36V368.94H425.36L425.28 250.84L429.28 250.83L429.36 372.94Z" fill="white"/>
<path d="M189.36 130.83H185.36V133.83H189.36V130.83Z" fill="#394269"/>
<path d="M189.36 181.83H185.36V175.83H189.36V181.83ZM189.36 169.83H185.36V163.83H189.36V169.83ZM189.36 157.83H185.36V151.83H189.36V157.83ZM189.36 145.83H185.36V139.83H189.36V145.83Z" fill="#394269"/>
<path d="M189.36 187.83H185.36V190.83H189.36V187.83Z" fill="#394269"/>
<path d="M309.36 130.83H305.36V133.83H309.36V130.83Z" fill="#394269"/>
<path d="M309.36 181.83H305.36V175.83H309.36V181.83ZM309.36 169.83H305.36V163.83H309.36V169.83ZM309.36 157.83H305.36V151.83H309.36V157.83ZM309.36 145.83H305.36V139.83H309.36V145.83Z" fill="#394269"/>
<path d="M309.36 187.83H305.36V190.83H309.36V187.83Z" fill="#394269"/>
<path d="M429.36 130.83H425.36V133.83H429.36V130.83Z" fill="#394269"/>
<path d="M429.36 181.83H425.36V175.83H429.36V181.83ZM429.36 169.83H425.36V163.83H429.36V169.83ZM429.36 157.83H425.36V151.83H429.36V157.83ZM429.36 145.83H425.36V139.83H429.36V145.83Z" fill="#394269"/>
<path d="M429.36 187.83H425.36V190.83H429.36V187.83Z" fill="#394269"/>
<path d="M213.39 249.68C209.797 253.326 205.518 256.225 200.799 258.211C196.08 260.196 191.015 261.227 185.896 261.246C180.777 261.265 175.704 260.271 170.971 258.32C166.238 256.37 161.937 253.502 158.317 249.882C154.697 246.262 151.83 241.962 149.879 237.229C147.929 232.495 146.935 227.423 146.953 222.304C146.972 217.184 148.004 212.119 149.989 207.401C151.974 202.682 154.874 198.403 158.52 194.81L213.39 249.68Z" fill="#FFC84E"/>
<path d="M218.08 195C211.464 187.12 201.989 182.19 191.739 181.294C181.49 180.398 171.303 183.608 163.42 190.22L213.3 249.67C221.18 243.052 226.11 233.575 227.006 223.324C227.903 213.073 224.692 202.885 218.08 195Z" fill="#FFC84E"/>
<path d="M161.74 201.62L169.38 209.27C166.819 212.828 165.45 217.106 165.47 221.49C165.466 225.366 166.53 229.168 168.544 232.48C170.559 235.792 173.447 238.484 176.892 240.262C180.336 242.04 184.204 242.835 188.07 242.559C191.937 242.284 195.653 240.948 198.81 238.7L206.57 246.46L211.57 241.46L203.8 233.68C206.329 230.11 207.691 225.845 207.7 221.47H200.65C200.656 223.313 200.295 225.139 199.589 226.842C198.884 228.544 197.848 230.09 196.54 231.39C194.904 232.993 192.899 234.17 190.702 234.817C188.505 235.465 186.183 235.564 183.938 235.105C181.694 234.646 179.597 233.644 177.83 232.186C176.064 230.727 174.682 228.858 173.806 226.741C172.931 224.625 172.588 222.326 172.808 220.046C173.027 217.766 173.803 215.574 175.067 213.664C176.331 211.754 178.044 210.183 180.057 209.089C182.07 207.995 184.32 207.411 186.61 207.39V200.58V200.35C182.48 200.338 178.439 201.553 175 203.84L174.33 204.3L166.68 196.64L161.74 201.62Z" fill="white"/>
<path d="M318 258.13C313.233 260.168 308.106 261.231 302.922 261.254C297.737 261.278 292.601 260.262 287.815 258.268C283.03 256.273 278.693 253.339 275.061 249.64C271.428 245.941 268.574 241.551 266.666 236.73C264.759 231.909 263.837 226.755 263.955 221.572C264.073 216.389 265.228 211.282 267.353 206.553C269.478 201.824 272.529 197.569 276.326 194.039C280.123 190.508 284.589 187.775 289.46 186L318 258.13Z" fill="#FFC84E"/>
<path d="M347.76 211.2C345.338 201.199 339.043 192.569 330.259 187.209C321.475 181.849 310.921 180.199 300.92 182.62L319.18 258C324.133 256.802 328.801 254.64 332.918 251.638C337.035 248.635 340.52 244.851 343.174 240.501C345.828 236.151 347.599 231.321 348.386 226.287C349.173 221.252 348.96 216.112 347.76 211.16" fill="#FFC84E"/>
<path d="M284.44 198.82L291.09 207.339C288.115 210.563 286.236 214.644 285.72 218.999C285.242 222.847 285.834 226.752 287.431 230.285C289.027 233.818 291.567 236.842 294.771 239.026C297.974 241.21 301.718 242.468 305.59 242.663C309.462 242.857 313.313 241.981 316.72 240.13L323.48 248.779L329.03 244.449L322.27 235.779C325.213 232.544 327.085 228.479 327.63 224.139H327.4L320.64 223.299C320.425 225.129 319.848 226.898 318.941 228.502C318.034 230.105 316.817 231.512 315.36 232.639C313.543 234.039 311.409 234.971 309.148 235.352C306.886 235.734 304.565 235.554 302.389 234.829C300.213 234.103 298.249 232.854 296.669 231.191C295.089 229.528 293.941 227.502 293.328 225.292C292.714 223.082 292.653 220.755 293.15 218.516C293.647 216.276 294.686 214.193 296.177 212.45C297.667 210.707 299.563 209.356 301.698 208.517C303.833 207.678 306.141 207.377 308.42 207.639L309.23 200.88V200.649C305.159 200.133 301.027 200.828 297.35 202.649L296.64 203.02L290 194.479L284.44 198.82Z" fill="white"/>
<path d="M438.12 258.51C428.318 261.643 417.672 260.755 408.525 256.039C399.378 251.323 392.479 243.167 389.345 233.365C386.211 223.562 387.1 212.917 391.816 203.77C396.531 194.623 404.688 187.723 414.49 184.59L438.12 258.51Z" fill="#FFC84E"/>
<path d="M468.1 207.23C466.36 202.439 463.694 198.038 460.253 194.278C456.812 190.518 452.664 187.472 448.047 185.315C443.429 183.158 438.431 181.932 433.339 181.706C428.247 181.48 423.161 182.26 418.37 184L444.91 257C454.578 253.479 462.452 246.262 466.801 236.936C471.149 227.611 471.617 216.94 468.1 207.27" fill="#FFC84E"/>
<path d="M410 193.481L414.56 203.281C410.938 205.751 408.19 209.304 406.71 213.431C405.38 217.073 405.079 221.012 405.841 224.814C406.603 228.616 408.398 232.135 411.028 234.983C413.659 237.832 417.024 239.901 420.754 240.963C424.483 242.024 428.433 242.037 432.17 241.001L436.81 250.951L443.2 247.951L438.55 237.951C442.146 235.46 444.885 231.918 446.39 227.811L446.18 227.731L439.78 225.381C439.155 227.115 438.192 228.707 436.948 230.067C435.704 231.426 434.202 232.525 432.53 233.301C430.444 234.256 428.156 234.684 425.866 234.547C423.577 234.41 421.356 233.713 419.399 232.517C417.442 231.321 415.808 229.662 414.643 227.686C413.477 225.71 412.815 223.479 412.714 221.187C412.613 218.896 413.077 216.614 414.065 214.544C415.052 212.474 416.534 210.678 418.378 209.314C420.223 207.951 422.374 207.061 424.643 206.724C426.912 206.387 429.229 206.612 431.39 207.381L433.7 201.001L433.78 200.781C429.934 199.38 425.762 199.136 421.78 200.081L421.01 200.281L416.43 190.471L410 193.481Z" fill="white"/>
<path d="M793.78 259.83C815.872 259.83 833.78 241.921 833.78 219.83C833.78 197.739 815.872 179.83 793.78 179.83C771.689 179.83 753.78 197.739 753.78 219.83C753.78 241.921 771.689 259.83 793.78 259.83Z" fill="#2970FF"/>
<path d="M807.63 229.78L817.53 239.73H806.84L791 223.81H801.7C802.73 223.813 803.75 223.609 804.7 223.21C805.66 222.809 806.53 222.221 807.26 221.48C808.744 219.982 809.576 217.958 809.576 215.85C809.576 213.741 808.744 211.718 807.26 210.22C806.53 209.482 805.659 208.897 804.7 208.5C803.749 208.102 802.73 207.895 801.7 207.89H797.7L789.79 199.89H801.66C805.872 199.905 809.906 201.588 812.88 204.57C814.346 206.052 815.511 207.804 816.31 209.73C817.102 211.658 817.507 213.724 817.5 215.81C817.53 222.31 814.36 227.51 807.63 229.78Z" fill="white"/>
<path d="M779.92 209.88L770.02 199.93H780.71L796.55 215.85H785.86C784.83 215.858 783.812 216.065 782.86 216.46C781.898 216.857 781.028 217.446 780.3 218.19C778.819 219.687 777.989 221.709 777.989 223.815C777.989 225.921 778.819 227.942 780.3 229.44C781.031 230.182 781.903 230.771 782.864 231.171C783.826 231.571 784.859 231.775 785.9 231.77H789.9L797.82 239.77H785.86C783.77 239.767 781.7 239.352 779.771 238.548C777.841 237.743 776.089 236.566 774.616 235.083C773.142 233.6 771.976 231.841 771.184 229.907C770.392 227.972 769.99 225.9 770 223.81C770 217.36 773.19 212.15 779.92 209.88Z" fill="white"/>
</svg>
