<svg width="1160" height="800" viewBox="0 0 1160 800" fill="none" xmlns="http://www.w3.org/2000/svg">
<path d="M1160 0H0V800H1160V0Z" fill="white"/>
<path d="M1102 45.8799H606C598.268 45.8799 592 52.1479 592 59.8799V741.19C592 748.922 598.268 755.19 606 755.19H1102C1109.73 755.19 1116 748.922 1116 741.19V59.8799C1116 52.1479 1109.73 45.8799 1102 45.8799Z" fill="#091440"/>
<path d="M555 46.1904H59.73C51.998 46.1904 45.73 52.4584 45.73 60.1904V741.69C45.73 749.422 51.998 755.69 59.73 755.69H555C562.732 755.69 569 749.422 569 741.69V60.1904C569 52.4584 562.732 46.1904 555 46.1904Z" fill="#2DD8A3"/>
<path d="M146.46 431.68C141.686 436.454 139.004 442.929 139.004 449.68C139.004 456.431 141.686 462.906 146.46 467.68C151.234 472.454 157.709 475.136 164.46 475.136C171.211 475.136 177.686 472.454 182.46 467.68L217.12 433L181.12 397L146.46 431.68Z" fill="#091440"/>
<path d="M283.9 569.12L318.57 534.45L282.57 498.45L247.9 533.12C243.126 537.894 240.444 544.369 240.444 551.12C240.444 557.871 243.126 564.346 247.9 569.12C252.674 573.894 259.149 576.576 265.9 576.576C272.651 576.576 279.126 573.894 283.9 569.12Z" fill="#091440"/>
<path d="M233.18 518.4L267.85 483.72L231.85 447.72L197.18 482.39C192.406 487.164 189.724 493.638 189.724 500.39C189.724 507.141 192.406 513.616 197.18 518.39C201.954 523.164 208.429 525.846 215.18 525.846C221.931 525.846 228.406 523.164 233.18 518.39V518.4Z" fill="#091440"/>
<path d="M516.43 336.59L403.25 223.4L372.24 254.41L331.75 262.43L299.78 294.45L428.36 424.67L516.43 336.59Z" fill="#091440"/>
<path d="M283.31 246.33L242.89 254.41L210.55 222.07L97.3601 335.26L307.56 545.46L331.56 569.46C336.334 574.234 342.809 576.916 349.56 576.916C356.311 576.916 362.786 574.234 367.56 569.46C372.334 564.686 375.016 558.212 375.016 551.46C375.016 544.709 372.334 538.234 367.56 533.46L343.56 509.46L358.3 494.72L382.3 518.72C384.664 521.084 387.47 522.959 390.559 524.238C393.647 525.518 396.957 526.176 400.3 526.176C403.643 526.176 406.953 525.518 410.042 524.238C413.13 522.959 415.936 521.084 418.3 518.72C420.664 516.356 422.539 513.55 423.818 510.462C425.098 507.373 425.756 504.063 425.756 500.72C425.756 497.377 425.098 494.067 423.818 490.979C422.539 487.89 420.664 485.084 418.3 482.72L394.3 458.72L409 444L433 468C437.774 472.774 444.249 475.456 451 475.456C457.751 475.456 464.226 472.774 469 468C473.774 463.226 476.456 456.752 476.456 450C476.456 443.249 473.774 436.774 469 432L283.31 246.33Z" fill="white"/>
<path d="M226.245 237.764L113.059 350.95L129.704 367.595L242.89 254.409L226.245 237.764Z" fill="#091440"/>
<path d="M365.13 328.95L445 408.02L365.13 328.95Z" fill="#091440"/>
<path d="M246.36 348C241.586 352.774 238.904 359.249 238.904 366C238.904 372.752 241.586 379.227 246.36 384C251.134 388.774 257.609 391.456 264.36 391.456C271.111 391.456 277.586 388.774 282.36 384L335.48 330.88L365.93 329L381.93 312.16L331.74 262.48L246.36 348Z" fill="#091440"/>
<path d="M372.236 254.417L485.422 367.604L502.068 350.958L388.881 237.772L372.236 254.417Z" fill="white"/>
<path d="M854 537.46L930.35 657.11H777.65L854 537.46Z" fill="#C4CBD2"/>
<path d="M744.09 504.17C770.633 504.17 796.089 493.626 814.857 474.857C833.626 456.088 844.17 430.633 844.17 404.09H644C644.003 430.634 654.549 456.089 673.319 474.858C692.089 493.626 717.546 504.17 744.09 504.17Z" fill="#FFC84E"/>
<path d="M678.73 494.46L1037.26 557.68L1035.18 569.5L676.65 506.28C675.874 506.144 675.132 505.856 674.467 505.432C673.802 505.009 673.227 504.459 672.775 503.814C672.323 503.168 672.002 502.44 671.832 501.671C671.661 500.902 671.643 500.106 671.78 499.33C671.916 498.554 672.204 497.812 672.628 497.147C673.051 496.483 673.601 495.908 674.246 495.455C674.891 495.003 675.62 494.683 676.389 494.512C677.158 494.341 677.954 494.323 678.73 494.46Z" fill="white"/>
<path d="M963.91 543.49C990.454 543.49 1015.91 532.946 1034.68 514.178C1053.45 495.41 1064 469.954 1064 443.41H863.83C863.83 469.953 874.374 495.409 893.143 514.177C911.911 532.946 937.367 543.49 963.91 543.49Z" fill="#FFC84E"/>
<path d="M748.82 257.56L775.49 270.89V257.56L762.16 250.89L775.49 244.22V230.89L748.82 244.22V257.56Z" fill="#C4CBD2"/>
<path d="M935.49 324.22L948.82 330.88L935.49 337.55V350.88L962.16 337.55V324.22L935.49 310.88V324.22Z" fill="#C4CBD2"/>
<path d="M922.15 324.22H788.82V337.55H922.15V324.22Z" fill="white"/>
<path d="M844.29 297.56H788.82V310.89H844.29V297.56Z" fill="white"/>
<path d="M922.16 297.56H855.49V310.89H922.16V297.56Z" fill="white"/>
<path d="M922.15 270.89H788.82V284.22H922.15V270.89Z" fill="white"/>
<path d="M748.82 204.22L775.49 217.55V204.22L762.16 197.55L775.49 190.88V177.55L748.82 190.88V204.22Z" fill="#C4CBD2"/>
<path d="M935.49 217.56L948.82 224.22L935.49 230.89V244.22L962.16 230.89V217.56L935.49 204.22V217.56Z" fill="#C4CBD2"/>
<path d="M922.15 190.89H788.82V204.22H922.15V190.89Z" fill="white"/>
<path d="M922.15 217.56H788.82V230.89H922.15V217.56Z" fill="white"/>
<path d="M855.49 244.22H788.82V257.55H855.49V244.22Z" fill="white"/>
<path d="M922.16 244.22H866.69V257.55H922.16V244.22Z" fill="white"/>
<path d="M1049.15 159.1C1058.38 159.102 1067.41 156.366 1075.08 151.239C1082.76 146.112 1088.74 138.824 1092.27 130.297C1095.81 121.769 1096.73 112.385 1094.93 103.331C1093.13 94.2773 1088.69 85.9606 1082.16 79.4326C1075.64 72.9047 1067.32 68.4589 1058.27 66.6573C1049.22 64.8557 1039.83 65.7793 1031.3 69.3114C1022.77 72.8434 1015.48 78.8252 1010.36 86.5003C1005.23 94.1753 1002.49 103.199 1002.49 112.43C1002.49 124.806 1007.41 136.675 1016.16 145.427C1024.91 154.179 1036.77 159.097 1049.15 159.1Z" fill="white"/>
<path d="M1069.8 94.6094L1045 119.389L1028.48 102.869L1020.22 111.129L1045 135.909L1078 102.909L1069.8 94.6094Z" fill="#091440"/>
</svg>
