<svg width="1160" height="800" viewBox="0 0 1160 800" fill="none" xmlns="http://www.w3.org/2000/svg">
<path d="M1160 0H0V800H1160V0Z" fill="white"/>
<path d="M751.6 45.4004H59.6001C51.9001 45.4004 45.6001 51.7004 45.6001 59.4004V740.6C45.6001 748.3 51.9001 754.6 59.6001 754.6H751.6C759.3 754.6 765.6 748.3 765.6 740.6V59.4004C765.6 51.7004 759.3 45.4004 751.6 45.4004Z" fill="#D6EDFA"/>
<path d="M328.6 242.8H68.5V386.8H328.6L347 318L328.6 242.8Z" fill="#70CBFF"/>
<path d="M734.6 412.8H337.6V556.8H734.6L753 484.8L734.6 412.8Z" fill="#70CBFF"/>
<path d="M798.7 410.6H1105.5C1110.8 410.6 1115 414.9 1115 420.1V746.1C1115 751.4 1110.7 755.6 1105.5 755.6H794.5C789.2 755.6 785 751.3 785 746.1V424.3C785 416.7 791.1 410.6 798.7 410.6Z" fill="#70CBFF"/>
<path d="M798.7 45.4004H1105.5C1110.8 45.4004 1115 49.7004 1115 54.9004V380.9C1115 386.2 1110.7 390.4 1105.5 390.4H794.5C789.2 390.4 785 386.1 785 380.9V59.1004C785 51.5004 791.1 45.4004 798.7 45.4004Z" fill="#2970FF"/>
<path d="M788.7 383.2C790.6 383.2 790.6 380.2 788.7 380.2C786.7 380.2 786.7 383.2 788.7 383.2Z" fill="black"/>
<path d="M132.4 299.6H82.3V311.5H132.4V299.6Z" fill="white"/>
<path d="M189 299.6H139.1V311.5H189V299.6Z" fill="white"/>
<path d="M132.4 338H82.3V351.5H132.4V338Z" fill="white"/>
<path d="M189 338H139.1V351.5H189V338Z" fill="white"/>
<path d="M189 261.399H82.3V274.699H189V261.399Z" fill="white"/>
<path d="M132.4 306.2H82.3V329.7H132.4V306.2Z" fill="#2970FF"/>
<path d="M189 306.2H139.1V329.7H189V306.2Z" fill="#2970FF"/>
<path d="M132.4 344.6H82.3V368.1H132.4V344.6Z" fill="#2970FF"/>
<path d="M189 344.6H139.1V368.1H189V344.6Z" fill="#2970FF"/>
<path d="M189 268.1H82.3V291.4H189V268.1Z" fill="#2970FF"/>
<path d="M132.4 469.6H82.3V481.5H132.4V469.6Z" fill="#091440"/>
<path d="M189 469.6H139.1V481.5H189V469.6Z" fill="#091440"/>
<path d="M132.4 508H82.3V521.5H132.4V508Z" fill="#091440"/>
<path d="M189 508H139.1V521.5H189V508Z" fill="#091440"/>
<path d="M189 431.399H82.3V444.699H189V431.399Z" fill="#091440"/>
<path d="M132.4 476.2H82.3V499.7H132.4V476.2Z" fill="#2970FF"/>
<path d="M189 476.2H139.1V499.7H189V476.2Z" fill="#2970FF"/>
<path d="M132.4 514.6H82.3V538.1H132.4V514.6Z" fill="#2970FF"/>
<path d="M189 514.6H139.1V538.1H189V514.6Z" fill="#2970FF"/>
<path d="M189 438.1H82.3V461.4H189V438.1Z" fill="#2970FF"/>
<path d="M267.4 299.6H217.3V311.5H267.4V299.6Z" fill="white"/>
<path d="M324 299.6H274.1V311.5H324V299.6Z" fill="white"/>
<path d="M267.4 338H217.3V351.5H267.4V338Z" fill="white"/>
<path d="M324 338H274.1V351.5H324V338Z" fill="white"/>
<path d="M324 261.399H217.3V274.699H324V261.399Z" fill="white"/>
<path d="M267.4 306.2H217.3V329.7H267.4V306.2Z" fill="#2970FF"/>
<path d="M324 306.2H274.1V329.7H324V306.2Z" fill="#2970FF"/>
<path d="M267.4 344.6H217.3V368.1H267.4V344.6Z" fill="#2970FF"/>
<path d="M324 344.6H274.1V368.1H324V344.6Z" fill="#2970FF"/>
<path d="M324 268.1H217.3V291.4H324V268.1Z" fill="#2970FF"/>
<path d="M267.4 469.6H217.3V481.5H267.4V469.6Z" fill="#091440"/>
<path d="M324 469.6H274.1V481.5H324V469.6Z" fill="#091440"/>
<path d="M267.4 508H217.3V521.5H267.4V508Z" fill="#091440"/>
<path d="M324 508H274.1V521.5H324V508Z" fill="#091440"/>
<path d="M324 431.399H217.3V444.699H324V431.399Z" fill="#091440"/>
<path d="M267.4 476.2H217.3V499.7H267.4V476.2Z" fill="#2970FF"/>
<path d="M324 476.2H274.1V499.7H324V476.2Z" fill="#2970FF"/>
<path d="M267.4 514.6H217.3V538.1H267.4V514.6Z" fill="#2970FF"/>
<path d="M324 514.6H274.1V538.1H324V514.6Z" fill="#2970FF"/>
<path d="M324 438.1H217.3V461.4H324V438.1Z" fill="#2970FF"/>
<path d="M402.4 299.6H352.3V311.5H402.4V299.6Z" fill="#091440"/>
<path d="M459 299.6H409.1V311.5H459V299.6Z" fill="#091440"/>
<path d="M402.4 338H352.3V351.5H402.4V338Z" fill="#091440"/>
<path d="M459 338H409.1V351.5H459V338Z" fill="#091440"/>
<path d="M459 261.399H352.3V274.699H459V261.399Z" fill="#091440"/>
<path d="M402.4 306.2H352.3V329.7H402.4V306.2Z" fill="#2970FF"/>
<path d="M459 306.2H409.1V329.7H459V306.2Z" fill="#2970FF"/>
<path d="M402.4 344.6H352.3V368.1H402.4V344.6Z" fill="#2970FF"/>
<path d="M459 344.6H409.1V368.1H459V344.6Z" fill="#2970FF"/>
<path d="M459 268.1H352.3V291.4H459V268.1Z" fill="#2970FF"/>
<path d="M402.4 469.6H352.3V481.5H402.4V469.6Z" fill="white"/>
<path d="M459 469.6H409.1V481.5H459V469.6Z" fill="white"/>
<path d="M402.4 508H352.3V521.5H402.4V508Z" fill="white"/>
<path d="M459 508H409.1V521.5H459V508Z" fill="white"/>
<path d="M459 431.399H352.3V444.699H459V431.399Z" fill="white"/>
<path d="M402.4 476.2H352.3V499.7H402.4V476.2Z" fill="#2970FF"/>
<path d="M459 476.2H409.1V499.7H459V476.2Z" fill="#2970FF"/>
<path d="M402.4 514.6H352.3V538.1H402.4V514.6Z" fill="#2970FF"/>
<path d="M459 514.6H409.1V538.1H459V514.6Z" fill="#2970FF"/>
<path d="M459 438.1H352.3V461.4H459V438.1Z" fill="#2970FF"/>
<path d="M672.4 469.6H622.3V481.5H672.4V469.6Z" fill="white"/>
<path d="M729 469.6H679.1V481.5H729V469.6Z" fill="white"/>
<path d="M672.4 508H622.3V521.5H672.4V508Z" fill="white"/>
<path d="M729 508H679.1V521.5H729V508Z" fill="white"/>
<path d="M729 431.399H622.3V444.699H729V431.399Z" fill="white"/>
<path d="M672.4 476.2H622.3V499.7H672.4V476.2Z" fill="#2970FF"/>
<path d="M729 476.2H679.1V499.7H729V476.2Z" fill="#2970FF"/>
<path d="M672.4 514.6H622.3V538.1H672.4V514.6Z" fill="#2970FF"/>
<path d="M729 514.6H679.1V538.1H729V514.6Z" fill="#2970FF"/>
<path d="M729 438.1H622.3V461.4H729V438.1Z" fill="#2970FF"/>
<path d="M537.4 299.6H487.3V311.5H537.4V299.6Z" fill="#091440"/>
<path d="M594 299.6H544.1V311.5H594V299.6Z" fill="#091440"/>
<path d="M537.4 338H487.3V351.5H537.4V338Z" fill="#091440"/>
<path d="M594 338H544.1V351.5H594V338Z" fill="#091440"/>
<path d="M594 261.399H487.3V274.699H594V261.399Z" fill="#091440"/>
<path d="M537.4 306.2H487.3V329.7H537.4V306.2Z" fill="#2970FF"/>
<path d="M594 306.2H544.1V329.7H594V306.2Z" fill="#2970FF"/>
<path d="M537.4 344.6H487.3V368.1H537.4V344.6Z" fill="#2970FF"/>
<path d="M594 344.6H544.1V368.1H594V344.6Z" fill="#2970FF"/>
<path d="M594 268.1H487.3V291.4H594V268.1Z" fill="#2970FF"/>
<path d="M537.4 469.6H487.3V481.5H537.4V469.6Z" fill="white"/>
<path d="M594 469.6H544.1V481.5H594V469.6Z" fill="white"/>
<path d="M537.4 508H487.3V521.5H537.4V508Z" fill="white"/>
<path d="M594 508H544.1V521.5H594V508Z" fill="white"/>
<path d="M594 431.399H487.3V444.699H594V431.399Z" fill="white"/>
<path d="M537.4 476.2H487.3V499.7H537.4V476.2Z" fill="#2970FF"/>
<path d="M594 476.2H544.1V499.7H594V476.2Z" fill="#2970FF"/>
<path d="M537.4 514.6H487.3V538.1H537.4V514.6Z" fill="#2970FF"/>
<path d="M594 514.6H544.1V538.1H594V514.6Z" fill="#2970FF"/>
<path d="M594 438.1H487.3V461.4H594V438.1Z" fill="#2970FF"/>
<path d="M672.4 299.6H622.3V311.5H672.4V299.6Z" fill="#091440"/>
<path d="M729 299.6H679.1V311.5H729V299.6Z" fill="#091440"/>
<path d="M672.4 338H622.3V351.5H672.4V338Z" fill="#091440"/>
<path d="M729 338H679.1V351.5H729V338Z" fill="#091440"/>
<path d="M729 261.399H622.3V274.699H729V261.399Z" fill="#091440"/>
<path d="M672.4 306.2H622.3V329.7H672.4V306.2Z" fill="#2970FF"/>
<path d="M729 306.2H679.1V329.7H729V306.2Z" fill="#2970FF"/>
<path d="M672.4 344.6H622.3V368.1H672.4V344.6Z" fill="#2970FF"/>
<path d="M729 344.6H679.1V368.1H729V344.6Z" fill="#2970FF"/>
<path d="M729 268.1H622.3V291.4H729V268.1Z" fill="#2970FF"/>
<path d="M406 592C411.523 592 416 587.523 416 582C416 576.477 411.523 572 406 572C400.477 572 396 576.477 396 582C396 587.523 400.477 592 406 592Z" fill="#2970FF"/>
<path d="M276 228C281.523 228 286 223.523 286 218C286 212.477 281.523 208 276 208C270.477 208 266 212.477 266 218C266 223.523 270.477 228 276 228Z" fill="#2970FF"/>
<path d="M1056.6 676.399H843.3V689.699H1056.6V676.399Z" fill="#2970FF"/>
<path d="M1030.5 649.8H870V663.1H1030.5V649.8Z" fill="#2970FF"/>
<path d="M889.7 556.399H870V616.399H889.7V556.399Z" fill="#2970FF"/>
<path d="M1030 556.399H1009.7V609.299H1030V556.399Z" fill="#2970FF"/>
<path d="M994.8 556.399H975.1V576.399H994.8V556.399Z" fill="#2970FF"/>
<path d="M959.6 556.399H939.9V616.399H959.6V556.399Z" fill="#2970FF"/>
<path d="M925 556.399H904.7V583.099H925V556.399Z" fill="#2970FF"/>
<path d="M889.7 609.3H870V636.4H889.7V609.3Z" fill="white"/>
<path d="M1030 603.1H1009.7V636.4H1030V603.1Z" fill="white"/>
<path d="M994.8 569.8H975.1V636.5H994.8V569.8Z" fill="white"/>
<path d="M959.6 610H939.9V636.4H959.6V610Z" fill="white"/>
<path d="M925 575.399H904.7V636.399H925V575.399Z" fill="white"/>
<path d="M843.3 529.799V543.099H1056.7V529.799L950 476.399L843.3 529.799Z" fill="#2970FF"/>
<path d="M1056.9 146.8H843.7V293.5H1056.9V146.8Z" fill="#091440"/>
<path d="M1056.9 160.1H843.7V320.1H1056.9V160.1Z" fill="white"/>
<path d="M890.2 133.399H876.9V173.399H890.2V133.399Z" fill="#091440"/>
<path d="M1023.5 133.399H1010.2V173.399H1023.5V133.399Z" fill="#091440"/>
<path d="M990.2 133.399H976.9V173.399H990.2V133.399Z" fill="#091440"/>
<path d="M923.5 133.399H910.2V173.399H923.5V133.399Z" fill="#091440"/>
<path d="M1056.9 186.8H843.7V200.1H1056.9V186.8Z" fill="#091440"/>
<path d="M890.2 253.399H876.9V266.699H890.2V253.399Z" fill="#091440"/>
<path d="M916.901 253.399H903.601V266.699H916.901V253.399Z" fill="#091440"/>
<path d="M943.5 253.399H930.2V266.699H943.5V253.399Z" fill="#091440"/>
<path d="M970.2 253.399H956.9V266.699H970.2V253.399Z" fill="#091440"/>
<path d="M996.901 253.399H983.601V266.699H996.901V253.399Z" fill="#091440"/>
<path d="M1023.5 253.399H1010.2V266.699H1023.5V253.399Z" fill="#091440"/>
<path d="M890.2 226.8H876.9V240.1H890.2V226.8Z" fill="#091440"/>
<path d="M916.901 226.8H903.601V240.1H916.901V226.8Z" fill="#091440"/>
<path d="M943.5 226.8H930.2V240.1H943.5V226.8Z" fill="#091440"/>
<path d="M970.2 226.8H956.9V240.1H970.2V226.8Z" fill="#091440"/>
<path d="M996.901 226.8H983.601V240.1H996.901V226.8Z" fill="#091440"/>
<path d="M1023.5 226.8H1010.2V240.1H1023.5V226.8Z" fill="#091440"/>
<path d="M890.2 280.1H876.9V293.4H890.2V280.1Z" fill="#091440"/>
<path d="M916.901 280.1H903.601V293.4H916.901V280.1Z" fill="#091440"/>
<path d="M943.5 280.1H930.2V293.4H943.5V280.1Z" fill="#091440"/>
<path d="M970.2 280.1H956.9V293.4H970.2V280.1Z" fill="#091440"/>
<path d="M996.901 280.1H983.601V293.4H996.901V280.1Z" fill="#091440"/>
<path d="M1023.5 280.1H1010.2V293.4H1023.5V280.1Z" fill="#091440"/>
</svg>
