<svg width="1160" height="800" viewBox="0 0 1160 800" fill="none" xmlns="http://www.w3.org/2000/svg">
<path d="M1160 0H0V800H1160V0Z" fill="white"/>
<path d="M1102 45.8799H606C598.268 45.8799 592 52.1479 592 59.8799V741.19C592 748.922 598.268 755.19 606 755.19H1102C1109.73 755.19 1116 748.922 1116 741.19V59.8799C1116 52.1479 1109.73 45.8799 1102 45.8799Z" fill="#091440"/>
<path d="M555 46.1904H59.73C51.998 46.1904 45.73 52.4584 45.73 60.1904V741.69C45.73 749.422 51.998 755.69 59.73 755.69H555C562.732 755.69 569 749.422 569 741.69V60.1904C569 52.4584 562.732 46.1904 555 46.1904Z" fill="#FFC84E"/>
<path d="M445.36 275.94V200.94H120.36V575.94C120.331 579.21 120.949 582.452 122.179 585.482C123.409 588.511 125.226 591.267 127.526 593.591C129.825 595.915 132.562 597.76 135.578 599.022C138.595 600.283 141.831 600.935 145.1 600.94H470.36V275.94H445.36Z" fill="#091440"/>
<path d="M445.36 275.94H495.36V575.94C495.36 582.571 492.726 588.93 488.038 593.618C483.349 598.307 476.99 600.94 470.36 600.94C463.73 600.94 457.371 598.307 452.682 593.618C447.994 588.93 445.36 582.571 445.36 575.94V275.94Z" fill="white"/>
<path d="M390.7 337.75C400.674 337.75 408.76 329.664 408.76 319.69C408.76 309.716 400.674 301.63 390.7 301.63C380.726 301.63 372.64 309.716 372.64 319.69C372.64 329.664 380.726 337.75 390.7 337.75Z" fill="#091440"/>
<path d="M390.7 292.6C385.342 292.598 380.103 294.185 375.647 297.16C371.191 300.136 367.717 304.366 365.665 309.316C363.613 314.266 363.075 319.713 364.119 324.968C365.163 330.224 367.743 335.052 371.531 338.842C375.319 342.631 380.146 345.212 385.401 346.258C390.657 347.304 396.104 346.769 401.055 344.718C406.005 342.668 410.237 339.196 413.214 334.741C416.191 330.286 417.78 325.048 417.78 319.69C417.78 312.507 414.927 305.618 409.849 300.538C404.771 295.458 397.883 292.602 390.7 292.6ZM390.7 328.71C388.92 328.71 387.18 328.182 385.7 327.193C384.22 326.204 383.066 324.798 382.385 323.154C381.704 321.509 381.526 319.7 381.873 317.954C382.22 316.208 383.077 314.604 384.336 313.346C385.595 312.087 387.198 311.23 388.944 310.883C390.69 310.535 392.5 310.713 394.144 311.395C395.789 312.076 397.194 313.229 398.183 314.709C399.172 316.19 399.7 317.93 399.7 319.71C399.7 322.097 398.752 324.386 397.064 326.074C395.376 327.761 393.087 328.71 390.7 328.71Z" fill="#FFC84E"/>
<path d="M391.42 391.91H173.31C171.107 391.907 168.995 391.031 167.437 389.473C165.879 387.915 165.003 385.803 165 383.6V337C165.003 334.796 165.879 332.684 167.437 331.126C168.995 329.569 171.107 328.692 173.31 328.69H318.47V346.75L354.59 319.67L318.47 292.6V310.66H173.31C166.333 310.678 159.647 313.46 154.716 318.397C149.785 323.333 147.011 330.022 147 337V383.6C146.995 390.587 149.762 397.292 154.695 402.241C159.627 407.191 166.322 409.981 173.31 410H391.42C393.622 410.002 395.733 410.879 397.29 412.437C398.846 413.995 399.72 416.107 399.72 418.31V464.89C399.72 467.092 398.846 469.204 397.29 470.762C395.733 472.32 393.622 473.197 391.42 473.2H219.17V491.26H391.42C398.41 491.249 405.11 488.467 410.051 483.524C414.993 478.58 417.772 471.879 417.78 464.89V418.27C417.772 411.281 414.992 404.581 410.051 399.639C405.109 394.697 398.409 391.918 391.42 391.91Z" fill="white"/>
<path d="M174.45 447.82C167.157 447.82 160.162 450.718 155.005 455.875C149.847 461.032 146.95 468.027 146.95 475.32C146.95 498.32 174.45 516.56 174.45 516.56C174.45 516.56 202 498.33 202 475.32C202 471.705 201.287 468.125 199.902 464.785C198.517 461.445 196.487 458.411 193.928 455.857C191.369 453.303 188.331 451.278 184.989 449.899C181.647 448.52 178.066 447.814 174.45 447.82ZM174.45 484.48C172.184 484.482 169.968 483.812 168.083 482.555C166.197 481.298 164.727 479.51 163.857 477.417C162.988 475.325 162.758 473.021 163.198 470.798C163.637 468.575 164.726 466.532 166.326 464.928C167.926 463.323 169.966 462.229 172.188 461.784C174.41 461.338 176.714 461.562 178.809 462.426C180.904 463.29 182.696 464.756 183.958 466.638C185.22 468.52 185.896 470.734 185.9 473C185.903 474.506 185.608 475.998 185.034 477.39C184.46 478.782 183.617 480.047 182.554 481.113C181.491 482.179 180.228 483.025 178.837 483.603C177.447 484.181 175.956 484.479 174.45 484.48Z" fill="white"/>
<path d="M677.47 572.15C677.417 571.709 677.454 571.262 677.577 570.835C677.7 570.409 677.908 570.011 678.188 569.666C678.468 569.321 678.814 569.035 679.206 568.827C679.598 568.618 680.028 568.49 680.47 568.45L1017.82 534.45L918 335L679.81 267C679.046 266.797 678.379 266.328 677.93 265.677C677.481 265.026 677.279 264.237 677.36 263.45C677.41 262.666 677.741 261.926 678.292 261.366C678.843 260.806 679.577 260.463 680.36 260.4L1022.62 226.22C1023.07 226.16 1023.52 226.191 1023.95 226.31C1024.39 226.428 1024.79 226.633 1025.15 226.911C1025.5 227.189 1025.8 227.536 1026.02 227.93C1026.23 228.324 1026.37 228.758 1026.42 229.205C1026.46 229.653 1026.42 230.106 1026.29 230.537C1026.16 230.968 1025.95 231.368 1025.66 231.714C1025.37 232.061 1025.02 232.346 1024.62 232.553C1024.22 232.76 1023.78 232.885 1023.33 232.92L698.64 265.33L921.25 328.9C921.694 329.036 922.107 329.26 922.463 329.559C922.818 329.858 923.11 330.226 923.32 330.64L1026 535.79C1026.26 536.277 1026.39 536.819 1026.39 537.37C1026.39 537.921 1026.26 538.463 1026 538.95C1025.74 539.432 1025.36 539.842 1024.9 540.147C1024.45 540.452 1023.93 540.641 1023.38 540.7L681.07 575.21H680.74C679.909 575.209 679.109 574.893 678.501 574.325C677.894 573.757 677.526 572.98 677.47 572.15Z" fill="#2F74FB"/>
<path d="M1057.21 229.57C1057.22 222.803 1055.21 216.186 1051.46 210.556C1047.7 204.926 1042.36 200.537 1036.11 197.943C1029.86 195.349 1022.98 194.667 1016.34 195.984C1009.71 197.3 1003.61 200.556 998.821 205.339C994.033 210.123 990.772 216.218 989.45 222.855C988.127 229.492 988.803 236.372 991.391 242.625C993.98 248.878 998.364 254.222 1003.99 257.983C1009.62 261.743 1016.23 263.75 1023 263.75C1027.49 263.753 1031.94 262.871 1036.09 261.154C1040.24 259.438 1044.01 256.921 1047.19 253.747C1050.36 250.573 1052.88 246.804 1054.6 242.656C1056.32 238.507 1057.21 234.061 1057.21 229.57Z" fill="#70CBFF"/>
<path d="M989.83 221C988.41 226.598 988.41 232.462 989.83 238.06C992.215 246.715 997.905 254.086 1005.67 258.585C1013.44 263.084 1022.67 264.352 1031.36 262.114C1040.05 259.877 1047.52 254.314 1052.15 246.623C1056.78 238.933 1058.21 229.731 1056.12 221C1054.21 228.337 1049.92 234.832 1043.92 239.469C1037.92 244.105 1030.56 246.62 1022.97 246.62C1015.39 246.62 1008.03 244.105 1002.03 239.469C996.03 234.832 991.74 228.337 989.83 221Z" fill="#2F74FB"/>
<path d="M715 263.75C715.006 256.982 713.005 250.365 709.249 244.736C705.494 239.106 700.153 234.716 693.902 232.122C687.652 229.529 680.772 228.847 674.134 230.163C667.496 231.48 661.398 234.736 656.61 239.519C651.823 244.302 648.562 250.398 647.24 257.035C645.917 263.672 646.593 270.552 649.181 276.804C651.77 283.057 656.154 288.402 661.781 292.162C667.407 295.923 674.023 297.93 680.79 297.93C689.859 297.932 698.557 294.333 704.972 287.923C711.388 281.514 714.995 272.818 715 263.75Z" fill="#70CBFF"/>
<path d="M647.57 255.19C646.15 260.792 646.15 266.659 647.57 272.26C649.94 280.933 655.628 288.325 663.403 292.839C671.179 297.353 680.418 298.626 689.125 296.384C697.832 294.142 705.307 288.565 709.935 280.857C714.563 273.149 715.973 263.929 713.86 255.19C711.95 262.527 707.659 269.023 701.661 273.659C695.663 278.295 688.296 280.811 680.715 280.811C673.134 280.811 665.767 278.295 659.769 273.659C653.771 269.023 649.48 262.527 647.57 255.19Z" fill="#2F74FB"/>
<path d="M783.42 377.36C783.424 370.592 781.421 363.976 777.664 358.347C773.907 352.719 768.564 348.331 762.313 345.739C756.062 343.147 749.182 342.467 742.545 343.786C735.907 345.104 729.809 348.362 725.023 353.146C720.237 357.931 716.978 364.027 715.658 370.665C714.337 377.302 715.015 384.182 717.605 390.434C720.195 396.686 724.582 402.029 730.209 405.788C735.837 409.547 742.453 411.552 749.22 411.55C753.711 411.551 758.158 410.668 762.307 408.95C766.456 407.233 770.227 404.714 773.402 401.539C776.578 398.364 779.098 394.595 780.816 390.446C782.535 386.297 783.42 381.851 783.42 377.36Z" fill="#70CBFF"/>
<path d="M716 368.86C714.58 374.458 714.58 380.322 716 385.92C718.385 394.575 724.075 401.946 731.844 406.445C739.612 410.945 748.837 412.212 757.531 409.975C766.225 407.737 773.692 402.174 778.323 394.484C782.954 386.793 784.379 377.591 782.29 368.86C780.38 376.197 776.089 382.692 770.091 387.329C764.093 391.965 756.726 394.481 749.145 394.481C741.564 394.481 734.197 391.965 728.199 387.329C722.201 382.692 717.91 376.197 716 368.86Z" fill="#2F74FB"/>
<path d="M715 571.83C715.008 565.064 713.01 558.448 709.258 552.818C705.506 547.188 700.168 542.797 693.921 540.2C687.673 537.604 680.796 536.918 674.159 538.229C667.522 539.54 661.422 542.79 656.632 547.568C651.841 552.346 648.575 558.437 647.246 565.071C645.918 571.705 646.586 578.584 649.166 584.838C651.746 591.092 656.123 596.441 661.743 600.208C667.364 603.974 673.974 605.99 680.74 606C685.234 606.008 689.685 605.13 693.839 603.417C697.994 601.704 701.77 599.188 704.951 596.015C708.133 592.842 710.658 589.072 712.382 584.922C714.107 580.773 714.996 576.324 715 571.83Z" fill="#70CBFF"/>
<path d="M647.57 563.32C646.15 568.922 646.15 574.789 647.57 580.39C649.94 589.063 655.628 596.455 663.403 600.969C671.179 605.483 680.418 606.756 689.125 604.514C697.832 602.272 705.307 596.695 709.935 588.987C714.563 581.279 715.973 572.059 713.86 563.32C711.95 570.657 707.659 577.152 701.661 581.789C695.663 586.425 688.296 588.941 680.715 588.941C673.134 588.941 665.767 586.425 659.769 581.789C653.771 577.152 649.48 570.657 647.57 563.32Z" fill="#2F74FB"/>
<path d="M886.11 312.38L920.32 292.65L954.53 312.38V351.91L920.32 371.64L886.11 351.91V312.38Z" fill="#70CBFF"/>
<path d="M954.53 351.91V312.38L920.32 332.12V371.64L954.53 351.91Z" fill="#2F74FB"/>
<path d="M985.36 546.75L1023 584.37L1060.65 546.75L1023 490.32L985.36 546.75Z" fill="#70CBFF"/>
<path d="M1023 584.37L1060.65 546.75L1023 490.32V584.37Z" fill="#2F74FB"/>
<path d="M1051.76 297.93C1051.76 296.969 1052.05 296.029 1052.58 295.229C1053.11 294.43 1053.87 293.807 1054.76 293.439C1055.65 293.072 1056.63 292.976 1057.57 293.164C1058.51 293.353 1059.38 293.817 1060.06 294.497C1060.74 295.178 1061.2 296.045 1061.39 296.988C1061.57 297.932 1061.48 298.909 1061.11 299.797C1060.74 300.685 1060.11 301.443 1059.31 301.976C1058.51 302.509 1057.57 302.792 1056.61 302.79C1055.33 302.767 1054.11 302.247 1053.2 301.341C1052.3 300.434 1051.78 299.211 1051.76 297.93Z" fill="#2F74FB"/>
<path d="M983.94 332.11C983.94 331.148 984.225 330.208 984.76 329.409C985.294 328.609 986.054 327.987 986.942 327.619C987.831 327.251 988.809 327.156 989.752 327.344C990.695 327.532 991.561 327.996 992.24 328.677C992.919 329.358 993.381 330.225 993.568 331.168C993.754 332.111 993.656 333.089 993.287 333.977C992.918 334.865 992.293 335.623 991.493 336.156C990.692 336.689 989.752 336.972 988.79 336.97C987.503 336.967 986.269 336.454 985.36 335.543C984.451 334.632 983.94 333.397 983.94 332.11Z" fill="#2F74FB"/>
<path d="M915.46 468.9C915.458 467.939 915.741 466.998 916.274 466.197C916.807 465.397 917.565 464.772 918.453 464.403C919.341 464.034 920.319 463.936 921.262 464.122C922.205 464.309 923.072 464.771 923.753 465.45C924.434 466.129 924.897 466.995 925.086 467.938C925.274 468.881 925.178 469.859 924.811 470.748C924.443 471.636 923.821 472.396 923.021 472.931C922.222 473.465 921.282 473.75 920.32 473.75C919.034 473.748 917.8 473.236 916.89 472.327C915.979 471.419 915.465 470.187 915.46 468.9Z" fill="#2F74FB"/>
<path d="M1018.15 400.53C1018.15 399.568 1018.44 398.628 1018.97 397.829C1019.5 397.029 1020.26 396.406 1021.15 396.039C1022.04 395.671 1023.02 395.576 1023.96 395.764C1024.9 395.952 1025.77 396.416 1026.45 397.097C1027.13 397.778 1027.59 398.645 1027.78 399.588C1027.96 400.531 1027.87 401.509 1027.5 402.397C1027.13 403.285 1026.5 404.043 1025.7 404.576C1024.9 405.109 1023.96 405.392 1023 405.39C1021.71 405.387 1020.48 404.874 1019.57 403.963C1018.66 403.052 1018.15 401.817 1018.15 400.53Z" fill="#2F74FB"/>
<path d="M881.25 280.76C881.26 279.801 881.553 278.867 882.093 278.074C882.633 277.281 883.396 276.666 884.284 276.306C885.173 275.946 886.149 275.857 887.088 276.05C888.028 276.243 888.889 276.71 889.564 277.391C890.238 278.073 890.696 278.939 890.88 279.88C891.063 280.822 890.964 281.796 890.595 282.681C890.226 283.567 889.603 284.323 888.805 284.854C888.007 285.386 887.069 285.67 886.11 285.67C885.468 285.669 884.832 285.541 884.24 285.293C883.648 285.045 883.11 284.682 882.659 284.226C882.207 283.77 881.85 283.229 881.608 282.634C881.366 282.039 881.245 281.402 881.25 280.76Z" fill="#2F74FB"/>
<path d="M710.15 468.9C710.148 467.939 710.431 466.998 710.964 466.197C711.497 465.397 712.255 464.772 713.143 464.403C714.031 464.034 715.009 463.936 715.952 464.122C716.895 464.309 717.762 464.771 718.443 465.45C719.124 466.129 719.588 466.995 719.776 467.938C719.964 468.881 719.869 469.859 719.501 470.748C719.133 471.636 718.511 472.396 717.711 472.931C716.912 473.465 715.972 473.75 715.01 473.75C713.723 473.75 712.488 473.24 711.577 472.33C710.666 471.421 710.153 470.187 710.15 468.9Z" fill="#2F74FB"/>
<path d="M778.57 503.14C778.568 502.177 778.852 501.236 779.385 500.436C779.918 499.635 780.677 499.01 781.566 498.641C782.454 498.272 783.432 498.175 784.376 498.362C785.319 498.55 786.186 499.013 786.867 499.693C787.547 500.373 788.01 501.24 788.197 502.184C788.384 503.128 788.287 504.106 787.918 504.994C787.549 505.882 786.925 506.641 786.124 507.175C785.323 507.708 784.382 507.991 783.42 507.99C782.14 507.969 780.919 507.451 780.013 506.546C779.108 505.641 778.591 504.419 778.57 503.14Z" fill="#2F74FB"/>
<path d="M675.88 400.53C675.88 399.569 676.165 398.629 676.699 397.83C677.233 397.031 677.992 396.408 678.88 396.04C679.768 395.672 680.745 395.576 681.688 395.763C682.631 395.951 683.497 396.414 684.177 397.093C684.856 397.773 685.319 398.639 685.507 399.582C685.694 400.525 685.598 401.502 685.23 402.39C684.862 403.278 684.239 404.037 683.44 404.571C682.641 405.105 681.701 405.39 680.74 405.39C679.452 405.387 678.217 404.874 677.306 403.964C676.396 403.053 675.883 401.818 675.88 400.53Z" fill="#2F74FB"/>
<path d="M675.88 332.11C675.88 331.149 676.165 330.209 676.699 329.41C677.233 328.611 677.992 327.988 678.88 327.62C679.768 327.252 680.745 327.156 681.688 327.343C682.631 327.531 683.497 327.994 684.177 328.673C684.856 329.353 685.319 330.219 685.507 331.162C685.694 332.105 685.598 333.082 685.23 333.97C684.862 334.858 684.239 335.617 683.44 336.151C682.641 336.685 681.701 336.97 680.74 336.97C679.452 336.967 678.217 336.454 677.306 335.544C676.396 334.633 675.883 333.398 675.88 332.11Z" fill="#2F74FB"/>
<path d="M744.36 195.33C744.358 194.368 744.641 193.428 745.174 192.627C745.707 191.827 746.465 191.202 747.353 190.833C748.241 190.463 749.219 190.366 750.162 190.552C751.105 190.739 751.972 191.201 752.653 191.88C753.334 192.559 753.798 193.425 753.986 194.368C754.174 195.311 754.079 196.289 753.711 197.177C753.343 198.066 752.721 198.826 751.921 199.36C751.122 199.895 750.182 200.18 749.22 200.18C747.933 200.18 746.698 199.669 745.787 198.76C744.876 197.851 744.363 196.617 744.36 195.33Z" fill="#2F74FB"/>
<path d="M847 195.33C846.998 194.368 847.281 193.428 847.814 192.627C848.347 191.827 849.105 191.202 849.993 190.833C850.881 190.463 851.859 190.366 852.802 190.552C853.745 190.739 854.612 191.201 855.293 191.88C855.974 192.559 856.438 193.425 856.626 194.368C856.814 195.311 856.719 196.289 856.351 197.177C855.983 198.066 855.361 198.826 854.561 199.36C853.762 199.895 852.822 200.18 851.86 200.18C850.574 200.177 849.34 199.666 848.43 198.757C847.519 197.848 847.005 196.616 847 195.33Z" fill="#2F74FB"/>
<path d="M949.67 571.5C949.668 570.538 949.951 569.598 950.484 568.797C951.017 567.997 951.775 567.372 952.663 567.003C953.551 566.633 954.529 566.536 955.472 566.722C956.415 566.908 957.282 567.371 957.963 568.05C958.644 568.729 959.108 569.595 959.296 570.538C959.484 571.481 959.388 572.459 959.021 573.347C958.653 574.236 958.03 574.996 957.231 575.53C956.432 576.065 955.492 576.35 954.53 576.35C953.249 576.329 952.026 575.812 951.12 574.907C950.213 574.002 949.693 572.781 949.67 571.5Z" fill="#2F74FB"/>
<path d="M881.25 605.68C881.248 604.718 881.531 603.777 882.064 602.977C882.597 602.176 883.355 601.552 884.243 601.182C885.131 600.813 886.109 600.715 887.052 600.902C887.995 601.088 888.862 601.55 889.543 602.23C890.224 602.909 890.688 603.775 890.876 604.718C891.064 605.661 890.969 606.638 890.601 607.527C890.233 608.416 889.611 609.175 888.811 609.71C888.012 610.244 887.072 610.53 886.11 610.53C884.824 610.527 883.59 610.015 882.68 609.107C881.769 608.198 881.255 606.966 881.25 605.68Z" fill="#2F74FB"/>
<path d="M812.78 571.5C812.778 570.538 813.062 569.597 813.595 568.796C814.128 567.995 814.887 567.371 815.776 567.002C816.664 566.633 817.642 566.536 818.586 566.723C819.529 566.91 820.396 567.373 821.077 568.053C821.757 568.734 822.22 569.601 822.407 570.544C822.594 571.488 822.497 572.466 822.128 573.354C821.759 574.243 821.135 575.002 820.334 575.535C819.533 576.068 818.592 576.352 817.63 576.35C816.345 576.347 815.112 575.835 814.203 574.926C813.294 574.017 812.783 572.785 812.78 571.5Z" fill="#2F74FB"/>
<path d="M881.25 400.7C881.248 399.738 881.531 398.798 882.064 397.997C882.597 397.197 883.355 396.572 884.243 396.203C885.131 395.834 886.109 395.736 887.052 395.922C887.995 396.109 888.862 396.571 889.543 397.25C890.224 397.929 890.688 398.795 890.876 399.738C891.064 400.681 890.969 401.659 890.601 402.548C890.233 403.436 889.611 404.196 888.811 404.73C888.012 405.265 887.072 405.55 886.11 405.55C884.824 405.547 883.59 405.036 882.68 404.127C881.769 403.219 881.255 401.986 881.25 400.7Z" fill="#2F74FB"/>
<path d="M812.78 349.23C812.78 348.268 813.065 347.328 813.6 346.529C814.134 345.73 814.894 345.107 815.782 344.739C816.671 344.372 817.649 344.276 818.592 344.464C819.535 344.653 820.401 345.116 821.08 345.797C821.759 346.478 822.221 347.345 822.408 348.288C822.594 349.232 822.497 350.209 822.127 351.097C821.758 351.985 821.133 352.743 820.333 353.276C819.532 353.809 818.592 354.092 817.63 354.09C816.343 354.087 815.109 353.574 814.2 352.663C813.291 351.752 812.78 350.517 812.78 349.23Z" fill="#2F74FB"/>
<path d="M817.63 450L851.9 430.27L886.11 450V489.47L851.9 509.19L817.63 489.45V450Z" fill="#70CBFF"/>
<path d="M886.11 489.45V450L851.9 469.72V509.19L886.11 489.45Z" fill="#2F74FB"/>
</svg>
