<svg width="1160" height="800" viewBox="0 0 1160 800" fill="none" xmlns="http://www.w3.org/2000/svg">
<path d="M1160 0H0V800H1160V0Z" fill="white"/>
<path d="M1102 45.8799H606C598.268 45.8799 592 52.1479 592 59.8799V741.19C592 748.922 598.268 755.19 606 755.19H1102C1109.73 755.19 1116 748.922 1116 741.19V59.8799C1116 52.1479 1109.73 45.8799 1102 45.8799Z" fill="#091440"/>
<path d="M555 46.1904H59.73C51.998 46.1904 45.73 52.4584 45.73 60.1904V741.69C45.73 749.422 51.998 755.69 59.73 755.69H555C562.732 755.69 569 749.422 569 741.69V60.1904C569 52.4584 562.732 46.1904 555 46.1904Z" fill="#FFC84E"/>
<path d="M507.36 480.94H427.36C427.36 480.25 427.36 479.55 427.36 478.86L507.36 477.5C507.35 478.64 507.36 479.79 507.36 480.94ZM187.36 480.94H107.36V480.05L187.36 480.37V480.94ZM187.36 478.3L107.36 476.61C107.36 475.46 107.42 474.31 107.46 473.17L187.4 476.24L187.36 478.3ZM427.26 476.78C427.26 476.09 427.21 475.4 427.18 474.71L507.07 470.62C507.13 471.767 507.18 472.917 507.22 474.07L427.26 476.78ZM187.52 474.16L107.64 469.75C107.71 468.59 107.78 467.45 107.86 466.3L187.65 472.09C187.63 472.78 187.59 473.47 187.55 474.16H187.52ZM427.05 472.63C427.05 471.94 426.95 471.25 426.89 470.57L506.6 463.76C506.7 464.9 506.79 466.05 506.87 467.2L427.05 472.63ZM187.85 470L108.17 462.87C108.27 461.73 108.39 460.58 108.51 459.44L188.05 468C188 468.64 187.91 469.33 187.85 470ZM426.73 468.48C426.66 467.81 426.59 467.14 426.5 466.48L505.92 456.86C506.06 458.007 506.19 459.167 506.31 460.34L426.73 468.48ZM188.28 466L108.91 456C109.05 454.88 109.2 453.77 109.36 452.65L188.57 463.88C188.47 464.55 188.37 465.26 188.28 466ZM426.28 464.4C426.19 463.74 426.1 463.08 425.99 462.4L505 450C505.18 451.15 505.34 452.31 505.5 453.47L426.28 464.4ZM188.92 461.85L109.92 449.21C110.1 448.08 110.29 446.96 110.49 445.84L189.26 459.79C189.1 460.44 189 461.13 188.87 461.82L188.92 461.85ZM425.66 460.35C425.54 459.66 425.41 458.98 425.28 458.29L503.87 443.29C504.08 444.41 504.29 445.53 504.48 446.66L425.66 460.35ZM189.66 457.78L111.08 442.4C111.3 441.27 111.53 440.15 111.77 439.03L190 455.7L189.66 457.78ZM424.9 456.29C424.76 455.61 424.61 454.94 424.46 454.29L502.46 436.58C502.72 437.7 502.96 438.82 503.2 439.94L424.9 456.29ZM190.53 453.74L112.59 435.68C112.85 434.55 113.12 433.44 113.4 432.32L191.01 451.73C190.77 452.36 190.61 453 190.46 453.71L190.53 453.74ZM423.99 452.28L423.48 450.28L500.83 429.88C501.12 430.98 501.4 432.09 501.68 433.2L423.99 452.28ZM191.54 449.7L114.19 429C114.49 427.87 114.8 426.75 115.13 425.63L192 447.72C191.82 448.373 191.643 449.023 191.47 449.67L191.54 449.7ZM422.93 448.25C422.74 447.59 422.55 446.93 422.35 446.25L498.96 423.18C499.29 424.28 499.61 425.38 499.96 426.49L422.93 448.25ZM192.6 445.74L116.1 422.31C116.44 421.21 116.79 420.11 117.15 419.01L193.22 443.77C193 444.43 192.8 445.08 192.6 445.74ZM421.67 444.28C421.46 443.62 421.25 442.97 421.02 442.28L496.76 416.53C497.14 417.62 497.5 418.72 497.85 419.82L421.67 444.28ZM193.88 441.8L118.24 415.8C118.61 414.71 119 413.62 119.4 412.53L194.56 439.91C194.33 440.51 194.1 441.15 193.88 441.8ZM420.34 440.36C420.1 439.69 419.86 439.04 419.61 438.36L494.44 410.06C494.84 411.12 495.23 412.19 495.62 413.27L420.34 440.36ZM195.34 437.94L120.66 409.25C121.07 408.18 121.49 407.12 121.92 406.06L196.05 436C195.79 436.64 195.54 437.29 195.29 437.94H195.34ZM418.91 436.46C418.66 435.83 418.4 435.19 418.13 434.56L491.91 403.61C492.35 404.68 492.8 405.76 493.22 406.84L418.91 436.46ZM196.91 434.11L123.27 402.87C123.72 401.81 124.17 400.75 124.64 399.7L197.73 432.24C197.37 432.86 197.1 433.48 196.83 434.11H196.91ZM417.35 432.67C417.07 432.04 416.79 431.41 416.5 430.78L489.14 397.26C489.62 398.31 490.14 399.36 490.56 400.42L417.35 432.67ZM198.57 430.38L126 396.56C126.49 395.56 127 394.49 127.48 393.46L199.39 428.52C199.08 429.13 198.78 429.76 198.49 430.38H198.57ZM415.57 428.88C415.27 428.27 414.97 427.66 414.66 427.05L486.1 391.05C486.62 392.05 487.1 393.12 487.64 394.17L415.57 428.88ZM200.36 426.62L129 390.43C129.52 389.43 130.06 388.36 130.61 387.33L201.27 424.84L200.36 426.62ZM413.71 425.2C413.39 424.6 413.07 424 412.71 423.4L482.84 384.9C483.4 385.9 483.95 386.9 484.49 387.97L413.71 425.2ZM202.22 423L132.22 384.25C132.77 383.25 133.33 382.25 133.89 381.25L203.24 421.13C202.91 421.81 202.56 422.42 202.22 423ZM411.69 421.54C411.34 420.93 410.98 420.32 410.62 419.72L479.43 379C480.01 380 480.58 381 481.15 381.94L411.69 421.54ZM204.29 419.4L135.65 378.31C136.24 377.31 136.84 376.31 137.44 375.37L205.37 417.64C205 418.26 204.65 418.85 204.29 419.44V419.4ZM409.57 418L408.46 416.25L475.79 373C476.41 374 477.02 374.95 477.63 375.93L409.57 418ZM206.47 415.92L139.29 372.5C139.9 371.5 140.53 370.58 141.17 369.64L207.61 414.19L206.47 415.92ZM407.33 414.51C406.94 413.93 406.56 413.36 406.16 412.8L472 367.3C472.66 368.25 473.3 369.2 473.94 370.16L407.33 414.51ZM208.78 412.51L143.11 366.83C143.76 365.88 144.43 364.94 145.11 364.01L210 410.81L208.78 412.51ZM405 411.1C404.6 410.54 404.19 409.98 403.78 409.43L468 361.7L470 364.49L405 411.1ZM211.25 409.1L147.17 361.2C147.86 360.28 148.56 359.36 149.26 358.45L212.49 407.45C212 408 211.62 408.59 211.21 409.13L211.25 409.1ZM402.54 407.75L401.25 406.11L463.78 356.22C464.5 357.11 465.2 358.01 465.9 358.92L402.54 407.75ZM213.76 405.86L151.41 355.74C152.12 354.85 152.84 353.97 153.57 353.09L215.09 404.23C214.6 404.8 214.16 405.34 213.72 405.89L213.76 405.86ZM399.94 404.5C399.51 403.98 399.07 403.5 398.63 402.95L459.37 350.88C460.12 351.76 460.87 352.64 461.61 353.54L399.94 404.5ZM216.42 402.66L155.8 350.46C156.55 349.59 157.3 348.72 158.07 347.87L217.78 401.11C217.28 401.65 216.83 402.17 216.38 402.69L216.42 402.66ZM397.25 401.37C396.79 400.84 396.32 400.37 395.85 399.81L454.85 345.81C455.62 346.65 456.38 347.49 457.14 348.35L397.25 401.37ZM219.18 399.56L160.37 345.33C161.15 344.49 161.93 343.65 162.73 342.82L220.6 398.05C220.08 398.58 219.61 399.08 219.14 399.59L219.18 399.56ZM394.44 398.3C393.97 397.8 393.5 397.3 393.03 396.83L450.03 340.73C450.84 341.56 451.65 342.39 452.45 343.23L394.44 398.3ZM222 396.62L165.13 340.35C165.93 339.54 166.74 338.74 167.56 337.94L223.48 395.14L222 396.62ZM391.52 395.38L390.02 393.92L445.14 336C445.973 336.78 446.793 337.57 447.6 338.37L391.52 395.38ZM225 393.71L170 335.55L172.51 333.22L226.51 392.28L225 393.71ZM388.56 392.53C388.04 392.06 387.56 391.59 387 391.13L440.11 331.3C440.97 332.06 441.81 332.82 442.65 333.59L388.56 392.53ZM228 390.9L175.07 330.9C175.93 330.14 176.8 329.38 177.67 328.64L229.56 389.53L228 390.9ZM385.37 389.77L383.79 388.44L434.79 326.81C435.67 327.54 436.55 328.29 437.42 329.03L385.37 389.77ZM231.2 388.2L180.33 326.46C181.217 325.72 182.117 324.99 183.03 324.27L232.78 386.92L231.2 388.2ZM382.2 387.13C381.67 386.7 381.13 386.28 380.59 385.86L429.45 322.52C430.37 323.22 431.27 323.93 432.17 324.65L382.2 387.13ZM234.43 385.64L185.74 322.16C186.65 321.46 187.57 320.77 188.49 320.08L236.08 384.39C235.53 384.8 235 385.22 234.43 385.64ZM378.95 384.64L377.26 383.4L423.94 318.4C424.87 319.07 425.79 319.74 426.7 320.4L378.95 384.64ZM237.8 383.15L191.25 318.08C192.2 317.4 193.16 316.73 194.13 316.08L239.44 382C238.89 382.37 238.34 382.76 237.8 383.15ZM375.57 382.15L373.84 381L418.31 314.5L421.13 316.42L375.57 382.15ZM241.17 380.79L197 314.14L199.91 312.25L242.91 379.7L241.17 380.79ZM372.17 379.86C371.58 379.48 371 379.11 370.41 378.75L412.54 310.75C413.54 311.35 414.48 311.96 415.44 312.58L372.17 379.86ZM244.69 378.56L202.8 310.42C203.8 309.83 204.75 309.23 205.74 308.65L246.45 377.52L244.69 378.56ZM368.69 377.7C368.08 377.33 367.46 376.97 366.85 376.62L406.68 307.24C407.68 307.8 408.63 308.37 409.59 308.94L368.69 377.7ZM248.22 376.5L208.75 306.91C209.75 306.34 210.75 305.79 211.75 305.24L250.05 375.48C249.43 375.827 248.82 376.167 248.22 376.5ZM365 375.67L363.2 374.67L400.5 303.89L403.5 305.53L365 375.67ZM251.83 374.51L214.77 303.61C215.77 303.08 216.77 302.55 217.84 302.04L253.68 373.56C253.1 373.87 252.48 374.18 251.87 374.51H251.83ZM361.37 373.76L359.52 372.84L394.37 300.84C395.37 301.34 396.43 301.84 397.45 302.36L361.37 373.76ZM255.55 372.64L221 300.52C222.05 300.01 223.11 299.52 224.17 299.03L257.46 371.78L255.55 372.64ZM357.7 372C357.08 371.71 356.46 371.43 355.83 371.16L388.16 297.98L391.31 299.4L357.7 372ZM259.31 371L227.31 297.68C228.31 297.22 229.39 296.77 230.45 296.34L261.26 370.16C260.613 370.393 259.963 370.653 259.31 370.94V371ZM353.93 370.36L352.06 369.59L381.81 295.33C382.89 295.757 383.96 296.197 385.02 296.65L353.93 370.36ZM263.13 369.36L233.7 295L236.91 293.76L265.08 368.64L263.13 369.36ZM350.13 368.79L348.13 368.06L375.38 292.84C376.46 293.23 377.53 293.63 378.59 294.03L350.13 368.79ZM267.06 367.89L240.15 292.55C241.24 292.16 242.34 291.78 243.45 291.4L269 367.2C268.34 367.41 267.7 367.64 267.05 367.87L267.06 367.89ZM346.26 367.39L344.26 366.72L368.87 290.6C369.96 290.95 371.04 291.31 372.12 291.68L346.26 367.39ZM271 366.53L246.67 290.32L250.01 289.32L272.93 365.97L271 366.53ZM342.31 366.1L340.31 365.51L362.2 288.57C363.3 288.88 364.41 289.21 365.51 289.57L342.31 366.1ZM274.92 365.36L253.32 288.36L256.68 287.45L276.88 364.86L274.92 365.36ZM338.32 364.96L336.32 364.44L355.6 286.8C356.71 287.08 357.82 287.36 358.92 287.66L338.32 364.96ZM278.91 364.32L260 286.59C261.12 286.32 262.24 286.05 263.36 285.8L280.92 363.85L278.91 364.32ZM334.33 363.97L332.33 363.53L348.86 285.25L352.22 285.99L334.33 363.97ZM282.92 363.42L266.76 285.07C267.873 284.837 268.993 284.617 270.12 284.41L285 363C284.3 363.14 283.61 363.28 282.93 363.42H282.92ZM330.29 363.12L328.19 362.73L342.12 284C343.23 284.2 344.34 284.4 345.45 284.62L330.29 363.12ZM287 362.65L273.51 283.8C274.66 283.6 275.81 283.42 276.97 283.24L288.97 362.33L287 362.65ZM326.2 362.41L324.12 362.1L335.23 282.87C336.37 283.03 337.49 283.2 338.62 283.38L326.2 362.41ZM291.12 362L280.32 282.74C281.47 282.58 282.63 282.43 283.79 282.3L293.13 361.75L291.12 362ZM322.12 361.81L320.12 361.58L328.39 282C329.54 282.12 330.68 282.24 331.83 282.38L322.12 361.81ZM295.21 361.52L287.21 281.93C288.36 281.81 289.51 281.7 290.66 281.61L297.27 361.34L295.21 361.52ZM318 361.4L315.94 361.24L321.54 281.43C322.69 281.51 323.84 281.61 324.98 281.71L318 361.4ZM299.33 361.2L294.06 281.38C295.2 281.3 296.35 281.23 297.5 281.18L301.4 361.08L299.33 361.2ZM313.86 361.11L311.79 361.02L314.67 281.07L318.12 281.22L313.86 361.11ZM303.48 361L300.93 281C302.07 281 303.22 280.94 304.37 280.92L305.56 360.92L303.48 361ZM309.71 361H307.64L307.81 281C308.96 281 310.1 281 311.25 281L309.71 361Z" fill="white"/>
<path d="M507.36 480.94H427.36C427.36 480.24 427.36 479.55 427.36 478.86L507.36 477.5C507.35 478.64 507.36 479.79 507.36 480.94ZM427.29 476.78C427.29 476.09 427.24 475.4 427.21 474.71L507.1 470.62C507.16 471.77 507.21 472.91 507.25 474.06L427.29 476.78ZM427.08 472.62C427.03 471.94 426.98 471.25 426.92 470.56L506.63 463.76C506.73 464.9 506.82 466.05 506.9 467.2L427.08 472.62ZM426.73 468.48C426.66 467.81 426.58 467.14 426.5 466.48L505.92 456.88C506.06 458.03 506.19 459.19 506.31 460.35L426.73 468.48ZM426.24 464.41C426.14 463.73 426.05 463.05 425.94 462.41L505 450C505.18 451.13 505.35 452.28 505.51 453.42L426.24 464.41ZM425.6 460.31C425.48 459.61 425.35 458.91 425.22 458.21L503.83 443.32C504.03 444.43 504.24 445.54 504.43 446.65L425.6 460.31ZM424.83 456.26C424.69 455.58 424.54 454.91 424.39 454.26L502.39 436.55C502.643 437.663 502.883 438.773 503.11 439.88L424.83 456.26Z" fill="#FFE49E"/>
<path d="M1054 480.53H974C974 479.84 974 479.15 974 478.46L1054 477.1C1054 478.24 1054 479.39 1054 480.53ZM973.93 476.38C973.93 475.68 973.93 475 973.84 474.31L1053.74 470.22C1053.8 471.36 1053.84 472.51 1053.88 473.66L973.93 476.38ZM973.72 472.22C973.67 471.54 973.62 470.85 973.56 470.17L1053.27 463.35C1053.37 464.5 1053.46 465.65 1053.53 466.8L973.72 472.22ZM973.37 468.09C973.3 467.42 973.22 466.75 973.14 466.09L1052.56 456.47C1052.7 457.63 1052.83 458.79 1052.95 459.95L973.37 468.09ZM972.87 463.97C972.78 463.31 972.68 462.64 972.58 461.97L1051.58 449.62C1051.76 450.78 1051.93 451.94 1052.09 453.1L972.87 463.97ZM972.24 459.92C972.12 459.23 972 458.54 971.87 457.86L1050.46 442.86C1050.67 443.98 1050.87 445.1 1051.07 446.23L972.24 459.92ZM971.47 455.85C971.33 455.18 971.18 454.5 971.03 453.85L1049.03 436.14C1049.28 437.25 1049.53 438.37 1049.76 439.5L971.47 455.85ZM970.56 451.85C970.39 451.17 970.22 450.5 970.04 449.85L1047.4 429.45C1047.69 430.55 1047.97 431.66 1048.24 432.77L970.56 451.85ZM969.5 447.85C969.31 447.19 969.12 446.53 968.92 445.85L1045.52 422.78C1045.85 423.89 1046.18 424.99 1046.52 426.1L969.5 447.85ZM968.31 443.91C968.1 443.25 967.88 442.59 967.66 441.91L1043.4 416.15C1043.77 417.25 1044.13 418.34 1044.49 419.44L968.31 443.91ZM967 440C966.76 439.34 966.52 438.68 966.27 438L1041.09 409.7C1041.5 410.77 1041.89 411.84 1042.28 412.91L967 440ZM965.52 436.11C965.27 435.47 965.01 434.84 964.74 434.21L1038.51 403.21C1038.96 404.28 1039.4 405.35 1039.83 406.43L965.52 436.11ZM963.93 432.32C963.65 431.68 963.37 431.05 963.08 430.43L1035.72 396.91C1036.2 397.96 1036.72 399.01 1037.14 400.07L963.93 432.32ZM962.18 428.53C961.89 427.92 961.59 427.3 961.28 426.7L1032.71 390.7C1033.24 391.7 1033.71 392.78 1034.26 393.83L962.18 428.53ZM960.33 424.85C960.01 424.24 959.69 423.64 959.33 423.05L1029.46 384.55C1030.02 385.55 1030.57 386.55 1031.11 387.62L960.33 424.85ZM958.33 421.23L957.26 419.4L1026.07 378.59C1026.65 379.59 1027.22 380.59 1027.78 381.54L958.33 421.23ZM956.2 417.65L955.1 415.9L1022.42 372.69C1023.05 373.69 1023.66 374.63 1024.26 375.61L956.2 417.65ZM954 414.11L952.84 412.4L1018.64 366.9C1019.29 367.84 1019.94 368.8 1020.58 369.76L954 414.11ZM951.64 410.69C951.24 410.13 950.83 409.58 950.42 409.03L1014.62 361.3C1015.29 362.22 1015.95 363.15 1016.62 364.09L951.64 410.69ZM949.17 407.38C948.75 406.83 948.32 406.28 947.88 405.74L1010.42 355.84L1012.54 358.54L949.17 407.38ZM946.58 404.13L945.27 402.57L1006 350.5C1006.76 351.38 1007.51 352.27 1008.25 353.17L946.58 404.13ZM943.85 401L942.45 399.44L1001.45 345.39C1002.23 346.23 1002.99 347.08 1003.74 347.93L943.85 401ZM941 397.92C940.53 397.43 940.06 396.92 939.58 396.46L996.58 340.36C997.39 341.19 998.19 342.02 998.99 342.86L941 397.92ZM938.1 394.97L936.59 393.52L991.74 335.52C992.57 336.31 993.39 337.1 994.2 337.9L938.1 394.97ZM935.1 392.13L933.54 390.72L986.7 330.9C987.55 331.65 988.4 332.42 989.24 333.19L935.1 392.13ZM932 389.37L930.46 388L981.46 326.37C982.353 327.096 983.233 327.836 984.1 328.59L932 389.37ZM928.8 386.72C928.27 386.3 927.73 385.87 927.18 385.45L976.05 322.11C976.96 322.82 977.87 323.53 978.77 324.25L928.8 386.72ZM925.54 384.21C924.99 383.79 924.42 383.38 923.86 382.98L970.54 317.98C971.47 318.64 972.39 319.32 973.3 319.98L925.54 384.21ZM922.16 381.78L920.43 380.61L965 314.11C965.947 314.736 966.887 315.376 967.82 316.03L922.16 381.78ZM918.73 379.49L917 378.38L959.14 310.38C960.14 310.98 961.07 311.59 962.03 312.2L918.73 379.49ZM915.24 377.33L913.39 376.25L953.23 306.88C954.23 307.44 955.17 308 956.14 308.58L915.24 377.33ZM911.64 375.27L909.84 374.27L947.14 303.5C948.14 304.04 949.14 304.58 950.14 305.14L911.64 375.27ZM908 373.36C907.39 373.04 906.77 372.74 906.16 372.44L941.01 300.44C942.01 300.94 943.07 301.44 944.09 301.97L908 373.36ZM904.29 371.56L902.43 370.71L934.76 297.54C935.81 298 936.86 298.48 937.9 298.96L904.29 371.56ZM900.53 369.89L898.65 369.12L928.41 294.86L931.62 296.18L900.53 369.89ZM896.72 368.36L894.72 367.63L922 292.42C923.07 292.81 924.14 293.2 925.21 293.61L896.72 368.36ZM892.84 366.96L890.84 366.3L915.45 290.18C916.537 290.526 917.617 290.886 918.69 291.26L892.84 366.96ZM889 365.69L887 365.11L908.89 288.16C910 288.48 911.11 288.8 912.21 289.16L889 365.69ZM885 364.56L883 364.04L902.28 286.4C903.39 286.67 904.5 286.96 905.6 287.25L885 364.56ZM881 363.56L879 363.11L895.54 284.84C896.66 285.08 897.78 285.32 898.89 285.58L881 363.56ZM876.95 362.71C876.26 362.57 875.56 362.44 874.86 362.32L888.78 283.54L892.1 284.15L876.95 362.71ZM872.88 361.99L870.81 361.68L881.92 282.46L885.3 282.96L872.88 361.99ZM868.78 361.42L866.78 361.19L875 281.63C876.15 281.75 877.29 281.88 878.43 282.02L868.78 361.42ZM864.65 360.99L862.65 360.82L868.24 281.02C869.4 281.1 870.54 281.19 871.69 281.29L864.65 360.99ZM860.52 360.7L858.45 360.6L861.33 280.66C862.48 280.66 863.63 280.75 864.77 280.81L860.52 360.7ZM856.37 360.55C855.68 360.55 854.99 360.55 854.29 360.55L854.46 280.55H857.9L856.37 360.55Z" fill="#394269"/>
<path d="M734 480.53H654V479.77L734 480.19V480.53ZM734 478.03L654 476.41C654 475.27 654.06 474.12 654.1 472.98L734.04 475.98C734.06 476.65 734 477.34 734 478V478.03ZM734.15 473.88L654.27 469.55C654.33 468.4 654.4 467.25 654.48 466.11L734.28 471.81C734.26 472.5 734.22 473.19 734.18 473.88H734.15ZM734.45 469.73L654.76 462.73C654.86 461.58 654.97 460.44 655.09 459.29L734.65 467.72C734.6 468.36 734.54 469.05 734.48 469.73H734.45ZM734.88 465.73L655.49 455.81C655.63 454.69 655.78 453.57 655.94 452.46L735.16 463.61C735.09 464.27 735 465 734.91 465.69L734.88 465.73ZM735.46 461.59L656.46 449.03C656.64 447.9 656.83 446.77 657.02 445.65L735.81 459.52C735.71 460.17 735.6 460.86 735.49 461.55L735.46 461.59ZM736.18 457.51L657.65 442.23C657.87 441.11 658.09 439.99 658.33 438.88L736.59 455.46C736.48 456.11 736.34 456.79 736.21 457.47L736.18 457.51ZM737.03 453.51L659.08 435.51C659.34 434.39 659.61 433.28 659.88 432.17L737.52 451.48C737.38 452.08 737.22 452.76 737.06 453.44L737.03 453.51ZM738.03 449.45L660.73 428.86C661.03 427.73 661.34 426.6 661.66 425.48L738.57 447.48L738.03 449.45ZM739.16 445.53L662.68 422.1C663.02 421 663.36 419.91 663.68 418.82L739.79 443.48C739.61 444.14 739.4 444.8 739.2 445.46L739.16 445.53ZM740.44 441.58L664.76 415.58C665.14 414.49 665.53 413.4 665.92 412.31L741.12 439.61C740.92 440.23 740.7 440.87 740.48 441.51L740.44 441.58ZM741.84 437.72L667.17 409C667.58 407.92 668 406.85 668.43 405.78L742.63 435.7C742.37 436.37 742.12 437 741.88 437.65L741.84 437.72ZM743.37 433.91L669.71 402.71C670.15 401.66 670.6 400.62 671.07 399.58L744.2 432L743.37 433.91ZM745.05 430.13L672.49 396.45C672.97 395.4 673.49 394.36 673.97 393.33L745.97 428.28C745.67 428.83 745.38 429.44 745.09 430.06L745.05 430.13ZM746.86 426.4L675.48 390.28C676 389.28 676.54 388.21 677.08 387.18L747.78 424.62C747.51 425.14 747.2 425.73 746.9 426.33L746.86 426.4ZM748.74 422.85L678.74 384.11C679.28 383.11 679.83 382.11 680.39 381.18L749.78 420.99C749.47 421.53 749.12 422.16 748.78 422.78L748.74 422.85ZM750.83 419.2L682.13 378.2C682.72 377.2 683.32 376.2 683.92 375.26L751.92 417.43C751.58 418 751.23 418.54 750.87 419.13L750.83 419.2ZM753.01 415.69L685.8 372.29C686.42 371.29 687.04 370.38 687.68 369.43L754.19 413.89L753.01 415.69ZM755.28 412.3L689.61 366.61C690.25 365.68 690.91 364.76 691.61 363.84L756.54 410.57C756.13 411.07 755.73 411.65 755.32 412.23L755.28 412.3ZM757.7 408.94L693.67 361C694.35 360.09 695.03 359.19 695.72 358.3L759 407.18C758.59 407.74 758.16 408.3 757.74 408.87L757.7 408.94ZM760.23 405.66L697.84 355.59C698.55 354.7 699.27 353.82 700 352.94L761.6 404L760.23 405.66ZM762.88 402.46L702.23 350.3C702.97 349.44 703.72 348.58 704.48 347.73L764.26 400.89L762.88 402.46ZM765.65 399.36L706.83 345.1C707.61 344.26 708.39 343.42 709.19 342.59L767.1 397.78C766.62 398.28 766.15 398.78 765.69 399.29L765.65 399.36ZM768.5 396.36L711.55 340.17C712.35 339.36 713.16 338.55 713.97 337.76L769.97 394.88C769.52 395.3 769 395.8 768.54 396.3L768.5 396.36ZM771.5 393.46L716.5 335.34L719 333L773 392C772.51 392.44 772 392.92 771.49 393.4L771.5 393.46ZM774.5 390.67L721.57 330.67C722.41 329.92 723.27 329.18 724.13 328.44L776.13 389.25L774.5 390.67ZM777.71 387.93L726.71 326.26C727.603 325.52 728.503 324.79 729.41 324.07L779.25 386.64L777.71 387.93ZM780.92 385.38L732.17 321.94C733.09 321.24 734.01 320.54 734.93 319.86L782.57 384.13C782.05 384.48 781.5 384.9 781 385.32L780.92 385.38ZM784.28 382.88L737.68 317.88C738.63 317.2 739.58 316.53 740.54 315.88L786 381.65L784.28 382.88ZM787.68 380.54L743.38 313.93C744.38 313.29 745.31 312.65 746.28 312.03L789.4 379.42L787.68 380.54ZM791.13 378.33L749.23 310.18C750.23 309.58 751.23 308.99 752.16 308.41L793 377.18L791.13 378.33ZM794.75 376.19L755.12 306.69L758.12 305L796.52 375.19C796 375.46 795.38 375.79 794.79 376.13L794.75 376.19ZM798.33 374.19L761.24 303.31C762.24 302.78 763.24 302.26 764.29 301.74L800.2 373.23L798.33 374.19ZM802.05 372.32L767.4 300.22C768.4 299.72 769.49 299.22 770.54 298.74L804 371.42L802.05 372.32ZM805.82 370.59L773.68 297.33C774.75 296.86 775.81 296.4 776.89 295.96L807.7 369.78C807.11 370 806.48 370.29 805.86 370.57L805.82 370.59ZM809.65 368.99L780.07 294.66C781.14 294.23 782.22 293.81 783.3 293.41L811.57 368.24L809.65 368.99ZM813.49 367.54L786.57 292.2C787.66 291.81 788.74 291.44 789.84 291.07L815.46 366.85C814.84 367.05 814.19 367.28 813.53 367.52L813.49 367.54ZM817.49 366.19L793.13 290C794.24 289.64 795.35 289.3 796.46 289L819.46 365.62C818.81 365.76 818.16 366 817.51 366.17L817.49 366.19ZM821.49 365.01L799.79 288.01C800.91 287.69 802.04 287.39 803.17 287.09L823.45 364.48L821.49 365.01ZM825.49 363.96L806.49 286.25C807.61 285.97 808.74 285.71 809.87 285.45L827.45 363.5L825.49 363.96ZM829.49 363.06L813.21 284.7L816.61 284.03L831.46 362.64L829.49 363.06ZM833.6 362.28L820 283.43C821.15 283.23 822.3 283.04 823.46 282.87L835.59 361.94L833.6 362.28ZM837.65 361.66L826.85 282.39C827.99 282.24 829.13 282.09 830.28 281.96L839.7 361.4L837.65 361.66ZM841.77 361.17L833.69 281.58L837.13 281.26L843.83 360.98L841.77 361.17ZM845.86 360.83L840.54 281L843.94 280.8L847.94 360.7L845.86 360.83ZM850.01 360.62L847.46 280.62L850.86 280.54L852.13 360.54L850.01 360.62Z" fill="white"/>
<path d="M340.23 488C324.13 491.91 309.49 488.54 307.54 480.49C305.59 472.44 317.06 462.75 333.16 458.85C349.26 454.95 482.47 438.08 482.47 438.08C482.47 438.08 356.33 484.08 340.23 488Z" fill="#091440"/>
<path d="M307 516C326.33 516 342 500.33 342 481C342 461.67 326.33 446 307 446C287.67 446 272 461.67 272 481C272 500.33 287.67 516 307 516Z" fill="white"/>
<path d="M869.48 450.46C869.48 467.02 862.77 480.46 854.48 480.46C846.19 480.46 839.48 467.02 839.48 450.46C839.48 433.9 854.48 300.46 854.48 300.46C854.48 300.46 869.48 433.89 869.48 450.46Z" fill="#C4CBD2"/>
<path d="M854 516C873.33 516 889 500.33 889 481C889 461.67 873.33 446 854 446C834.67 446 819 461.67 819 481C819 500.33 834.67 516 854 516Z" fill="white"/>
<path d="M1072 605.19H980C972.268 605.19 966 611.458 966 619.19V711.19C966 718.922 972.268 725.19 980 725.19H1072C1079.73 725.19 1086 718.922 1086 711.19V619.19C1086 611.458 1079.73 605.19 1072 605.19Z" fill="white"/>
<path d="M1063.72 692.332L997.978 626.593C995.303 623.918 990.966 623.918 988.291 626.593C985.616 629.268 985.616 633.605 988.291 636.28L1054.03 702.02C1056.71 704.695 1061.04 704.695 1063.72 702.02C1066.39 699.345 1066.39 695.008 1063.72 692.332Z" fill="#091440"/>
<path d="M1029.3 615.22C1015.17 615.225 1001.62 620.838 991.628 630.826C981.634 640.814 976.013 654.361 976 668.49L996 648.49L1000.72 653.2L1014.86 639.06L1010.14 634.35L1029.3 615.22Z" fill="#C4CBD2"/>
<path d="M181.73 605.69H89.73C81.998 605.69 75.73 611.958 75.73 619.69V711.69C75.73 719.422 81.998 725.69 89.73 725.69H181.73C189.462 725.69 195.73 719.422 195.73 711.69V619.69C195.73 611.958 189.462 605.69 181.73 605.69Z" fill="white"/>
<path d="M153.44 619.08C153.44 621.406 152.982 623.709 152.092 625.857C151.202 628.006 149.897 629.958 148.253 631.603C146.608 633.247 144.656 634.552 142.507 635.442C140.359 636.332 138.056 636.79 135.73 636.79C133.403 636.793 131.097 636.337 128.947 635.448C126.796 634.559 124.841 633.255 123.194 631.61C121.548 629.965 120.241 628.012 119.35 625.862C118.459 623.712 118 621.407 118 619.08H102.47V712.3H118C118 707.603 119.866 703.098 123.187 699.777C126.508 696.456 131.013 694.59 135.71 694.59C140.407 694.59 144.912 696.456 148.233 699.777C151.554 703.098 153.42 707.603 153.42 712.3H169V619.08H153.44Z" fill="#C4CBD2"/>
<path d="M115.85 665.691C115.85 661.759 117.016 657.915 119.2 654.646C121.385 651.377 124.49 648.829 128.122 647.324C131.755 645.819 135.752 645.425 139.608 646.193C143.465 646.96 147.007 648.853 149.787 651.633C152.568 654.413 154.461 657.956 155.228 661.812C155.995 665.668 155.601 669.666 154.097 673.298C152.592 676.931 150.044 680.036 146.775 682.22C143.505 684.405 139.662 685.571 135.73 685.571C130.457 685.571 125.401 683.476 121.673 679.748C117.944 676.02 115.85 670.963 115.85 665.691Z" fill="#091440"/>
<path d="M517 411C522.523 411 527 406.523 527 401C527 395.477 522.523 391 517 391C511.477 391 507 395.477 507 401C507 406.523 511.477 411 517 411Z" fill="white"/>
<path d="M1064 411C1069.52 411 1074 406.523 1074 401C1074 395.477 1069.52 391 1064 391C1058.48 391 1054 395.477 1054 401C1054 406.523 1058.48 411 1064 411Z" fill="white"/>
</svg>
