<svg width="1160" height="800" viewBox="0 0 1160 800" fill="none" xmlns="http://www.w3.org/2000/svg">
<path d="M1160 0H0V800H1160V0Z" fill="white"/>
<path d="M799 45.2998H1101C1108.7 45.2998 1115 51.5998 1115 59.2998V741.3C1115 749 1108.7 755.3 1101 755.3H799C791.3 755.3 785 749 785 741.3V59.2998C785 51.5998 791.3 45.2998 799 45.2998Z" fill="#091440"/>
<path d="M757.7 45.2998H59.6001C51.9001 45.2998 45.6001 51.5998 45.6001 59.2998V741.3C45.6001 749 51.9001 755.3 59.6001 755.3H757.7C765.4 755.3 771.7 749 771.7 741.3V59.2998C771.7 51.5998 765.4 45.2998 757.7 45.2998Z" fill="#C4CBD2"/>
<path d="M301.8 493.7L328.6 453.6H515.3L488.5 493.6L301.8 493.7Z" fill="#091440"/>
<path d="M379.2 473.4C385.6 464.3 396.4 457.8 408.6 457.8C420.9 457.8 431.7 464.4 438 473.4H475.2V453.7V453.6V307H444C444 307 444 307.1 444 307.2C444 326.8 428.1 342.7 408.5 342.7C388.9 342.7 373 326.8 373 307.2C373 307.1 373 307 373 307H342V453.6V453.7V473.4H379.2Z" fill="white"/>
<path d="M408.8 441.1C431.057 441.1 449.1 423.057 449.1 400.8C449.1 378.543 431.057 360.5 408.8 360.5C386.543 360.5 368.5 378.543 368.5 400.8C368.5 423.057 386.543 441.1 408.8 441.1Z" fill="#091440"/>
<path d="M427.7 384.7L403.7 408.7L389.3 394.3L384.5 399.1L403.7 418.3L432.5 389.5L427.7 384.7Z" fill="white"/>
<path d="M505 298.7L531.8 258.6H718.5L691.7 298.6L505 298.7Z" fill="#091440"/>
<path d="M582.4 278.4C588.8 269.3 599.6 262.8 611.8 262.8C624.1 262.8 634.9 269.4 641.2 278.4H678.4V258.7V258.6V112H647.2C647.2 112 647.2 112.1 647.2 112.2C647.2 131.8 631.3 147.7 611.7 147.7C592.1 147.7 576.2 131.8 576.2 112.2C576.2 112.1 576.2 112 576.2 112H545V258.6V258.7V278.4H582.4Z" fill="white"/>
<path d="M612 246.1C634.257 246.1 652.3 228.057 652.3 205.8C652.3 183.543 634.257 165.5 612 165.5C589.743 165.5 571.7 183.543 571.7 205.8C571.7 228.057 589.743 246.1 612 246.1Z" fill="#091440"/>
<path d="M630.9 189.7L606.9 213.7L592.4 199.3L587.7 204.1L606.9 223.3L635.7 194.5L630.9 189.7Z" fill="white"/>
<path d="M98.8003 298.7L125.6 258.6H312.3L285.5 298.6L98.8003 298.7Z" fill="#091440"/>
<path d="M176.2 278.4C182.6 269.3 193.4 262.8 205.6 262.8C217.9 262.8 228.7 269.4 235 278.4H272.2V258.7V258.6V112H241C241 112 241 112.1 241 112.2C241 131.8 225.1 147.7 205.5 147.7C185.9 147.7 170 131.8 170 112.2C170 112.1 170 112 170 112H138.8V258.6V258.7V278.4H176.2Z" fill="white"/>
<path d="M205.8 246.1C228.057 246.1 246.1 228.057 246.1 205.8C246.1 183.543 228.057 165.5 205.8 165.5C183.543 165.5 165.5 183.543 165.5 205.8C165.5 228.057 183.543 246.1 205.8 246.1Z" fill="#091440"/>
<path d="M224.7 189.7L200.6 213.7L186.2 199.3L181.4 204.1L200.6 223.3L229.4 194.5L224.7 189.7Z" fill="white"/>
<path d="M505 688.7L531.8 648.6H718.5L691.7 688.6L505 688.7Z" fill="#091440"/>
<path d="M582.4 668.4C588.8 659.3 599.6 652.8 611.8 652.8C624.1 652.8 634.9 659.4 641.2 668.4H678.4V648.7V648.6V502H647.2C647.2 502 647.2 502.1 647.2 502.2C647.2 521.8 631.3 537.7 611.7 537.7C592.1 537.7 576.2 521.8 576.2 502.2C576.2 502.1 576.2 502 576.2 502H545V648.6V648.7V668.4H582.4Z" fill="white"/>
<path d="M612 636.1C634.257 636.1 652.3 618.057 652.3 595.8C652.3 573.543 634.257 555.5 612 555.5C589.743 555.5 571.7 573.543 571.7 595.8C571.7 618.057 589.743 636.1 612 636.1Z" fill="#091440"/>
<path d="M615.8 615.1C614.5 615.4 613.2 615.5 611.9 615.5V608.8C612.8 608.8 613.6 608.7 614.5 608.5C615.4 608.3 616.2 608.1 617 607.7L619.6 613.9C618.3 614.5 617.1 614.9 615.8 615.1ZM604.3 614.1C601.9 613.1 599.7 611.7 597.8 609.8L602.5 605.1C603.8 606.3 605.2 607.3 606.8 608L604.3 614.1ZM626 609.6L621.3 604.9C622.5 603.7 623.5 602.2 624.2 600.6L630.4 603.1C629.3 605.6 627.8 607.8 626 609.6ZM631.8 595.5H625.1C625.1 594.6 625 593.7 624.8 592.9C624.6 592.1 624.4 591.2 624.1 590.4L630.3 587.9C630.8 589.1 631.2 590.3 631.4 591.6C631.7 592.9 631.8 594.2 631.8 595.5ZM621.2 586.1C620 584.9 618.5 583.9 616.9 583.2L619.5 577C621.9 578 624.1 579.5 626 581.3L621.2 586.1Z" fill="white"/>
<path d="M607.8 575.9C597 578.1 590 588.7 592.2 599.5C592.5 600.8 592.9 602.1 593.4 603.3L599.5 600.7C599.2 599.9 598.9 599 598.7 598.2C597.2 591 601.9 583.9 609.1 582.5C610 582.3 610.9 582.2 611.8 582.2V575.5C610.5 575.5 609.1 575.7 607.8 575.9Z" fill="white"/>
<path d="M98.8003 688.7L125.6 648.7H312.3L285.5 688.6L98.8003 688.7Z" fill="#091440"/>
<path d="M176.2 668.4C182.6 659.3 193.4 652.8 205.6 652.8C217.9 652.8 228.7 659.4 235 668.4H272.2V648.7V648.6V502H241C241 502 241 502.1 241 502.2C241 521.8 225.1 537.7 205.5 537.7C185.9 537.7 170 521.8 170 502.2C170 502.1 170 502 170 502H138.8V648.6V648.7V668.4H176.2Z" fill="white"/>
<path d="M205.8 636.1C228.057 636.1 246.1 618.057 246.1 595.8C246.1 573.543 228.057 555.5 205.8 555.5C183.543 555.5 165.5 573.543 165.5 595.8C165.5 618.057 183.543 636.1 205.8 636.1Z" fill="#091440"/>
<path d="M221.8 585.2L216.4 579.8L205.8 590.5L195.1 579.8L189.8 585.2L200.4 595.8L189.8 606.5L195.1 611.8L205.8 601.2L216.4 611.8L221.8 606.5L211.1 595.8L221.8 585.2Z" fill="white"/>
<path d="M950 660C994.183 660 1030 624.183 1030 580C1030 535.817 994.183 500 950 500C905.817 500 870 535.817 870 580C870 624.183 905.817 660 950 660Z" fill="#ED6D47"/>
<path d="M987.7 554.9L975.1 542.3L950 567.4L924.9 542.3L912.3 554.9L937.4 580L912.3 605.1L924.9 617.7L950 592.6L975.1 617.7L987.7 605.1L962.6 580L987.7 554.9Z" fill="white"/>
<path d="M950 480.3C994.183 480.3 1030 444.483 1030 400.3C1030 356.117 994.183 320.3 950 320.3C905.817 320.3 870 356.117 870 400.3C870 444.483 905.817 480.3 950 480.3Z" fill="#FFC84E"/>
<path d="M959.9 449.299C956.7 449.899 953.5 450.299 950.2 450.299L950.1 433.599C952.3 433.599 954.4 433.399 956.6 432.899C958.8 432.499 960.9 431.799 962.9 430.999L969.3 446.399C966.3 447.699 963.1 448.699 959.9 449.299ZM931.1 446.599C925 444.099 919.5 440.499 914.9 435.899L926.6 423.999C929.7 427.099 933.4 429.499 937.4 431.199L931.1 446.599ZM985.5 435.599L973.7 423.899C976.8 420.799 979.2 417.099 980.9 413.099L996.3 419.499C993.7 425.399 990.1 430.899 985.5 435.599ZM1000 400.199H983.3C983.3 397.999 983.1 395.799 982.6 393.599C982.2 391.499 981.5 389.399 980.7 387.399L996.1 380.999C997.3 383.999 998.3 387.099 998.9 390.199C999.7 393.599 1000 396.899 1000 400.199ZM973.6 376.799C970.5 373.699 966.9 371.299 962.8 369.599L969.2 354.199C975.3 356.699 980.7 360.399 985.4 364.999L973.6 376.799Z" fill="white"/>
<path d="M940.1 351.3C913.1 356.8 895.6 383.2 901 410.2C901.7 413.5 902.7 416.7 903.9 419.7L919.3 413.2C918.4 411.2 917.8 409 917.3 406.8C913.7 388.8 925.3 371.2 943.3 367.5C945.5 367.1 947.7 366.8 949.9 366.8V350.1C946.7 350.3 943.3 350.6 940.1 351.3Z" fill="white"/>
<path d="M950 300C994.183 300 1030 264.183 1030 220C1030 175.817 994.183 140 950 140C905.817 140 870 175.817 870 220C870 264.183 905.817 300 950 300Z" fill="#2DD8A3"/>
<path d="M981.4 192.9L943.7 230.6L918.6 205.4L906 218L943.7 255.7L994 205.4L981.4 192.9Z" fill="white"/>
</svg>
