<svg width="1160" height="800" viewBox="0 0 1160 800" fill="none" xmlns="http://www.w3.org/2000/svg">
<path d="M1160 0H0V800H1160V0Z" fill="white"/>
<path d="M1092 45.8799H69.73C56.4752 45.8799 45.73 56.625 45.73 69.8799V361.88C45.73 375.135 56.4752 385.88 69.73 385.88H1092C1105.25 385.88 1116 375.135 1116 361.88V69.8799C1116 56.625 1105.25 45.8799 1092 45.8799Z" fill="#2DD8A3"/>
<path d="M1092 405.69H69.73C56.4752 405.69 45.73 416.436 45.73 429.69V731.69C45.73 744.945 56.4752 755.69 69.73 755.69H1092C1105.25 755.69 1116 744.945 1116 731.69V429.69C1116 416.436 1105.25 405.69 1092 405.69Z" fill="#FEB8A5"/>
<path d="M218.14 692.78C280.272 692.78 330.64 642.412 330.64 580.28C330.64 518.148 280.272 467.78 218.14 467.78C156.008 467.78 105.64 518.148 105.64 580.28C105.64 642.412 156.008 692.78 218.14 692.78Z" fill="white"/>
<path d="M271.17 544.92L253.49 527.25L218.14 562.6L182.78 527.25L165.1 544.92L200.46 580.28L165.1 615.64L182.78 633.31L218.14 597.96L253.49 633.31L271.17 615.64L235.81 580.28L271.17 544.92Z" fill="#091440"/>
<path d="M203.14 328.78C265.272 328.78 315.64 278.412 315.64 216.28C315.64 154.148 265.272 103.78 203.14 103.78C141.008 103.78 90.64 154.148 90.64 216.28C90.64 278.412 141.008 328.78 203.14 328.78Z" fill="white"/>
<path d="M247.33 178.12L194.3 231.15L158.94 195.8L141.26 213.48L194.3 266.51L265.01 195.8L247.33 178.12Z" fill="#091440"/>
<path d="M800.23 91.5898C800.23 104.116 795.254 116.129 786.397 124.987C777.539 133.844 765.526 138.82 753 138.82C740.474 138.82 728.461 133.844 719.603 124.987C710.746 116.129 705.77 104.116 705.77 91.5898H664.32V340.17H705.77C705.77 327.644 710.746 315.631 719.603 306.773C728.461 297.916 740.474 292.94 753 292.94C765.526 292.94 777.539 297.916 786.397 306.773C795.254 315.631 800.23 327.644 800.23 340.17H841.68V91.5898H800.23Z" fill="white"/>
<path d="M700 215.88C700 205.398 703.108 195.15 708.932 186.435C714.756 177.719 723.033 170.926 732.718 166.914C742.402 162.903 753.059 161.853 763.34 163.898C773.621 165.943 783.064 170.991 790.477 178.403C797.889 185.815 802.937 195.259 804.982 205.54C807.027 215.821 805.977 226.478 801.966 236.162C797.954 245.847 791.161 254.124 782.445 259.948C773.729 265.771 763.482 268.88 753 268.88C738.944 268.88 725.463 263.296 715.523 253.357C705.584 243.417 700 229.936 700 215.88Z" fill="#091440"/>
<g opacity="0.2">
<path opacity="0.2" d="M416 721C424.284 721 431 714.284 431 706C431 697.716 424.284 691 416 691C407.716 691 401 697.716 401 706C401 714.284 407.716 721 416 721Z" fill="white"/>
</g>
<g opacity="0.2">
<path opacity="0.2" d="M416 621C424.284 621 431 614.284 431 606C431 597.716 424.284 591 416 591C407.716 591 401 597.716 401 606C401 614.284 407.716 621 416 621Z" fill="white"/>
</g>
<g opacity="0.2">
<path opacity="0.2" d="M416 521C424.284 521 431 514.284 431 506C431 497.716 424.284 491 416 491C407.716 491 401 497.716 401 506C401 514.284 407.716 521 416 521Z" fill="white"/>
</g>
<g opacity="0.2">
<path opacity="0.2" d="M486 671C494.284 671 501 664.284 501 656C501 647.716 494.284 641 486 641C477.716 641 471 647.716 471 656C471 664.284 477.716 671 486 671Z" fill="white"/>
</g>
<g opacity="0.2">
<path opacity="0.2" d="M486 571C494.284 571 501 564.284 501 556C501 547.716 494.284 541 486 541C477.716 541 471 547.716 471 556C471 564.284 477.716 571 486 571Z" fill="white"/>
</g>
<g opacity="0.2">
<path opacity="0.2" d="M486 471C494.284 471 501 464.284 501 456C501 447.716 494.284 441 486 441C477.716 441 471 447.716 471 456C471 464.284 477.716 471 486 471Z" fill="white"/>
</g>
<g opacity="0.2">
<path opacity="0.2" d="M556 721C564.284 721 571 714.284 571 706C571 697.716 564.284 691 556 691C547.716 691 541 697.716 541 706C541 714.284 547.716 721 556 721Z" fill="white"/>
</g>
<g opacity="0.2">
<path opacity="0.2" d="M556 621C564.284 621 571 614.284 571 606C571 597.716 564.284 591 556 591C547.716 591 541 597.716 541 606C541 614.284 547.716 621 556 621Z" fill="white"/>
</g>
<g opacity="0.2">
<path opacity="0.2" d="M556 521C564.284 521 571 514.284 571 506C571 497.716 564.284 491 556 491C547.716 491 541 497.716 541 506C541 514.284 547.716 521 556 521Z" fill="white"/>
</g>
<g opacity="0.2">
<path opacity="0.2" d="M626 671C634.284 671 641 664.284 641 656C641 647.716 634.284 641 626 641C617.716 641 611 647.716 611 656C611 664.284 617.716 671 626 671Z" fill="white"/>
</g>
<g opacity="0.2">
<path opacity="0.2" d="M626 571C634.284 571 641 564.284 641 556C641 547.716 634.284 541 626 541C617.716 541 611 547.716 611 556C611 564.284 617.716 571 626 571Z" fill="white"/>
</g>
<g opacity="0.2">
<path opacity="0.2" d="M626 471C634.284 471 641 464.284 641 456C641 447.716 634.284 441 626 441C617.716 441 611 447.716 611 456C611 464.284 617.716 471 626 471Z" fill="white"/>
</g>
<g opacity="0.2">
<path opacity="0.2" d="M706 721C714.284 721 721 714.284 721 706C721 697.716 714.284 691 706 691C697.716 691 691 697.716 691 706C691 714.284 697.716 721 706 721Z" fill="white"/>
</g>
<g opacity="0.2">
<path opacity="0.2" d="M706 621C714.284 621 721 614.284 721 606C721 597.716 714.284 591 706 591C697.716 591 691 597.716 691 606C691 614.284 697.716 621 706 621Z" fill="white"/>
</g>
<g opacity="0.2">
<path opacity="0.2" d="M706 521C714.284 521 721 514.284 721 506C721 497.716 714.284 491 706 491C697.716 491 691 497.716 691 506C691 514.284 697.716 521 706 521Z" fill="white"/>
</g>
<g opacity="0.2">
<path opacity="0.2" d="M776 671C784.284 671 791 664.284 791 656C791 647.716 784.284 641 776 641C767.716 641 761 647.716 761 656C761 664.284 767.716 671 776 671Z" fill="white"/>
</g>
<g opacity="0.2">
<path opacity="0.2" d="M776 571C784.284 571 791 564.284 791 556C791 547.716 784.284 541 776 541C767.716 541 761 547.716 761 556C761 564.284 767.716 571 776 571Z" fill="white"/>
</g>
<g opacity="0.2">
<path opacity="0.2" d="M776 471C784.284 471 791 464.284 791 456C791 447.716 784.284 441 776 441C767.716 441 761 447.716 761 456C761 464.284 767.716 471 776 471Z" fill="white"/>
</g>
<g opacity="0.2">
<path opacity="0.2" d="M846 721C854.284 721 861 714.284 861 706C861 697.716 854.284 691 846 691C837.716 691 831 697.716 831 706C831 714.284 837.716 721 846 721Z" fill="white"/>
</g>
<g opacity="0.2">
<path opacity="0.2" d="M846 621C854.284 621 861 614.284 861 606C861 597.716 854.284 591 846 591C837.716 591 831 597.716 831 606C831 614.284 837.716 621 846 621Z" fill="white"/>
</g>
<g opacity="0.2">
<path opacity="0.2" d="M846 521C854.284 521 861 514.284 861 506C861 497.716 854.284 491 846 491C837.716 491 831 497.716 831 506C831 514.284 837.716 521 846 521Z" fill="white"/>
</g>
<g opacity="0.2">
<path opacity="0.2" d="M916 671C924.284 671 931 664.284 931 656C931 647.716 924.284 641 916 641C907.716 641 901 647.716 901 656C901 664.284 907.716 671 916 671Z" fill="white"/>
</g>
<g opacity="0.2">
<path opacity="0.2" d="M916 571C924.284 571 931 564.284 931 556C931 547.716 924.284 541 916 541C907.716 541 901 547.716 901 556C901 564.284 907.716 571 916 571Z" fill="white"/>
</g>
<g opacity="0.2">
<path opacity="0.2" d="M916 471C924.284 471 931 464.284 931 456C931 447.716 924.284 441 916 441C907.716 441 901 447.716 901 456C901 464.284 907.716 471 916 471Z" fill="white"/>
</g>
<g opacity="0.2">
<path opacity="0.2" d="M996 721C1004.28 721 1011 714.284 1011 706C1011 697.716 1004.28 691 996 691C987.716 691 981 697.716 981 706C981 714.284 987.716 721 996 721Z" fill="white"/>
</g>
<g opacity="0.2">
<path opacity="0.2" d="M996 621C1004.28 621 1011 614.284 1011 606C1011 597.716 1004.28 591 996 591C987.716 591 981 597.716 981 606C981 614.284 987.716 621 996 621Z" fill="white"/>
</g>
<g opacity="0.2">
<path opacity="0.2" d="M996 521C1004.28 521 1011 514.284 1011 506C1011 497.716 1004.28 491 996 491C987.716 491 981 497.716 981 506C981 514.284 987.716 521 996 521Z" fill="white"/>
</g>
<g opacity="0.2">
<path opacity="0.2" d="M1066 671C1074.28 671 1081 664.284 1081 656C1081 647.716 1074.28 641 1066 641C1057.72 641 1051 647.716 1051 656C1051 664.284 1057.72 671 1066 671Z" fill="white"/>
</g>
<g opacity="0.2">
<path opacity="0.2" d="M1066 571C1074.28 571 1081 564.284 1081 556C1081 547.716 1074.28 541 1066 541C1057.72 541 1051 547.716 1051 556C1051 564.284 1057.72 571 1066 571Z" fill="white"/>
</g>
<g opacity="0.2">
<path opacity="0.2" d="M1066 471C1074.28 471 1081 464.284 1081 456C1081 447.716 1074.28 441 1066 441C1057.72 441 1051 447.716 1051 456C1051 464.284 1057.72 471 1066 471Z" fill="white"/>
</g>
<path d="M895.22 440.7V625.59L810.6 533.14L895.22 440.7Z" fill="#091440"/>
<path d="M610.78 533.15C610.78 533.15 661.72 462 724.56 462C787.4 462 838.33 533.12 838.33 533.12C838.33 533.12 787.39 604.23 724.56 604.23C661.73 604.23 610.78 533.15 610.78 533.15Z" fill="white"/>
<path d="M674.07 547.37C681.923 547.37 688.29 541.003 688.29 533.15C688.29 525.296 681.923 518.93 674.07 518.93C666.217 518.93 659.85 525.296 659.85 533.15C659.85 541.003 666.217 547.37 674.07 547.37Z" fill="#091440"/>
<path d="M690.89 725.37C735.073 725.37 770.89 689.553 770.89 645.37C770.89 601.187 735.073 565.37 690.89 565.37C646.707 565.37 610.89 601.187 610.89 645.37C610.89 689.553 646.707 725.37 690.89 725.37Z" fill="#091440"/>
<path d="M705.58 599.39V664.48C705.58 669.691 703.51 674.689 699.825 678.374C696.14 682.059 691.141 684.13 685.93 684.13C680.718 684.13 675.72 682.059 672.035 678.374C668.35 674.689 666.28 669.691 666.28 664.48V664H678.63L657.86 632.56L637.09 664H649.44V664.53C649.44 674.21 653.286 683.494 660.131 690.339C666.976 697.184 676.26 701.03 685.94 701.03C695.62 701.03 704.904 697.184 711.749 690.339C718.594 683.494 722.44 674.21 722.44 664.53V599.39H705.58Z" fill="white"/>
</svg>
