<svg width="92" height="92" viewBox="0 0 92 92" fill="none" xmlns="http://www.w3.org/2000/svg">
<rect width="92" height="92" fill="#2DD8A3"/>
<path d="M19.826 50.7855C19.0228 51.5885 18.5715 52.6776 18.5715 53.8132C18.5715 54.9488 19.0228 56.0379 19.826 56.8409C20.6292 57.6439 21.7185 58.095 22.8544 58.095C23.9903 58.095 25.0797 57.6439 25.8829 56.8409L31.7144 51.0075L25.6575 44.9521L19.826 50.7855Z" fill="#091440"/>
<path d="M42.3104 73.3744L48.1429 68.028L42.0867 62.4766L36.2543 67.8229C35.4512 68.5591 35 69.5576 35 70.5987C35 71.6398 35.4512 72.6383 36.2543 73.3744C37.0574 74.1106 38.1466 74.5242 39.2824 74.5242C40.4181 74.5242 41.5073 74.1106 42.3104 73.3744Z" fill="#091440"/>
<path d="M34.6437 65.6041L40.4761 59.77L34.4199 53.7139L28.5875 59.5463C27.7844 60.3494 27.3333 61.4386 27.3333 62.5744C27.3333 63.7101 27.7844 64.7994 28.5875 65.6025C29.3906 66.4056 30.4799 66.8567 31.6156 66.8567C32.7514 66.8567 33.8406 66.4056 34.6437 65.6025V65.6041Z" fill="#091440"/>
<path d="M81 34.9547L62.1187 16.4766L56.9454 21.5389L50.1906 22.8482L44.8572 28.0754L66.3077 49.3337L81 34.9547Z" fill="#091440"/>
<path d="M42.6218 20.4451L35.9655 21.7669L30.6399 16.4766L12 34.9928L46.6152 69.3785L50.5675 73.3045C51.3536 74.0855 52.4199 74.5242 53.5317 74.5242C54.6435 74.5242 55.7097 74.0855 56.4959 73.3045C57.282 72.5236 57.7237 71.4644 57.7237 70.36C57.7237 69.2556 57.282 68.1964 56.4959 67.4154L52.5436 63.4894L54.971 61.0781L58.9232 65.0042C59.3125 65.3909 59.7746 65.6976 60.2832 65.9069C60.7918 66.1162 61.3369 66.2239 61.8874 66.2239C62.4379 66.2239 62.983 66.1162 63.4916 65.9069C64.0002 65.6976 64.4623 65.3909 64.8516 65.0042C65.2409 64.6175 65.5497 64.1584 65.7603 63.6532C65.971 63.148 66.0794 62.6065 66.0794 62.0597C66.0794 61.5128 65.971 60.9713 65.7603 60.4661C65.5497 59.9609 65.2409 59.5018 64.8516 59.1151L60.8994 55.1891L63.3201 52.7811L67.2724 56.7071C68.0585 57.4881 69.1248 57.9268 70.2366 57.9268C71.3484 57.9268 72.4146 57.4881 73.2008 56.7071C73.9869 55.9262 74.4286 54.867 74.4286 53.7626C74.4286 52.6582 73.9869 51.599 73.2008 50.8181L42.6218 20.4451Z" fill="white"/>
<path d="M33.1863 18.6957L14.4036 37.4785L17.1658 40.2407L35.9485 21.458L33.1863 18.6957Z" fill="#091440"/>
<path d="M55.8096 34L68.9524 47.1429L55.8096 34Z" fill="#091440"/>
<path d="M36.2561 36.846C35.4518 37.6163 35 38.6609 35 39.7502C35 40.8395 35.4518 41.8842 36.2561 42.6544C37.0603 43.4247 38.1511 43.8574 39.2885 43.8574C40.4259 43.8574 41.5167 43.4247 42.3209 42.6544L51.2699 34.0838L56.3998 33.7805L59.0952 31.0634L50.6398 23.0479L36.2561 36.846Z" fill="#091440"/>
<path d="M57.4128 21.4594L76.1956 40.2422L78.9578 37.48L60.175 18.6972L57.4128 21.4594Z" fill="white"/>
</svg>
