<?xml version="1.0" encoding="utf-8" standalone="no"?>
<!DOCTYPE svg PUBLIC "-//W3C//DTD SVG 1.1//EN" "http://www.w3.org/Graphics/SVG/1.1/DTD/svg11.dtd">
<svg version="1.1" xmlns="http://www.w3.org/2000/svg" xmlns:xlink="http://www.w3.org/1999/xlink" xml:space="preserve">

	<symbol id="left-arrow" viewBox="0 0 26 26">
		<polygon  points="8,23 18,13 8,3 "/>
	</symbol>

	<symbol id="recieve" viewBox="0 0 32 32">
		<g id="XMLID_2443_">
			<rect id="XMLID_2447_" y="14" style="fill:#C6ECCB;" width="26" height="14"/>
			<rect id="XMLID_2446_" x="6" y="4" style="fill:#41BF53;" width="26" height="14"/>
			<rect id="XMLID_2445_" x="18" y="6" style="fill:#C6ECCB;" width="2" height="10"/>
			<rect id="XMLID_2444_" x="14" y="10" style="fill:#C6ECCB;" width="10" height="2"/>
		</g>
	</symbol>

	<symbol id="sent" viewBox="0 0 32 32">
		<g id="XMLID_2395_">
			<rect id="XMLID_2398_" y="14" style="fill:#FD714B;" width="26" height="14"/>
			<rect id="XMLID_2397_" x="6" y="4" style="fill:#FEB8A5;" width="26" height="14"/>
			<rect id="XMLID_2396_" x="14" y="10" style="fill:#FD714B;" width="10" height="2"/>
		</g>
	</symbol>

	<symbol id="search"  viewBox="0 0 26 26">
		<path   d="M26,24.5l-6.9-6.9c1.5-1.9,2.4-4.2,2.4-6.8C21.5,4.8,16.7,0,10.7,0
		C4.8,0,0,4.8,0,10.7c0,5.9,4.8,10.7,10.7,10.7c2.6,0,4.9-0.9,6.8-2.4l6.9,6.9L26,24.5z M2.4,10.7c0-4.6,3.7-8.3,8.3-8.3
		c4.6,0,8.3,3.7,8.3,8.3c0,4.6-3.7,8.3-8.3,8.3C6.1,19.1,2.4,15.3,2.4,10.7z"/>
	</symbol>

	<symbol id="burger" viewBox="0 0 30 30">
		<polygon points="0,0 0,2.5 0,5 30,5 30,2.5 30,0"/>
		<polygon points="0,15 0,17.5 30,17.5 30,15 30,12.5 0,12.5"/>
		<polygon  points="0,27.5 0,30 20,30 20,27.5 20,25 0,25"/>
	</symbol>

	<symbol id="settings" viewBox="0 0 30 30">
		<path d="M26,12.5c-0.3-1.3-0.8-2.4-1.4-3.5l2.8-2.8l-1.8-1.8l-1.8-1.8L21,5.5
		c-1.1-0.7-2.2-1.2-3.5-1.4V0H15h-2.5v4C11.2,4.3,10.1,4.8,9,5.5L6.2,2.6L4.4,4.4L2.6,6.2L5.5,9c-0.7,1.1-1.2,2.2-1.4,3.5H0V15v2.5h4
		c0.3,1.3,0.8,2.4,1.4,3.5l-2.8,2.8l1.8,1.8l1.8,1.8L9,24.5c1.1,0.7,2.2,1.2,3.5,1.4v4H15h2.5v-4c1.3-0.3,2.4-0.8,3.5-1.4l2.8,2.8
		l1.8-1.8l1.8-1.8L24.5,21c0.7-1.1,1.2-2.2,1.4-3.5h4V15v-2.5H26z M15,21.2c-3.4,0-6.2-2.8-6.2-6.2s2.8-6.2,6.2-6.2s6.2,2.8,6.2,6.2
		S18.4,21.2,15,21.2z"/>
	</symbol>

	<symbol id="qr" viewBox="0 0 26 26">	
		<rect  x="22.8" y="22.8" width="3.2" height="3.2"/>
		<path  d="M22.8,0v3.2h0h-3.2h0h-1h-2.3v3.2v3.2h2.3h1h0h3.2h0V13h0h-3.2v3.2h-1h-2.2l0,0V13
			V9.8h-1H13h0h-2.2h-1V13v3.2H8.3H6.5h0H3.8H3.2H0v3.2v3.2V26h3.2h0.6h2.7h0h1.8h1.4v-3.2v-3.2h1l0,0H14h1.3h3.2l0,0h1v-3.2H24l0,0
			h2V13V9.8V6.5V3.2l0,0V0H22.8z M3.8,22.8L3.8,22.8H3.2v-3.2h0.6l0,0h2.7v3.2H3.8z"/>
		<path   d="M9.8,3.2V3.1V0H6.5l0,0l0,0l0,0H3.2l0,0l0,0l0,0H0v3.2l0,0v3.1v0.1v3.2h0.4h2.8h0
			h3.2l0,0h2.1h1.1V6.4V3.2z M6.5,6.4H3.2h0v-3h3.3V6.4L6.5,6.4z"/>
	</symbol>

	<symbol id="reciever" viewBox="0 0 42 42">
		<polygon style="fill:#69D5F7;" points="38.5,31.5 38.5,38.5 3.5,38.5 3.5,31.5 0,31.5 0,38.5 0,40.6 0,42 42,42 
		42,40.6 42,38.5 42,31.5 	"/>
		<polygon style="fill:#69D5F7;" points="18.7,29 21.2,31.5 21.2,31.5 21.2,31.5 23.7,29 23.7,29 31.1,21.6 
			28.6,19.1 23,24.8 23,0 19.5,0 19.5,24.8 13.8,19.1 11.3,21.6 18.7,29 	"/>
	</symbol>

	<symbol id="overview" viewBox="0 0 42 42">
		<path id="XMLID_1024_" style="fill:#69D5F7;" d="M21,3.5c4.7,0,9.1,1.8,12.4,5.1c3.3,3.3,5.1,7.7,5.1,12.4c0,4.7-1.8,9.1-5.1,12.4
		s-7.7,5.1-12.4,5.1c-4.7,0-9.1-1.8-12.4-5.1C5.3,30.1,3.5,25.7,3.5,21c0-4.7,1.8-9.1,5.1-12.4C11.9,5.3,16.3,3.5,21,3.5 M21,0
		C9.4,0,0,9.4,0,21c0,11.6,9.4,21,21,21c11.6,0,21-9.4,21-21C42,9.4,32.6,0,21,0L21,0z"/>
	</symbol>

	<symbol id="send" viewBox="0 0 42 42">
		<polygon id="XMLID_748_" style="fill:#69D5F7;" points="38.5,31.5 38.5,38.5 3.5,38.5 3.5,31.5 0,31.5 0,38.5 0,40.6 0,42 42,42 
		42,40.6 42,38.5 42,31.5 	"/>
		<polygon id="XMLID_780_" style="fill:#69D5F7;" points="13.8,12.4 19.5,6.7 19.5,31.5 23,31.5 23,6.7 28.6,12.4 31.1,9.9 23.7,2.5 
			23.7,2.5 21.2,0 21.2,0 21.2,0 18.7,2.5 18.7,2.5 11.3,9.9 	"/>
	</symbol>

	<symbol id="logo" viewBox="0 0 299 56">

		<path style="fill:#2ED7A2;" d="M31.1,34.3h17.4c6.5,0,11.7-5.3,11.7-11.7S55,10.8,48.5,10.8H43L31.1,0.5h17.4
			c12.2,0,22.1,9.9,22.1,22.1c0,9.2-5.7,17.2-13.7,20.4l13.7,11.9H54.9L31.1,34.3z"/>

		<path style="fill:#2972FF;" d="M39.6,21.1H22.2c-6.5,0-11.7,5.3-11.7,11.7s5.3,11.7,11.7,11.7h5.6l11.9,10.3
			H22.2C10,54.9,0.1,45,0.1,32.8c0-9.2,5.7-17.2,13.7-20.4L0.1,0.5h15.7L39.6,21.1z"/>

		<path style="fill:#FFFFFF;" d="M164.6,38.2L164.6,38.2c0-9.9,7.5-17.5,17.7-17.5c6.9,0,11.3,2.9,14.2,7l-7,5.4
			c-1.9-2.4-4.1-3.9-7.3-3.9c-4.7,0-8,4-8,8.9v0.1c0,5,3.3,9,8,9c3.5,0,5.6-1.6,7.6-4.1l7,5c-3.2,4.4-7.4,7.6-14.9,7.6
			C172.3,55.5,164.6,48.2,164.6,38.2z"/>
		<path style="fill:#FFFFFF;" d="M200.1,21.1h16c5.2,0,8.7,1.4,11,3.7c2,1.9,3,4.5,3,7.9v0.1c0,5.2-2.8,8.6-7,10.4
			l8.1,11.8h-10.8l-6.8-10.2h-4.1v10.2h-9.4V21.1z M215.6,37.3c3.2,0,5-1.5,5-4v-0.1c0-2.7-1.9-4-5.1-4h-6.1v8.1H215.6z"/>
		<path  style="fill:#FFFFFF;" d="M234.4,21.1h27.2v8h-17.9v5.1h16.2v7.4h-16.2v5.4h18.2v8h-27.4V21.1z"/>
		<path  style="fill:#FFFFFF;" d="M266.8,21.1h13c12.1,0,19.1,7,19.1,16.7v0.1c0,9.8-7.1,17-19.3,17h-12.8V21.1z
			 M279.9,46.6c5.6,0,9.3-3.1,9.3-8.5v-0.1c0-5.4-3.7-8.5-9.3-8.5h-3.8v17.2H279.9z"/>
		<path  style="fill:#FFFFFF;" d="M145.5,55.5c-9.9,0-17.1-7.3-17.1-17.4c0-9.9,7-17.4,16.3-17.4
			c5,0,9.1,1.9,11.9,5.4c2.6,3.2,4,7.7,4,12.7c0,0.6,0,1.1-0.1,1.7h-25.2l0.1,0.5c0.9,5.6,4.8,9,10.3,9c3.6,0,6.4-1.2,9.3-3.9l4,3.5
			C155.4,53.6,151,55.5,145.5,55.5z M144.6,26.3c-4.9,0-8.5,3.7-9.3,9.4l-0.1,0.5h18.5l0-0.5C153.1,29.8,149.6,26.3,144.6,26.3z"/>
		<path  style="fill:#FFFFFF;" d="M104.8,55.5c-7.7,0-15.5-6-15.5-17.4c0-11.5,7.8-17.4,15.5-17.4
			c4.6,0,8.3,1.9,11.4,5.9l0.8,1V5.6h7v49.3h-7v-6.7l-0.8,1.1C113.2,53.5,109.5,55.5,104.8,55.5z M106.7,26.6
			c-6.1,0-10.3,4.7-10.3,11.5c0,6.6,4.3,11.5,10.3,11.5c5.9,0,10.4-4.9,10.4-11.5C117.1,31.5,112.6,26.6,106.7,26.6z"/>
	</symbol>

	<symbol id="add" viewBox="0 0 22 22">
		<rect  y="10.1" style="fill:#2ED8A3;" width="22" height="1.8"/>
		<rect  x="10.1" style="fill:#2ED8A3;" width="1.8" height="22"/>
	</symbol>

	<symbol id="wallet" viewBox="0 0 32 32">

		<path id="XMLID_1074_" style="fill:#B7BCC6;" d="M26,19.9L4.8,23.1C3.3,23.4,2,22.2,2,20.8V10.1c0-1.2,0.9-2.2,2-2.4l21.2-3.3
				C26.7,4.2,28,5.3,28,6.8v10.7C28,18.7,27.1,19.7,26,19.9z"/>


		<path id="XMLID_1073_" style="fill:#E9EDF1;" d="M28.2,28H4.4C3.1,28,2,26.9,2,25.6V10.4C2,9.1,3.1,8,4.4,8h23.8
				c1.3,0,2.4,1.1,2.4,2.4v15.2C30.6,26.9,29.5,28,28.2,28z"/>

		<polygon id="XMLID_1048_" style="fill:#B7BCC6;" points="30.6,15 30.6,13 19.7,13 19,13 18,13 18,14 18,22.9 19.7,22.9 
				30.6,22.9 30.6,20.9 20,20.9 20,15 			"/>
		<circle id="XMLID_1047_" style="fill:#B7BCC6;" cx="23" cy="18" r="1.5"/>

		<rect id="XMLID_1017_" x="26.7" y="13" style="fill:#B7BCC6;" width="3.9" height="2"/>
		<rect id="XMLID_1016_" x="26.7" y="20.9" style="fill:#B7BCC6;" width="3.9" height="2"/>

	</symbol>


	<symbol viewBox="0 0 30 30" id="close">
		<polygon points="30,3.5 28.2,1.8 26.5,0 15,11.5 3.5,0 1.8,1.8 0,3.5 11.5,15 0,26.5 
		1.8,28.2 3.5,30 15,18.5 26.5,30 28.2,28.2 30,26.5 18.5,15 "/>
	</symbol>
	<symbol viewBox="0 0 32 32"  id="joinsharedwallet">

	<defs>
		<polyline points="32,32 0,32 0,0 32,0 		"/>
	</defs>
	<clipPath>
		<use xlink:href="#SVGID_1_"  style="overflow:visible;"/>
	</clipPath>
	<path style="clip-path:url(#SVGID_2_);fill:#96ECD1;" d="M26,21.6c0,1.3-1.1,2.4-2.4,2.4H4.4C3.1,24,2,22.9,2,21.6V6.4
		C2,5.1,3.1,4,4.4,4h19.2C24.9,4,26,5.1,26,6.4V21.6z"/>
	<polygon style="clip-path:url(#SVGID_2_);fill:#C0F3E3;" points="30,15 30,13 19.6,13 19,13 18,13 18,14 18,22.9 19.6,22.9 
		30,22.9 30,20.9 20,20.9 20,15 	"/>
	<path style="clip-path:url(#SVGID_2_);fill:#C0F3E3;" d="M24.5,18c0-0.8-0.7-1.5-1.5-1.5c-0.8,0-1.5,0.7-1.5,1.5s0.7,1.5,1.5,1.5
		C23.8,19.5,24.5,18.8,24.5,18"/>
	<rect x="26.7" y="13" style="clip-path:url(#SVGID_2_);fill:#C0F3E3;" width="3.3" height="2"/>
	<rect x="26.7" y="20.9" style="clip-path:url(#SVGID_2_);fill:#C0F3E3;" width="3.3" height="2"/>
	<path style="clip-path:url(#SVGID_2_);fill:#2ED8A3;" d="M27.6,8H26H4.4C3.2,8,2.2,7.2,2,6c0,0.1,0,0.3,0,0.4v4v11.2v4
		C2,26.9,3.1,28,4.4,28h23.2c1.3,0,2.4-1.1,2.4-2.4V10.4C30,9.1,28.9,8,27.6,8"/>
	<path style="clip-path:url(#SVGID_2_);fill:#96ECD1;" d="M30,13c-2.8,0-5,2.2-5,5s2.2,5,5,5V13z"/>
	<path style="clip-path:url(#SVGID_2_);fill:#96ECD1;" d="M18,23c0-5-4-9-9-9s-9,4-9,9s4,9,9,9S18,28,18,23"/>
	<path style="clip-path:url(#SVGID_2_);fill:#2ED8A3;" d="M11.2,23.3c1.1-0.7,1.7-1.9,1.7-3.3c0-2.2-1.8-4-4-4c-2.2,0-4,1.8-4,4
		c0,1.4,0.7,2.6,1.7,3.3c-2.4,0.6-4.4,2.2-5.5,4.2C2.8,30.2,5.7,32,9,32s6.2-1.8,7.8-4.5C15.6,25.4,13.6,23.9,11.2,23.3"/>
	</symbol>
	<symbol viewBox="0 0 32 32" id="importwallet">
	<path style="fill:#8997A5;" d="M2,6.1C2,6.1,2,6,2,6.1C2,6,2,6.1,2,6.1"/>
	<path style="fill:#B7BCC6;" d="M4.4,8H26V6.4C26,5.1,24.9,4,23.6,4H4.4C3.2,4,2.2,4.9,2,6C2.2,7.2,3.2,8,4.4,8"/>
	<path style="fill:#8997A5;" d="M2,6.2C2,6.2,2,6.2,2,6.2C2,6.2,2,6.2,2,6.2"/>
	<path style="fill:#8997A5;" d="M2,6.3C2,6.3,2,6.3,2,6.3C2,6.3,2,6.3,2,6.3"/>
	<path style="fill:#5A6D81;" d="M27.6,8H26h0H4.4C3.2,8,2.2,7.2,2,6v0c0,0,0,0.1,0,0.1c0,0,0,0,0,0c0,0,0,0.1,0,0.1c0,0,0,0,0,0
		c0,0,0,0,0,0.1c0,0,0,0.1,0,0.1v4v11.2v4C2,26.9,3.1,28,4.4,28h23.2c1.3,0,2.4-1.1,2.4-2.4V23c-2.8,0-5-2.2-5-5s2.2-5,5-5v-2.6
		C30,9.1,28.9,8,27.6,8"/>
	<path style="fill:#B7BCC6;" d="M25,18c0,2.8,2.2,5,5,5v-0.1v-2V15v-2C27.2,13,25,15.2,25,18"/>
	<path style="fill:#B7BCC6;" d="M18,23c0-5-4-9-9-9s-9,4-9,9s4,9,9,9S18,28,18,23"/>
	<polygon style="fill:#5A6D81;" points="12.8,22 10,24.8 10,18 8,18 8,24.8 5.2,22 3.8,23.4 9,28.6 14.2,23.4 	"/>
	</symbol>
	<symbol viewBox="0 0 32 32" id="createwallet">
	<path style="fill:#8997A5;" d="M2,6.2C2,6.2,2,6.2,2,6.2C2,6.2,2,6.2,2,6.2"/>
	<path style="fill:#8997A5;" d="M2,6.3C2,6.3,2,6.3,2,6.3C2,6.3,2,6.3,2,6.3"/>
	<path style="fill:#80BCFF;" d="M4.4,8H26V6.4C26,5.1,24.9,4,23.6,4H4.4C3.2,4,2.2,4.9,2,6C2.2,7.2,3.2,8,4.4,8"/>
	<path style="fill:#8997A5;" d="M2,6.1C2,6.1,2,6,2,6.1C2,6,2,6.1,2,6.1"/>
	<path style="fill:#2972FF;" d="M27.6,8H26h0H4.4C3.2,8,2.2,7.2,2,6v0c0,0,0,0.1,0,0.1c0,0,0,0,0,0c0,0,0,0.1,0,0.1c0,0,0,0,0,0
		c0,0,0,0,0,0.1c0,0,0,0.1,0,0.1v4v6.9c1.7-2,4.2-3.3,7-3.3c5,0,9,4,9,9c0,1.8-0.6,3.6-1.5,5h11.1c1.3,0,2.4-1.1,2.4-2.4V23
		c-2.8,0-5-2.2-5-5s2.2-5,5-5v-2.6C30,9.1,28.9,8,27.6,8"/>
	<path style="fill:#80BCFF;" d="M25,18c0,2.8,2.2,5,5,5v-0.1v-2V15v-2C27.2,13,25,15.2,25,18"/>
	<path style="fill:#80BCFF;" d="M18,23c0-5-4-9-9-9c-2.8,0-5.3,1.3-7,3.3c-1.2,1.5-2,3.5-2,5.7c0,5,4,9,9,9c3.1,0,5.9-1.6,7.5-4
		C17.4,26.6,18,24.8,18,23 M10,28H8v-4H4v-2h4v-4h2v4h4v2h-4V28z"/>
	<polygon style="fill:#2972FF;" points="14,24 14,22 10,22 10,18 8,18 8,22 4,22 4,24 8,24 8,28 10,28 10,24 	"/>
	</symbol>
	<symbol viewBox="0 0 22 22" id="spinnerminus">
		<rect x="4.9" y="9.9"  width="12.2" height="2.3"/>
	</symbol>
	<symbol viewBox="0 0 22 22" id="spinnerplus">
		<polygon  points="10,3.9 10,9.7 4,9.7 4,11.8 10,11.8 10,18.1 12.2,18.1 12.2,11.8 18,11.8 18,9.7 12.2,9.7 
	12.2,3.9 "/>
	</symbol>
	<symbol viewBox="0 0 22 22" id="walletconfirmed">
		
	
	<clipPath id="SVGID_2_">
		<use xlink:href="#SVGID_3_"  style="overflow:visible;"/>
	</clipPath>
	
		<line style="clip-path:url(#SVGID_2_);fill:none;stroke:#2ED8A3;stroke-width:2.074;stroke-miterlimit:10;" x1="3.2" y1="10.4" x2="8.9" y2="16.2"/>
	
		<line style="clip-path:url(#SVGID_2_);fill:none;stroke:#2ED8A3;stroke-width:2.074;stroke-miterlimit:10;" x1="8.2" y1="16.9" x2="18.8" y2="6.2"/>

	</symbol>

</svg>
