<svg viewBox="0 0 30.171 30.171" xmlns="http://www.w3.org/2000/svg"><path d="m0 0h30.171v30.171h-30.171z" fill="none"/><path d="m26.676 67.86h23.467a1.676 1.676 0 0 1 1.676 1.676v17.72a1.676 1.676 0 0 1 -1.676 1.676h-23.467a1.676 1.676 0 0 1 -1.676-1.676v-17.72a1.676 1.676 0 0 1 1.676-1.676z" fill="#3d5873" transform="translate(-23.324 -63.31)"/><path d="m26.605 96.43h23.61a1.605 1.605 0 0 1 1.605 1.605v15.947a1.605 1.605 0 0 1 -1.605 1.605h-23.61a1.605 1.605 0 0 1 -1.605-1.605v-15.948a1.6 1.6 0 0 1 1.605-1.604z" fill="#c2c9d0" transform="translate(-23.324 -89.964)"/><g fill="#3d5873"><path d="m139.29 210.72v5.747h1.916v-5.747z" transform="translate(-129.951 -196.592)"/><path d="m55.486 189.8v-5.747h3.832v-1.913h-5.748v9.578h5.747v-1.918z" transform="translate(-49.978 -169.928)"/><path d="m13.17 16.037h1.916v1.916h-1.916z"/><path d="m17.002 16.037h1.916v1.916h-1.916z"/><path d="m20.833 16.037h1.916v1.916h-1.916z"/><path d="m24.664 16.037h1.916v1.916h-1.916z"/></g></svg>