<svg viewBox="0 0 12.009 9.436" xmlns="http://www.w3.org/2000/svg"><path d="m25.751 67.86h10.507a.75.75 0 0 1 .751.751v7.934a.75.75 0 0 1 -.751.751h-10.507a.75.75 0 0 1 -.751-.751v-7.934a.75.75 0 0 1 .751-.751z" fill="#091440" transform="translate(-25 -67.86)"/><path d="m25.719 96.43h10.571a.719.719 0 0 1 .719.719v7.14a.719.719 0 0 1 -.719.719h-10.571a.719.719 0 0 1 -.719-.719v-7.141a.718.718 0 0 1 .719-.718z" fill="#e9f8fe" transform="translate(-25 -95.572)"/><g fill="#091440"><path d="m139.29 210.72v2.573h.858v-2.573z" transform="translate(-135.859 -206.431)"/><path d="m54.428 185.571v-2.571h1.716v-.858h-2.574v4.289h2.573v-.858h-1.715z" transform="translate(-52.712 -178.709)"/><path d="m5.147 5.144h.858v.858h-.858z"/><path d="m6.862 5.144h.858v.858h-.858z"/><path d="m8.578 5.144h.858v.858h-.858z"/><path d="m10.293 5.144h.858v.858h-.858z"/></g></svg>