<svg viewBox="0 0 19.998 19.998" xmlns="http://www.w3.org/2000/svg"><path d="m0 0h19.998v19.998h-19.998z" fill="none"/><path d="m54.522 115.31h13.333a.952.952 0 0 1 .952.952v10.068a.952.952 0 0 1 -.952.952h-13.333a.952.952 0 0 1 -.952-.952v-10.068a.952.952 0 0 1 .952-.952z" fill="#3d5873" transform="translate(-51.189 -110.186)"/><path d="m54.482 139.8h13.413a.912.912 0 0 1 .912.912v9.06a.912.912 0 0 1 -.912.912h-13.413a.912.912 0 0 1 -.912-.912v-9.061a.912.912 0 0 1 .912-.911z" fill="#c4cbd2" transform="translate(-51.189 -133.588)"/><g fill="#3d5873"><path d="m151.53 237.76v3.265h1.088v-3.265z" transform="translate(-144.796 -227.195)"/><path d="m79.148 217.623v-3.265h2.177v-1.088h-3.265v5.442h3.265v-1.088h-2.177z" transform="translate(-74.591 -203.793)"/><path d="m8.911 11.65h1.088v1.088h-1.088z"/><path d="m11.087 11.65h1.088v1.088h-1.088z"/><path d="m13.264 11.65h1.088v1.088h-1.088z"/><path d="m15.441 11.65h1.088v1.088h-1.088z"/><path d="m214.629 23.286-.008-.02c-.012-.03-.024-.06-.036-.089a5.016 5.016 0 0 0 -1.408-1.895l-.018-.016-.045-.036-.051-.041s-.008 0-.012 0a4.973 4.973 0 0 0 -3.071-1.047 4.993 4.993 0 1 0 4.168 7.751l.011-.018a5.006 5.006 0 0 0 .473-4.588z" transform="translate(-195.871 -19.245)"/></g><g fill="#c4cbd2"><path d="m11.79 5.808h4.798v3.19h-4.798z"/><path d="m271.34 59.552v1.5h.79v-1.5a1.2 1.2 0 0 1 1.2-1.2 1.2 1.2 0 0 1 1.2 1.2v1.5h.79v-1.5a1.993 1.993 0 0 0 -1.99-1.991 1.994 1.994 0 0 0 -1.99 1.991z" transform="translate(-259.129 -54.945)"/></g></svg>