<svg xmlns="http://www.w3.org/2000/svg" viewBox="5358 46 30 30"><defs><style>.a{fill:none;}.b{fill:#8795a3;}.c{fill:#0c1e3e;}.d{fill:#8795a2;}</style></defs><g transform="translate(4999)"><rect class="a" width="30" height="30" transform="translate(359 46)"/><g transform="translate(360.907 49.793)"><g transform="translate(0.007)"><path class="b" d="M28.9,85.08c.007-.027.007-.053.013-.08C28.907,85.027,28.907,85.053,28.9,85.08Z" transform="translate(-28.887 -83.127)"/><path class="c" d="M31.313,63.407l20.193-.74v-3.52A2.252,2.252,0,0,0,49.26,56.9H31.313A2.255,2.255,0,0,0,29.1,58.767C29.28,59.833,30.207,63.407,31.313,63.407Z" transform="translate(-29.073 -56.9)"/><path class="b" d="M28.8,86.573c0-.027.007-.047.007-.073A.3.3,0,0,0,28.8,86.573Z" transform="translate(-28.793 -84.527)"/><path class="b" d="M28.7,88.353a.147.147,0,0,1,.007-.053A.147.147,0,0,0,28.7,88.353Z" transform="translate(-28.7 -86.207)"/><path class="c" d="M351.2,187.58a4.675,4.675,0,0,0,4.673,4.673V182.9A4.676,4.676,0,0,0,351.2,187.58Z" transform="translate(-329.7 -174.5)"/></g><path class="d" d="M52.54,86.967H30.847A2.255,2.255,0,0,1,28.633,85.1h0c-.007.027-.007.053-.013.08v.02c0,.02-.007.047-.007.073a.13.13,0,0,1-.007.047.147.147,0,0,1-.007.053V103.4a2.252,2.252,0,0,0,2.247,2.247H52.54a2.256,2.256,0,0,0,2.247-2.247v-2.413a4.673,4.673,0,1,1,0-9.347V89.227A2.255,2.255,0,0,0,52.54,86.967Z" transform="translate(-28.6 -83.22)"/></g></g></svg>