<svg xmlns="http://www.w3.org/2000/svg" viewBox="0 0 19.998 19.998"><defs><style>.a{fill:none;}.b{fill:#3d5873;}.c{fill:#c4cbd2;}</style></defs><g transform="translate(-379.313 -399.689)"><g transform="translate(379.313 399.689)"><rect class="a" width="19.998" height="19.998"/><g transform="translate(2.381 5.124)"><path class="b" d="M54.522,115.31H67.855a.952.952,0,0,1,.952.952V126.33a.952.952,0,0,1-.952.952H54.522a.952.952,0,0,1-.952-.952V116.262A.952.952,0,0,1,54.522,115.31Z" transform="translate(-53.57 -115.31)"/><g transform="translate(0 1.088)"><path class="c" d="M54.482,139.8H67.895a.912.912,0,0,1,.912.912v9.06a.912.912,0,0,1-.912.912H54.482a.912.912,0,0,1-.912-.912v-9.061A.912.912,0,0,1,54.482,139.8Z" transform="translate(-53.57 -139.8)"/></g><g transform="translate(1.088 4.353)"><path class="b" d="M151.53,237.76v3.265h1.088V237.76Z" transform="translate(-148.265 -236.672)"/><path class="b" d="M79.148,217.623v-3.265h2.177V213.27H78.06v5.442h3.265v-1.088H79.148Z" transform="translate(-78.06 -213.27)"/><rect class="b" width="1.088" height="1.088" transform="translate(5.442 2.173)"/><rect class="b" width="1.088" height="1.088" transform="translate(7.618 2.173)"/><rect class="b" width="1.088" height="1.088" transform="translate(9.795 2.173)"/><rect class="b" width="1.088" height="1.088" transform="translate(11.972 2.173)"/></g></g></g><g transform="translate(388.422 400.584)"><path class="b" d="M214.629,23.286l-.008-.02c-.012-.03-.024-.06-.036-.089a5.016,5.016,0,0,0-1.408-1.895l-.018-.016-.045-.036-.051-.041s-.008,0-.012,0a4.973,4.973,0,0,0-3.071-1.047h0a4.993,4.993,0,1,0,4.168,7.751l.011-.018a5.006,5.006,0,0,0,.473-4.588Z" transform="translate(-204.98 -20.14)"/><g transform="translate(2.681 1.72)"><g transform="translate(0 0)"><g transform="translate(0 3.193)"><rect class="c" width="4.798" height="3.19"/></g><g transform="translate(0.421 0)"><path class="c" d="M271.34,59.552v1.5h.79v-1.5a1.2,1.2,0,0,1,1.2-1.2h0a1.2,1.2,0,0,1,1.2,1.2v1.5h.79v-1.5a1.993,1.993,0,0,0-1.99-1.991h0A1.994,1.994,0,0,0,271.34,59.552Z" transform="translate(-271.34 -57.56)"/></g></g></g></g></g></svg>