<?xml version="1.0" encoding="utf-8"?>
<!-- Generator: Adobe Illustrator 16.0.0, SVG Export Plug-In . SVG Version: 6.00 Build 0)  -->
<!DOCTYPE svg PUBLIC "-//W3C//DTD SVG 1.1//EN" "http://www.w3.org/Graphics/SVG/1.1/DTD/svg11.dtd">
<svg version="1.1" id="Layer_1" xmlns="http://www.w3.org/2000/svg" xmlns:xlink="http://www.w3.org/1999/xlink" x="0px" y="0px"
	 width="52px" height="52px" viewBox="0 0 52 52" enable-background="new 0 0 52 52" xml:space="preserve">
<g id="XMLID_6694_">
	<g>
		<path id="XMLID_6891_" fill="#E9F8FE" d="M46.912,42.299c0,2.154-1.746,3.9-3.9,3.9H10.813c-2.154,0-3.9-1.746-3.9-3.9V10.1
			c0-2.154,1.746-3.9,3.9-3.9h32.199c2.154,0,3.9,1.746,3.9,3.9V42.299z"/>
		<g id="XMLID_6803_">
			<path fill="#2970FF" d="M42.25,26c0,0-7.275-10.834-16.25-10.834S9.75,26,9.75,26S17.025,36.832,26,36.832S42.25,26,42.25,26z"/>
		</g>
		<circle id="XMLID_6698_" fill="#E9F8FE" cx="25.999" cy="26" r="6.771"/>
		
			<rect id="XMLID_6695_" x="-6.173" y="24.376" transform="matrix(-0.7071 0.7071 -0.7071 -0.7071 62.7696 26)" fill="#2970FF" width="64.347" height="3.248"/>
	</g>
</g>
<g>
</g>
<g>
</g>
<g>
</g>
<g>
</g>
<g>
</g>
<g>
</g>
<g>
</g>
<g>
</g>
<g>
</g>
<g>
</g>
<g>
</g>
<g>
</g>
<g>
</g>
<g>
</g>
<g>
</g>
</svg>
