<svg xmlns="http://www.w3.org/2000/svg" viewBox="-2410 1222 20 20"><defs><style>.a{fill:none;}.b{fill:#8795a3;}.c{fill:#8997a5;}.d{fill:#c4cbd2;}</style></defs><g transform="translate(-2769 1176)"><rect class="a" width="20" height="20" transform="translate(359 46)"/><g transform="translate(360.271 48.529)"><g transform="translate(0.004)"><path class="b" d="M28.9,85.053c0-.018,0-.036.009-.053C28.9,85.018,28.9,85.036,28.9,85.053Z" transform="translate(-28.891 -83.751)"/><path class="c" d="M30.576,61.238l13.462-.493V58.4a1.5,1.5,0,0,0-1.5-1.5H30.576A1.5,1.5,0,0,0,29.1,58.144C29.22,58.856,29.838,61.238,30.576,61.238Z" transform="translate(-29.082 -56.9)"/><path class="b" d="M28.8,86.549c0-.018,0-.031,0-.049A.2.2,0,0,0,28.8,86.549Z" transform="translate(-28.796 -85.184)"/><path class="b" d="M28.7,88.336a.1.1,0,0,1,0-.036A.1.1,0,0,0,28.7,88.336Z" transform="translate(-28.7 -86.904)"/><path class="c" d="M351.2,186.02a3.116,3.116,0,0,0,3.116,3.116V182.9A3.117,3.117,0,0,0,351.2,186.02Z" transform="translate(-336.867 -177.3)"/></g><path class="d" d="M44.56,86.344H30.1A1.5,1.5,0,0,1,28.622,85.1h0c0,.018,0,.036-.009.053v.013c0,.013,0,.031,0,.049a.087.087,0,0,1,0,.031.1.1,0,0,1,0,.036V97.3a1.5,1.5,0,0,0,1.5,1.5H44.56a1.5,1.5,0,0,0,1.5-1.5V95.691a3.116,3.116,0,0,1,0-6.231V87.851A1.5,1.5,0,0,0,44.56,86.344Z" transform="translate(-28.6 -83.847)"/></g></g></svg>