<svg xmlns="http://www.w3.org/2000/svg" viewBox="0 0 12.009 9.436"><defs><style>.a{fill:#091440;}.b{fill:#e9f8fe;}</style></defs><g transform="translate(-778 -260)"><g transform="translate(778 260)"><path class="a" d="M25.751,67.86H36.258a.75.75,0,0,1,.751.751v7.934a.75.75,0,0,1-.751.751H25.751A.75.75,0,0,1,25,76.545V68.611A.75.75,0,0,1,25.751,67.86Z" transform="translate(-25 -67.86)"/><path class="b" d="M25.719,96.43H36.29a.719.719,0,0,1,.719.719v7.14a.719.719,0,0,1-.719.719H25.719a.719.719,0,0,1-.719-.719V97.148A.718.718,0,0,1,25.719,96.43Z" transform="translate(-25 -95.572)"/><g transform="translate(0.858 3.431)"><path class="a" d="M139.29,210.72v2.573h.858V210.72Z" transform="translate(-136.717 -209.862)"/><path class="a" d="M54.428,185.571V183h1.716v-.858H53.57v4.289h2.573v-.858H54.428Z" transform="translate(-53.57 -182.14)"/><rect class="a" width="0.858" height="0.858" transform="translate(4.289 1.713)"/><rect class="a" width="0.858" height="0.858" transform="translate(6.004 1.713)"/><rect class="a" width="0.858" height="0.858" transform="translate(7.72 1.713)"/><rect class="a" width="0.858" height="0.858" transform="translate(9.435 1.713)"/></g></g></g></svg>