<svg viewBox="5358 46 30 30" xmlns="http://www.w3.org/2000/svg"><path d="m5358 46h30v30h-30z" fill="none"/><path d="m28.9 85.08c.007-.027.007-.053.013-.08-.006.027-.006.053-.013.08z" fill="#8795a3" transform="translate(5331.027 -33.334)"/><path d="m31.313 63.407 20.193-.74v-3.52a2.252 2.252 0 0 0 -2.246-2.247h-17.947a2.255 2.255 0 0 0 -2.213 1.867c.18 1.066 1.107 4.64 2.213 4.64z" fill="#0c1e3e" transform="translate(5330.841 -7.107)"/><path d="m28.8 86.573c0-.027.007-.047.007-.073a.3.3 0 0 0 -.007.073z" fill="#8795a3" transform="translate(5331.121 -34.734)"/><path d="m28.7 88.353a.147.147 0 0 1 .007-.053.147.147 0 0 0 -.007.053z" fill="#8795a3" transform="translate(5331.214 -36.414)"/><path d="m351.2 187.58a4.675 4.675 0 0 0 4.673 4.673v-9.353a4.676 4.676 0 0 0 -4.673 4.68z" fill="#0c1e3e" transform="translate(5030.214 -124.707)"/><path d="m52.54 86.967h-21.693a2.255 2.255 0 0 1 -2.214-1.867c-.007.027-.007.053-.013.08v.02c0 .02-.007.047-.007.073a.13.13 0 0 1 -.007.047.147.147 0 0 1 -.007.053v18.027a2.252 2.252 0 0 0 2.247 2.247h21.694a2.256 2.256 0 0 0 2.247-2.247v-2.413a4.673 4.673 0 1 1 0-9.347v-2.413a2.255 2.255 0 0 0 -2.247-2.26z" fill="#8795a2" transform="translate(5331.307 -33.427)"/></svg>