<svg viewBox="0 0 20.012 20.012" xmlns="http://www.w3.org/2000/svg"><path d="m0 0h20.012v20.012h-20.012z" fill="none"/><path d="m26.112 67.86h15.564a1.112 1.112 0 0 1 1.112 1.112v11.753a1.112 1.112 0 0 1 -1.112 1.112h-15.564a1.112 1.112 0 0 1 -1.112-1.112v-11.753a1.112 1.112 0 0 1 1.112-1.112z" fill="#091440" transform="translate(-23.888 -64.842)"/><path d="m26.065 96.43h15.659a1.065 1.065 0 0 1 1.065 1.065v10.577a1.065 1.065 0 0 1 -1.065 1.065h-15.659a1.065 1.065 0 0 1 -1.065-1.065v-10.578a1.064 1.064 0 0 1 1.065-1.064z" fill="#c4cbd2" transform="translate(-23.888 -92.141)"/><g fill="#091440"><path d="m139.29 210.72v3.812h1.271v-3.812z" transform="translate(-133.095 -201.349)"/><path d="m54.841 187.223v-3.812h2.541v-1.271h-3.812v6.353h3.812v-1.271h-2.541z" transform="translate(-51.187 -174.04)"/><path d="m8.736 10.637h1.271v1.271h-1.271z"/><path d="m11.277 10.637h1.271v1.271h-1.271z"/><path d="m13.818 10.637h1.271v1.271h-1.271z"/><path d="m16.36 10.637h1.271v1.271h-1.271z"/></g></svg>