<svg xmlns="http://www.w3.org/2000/svg" xmlns:xlink="http://www.w3.org/1999/xlink" width="14" height="9.329" viewBox="0 0 14 9.329"><defs><clipPath id="a"><rect width="14" height="9.329" fill="none"/></clipPath></defs><g clip-path="url(#a)"><path d="M-2703.873,4419.11a7.791,7.791,0,0,1-4.949-2.332,14.915,14.915,0,0,1-2.051-2.333h0l0,0a15.151,15.151,0,0,1,2.048-2.328,7.791,7.791,0,0,1,4.949-2.332,7.789,7.789,0,0,1,4.949,2.332,14.917,14.917,0,0,1,2.051,2.333h0l0,0a15.149,15.149,0,0,1-2.048,2.328A7.789,7.789,0,0,1-2703.873,4419.11Zm0-7.583a2.921,2.921,0,0,0-2.918,2.918,2.921,2.921,0,0,0,2.918,2.917,2.921,2.921,0,0,0,2.918-2.917A2.921,2.921,0,0,0-2703.873,4411.527Z" transform="translate(2710.874 -4409.781)" fill="#fff"/></g></svg>