<?xml version="1.0" encoding="utf-8"?>
<!-- Generator: Adobe Illustrator 23.1.1, SVG Export Plug-In . SVG Version: 6.00 Build 0)  -->
<svg version="1.1" id="Layer_1" xmlns="http://www.w3.org/2000/svg" xmlns:xlink="http://www.w3.org/1999/xlink" x="0px" y="0px"
	 viewBox="0 0 450 450" style="enable-background:new 0 0 450 450;" xml:space="preserve">
<style type="text/css">
	.st0{fill:#2970FF;}
	.st1{fill:none;}
	.st2{fill:#FFFFFF;}
</style>
<title>renameButton</title>
<g>
	<g id="Group_2703">
		<path id="Rectangle_1417-2" class="st0" d="M112.3,0.1h225c62.1,0,112.5,50.4,112.5,112.5v225c0,62.1-50.4,112.5-112.5,112.5h-225
			c-62.1,0-112.5-50.4-112.5-112.5v-225C-0.2,50.5,50.2,0.1,112.3,0.1z"/>
	</g>
	<g id="Group_2701">
		<rect id="Rectangle_1754" x="-0.2" y="0.1" class="st1" width="450" height="450"/>
		<g id="Group_2700">
			<path id="Path_975" class="st2" d="M315.7,332.9H117.1V134.3H239l18-18H99V351h234.7V192.8l-18,18L315.7,332.9z"/>
			<path id="Union_1" class="st2" d="M174.9,223.9L309.6,89.2l12.8,12.8l38.2,38.2L226,275l-30.3,6l-33.6,6.7L174.9,223.9z"/>
		</g>
	</g>
</g>
</svg>
