<svg xmlns="http://www.w3.org/2000/svg" viewBox="0 0 14 9.329"><defs><style>.a{fill:#fff;}</style></defs><g transform="translate(-1061.873 -608.22)"><path class="a" d="M-2703.873,4419.11a7.791,7.791,0,0,1-4.949-2.332,14.915,14.915,0,0,1-2.051-2.333h0l0,0a15.151,15.151,0,0,1,2.048-2.328,7.791,7.791,0,0,1,4.949-2.332,7.789,7.789,0,0,1,4.949,2.332,14.917,14.917,0,0,1,2.051,2.333h0l0,0a15.149,15.149,0,0,1-2.048,2.328A7.789,7.789,0,0,1-2703.873,4419.11Zm0-7.583a2.921,2.921,0,0,0-2.918,2.918,2.921,2.921,0,0,0,2.918,2.917,2.921,2.921,0,0,0,2.918-2.917A2.921,2.921,0,0,0-2703.873,4411.527Z" transform="translate(3772.747 -3801.561)"/></g></svg>