<svg xmlns="http://www.w3.org/2000/svg" viewBox="0 0 20.012 20.012"><defs><style>.a{fill:none;}.b{fill:#091440;}.c{fill:#c4cbd2;}</style></defs><g transform="translate(-378.816 -244.988)"><g transform="translate(378.816 244.988)"><rect class="a" width="20.012" height="20.012"/><g transform="translate(1.112 3.018)"><path class="b" d="M26.112,67.86H41.676a1.112,1.112,0,0,1,1.112,1.112V80.725a1.112,1.112,0,0,1-1.112,1.112H26.112A1.112,1.112,0,0,1,25,80.725V68.972A1.112,1.112,0,0,1,26.112,67.86Z" transform="translate(-25 -67.86)"/><path class="c" d="M26.065,96.43H41.724a1.065,1.065,0,0,1,1.065,1.065v10.577a1.065,1.065,0,0,1-1.065,1.065H26.065A1.065,1.065,0,0,1,25,108.072V97.494A1.064,1.064,0,0,1,26.065,96.43Z" transform="translate(-25 -95.159)"/><g transform="translate(1.271 5.082)"><path class="b" d="M139.29,210.72v3.812h1.271V210.72Z" transform="translate(-135.478 -209.449)"/><path class="b" d="M54.841,187.223v-3.812h2.541V182.14H53.57v6.353h3.812v-1.271H54.841Z" transform="translate(-53.57 -182.14)"/><rect class="b" width="1.271" height="1.271" transform="translate(6.353 2.537)"/><rect class="b" width="1.271" height="1.271" transform="translate(8.894 2.537)"/><rect class="b" width="1.271" height="1.271" transform="translate(11.435 2.537)"/><rect class="b" width="1.271" height="1.271" transform="translate(13.977 2.537)"/></g></g></g></g></svg>