<svg xmlns="http://www.w3.org/2000/svg" viewBox="0 0 14 7.965"><defs><style>.a{fill:#fff;}</style></defs><g transform="translate(-1032 -609)"><path class="a" d="M636.379,293.8h1.609l3.3,7.8h-1.77l-.724-1.77h-3.3l-.724,1.77H633Zm1.77,4.506-1.046-2.494-1.046,2.494Z" transform="translate(399 315.2)"/><path class="a" d="M643.5,300.364h0c0-1.287.966-1.931,2.414-1.931a3.9,3.9,0,0,1,1.448.241v-.08c0-.724-.4-1.046-1.287-1.046a4.761,4.761,0,0,0-1.609.322l-.4-1.287a4.8,4.8,0,0,1,2.333-.483,2.865,2.865,0,0,1,2.011.644,2.565,2.565,0,0,1,.644,1.931v3.46h-1.609v-.644a2.137,2.137,0,0,1-1.77.724C644.466,302.134,643.5,301.491,643.5,300.364Zm3.943-.4v-.322a2.227,2.227,0,0,0-1.046-.241c-.724,0-1.126.322-1.126.8h0c0,.483.4.724.885.724A1.082,1.082,0,0,0,647.442,299.962Z" transform="translate(396.948 314.75)"/></g></svg>