<svg xmlns="http://www.w3.org/2000/svg" width="20.004" height="20.004" viewBox="0 0 20.004 20.004"><g transform="translate(-595.816 -891)"><g transform="translate(595.816 891)"><rect width="20.004" height="20.004" fill="none"/><g transform="translate(1.111 3.017)"><path d="M26.111,67.86H41.67a1.111,1.111,0,0,1,1.111,1.111V80.72a1.111,1.111,0,0,1-1.111,1.111H26.111A1.111,1.111,0,0,1,25,80.72V68.971A1.111,1.111,0,0,1,26.111,67.86Z" transform="translate(-25 -67.86)" fill="#2f4d8c"/><path d="M26.064,96.43H41.717a1.064,1.064,0,0,1,1.064,1.064v10.573a1.064,1.064,0,0,1-1.064,1.064H26.064A1.064,1.064,0,0,1,25,108.067V97.494A1.064,1.064,0,0,1,26.064,96.43Z" transform="translate(-25 -95.16)" fill="#99c1e3"/><g transform="translate(1.27 5.08)"><path d="M139.29,210.72v3.81h1.27v-3.81Z" transform="translate(-135.48 -209.45)" fill="#2f4d8c"/><path d="M54.84,187.22v-3.81h2.54v-1.27H53.57v6.35h3.81v-1.27H54.84Z" transform="translate(-53.57 -182.14)" fill="#2f4d8c"/><rect width="1.27" height="1.27" transform="translate(6.35 2.536)" fill="#2f4d8c"/><rect width="1.27" height="1.27" transform="translate(8.891 2.536)" fill="#2f4d8c"/><rect width="1.27" height="1.27" transform="translate(11.431 2.536)" fill="#2f4d8c"/><rect width="1.27" height="1.27" transform="translate(13.971 2.536)" fill="#2f4d8c"/></g></g></g></g></svg>