<?xml version="1.0" encoding="utf-8"?>
<!-- Generator: Adobe Illustrator 16.0.0, SVG Export Plug-In . SVG Version: 6.00 Build 0)  -->
<!DOCTYPE svg PUBLIC "-//W3C//DTD SVG 1.1//EN" "http://www.w3.org/Graphics/SVG/1.1/DTD/svg11.dtd">
<svg version="1.1" id="Layer_1" xmlns="http://www.w3.org/2000/svg" xmlns:xlink="http://www.w3.org/1999/xlink" x="0px" y="0px"
	 width="52px" height="52px" viewBox="0 0 52 52" enable-background="new 0 0 52 52" xml:space="preserve">
<g>
	<g>
		<path id="XMLID_7063_" fill="#E9F8FE" d="M46,42.1c0,2.154-1.746,3.9-3.9,3.9H9.9C7.746,46,6,44.254,6,42.1V9.9
			C6,7.746,7.746,6,9.9,6H42.1C44.254,6,46,7.746,46,9.9V42.1z"/>
		<g id="XMLID_7043_">
			<path id="XMLID_7058_" fill="#2970FF" d="M16.497,16h3.912l8.263,20h-4.435l-1.764-4h-8.152l-1.762,4H8.235L16.497,16z
				 M20.959,28l-2.561-6.254L15.836,28H20.959z"/>
			<path id="XMLID_7044_" fill="#2970FF" d="M29.432,31.293v-0.055c0-3.223,2.674-4.711,6.172-4.711
				c1.486,0,1.828,0.248,3.828,0.605v-0.246c0-1.736-1.4-2.699-3.494-2.699c-1.598,0-2.891,0.301-4.238,0.797l-1.129-3.195
				c1.625-0.715,3.182-1.184,5.688-1.184c2.285,0,4.234,0.605,5.281,1.652c1.102,1.102,1.893,2.727,1.893,4.711V36h-4v-2.063
				c-2,1.129-2.658,1.871-4.697,1.871C31.953,35.809,29.432,34.211,29.432,31.293z M39.432,30.328v-0.742
				c-2-0.332-1.871-0.553-2.889-0.553c-1.791,0-3.111,0.717-3.111,2.039v0.055c0,1.129,1.154,1.791,2.504,1.791
				C37.893,32.918,39.432,31.844,39.432,30.328z"/>
		</g>
	</g>
</g>
<g>
</g>
<g>
</g>
<g>
</g>
<g>
</g>
<g>
</g>
<g>
</g>
<g>
</g>
<g>
</g>
<g>
</g>
<g>
</g>
<g>
</g>
<g>
</g>
<g>
</g>
<g>
</g>
<g>
</g>
</svg>
