<svg viewBox="0 0 14 7.965" xmlns="http://www.w3.org/2000/svg"><g fill="#fff"><path d="m636.379 293.8h1.609l3.3 7.8h-1.77l-.724-1.77h-3.3l-.724 1.77h-1.77zm1.77 4.506-1.046-2.494-1.046 2.494z" transform="translate(-633 -293.8)"/><path d="m643.5 300.364c0-1.287.966-1.931 2.414-1.931a3.9 3.9 0 0 1 1.448.241v-.08c0-.724-.4-1.046-1.287-1.046a4.761 4.761 0 0 0 -1.609.322l-.4-1.287a4.8 4.8 0 0 1 2.333-.483 2.865 2.865 0 0 1 2.011.644 2.565 2.565 0 0 1 .644 1.931v3.46h-1.609v-.644a2.137 2.137 0 0 1 -1.77.724c-1.209-.081-2.175-.724-2.175-1.851zm3.943-.4v-.322a2.227 2.227 0 0 0 -1.046-.241c-.724 0-1.126.322-1.126.8 0 .483.4.724.885.724a1.082 1.082 0 0 0 1.286-.963z" transform="translate(-635.052 -294.25)"/></g></svg>