<svg enable-background="new 0 0 52 52" height="52" viewBox="0 0 52 52" width="52" xmlns="http://www.w3.org/2000/svg"><path d="m46 42.1c0 2.154-1.746 3.9-3.9 3.9h-32.2c-2.154 0-3.9-1.746-3.9-3.9v-32.2c0-2.154 1.746-3.9 3.9-3.9h32.2c2.154 0 3.9 1.746 3.9 3.9z" fill="#e9f8fe"/><g fill="#2970ff"><path d="m10 36h32v2h-32z"/><path d="m24 0h4v30h-4z"/><path d="m16.137 24.93h13v3.25h-13z" transform="matrix(.707 .7072 -.7072 .707 25.411 -8.2289)"/><path d="m23.031 24.93h13v3.25h-13z" transform="matrix(-.707 .7072 -.7072 -.707 69.1898 24.4457)"/></g></svg>