<svg xmlns="http://www.w3.org/2000/svg" viewBox="0 0 16 16"><defs><style>.a{fill:#8997a6;}.b{fill:none;}.c{fill:#c4cbd2;}</style></defs><g transform="translate(-262 -53)"><path class="a" d="M41.125,65.8V56.789a1,1,0,0,0-2,0v.017h-8v-.017a1,1,0,0,0-2,0V65.8h-1v2H42.124v-2Zm-2-3h-8v-2h8Zm0-5v2h-8v-2Zm-8,5.994h8v2h-8Z" transform="translate(234.873 -0.801)"/><rect class="b" width="16" height="16" transform="translate(262 53)"/><g transform="translate(266.017 55.474)"><path class="c" d="M114.061,71.666a1.028,1.028,0,0,0,0-2.056h0a1.045,1.045,0,0,0-.249.03l-.009,0a1.029,1.029,0,0,0,0,1.991l.009,0a1.027,1.027,0,0,0,.249.03Z" transform="translate(-113.03 -69.61)"/></g><g transform="translate(268.037 55.474)"><path class="c" d="M170.9,71.666a1.028,1.028,0,0,0,0-2.056h0a1.045,1.045,0,0,0-.249.03l-.009,0a1.029,1.029,0,0,0,0,1.991l.009,0a1.027,1.027,0,0,0,.249.03Z" transform="translate(-169.87 -69.61)"/></g><g transform="translate(269.975 58.473)"><path class="c" d="M225.431,156.036a1.028,1.028,0,0,0,0-2.056h0a1.044,1.044,0,0,0-.249.03l-.009,0a1.029,1.029,0,0,0,0,1.991l.009,0a1.027,1.027,0,0,0,.249.03Z" transform="translate(-224.4 -153.98)"/></g><g transform="translate(271.996 58.473)"><path class="c" d="M282.272,156.036a1.028,1.028,0,0,0,0-2.056h0a1.044,1.044,0,0,0-.249.03l-.009,0a1.029,1.029,0,0,0,0,1.991l.009,0a1.027,1.027,0,0,0,.249.03Z" transform="translate(-281.24 -153.98)"/></g><g transform="translate(265.993 61.472)"><path class="c" d="M113.371,240.416a1.028,1.028,0,0,0,0-2.056h0a1.045,1.045,0,0,0-.249.03l-.009,0a1.029,1.029,0,0,0,0,1.991l.009,0a1.027,1.027,0,0,0,.249.03Z" transform="translate(-112.34 -238.36)"/></g><g transform="translate(268.013 61.472)"><path class="c" d="M170.211,240.416a1.028,1.028,0,0,0,0-2.056h0a1.045,1.045,0,0,0-.249.03l-.009,0a1.029,1.029,0,0,0,0,1.991l.009,0a1.027,1.027,0,0,0,.249.03Z" transform="translate(-169.18 -238.36)"/></g></g></svg>