<svg viewBox="0 0 16 16" xmlns="http://www.w3.org/2000/svg"><path d="m41.125 65.8v-9.011a1 1 0 0 0 -2 0v.017h-8v-.017a1 1 0 0 0 -2 0v9.011h-1v2h13.999v-2zm-2-3h-8v-2h8zm0-5v2h-8v-2zm-8 5.994h8v2h-8z" fill="#8997a6" transform="translate(-27.127 -53.801)"/><path d="m0 0h16v16h-16z" fill="none"/><g fill="#c4cbd2"><path d="m114.061 71.666a1.028 1.028 0 0 0 0-2.056 1.045 1.045 0 0 0 -.249.03h-.009a1.029 1.029 0 0 0 0 1.991h.009a1.027 1.027 0 0 0 .249.03z" transform="translate(-109.013 -67.136)"/><path d="m170.9 71.666a1.028 1.028 0 0 0 0-2.056 1.045 1.045 0 0 0 -.249.03h-.009a1.029 1.029 0 0 0 0 1.991h.009a1.027 1.027 0 0 0 .249.03z" transform="translate(-163.833 -67.136)"/><path d="m225.431 156.036a1.028 1.028 0 0 0 0-2.056 1.044 1.044 0 0 0 -.249.03h-.009a1.029 1.029 0 0 0 0 1.991h.009a1.027 1.027 0 0 0 .249.03z" transform="translate(-216.425 -148.507)"/><path d="m282.272 156.036a1.028 1.028 0 0 0 0-2.056 1.044 1.044 0 0 0 -.249.03h-.009a1.029 1.029 0 0 0 0 1.991h.009a1.027 1.027 0 0 0 .249.03z" transform="translate(-271.244 -148.507)"/><path d="m113.371 240.416a1.028 1.028 0 0 0 0-2.056 1.045 1.045 0 0 0 -.249.03h-.009a1.029 1.029 0 0 0 0 1.991h.009a1.027 1.027 0 0 0 .249.03z" transform="translate(-108.347 -229.888)"/><path d="m170.211 240.416a1.028 1.028 0 0 0 0-2.056 1.045 1.045 0 0 0 -.249.03h-.009a1.029 1.029 0 0 0 0 1.991h.009a1.027 1.027 0 0 0 .249.03z" transform="translate(-163.167 -229.888)"/></g></svg>