<svg viewBox="0 0 10.001 10.001" xmlns="http://www.w3.org/2000/svg"><path d="m0 0h10.001v10.001h-10.001z" fill="none"/><path d="m1.111 6.668h7.778v1.111h-7.778z" fill="#e9f8fe"/><path d="m78.324 25a2.232 2.232 0 0 0 -2.232 2.232v.661a3.794 3.794 0 0 1 -1.092 2.659h6.667a3.794 3.794 0 0 1 -1.111-2.683v-.641a2.232 2.232 0 0 0 -2.232-2.228z" fill="#e9f8fe" transform="translate(-73.333 -24.444)"/><path d="m176.111 376.111a1.111 1.111 0 0 0 1.111-1.111h-2.222a1.111 1.111 0 0 0 1.111 1.111z" fill="#1b41b3" transform="translate(-171.111 -366.666)"/></svg>