<svg xmlns="http://www.w3.org/2000/svg" viewBox="0 0 10.001 10.001"><defs><style>.a{fill:none;}.b{fill:#e9f8fe;}.c{fill:#1b41b3;}</style></defs><g transform="translate(-36 -186)"><rect class="a" width="10.001" height="10.001" transform="translate(36 186)"/><g transform="translate(37.111 186.556)"><g transform="translate(0 6.112)"><rect class="b" width="7.778" height="1.111"/></g><g transform="translate(0.556)"><path class="b" d="M78.324,25h0a2.232,2.232,0,0,0-2.232,2.232v.661A3.794,3.794,0,0,1,75,30.552l0,0h6.667a3.794,3.794,0,0,1-1.111-2.683v-.641A2.232,2.232,0,0,0,78.324,25Z" transform="translate(-75 -25)"/></g><path class="c" d="M176.111,376.111h0A1.111,1.111,0,0,0,177.222,375H175A1.111,1.111,0,0,0,176.111,376.111Z" transform="translate(-172.222 -367.222)"/></g></g></svg>