<svg viewBox="0 0 12 12" xmlns="http://www.w3.org/2000/svg"><path d="m0 4h12v8h-12z" fill="#8997a5"/><path d="m2 6h8v4h-8z" fill="#c4cbd2"/><path d="m5 7.028h2v4.16h-2z" fill="#8997a5"/><path d="m81 150a3 3 0 0 1 -6 0" fill="#c4cbd2" transform="translate(-72 -144)"/><path d="m81 125.1a3 3 0 1 1 -6 0" fill="#8997a5" transform="translate(-72 -120.096)"/><g fill="#c4cbd2"><circle cx="6" cy="5.528" r=".5"/><path d="m138.5 139.7h-1l.248-1.5h.5z" transform="translate(-132 -132.672)"/><path d="m0 .512h12v3.488h-12z"/></g><g fill="#8997a5"><path d="m0 0h2v4.16h-2z"/><path d="m5 0h2v4.16h-2z"/><path d="m10 0h2v4.16h-2z"/></g></svg>