<svg xmlns="http://www.w3.org/2000/svg" viewBox="15917.16 378 16 16"><defs><style>.a{fill:#f7f8f9;}.b{fill:#fff;}</style></defs><g transform="translate(15795)"><rect class="a" width="7.52" height="1" transform="translate(122.16 383.72)"/><path class="b" d="M7.52,170.516V168H0v3.52H7.52Z" transform="translate(122.16 216.72)"/><rect class="a" width="7.48" height="1" transform="translate(130.68 383.72)"/><path class="b" d="M220.48,170.516V168H213v3.52h7.48Z" transform="translate(-82.32 216.72)"/><rect class="a" width="7.52" height="1" transform="translate(122.16 389.48)"/><path class="b" d="M0,314.508v1.012H7.52V312H0Z" transform="translate(122.16 78.48)"/><rect class="a" width="7.48" height="1" transform="translate(130.68 389.48)"/><path class="b" d="M220.48,314.508V312H213v3.52h7.48Z" transform="translate(-82.32 78.48)"/><path class="a" d="M16,1V0H0V1H16Z" transform="translate(122.16 378)"/><path class="b" d="M16,27.488V25H0v3.48H16Z" transform="translate(122.16 354)"/></g></svg>