<svg xmlns="http://www.w3.org/2000/svg" width="22" height="22" viewBox="0 0 22 22"><rect width="9.191" height="2.176" transform="translate(1.223 8.213)" fill="#2f4d8c"/><rect width="9.142" height="2.176" transform="translate(11.636 8.213)" fill="#2f4d8c"/><rect width="9.191" height="2.469" transform="translate(1.223 15.253)" fill="#2f4d8c"/><rect width="9.142" height="2.469" transform="translate(11.636 15.253)" fill="#2f4d8c"/><path d="M0,0H19.556V2.444H0Z" transform="translate(1.223 1.222)" fill="#2f4d8c"/><rect width="9.191" height="4.302" transform="translate(1.223 9.436)" fill="#99c1e3"/><rect width="9.142" height="4.302" transform="translate(11.636 9.436)" fill="#99c1e3"/><path d="M224.413-83.934h-9.191v3.08a1.222,1.222,0,0,0,1.222,1.222h7.969Z" transform="translate(-214 100.409)" fill="#99c1e3"/><rect width="9.142" height="4.302" transform="translate(11.636 16.476)" fill="#99c1e3"/><g transform="translate(-214 100.409)"><rect width="19.556" height="4.278" transform="translate(215.222 -97.965)" fill="#99c1e3"/><rect width="22" height="22" transform="translate(214 -100.409)" fill="none"/></g><g transform="translate(-214 100.409)"><circle cx="4.883" cy="4.883" r="4.883" transform="translate(214 -88.174)" fill="#2f4d8c"/><path d="M221.043-85.156l-2.593,2.593-1.729-1.728-.864.864,2.593,2.593,3.457-3.457Z" fill="#99c1e3"/></g></svg>