<svg xmlns="http://www.w3.org/2000/svg" viewBox="0 0 12 12"><defs><style>.a{fill:#8997a5;}.b{fill:#c4cbd2;}</style></defs><g transform="translate(-909.605 -430.605)"><rect class="a" width="12" height="8" transform="translate(909.605 434.605)"/><rect class="b" width="8" height="4" transform="translate(911.605 436.605)"/><rect class="a" width="2" height="4.16" transform="translate(914.605 437.633)"/><path class="b" d="M81,150a3,3,0,0,1-6,0" transform="translate(837.605 286.605)"/><path class="a" d="M81,125.1a3,3,0,1,1-6,0" transform="translate(837.605 310.509)"/><circle class="b" cx="0.5" cy="0.5" r="0.5" transform="translate(915.105 435.633)"/><path class="b" d="M138.5,139.7h-1l.248-1.5h.5Z" transform="translate(777.605 297.933)"/><rect class="b" width="12" height="3.488" transform="translate(909.605 431.117)"/><rect class="a" width="2" height="4.16" transform="translate(909.605 430.605)"/><rect class="a" width="2" height="4.16" transform="translate(914.605 430.605)"/><rect class="a" width="2" height="4.16" transform="translate(919.605 430.605)"/></g></svg>