<svg xmlns="http://www.w3.org/2000/svg" viewBox="0 0 40 40"><defs><style>.a{fill:none;}.b{fill:#c4cbd2;}.c{fill:#091440;}</style></defs><g transform="translate(1393 2253)"><g transform="translate(-1393 -2253)"><path class="a" d="M74.9,358l.782.791Z" transform="translate(-68.242 -326.178)"/><g transform="translate(15.653 11.884)"><path class="b" d="M176.1,134.073q.36-.2.747-.373a5.852,5.852,0,0,0-.747.373Z" transform="translate(-176.1 -133.7)"/></g><g transform="translate(2.222 17.244)"><path class="b" d="M32,194H25v7.822h7.831A11.237,11.237,0,0,1,31.64,196.8v-.018A11.926,11.926,0,0,1,32,194Z" transform="translate(-25 -194)"/></g><g transform="translate(29.973 15.022)"><path class="b" d="M338.427,174.013h0a11.273,11.273,0,0,1-1.227,5.031H345V169h-7.8a11.063,11.063,0,0,1,.791,1.991,11.285,11.285,0,0,1,.436,3.022Z" transform="translate(-337.2 -169)"/></g><g transform="translate(2.222 30.044)"><path class="b" d="M60.556,338H47.7a11.109,11.109,0,0,1-9.831,0h-3.52l-3.36,3.351-.782-.791-.782-.782h0l1.8-1.778H25v7.733H60.556Z" transform="translate(-25 -338)"/></g><g transform="translate(11.093 15.378)"><path class="b" d="M129.262,182.653V173h-3.12a8.746,8.746,0,0,0-1.342,4.676,8.9,8.9,0,0,0,4.462,7.707v-2.729Z" transform="translate(-124.8 -173)"/></g><g transform="translate(24.444 15.378)"><path class="b" d="M275,182.653v2.738a8.914,8.914,0,0,0,4.48-7.716A8.662,8.662,0,0,0,278.147,173H275v9.653Z" transform="translate(-275 -173)"/></g><path class="a" d="M188.551,134.216a8.925,8.925,0,0,1-4.48,7.716V126.464c0-.018-.044-.027-.071-.044-.24-.133-.48-.258-.738-.373h0c-.08-.036-.169-.071-.258-.107H183a2.21,2.21,0,0,0-.258-.1h-.009c-.08-.027-.169-.062-.249-.089a.031.031,0,0,1-.018-.009c-.08-.027-.16-.053-.249-.08-.009,0-.018-.009-.036-.009-.08-.027-.16-.044-.24-.071-.018,0-.027-.009-.044-.009l-.231-.053c-.018,0-.036-.009-.053-.009a1.966,1.966,0,0,0-.222-.044c-.027-.009-.044-.009-.071-.018-.071-.009-.142-.027-.213-.036-.027-.009-.062-.009-.089-.018l-.2-.027a.47.47,0,0,0-.116-.009,1.2,1.2,0,0,0-.178-.018.673.673,0,0,0-.133-.009c-.053,0-.107-.009-.151-.009-.062,0-.116-.009-.178-.009-.036,0-.08-.009-.116-.009-.1,0-.2-.009-.3-.009s-.2,0-.3.009a.507.507,0,0,0-.116.009c-.062,0-.116.009-.178.009s-.107.009-.151.009-.089.009-.133.009c-.062.009-.116.009-.178.018a.47.47,0,0,1-.116.009l-.2.027c-.027.009-.062.009-.089.018-.071.009-.142.027-.213.036-.027.009-.044.009-.071.018-.071.018-.151.027-.222.044-.018,0-.036.009-.053.009l-.231.053c-.018,0-.027.009-.044.009a2.45,2.45,0,0,0-.24.071c-.009,0-.018.009-.027.009l-.249.08a.031.031,0,0,0-.018.009c-.089.027-.169.062-.249.089h-.009c-.089.036-.169.062-.258.1h-.009c-.089.036-.169.071-.258.107h0q-.387.173-.747.373c-.027.018-.089.027-.089.044v15.458c.009,0,.009.009.018.009.027.018.053.027.08.044l.24.133h0c.08.044.16.08.249.124h0c.08.044.169.08.249.116h0c.08.036.169.071.249.107h.009c.08.036.169.071.249.1.009,0,.009,0,.018.009.08.027.169.062.249.089.009,0,.018.009.027.009.08.027.16.053.249.08.009,0,.018.009.036.009.08.027.16.044.24.071.018,0,.027.009.044.009l.231.053a.113.113,0,0,0,.053.009,1.962,1.962,0,0,0,.222.044c.027.009.053.009.071.018.071.009.142.027.2.036.027.009.062.009.089.018l.2.027a.469.469,0,0,0,.116.009,1.206,1.206,0,0,0,.178.018.673.673,0,0,0,.133.009c.053,0,.107.009.151.009.062,0,.116.009.178.009.044,0,.08.009.124.009.1,0,.2.009.3.009s.2,0,.3-.009a.586.586,0,0,0,.124-.009c.062,0,.116-.009.178-.009s.107-.009.151-.009.089-.009.133-.009c.062-.009.116-.009.178-.018a.469.469,0,0,1,.116-.009l.2-.027c.027-.009.062-.009.089-.018.071-.009.142-.027.2-.036.027-.009.053-.009.071-.018.071-.018.151-.027.222-.044.018,0,.036-.009.053-.009l.231-.053c.018,0,.027-.009.044-.009a2.454,2.454,0,0,0,.24-.071c.009,0,.018-.009.036-.009.08-.027.16-.053.249-.08a.031.031,0,0,0,.018-.009c.08-.027.169-.062.249-.089.009,0,.009,0,.018-.009.089-.036.169-.062.249-.1h.009c.089-.036.169-.071.249-.107h0c.089-.036.169-.08.249-.116h0c.08-.044.169-.08.249-.124h0c.08-.044.16-.08.24-.124.027-.018.053-.027.08-.044a8.9,8.9,0,0,0,4.471-7.724,8.586,8.586,0,0,0-1.333-4.676A8.662,8.662,0,0,1,188.551,134.216Zm-13.271-7.8h0q.36-.2.747-.373A5.852,5.852,0,0,0,175.28,126.42Z" transform="translate(-159.627 -114.162)"/><rect class="c" width="35.556" height="2.222" transform="translate(2.222 2.222)"/><g transform="translate(2.222 4.444)"><path class="b" d="M42.8,54.444a11.1,11.1,0,0,1,7.973,3.369l.009.009h9.778V50H25v7.822h9.8l.018-.018A11.115,11.115,0,0,1,42.8,54.444Z" transform="translate(-25 -50)"/></g><rect class="a" width="40" height="40"/><path class="c" d="M50.76,118.933a11.125,11.125,0,0,0,3.218-7.778v-.009a11.181,11.181,0,0,0-.373-2.791h6.951v-2.222h-7.8a11.225,11.225,0,0,0-1.973-2.756.031.031,0,0,0-.018-.009,11.13,11.13,0,0,0-15.947-.009l-.018.018a11.824,11.824,0,0,0-1.964,2.756H25v2.222h7a11.047,11.047,0,0,0-.347,2.782v.009a10.981,10.981,0,0,0,1.191,5,11.684,11.684,0,0,0,1.333,2.062l-.729.729H25v2.222h6.222l-1.787,1.778h0l.782.782.782.791,3.36-3.351h3.52a11.109,11.109,0,0,0,9.831,0H60.556v-2.222Zm-3.52-.044c-.027.018-.053.027-.08.044-.08.044-.16.089-.24.124h0c-.08.044-.16.08-.249.124h0c-.08.044-.169.08-.249.116h0c-.08.036-.169.071-.249.107h-.009c-.08.036-.169.071-.249.1-.009,0-.009,0-.018.009-.08.027-.169.062-.249.089a.031.031,0,0,0-.018.009c-.08.027-.16.053-.249.08-.009,0-.018.009-.036.009-.08.027-.16.044-.24.071-.018,0-.027.009-.044.009l-.231.053a.113.113,0,0,1-.053.009,1.964,1.964,0,0,1-.222.044c-.027.009-.053.009-.071.018-.071.009-.142.027-.2.036-.027.009-.062.009-.089.018l-.2.027a.47.47,0,0,1-.116.009,1.2,1.2,0,0,1-.178.018.672.672,0,0,1-.133.009c-.053,0-.107.009-.151.009-.062,0-.116.009-.178.009-.044,0-.08.009-.124.009-.1,0-.2.009-.3.009s-.2,0-.3-.009a.587.587,0,0,1-.124-.009c-.062,0-.116-.009-.178-.009s-.107-.009-.151-.009-.089-.009-.133-.009c-.062-.009-.116-.009-.178-.018a.47.47,0,0,0-.116-.009l-.2-.027c-.027-.009-.062-.009-.089-.018-.071-.009-.142-.027-.2-.036-.027-.009-.053-.009-.071-.018-.071-.018-.151-.027-.222-.044-.018,0-.036-.009-.053-.009l-.231-.053c-.018,0-.027-.009-.044-.009a2.456,2.456,0,0,1-.24-.071c-.009,0-.018-.009-.036-.009-.08-.027-.16-.053-.249-.08-.009,0-.018-.009-.027-.009-.08-.027-.169-.053-.249-.089-.009,0-.009,0-.018-.009-.089-.036-.169-.062-.249-.1h-.009c-.089-.036-.169-.071-.249-.107h0c-.08-.036-.169-.08-.249-.116h0c-.08-.044-.169-.08-.249-.124h0l-.24-.133c-.027-.018-.053-.027-.08-.044-.009,0-.009-.009-.018-.009a8.9,8.9,0,0,1-4.462-7.707,8.668,8.668,0,0,1,1.342-4.676h3.093v-3.076c0-.018.062-.027.089-.044.24-.133.5-.258.747-.373h0c.089-.036.169-.071.258-.107h.009a2.212,2.212,0,0,1,.258-.1H39.7c.08-.027.169-.062.249-.089a.031.031,0,0,0,.018-.009c.08-.027.16-.053.249-.08.009,0,.018-.009.027-.009.08-.027.16-.044.24-.071.018,0,.027-.009.044-.009l.231-.053c.018,0,.036-.009.053-.009a1.966,1.966,0,0,1,.222-.044c.027-.009.044-.009.071-.018.071-.009.142-.027.213-.036.027-.009.062-.009.089-.018l.2-.027a.47.47,0,0,1,.116-.009,1.2,1.2,0,0,1,.178-.018.673.673,0,0,1,.133-.009c.053,0,.107-.009.151-.009.062,0,.116-.009.178-.009.036,0,.08-.009.116-.009.1,0,.2-.009.3-.009s.2,0,.3.009a.507.507,0,0,1,.116.009c.062,0,.116.009.178.009s.107.009.151.009.089.009.133.009c.062.009.116.009.178.018a.47.47,0,0,0,.116.009l.2.027c.027.009.062.009.089.018.071.009.142.027.213.036.027.009.044.009.071.018.071.018.151.027.222.044.018,0,.036.009.053.009l.231.053c.018,0,.027.009.044.009a2.453,2.453,0,0,1,.24.071c.009,0,.018.009.036.009l.249.08a.031.031,0,0,1,.018.009c.089.027.169.062.249.089h.009c.089.036.169.062.258.1h.009c.089.036.169.071.258.107h0c.258.116.5.24.738.373.027.018.071.027.071.044v3.076h3.147a8.746,8.746,0,0,1,1.342,4.676A8.879,8.879,0,0,1,47.24,118.889Z" transform="translate(-22.778 -91.111)"/></g></g></svg>