<svg viewBox="15917.16 378 16 16" xmlns="http://www.w3.org/2000/svg"><path d="m15917.16 383.72h7.52v1h-7.52z" fill="#f7f8f9"/><path d="m7.52 170.516v-2.516h-7.52v3.52h7.52z" fill="#fff" transform="translate(15917.16 216.72)"/><path d="m15925.68 383.72h7.48v1h-7.48z" fill="#f7f8f9"/><path d="m220.48 170.516v-2.516h-7.48v3.52h7.48z" fill="#fff" transform="translate(15712.68 216.72)"/><path d="m15917.16 389.48h7.52v1h-7.52z" fill="#f7f8f9"/><path d="m0 314.508v1.012h7.52v-3.52h-7.52z" fill="#fff" transform="translate(15917.16 78.48)"/><path d="m15925.68 389.48h7.48v1h-7.48z" fill="#f7f8f9"/><path d="m220.48 314.508v-2.508h-7.48v3.52h7.48z" fill="#fff" transform="translate(15712.68 78.48)"/><path d="m16 1v-1h-16v1z" fill="#f7f8f9" transform="translate(15917.16 378)"/><path d="m16 27.488v-2.488h-16v3.48h16z" fill="#fff" transform="translate(15917.16 354)"/></svg>