<svg viewBox="0 0 12 12" fill="none" xmlns="http://www.w3.org/2000/svg">
<path d="M10 4.66699H2V9.99999H10V4.66699Z" fill="#4a72bc"/>
<path d="M8.66601 6H3.33301V8.667H8.66601V6Z" fill="#9ac1e1"/>
<path d="M8 5.33594C8 5.86637 7.78929 6.37508 7.41422 6.75015C7.03914 7.12523 6.53043 7.33594 6 7.33594C5.46957 7.33594 4.96086 7.12523 4.58578 6.75015C4.21071 6.37508 4 5.86637 4 5.33594" fill="#4a72bc"/>
<path d="M5.99999 6.01805C6.1839 6.01805 6.33299 5.86896 6.33299 5.68505C6.33299 5.50114 6.1839 5.35205 5.99999 5.35205C5.81608 5.35205 5.66699 5.50114 5.66699 5.68505C5.66699 5.86896 5.81608 6.01805 5.99999 6.01805Z" fill="#9ac1e1"/>
<path d="M6.334 6.68506H5.66699L5.83199 5.68506H6.16699L6.334 6.68506Z" fill="#9ac1e1"/>
<path d="M10 2.34082H2V4.66582H10V2.34082Z" fill="#9ac1e1"/>
<path d="M3.333 2H2V4.773H3.333V2Z" fill="#4a72bc"/>
<path d="M6.66601 2H5.33301V4.773H6.66601V2Z" fill="#4a72bc"/>
<path d="M9.99999 2H8.66699V4.773H9.99999V2Z" fill="#4a72bc"/>
</svg>
