<svg viewBox="4565 1316 20 20" xmlns="http://www.w3.org/2000/svg"><path d="m4565 1316h20v20h-20z" fill="none"/><path d="m28.333 364.644h-1.111v-1.644h-1.111v1.644h-1.111v1.111h3.333z" fill="#b6ceff" transform="translate(4541.111 969.133)"/><path d="m27.222 152.8v-1.689h1.111v-1.111h-3.333v1.111h1.111v1.689z" fill="#b6ceff" transform="translate(4541.111 1172.667)"/><path d="m27.222 219.667h1.111v-6.667h-3.333v6.667z" fill="#2971ff" transform="translate(4541.111 1112.467)"/><path d="m134.111 288v1.644h-1.111v1.111h3.333v-1.111h-1.111v-1.644z" fill="#b6ceff" transform="translate(4437.911 1040.8)"/><path d="m133 76.111h1.111v1.689h1.111v-1.689h1.111v-1.111h-3.333z" fill="#b6ceff" transform="translate(4437.911 1244.333)"/><path d="m134.111 138h-1.111v6.667h3.333v-6.667z" fill="#2971ff" transform="translate(4437.911 1184.133)"/><path d="m241 239.644v1.111h3.333v-1.111h-1.111v-1.644h-1.111v1.644z" fill="#b6ceff" transform="translate(4334.711 1088.578)"/><path d="m243.222 27.8v-1.689h1.111v-1.111h-3.333v1.111h1.111v1.689z" fill="#b6ceff" transform="translate(4334.711 1292.111)"/><path d="m243.222 94.667h1.111v-6.667h-3.333v6.667z" fill="#2971ff" transform="translate(4334.711 1231.911)"/><path d="m351.111 313v1.644h-1.111v1.111h3.333v-1.111h-1.111v-1.644z" fill="#b6ceff" transform="translate(4230.556 1016.911)"/><path d="m350 101.111h1.111v1.689h1.111v-1.689h1.111v-1.111h-3.333z" fill="#b6ceff" transform="translate(4230.556 1220.444)"/><path d="m351.111 163h-1.111v6.667h3.333v-6.667z" fill="#2971ff" transform="translate(4230.556 1160.244)"/></svg>