<svg viewBox="7169.536 293.253 16 4.291" xmlns="http://www.w3.org/2000/svg"><path d="m1.5 952.4-.824.485.242.436.436.751h-1.354v.97h1.358l-.436.751-.242.412.824.485.242-.412.436-.752.436.752.242.412.824-.485-.242-.412-.436-.751h1.358v-.97h-1.358l.436-.751.242-.436-.824-.485-.242.436-.436.727-.436-.751zm5.818 0-.824.485.242.436.436.751h-1.354v.97h1.358l-.436.751-.242.412.824.485.242-.412.436-.751.436.752.242.412.824-.485-.242-.412-.436-.751h1.358v-.97h-1.358l.436-.751.242-.436-.824-.485-.242.436-.436.751-.436-.751zm5.818 0-.824.485.242.436.436.751h-1.354v.97h1.358l-.436.751-.242.412.824.485.242-.412.436-.752.436.752.242.412.824-.485-.242-.412-.436-.751h1.358v-.97h-1.358l.436-.751.242-.436-.82-.485-.242.436-.436.751-.436-.751z" fill="#fff" transform="translate(7169.536 -659.148)"/></svg>