<svg xmlns="http://www.w3.org/2000/svg" viewBox="7169.536 293.253 16 4.291">
  <defs>
    <style>
      .cls-1 {
        fill: #fff;
      }
    </style>
  </defs>
  <g id="Symbol_32_1" data-name="Symbol 32 – 1" transform="translate(6194.6 -1)">
    <path id="Path_225" data-name="Path 225" class="cls-1" d="M1.5,952.4l-.824.485.242.436.436.751H0v.97H1.358l-.436.751-.242.412.824.485.242-.412.436-.752.436.752.242.412.824-.485-.242-.412-.436-.751H4.364v-.97H3.006l.436-.751.242-.436-.824-.485-.242.436-.436.727-.436-.751Zm5.818,0-.824.485.242.436.436.751H5.818v.97H7.176l-.436.751-.242.412.824.485.242-.412L8,955.527l.436.752.242.412.824-.485-.242-.412-.436-.751h1.358v-.97H8.824l.436-.751.242-.436-.824-.485-.242.436L8,953.588l-.436-.751Zm5.818,0-.824.485.242.436.436.751H11.636v.97h1.358l-.436.751-.242.412.824.485.242-.412.436-.752.436.752.242.412.824-.485-.242-.412-.436-.751H16v-.97H14.642l.436-.751.242-.436L14.5,952.4l-.242.436-.436.751-.436-.751Z" transform="translate(974.936 -658.148)"/>
  </g>
</svg>
