<svg xmlns="http://www.w3.org/2000/svg" viewBox="0 0 30.031 30.031"><defs><style>.a{fill:#c4cbd2;}.b{fill:#091440;}.c{fill:none;}</style></defs><g transform="translate(-792.325 -243.168)"><g transform="translate(793.969 252.738)"><path class="a" d="M36.778,156.276a11.674,11.674,0,0,1-7.132-10.762,11.788,11.788,0,0,1,.189-2.1A10.014,10.014,0,0,0,27.6,159.3l-2.964,2.9H34.65a9.983,9.983,0,0,0,8.671-5.005h-2A11.611,11.611,0,0,1,36.778,156.276Z" transform="translate(-24.64 -143.41)"/></g><path class="b" d="M134.65,24.92a10.013,10.013,0,0,0,0,20.026h10.01l-2.963-2.9A10.012,10.012,0,0,0,134.65,24.92ZM129.645,36.6a1.668,1.668,0,1,1,1.668-1.668A1.668,1.668,0,0,1,129.645,36.6Zm5.005,0a1.668,1.668,0,1,1,1.668-1.668A1.668,1.668,0,0,1,134.65,36.6Zm5.005,0a1.668,1.668,0,1,1,1.668-1.668A1.668,1.668,0,0,1,139.655,36.6Z" transform="translate(676.003 219.911)"/><g transform="translate(808.646 252.833)"><circle class="a" cx="1.668" cy="1.668" r="1.668" transform="translate(0 0.767) rotate(-13.286)"/></g><g transform="translate(803.641 252.833)"><circle class="a" cx="1.668" cy="1.668" r="1.668" transform="translate(0 0.767) rotate(-13.286)"/></g><g transform="translate(813.65 252.832)"><circle class="a" cx="1.668" cy="1.668" r="1.668" transform="translate(0 0.767) rotate(-13.286)"/></g><rect class="c" width="30.031" height="30.031" transform="translate(792.325 243.168)"/></g></svg>