<svg viewBox="0 0 15.961 15.961" xmlns="http://www.w3.org/2000/svg"><g transform="translate(-5433.24 -1824.86)"><path d="m5441.221 1824.86a7.98 7.98 0 1 0 7.98 7.98 7.98 7.98 0 0 0 -7.98-7.98zm-.488 1.761h1v6.225h-1zm4.365 10.1a5.484 5.484 0 1 1 -7.755-7.755l.706.706a4.486 4.486 0 1 0 6.344 0l.7-.705a5.489 5.489 0 0 1 .007 7.749z" fill="#fff"/><g fill="#8997a5"><path d="m5504.463 1928.357a4.486 4.486 0 1 1 -6.344 0l-.706-.705a5.483 5.483 0 1 0 7.754 0z" transform="translate(-60.071 -98.689)"/><path d="m5440.732 1826.621h.998v6.225h-.998z"/></g></g></svg>