<svg viewBox="0 0 40 40" xmlns="http://www.w3.org/2000/svg"><g fill="#091440"><path d="m2.222 35.556h35.556v2.222h-35.556z"/><path d="m6.667 31.111h26.756v2.222h-26.756z"/><path d="m6.667 15.556h3.289v9.351h-3.289z"/><path d="m29.956 15.556h3.378v8.809h-3.378z"/><path d="m24.178 15.556h3.289v4.444h-3.289z"/><path d="m18.311 15.556h3.289v9.733h-3.289z"/><path d="m12.444 15.556h3.378v4.444h-3.378z"/></g><g fill="#c4cbd2"><path d="m6.667 24.365h3.289v4.524h-3.289z"/><path d="m29.956 23.822h3.378v5.067h-3.378z"/><path d="m24.178 18.249h3.289v10.64h-3.289z"/><path d="m18.311 24.489h3.289v4.4h-3.289z"/><path d="m12.444 18.729h3.378v10.16h-3.378z"/></g><path d="m25 33.889v2.222h35.556v-2.222l-17.778-8.889z" fill="#091440" transform="translate(-22.778 -22.778)"/><path d="m0 0h40v40h-40z" fill="none"/></svg>