<svg xmlns="http://www.w3.org/2000/svg" viewBox="0 0 40 40"><defs><style>.a{fill:#091440;}.b{fill:#c4cbd2;}.c{fill:none;}</style></defs><g transform="translate(1733 2145)"><rect class="a" width="35.556" height="2.222" transform="translate(-1730.778 -2109.444)"/><rect class="a" width="26.756" height="2.222" transform="translate(-1726.333 -2113.889)"/><rect class="a" width="3.289" height="9.351" transform="translate(-1726.333 -2129.444)"/><rect class="a" width="3.378" height="8.809" transform="translate(-1703.044 -2129.444)"/><rect class="a" width="3.289" height="4.444" transform="translate(-1708.822 -2129.444)"/><rect class="a" width="3.289" height="9.733" transform="translate(-1714.689 -2129.444)"/><rect class="a" width="3.378" height="4.444" transform="translate(-1720.556 -2129.444)"/><g transform="translate(-1726.333 -2120.635)"><rect class="b" width="3.289" height="4.524"/></g><g transform="translate(-1703.044 -2121.178)"><rect class="b" width="3.378" height="5.067"/></g><g transform="translate(-1708.822 -2126.751)"><rect class="b" width="3.289" height="10.64"/></g><g transform="translate(-1714.689 -2120.511)"><rect class="b" width="3.289" height="4.4"/></g><g transform="translate(-1720.556 -2126.271)"><rect class="b" width="3.378" height="10.16"/></g><g transform="translate(-1733 -2145)"><path class="a" d="M25,33.889v2.222H60.556V33.889L42.778,25Z" transform="translate(-22.778 -22.778)"/><rect class="c" width="40" height="40"/></g></g></svg>