<svg xmlns="http://www.w3.org/2000/svg" viewBox="-264.372 210.202 12.913 10">
  <defs>
    <style>
      .cls-1 {
        fill: #fff;
      }

      .cls-2 {
        fill: #596d81;
      }
    </style>
  </defs>
  <g id="Symbol_11_1" data-name="Symbol 11 – 1" transform="translate(-1230)">
    <path id="XMLID_5_" class="cls-1" d="M6.456,0A6.671,6.671,0,0,0,0,5,6.669,6.669,0,0,0,12.913,5,6.667,6.667,0,0,0,6.456,0Zm0,8.335A3.337,3.337,0,1,1,7.768,1.929,1.252,1.252,0,1,0,9.526,3.687a3.34,3.34,0,0,1-3.07,4.648Z" transform="translate(965.628 210.202)"/>
    <path id="XMLID_2_" class="cls-2" d="M98.925,52.4a1.252,1.252,0,0,1-.777-2.232,3.338,3.338,0,1,0,2.025,3.07,3.36,3.36,0,0,0-.267-1.311A1.257,1.257,0,0,1,98.925,52.4Zm-2.089,1.665a.834.834,0,1,1,.834-.834A.834.834,0,0,1,96.837,54.064Z" transform="translate(875.248 161.967)"/>
    <circle id="XMLID_1_" class="cls-1" cx="0.834" cy="0.834" r="0.834" transform="translate(971.25 214.363)"/>
  </g>
</svg>
