<svg viewBox="-264.372 210.202 12.913 10" xmlns="http://www.w3.org/2000/svg"><path d="m6.456 0a6.671 6.671 0 0 0 -6.456 5 6.669 6.669 0 0 0 12.913 0 6.667 6.667 0 0 0 -6.457-5zm0 8.335a3.337 3.337 0 1 1 1.312-6.406 1.252 1.252 0 1 0 1.758 1.758 3.34 3.34 0 0 1 -3.07 4.648z" fill="#fff" transform="translate(-264.372 210.202)"/><path d="m98.925 52.4a1.252 1.252 0 0 1 -.777-2.232 3.338 3.338 0 1 0 2.025 3.07 3.36 3.36 0 0 0 -.267-1.311 1.257 1.257 0 0 1 -.981.473zm-2.089 1.665a.834.834 0 1 1 .834-.834.834.834 0 0 1 -.833.833z" fill="#596d81" transform="translate(-354.752 161.967)"/><circle cx="-257.916" cy="215.197" fill="#fff" r=".834"/></svg>