<svg viewBox="-170.306 210.798 12.878 10" xmlns="http://www.w3.org/2000/svg"><path d="m121.017 60.8-1.69 1.69a3.33 3.33 0 0 1 -4.359 4.359l-1.368 1.368a6.656 6.656 0 0 0 9.1-4.432 6.623 6.623 0 0 0 -1.683-2.985z" fill="#c4cbd2" transform="translate(-280.126 152.019)"/><path d="m3.111 5.585a3.329 3.329 0 0 1 3.328-3.328 3.364 3.364 0 0 1 1.308.266l1.364-1.364a6.654 6.654 0 0 0 -9.111 4.426 6.649 6.649 0 0 0 1.694 2.995l1.687-1.688a3.3 3.3 0 0 1 -.27-1.307z" fill="#c4cbd2" transform="translate(-170.306 210.216)"/><path d="m226.8 58.7.2-.2a1.563 1.563 0 0 0 -.2.2z" fill="#8795a2" transform="translate(-389.559 154.243)"/><g fill="#a9b4bf"><path d="m155.991 116.219a3.33 3.33 0 0 0 3.068-4.619l-4.359 4.359a3.35 3.35 0 0 0 1.291.26z" transform="translate(-319.859 102.91)"/><path d="m93.5 53.728a3.364 3.364 0 0 0 .266 1.308l4.169-4.169a1.218 1.218 0 0 1 .2-.2 3.292 3.292 0 0 0 -1.308-.266 3.329 3.329 0 0 0 -3.327 3.327z" transform="translate(-260.695 162.073)"/><path d="m0 0h13.31v.832h-13.31z" transform="matrix(.70710678 -.70710678 .70710678 .70710678 -168.85 220.21)"/></g></svg>