<svg xmlns="http://www.w3.org/2000/svg" width="62" height="62" viewBox="0 0 62 62">
  <g id="addWalet" transform="translate(-437 -315.781)">
    <path id="XMLID_7_" d="M349.5,170.911a8.659,8.659,0,0,0,8.611,8.611V162.3A8.659,8.659,0,0,0,349.5,170.911Z" transform="translate(135.653 175.842)" fill="#2970ff"/>
    <path id="XMLID_4_" d="M52.7,174.8a15.493,15.493,0,1,0,15.5,15.5A15.47,15.47,0,0,0,52.7,174.8Zm8.584,17.25H54.395v6.889H50.95V192.05H44.061v-3.444s5.167,1.722,6.889,0,0-6.889,0-6.889h3.444v6.889h6.889Z" transform="translate(404.925 165.064)" fill="#2970ff"/>
    <path id="XMLID_3_" d="M97.333,225H93.889v6.889H87v3.444h6.889v6.889h3.444v-6.889h6.889v-3.444H97.333Z" transform="translate(361.987 121.781)" fill="#e9f8fe"/>
    <g id="Group_792" data-name="Group 792" transform="translate(437 315.781)">
      <path id="XMLID_2_" d="M66.678,56.889h37.172V54.133A4.122,4.122,0,0,0,99.745,50H66.678A4.157,4.157,0,0,0,62.6,53.444,4.168,4.168,0,0,0,66.678,56.889Z" transform="translate(-53.975 -43.111)" fill="#2970ff"/>
      <path id="XMLID_1_" d="M62.024,75a.586.586,0,0,0-.028.152c0,.014-.014.028-.014.041,0,.041-.014.083-.014.124a.175.175,0,0,1-.014.083c0,.028-.028.069-.028.1,0,.069-.028.124-.028.193v18.82a15.531,15.531,0,0,1,24.993,18.38h19.124a4.182,4.182,0,0,0,4.106-4.2V104.25a8.611,8.611,0,1,1,0-17.222v-4.45a4.122,4.122,0,0,0-4.106-4.133H66.061A4.041,4.041,0,0,1,62.052,75h-.028Z" transform="translate(-53.372 -64.667)" fill="#e9f8fe"/>
      <rect id="Rectangle_608" data-name="Rectangle 608" width="62" height="62" fill="none"/>
    </g>
  </g>
</svg>
