<svg xmlns="http://www.w3.org/2000/svg" width="14.928" height="12.46" viewBox="0 0 14.928 12.46"><defs><style>.a{fill:#091440;}</style></defs><path class="a" d="M3.182,3.13,0,0H3.427L8.506,5H5.079A2.472,2.472,0,0,0,3.3,5.718a2.441,2.441,0,0,0,0,3.491,2.472,2.472,0,0,0,1.775.722H6.364L8.873,12.4H5.079A5.025,5.025,0,0,1,0,7.4,4.239,4.239,0,0,1,3.182,3.13Z"/><g transform="translate(6.054)"><path class="a" d="M15.991,9.33l3.182,3.13H15.746l-5.079-5h3.427a2.472,2.472,0,0,0,1.775-.722,2.442,2.442,0,0,0,0-3.491,2.472,2.472,0,0,0-1.775-.722H12.809L10.3,0h3.794a5.026,5.026,0,0,1,5.079,5A4.354,4.354,0,0,1,15.991,9.33Z" transform="translate(-10.3)"/></g></svg>