<?xml version="1.0" encoding="UTF-8" standalone="no"?>
<svg
   xmlns:dc="http://purl.org/dc/elements/1.1/"
   xmlns:cc="http://creativecommons.org/ns#"
   xmlns:rdf="http://www.w3.org/1999/02/22-rdf-syntax-ns#"
   xmlns:svg="http://www.w3.org/2000/svg"
   xmlns="http://www.w3.org/2000/svg"
   id="svg26"
   version="1.1"
   viewBox="0 0 400.00201 400.00201"
   height="400.00201"
   width="400.00201">
  <metadata
     id="metadata32">
    <rdf:RDF>
      <cc:Work
         rdf:about="">
        <dc:format>image/svg+xml</dc:format>
        <dc:type
           rdf:resource="http://purl.org/dc/dcmitype/StillImage" />
        <dc:title>decentralised</dc:title>
      </cc:Work>
    </rdf:RDF>
  </metadata>
  <defs
     id="defs30" />
  <title
     id="title2">decentralised</title>
  <path
     style="fill:#2f4d8c;fill-opacity:1"
     id="path4"
     d="M 199.99001,9.8959911 37.501007,105.02 v 189.973 l 162.489003,94.468 162.511,-94.467 V 105.02 Z m 137.511,256.1050089 -112.757,-66.007 112.757,-66.005 z m -125.011,-219.820009 112.767,66.006009 -112.767,66.014 z m -25,132.006009 -112.747003,-66 L 187.49001,46.186991 Z M 62.501007,133.989 175.25801,199.995 62.501007,266.001 Z M 187.49001,353.276 74.807007,287.765 187.49001,221.801 Z m 25,-131.486 112.7,65.974 -112.7,65.513 z" />
  <circle
     style="fill:#98c1e3;fill-opacity:1"
     id="circle6"
     r="25"
     cy="199.995"
     cx="200.007" />
  <circle
     style="fill:#98c1e3;fill-opacity:1"
     id="circle8"
     r="25"
     cy="375.00201"
     cx="199.99001" />
  <circle
     style="fill:#98c1e3;fill-opacity:1"
     id="circle10"
     r="25"
     cy="287.802"
     cx="50.001007" />
  <circle
     style="fill:#98c1e3;fill-opacity:1"
     id="circle12"
     r="25"
     cy="24.999992"
     cx="199.99001" />
  <circle
     style="fill:#98c1e3;fill-opacity:1"
     id="circle14"
     r="25"
     cy="112.18698"
     cx="50.001007" />
  <circle
     style="fill:#98c1e3;fill-opacity:1"
     id="circle16"
     r="25"
     cy="112.18698"
     cx="350.00101" />
  <circle
     style="fill:#98c1e3;fill-opacity:1"
     id="circle18"
     r="25"
     cy="287.802"
     cx="350.00101" />
  <rect
     width="450"
     height="450"
     id="rect22"
     x="-50"
     y="-24.999008"
     style="fill:none" />
</svg>
