<svg xmlns="http://www.w3.org/2000/svg" viewBox="-4045 40 173.547 32"><defs><style>.a{fill:#2ed7a2;}.b{fill:#2972ff;}.c{fill:#0c1e3e;}</style></defs><g transform="translate(-4085)"><g transform="translate(58.027 40)"><path class="a" d="M75.4,57.627H85.533a6.827,6.827,0,0,0,0-13.653h-3.2L75.4,38H85.533a12.785,12.785,0,0,1,4.8,24.64l8,6.933H89.16Z" transform="translate(-75.4 -38)"/></g><g transform="translate(40 40)"><path class="b" d="M81.433,50.053H71.3a6.827,6.827,0,1,0,0,13.653h3.2l6.933,5.973H71.3a12.785,12.785,0,0,1-4.8-24.64L58.5,38h9.173Z" transform="translate(-58.5 -38)"/></g><path class="c" d="M148.1,59.24h0A10.044,10.044,0,0,1,158.34,49a9.907,9.907,0,0,1,8.32,4.053l-4.053,3.093a5.069,5.069,0,0,0-4.267-2.24,4.838,4.838,0,0,0-4.693,5.12v.107c0,2.88,1.92,5.227,4.693,5.227a5.356,5.356,0,0,0,4.373-2.347l4.053,2.88a9.671,9.671,0,0,1-8.64,4.373A9.882,9.882,0,0,1,148.1,59.24Z" transform="translate(-12.527 2.733)"/><path class="c" d="M167.4,49.3h9.28c2.987,0,5.12.747,6.4,2.133a6.114,6.114,0,0,1,1.707,4.587v.107a6.31,6.31,0,0,1-4.053,6.08l4.693,6.827h-6.293l-3.947-5.973H172.84v5.973H167.4Zm9.067,9.387c1.813,0,2.88-.853,2.88-2.347v-.107c0-1.493-1.173-2.347-2.987-2.347h-3.52V58.58h3.627Z" transform="translate(-11.24 2.753)"/><path class="c" d="M186.1,49.3h15.787v4.587H191.433v2.987h9.387V61.14h-9.387v3.093h10.56V68.82H186.1Z" transform="translate(-9.993 2.753)"/><path class="c" d="M203.7,49.3h7.573c7.04,0,11.093,4.053,11.093,9.707v.107c0,5.653-4.16,9.92-11.2,9.92H203.7Zm7.68,14.72c3.2,0,5.44-1.813,5.44-5.013V58.9c0-3.093-2.133-5.013-5.44-5.013h-2.24V63.913h2.24Z" transform="translate(-8.82 2.753)"/><path class="c" d="M138.32,69.267c-5.76,0-9.92-4.267-9.92-10.133,0-5.76,4.053-10.133,9.493-10.133a8.535,8.535,0,0,1,6.933,3.093,11.683,11.683,0,0,1,2.347,7.36,2.953,2.953,0,0,1-.107.96H132.453v.32a5.823,5.823,0,0,0,5.973,5.227,7.1,7.1,0,0,0,5.333-2.24l2.347,2.027A9.775,9.775,0,0,1,138.32,69.267Zm-.533-16.96c-2.88,0-4.907,2.133-5.44,5.44v.32H143.12v-.32C142.693,54.333,140.667,52.307,137.787,52.307Z" transform="translate(-13.84 2.733)"/><path class="c" d="M116.06,69.813c-4.48,0-8.96-3.52-8.96-10.133s4.48-10.133,8.96-10.133a7.912,7.912,0,0,1,6.613,3.413l.427.533V40.8h4.053V69.387H123.1v-3.84l-.427.64A7.614,7.614,0,0,1,116.06,69.813Zm1.173-16.747c-3.52,0-5.973,2.773-5.973,6.613s2.56,6.613,5.973,6.613,5.973-2.88,5.973-6.613C123.207,55.84,120.647,53.067,117.233,53.067Z" transform="translate(-15.26 2.187)"/></g></svg>