<svg xmlns="http://www.w3.org/2000/svg" viewBox="-1640 870 108.302 20"><defs><style>.a{fill:#152337;}</style></defs><g transform="translate(-1662 850)"><g transform="translate(33.236 20)"><path class="a" d="M55.9,12.241h6.312a4.261,4.261,0,1,0,0-8.523H60.2L55.9,0h6.312a7.992,7.992,0,0,1,3.015,15.4l4.965,4.322H64.5Z" transform="translate(-55.9)"/></g><g transform="translate(22 20)"><path class="a" d="M14.312,7.477H8A4.261,4.261,0,1,0,8,16h2.01l4.3,3.739H8a7.992,7.992,0,0,1-3.015-15.4L0,0H5.709Z"/></g><path class="a" d="M296.6,42.772v-.04a6.262,6.262,0,0,1,6.412-6.332,5.979,5.979,0,0,1,5.166,2.533l-2.533,1.97a3.27,3.27,0,0,0-2.653-1.427,3,3,0,0,0-2.894,3.216v.04a3.015,3.015,0,0,0,2.894,3.256,3.354,3.354,0,0,0,2.754-1.467l2.533,1.809a6.123,6.123,0,0,1-5.387,2.754A6.217,6.217,0,0,1,296.6,42.772Z" transform="translate(-214.982 -9.083)"/><path class="a" d="M360.52,37.2h5.789a5.286,5.286,0,0,1,3.98,1.327,3.787,3.787,0,0,1,1.085,2.854v.04a3.882,3.882,0,0,1-2.513,3.759l2.915,4.261h-3.92l-2.472-3.719H363.9v3.719h-3.4V37.2Zm5.628,5.869c1.146,0,1.829-.563,1.829-1.447v-.04c0-.965-.7-1.447-1.829-1.447h-2.231v2.935Z" transform="translate(-266.038 -9.723)"/><path class="a" d="M422.52,37.2h9.849v2.894h-6.492v1.849h5.889v2.673h-5.889v1.95h6.573v2.894H422.5V37.2Z" transform="translate(-315.575 -9.723)"/><path class="a" d="M480.9,37.2h4.724c4.382,0,6.915,2.513,6.915,6.05v.04c0,3.538-2.573,6.151-6.975,6.151H480.9Zm4.764,9.246c2.03,0,3.377-1.126,3.377-3.1v-.04c0-1.97-1.347-3.1-3.377-3.1h-1.387v6.231Z" transform="translate(-362.237 -9.723)"/><path class="a" d="M237.411,49.123a6.051,6.051,0,0,1-6.211-6.291,6,6,0,0,1,5.91-6.332,5.288,5.288,0,0,1,4.322,1.95,7.281,7.281,0,0,1,1.447,4.6c0,.2-.02.4-.04.623h-9.146l.02.181a3.638,3.638,0,0,0,3.719,3.276,4.537,4.537,0,0,0,3.357-1.427l1.447,1.286A6.017,6.017,0,0,1,237.411,49.123Zm-.322-10.613c-1.769,0-3.1,1.327-3.357,3.4l-.02.181h6.693l-.02-.161C240.165,39.817,238.919,38.51,237.089,38.51Z" transform="translate(-162.728 -9.163)"/><path class="a" d="M166.508,27.39c-2.794,0-5.608-2.171-5.608-6.332s2.834-6.332,5.608-6.332a4.983,4.983,0,0,1,4.121,2.131l.281.362V9.3h2.553V27.149H170.91V24.737l-.281.382A4.831,4.831,0,0,1,166.508,27.39Zm.683-10.492c-2.191,0-3.739,1.709-3.739,4.161,0,2.412,1.568,4.161,3.739,4.161a3.883,3.883,0,0,0,3.759-4.161A3.9,3.9,0,0,0,167.191,16.9Z" transform="translate(-106.558 12.569)"/></g></svg>