<svg xmlns="http://www.w3.org/2000/svg" width="105.83" height="20" viewBox="0 0 105.83 20"><g transform="translate(-148 -1001)"><g transform="translate(148 1001)"><g transform="translate(30.99 2.012)"><path d="M928.339,244.406a3.155,3.155,0,0,1-3.041-3.384v-.035a3.136,3.136,0,0,1,3.041-3.35A3.288,3.288,0,0,1,931,238.983l2.251-1.742a5.717,5.717,0,0,0-4.874-2.31,6,6,0,0,0-6.177,6.091v.034a5.944,5.944,0,0,0,6.039,6.056,5.869,5.869,0,0,0,5.094-2.511l-2.244-1.6A3.356,3.356,0,0,1,928.339,244.406Z" transform="translate(-895.191 -229.124)" fill="#2f4d8c"/><path d="M1081.506,244.313a3.67,3.67,0,0,0,2.392-3.569v-.035a3.57,3.57,0,0,0-1.023-2.7,5.173,5.173,0,0,0-3.831-1.269h-5.564v11.787h3.023v-3.671h1.731l2.442,3.671h3.47l-2.828-4.132Zm-.649-3.361c0,.99-.754,1.606-1.969,1.606H1076.5v-3.246h2.368c1.262,0,1.986.585,1.986,1.606Z" transform="translate(-1033.747 -230.78)" fill="#2f4d8c"/><path d="M1223.042,243.775h5.819v-2.313h-5.819v-2.172h6.425v-2.521h-9.414v11.786h9.5v-2.521h-6.512Z" transform="translate(-1167.989 -230.807)" fill="#2f4d8c"/><path d="M1367.325,238.408a7.189,7.189,0,0,0-4.931-1.64h-4.508v11.786h4.438a7.2,7.2,0,0,0,4.978-1.692,5.581,5.581,0,0,0,1.764-4.236v-.035A5.47,5.47,0,0,0,1367.325,238.408Zm-1.368,4.27c0,1.995-1.345,3.233-3.511,3.233h-1.537v-6.5h1.537c2.165,0,3.511,1.239,3.511,3.234Z" transform="translate(-1294.226 -230.807)" fill="#2f4d8c"/><path d="M773.417,235.083a5.762,5.762,0,0,0-5.671,6.089,6.078,6.078,0,0,0,10.54,4.115l-1.194-1.059a4.618,4.618,0,0,1-3.327,1.35,3.757,3.757,0,0,1-3.844-3.379l-.06-.37h9.09c.012-.146.021-.295.021-.447a7.044,7.044,0,0,0-1.4-4.44A5.138,5.138,0,0,0,773.417,235.083Zm-3.569,5.526.048-.361c.286-2.129,1.658-3.5,3.5-3.5,1.892,0,3.206,1.346,3.429,3.514l.036.352Z" transform="translate(-753.736 -229.263)" fill="#2f4d8c"/><path d="M606.608,171.706c-2.679,0-5.391,2.092-5.391,6.09,0,3.026,1.852,6.09,5.391,6.09a4.611,4.611,0,0,0,3.934-2.173l.58-.818v2.762H613.3V165.911h-2.181v8.576l-.572-.737A4.773,4.773,0,0,0,606.608,171.706Zm4.561,6.09a4.008,4.008,0,0,1-3.885,4.282c-2.238,0-3.862-1.8-3.862-4.282,0-2.521,1.588-4.282,3.862-4.282A4.008,4.008,0,0,1,611.169,177.8Z" transform="translate(-601.217 -165.911)" fill="#2f4d8c"/></g><g transform="translate(0)"><g transform="translate(7.908)"><g transform="translate(2.205)"><path d="M420.871,189" transform="translate(-415.167 -185.046)" fill="#2f4d8c"/><path d="M361.556,156.977l4.794,4.794h-4.715l-7.908-7.908h4.893a3.954,3.954,0,1,0,0-7.908h-1.591L353.074,142h5.368a7.908,7.908,0,0,1,7.908,7.908A7.042,7.042,0,0,1,361.556,156.977Z" transform="translate(-353.074 -142)" fill="#2f4d8c"/></g><g transform="translate(0 15.817)"><path d="M326.871,330" transform="translate(-326.871 -330)" fill="#2f4d8c"/></g></g><path d="M237.666,146.794,232.871,142h4.715l7.908,7.908H240.6a3.954,3.954,0,0,0,0,7.908h1.592l3.954,3.954h-5.368a7.908,7.908,0,0,1-7.908-7.908A7.042,7.042,0,0,1,237.666,146.794Z" transform="translate(-232.871 -142)" fill="#2f4d8c"/></g></g></g></svg>