<svg viewBox="0 0 105.488 20" xmlns="http://www.w3.org/2000/svg"><g fill="#091440"><path d="m4.941 4.949-4.941-4.949h5.337l7.912 7.912h-5.337a3.956 3.956 0 0 0 0 7.912h1.979l3.956 3.956h-5.935a7.914 7.914 0 0 1 -7.912-7.911 6.844 6.844 0 0 1 4.941-6.92z"/><path d="m126.4 14.832 4.949 4.949h-5.339l-7.91-7.912h5.337a3.952 3.952 0 0 0 2.795-6.751 3.9 3.9 0 0 0 -2.795-1.162h-1.978l-3.959-3.956h5.934a7.914 7.914 0 0 1 7.912 7.912 6.841 6.841 0 0 1 -4.946 6.92z" transform="translate(-107.609)"/><path d="m681.1 95.3v-.034a6.187 6.187 0 0 1 6.347-6.266 5.915 5.915 0 0 1 5.109 2.508l-2.508 1.944a3.235 3.235 0 0 0 -2.626-1.414 2.979 2.979 0 0 0 -2.87 3.182v.034a2.98 2.98 0 0 0 2.87 3.215 3.28 3.28 0 0 0 2.719-1.465l2.508 1.785a6.343 6.343 0 0 1 -11.549-3.489z" transform="translate(-623.768 -81.508)"/><path d="m832.3 90.8h5.732a5.293 5.293 0 0 1 3.948 1.313 3.761 3.761 0 0 1 1.077 2.82v.034a3.828 3.828 0 0 1 -2.492 3.721l2.9 4.226h-3.88l-2.441-3.67h-1.473v3.67h-3.359v-12.114zm5.572 5.816c1.145 0 1.8-.556 1.8-1.439v-.034c0-.951-.69-1.439-1.818-1.439h-2.2v2.912z" transform="translate(-762.241 -83.157)"/><path d="m978.7 90.8h9.747v2.854h-6.423v1.835h5.817v2.651h-5.817v1.919h6.507v2.854h-9.831z" transform="translate(-896.318 -83.157)"/><path d="m1116.408 90.8h4.672c4.327 0 6.835 2.492 6.835 5.993v.034c0 3.5-2.542 6.094-6.911 6.094h-4.6v-12.121zm4.722 9.15c2.012 0 3.342-1.111 3.342-3.064v-.034c0-1.936-1.33-3.064-3.342-3.064h-1.372v6.162z" transform="translate(-1022.427 -83.157)"/><path d="m532.936 101.683a6.249 6.249 0 0 1 -.295-12.483 5.309 5.309 0 0 1 4.285 1.919 7.227 7.227 0 0 1 1.439 4.545c0 .2-.017.4-.034.614h-9.057l.025.177a3.6 3.6 0 0 0 3.678 3.241 4.531 4.531 0 0 0 3.325-1.406l1.431 1.271a6.019 6.019 0 0 1 -4.797 2.122zm-.328-10.488c-1.751 0-3.056 1.322-3.333 3.359l-.025.168h6.633l-.017-.168c-.211-2.071-1.457-3.359-3.258-3.359z" transform="translate(-482.456 -81.692)"/><path d="m365.956 42.8c-2.761 0-5.556-2.146-5.556-6.254s2.795-6.254 5.556-6.254a4.927 4.927 0 0 1 4.074 2.108l.269.345v-7.845h2.517v17.668h-2.516v-2.407l-.278.387a4.752 4.752 0 0 1 -4.066 2.252zm.673-10.37c-2.172 0-3.7 1.692-3.7 4.116 0 2.382 1.557 4.116 3.7 4.116a3.845 3.845 0 0 0 3.721-4.116 3.851 3.851 0 0 0 -3.721-4.121z" transform="translate(-330.063 -22.804)"/></g></svg>