<?xml version="1.0" encoding="UTF-8" standalone="no"?>
<svg
   xmlns:dc="http://purl.org/dc/elements/1.1/"
   xmlns:cc="http://creativecommons.org/ns#"
   xmlns:rdf="http://www.w3.org/1999/02/22-rdf-syntax-ns#"
   xmlns:svg="http://www.w3.org/2000/svg"
   xmlns="http://www.w3.org/2000/svg"
   viewBox="0 0 245 245.00006"
   version="1.1"
   id="svg18"
   width="245"
   height="245.00006">
  <metadata
     id="metadata22">
    <rdf:RDF>
      <cc:Work
         rdf:about="">
        <dc:format>image/svg+xml</dc:format>
        <dc:type
           rdf:resource="http://purl.org/dc/dcmitype/StillImage" />
        <dc:title>symbol - positive - bw</dc:title>
      </cc:Work>
    </rdf:RDF>
  </metadata>
  <defs
     id="defs4">
    <style
       id="style2">.a{fill:#fff;opacity:0;}.b{fill:#151640;}</style>
  </defs>
  <title
     id="title6">symbol - positive - bw</title>
  <rect
     class="a"
     width="423"
     height="423"
     id="rect8"
     x="-89"
     y="-88.999969"
     style="opacity:0;fill:#ffffff" />
  <path
     class="b"
     d="M 240,5.0000308 V 52.000031 h -23.5 c -30.7,0 -56.12,19.62 -65.8,47 H 94.3 c -9.68,-27.38 -35.1,-47 -65.8,-47 H 5 V 5.0000308 h 23.5 a 117.33,117.33 0 0 1 94,47.0000002 117.33,117.33 0 0 1 94,-47.0000002 z"
     id="path10"
     style="fill:#151640" />
  <path
     class="b"
     d="M 216.5,193.00003 H 240 v 47 h -23.5 a 117.33,117.33 0 0 1 -94,-47 117.33,117.33 0 0 1 -94,47 H 5 v -47 h 23.5 c 30.7,0 56.12,-19.62 65.8,-47 h 56.4 c 9.68,27.38 35.1,47 65.8,47 z"
     id="path12"
     style="fill:#151640" />
  <rect
     class="b"
     x="150.7"
     y="99.000031"
     width="89.300003"
     height="47"
     id="rect14"
     style="fill:#151640" />
  <rect
     class="b"
     x="5"
     y="99.000031"
     width="89.300003"
     height="47"
     id="rect16"
     style="fill:#151640" />
</svg>
