<svg xmlns="http://www.w3.org/2000/svg" viewBox="0 0 423 423"><defs><style>.a{fill:#fff;opacity:0;}.b{fill:#99c1e3;}</style></defs><title>symbol - positive - bw</title><rect class="a" width="423" height="423"/><path class="b" d="M329,94v47H305.5c-30.7,0-56.12,19.62-65.8,47H183.3c-9.68-27.38-35.1-47-65.8-47H94V94h23.5a117.33,117.33,0,0,1,94,47,117.33,117.33,0,0,1,94-47Z"/><path class="b" d="M305.5,282H329v47H305.5a117.33,117.33,0,0,1-94-47,117.33,117.33,0,0,1-94,47H94V282h23.5c30.7,0,56.12-19.62,65.8-47h56.4C249.38,262.38,274.8,282,305.5,282Z"/><rect class="b" x="239.7" y="188" width="89.3" height="47"/><rect class="b" x="94" y="188" width="89.3" height="47"/></svg>