<svg height="280" viewBox="0 0 1351 280" width="1351" xmlns="http://www.w3.org/2000/svg" xmlns:xlink="http://www.w3.org/1999/xlink"><linearGradient id="a" gradientUnits="userSpaceOnUse" x1="66.075591" x2="225.718047" y1="115.636409" y2="-44.006047"><stop offset="0" stop-color="#2c2fa9"/><stop offset="1" stop-color="#504cff"/></linearGradient><linearGradient id="b" gradientUnits="userSpaceOnUse" x1="66.075591" x2="225.718047" y1="328.493017" y2="168.850561"><stop offset="0" stop-color="#101866"/><stop offset="1" stop-color="#3133b4"/></linearGradient><linearGradient id="c" gradientUnits="userSpaceOnUse" x1="189.80415548" x2="266.96466455784" y1="180.81809544216" y2="103.65756372"><stop offset="0" stop-color="#3133b4"/><stop offset="1" stop-color="#4342e0"/></linearGradient><linearGradient id="d" gradientUnits="userSpaceOnUse" x1="24.82896212" x2="101.98948252" y1="180.81809544216" y2="103.66887455784"><stop offset="0" stop-color="#1d2285"/><stop offset="1" stop-color="#2f31b0"/></linearGradient><g stroke-width="1.132216"><path d="m278.9322 9.208101v53.214149h-26.60707c-34.75903 0-63.53997 22.21408-74.49982 53.21416h-63.85698c-10.95985-31.00008-39.740783-53.21416-74.499815-53.21416h-26.607076v-53.214149h26.607076a132.8429 132.8429 0 0 1 106.428305 53.214149 132.8429 132.8429 0 0 1 106.42831-53.214149z" fill="url(#a)"/><path d="m252.32513 222.06472h26.60707v53.21415h-26.60707a132.8429 132.8429 0 0 1 -106.42831-53.21415 132.8429 132.8429 0 0 1 -106.428305 53.21415h-26.607076v-53.21415h26.607076c34.759032 0 63.539965-22.21408 74.499815-53.21416h63.85698c10.95985 31.00008 39.74079 53.21416 74.49982 53.21416z" fill="url(#b)"/><path d="m177.8253 115.63641h101.1069v53.214153h-101.1069z" fill="url(#c)"/><path d="m12.861441 115.63641h101.1069v53.214153h-101.1069z" fill="url(#d)"/><g fill="#dfe2e1"><path d="m385.36051 222.06472v-159.64247h62.27188q37.17065 0 61.0038 22.64432 23.83315 22.64433 23.77653 56.67874v.45289q0 34.20424-23.77653 57.0184-23.77654 22.81415-61.0038 22.84812zm35.0987-31.70205h27.17318q21.43285 0 34.78168-13.22429 13.34882-13.22428 13.3375-34.44201v-.45288q0-21.21773-13.3375-34.66846-13.33751-13.45073-34.78168-13.45073h-27.17318z"/><path d="m631.10799 224.73675q-35.09869 0-58.44499-23.69729-23.34629-23.69728-23.35761-58.34309v-.45288q0-34.62317 23.47084-58.56954 23.47083-23.94637 59.70175-23.92373 21.19508 0 36.00447 6.27248a84.338771 84.338771 0 0 1 26.89013 18.3419l-22.3273 25.7466q-19.83643-18.00224-40.75978-18.00224a42.888343 42.888343 0 0 0 -33.07203 14.46972q-13.22428 14.46972-13.22428 35.21192v.45289q0 20.96864 13.11106 35.55158 13.11106 14.58294 33.15128 14.58294 12.76008 0 22.10086-4.52886a86.478659 86.478659 0 0 0 19.8251-14.11874l22.33862 22.55375a94.438138 94.438138 0 0 1 -28.37333 21.25169q-15.14905 7.21222-37.03479 7.2009z"/><path d="m720.56438 221.99678v-159.50659h72.91471q30.30943 0 46.48879 16.17936 13.67717 13.67717 13.67717 36.45736v.45289q0 36.70644-34.1816 49.45519l38.95955 56.96179h-41.00886l-34.1816-51.0403h-27.58078v51.0403zm35.0987-82.02905h35.55158q12.53363 0 19.71188-6.15925 7.17825-6.15926 7.17825-16.40581v-.45289q0-11.15233-7.29147-16.98324-7.29147-5.83092-20.28931-5.84224h-34.87225z"/><path d="m881.27112 221.99678v-159.50659h62.20395q37.13669 0 60.95853 22.64432 23.8218 22.64432 23.7765 56.6108v.45289q0 34.1816-23.7765 56.97311-23.77656 22.79151-60.95853 22.78018zm35.0987-31.70205h27.11657q21.42153 0 34.75903-13.22428 13.33747-13.22428 13.32617-34.40804v-.45289q0-21.19508-13.32617-34.63449-13.32618-13.43941-34.80432-13.45073h-27.07128z"/><path d="m1048.5787 221.99678v-159.50659h120.2752v31.21519h-85.4482v32.35874h75.2583v31.21519h-75.2017v33.50228h86.5918v31.21519z"/><path d="m1189.4037 221.99678 55.6031-81.12328-53.3274-78.38331h41.0202l33.5249 51.71963 33.7287-51.71963h39.8654l-53.3274 77.93043 55.5918 81.57616h-41.0202l-35.778-54.68603-36.0045 54.68603z"/></g></g></svg>