<svg viewBox="0 0 133.035 133" xmlns="http://www.w3.org/2000/svg"><path d="m129.131 73.6h-79.485v37.476h79.485z" fill="#6ed3f3" transform="translate(-27.631 -30.525)"/><path d="m139.079 83.359h-79.671v37.476h79.671z" fill="#6ed3f3" transform="translate(-28.021 -30.915)"/><g fill="#2f74fb"><path d="m46.193 143.711a65.857 65.857 0 0 1 -18.861-37.869 67.047 67.047 0 0 1 7.361-40.809.938.938 0 0 1 1.644.9 65.276 65.276 0 0 0 -7.149 39.644 64.093 64.093 0 0 0 18.331 36.808 64.762 64.762 0 0 0 91.456-.015.919.919 0 0 1 .3-.222.945.945 0 0 1 .737-.017.942.942 0 0 1 .314.207.932.932 0 0 1 .207.315.918.918 0 0 1 .067.37.934.934 0 0 1 -.305.672 66.619 66.619 0 0 1 -94.107.014z" transform="translate(-26.714 -30.164)"/><path d="m46.962 49.523a.928.928 0 0 1 0-1.326 66.62 66.62 0 0 1 94.106-.016 65.862 65.862 0 0 1 18.86 37.869 67.05 67.05 0 0 1 -7.36 40.808.938.938 0 0 1 -1.645-.9 65.272 65.272 0 0 0 7.15-39.643 64.09 64.09 0 0 0 -18.331-36.809 64.763 64.763 0 0 0 -91.456.016.928.928 0 0 1 -1.325 0z" transform="translate(-27.512 -28.731)"/><path d="m50.416 55.736-1.682-1.682 3.395-3.394 1.682 1.682zm6.728 6.726-3.364-3.362 3.395-3.394 3.364 3.363zm6.728 6.726-3.364-3.363 3.392-3.393 3.367 3.368zm6.728 6.728-3.364-3.363 3.395-3.394 3.364 3.363zm6.728 6.726-3.364-3.363 3.395-3.394 3.364 3.363zm6.728 6.726-3.364-3.363 3.395-3.394 3.364 3.363zm6.728 6.726-3.364-3.363 3.395-3.394 3.364 3.363zm6.728 6.726-3.364-3.363 3.395-3.394 3.364 3.363zm6.728 6.727-3.364-3.364 3.395-3.394 3.364 3.363zm6.729 6.726-3.364-3.363 3.395-3.393 3.364 3.363zm6.731 6.727-3.364-3.363 3.395-3.394 3.364 3.363zm6.728 6.727-3.364-3.363 3.395-3.394 3.364 3.363zm6.729 6.726-3.364-3.363 3.395-3.394 3.364 3.363zm5.043 5.047-1.682-1.681 3.395-3.394 1.682 1.681z" fill-rule="evenodd" transform="translate(-27.594 -29.608)"/></g><path d="m137.326 152.537a9.37 9.37 0 1 0 0-13.25 9.375 9.375 0 0 0 0 13.25z" fill="#6ed3f3" transform="translate(-31.026 -33.041)"/><path d="m140.638 149.278a9.4 9.4 0 0 1 -1.434-11.4 9.666 9.666 0 0 0 -1.856 1.431 9.371 9.371 0 0 0 13.258 13.248 9.162 9.162 0 0 0 1.431-1.856 9.3 9.3 0 0 1 -11.4-1.428z" fill="#2f74fb" transform="translate(-31.027 -33.095)"/><path d="m40.648 55.935a9.37 9.37 0 1 0 0-13.25 9.374 9.374 0 0 0 0 13.25z" fill="#6ed3f3" transform="translate(-27.161 -29.179)"/><path d="m43.96 52.676a9.4 9.4 0 0 1 -1.434-11.4 9.637 9.637 0 0 0 -1.856 1.432 9.372 9.372 0 0 0 13.26 13.254 9.165 9.165 0 0 0 1.431-1.856 9.3 9.3 0 0 1 -11.4-1.43z" fill="#2f74fb" transform="translate(-27.162 -29.233)"/></svg>