<svg xmlns="http://www.w3.org/2000/svg" viewBox="0 0 133.035 133">
  <defs>
    <style>
      .cls-1 {
        fill: #6ed3f3;
      }

      .cls-2, .cls-3 {
        fill: #2f74fb;
      }

      .cls-3 {
        fill-rule: evenodd;
      }
    </style>
  </defs>
  <g id="svp_disabled_icon" data-name="svp disabled icon" transform="translate(-26.714 -28.731)">
    <path id="Path_46" data-name="Path 46" class="cls-1" d="M129.131,73.6H49.646v37.476h79.485Z" transform="translate(-0.917 -1.794)"/>
    <path id="Path_47" data-name="Path 47" class="cls-1" d="M139.079,83.359H59.408v37.476h79.671Z" transform="translate(-1.307 -2.184)"/>
    <path id="Path_48" data-name="Path 48" class="cls-2" d="M46.193,143.711a65.857,65.857,0,0,1-18.861-37.869,67.047,67.047,0,0,1,7.361-40.809.938.938,0,0,1,1.644.9,65.276,65.276,0,0,0-7.149,39.644,64.093,64.093,0,0,0,18.331,36.808,64.762,64.762,0,0,0,91.456-.015.919.919,0,0,1,.3-.222.945.945,0,0,1,.737-.017.942.942,0,0,1,.314.207.932.932,0,0,1,.207.315.918.918,0,0,1,.067.37.934.934,0,0,1-.305.672,66.619,66.619,0,0,1-94.107.014Z" transform="translate(0 -1.433)"/>
    <path id="Path_49" data-name="Path 49" class="cls-2" d="M46.962,49.523a.928.928,0,0,1,0-1.326,66.62,66.62,0,0,1,94.106-.016A65.862,65.862,0,0,1,159.928,86.05a67.05,67.05,0,0,1-7.36,40.808.938.938,0,0,1-1.645-.9,65.272,65.272,0,0,0,7.15-39.643,64.09,64.09,0,0,0-18.331-36.809,64.763,64.763,0,0,0-91.456.016.928.928,0,0,1-1.325,0Z" transform="translate(-0.798 0)"/>
    <path id="Path_50" data-name="Path 50" class="cls-3" d="M50.416,55.736l-1.682-1.682,3.395-3.394,1.682,1.682Zm6.728,6.726L53.78,59.1l3.395-3.394,3.364,3.363Zm6.728,6.726-3.364-3.363L63.9,62.432,67.267,65.8ZM70.6,75.916l-3.364-3.363,3.395-3.394,3.364,3.363Zm6.728,6.726-3.364-3.363,3.395-3.394,3.364,3.363Zm6.728,6.726-3.364-3.363,3.395-3.394,3.364,3.363Zm6.728,6.726-3.364-3.363,3.395-3.394L94.179,92.7Zm6.728,6.726-3.364-3.363,3.395-3.394,3.364,3.363Zm6.728,6.727-3.364-3.364,3.395-3.394,3.364,3.363Zm6.729,6.726-3.364-3.363L111,109.517l3.364,3.363ZM117.7,123l-3.364-3.363,3.395-3.394,3.364,3.363Zm6.728,6.727-3.364-3.363,3.395-3.394,3.364,3.363Zm6.729,6.726-3.364-3.363,3.395-3.394,3.364,3.363ZM136.2,141.5l-1.682-1.681,3.395-3.394,1.682,1.681Z" transform="translate(-0.88 -0.877)"/>
    <path id="Path_51" data-name="Path 51" class="cls-1" d="M137.326,152.537a9.37,9.37,0,1,0,0-13.25A9.375,9.375,0,0,0,137.326,152.537Z" transform="translate(-4.312 -4.31)"/>
    <path id="Path_52" data-name="Path 52" class="cls-2" d="M140.638,149.278a9.4,9.4,0,0,1-1.434-11.4,9.666,9.666,0,0,0-1.856,1.431,9.371,9.371,0,0,0,13.258,13.248,9.162,9.162,0,0,0,1.431-1.856,9.3,9.3,0,0,1-11.4-1.428Z" transform="translate(-4.313 -4.364)"/>
    <path id="Path_53" data-name="Path 53" class="cls-1" d="M40.648,55.935a9.37,9.37,0,1,0,0-13.25A9.374,9.374,0,0,0,40.648,55.935Z" transform="translate(-0.447 -0.448)"/>
    <path id="Path_54" data-name="Path 54" class="cls-2" d="M43.96,52.676a9.4,9.4,0,0,1-1.434-11.4,9.637,9.637,0,0,0-1.856,1.432A9.372,9.372,0,0,0,53.93,55.962a9.165,9.165,0,0,0,1.431-1.856,9.3,9.3,0,0,1-11.4-1.43Z" transform="translate(-0.448 -0.502)"/>
  </g>
</svg>
