<svg viewBox="0 0 150 150" xmlns="http://www.w3.org/2000/svg"><g fill="#2f74fb"><path d="m377.643 2070.323a65.349 65.349 0 0 1 -39.838-13.387 66.727 66.727 0 0 1 -23.485-33.894.932.932 0 0 1 1.788-.522 64.961 64.961 0 0 0 22.816 32.925 63.6 63.6 0 0 0 38.721 13.014 64.353 64.353 0 0 0 64.223-64.321.932.932 0 1 1 1.861 0 66.2 66.2 0 0 1 -66.086 66.185z" transform="translate(-302.641 -1929.271)"/><path d="m241.659 307.844a.922.922 0 0 1 -.932-.933 66.2 66.2 0 0 1 66.084-66.185 65.347 65.347 0 0 1 39.838 13.387 66.725 66.725 0 0 1 23.485 33.894.932.932 0 0 1 -1.788.522 64.96 64.96 0 0 0 -22.814-32.929 63.6 63.6 0 0 0 -38.721-13.014 64.353 64.353 0 0 0 -64.223 64.321.922.922 0 0 1 -.93.933z" transform="translate(-231.813 -231.828)"/><path d="m522.2 2153.453a.923.923 0 0 1 .933-.933.923.923 0 0 1 .933.933.923.923 0 0 1 -.933.933.947.947 0 0 1 -.933-.933zm-3.206.791a.927.927 0 0 1 -.858-1.006.927.927 0 0 1 1.006-.858.927.927 0 0 1 .858 1.006.935.935 0 0 1 -.933.858c-.03.03-.071.03-.071-.008zm-4.139-.409a.921.921 0 0 1 -.791-1.043.921.921 0 0 1 1.044-.791.921.921 0 0 1 .791 1.044.929.929 0 0 1 -.933.791h-.113zm-4.1-.745a.915.915 0 0 1 -.708-1.119.943.943 0 0 1 1.119-.708.943.943 0 0 1 .708 1.119.915.915 0 0 1 -.9.745.553.553 0 0 0 -.221-.048zm-4.026-1.043a.943.943 0 0 1 -.634-1.156.943.943 0 0 1 1.156-.634.943.943 0 0 1 .634 1.156.917.917 0 0 1 -.9.672.552.552 0 0 1 -.259-.047zm-3.953-1.3a.957.957 0 0 1 -.559-1.186.925.925 0 0 1 1.183-.561.957.957 0 0 1 .559 1.186.919.919 0 0 1 -.858.593.827.827 0 0 1 -.326-.043zm-3.878-1.64a.941.941 0 0 1 -.447-1.231.909.909 0 0 1 1.231-.447.909.909 0 0 1 .447 1.231.943.943 0 0 1 -.858.559.835.835 0 0 1 -.372-.123zm-3.692-1.864a.966.966 0 0 1 -.374-1.267.967.967 0 0 1 1.267-.374.933.933 0 0 1 .374 1.267.973.973 0 0 1 -.82.484.791.791 0 0 1 -.445-.123zm-3.58-2.162a.919.919 0 0 1 -.261-1.3.919.919 0 0 1 1.3-.261.919.919 0 0 1 .261 1.3.972.972 0 0 1 -.791.411.67.67 0 0 1 -.512-.162zm-3.421-2.4a.943.943 0 0 1 -.186-1.3.943.943 0 0 1 1.3-.186.943.943 0 0 1 .186 1.3.973.973 0 0 1 -.745.374.842.842 0 0 1 -.56-.192zm-3.243-2.611a.937.937 0 0 1 -.075-1.3.937.937 0 0 1 1.3-.075.935.935 0 0 1 .075 1.3.92.92 0 0 1 -.708.336 1.4 1.4 0 0 1 -.6-.261zm-3.02-2.872a.9.9 0 0 1 0-1.3.9.9 0 0 1 1.3 0 .9.9 0 0 1 0 1.3.9.9 0 0 1 -.672.261.749.749 0 0 1 -.638-.259zm-2.834-3.058a.905.905 0 0 1 .113-1.3.906.906 0 0 1 1.3.113.905.905 0 0 1 -.113 1.3.913.913 0 0 1 -.593.223.918.918 0 0 1 -.717-.334zm-2.57-3.243a.943.943 0 0 1 .186-1.3.943.943 0 0 1 1.3.186.943.943 0 0 1 -.186 1.3 1.107 1.107 0 0 1 -.559.186.973.973 0 0 1 -.755-.372zm-2.366-3.467a.961.961 0 0 1 .3-1.3.961.961 0 0 1 1.3.3.909.909 0 0 1 -.3 1.267.819.819 0 0 1 -.484.148.775.775 0 0 1 -.82-.409zm-2.125-3.58a.967.967 0 0 1 .374-1.267.933.933 0 0 1 1.267.374.933.933 0 0 1 -.374 1.267.989.989 0 0 1 -.447.113.972.972 0 0 1 -.814-.486zm-1.826-3.728a.9.9 0 0 1 .484-1.231.913.913 0 0 1 1.231.484.913.913 0 0 1 -.484 1.231.673.673 0 0 1 -.374.075.943.943 0 0 1 -.86-.561zm-1.565-3.878a.925.925 0 0 1 .559-1.186.925.925 0 0 1 1.186.559.925.925 0 0 1 -.559 1.186 1.021 1.021 0 0 1 -.336.037.8.8 0 0 1 -.844-.6zm-1.3-3.953a.943.943 0 0 1 .634-1.156.943.943 0 0 1 1.156.634.943.943 0 0 1 -.634 1.156.633.633 0 0 1 -.261.038.951.951 0 0 1 -.891-.672zm-.969-4.026a.943.943 0 0 1 .708-1.119.943.943 0 0 1 1.119.708.962.962 0 0 1 -.708 1.118h-.186a.893.893 0 0 1 -.929-.709zm-.708-4.139a.927.927 0 0 1 .791-1.043.927.927 0 0 1 1.044.791.927.927 0 0 1 -.791 1.044h-.123a.892.892 0 0 1 -.933-.793zm-.411-4.139a.9.9 0 0 1 .9-.969.9.9 0 0 1 .969.858.953.953 0 0 1 -.858 1.006h-.038a.949.949 0 0 1 -.965-.9z" transform="translate(-448.035 -2021.538)"/><path d="m2060.3 516.9a.9.9 0 0 1 .9-.968.9.9 0 0 1 .969.858.9.9 0 0 1 -.858.971h-.069a.886.886 0 0 1 -.937-.86zm-.411-4.026a.927.927 0 0 1 .791-1.044.927.927 0 0 1 1.044.791.927.927 0 0 1 -.791 1.044h-.113a.892.892 0 0 1 -.931-.793zm-.672-3.991a.943.943 0 0 1 .708-1.119.943.943 0 0 1 1.119.708.943.943 0 0 1 -.708 1.119h-.186a.862.862 0 0 1 -.931-.708zm-.97-3.916a.943.943 0 0 1 .635-1.156.943.943 0 0 1 1.156.634.943.943 0 0 1 -.634 1.156.636.636 0 0 1 -.261.038.878.878 0 0 1 -.894-.672zm-1.231-3.84a.925.925 0 0 1 .559-1.186.927.927 0 0 1 1.186.559.925.925 0 0 1 -.559 1.186 1.154 1.154 0 0 1 -.3.075.917.917 0 0 1 -.883-.634zm-1.492-3.728a.929.929 0 0 1 .447-1.231.913.913 0 0 1 1.229.484.913.913 0 0 1 -.484 1.231 1.322 1.322 0 0 1 -.374.075.871.871 0 0 1 -.814-.561zm-1.791-3.617a.966.966 0 0 1 .374-1.267.933.933 0 0 1 1.267.374.933.933 0 0 1 -.374 1.267.99.99 0 0 1 -.447.113.806.806 0 0 1 -.816-.494zm-2.052-3.467a.909.909 0 0 1 .3-1.267.909.909 0 0 1 1.267.3.91.91 0 0 1 -.3 1.267.82.82 0 0 1 -.484.148.919.919 0 0 1 -.777-.449zm-2.275-3.315a.943.943 0 0 1 .186-1.3.943.943 0 0 1 1.3.186.943.943 0 0 1 -.186 1.3 1.007 1.007 0 0 1 -.559.186.87.87 0 0 1 -.739-.374zm-2.5-3.162a.9.9 0 0 1 .113-1.3.905.905 0 0 1 1.3.113.9.9 0 0 1 -.113 1.3.989.989 0 0 1 -.593.223.866.866 0 0 1 -.706-.346zm-2.767-2.945a.9.9 0 0 1 0-1.3.9.9 0 0 1 1.3 0 .9.9 0 0 1 0 1.3.9.9 0 0 1 -.672.261.937.937 0 0 1 -.619-.271zm-2.945-2.767a.937.937 0 0 1 -.075-1.3.937.937 0 0 1 1.3-.075.9.9 0 0 1 .075 1.3.919.919 0 0 1 -.708.336 1.4 1.4 0 0 1 -.583-.263zm-3.1-2.57a.943.943 0 0 1 -.186-1.3.943.943 0 0 1 1.3-.186.943.943 0 0 1 .186 1.3.972.972 0 0 1 -.745.374.615.615 0 0 1 -.547-.194zm-3.319-2.313a.951.951 0 0 1 -.261-1.3.919.919 0 0 1 1.3-.261.951.951 0 0 1 .261 1.3.972.972 0 0 1 -.791.411.856.856 0 0 1 -.5-.154zm-3.467-2.052a.967.967 0 0 1 -.373-1.267.966.966 0 0 1 1.267-.374.966.966 0 0 1 .374 1.267.972.972 0 0 1 -.82.484.988.988 0 0 1 -.433-.115zm-3.579-1.826a.941.941 0 0 1 -.447-1.231.941.941 0 0 1 1.231-.447.909.909 0 0 1 .447 1.231.943.943 0 0 1 -.858.559c-.1-.043-.249-.081-.36-.117zm-3.73-1.565a.958.958 0 0 1 -.559-1.186.927.927 0 0 1 1.186-.559.925.925 0 0 1 .559 1.186.919.919 0 0 1 -.858.593.526.526 0 0 1 -.314-.04zm-3.84-1.267a.943.943 0 0 1 -.634-1.156.943.943 0 0 1 1.156-.634.943.943 0 0 1 .635 1.156.917.917 0 0 1 -.9.672 1.4 1.4 0 0 0 -.247-.043zm-3.916-1.006a.943.943 0 0 1 -.708-1.119.943.943 0 0 1 1.119-.708.915.915 0 0 1 .708 1.119.945.945 0 0 1 -.9.745 1.354 1.354 0 0 0 -.21-.051zm-3.953-.708a.921.921 0 0 1 -.791-1.044.921.921 0 0 1 1.044-.791.921.921 0 0 1 .791 1.044.929.929 0 0 1 -.933.791h-.113zm-4.026-.447a.927.927 0 0 1 -.858-1.006.927.927 0 0 1 1.006-.858.927.927 0 0 1 .858 1.006.935.935 0 0 1 -.933.858h-.075zm-4.959-1.081a.923.923 0 0 1 .933-.933.923.923 0 0 1 .933.933.923.923 0 0 1 -.933.933.947.947 0 0 1 -.919-.941z" transform="translate(-1929.353 -445.25)"/><path d="m2004.327 4010.962h-.186c-.075 0-.113-.037-.186-.037-.075-.038-.113-.038-.148-.076s-.113-.075-.148-.112a.9.9 0 0 1 -.261-.672 1.073 1.073 0 0 1 .261-.672.513.513 0 0 1 .148-.112.661.661 0 0 1 .334-.113.929.929 0 0 1 .858.261.9.9 0 0 1 .261.672 1.162 1.162 0 0 1 -.261.672 1.769 1.769 0 0 1 -.672.189z" transform="translate(-1929.225 -3860.963)"/><path d="m73.731 2188.876a.973.973 0 0 1 -.9-.97.949.949 0 0 1 .969-.9.973.973 0 0 1 .9.969.969.969 0 0 1 -.933.9h-.036zm-4.176-.374a.909.909 0 0 1 -.82-1.044.909.909 0 0 1 1.044-.82.927.927 0 0 1 .82 1.044.9.9 0 0 1 -.933.82h-.113zm-4.176-.56a.937.937 0 0 1 -.791-1.081.888.888 0 0 1 1.081-.745.888.888 0 0 1 .745 1.081.957.957 0 0 1 -.933.791c.012-.043-.063-.043-.1-.043zm-4.139-.82a.915.915 0 0 1 -.708-1.119.915.915 0 0 1 1.119-.708.943.943 0 0 1 .708 1.119.909.909 0 0 1 -.9.708zm-4.064-1.043a.943.943 0 0 1 -.634-1.156.942.942 0 0 1 1.156-.634.943.943 0 0 1 .634 1.156.917.917 0 0 1 -.9.672 1.481 1.481 0 0 1 -.259-.037zm-4.026-1.3a.925.925 0 0 1 -.559-1.186.925.925 0 0 1 1.186-.56.925.925 0 0 1 .559 1.186.967.967 0 0 1 -.9.635.882.882 0 0 1 -.291-.075zm-3.953-1.492a.9.9 0 0 1 -.484-1.231.948.948 0 0 1 1.231-.522.9.9 0 0 1 .484 1.231.885.885 0 0 1 -.858.559.643.643 0 0 1 -.372-.037zm-3.84-1.716a.941.941 0 0 1 -.447-1.231.941.941 0 0 1 1.231-.447.941.941 0 0 1 .447 1.231.893.893 0 0 1 -.82.522 1.58 1.58 0 0 1 -.411-.073zm-3.728-1.939a.966.966 0 0 1 -.374-1.267.966.966 0 0 1 1.267-.374.967.967 0 0 1 .374 1.267.973.973 0 0 1 -.82.484.886.886 0 0 1 -.447-.109zm-3.655-2.162a.953.953 0 0 1 -.3-1.3.953.953 0 0 1 1.3-.3.917.917 0 0 1 .3 1.267.919.919 0 0 1 -.791.447.646.646 0 0 1 -.514-.109zm-3.5-2.348a.949.949 0 0 1 -.223-1.3.949.949 0 0 1 1.3-.223.949.949 0 0 1 .223 1.3.869.869 0 0 1 -.745.374.791.791 0 0 1 -.559-.15zm-3.36-2.536a.941.941 0 0 1 -.148-1.3.941.941 0 0 1 1.3-.148.907.907 0 0 1 .148 1.3.939.939 0 0 1 -.745.336.684.684 0 0 1 -.555-.188zm-3.206-2.722a.935.935 0 0 1 -.075-1.3.935.935 0 0 1 1.3-.075.935.935 0 0 1 .075 1.3.882.882 0 0 1 -.708.3.846.846 0 0 1 -.593-.223zm-3.054-2.906a.9.9 0 0 1 0-1.3.9.9 0 0 1 1.3 0 .9.9 0 0 1 0 1.3.9.9 0 0 1 -.672.261.747.747 0 0 1 -.632-.261zm-2.9-3.06a.937.937 0 0 1 .075-1.3.937.937 0 0 1 1.3.075.937.937 0 0 1 -.075 1.3 1.011 1.011 0 0 1 -.634.223.753.753 0 0 1 -.67-.3zm-2.728-3.208a.907.907 0 0 1 .148-1.3.906.906 0 0 1 1.3.148.907.907 0 0 1 -.148 1.3.878.878 0 0 1 -.593.186.814.814 0 0 1 -.712-.334zm-2.536-3.36a.949.949 0 0 1 .223-1.3.949.949 0 0 1 1.3.223.949.949 0 0 1 -.223 1.3.893.893 0 0 1 -.522.186 1.09 1.09 0 0 1 -.783-.405zm-2.313-3.5a.961.961 0 0 1 .3-1.3.961.961 0 0 1 1.3.3.961.961 0 0 1 -.3 1.3.821.821 0 0 1 -.484.148.856.856 0 0 1 -.818-.443zm-2.162-3.617a.933.933 0 0 1 .374-1.267.933.933 0 0 1 1.267.374.933.933 0 0 1 -.374 1.267.989.989 0 0 1 -.447.113.972.972 0 0 1 -.82-.482zm-1.939-3.73a.909.909 0 0 1 .447-1.231.91.91 0 0 1 1.231.447.909.909 0 0 1 -.447 1.231.806.806 0 0 1 -.411.075.935.935 0 0 1 -.82-.516zm-1.714-3.833a.988.988 0 0 1 .484-1.231.989.989 0 0 1 1.231.484.963.963 0 0 1 -.522 1.231 1.106 1.106 0 0 1 -.374.075.931.931 0 0 1 -.82-.559zm-1.492-3.953a.925.925 0 0 1 .559-1.186.925.925 0 0 1 1.186.56.925.925 0 0 1 -.559 1.186.814.814 0 0 1 -.3.038.818.818 0 0 1 -.887-.6zm-1.3-3.99a.943.943 0 0 1 .634-1.156.942.942 0 0 1 1.156.634.943.943 0 0 1 -.634 1.156.637.637 0 0 1 -.261.037.988.988 0 0 1 -.9-.674zm-1.044-4.1a.915.915 0 0 1 .708-1.118.933.933 0 0 1 1.119.708.915.915 0 0 1 -.708 1.119.477.477 0 0 1 -.223.038.944.944 0 0 1 -.9-.747zm-.82-4.1a.958.958 0 0 1 .745-1.081.939.939 0 0 1 1.081.745.937.937 0 0 1 -.791 1.081h-.154a.915.915 0 0 1 -.893-.745zm-.559-4.177a.927.927 0 0 1 .82-1.043.927.927 0 0 1 1.044.82.954.954 0 0 1 -.82 1.043h-.126a.9.9 0 0 1 -.931-.82zm-.387-4.23a.9.9 0 0 1 .9-.97.923.923 0 0 1 .969.9.9.9 0 0 1 -.9.97h-.036a.939.939 0 0 1 -.933-.9z" transform="translate(-2.847 -2038.989)"/><path d="m.92 2005.521a1.071 1.071 0 0 1 -.672-.261.518.518 0 0 1 -.113-.148.284.284 0 0 1 -.075-.148.336.336 0 0 1 -.038-.186c0-.075-.038-.113-.038-.186a.336.336 0 0 1 .038-.186c0-.075.038-.113.038-.186.038-.038.038-.113.075-.148s.075-.113.113-.148a.972.972 0 0 1 1.3 0 .9.9 0 0 1 .261.672 1.162 1.162 0 0 1 -.261.672.769.769 0 0 1 -.632.253z" transform="translate(.016 -1929.723)"/><path d="m2004.309 2.231a1.162 1.162 0 0 1 -.672-.261.9.9 0 0 1 -.261-.676.336.336 0 0 1 .037-.186c0-.075.038-.113.038-.186.038-.038.038-.113.075-.148s.075-.113.113-.148a.515.515 0 0 1 .148-.113.282.282 0 0 1 .148-.075.279.279 0 0 1 .186-.038.929.929 0 0 1 .858.261.518.518 0 0 1 .113.148.284.284 0 0 1 .075.148 1.6 1.6 0 0 1 .037.186v.194a1.073 1.073 0 0 1 -.261.672.988.988 0 0 1 -.634.222z" transform="translate(-1929.405 -.381)"/><path d="m2186.105 73.9a.9.9 0 0 1 .9-.969.9.9 0 0 1 .97.9.923.923 0 0 1 -.9.969h-.038a.915.915 0 0 1 -.932-.9zm-.336-4.064a.927.927 0 0 1 .82-1.044.955.955 0 0 1 1.043.82.927.927 0 0 1 -.82 1.044h-.113a.931.931 0 0 1 -.935-.822zm-.593-4.064a.939.939 0 0 1 .745-1.081.939.939 0 0 1 1.081.745.959.959 0 0 1 -.745 1.081h-.148a.925.925 0 0 1 -.937-.747zm-.791-4.064a.933.933 0 0 1 .708-1.119.933.933 0 0 1 1.119.708.916.916 0 0 1 -.708 1.119c-.075 0-.148.038-.223.038a.915.915 0 0 1 -.9-.747zm-1.044-3.953a.943.943 0 0 1 .635-1.156.943.943 0 0 1 1.156.634.943.943 0 0 1 -.635 1.156.634.634 0 0 1 -.261.038.917.917 0 0 1 -.891-.674zm-1.231-3.916a.925.925 0 0 1 .559-1.186.925.925 0 0 1 1.186.559.925.925 0 0 1 -.56 1.186.926.926 0 0 1 -.3.038.856.856 0 0 1 -.884-.6zm-1.454-3.839a.988.988 0 0 1 .484-1.231.963.963 0 0 1 1.231.522.963.963 0 0 1 -.522 1.231 1.089 1.089 0 0 1 -.336.075.92.92 0 0 1 -.852-.6zm-1.678-3.73a.909.909 0 0 1 .447-1.231.909.909 0 0 1 1.231.447.909.909 0 0 1 -.447 1.231.737.737 0 0 1 -.411.075.894.894 0 0 1 -.814-.522zm-1.9-3.655a.933.933 0 0 1 .374-1.267.933.933 0 0 1 1.267.374.933.933 0 0 1 -.374 1.267.989.989 0 0 1 -.447.113.973.973 0 0 1 -.814-.486zm-2.087-3.542a.909.909 0 0 1 .3-1.267.961.961 0 0 1 1.3.3.96.96 0 0 1 -.3 1.3.82.82 0 0 1 -.484.148 1.062 1.062 0 0 1 -.816-.484zm-2.269-3.394a.949.949 0 0 1 .224-1.3.949.949 0 0 1 1.3.223.949.949 0 0 1 -.223 1.3.892.892 0 0 1 -.522.186 1.025 1.025 0 0 1 -.783-.409zm-2.46-3.281a.907.907 0 0 1 .15-1.3.907.907 0 0 1 1.3.148.9.9 0 0 1 -.148 1.3.876.876 0 0 1 -.593.186.867.867 0 0 1 -.716-.334zm-2.647-3.133a.937.937 0 0 1 .075-1.3.937.937 0 0 1 1.3.075.937.937 0 0 1 -.075 1.3 1.011 1.011 0 0 1 -.634.223.873.873 0 0 1 -.672-.3zm-2.834-2.983a.9.9 0 0 1 0-1.3.9.9 0 0 1 1.3 0 .9.9 0 0 1 0 1.3.9.9 0 0 1 -.672.261.873.873 0 0 1 -.634-.261zm-2.983-2.834a.937.937 0 0 1 -.075-1.3.937.937 0 0 1 1.3-.075.937.937 0 0 1 .075 1.3.881.881 0 0 1 -.708.3.988.988 0 0 1 -.6-.223zm-3.135-2.647a.907.907 0 0 1 -.148-1.3.941.941 0 0 1 1.3-.148.907.907 0 0 1 .148 1.3.939.939 0 0 1 -.745.336 1.007 1.007 0 0 1 -.56-.188zm-3.281-2.5a.949.949 0 0 1 -.223-1.3.949.949 0 0 1 1.3-.223.949.949 0 0 1 .223 1.3.917.917 0 0 1 -.745.374.593.593 0 0 1 -.557-.152zm-3.431-2.275a.953.953 0 0 1 -.3-1.3.917.917 0 0 1 1.267-.3.917.917 0 0 1 .3 1.267.919.919 0 0 1 -.791.447.594.594 0 0 1 -.475-.111zm-3.54-2.087a.967.967 0 0 1 -.374-1.267.967.967 0 0 1 1.267-.374.966.966 0 0 1 .374 1.267.972.972 0 0 1 -.82.484.99.99 0 0 1 -.449-.107zm-3.654-1.9a.941.941 0 0 1 -.447-1.231.941.941 0 0 1 1.229-.443.941.941 0 0 1 .447 1.231.894.894 0 0 1 -.82.522.545.545 0 0 1 -.409-.081zm-3.768-1.674a.948.948 0 0 1 -.521-1.231.948.948 0 0 1 1.223-.526.948.948 0 0 1 .522 1.231.919.919 0 0 1 -.858.593 1.645 1.645 0 0 1 -.366-.067zm-3.844-1.459a.925.925 0 0 1 -.56-1.186.925.925 0 0 1 1.186-.559.911.911 0 0 1 .559 1.186.967.967 0 0 1 -.9.634 2.218 2.218 0 0 0 -.287-.073zm-3.916-1.267a.943.943 0 0 1 -.635-1.156.943.943 0 0 1 1.156-.634.943.943 0 0 1 .635 1.156.917.917 0 0 1 -.9.672.727.727 0 0 1 -.257-.04zm-3.953-1.006a.915.915 0 0 1 -.708-1.119.943.943 0 0 1 1.119-.708.943.943 0 0 1 .708 1.119.945.945 0 0 1 -.9.745.655.655 0 0 0 -.217-.04zm-4.022-.814a.937.937 0 0 1 -.791-1.081.888.888 0 0 1 1.081-.745.888.888 0 0 1 .745 1.081.956.956 0 0 1 -.933.791.137.137 0 0 1 -.1-.045zm-4.1-.559a.909.909 0 0 1 -.82-1.044.909.909 0 0 1 1.044-.82.927.927 0 0 1 .82 1.044.9.9 0 0 1 -.933.82h-.113zm-4.064-.336a.972.972 0 0 1 -.9-.969.948.948 0 0 1 .968-.9.949.949 0 0 1 .9.969.967.967 0 0 1 -.933.9h-.038z" transform="translate(-2038.043 -2.956)"/><path d="m4008.69 2004.685a1.159 1.159 0 0 1 -.672-.261.515.515 0 0 1 -.113-.148.284.284 0 0 1 -.075-.148.338.338 0 0 1 -.038-.186c0-.075-.038-.113-.038-.186a.336.336 0 0 1 .038-.186c0-.075.038-.113.038-.186.038-.037.038-.113.075-.148s.075-.113.113-.148a.862.862 0 0 1 .82-.261c.075 0 .113.038.186.038.075.037.113.037.148.075s.113.075.15.113a.9.9 0 0 1 .261.672 1.165 1.165 0 0 1 -.261.672.51.51 0 0 1 -.15.113.282.282 0 0 1 -.148.075c-.038.037-.113.037-.186.075a.222.222 0 0 1 -.148.025z" transform="translate(-3859.583 -1928.668)"/></g><circle cx="140.156" cy="74.974" fill="#6ed3f3" r="9.321"/><path d="m3548.729 1972.117a9.354 9.354 0 0 1 -9.023-7.011 9.6 9.6 0 0 0 -.3 2.313 9.322 9.322 0 0 0 18.643 0 9.123 9.123 0 0 0 -.3-2.311 9.248 9.248 0 0 1 -9.02 7.009z" fill="#2f74fb" transform="translate(-3408.573 -1892.481)"/><circle cx="9.846" cy="74.974" fill="#6ed3f3" r="9.321"/><g fill="#2f74fb"><path d="m23.423 1972.117a9.353 9.353 0 0 1 -9.023-7.011 9.584 9.584 0 0 0 -.3 2.313 9.322 9.322 0 0 0 18.645 0 9.118 9.118 0 0 0 -.3-2.311 9.248 9.248 0 0 1 -9.022 7.009z" transform="translate(-13.576 -1892.481)"/><path d="m3584.367 1391.552a1.585 1.585 0 0 1 -.411-.075l-4.214-1.977a.927.927 0 0 1 .791-1.678l3.394 1.565 1.565-3.394a.927.927 0 1 1 1.678.791l-1.976 4.214a.872.872 0 0 1 -.827.554z" transform="translate(-3446.896 -1334.258)"/><path d="m261.309 2514.547a1.582 1.582 0 0 1 -.411-.075.909.909 0 0 1 -.447-1.231l1.977-4.214a.909.909 0 0 1 1.231-.447l4.214 1.976a.928.928 0 0 1 -.791 1.678l-3.394-1.565-1.565 3.394a.956.956 0 0 1 -.814.484z" transform="translate(-250.715 -2415.776)"/><path d="m30.74 51.669h79.05v37.288h-79.05z"/></g><path d="m40.061 60.99h79.236v37.288h-79.236z" fill="#6ed3f3"/><g fill="#2f74fb"><circle cx="79.655" cy="79.627" r="9.321"/><circle cx="61.039" cy="79.628" r="4.661"/><circle cx="98.274" cy="79.628" r="4.661"/></g></svg>