<svg xmlns="http://www.w3.org/2000/svg" viewBox="0 0 150 150">
  <defs>
    <style>
      .cls-1 {
        fill: #2f74fb;
      }

      .cls-2 {
        fill: #6ed3f3;
      }
    </style>
  </defs>
  <g id="Group_834" data-name="Group 834" transform="translate(0)">
    <g id="Group_812" data-name="Group 812" transform="translate(8.915 8.898)">
      <g id="Group_811" data-name="Group 811" transform="translate(2.734 64.993)">
        <path id="Path_21" data-name="Path 21" class="cls-1" d="M377.643,2070.323a65.349,65.349,0,0,1-39.838-13.387,66.727,66.727,0,0,1-23.485-33.894.932.932,0,0,1,1.788-.522,64.961,64.961,0,0,0,22.816,32.925,63.6,63.6,0,0,0,38.721,13.014,64.353,64.353,0,0,0,64.223-64.321.932.932,0,1,1,1.861,0A66.2,66.2,0,0,1,377.643,2070.323Z" transform="translate(-314.29 -2003.162)"/>
      </g>
      <path id="Path_22" data-name="Path 22" class="cls-1" d="M241.659,307.844a.922.922,0,0,1-.932-.933,66.2,66.2,0,0,1,66.084-66.185,65.347,65.347,0,0,1,39.838,13.387,66.725,66.725,0,0,1,23.485,33.894.932.932,0,0,1-1.788.522A64.96,64.96,0,0,0,345.532,255.6a63.6,63.6,0,0,0-38.721-13.014,64.353,64.353,0,0,0-64.223,64.321.922.922,0,0,1-.93.933Z" transform="translate(-240.728 -240.726)"/>
    </g>
    <g id="Group_813" data-name="Group 813" transform="translate(17.222 77.474)">
      <path id="Path_23" data-name="Path 23" class="cls-1" d="M522.2,2153.453a.923.923,0,0,1,.933-.933h0a.923.923,0,0,1,.933.933h0a.923.923,0,0,1-.933.933h0A.947.947,0,0,1,522.2,2153.453Zm-3.206.791a.927.927,0,0,1-.858-1.006h0a.927.927,0,0,1,1.006-.858h0a.927.927,0,0,1,.858,1.006h0a.935.935,0,0,1-.933.858h0c-.03.03-.071.03-.071-.008Zm-4.139-.409a.921.921,0,0,1-.791-1.043h0a.921.921,0,0,1,1.044-.791h0a.921.921,0,0,1,.791,1.044h0a.929.929,0,0,1-.933.791h-.113Zm-4.1-.745h0a.915.915,0,0,1-.708-1.119h0a.943.943,0,0,1,1.119-.708h0a.943.943,0,0,1,.708,1.119h0a.915.915,0,0,1-.9.745h0a.553.553,0,0,0-.221-.048Zm-4.026-1.043a.943.943,0,0,1-.634-1.156h0a.943.943,0,0,1,1.156-.634h0a.943.943,0,0,1,.634,1.156h0a.917.917,0,0,1-.9.672h0a.552.552,0,0,1-.259-.047Zm-3.953-1.3a.957.957,0,0,1-.559-1.186h0A.925.925,0,0,1,503.4,2149h0a.957.957,0,0,1,.559,1.186h0a.919.919,0,0,1-.858.593h0a.827.827,0,0,1-.326-.043Zm-3.878-1.64a.941.941,0,0,1-.447-1.231h0a.909.909,0,0,1,1.231-.447h0a.909.909,0,0,1,.447,1.231h0a.943.943,0,0,1-.858.559h0a.835.835,0,0,1-.372-.123Zm-3.692-1.864h0a.966.966,0,0,1-.374-1.267h0a.967.967,0,0,1,1.267-.374h0a.933.933,0,0,1,.374,1.267h0a.973.973,0,0,1-.82.484h0a.791.791,0,0,1-.445-.123Zm-3.58-2.162a.919.919,0,0,1-.261-1.3h0a.919.919,0,0,1,1.3-.261h0a.919.919,0,0,1,.261,1.3h0a.972.972,0,0,1-.791.411h0a.67.67,0,0,1-.512-.162Zm-3.421-2.4a.943.943,0,0,1-.186-1.3h0a.943.943,0,0,1,1.3-.186h0a.943.943,0,0,1,.186,1.3h0a.973.973,0,0,1-.745.374h0A.842.842,0,0,1,488.2,2142.677Zm-3.243-2.611h0a.937.937,0,0,1-.075-1.3h0a.937.937,0,0,1,1.3-.075h0a.935.935,0,0,1,.075,1.3h0a.92.92,0,0,1-.708.336h0a1.4,1.4,0,0,1-.6-.261Zm-3.02-2.872a.9.9,0,0,1,0-1.3h0a.9.9,0,0,1,1.3,0h0a.9.9,0,0,1,0,1.3h0a.9.9,0,0,1-.672.261h0a.749.749,0,0,1-.638-.259Zm-2.834-3.058a.905.905,0,0,1,.113-1.3h0a.906.906,0,0,1,1.3.113h0a.905.905,0,0,1-.113,1.3h0a.913.913,0,0,1-.593.223h0a.918.918,0,0,1-.717-.334Zm-2.57-3.243h0a.943.943,0,0,1,.186-1.3h0a.943.943,0,0,1,1.3.186h0a.943.943,0,0,1-.186,1.3h0a1.107,1.107,0,0,1-.559.186h0a.973.973,0,0,1-.755-.372Zm-2.366-3.467a.961.961,0,0,1,.3-1.3h0a.961.961,0,0,1,1.3.3h0a.909.909,0,0,1-.3,1.267h0a.819.819,0,0,1-.484.148h0a.775.775,0,0,1-.82-.409Zm-2.125-3.58a.967.967,0,0,1,.374-1.267h0a.933.933,0,0,1,1.267.374h0a.933.933,0,0,1-.374,1.267h0a.989.989,0,0,1-.447.113h0a.972.972,0,0,1-.814-.486Zm-1.826-3.728h0a.9.9,0,0,1,.484-1.231h0a.913.913,0,0,1,1.231.484h0a.913.913,0,0,1-.484,1.231h0a.673.673,0,0,1-.374.075h0a.943.943,0,0,1-.86-.561Zm-1.565-3.878a.925.925,0,0,1,.559-1.186h0a.925.925,0,0,1,1.186.559h0a.925.925,0,0,1-.559,1.186h0a1.021,1.021,0,0,1-.336.037h0a.8.8,0,0,1-.844-.6Zm-1.3-3.953a.943.943,0,0,1,.634-1.156h0a.943.943,0,0,1,1.156.634h0a.943.943,0,0,1-.634,1.156h0a.633.633,0,0,1-.261.038h0a.951.951,0,0,1-.891-.672Zm-.969-4.026a.943.943,0,0,1,.708-1.119h0a.943.943,0,0,1,1.119.708h0a.962.962,0,0,1-.708,1.118h-.186a.893.893,0,0,1-.929-.709Zm-.708-4.139a.927.927,0,0,1,.791-1.043h0a.927.927,0,0,1,1.044.791h0a.927.927,0,0,1-.791,1.044H466.6a.892.892,0,0,1-.933-.793Zm-.411-4.139a.9.9,0,0,1,.9-.969h0a.9.9,0,0,1,.969.858h0a.953.953,0,0,1-.858,1.006h-.038a.949.949,0,0,1-.965-.9Z" transform="translate(-465.257 -2099.012)"/>
    </g>
    <g id="Group_814" data-name="Group 814" transform="translate(73.958 17.109)">
      <path id="Path_24" data-name="Path 24" class="cls-1" d="M2060.3,516.9h0a.9.9,0,0,1,.9-.968h0a.9.9,0,0,1,.969.858h0a.9.9,0,0,1-.858.971h-.069a.886.886,0,0,1-.937-.86Zm-.411-4.026h0a.927.927,0,0,1,.791-1.044h0a.927.927,0,0,1,1.044.791h0a.927.927,0,0,1-.791,1.044h-.113a.892.892,0,0,1-.931-.793Zm-.672-3.991a.943.943,0,0,1,.708-1.119h0a.943.943,0,0,1,1.119.708h0a.943.943,0,0,1-.708,1.119h-.186a.862.862,0,0,1-.931-.708Zm-.97-3.916a.943.943,0,0,1,.635-1.156h0a.943.943,0,0,1,1.156.634h0a.943.943,0,0,1-.634,1.156h0a.636.636,0,0,1-.261.038h0a.878.878,0,0,1-.894-.672Zm-1.231-3.84a.925.925,0,0,1,.559-1.186h0a.927.927,0,0,1,1.186.559h0a.925.925,0,0,1-.559,1.186h0a1.154,1.154,0,0,1-.3.075h0a.917.917,0,0,1-.883-.634Zm-1.492-3.728a.929.929,0,0,1,.447-1.231h0a.913.913,0,0,1,1.229.484h0a.913.913,0,0,1-.484,1.231h0a1.322,1.322,0,0,1-.374.075h0a.871.871,0,0,1-.814-.561Zm-1.791-3.617h0a.966.966,0,0,1,.374-1.267h0a.933.933,0,0,1,1.267.374h0a.933.933,0,0,1-.374,1.267h0a.99.99,0,0,1-.447.113h0a.806.806,0,0,1-.816-.494Zm-2.052-3.467a.909.909,0,0,1,.3-1.267h0a.909.909,0,0,1,1.267.3h0a.91.91,0,0,1-.3,1.267h0a.82.82,0,0,1-.484.148h0a.919.919,0,0,1-.777-.449ZM2049.406,487a.943.943,0,0,1,.186-1.3h0a.943.943,0,0,1,1.3.186h0a.943.943,0,0,1-.186,1.3h0a1.007,1.007,0,0,1-.559.186h0a.87.87,0,0,1-.739-.374Zm-2.5-3.162a.9.9,0,0,1,.113-1.3h0a.905.905,0,0,1,1.3.113h0a.9.9,0,0,1-.113,1.3h0a.989.989,0,0,1-.593.223h0a.866.866,0,0,1-.706-.346Zm-2.767-2.945a.9.9,0,0,1,0-1.3h0a.9.9,0,0,1,1.3,0h0a.9.9,0,0,1,0,1.3h0a.9.9,0,0,1-.672.261h0a.937.937,0,0,1-.619-.271Zm-2.945-2.767a.937.937,0,0,1-.075-1.3h0a.937.937,0,0,1,1.3-.075h0a.9.9,0,0,1,.075,1.3h0a.919.919,0,0,1-.708.336h0a1.4,1.4,0,0,1-.583-.263Zm-3.1-2.57a.943.943,0,0,1-.186-1.3h0a.943.943,0,0,1,1.3-.186h0a.943.943,0,0,1,.186,1.3h0a.972.972,0,0,1-.745.374h0a.615.615,0,0,1-.547-.194Zm-3.319-2.313a.951.951,0,0,1-.261-1.3h0a.919.919,0,0,1,1.3-.261h0a.951.951,0,0,1,.261,1.3h0a.972.972,0,0,1-.791.411h0a.856.856,0,0,1-.5-.154Zm-3.467-2.052a.967.967,0,0,1-.373-1.267h0a.966.966,0,0,1,1.267-.374h0a.966.966,0,0,1,.374,1.267h0a.972.972,0,0,1-.82.484h0a.988.988,0,0,1-.433-.115Zm-3.579-1.826a.941.941,0,0,1-.447-1.231h0a.941.941,0,0,1,1.231-.447h0a.909.909,0,0,1,.447,1.231h0a.943.943,0,0,1-.858.559h0c-.1-.043-.249-.081-.36-.117Zm-3.73-1.565a.958.958,0,0,1-.559-1.186h0a.927.927,0,0,1,1.186-.559h0a.925.925,0,0,1,.559,1.186h0a.919.919,0,0,1-.858.593h0a.526.526,0,0,1-.314-.04Zm-3.84-1.267a.943.943,0,0,1-.634-1.156h0a.943.943,0,0,1,1.156-.634h0a.943.943,0,0,1,.635,1.156h0a.917.917,0,0,1-.9.672h0a1.4,1.4,0,0,0-.247-.043Zm-3.916-1.006h0a.943.943,0,0,1-.708-1.119h0a.943.943,0,0,1,1.119-.708h0a.915.915,0,0,1,.708,1.119h0a.945.945,0,0,1-.9.745h0a1.354,1.354,0,0,0-.21-.051Zm-3.953-.708a.921.921,0,0,1-.791-1.044h0a.921.921,0,0,1,1.044-.791h0a.921.921,0,0,1,.791,1.044h0a.929.929,0,0,1-.933.791h-.113Zm-4.026-.447a.927.927,0,0,1-.858-1.006h0a.927.927,0,0,1,1.006-.858h0a.927.927,0,0,1,.858,1.006h0a.935.935,0,0,1-.933.858h-.075Zm-4.959-1.081a.923.923,0,0,1,.933-.933h0a.923.923,0,0,1,.933.933h0a.923.923,0,0,1-.933.933h0a.947.947,0,0,1-.919-.941Z" transform="translate(-2003.311 -462.359)"/>
    </g>
    <g id="Group_817" data-name="Group 817" transform="translate(0 73.95)">
      <g id="Group_815" data-name="Group 815" transform="translate(74.172 74.235)">
        <path id="Path_25" data-name="Path 25" class="cls-1" d="M2004.327,4010.962h-.186c-.075,0-.113-.037-.186-.037-.075-.038-.113-.038-.148-.076s-.113-.075-.148-.112a.9.9,0,0,1-.261-.672,1.073,1.073,0,0,1,.261-.672.513.513,0,0,1,.148-.112.661.661,0,0,1,.334-.113.929.929,0,0,1,.858.261.9.9,0,0,1,.261.672,1.162,1.162,0,0,1-.261.672A1.769,1.769,0,0,1,2004.327,4010.962Z" transform="translate(-2003.397 -4009.148)"/>
      </g>
      <g id="Group_816" data-name="Group 816" transform="translate(0.111 4.193)">
        <path id="Path_26" data-name="Path 26" class="cls-1" d="M73.731,2188.876a.973.973,0,0,1-.9-.97h0a.949.949,0,0,1,.969-.9h0a.973.973,0,0,1,.9.969h0a.969.969,0,0,1-.933.9h-.036Zm-4.176-.374a.909.909,0,0,1-.82-1.044h0a.909.909,0,0,1,1.044-.82h0a.927.927,0,0,1,.82,1.044h0a.9.9,0,0,1-.933.82h-.113Zm-4.176-.56a.937.937,0,0,1-.791-1.081h0a.888.888,0,0,1,1.081-.745h0a.888.888,0,0,1,.745,1.081h0a.957.957,0,0,1-.933.791h0c.012-.043-.063-.043-.1-.043Zm-4.139-.82a.915.915,0,0,1-.708-1.119h0a.915.915,0,0,1,1.119-.708h0a.943.943,0,0,1,.708,1.119h0a.909.909,0,0,1-.9.708Zm-4.064-1.043a.943.943,0,0,1-.634-1.156h0a.942.942,0,0,1,1.156-.634h0a.943.943,0,0,1,.634,1.156h0a.917.917,0,0,1-.9.672h0a1.481,1.481,0,0,1-.259-.037Zm-4.026-1.3h0a.925.925,0,0,1-.559-1.186h0a.925.925,0,0,1,1.186-.56h0a.925.925,0,0,1,.559,1.186h0a.967.967,0,0,1-.9.635h0a.882.882,0,0,1-.291-.075Zm-3.953-1.492h0a.9.9,0,0,1-.484-1.231h0a.948.948,0,0,1,1.231-.522h0a.9.9,0,0,1,.484,1.231h0a.885.885,0,0,1-.858.559h0a.643.643,0,0,1-.372-.037Zm-3.84-1.716a.941.941,0,0,1-.447-1.231h0a.941.941,0,0,1,1.231-.447h0a.941.941,0,0,1,.447,1.231h0a.893.893,0,0,1-.82.522h0a1.58,1.58,0,0,1-.411-.073Zm-3.728-1.939a.966.966,0,0,1-.374-1.267h0a.966.966,0,0,1,1.267-.374h0a.967.967,0,0,1,.374,1.267h0a.973.973,0,0,1-.82.484h0a.886.886,0,0,1-.447-.109Zm-3.655-2.162a.953.953,0,0,1-.3-1.3h0a.953.953,0,0,1,1.3-.3h0a.917.917,0,0,1,.3,1.267h0a.919.919,0,0,1-.791.447h0a.646.646,0,0,1-.514-.109Zm-3.5-2.348a.949.949,0,0,1-.223-1.3h0a.949.949,0,0,1,1.3-.223h0a.949.949,0,0,1,.223,1.3h0a.869.869,0,0,1-.745.374h0a.791.791,0,0,1-.559-.15Zm-3.36-2.536a.941.941,0,0,1-.148-1.3h0a.941.941,0,0,1,1.3-.148h0a.907.907,0,0,1,.148,1.3h0a.939.939,0,0,1-.745.336h0a.684.684,0,0,1-.555-.188Zm-3.206-2.722h0a.935.935,0,0,1-.075-1.3h0a.935.935,0,0,1,1.3-.075h0a.935.935,0,0,1,.075,1.3h0a.882.882,0,0,1-.708.3h0a.846.846,0,0,1-.593-.223Zm-3.054-2.906a.9.9,0,0,1,0-1.3h0a.9.9,0,0,1,1.3,0h0a.9.9,0,0,1,0,1.3h0a.9.9,0,0,1-.672.261h0a.747.747,0,0,1-.632-.261Zm-2.9-3.06a.937.937,0,0,1,.075-1.3h0a.937.937,0,0,1,1.3.075h0a.937.937,0,0,1-.075,1.3h0a1.011,1.011,0,0,1-.634.223h0a.753.753,0,0,1-.67-.3Zm-2.728-3.208a.907.907,0,0,1,.148-1.3h0a.906.906,0,0,1,1.3.148h0a.907.907,0,0,1-.148,1.3h0a.878.878,0,0,1-.593.186h0a.814.814,0,0,1-.712-.334Zm-2.536-3.36a.949.949,0,0,1,.223-1.3h0a.949.949,0,0,1,1.3.223h0a.949.949,0,0,1-.223,1.3h0a.893.893,0,0,1-.522.186h0a1.09,1.09,0,0,1-.783-.405Zm-2.313-3.5a.961.961,0,0,1,.3-1.3h0a.961.961,0,0,1,1.3.3h0a.961.961,0,0,1-.3,1.3h0a.821.821,0,0,1-.484.148h0a.856.856,0,0,1-.818-.443Zm-2.162-3.617a.933.933,0,0,1,.374-1.267h0a.933.933,0,0,1,1.267.374h0a.933.933,0,0,1-.374,1.267h0a.989.989,0,0,1-.447.113h0a.972.972,0,0,1-.82-.482Zm-1.939-3.73a.909.909,0,0,1,.447-1.231h0a.91.91,0,0,1,1.231.447h0a.909.909,0,0,1-.447,1.231h0a.806.806,0,0,1-.411.075h0a.935.935,0,0,1-.82-.516Zm-1.714-3.833h0a.988.988,0,0,1,.484-1.231h0a.989.989,0,0,1,1.231.484h0a.963.963,0,0,1-.522,1.231h0a1.106,1.106,0,0,1-.374.075h0a.931.931,0,0,1-.82-.559Zm-1.492-3.953a.925.925,0,0,1,.559-1.186h0a.925.925,0,0,1,1.186.56h0a.925.925,0,0,1-.559,1.186h0a.814.814,0,0,1-.3.038h0a.818.818,0,0,1-.887-.6Zm-1.3-3.99a.943.943,0,0,1,.634-1.156h0a.942.942,0,0,1,1.156.634h0a.943.943,0,0,1-.634,1.156h0a.637.637,0,0,1-.261.037h0a.988.988,0,0,1-.9-.674Zm-1.044-4.1a.915.915,0,0,1,.708-1.118h0a.933.933,0,0,1,1.119.708h0a.915.915,0,0,1-.708,1.119h0a.477.477,0,0,1-.223.038h0a.944.944,0,0,1-.9-.747Zm-.82-4.1h0a.958.958,0,0,1,.745-1.081h0a.939.939,0,0,1,1.081.745h0a.937.937,0,0,1-.791,1.081H4.787a.915.915,0,0,1-.893-.745Zm-.559-4.177a.927.927,0,0,1,.82-1.043h0a.927.927,0,0,1,1.044.82h0a.954.954,0,0,1-.82,1.043H4.265a.9.9,0,0,1-.931-.82ZM2.96,2118.1a.9.9,0,0,1,.9-.97h0a.923.923,0,0,1,.969.9h0a.9.9,0,0,1-.9.97H3.893a.939.939,0,0,1-.933-.9Z" transform="translate(-2.958 -2117.132)"/>
      </g>
      <path id="Path_27" data-name="Path 27" class="cls-1" d="M.92,2005.521a1.071,1.071,0,0,1-.672-.261.518.518,0,0,1-.113-.148.284.284,0,0,1-.075-.148.336.336,0,0,1-.038-.186c0-.075-.038-.113-.038-.186a.336.336,0,0,1,.038-.186c0-.075.038-.113.038-.186.038-.038.038-.113.075-.148s.075-.113.113-.148a.972.972,0,0,1,1.3,0,.9.9,0,0,1,.261.672,1.162,1.162,0,0,1-.261.672.769.769,0,0,1-.632.253Z" transform="translate(0.016 -2003.673)"/>
    </g>
    <g id="Group_820" data-name="Group 820" transform="translate(73.97)">
      <path id="Path_28" data-name="Path 28" class="cls-1" d="M2004.309,2.231a1.162,1.162,0,0,1-.672-.261.9.9,0,0,1-.261-.676.336.336,0,0,1,.037-.186c0-.075.038-.113.038-.186.038-.038.038-.113.075-.148s.075-.113.113-.148a.515.515,0,0,1,.148-.113.282.282,0,0,1,.148-.075.279.279,0,0,1,.186-.038.929.929,0,0,1,.858.261.518.518,0,0,1,.113.148.284.284,0,0,1,.075.148,1.6,1.6,0,0,1,.037.186v.194a1.073,1.073,0,0,1-.261.672A.988.988,0,0,1,2004.309,2.231Z" transform="translate(-2003.375 -0.381)"/>
      <g id="Group_818" data-name="Group 818" transform="translate(4.178 0.105)">
        <path id="Path_29" data-name="Path 29" class="cls-1" d="M2186.105,73.9a.9.9,0,0,1,.9-.969h0a.9.9,0,0,1,.97.9h0a.923.923,0,0,1-.9.969h-.038A.915.915,0,0,1,2186.105,73.9Zm-.336-4.064a.927.927,0,0,1,.82-1.044h0a.955.955,0,0,1,1.043.82h0a.927.927,0,0,1-.82,1.044h-.113a.931.931,0,0,1-.935-.822Zm-.593-4.064h0a.939.939,0,0,1,.745-1.081h0a.939.939,0,0,1,1.081.745h0a.959.959,0,0,1-.745,1.081h-.148a.925.925,0,0,1-.937-.747Zm-.791-4.064a.933.933,0,0,1,.708-1.119h0a.933.933,0,0,1,1.119.708h0a.916.916,0,0,1-.708,1.119h0c-.075,0-.148.038-.223.038h0a.915.915,0,0,1-.9-.747Zm-1.044-3.953a.943.943,0,0,1,.635-1.156h0a.943.943,0,0,1,1.156.634h0a.943.943,0,0,1-.635,1.156h0a.634.634,0,0,1-.261.038h0a.917.917,0,0,1-.891-.674Zm-1.231-3.916a.925.925,0,0,1,.559-1.186h0a.925.925,0,0,1,1.186.559h0a.925.925,0,0,1-.56,1.186h0a.926.926,0,0,1-.3.038h0a.856.856,0,0,1-.884-.6ZM2180.656,50a.988.988,0,0,1,.484-1.231h0a.963.963,0,0,1,1.231.522h0a.963.963,0,0,1-.522,1.231h0a1.089,1.089,0,0,1-.336.075h0a.92.92,0,0,1-.852-.6Zm-1.678-3.73a.909.909,0,0,1,.447-1.231h0a.909.909,0,0,1,1.231.447h0a.909.909,0,0,1-.447,1.231h0a.737.737,0,0,1-.411.075h0a.894.894,0,0,1-.814-.522Zm-1.9-3.655a.933.933,0,0,1,.374-1.267h0a.933.933,0,0,1,1.267.374h0a.933.933,0,0,1-.374,1.267h0a.989.989,0,0,1-.447.113h0a.973.973,0,0,1-.814-.486Zm-2.087-3.542a.909.909,0,0,1,.3-1.267h0a.961.961,0,0,1,1.3.3h0a.96.96,0,0,1-.3,1.3h0a.82.82,0,0,1-.484.148h0a1.062,1.062,0,0,1-.816-.484Zm-2.269-3.394a.949.949,0,0,1,.224-1.3h0a.949.949,0,0,1,1.3.223h0a.949.949,0,0,1-.223,1.3h0a.892.892,0,0,1-.522.186h0a1.025,1.025,0,0,1-.783-.409Zm-2.46-3.281a.907.907,0,0,1,.15-1.3h0a.907.907,0,0,1,1.3.148h0a.9.9,0,0,1-.148,1.3h0a.876.876,0,0,1-.593.186h0a.867.867,0,0,1-.716-.334Zm-2.647-3.133a.937.937,0,0,1,.075-1.3h0a.937.937,0,0,1,1.3.075h0a.937.937,0,0,1-.075,1.3h0a1.011,1.011,0,0,1-.634.223h0a.873.873,0,0,1-.672-.3Zm-2.834-2.983a.9.9,0,0,1,0-1.3h0a.9.9,0,0,1,1.3,0h0a.9.9,0,0,1,0,1.3h0a.9.9,0,0,1-.672.261h0a.873.873,0,0,1-.634-.261Zm-2.983-2.834a.937.937,0,0,1-.075-1.3h0a.937.937,0,0,1,1.3-.075h0a.937.937,0,0,1,.075,1.3h0a.881.881,0,0,1-.708.3h0a.988.988,0,0,1-.6-.223Zm-3.135-2.647a.907.907,0,0,1-.148-1.3h0a.941.941,0,0,1,1.3-.148h0a.907.907,0,0,1,.148,1.3h0a.939.939,0,0,1-.745.336h0a1.007,1.007,0,0,1-.56-.188Zm-3.281-2.5a.949.949,0,0,1-.223-1.3h0a.949.949,0,0,1,1.3-.223h0a.949.949,0,0,1,.223,1.3h0a.917.917,0,0,1-.745.374h0A.593.593,0,0,1,2155.38,18.3Zm-3.431-2.275a.953.953,0,0,1-.3-1.3h0a.917.917,0,0,1,1.267-.3h0a.917.917,0,0,1,.3,1.267h0a.919.919,0,0,1-.791.447h0a.594.594,0,0,1-.475-.111Zm-3.54-2.087a.967.967,0,0,1-.374-1.267h0a.967.967,0,0,1,1.267-.374h0a.966.966,0,0,1,.374,1.267h0a.972.972,0,0,1-.82.484h0A.99.99,0,0,1,2148.409,13.942Zm-3.654-1.9a.941.941,0,0,1-.447-1.231h0a.941.941,0,0,1,1.229-.443h0a.941.941,0,0,1,.447,1.231h0a.894.894,0,0,1-.82.522h0a.545.545,0,0,1-.409-.081Zm-3.768-1.674h0a.948.948,0,0,1-.521-1.231h0a.948.948,0,0,1,1.223-.526h0a.948.948,0,0,1,.522,1.231h0a.919.919,0,0,1-.858.593h0a1.645,1.645,0,0,1-.366-.067Zm-3.844-1.459a.925.925,0,0,1-.56-1.186h0a.925.925,0,0,1,1.186-.559h0a.911.911,0,0,1,.559,1.186h0a.967.967,0,0,1-.9.634h0A2.218,2.218,0,0,0,2137.143,8.908Zm-3.916-1.267h0a.943.943,0,0,1-.635-1.156h0a.943.943,0,0,1,1.156-.634h0a.943.943,0,0,1,.635,1.156h0a.917.917,0,0,1-.9.672h0a.727.727,0,0,1-.257-.04Zm-3.953-1.006a.915.915,0,0,1-.708-1.119h0a.943.943,0,0,1,1.119-.708h0a.943.943,0,0,1,.708,1.119h0a.945.945,0,0,1-.9.745h0a.655.655,0,0,0-.217-.04Zm-4.022-.814a.937.937,0,0,1-.791-1.081h0a.888.888,0,0,1,1.081-.745h0a.888.888,0,0,1,.745,1.081h0a.956.956,0,0,1-.933.791h0a.137.137,0,0,1-.1-.045Zm-4.1-.559a.909.909,0,0,1-.82-1.044h0a.909.909,0,0,1,1.044-.82h0a.927.927,0,0,1,.82,1.044h0a.9.9,0,0,1-.933.82h-.113Zm-4.064-.336h0a.972.972,0,0,1-.9-.969h0a.948.948,0,0,1,.968-.9h0a.949.949,0,0,1,.9.969h0a.967.967,0,0,1-.933.9h-.038Z" transform="translate(-2116.191 -3.061)"/>
      </g>
      <g id="Group_819" data-name="Group 819" transform="translate(74.2 74.139)">
        <path id="Path_30" data-name="Path 30" class="cls-1" d="M4008.69,2004.685a1.159,1.159,0,0,1-.672-.261.515.515,0,0,1-.113-.148.284.284,0,0,1-.075-.148.338.338,0,0,1-.038-.186c0-.075-.038-.113-.038-.186a.336.336,0,0,1,.038-.186c0-.075.038-.113.038-.186.038-.037.038-.113.075-.148s.075-.113.113-.148a.862.862,0,0,1,.82-.261c.075,0,.113.038.186.038.075.037.113.037.148.075s.113.075.15.113a.9.9,0,0,1,.261.672,1.165,1.165,0,0,1-.261.672.51.51,0,0,1-.15.113.282.282,0,0,1-.148.075c-.038.037-.113.037-.186.075A.222.222,0,0,1,4008.69,2004.685Z" transform="translate(-4007.753 -2002.807)"/>
      </g>
    </g>
    <g id="Group_822" data-name="Group 822" transform="translate(130.835 65.653)">
      <circle id="Ellipse_6" data-name="Ellipse 6" class="cls-2" cx="9.321" cy="9.321" r="9.321" transform="translate(0 0)"/>
      <g id="Group_821" data-name="Group 821" transform="translate(0 6.973)">
        <path id="Path_31" data-name="Path 31" class="cls-1" d="M3548.729,1972.117a9.354,9.354,0,0,1-9.023-7.011,9.6,9.6,0,0,0-.3,2.313,9.322,9.322,0,0,0,18.643,0,9.123,9.123,0,0,0-.3-2.311A9.248,9.248,0,0,1,3548.729,1972.117Z" transform="translate(-3539.408 -1965.107)"/>
      </g>
    </g>
    <g id="Group_825" data-name="Group 825" transform="translate(0.525 65.653)">
      <g id="Group_823" data-name="Group 823" transform="translate(0 0)">
        <circle id="Ellipse_7" data-name="Ellipse 7" class="cls-2" cx="9.321" cy="9.321" r="9.321" transform="translate(0)"/>
      </g>
      <g id="Group_824" data-name="Group 824" transform="translate(0 6.973)">
        <path id="Path_32" data-name="Path 32" class="cls-1" d="M23.423,1972.117a9.353,9.353,0,0,1-9.023-7.011,9.584,9.584,0,0,0-.3,2.313,9.322,9.322,0,0,0,18.645,0,9.118,9.118,0,0,0-.3-2.311A9.248,9.248,0,0,1,23.423,1972.117Z" transform="translate(-14.101 -1965.107)"/>
      </g>
    </g>
    <g id="Group_826" data-name="Group 826" transform="translate(132.314 51.204)">
      <path id="Path_33" data-name="Path 33" class="cls-1" d="M3584.367,1391.552a1.585,1.585,0,0,1-.411-.075l-4.214-1.977a.927.927,0,0,1,.791-1.678l3.394,1.565,1.565-3.394a.927.927,0,1,1,1.678.791l-1.976,4.214A.872.872,0,0,1,3584.367,1391.552Z" transform="translate(-3579.21 -1385.462)"/>
    </g>
    <g id="Group_827" data-name="Group 827" transform="translate(9.643 92.71)">
      <path id="Path_34" data-name="Path 34" class="cls-1" d="M261.309,2514.547a1.582,1.582,0,0,1-.411-.075.909.909,0,0,1-.447-1.231l1.977-4.214a.909.909,0,0,1,1.231-.447l4.214,1.976a.928.928,0,0,1-.791,1.678l-3.394-1.565-1.565,3.394A.956.956,0,0,1,261.309,2514.547Z" transform="translate(-260.358 -2508.486)"/>
    </g>
    <g id="Group_829" data-name="Group 829" transform="translate(30.74 51.669)">
      <rect id="Rectangle_822" data-name="Rectangle 822" class="cls-1" width="79.05" height="37.288"/>
      <g id="Group_828" data-name="Group 828" transform="translate(9.321 9.321)">
        <rect id="Rectangle_823" data-name="Rectangle 823" class="cls-2" width="79.236" height="37.288"/>
      </g>
    </g>
    <g id="Group_830" data-name="Group 830" transform="translate(70.334 70.306)">
      <circle id="Ellipse_8" data-name="Ellipse 8" class="cls-1" cx="9.321" cy="9.321" r="9.321" transform="translate(0 0)"/>
    </g>
    <g id="Group_831" data-name="Group 831" transform="translate(56.378 74.967)">
      <circle id="Ellipse_9" data-name="Ellipse 9" class="cls-1" cx="4.661" cy="4.661" r="4.661" transform="translate(0 0)"/>
    </g>
    <g id="Group_832" data-name="Group 832" transform="translate(93.613 74.967)">
      <circle id="Ellipse_10" data-name="Ellipse 10" class="cls-1" cx="4.661" cy="4.661" r="4.661" transform="translate(0 0)"/>
    </g>
  </g>
</svg>
