<svg viewBox="-3981 326 20 15" xmlns="http://www.w3.org/2000/svg"><path d="m-3981 326h20v15h-20z" fill="#c0cfd8"/><path d="m-3980.375 326.625h18.75v1.25h-18.75z" fill="#e03232"/><path d="m-3980.375 327.875h18.75v1.25h-18.75z" fill="#fff"/><path d="m-3980.375 329.125h18.75v1.25h-18.75z" fill="#e03232"/><path d="m-3980.375 330.375h18.75v1.25h-18.75z" fill="#fff"/><path d="m-3980.375 331.625h18.75v1.25h-18.75z" fill="#e03232"/><path d="m-3980.375 332.875h18.75v1.25h-18.75z" fill="#fff"/><path d="m-3980.375 334.125h18.75v1.25h-18.75z" fill="#e03232"/><path d="m-3980.375 335.375h18.75v1.25h-18.75z" fill="#fff"/><path d="m-3980.375 336.625h18.75v1.25h-18.75z" fill="#e03232"/><path d="m-3980.375 337.875h18.75v1.25h-18.75z" fill="#fff"/><path d="m-3980.375 339.125h18.75v1.25h-18.75z" fill="#e03232"/><path d="m-3980.375 326.625h10v7.5h-10z" fill="#66a1cc"/><path d="m-3980.375 326.625h10v7.5h-10z" fill="#0035a0"/></svg>