<svg xmlns="http://www.w3.org/2000/svg" viewBox="0 0 16 16"><defs><style>.a{fill:#c4cbd2;}.b{fill:#596d81;}.c{fill:none;}</style></defs><g transform="translate(1713 1507)"><g transform="translate(-1709.889 -1504.333)"><rect class="a" width="10.667" height="10.667"/></g><g transform="translate(-1711.849 -1506.294)"><rect class="b" width="8.192" height="0.889" transform="translate(0.811 0.181) rotate(45)"/><rect class="b" width="3.556" height="0.889" transform="translate(0.001 0.001)"/><rect class="b" width="3.556" height="0.889" transform="translate(0.889) rotate(90)"/></g><g transform="translate(-1711.85 -1498.308)"><rect class="b" width="8.192" height="0.889" transform="translate(0.182 5.793) rotate(-45)"/><rect class="b" width="3.556" height="0.889" transform="translate(0 6.603) rotate(-90)"/><rect class="b" width="3.556" height="0.889" transform="translate(0.002 5.712)"/></g><g transform="translate(-1703.863 -1498.307)"><rect class="b" width="8.192" height="0.889" transform="translate(5.793 6.421) rotate(-135)"/><rect class="b" width="3.556" height="0.889" transform="translate(6.602 6.602) rotate(180)"/><rect class="b" width="3.556" height="0.889" transform="translate(5.712 6.6) rotate(-90)"/></g><rect class="c" width="16" height="16" transform="translate(-1713 -1507)"/><g transform="translate(-1703.862 -1506.295)"><rect class="b" width="8.192" height="0.889" transform="translate(6.421 0.81) rotate(135)"/><rect class="b" width="3.556" height="0.889" transform="translate(6.6 0.002) rotate(90)"/><rect class="b" width="3.556" height="0.889" transform="translate(6.601 0.889) rotate(180)"/></g></g></svg>