<svg viewBox="0 0 16 16" xmlns="http://www.w3.org/2000/svg"><path d="m3.111 2.667h10.667v10.667h-10.667z" fill="#e6eaed"/><g fill="#091440"><path d="m0 0h8.192v.889h-8.192z" transform="matrix(.70710678 .70710678 -.70710678 .70710678 1.962 .887)"/><path d="m1.152.707h3.556v.889h-3.556z"/><path d="m0 0h3.556v.889h-3.556z" transform="matrix(0 1 -1 0 2.04 .706)"/><path d="m0 0h8.192v.889h-8.192z" transform="matrix(.70710678 -.70710678 .70710678 .70710678 1.332 14.485)"/><path d="m0 0h3.556v.889h-3.556z" transform="matrix(0 -1 1 0 1.15 15.295)"/><path d="m1.152 14.404h3.556v.889h-3.556z"/><path d="m0 0h8.192v.889h-8.192z" transform="matrix(-.70710678 -.70710678 .70710678 -.70710678 14.93 15.114)"/><path d="m0 0h3.556v.889h-3.556z" transform="matrix(-1 0 0 -1 15.739 15.295)"/><path d="m0 0h3.556v.889h-3.556z" transform="matrix(0 -1 1 0 14.849 15.293)"/></g><path d="m0 0h16v16h-16z" fill="none"/><g fill="#091440"><path d="m0 0h8.192v.889h-8.192z" transform="matrix(-.70710678 .70710678 -.70710678 -.70710678 15.559 1.515)"/><path d="m0 0h3.556v.889h-3.556z" transform="matrix(0 1 -1 0 15.738 .707)"/><path d="m0 0h3.556v.889h-3.556z" transform="matrix(-1 0 0 -1 15.739 1.594)"/></g></svg>