<svg viewBox="0 0 400.03 400.01" xmlns="http://www.w3.org/2000/svg"><path d="m82.66 38a202.54 202.54 0 0 0 -16.45 13.37l-.12.1-.07.07h-.05l-.07.06h-.05l-.06.06h-.05l-.06.06h-.05l-.06.06h-.05l-.06.05h-.06l-.06.05-.06.06-.07.06-.07.06-.26.24-.07.07-.07.06-.07.06-.08.07-.08.07-.08.07-.08.08-.09.09-.64.6-.1.1-.1.1-.1.1-.1.1q-5.16 4.87-9.9 10l36.26 34.62c3.18-3.45 6.57-6.8 10.09-10a153.13 153.13 0 0 1 12.33-9.99zm-53.84 58.52-.89 1.48-.07.13-.07.12-.07.12-.06.11-.06.1-.06.1-.06.1-.06.1-.06.09-.05.09-.05.09-.05.09-.05.09-.05.09-.05.09-.05.09-.05.09v.05.08.09.05.08.06.08.06.08.06.08.06.08.06.07.06.08.06.08.06.07.06.07.07l-.06.1-.05.09-.07.13-.13.23-.06.11-.06.11-.06.1-.05.1-.05.09-.05.1-.05.1-.05.1-.05.1-.05.1-.05.1-.05.1-.05.1-.05.1-.05.1-.06.1-.06.1-1.75 1.4-.06.11-.06.11-.06.11-.06.12-.06.12-.06.12-.06.12-.06.12-.07.12-.07.13q-3.58 6.76-6.6 13.72l-.06.13-.06.13-.05.13-.05.12-.05.12-.05.12-.05.12v.11.11.1.1.1.09.09.1.09.05.09.05.09.06.09.06.08.07.07.07.08.06.08.06.07.07.07.08.06.1l-.64 1.58-.06.14-.11.28q-1.32 3.32-2.52 6.68l45.7 17.55a149.12 149.12 0 0 1 12.82-27zm-26.73 74.83q-.63 4.33-1.09 8.65v.14.92.3l-.06.62v2.83a201.06 201.06 0 0 0 -.26 26.35l49.92-2.78a151.52 151.52 0 0 1 1.32-30zm4.42 79.35a198.86 198.86 0 0 0 8.25 24.81l.24.58.06.14.06.14.06.14.06.14.06.14.06.14.06.14.06.14q.54 1.3 1.11 2.59l.06.14.05.13.05.12.05.11v.11.1.1.1.09.09.05.09.09.05.09.06.09.06.09.06.08.06.09.06.08.06.08.06.08.06.09.06.08.06.08.06.08.06.08.06.08.06.08.06.08.07.07.07.07.08.06.08.05.09.11l.38.8.06.12.06.12.05.11.06.12.05.11.05.11.05.11.05.11.05.11.05.11.05.11.05.11.05.11.05.11.05.11.05.11.05.11.05.11.06.11v.06l44.88-22a149 149 0 0 1 -10.41-28zm74.62 40.78-39.58 30.52q.94 1.22 1.91 2.43l.06.08.06.07.08.1v.06l.06.07.09.11.08.1q3.3 4.1 6.85 8.07l.21.23.08.09.1.11.12.13.08.09.08.09.11.13.08.08v.05l.07.08v.05l.1.11.05.06.08.09.05.06.06.07.05.06.07.07.05.06.11.12.06.06.06.07.06.06.06.07.06.06.06.06.11.12.05.06.07.07.05.05.07.07.17.18.07.08.07.08.08.08.16.17.07.08.08.08.18.19.08.08.08.08.27.29.08.09.09.09.28.3.09.09.29.3.09.09.09.09.3.31.09.1.3.3.09.09.4.4.09.09.29.29.09.09.4.4.09.09.3.3.09.09.4.4.09.09.3.29.09.09.3.3.09.09.09.09.28.27.08.08.09.08.18.18.08.07.08.07.17.16.07.07h.05l.07.07.07.07.13.13.05.05.07.06.06.06.06.06.07.06.09.08.09.08.06.06.07.06.06.05.08.07.12.11.09.09.08.08.11.1.13.12.1.09.1.1.13.12.12.11.11.1.27.25.13.12q2 1.87 4.12 3.68l32.82-37.72a152.67 152.67 0 0 1 -13.21-13c-2.58-2.87-5.07-5.86-7.42-8.89zm45 39.15-24.62 43.52q5.62 3.18 11.41 6l.13.06.12.06.12.06.12.06.13.06.13.06.42.2.13.06h.1.1.1.09.1l.11.05.14.06.14.07.12.05h.1.09.06.08.06.07.06.08.06.07.06.07.07.08.05.09l.12.05h.05.08.08.05.08.05.08.05.08.05.08.05.08.09l.36.16h.1.09.09.09.09.1.11l.75.33h.11.11.11l.12.05.12.05.91.39.13.05.12.05.12.05 1 .44.13.05.13.05q7.24 3 14.67 5.4l15.44-47.56a149.31 149.31 0 0 1 -27.37-12zm56.7 18.37-5.71 49.67a201.15 201.15 0 0 0 39.93.6l-4.22-49.82a151.45 151.45 0 0 1 -30-.45zm59.45-5 14 48a198.55 198.55 0 0 0 37-15l-23.28-44.24a148.94 148.94 0 0 1 -27.73 11.24zm73.91-49a152.16 152.16 0 0 1 -15.8 16.53c-1.78 1.6-3.62 3.18-5.47 4.7l31.67 38.69q3.45-2.83 6.81-5.83l.11-.1.1-.09.09-.08.11-.1.11-.1.09-.08.23-.2a201.38 201.38 0 0 0 20.52-21.54zm27.81-52.66a149.51 149.51 0 0 1 -11.23 27.72l44.22 23.34a198.82 198.82 0 0 0 8.6-18.55l.11-.28.05-.14.06-.14.17-.42.05-.14.6-1.54v-.11-.11-.1-.09-.08-.06-.08-.06-.08-.06-.08-.06-.08-.07-.08-.07-.08-.06-.08-.07-.07-.08-.07-.08-.07-.08-.07-.08-.06-.09-.05-.09-.05-.09-.05-.1-.11-.11-.11-.13-.14q.48-1.32.94-2.64 1.64-4.7 3-9.47l-48-14zm5.1-59.48a151.4 151.4 0 0 1 .42 30l49.82 4.27a201.33 201.33 0 0 0 .66-21.63v-.15-.14-.44-.29-.29-.19-.14-.14c0-.6 0-1.18-.06-1.78v-1.94c0-.65-.07-1.29-.11-1.94v-.15-.14-.14-.14-.14-.14-.21-.14-.14-.14q-.31-4.65-.84-9.29l-49.68 5.66zm-18.37-56.61a148.86 148.86 0 0 1 12 27.35l47.56-15.43a198.58 198.58 0 0 0 -7.71-20l-.06-.14-.06-.13-.06-.13-.06-.13-.06-.13-.06-.12-.05-.12-.05-.12-.05-.12-.05-.11-.05-.11-.05-.11-.05-.11v-.1-.1-.1-.1-.1-.09-.09-.09-.06-.08-.07-.07-.07-.07-.07-.07-.07-.06-.08-.05-.09-.09-.09q-3-6.28-6.45-12.4l-43.51 24.63zm-8.55-84.69-30.61 39.58a151.71 151.71 0 0 1 19.94 18.51c.63.7 1.26 1.42 1.88 2.13l37.77-32.78-1.09-1.25-.08-.09v-.05l-1.06-1.19-.06-.07-.09-.1-.1-.11-.07-.08-.06-.07-.06-.07-.06-.06-.06-.06-.05-.06-.06-.06-.05-.06-.06-.06-.05-.06-.06-.06-.06-.06-.06-.06-.06-.06-.06-.07-.06-.07-.07-.08-.09-.1-.31-.33-.09-.1-.08-.09-.07-.08-.08-.08-.07-.08-.07-.08-.07-.07-.07-.07-.07-.08-.07-.07-.07-.07-.07-.08-.08-.08-.08-.08-.09-.09-.93-1-.1-.1-.09-.1-.09-.09-.09-.1-.1-.1-.1-.1-.1-.1-.1-.1a200.49 200.49 0 0 0 -21-18.69zm-71.32-35-12.7 48.35a149.74 149.74 0 0 1 28 10.43l22-44.88a199.43 199.43 0 0 0 -37.34-13.92zm-79.39-4.56 7.09 49.49a151.25 151.25 0 0 1 30-1.28l2.81-49.89a201.14 201.14 0 0 0 -39.9 1.68zm-74.83 26.76 25.89 42.77a148.87 148.87 0 0 1 27-12.82l-16.82-47.09a198.74 198.74 0 0 0 -18.71 7.79l-.11.05h-.1-.09-.09-.09-.09-.08-.05-.08-.06-.08l-.13.06h-.05-.08-.06-.08-.06-.08-.06-.08-.06-.08-.06-.08-.05-.09-.1l-.11.05-.13.06-.84.42-.13.07-.13.07q-6.85 3.45-13.49 7.47z" fill="#a9b4bf"/><path d="m200 .07c-110.46 0-200 89.54-200 200a201.92 201.92 0 0 0 1.55 25h50.52a151.87 151.87 0 0 1 -2.07-25 150.07 150.07 0 0 1 125-147.93v122.93h-75v50h125v-223.45a202 202 0 0 0 -25-1.55z" fill="#18173f"/></svg>