<svg xmlns="http://www.w3.org/2000/svg" width="18" height="18" viewBox="0 0 18 18">
  <g id="blocks" transform="translate(-661.1 -366.3)">
    <g id="Group_1053" data-name="Group 1053" transform="translate(377 189.4)" opacity="0.9">
      <path id="XMLID_101_" d="M285.4,187.9c.1.3.2.7.3,1h0v.1h0l1.8-.9a4.874,4.874,0,0,1-.4-1.1l-1.7.9Zm3,1.6-1.6,1.2.1.1h0l.3.3h0c.1,0,.1.1.2.1l1.3-1.5c-.2-.2-.4-.3-.5-.5.4.5.3.4.2.3Zm1.8,1.6-1,1.7a.764.764,0,0,0,.5.2h0a1.421,1.421,0,0,0,.6.2l.6-1.9c0,.1-.3,0-.7-.2Zm2.3.7-.2,2a4.3,4.3,0,0,0,1.6,0l-.2-2a4.819,4.819,0,0,1-1.2,0Zm2.4-.2.6,1.9a4.715,4.715,0,0,0,1.5-.6l-.9-1.8c-.5.2-.9.4-1.2.5Zm2.9-2c-.2.2-.4.5-.6.7l-.2.2,1.3,1.5c.1-.1.2-.2.3-.2h0a6.47,6.47,0,0,0,.8-.9l-1.6-1.3Zm1.1-2.1c-.1.4-.3.8-.4,1.1l1.8.9c.1-.2.2-.5.3-.7h0v-.1h0v-.1h0c0-.1.1-.3.1-.4l-1.8-.7Zm.2-2.3a4.818,4.818,0,0,1,0,1.2l2,.2v-.9h0v-.1h0v-.1h0v-.4l-2,.1Zm-.7-2.3a3.7,3.7,0,0,1,.5,1.1l1.9-.6c-.1-.3-.2-.5-.3-.8h0c-.1-.2-.2-.3-.3-.5l-1.8.8Zm-.3-3.4-1.2,1.6a5.716,5.716,0,0,1,.8.7l.1.1,1.5-1.3v-.1h0a8.4,8.4,0,0,1-1.2-1Zm-2.9-1.4-.5,1.9a3.583,3.583,0,0,1,1.1.4l.9-1.8a8.8,8.8,0,0,0-1.5-.5Z" fill="#99c1e3"/>
      <g id="Group_114" data-name="Group 114">
        <path id="Path_60" data-name="Path 60" d="M293.2,177.8a8.024,8.024,0,0,0-8,8,3.4,3.4,0,0,0,.1,1h2a3.4,3.4,0,0,1-.1-1,5.6,5.6,0,0,1,1.8-4.2,5.908,5.908,0,0,1,3.2-1.7v4.9h-3v2h5v-8.9c-.4,0-.7-.1-1-.1Z" fill="#436ec3"/>
      </g>
    </g>
    <rect id="Rectangle_2105" data-name="Rectangle 2105" width="18" height="18" transform="translate(661.1 366.3)" fill="none"/>
  </g>
</svg>
