<svg width="450" height="450" viewBox="0 0 450 450" fill="none" xmlns="http://www.w3.org/2000/svg">
<path d="M225.242 75.2285C132.135 75.2285 53.9002 138.901 31.7002 225.075C53.9002 311.251 132.134 374.923 225.24 374.923C318.346 374.923 396.582 311.252 418.78 225.075C396.583 138.901 318.348 75.2285 225.242 75.2285Z" fill="#99C1E3"/>
<path d="M287.817 200.001C280.029 200.003 272.433 197.58 266.085 193.069C259.737 188.557 254.952 182.181 252.393 174.825C249.835 167.469 249.631 159.499 251.809 152.022C253.987 144.545 258.44 137.931 264.549 133.101C243.2 123.986 219.345 122.587 197.077 129.145C174.81 135.703 155.52 149.808 142.519 169.039C129.519 188.27 123.618 211.427 125.831 234.534C128.044 257.641 138.232 279.257 154.646 295.671C171.061 312.085 192.677 322.273 215.784 324.485C238.892 326.698 262.048 320.797 281.279 307.796C300.51 294.795 314.614 275.505 321.172 253.237C327.729 230.97 326.33 207.114 317.215 185.766C313.71 190.206 309.243 193.794 304.151 196.26C299.059 198.725 293.474 200.004 287.817 200.001ZM225.242 249.921C220.298 249.921 215.464 248.454 211.353 245.707C207.242 242.96 204.037 239.056 202.145 234.488C200.253 229.92 199.758 224.893 200.722 220.043C201.687 215.194 204.068 210.739 207.564 207.243C211.061 203.747 215.515 201.366 220.365 200.401C225.214 199.436 230.241 199.931 234.809 201.824C239.377 203.716 243.282 206.92 246.029 211.031C248.776 215.143 250.242 219.976 250.242 224.921C250.242 231.551 247.608 237.91 242.92 242.598C238.231 247.287 231.872 249.921 225.242 249.921Z" fill="#36579E"/>
</svg>
