<svg width="450" height="450" viewBox="0 0 450 450" fill="none" xmlns="http://www.w3.org/2000/svg">
<path d="M367.932 135.479L145.077 358.334C246.346 402.426 364.184 356.075 408.277 254.807C412.455 245.21 415.873 235.299 418.5 225.168C409.804 191.353 392.364 160.421 367.932 135.479Z" fill="#99C1E3"/>
<path d="M224.94 325.074C241.428 325.062 257.658 320.975 272.186 313.178C286.714 305.38 299.089 294.112 308.212 280.378C317.335 266.643 322.922 250.867 324.476 234.452C326.031 218.037 323.504 201.492 317.122 186.289L186.15 317.262C198.436 322.407 211.62 325.062 224.94 325.074Z" fill="#36579E"/>
<path d="M305.253 92.0944C204.113 47.7924 86.208 93.8694 41.907 195.01C37.6447 204.741 34.1646 214.796 31.5 225.079C40.2767 259.022 57.8312 290.058 82.4 315.068" fill="#99C1E3"/>
<path d="M124.975 225.078C124.987 238.58 127.705 251.943 132.967 264.378L258.231 139.115C259.994 136.885 262.011 134.869 264.24 133.106C251.823 127.786 238.448 125.066 224.94 125.114C198.433 125.13 173.016 135.667 154.272 154.41C135.528 173.154 124.991 198.571 124.975 225.078Z" fill="#36579E"/>
<path d="M358.035 74.77L75.25 357.555L92.927 375.232L375.712 92.4469L358.035 74.77Z" fill="#99C1E3"/>
</svg>
