<svg xmlns="http://www.w3.org/2000/svg" viewBox="6939 1029 60 60"><defs><style>.a{fill:#091440;}.b{fill:#8795a2;}</style></defs><path class="a" d="M113.391,35.8a29.312,29.312,0,0,1-8.478-5.543,25.5,25.5,0,0,1-5.543-8.478,26.573,26.573,0,0,1-1.957-10.109A20.053,20.053,0,0,1,97.739,7.1,22.648,22.648,0,0,0,86,26.665a23.572,23.572,0,0,0,6.522,15.978L86,49.165h22.5a22.746,22.746,0,0,0,19.565-11.087H123.5A26.885,26.885,0,0,1,113.391,35.8Z" transform="translate(6853 1039.835)"/><path class="b" d="M113.1,46.6h22.5l-6.522-6.522A22.158,22.158,0,0,0,135.6,24.1a22.5,22.5,0,1,0-22.5,22.5ZM102.013,27.687A3.587,3.587,0,1,1,105.6,24.1,3.619,3.619,0,0,1,102.013,27.687Zm22.5-7.174a3.587,3.587,0,1,1-3.587,3.587A3.421,3.421,0,0,1,124.513,20.513Zm-7.5,3.587a3.587,3.587,0,1,1-3.587-3.587A3.619,3.619,0,0,1,117.013,24.1Z" transform="translate(6863.4 1027.4)"/></svg>