<svg viewBox="0 0 40 40" xmlns="http://www.w3.org/2000/svg"><path d="m40.769 160.629a15.557 15.557 0 0 1 -9.5-14.329 16.237 16.237 0 0 1 .249-2.8 13.341 13.341 0 0 0 -2.969 21.164l-3.949 3.858h13.333a13.291 13.291 0 0 0 11.547-6.667h-2.658a15.511 15.511 0 0 1 -6.053-1.226z" fill="#c4cbd2" transform="translate(-22.413 -130.744)"/><path d="m137.933 24.9a13.333 13.333 0 1 0 0 26.667h13.333l-3.946-3.867a13.331 13.331 0 0 0 -9.387-22.8zm-6.667 15.556a2.222 2.222 0 1 1 2.222-2.222 2.223 2.223 0 0 1 -2.221 2.222zm6.667 0a2.222 2.222 0 1 1 2.222-2.222 2.223 2.223 0 0 1 -2.222 2.222zm6.667 0a2.222 2.222 0 1 1 2.222-2.222 2.223 2.223 0 0 1 -2.222 2.222z" fill="#091440" transform="translate(-113.524 -22.687)"/><g fill="#c4cbd2"><circle cx="2.222" cy="2.222" r="2.222" transform="matrix(.97323506 -.22981194 .22981194 .97323506 21.735 13.893)"/><circle cx="2.222" cy="2.222" r="2.222" transform="matrix(.97323506 -.22981194 .22981194 .97323506 15.068 13.894)"/><circle cx="2.222" cy="2.222" r="2.222" transform="matrix(.97323506 -.22981194 .22981194 .97323506 28.401 13.893)"/></g><path d="m0 0h40v40h-40z" fill="none"/></svg>