<svg xmlns="http://www.w3.org/2000/svg" viewBox="0 0 40 40"><defs><style>.a{fill:none;}.b{fill:#18173f;}</style></defs><g transform="translate(1733 1868)"><rect class="a" width="40" height="40" transform="translate(-1733 -1868)"/><g transform="translate(-1730 -1862)"><path class="b" d="M.022,27.288,0,26.138a11.136,11.136,0,0,1,1.478-.488,4.128,4.128,0,0,0,1.266-.466.86.86,0,0,0,.226-.641v-.451c.058-1.281.08-1.994.08-2.147,0-.124-.007-.3-.022-.517l-.022-.247.022-.269v-.189l-.116-3.537-.022-3.96-.044-.393q-.371,0-1.092-.044H.451L.1,12.723q-.022-.557-.022-.9a1.434,1.434,0,0,1,.291-.939c.415,0,1.223-.051,2.431-.146A15.514,15.514,0,0,1,3.6,6.136,10.445,10.445,0,0,1,5.444,2.679l.539-.6A9.449,9.449,0,0,1,8.487.466,7.136,7.136,0,0,1,11.2,0a5.7,5.7,0,0,1,2.526.495,2.858,2.858,0,0,1,1.383,1.266A3.271,3.271,0,0,1,15.489,3.2,2.1,2.1,0,0,1,14.8,4.709,2.077,2.077,0,0,1,13.3,5.4a2.11,2.11,0,0,1-1.216-.415,4.521,4.521,0,0,1-1-1.288,5.238,5.238,0,0,0-.917-1.245A1.39,1.39,0,0,0,9.3,2.205,1.493,1.493,0,0,0,8.189,2.7a2.837,2.837,0,0,0-.662,1.427,23.2,23.2,0,0,0-.189,3.712L7.315,10.11l.022.6.393.022,2.438-.066a3.894,3.894,0,0,1,.575.066c.189.167.291.306.291.415l-.044.393v.56a3.207,3.207,0,0,1-.066.473.913.913,0,0,1-.429.1h-.182l-1.565.044a3.071,3.071,0,0,1-.6-.044H7.97a3.3,3.3,0,0,0-.619.087l-.015,1.012c0,.095.007.247.015.451.015.786.029,1.317.029,1.609l-.015,3.028L7.4,21.065l-.022,1.776q-.044,1.878.371,2.271a4.251,4.251,0,0,0,2.482.8,1.757,1.757,0,0,1,.633.146,4.445,4.445,0,0,1,.08.641,3.863,3.863,0,0,1-.08.641H9.39c-.124,0-.924-.051-2.409-.146l-1.114-.08c-1.07,0-1.9.022-2.489.073C3.064,27.215,1.943,27.251.022,27.288Z" transform="translate(0 0)"/><path class="b" d="M162.593,138.169a3.837,3.837,0,0,1,.99-.328,4.876,4.876,0,0,0,1.317-.313.978.978,0,0,0,.415-.451,8.266,8.266,0,0,0,.124-1.82v-1.8l.022-1.463-.066-2.169v-1.3a8.96,8.96,0,0,0-.2-2.125,1.223,1.223,0,0,0-.517-.619,6.758,6.758,0,0,0-1.958-.808l-.022-.99a3.1,3.1,0,0,1,.488-.116c.146-.022.7-.153,1.66-.4.757-.277,1.245-.466,1.463-.575.066-.044.182-.1.328-.189a6.227,6.227,0,0,1,.56-.415,8.043,8.043,0,0,0,1.485-1.507l1.114-.08-.044,2.329a4.784,4.784,0,0,0-.044.56c0,.109.015.429.044.946a11.741,11.741,0,0,1,3.108-2.06,9.046,9.046,0,0,1,3.479-.764,6.056,6.056,0,0,1,3.4.961,4.565,4.565,0,0,1,1.914,2.22,18.278,18.278,0,0,1,.451,5.088l-.08,6.74a1.656,1.656,0,0,0,.167.786,3.74,3.74,0,0,0,1.135.291l1.012.2a1.1,1.1,0,0,1,.189.648c0,.16-.007.386-.022.67l-4.04-.291-1.194.044h-.946l-2.722.189h-.7c-.015-.175-.022-.306-.022-.4a7.494,7.494,0,0,1,.044-.779c.189-.044.677-.109,1.441-.2a4.84,4.84,0,0,0,.684-.146c.277-.109.437-.218.473-.328a3.62,3.62,0,0,0,.167-1.339q0-1.736-.022-2.664l.022-2.395q0-4.356-.553-5.43a2.507,2.507,0,0,0-2.344-1.55,5.516,5.516,0,0,0-2.387.59,10.637,10.637,0,0,0-2.548,1.791l-.044.349.044,1.3-.044,1.383.08,3.3-.044.517a13.026,13.026,0,0,0,.269,3.8,4.235,4.235,0,0,0,2.06.961,3.151,3.151,0,0,1,.066.517,3.249,3.249,0,0,1-.146.764c-.429.015-.786.022-1.077.022a9.889,9.889,0,0,1-1.361-.138l-2.213-.044q-1.649,0-4.775.146a1.073,1.073,0,0,1-.08-.429C162.578,138.715,162.586,138.5,162.593,138.169Z" transform="translate(-150.75 -111.915)"/></g></g></svg>