<svg xmlns="http://www.w3.org/2000/svg" viewBox="6777.866 1029 73.944 60"><defs><style>.a{fill:#8795a2;}.b{fill:#091440;}</style></defs><path class="a" d="M.048,59.745,0,57.227a24.382,24.382,0,0,1,3.235-1.068,9.037,9.037,0,0,0,2.773-1.02,1.884,1.884,0,0,0,.494-1.4v-.988c.127-2.8.175-4.367.175-4.7,0-.271-.016-.653-.048-1.131l-.048-.542.048-.59v-.414l-.255-7.745-.048-8.669-.1-.861q-.813,0-2.39-.1H.988l-.765-.143Q.175,26.637.175,25.9a3.139,3.139,0,0,1,.637-2.056c.908,0,2.677-.112,5.323-.319A33.967,33.967,0,0,1,7.873,13.434a22.868,22.868,0,0,1,4.048-7.57L13.1,4.558A20.687,20.687,0,0,1,18.582,1.02,15.623,15.623,0,0,1,24.526,0a12.471,12.471,0,0,1,5.53,1.084,6.257,6.257,0,0,1,3.028,2.773A7.163,7.163,0,0,1,33.912,7a4.588,4.588,0,0,1-1.5,3.315,4.548,4.548,0,0,1-3.3,1.514,4.619,4.619,0,0,1-2.661-.908A9.9,9.9,0,0,1,24.271,8.1a11.468,11.468,0,0,0-2.008-2.725,3.044,3.044,0,0,0-1.9-.542,3.269,3.269,0,0,0-2.438,1.084,6.211,6.211,0,0,0-1.45,3.124,50.8,50.8,0,0,0-.414,8.127l-.048,4.972.048,1.307.861.048,5.339-.143a8.525,8.525,0,0,1,1.259.143c.414.367.637.669.637.908l-.1.861v1.227a7.022,7.022,0,0,1-.143,1.036,2,2,0,0,1-.94.223h-.4l-3.426.1a6.724,6.724,0,0,1-1.307-.1h-.4a7.226,7.226,0,0,0-1.355.191l-.032,2.215c0,.207.016.542.032.988.032,1.721.064,2.884.064,3.522l-.032,6.629.08,4.829-.048,3.888q-.1,4.112.813,4.972c.861.877,2.677,1.466,5.434,1.753a3.847,3.847,0,0,1,1.386.319,9.733,9.733,0,0,1,.175,1.4,8.457,8.457,0,0,1-.175,1.4H20.558c-.271,0-2.024-.112-5.275-.319l-2.438-.175c-2.343,0-4.159.048-5.45.159C6.709,59.586,4.255,59.665.048,59.745Z" transform="translate(6777.866 1029)"/><path class="b" d="M162.6,158.947a8.4,8.4,0,0,1,2.167-.717,10.676,10.676,0,0,0,2.884-.685,2.14,2.14,0,0,0,.908-.988,18.1,18.1,0,0,0,.271-3.984v-3.936l.048-3.2-.143-4.749v-2.853a19.619,19.619,0,0,0-.446-4.653,2.678,2.678,0,0,0-1.131-1.355,14.8,14.8,0,0,0-4.287-1.769l-.048-2.167a6.79,6.79,0,0,1,1.068-.255c.319-.048,1.53-.335,3.633-.876,1.657-.606,2.725-1.02,3.2-1.259.143-.1.4-.223.717-.414a13.651,13.651,0,0,1,1.227-.908,17.61,17.61,0,0,0,3.251-3.3l2.438-.175-.1,5.1a10.472,10.472,0,0,0-.1,1.227c0,.239.032.94.1,2.072a25.706,25.706,0,0,1,6.8-4.51,19.806,19.806,0,0,1,7.618-1.673,13.26,13.26,0,0,1,7.442,2.1,9.995,9.995,0,0,1,4.191,4.861q.98,2.749.988,11.139l-.175,14.757a3.626,3.626,0,0,0,.367,1.721,8.19,8.19,0,0,0,2.486.637l2.215.43a2.407,2.407,0,0,1,.414,1.418c0,.351-.016.845-.048,1.466l-8.845-.637-2.614.1h-2.072l-5.96.414h-1.53c-.032-.382-.048-.669-.048-.877a16.42,16.42,0,0,1,.1-1.705c.414-.1,1.482-.239,3.155-.446a10.6,10.6,0,0,0,1.5-.319c.606-.239.956-.478,1.036-.717a7.926,7.926,0,0,0,.367-2.932q0-3.8-.048-5.833l.048-5.243q0-9.538-1.211-11.888a5.489,5.489,0,0,0-5.131-3.394,12.078,12.078,0,0,0-5.227,1.291,23.287,23.287,0,0,0-5.578,3.92l-.1.765.1,2.853-.1,3.028.175,7.235-.1,1.131c0,4.908.191,7.681.59,8.319s1.9,1.339,4.51,2.1a6.9,6.9,0,0,1,.143,1.131,7.112,7.112,0,0,1-.319,1.673c-.94.032-1.721.048-2.359.048a21.654,21.654,0,0,1-2.98-.3l-4.845-.1q-3.61,0-10.454.319a2.349,2.349,0,0,1-.175-.94C162.571,160.142,162.587,159.664,162.6,158.947Z" transform="translate(6641.191 927.535)"/></svg>