<?xml version="1.0" encoding="UTF-8" standalone="no"?>
<svg
   xmlns:dc="http://purl.org/dc/elements/1.1/"
   xmlns:cc="http://creativecommons.org/ns#"
   xmlns:rdf="http://www.w3.org/1999/02/22-rdf-syntax-ns#"
   xmlns:svg="http://www.w3.org/2000/svg"
   xmlns="http://www.w3.org/2000/svg"
   xmlns:sodipodi="http://sodipodi.sourceforge.net/DTD/sodipodi-0.dtd"
   xmlns:inkscape="http://www.inkscape.org/namespaces/inkscape"
   width="1792"
   height="1792"
   viewBox="0 0 1792 1792"
   version="1.1"
   id="svg1007"
   sodipodi:docname="gavelActive.svg"
   inkscape:version="0.92.2 (5c3e80d, 2017-08-06)">
  <metadata
     id="metadata1013">
    <rdf:RDF>
      <cc:Work
         rdf:about="">
        <dc:format>image/svg+xml</dc:format>
        <dc:type
           rdf:resource="http://purl.org/dc/dcmitype/StillImage" />
        <dc:title></dc:title>
      </cc:Work>
    </rdf:RDF>
  </metadata>
  <defs
     id="defs1011" />
  <sodipodi:namedview
     pagecolor="#ffffff"
     bordercolor="#666666"
     borderopacity="1"
     objecttolerance="10"
     gridtolerance="10"
     guidetolerance="10"
     inkscape:pageopacity="0"
     inkscape:pageshadow="2"
     inkscape:window-width="1440"
     inkscape:window-height="846"
     id="namedview1009"
     showgrid="false"
     inkscape:zoom="0.26082454"
     inkscape:cx="833.10865"
     inkscape:cy="494.14778"
     inkscape:window-x="0"
     inkscape:window-y="54"
     inkscape:window-maximized="0"
     inkscape:current-layer="svg1007" />
  <path
     d="M1771 1536q0 53-37 90l-107 108q-39 37-91 37-53 0-90-37l-363-364q-38-36-38-90 0-53 43-96l-256-256-126 126q-14 14-34 14t-34-14q2 2 12.5 12t12.5 13 10 11.5 10 13.5 6 13.5 5.5 16.5 1.5 18q0 38-28 68-3 3-16.5 18t-19 20.5-18.5 16.5-22 15.5-22 9-26 4.5q-40 0-68-28l-408-408q-28-28-28-68 0-13 4.5-26t9-22 15.5-22 16.5-18.5 20.5-19 18-16.5q30-28 68-28 10 0 18 1.5t16.5 5.5 13.5 6 13.5 10 11.5 10 13 12.5 12 12.5q-14-14-14-34t14-34l348-348q14-14 34-14t34 14q-2-2-12.5-12t-12.5-13-10-11.5-10-13.5-6-13.5-5.5-16.5-1.5-18q0-38 28-68 3-3 16.5-18t19-20.5 18.5-16.5 22-15.5 22-9 26-4.5q40 0 68 28l408 408q28 28 28 68 0 13-4.5 26t-9 22-15.5 22-16.5 18.5-20.5 19-18 16.5q-30 28-68 28-10 0-18-1.5t-16.5-5.5-13.5-6-13.5-10-11.5-10-13-12.5-12-12.5q14 14 14 34t-14 34l-126 126 256 256q43-43 96-43 52 0 91 37l363 363q37 39 37 91z"
     id="path1005"
     style="fill:#2970ff;fill-opacity:1" />
  <path
     id="path1015"
     d="m 1629.0431,1472.5299 c 0,20.2426 -7.3581,37.4296 -22.0743,51.5613 l -63.8364,61.8734 c -15.5117,14.1317 -33.6086,21.1974 -54.2909,21.1974 -21.0799,0 -38.9779,-7.0657 -53.6941,-21.1974 l -216.5666,-208.5365 c -15.114,-13.7496 -22.6709,-30.9367 -22.6709,-51.5611 0,-20.2427 18.04,-48.0642 35.1425,-64.4873 L 778.69446,820.22357 596.44784,996.43193 c -5.54999,5.36607 -12.32978,8.02067 -20.28448,8.02067 -7.95469,0 -14.71618,-2.6735 -20.28447,-8.02067 0.79547,0.76386 3.28131,3.05555 7.45753,6.87477 4.17621,3.8193 6.66205,6.3019 7.45752,7.4478 0.79547,1.1458 2.78415,3.342 5.96603,6.5884 3.18188,3.2464 5.17054,5.8246 5.96602,7.7342 0.79547,1.9096 1.98867,4.4877 3.57961,7.7342 1.59094,3.2464 2.68471,6.3973 3.28132,9.4529 0.59659,3.0555 0.89489,6.4929 0.89489,10.3122 0,14.5135 -5.56828,27.4993 -16.70485,38.9574 -1.19321,1.1458 -4.47452,4.5832 -9.84395,10.3122 -5.36941,5.7291 -9.14789,9.6439 -11.33543,11.7445 -2.18754,2.1007 -5.86659,5.2516 -11.03714,9.4529 -5.17056,4.2013 -9.54564,7.1613 -13.12526,8.88 -3.57961,1.7187 -7.95468,3.4374 -13.12523,5.1561 -5.17056,1.7187 -10.34111,2.5781 -15.51166,2.5781 -15.9094,0 -29.43237,-5.3471 -40.56895,-16.0412 L 215.81566,889.87209 c -11.13657,-10.69418 -16.70486,-23.67997 -16.70486,-38.95737 0,-4.96516 0.8949,-9.9303 2.68471,-14.89546 1.7898,-4.96516 3.57961,-9.16644 5.36942,-12.60386 1.7898,-3.43742 4.87225,-7.6387 9.24733,-12.60385 4.37508,-4.96516 7.6564,-8.49805 9.84394,-10.59869 2.18754,-2.10065 6.26432,-5.72903 12.23035,-10.88516 5.96601,-5.15612 9.54562,-8.30708 10.73883,-9.45289 11.93205,-10.69417 25.45503,-16.04127 40.56895,-16.04127 3.97735,0 7.55696,0.28646 10.73884,0.85936 3.18187,0.57291 6.46319,1.62322 9.84393,3.15096 3.38075,1.52775 6.06546,2.67355 8.05412,3.43742 1.98869,0.76386 4.67339,2.67354 8.05414,5.72902 3.38075,3.05548 5.66773,4.96515 6.86093,5.72903 1.19319,0.76387 3.77847,3.15096 7.75582,7.16128 3.97735,4.01032 6.36375,6.3974 7.15923,7.16128 -5.56829,-5.34709 -8.35243,-11.83998 -8.35243,-19.47869 0,-7.6387 2.79276,-14.12672 8.35243,-19.47867 L 760.9189,360.86511 c 5.55968,-5.35195 12.32978,-8.02064 20.28447,-8.02064 7.9547,0 14.71619,2.67354 20.28447,8.02064 -0.79546,-0.76387 -3.28131,-3.05549 -7.45753,-6.87483 -4.1762,-3.81936 -6.66204,-6.30194 -7.45752,-7.44774 -0.79547,-1.14581 -2.78414,-3.34193 -5.96602,-6.58838 -3.18188,-3.24645 -5.17056,-5.8245 -5.96603,-7.73418 -0.79546,-1.90968 -1.98866,-4.48774 -3.57961,-7.73418 -1.59093,-3.24645 -2.6847,-6.39741 -3.28131,-9.4529 -0.5966,-3.05547 -0.8949,-6.49289 -0.8949,-10.31224 0,-14.51353 5.56828,-27.49931 16.70486,-38.95737 1.1932,-1.14581 4.47452,-4.58321 9.84393,-10.31224 5.36943,-5.72903 9.14791,-9.64386 11.33544,-11.7445 2.18755,-2.10065 5.8666,-5.25162 11.03715,-9.4529 5.17055,-4.20128 9.54563,-7.16128 13.12524,-8.87999 3.57961,-1.7187 7.95471,-3.4374 13.12525,-5.15611 5.17055,-1.71871 10.34111,-2.57806 15.51165,-2.57806 15.9094,0 29.43238,5.34709 40.56895,16.04126 l 243.41371,233.74421 c 11.1365,10.69418 16.7048,23.67996 16.7048,38.95737 0,4.96515 -0.8949,9.93031 -2.6847,14.89546 -1.7897,4.96516 -3.5796,9.16645 -5.3694,12.60386 -1.7898,3.43741 -4.8723,7.6387 -9.2474,12.60386 -4.375,4.96514 -7.6564,8.49804 -9.8439,10.59869 -2.1875,2.10064 -6.2642,5.72902 -12.2303,10.88514 -5.9661,5.15612 -9.5457,8.30709 -10.7389,9.4529 -11.932,10.69417 -25.455,16.04127 -40.5689,16.04127 -3.9773,0 -7.557,-0.28646 -10.7388,-0.85936 -3.1819,-0.5729 -6.4632,-1.62322 -9.844,-3.15096 -3.3807,-1.52775 -6.0655,-2.67354 -8.0541,-3.43742 -1.9887,-0.76387 -4.6734,-2.67355 -8.0541,-5.72902 -3.3808,-3.05548 -5.6677,-4.96516 -6.861,-5.72903 -1.1932,-0.76387 -3.7785,-3.15096 -7.7558,-7.16127 -3.9773,-4.01033 -6.3637,-6.39742 -7.1592,-7.16128 5.5683,5.34708 8.3524,11.83997 8.3524,19.47868 0,7.63869 -2.7916,14.13419 -8.3524,19.47868 L 815.63544,782.84672 1267.9935,1224.0028 c 17.1025,-16.4232 47.038,-32.7679 68.118,-32.7679 20.6822,0 38.7791,7.0657 54.2907,21.1973 l 216.5666,207.9636 c 14.7162,14.8955 22.0743,32.2736 22.0743,52.1341 z"
     style="fill:#69d5f7;fill-opacity:1;stroke-width:0.58463222"
     inkscape:connector-curvature="0"
     sodipodi:nodetypes="sccsccsccsscccscssscsssscscssssssscssssscscsssscscssssscssssssscscsssscssscccccssccsccs" />
</svg>
