<svg xmlns="http://www.w3.org/2000/svg" viewBox="6618 890.6 60 58.748"><defs><style>.a{fill:#091440;fill-rule:evenodd;}</style></defs><path class="a" d="M151.561,1.6A30.082,30.082,0,0,0,121.4,31.761a29.724,29.724,0,0,0,20.654,28.522c1.639.328,1.967-.656,1.967-1.311V53.726c-8.524,1.967-10.163-3.934-10.163-3.934-1.311-3.606-3.278-4.262-3.278-4.262-2.623-1.967.328-1.967.328-1.967a6.835,6.835,0,0,1,4.59,2.951c2.623,4.59,7.212,3.278,8.852,2.623q.492-2.951,1.967-3.934c-6.557-.656-13.769-3.278-13.769-14.753a13.825,13.825,0,0,1,2.951-8.2,10.565,10.565,0,0,1,.328-7.868s2.623-.656,8.2,2.951a29.4,29.4,0,0,1,15.081,0c5.9-3.934,8.2-2.951,8.2-2.951,1.639,4.262.656,7.212.328,7.868a11.427,11.427,0,0,1,2.951,8.2c0,11.474-7.212,14.1-13.769,14.753a7.4,7.4,0,0,1,1.967,5.573v8.2a1.473,1.473,0,0,0,1.967,1.311,30.03,30.03,0,0,0,20.654-28.522A29.8,29.8,0,0,0,151.561,1.6Z" transform="translate(6496.6 889)"/></svg>