<svg xmlns="http://www.w3.org/2000/svg" viewBox="0 0 40 40"><defs><style>.a{fill:none;}.b{fill:#091440;fill-rule:evenodd;}</style></defs><g transform="translate(1733 2363)"><g transform="translate(-1733 -2363)"><rect class="a" width="40" height="40"/></g><g transform="translate(-2538 -3046.6)"><path class="b" d="M138.818,1.6A17.372,17.372,0,0,0,121.4,19.018a17.166,17.166,0,0,0,11.928,16.471c.947.189,1.136-.379,1.136-.757V31.7c-4.922,1.136-5.869-2.272-5.869-2.272-.757-2.083-1.893-2.461-1.893-2.461-1.515-1.136.189-1.136.189-1.136a3.947,3.947,0,0,1,2.651,1.7,3.87,3.87,0,0,0,5.112,1.515,3.236,3.236,0,0,1,1.136-2.272c-3.786-.379-7.952-1.893-7.952-8.52a7.984,7.984,0,0,1,1.7-4.733,6.1,6.1,0,0,1,.189-4.544s1.515-.379,4.733,1.7a16.976,16.976,0,0,1,8.709,0c3.408-2.272,4.733-1.7,4.733-1.7a6.016,6.016,0,0,1,.189,4.544,6.6,6.6,0,0,1,1.7,4.733c0,6.626-4.165,8.141-7.952,8.52A4.274,4.274,0,0,1,142.983,30v4.733a.851.851,0,0,0,1.136.757,17.342,17.342,0,0,0,11.927-16.471A17.212,17.212,0,0,0,138.818,1.6Z" transform="translate(686.6 685)"/></g></g></svg>