<svg xmlns="http://www.w3.org/2000/svg" width="20" height="20" viewBox="0 0 20 20"><g transform="translate(-145 -891)"><rect width="17.778" height="1.111" transform="translate(146.111 908.778)" fill="#2f4d8c"/><rect width="13.378" height="1.111" transform="translate(148.333 906.556)" fill="#2f4d8c"/><rect width="1.644" height="4.676" transform="translate(148.333 898.778)" fill="#2f4d8c"/><rect width="1.689" height="4.404" transform="translate(159.978 898.778)" fill="#2f4d8c"/><rect width="1.644" height="2.222" transform="translate(157.089 898.778)" fill="#2f4d8c"/><rect width="1.644" height="4.867" transform="translate(154.156 898.778)" fill="#2f4d8c"/><rect width="1.689" height="2.222" transform="translate(151.222 898.778)" fill="#2f4d8c"/><g transform="translate(148.333 903.182)"><rect width="1.644" height="2.262" fill="#527cc9"/></g><g transform="translate(159.978 902.911)"><rect width="1.689" height="2.533" fill="#527cc9"/></g><g transform="translate(157.089 900.124)"><rect width="1.644" height="5.32" fill="#527cc9"/></g><g transform="translate(154.156 903.244)"><rect width="1.644" height="2.2" fill="#527cc9"/></g><g transform="translate(151.222 900.364)"><rect width="1.689" height="5.08" fill="#527cc9"/></g><g transform="translate(145 891)"><path d="M25,29.444v1.111H42.778V29.444L33.889,25Z" transform="translate(-23.889 -23.889)" fill="#2f4d8c"/><rect width="20" height="20" fill="none"/></g></g></svg>