<svg xmlns="http://www.w3.org/2000/svg" viewBox="0 0 30.006 30.005"><defs><style>.a{fill:#3d5873;}.b{fill:#c2c9d0;}.c{fill:none;}</style></defs><g transform="translate(-359.268 -46.268)"><rect class="a" width="26.671" height="1.667" transform="translate(360.935 72.939)"/><rect class="a" width="20.07" height="1.667" transform="translate(364.268 69.605)"/><rect class="a" width="2.467" height="7.014" transform="translate(364.268 57.937)"/><rect class="a" width="2.534" height="6.608" transform="translate(381.738 57.937)"/><rect class="a" width="2.467" height="3.334" transform="translate(377.404 57.937)"/><rect class="a" width="2.467" height="7.301" transform="translate(373.003 57.937)"/><rect class="a" width="2.534" height="3.334" transform="translate(368.602 57.937)"/><g transform="translate(364.268 64.544)"><rect class="b" width="2.467" height="3.394"/></g><g transform="translate(381.738 64.138)"><rect class="b" width="2.534" height="3.801"/></g><g transform="translate(377.404 59.957)"><rect class="b" width="2.467" height="7.981"/></g><g transform="translate(373.003 64.638)"><rect class="b" width="2.467" height="3.301"/></g><g transform="translate(368.602 60.317)"><rect class="b" width="2.534" height="7.621"/></g><g transform="translate(359.268 46.268)"><path class="a" d="M25,31.668v1.667H51.671V31.668L38.336,25Z" transform="translate(-23.333 -23.333)"/><rect class="c" width="30.005" height="30.005"/></g></g></svg>