<svg viewBox="0 0 30.006 30.005" xmlns="http://www.w3.org/2000/svg"><g fill="#3d5873"><path d="m1.667 26.671h26.671v1.667h-26.671z"/><path d="m5 23.337h20.07v1.667h-20.07z"/><path d="m5 11.669h2.467v7.014h-2.467z"/><path d="m22.47 11.669h2.534v6.608h-2.534z"/><path d="m18.136 11.669h2.467v3.334h-2.467z"/><path d="m13.735 11.669h2.467v7.301h-2.467z"/><path d="m9.334 11.669h2.534v3.334h-2.534z"/></g><g fill="#c2c9d0"><path d="m5 18.276h2.467v3.394h-2.467z"/><path d="m22.47 17.87h2.534v3.801h-2.534z"/><path d="m18.136 13.689h2.467v7.981h-2.467z"/><path d="m13.735 18.37h2.467v3.301h-2.467z"/><path d="m9.334 14.049h2.534v7.621h-2.534z"/></g><path d="m25 31.668v1.667h26.671v-1.667l-13.335-6.668z" fill="#3d5873" transform="translate(-23.333 -23.333)"/><path d="m0 0h30.005v30.005h-30.005z" fill="none"/></svg>