<svg xmlns="http://www.w3.org/2000/svg" viewBox="0 0 33 25" id="svg1009" width="33" height="25"> <defs id="defs979"> <style id="style977"> .cls-1{fill:#fff} </style> </defs> <g id="Layer_2" data-name="Layer 2" transform="translate(6.882 2.686)"> <g id="g1030" transform="translate(1.066 .924)"> <path class="cls-1" d="M16.355-3.19h-3.13v4.1h3.13a4.1 4.1 0 1 1 0 8.19h-8.19v8.19h4.09V13.2h4.1a8.2 8.2 0 1 0 0-16.39z" id="path999" style="fill:#000;fill-opacity:1"/> <circle class="cls-1" cx="10.215" cy="-1.139" r="2.05" id="circle1001" style="fill:#000;fill-opacity:1"/> <path class="cls-1" d="M8.165.91h-4.1V5h-4.1a8.2 8.2 0 0 0 0 16.39h3.13v-4.1h-3.13a4.1 4.1 0 0 1 0-8.19h8.2z" id="path1003" style="fill:#000;fill-opacity:1"/> <path class="cls-1" d="M6.115 17.29a2.05 2.05 0 0 0-2.05 2.05 2.05 2.05 0 1 0 4.1 0 2.05 2.05 0 0 0-2.05-2.05z" id="path1005" style="fill:#000;fill-opacity:1"/> </g> </g> </svg>
