<?xml version="1.0" encoding="UTF-8" standalone="no"?>
<svg
   xmlns:dc="http://purl.org/dc/elements/1.1/"
   xmlns:cc="http://creativecommons.org/ns#"
   xmlns:rdf="http://www.w3.org/1999/02/22-rdf-syntax-ns#"
   xmlns:svg="http://www.w3.org/2000/svg"
   xmlns="http://www.w3.org/2000/svg"
   xmlns:sodipodi="http://sodipodi.sourceforge.net/DTD/sodipodi-0.dtd"
   xmlns:inkscape="http://www.inkscape.org/namespaces/inkscape"
   viewBox="0 0 33 25"
   version="1.1"
   id="svg1009"
   sodipodi:docname="governance-default.svg"
   width="33"
   height="25"
   inkscape:version="0.92.2 (5c3e80d, 2017-08-06)">
  <metadata
     id="metadata1013">
    <rdf:RDF>
      <cc:Work
         rdf:about="">
        <dc:format>image/svg+xml</dc:format>
        <dc:type
           rdf:resource="http://purl.org/dc/dcmitype/StillImage" />
        <dc:title>politeia-logo</dc:title>
      </cc:Work>
    </rdf:RDF>
  </metadata>
  <sodipodi:namedview
     pagecolor="#ffffff"
     bordercolor="#666666"
     borderopacity="1"
     objecttolerance="10"
     gridtolerance="10"
     guidetolerance="10"
     inkscape:pageopacity="0"
     inkscape:pageshadow="2"
     inkscape:window-width="1440"
     inkscape:window-height="846"
     id="namedview1011"
     showgrid="false"
     inkscape:zoom="4.2127213"
     inkscape:cx="44.34483"
     inkscape:cy="15.93119"
     inkscape:window-x="0"
     inkscape:window-y="54"
     inkscape:window-maximized="0"
     inkscape:current-layer="g1030" />
  <defs
     id="defs979">
    <style
       id="style977">.cls-1{fill:#fff;}</style>
  </defs>
  <title
     id="title981">politeia-logo</title>
  <g
     id="Layer_2"
     data-name="Layer 2"
     transform="translate(6.8818647,2.6856066)">
    <g
       id="g1030"
       transform="translate(1.0664873,0.9235504)">
      <path
         class="cls-1"
         d="m 16.355332,-3.1891568 h -3.13 v 4.1 h 3.13 a 4.1,4.1 0 1 1 0,8.19 H 8.1653324 v 8.1899998 h 4.0899996 v -4.09 h 4.1 a 8.2,8.2 0 1 0 0,-16.3899998 z"
         id="path999"
         inkscape:connector-curvature="0"
         style="fill:#8997a5;fill-opacity:1" />
      <circle
         class="cls-1"
         cx="10.215333"
         cy="-1.1391568"
         r="2.05"
         id="circle1001"
         style="fill:#8997a5;fill-opacity:1" />
      <path
         class="cls-1"
         d="m 8.1653324,0.9108432 h -4.1 v 4.09 h -4.1 a 8.2,8.2 0 0 0 0,16.3899998 h 3.13 v -4.1 h -3.13 a 4.1,4.1 0 0 1 0,-8.1899998 h 8.2 z"
         id="path1003"
         inkscape:connector-curvature="0"
         style="fill:#8997a5;fill-opacity:1" />
      <path
         class="cls-1"
         d="m 6.1153324,17.290843 a 2.05,2.05 0 0 0 -2.05,2.05 v 0 a 2.05,2.05 0 1 0 4.1,0 v 0 a 2.05,2.05 0 0 0 -2.05,-2.05 z"
         id="path1005"
         inkscape:connector-curvature="0"
         style="fill:#8997a5;fill-opacity:1" />
    </g>
  </g>
</svg>
