<svg xmlns="http://www.w3.org/2000/svg" width="20" height="20" viewBox="0 0 20 20"><g transform="translate(-516 -891)"><g transform="translate(516 891)"><rect width="17.778" height="1.111" transform="translate(1.111 17.778)" fill="#2f4d8c"/><rect width="13.378" height="1.111" transform="translate(3.333 15.556)" fill="#2f4d8c"/><rect width="1.644" height="4.676" transform="translate(3.333 7.778)" fill="#2f4d8c"/><rect width="1.689" height="4.404" transform="translate(14.978 7.778)" fill="#2f4d8c"/><rect width="1.644" height="2.222" transform="translate(12.089 7.778)" fill="#2f4d8c"/><rect width="1.644" height="4.867" transform="translate(9.156 7.778)" fill="#2f4d8c"/><rect width="1.689" height="2.222" transform="translate(6.222 7.778)" fill="#2f4d8c"/><g transform="translate(3.333 12.182)"><rect width="1.644" height="2.262" fill="#99c1e3"/></g><g transform="translate(14.978 11.911)"><rect width="1.689" height="2.533" fill="#99c1e3"/></g><g transform="translate(12.089 9.124)"><rect width="1.644" height="5.32" fill="#99c1e3"/></g><g transform="translate(9.156 12.244)"><rect width="1.644" height="2.2" fill="#99c1e3"/></g><g transform="translate(6.222 9.364)"><rect width="1.689" height="5.08" fill="#99c1e3"/></g><path d="M25,29.444v1.111H42.778V29.444L33.889,25Z" transform="translate(-23.889 -23.889)" fill="#2f4d8c"/><rect width="20" height="20" fill="none"/></g></g></svg>