<svg xmlns="http://www.w3.org/2000/svg" viewBox="-2350 1388 20 20"><defs><style>.a{fill:none;}.b{fill:#152337;}.c{fill:#c4cbd2;}</style></defs><g transform="translate(-2894 850)"><rect class="a" width="20" height="20" transform="translate(544 538)"/><g transform="translate(546.332 540.523)"><path class="a" d="M223.129,164.649h0a1.891,1.891,0,0,0-1.929-1.858,1.9,1.9,0,0,1,1.573.787,1.93,1.93,0,0,1,.356,1.071,1.891,1.891,0,0,1-1.862,1.92A1.891,1.891,0,0,0,223.129,164.649Z" transform="translate(-213.701 -158.079)"/><path class="b" d="M59.889,56.776a7.546,7.546,0,0,0,.262,15.089l7.542-.133-2.267-2.147a7.546,7.546,0,0,0-5.538-12.809Zm.676,12.253-.942.018L59.6,68.1l.942-.018Zm-.049-2.853.018.964-.942.018-.031-1.884.48-.009a1.889,1.889,0,1,0-.067-3.778,1.912,1.912,0,0,0-1.862,1.924l-.942.018a2.836,2.836,0,1,1,3.347,2.747Z" transform="translate(-52.475 -56.775)"/><path class="c" d="M160.878,141.591a2.849,2.849,0,0,0-2.787,2.884l.942-.018a1.9,1.9,0,0,1,3.436-1.138,1.882,1.882,0,0,1,.356,1.067h0a1.891,1.891,0,0,1-1.862,1.92l-.48.009.031,1.884.942-.018-.018-.964a2.837,2.837,0,0,0-.56-5.627Z" transform="translate(-153.397 -137.821)"/><path class="c" d="M0,0H.942V.942H0Z" transform="translate(7.13 11.324) rotate(-1.002)"/></g></g></svg>