<svg viewBox="-2350 1388 20 20" xmlns="http://www.w3.org/2000/svg"><path d="m-2350 1388h20v20h-20z" fill="none"/><path d="m223.129 164.649a1.891 1.891 0 0 0 -1.929-1.858 1.9 1.9 0 0 1 1.573.787 1.93 1.93 0 0 1 .356 1.071 1.891 1.891 0 0 1 -1.862 1.92 1.891 1.891 0 0 0 1.862-1.92z" fill="none" transform="translate(-2561.369 1232.444)"/><path d="m59.889 56.776a7.546 7.546 0 0 0 .262 15.089l7.542-.133-2.267-2.147a7.546 7.546 0 0 0 -5.538-12.809zm.676 12.253-.942.018-.023-.947.942-.018zm-.049-2.853.018.964-.942.018-.031-1.884.48-.009a1.889 1.889 0 1 0 -.067-3.778 1.912 1.912 0 0 0 -1.862 1.924l-.942.018a2.836 2.836 0 1 1 3.347 2.747z" fill="#152337" transform="translate(-2400.143 1333.748)"/><g fill="#c4cbd2"><path d="m160.878 141.591a2.849 2.849 0 0 0 -2.787 2.884l.942-.018a1.9 1.9 0 0 1 3.436-1.138 1.882 1.882 0 0 1 .356 1.067 1.891 1.891 0 0 1 -1.862 1.92l-.48.009.031 1.884.942-.018-.018-.964a2.837 2.837 0 0 0 -.56-5.627z" transform="translate(-2501.065 1252.702)"/><path d="m0 0h.942v.942h-.942z" transform="matrix(.99984709 -.01748731 .01748731 .99984709 -2340.538 1401.847)"/></g></svg>