<svg viewBox="0 0 30 30" xmlns="http://www.w3.org/2000/svg"><path d="m0 0h30v30h-30z" fill="none"/><path d="m224.093 165.578a2.837 2.837 0 0 0 -2.893-2.787 2.845 2.845 0 0 1 2.36 1.18 2.9 2.9 0 0 1 .533 1.607 2.837 2.837 0 0 1 -2.793 2.88 2.837 2.837 0 0 0 2.793-2.88z" fill="none" transform="translate(-206.454 -151.938)"/><path d="m63.6 56.776a11.318 11.318 0 0 0 .39 22.634l11.313-.2-3.4-3.22a11.319 11.319 0 0 0 -8.303-19.214zm1.013 18.38-1.413.027-.03-1.413 1.413-.027zm-.073-4.28.027 1.447-1.413.027-.054-2.827.72-.013a2.834 2.834 0 1 0 -.1-5.667 2.868 2.868 0 0 0 -2.79 2.887l-1.413.027a4.254 4.254 0 1 1 5.02 4.12z" fill="#3d5873" transform="translate(-48.977 -52.99)"/><g fill="#c2c9d0"><path d="m162.271 141.591a4.274 4.274 0 0 0 -4.18 4.327l1.413-.027a2.846 2.846 0 0 1 5.153-1.707 2.823 2.823 0 0 1 .533 1.6 2.837 2.837 0 0 1 -2.793 2.88l-.72.013.047 2.827 1.413-.027-.027-1.447a4.256 4.256 0 0 0 -.84-8.44z" transform="translate(-147.552 -132.151)"/><path d="m0 0h1.413v1.413h-1.413z" transform="matrix(.99984709 -.01748731 .01748731 .99984709 14.193 20.772)"/></g></svg>