<svg xmlns="http://www.w3.org/2000/svg" viewBox="9056 46 30 30"><defs><style>.a{fill:none;}.b{fill:#0c1e3e;}.c{fill:#8795a2;}</style></defs><g transform="translate(8695)"><rect class="a" width="30" height="30" transform="translate(361 46)"/><g transform="translate(364.498 49.785)"><path class="a" d="M224.093,165.578h0a2.837,2.837,0,0,0-2.893-2.787,2.845,2.845,0,0,1,2.36,1.18,2.9,2.9,0,0,1,.533,1.607,2.837,2.837,0,0,1-2.793,2.88A2.837,2.837,0,0,0,224.093,165.578Z" transform="translate(-209.952 -155.723)"/><path class="b" d="M63.6,56.776A11.318,11.318,0,0,0,63.99,79.41l11.313-.2-3.4-3.22A11.319,11.319,0,0,0,63.6,56.776Zm1.013,18.38-1.413.027L63.17,73.77l1.413-.027Zm-.073-4.28.027,1.447-1.413.027L63.1,69.523l.72-.013a2.834,2.834,0,1,0-.1-5.667A2.868,2.868,0,0,0,60.93,66.73l-1.413.027a4.254,4.254,0,1,1,5.02,4.12Z" transform="translate(-52.475 -56.775)"/><path class="c" d="M162.271,141.591a4.274,4.274,0,0,0-4.18,4.327l1.413-.027a2.846,2.846,0,0,1,5.153-1.707,2.823,2.823,0,0,1,.533,1.6h0a2.837,2.837,0,0,1-2.793,2.88l-.72.013.047,2.827,1.413-.027-.027-1.447a4.256,4.256,0,0,0-.84-8.44Z" transform="translate(-151.05 -135.936)"/><rect class="c" width="1.413" height="1.413" transform="translate(10.695 16.987) rotate(-1.002)"/></g></g></svg>