<svg xmlns="http://www.w3.org/2000/svg" viewBox="12285 448 16 16"><defs><style>.a{fill:none;}.b{fill:#18173f;}.c{fill:#8795a2;}</style></defs><g transform="translate(12087)"><path class="a" d="M202.012,126.9h0a2,2,0,0,0-2.008-2,2.006,2.006,0,0,1,1.652.864,2.058,2.058,0,0,1,.356,1.14,2.006,2.006,0,0,1-2.012,2A2.006,2.006,0,0,0,202.012,126.9Z" transform="translate(6 328.096)"/><path class="b" d="M8,0A8,8,0,0,0,8,16h8l-2.368-2.32A8,8,0,0,0,8,0Zm.492,13h-1V12h1Zm0-3.024V11h-1V9H8A2,2,0,1,0,8,5,2.024,2.024,0,0,0,5.992,7h-1a3.006,3.006,0,1,1,3.5,2.976Z" transform="translate(198 448)"/><path class="c" d="M127.808,99.9a3.019,3.019,0,0,0-3.008,3h1a2.024,2.024,0,0,1,2.008-2,2,2,0,0,1,2.008,2h0a2.006,2.006,0,0,1-2.012,2H127.3v2h1V105.88a3.011,3.011,0,0,0-.488-5.98Z" transform="translate(78.192 352.096)"/><rect class="c" width="1" height="1" transform="translate(205.492 460)"/></g></svg>