<svg viewBox="14104 1454 26 26.001" xmlns="http://www.w3.org/2000/svg"><path d="m14104 1454.001h26v26h-26z" fill="none"/><path d="m21.6 22.8h-15.6a1.923 1.923 0 0 1 -1.9-2v-15.6a1.9 1.9 0 0 1 1.9-1.9h15.6a1.988 1.988 0 0 1 2 1.9v15.6a2.006 2.006 0 0 1 -2 2z" fill="#c4cbd2" transform="translate(14104 1454.001)"/><g fill="#8795a2"><path d="m14109.7 1471.901h16.2v1.6h-16.2z"/><path d="m0 0h15v1.6h-15z" transform="matrix(0 -1 1 0 14117.026 1469)"/><path d="m0 0h6.5v1.6h-6.5z" transform="matrix(-.70710678 -.70710678 .70710678 -.70710678 14117.866 1470.254)"/><path d="m0 0h6.5v1.6h-6.5z" transform="matrix(.70710678 -.70710678 .70710678 .70710678 14116.698 1469.117)"/></g></svg>