<svg xmlns="http://www.w3.org/2000/svg" viewBox="14104 1454 26 26.001"><defs><style>.a{fill:none;}.b{fill:#c4cbd2;}.c{fill:#8795a2;}</style></defs><g transform="translate(13032 850)"><rect class="a" width="26" height="26" transform="translate(1072 604.001)"/><path class="b" d="M21.6,22.8H6a1.923,1.923,0,0,1-1.9-2V5.2A1.9,1.9,0,0,1,6,3.3H21.6a1.988,1.988,0,0,1,2,1.9V20.8A2.006,2.006,0,0,1,21.6,22.8Z" transform="translate(1072 604.001)"/><rect class="c" width="16.2" height="1.6" transform="translate(1077.7 621.901)"/><rect class="c" width="15" height="1.6" transform="translate(1085.026 619) rotate(-90)"/><rect class="c" width="6.5" height="1.6" transform="translate(1085.866 620.254) rotate(-135)"/><rect class="c" width="6.5" height="1.6" transform="translate(1084.698 619.117) rotate(-45)"/></g></svg>