<svg width="450" height="450" xmlns="http://www.w3.org/2000/svg">
 <!-- Created with Method Draw - http://github.com/duopixel/Method-Draw/ -->

 <g>
  <title>background</title>
  <rect fill="none" id="canvas_background" height="452" width="452" y="-1" x="-1"/>
  <g display="none" overflow="visible" y="0" x="0" height="100%" width="100%" id="canvasGrid">
   <rect fill="url(#gridpattern)" stroke-width="0" y="0" x="0" height="100%" width="100%"/>
  </g>
 </g>
 <g>
  <title>Layer 1</title>
  <g id="svg_6">
   <path id="svg_5" d="m223.999998,2.777786c-120.444439,0 -222.222212,101.777773 -222.222212,222.233323s101.777773,222.211101 222.222212,222.211101c120.466661,0 222.222212,-101.755551 222.222212,-222.211101s-101.755551,-222.233323 -222.222212,-222.233323zm22.988888,365.088871l-46.411109,0l0,-198.144435l46.411109,0l0,198.144435zm-22.988888,-232.833322c-16.555555,0 -28.655554,-10.911111 -28.655554,-26.255554c0,-15.744444 12.088888,-26.633332 28.655554,-26.633332s28.655554,10.888888 28.655554,26.633332c0,15.333333 -12.099999,26.255554 -28.655554,26.255554z" fill="#ed6d47"/>
  </g>
 </g>
</svg>