<svg viewBox="0 0 168.781 32" xmlns="http://www.w3.org/2000/svg"><path d="m7.906 7.919-7.906-7.919h8.539l12.661 12.66h-8.54a6.33 6.33 0 0 0 0 12.66h3.165l6.33 6.33h-9.495a12.662 12.662 0 0 1 -12.66-12.66c0-5.131 2.532-9.28 7.906-11.071z" fill="#2970ff"/><path d="m131.736 23.731 7.919 7.919h-8.539l-12.66-12.66h8.539a6.323 6.323 0 0 0 4.471-10.8 6.241 6.241 0 0 0 -4.471-1.859h-3.165l-6.33-6.331h9.495a12.662 12.662 0 0 1 12.66 12.66c0 5.131-2.532 9.279-7.919 11.071z" fill="#2dd8a3" transform="translate(-101.675)"/><g fill="#091440"><path d="m681.1 99.074v-.054a9.9 9.9 0 0 1 10.155-10.02 9.464 9.464 0 0 1 8.175 4.013l-4.013 3.111a5.176 5.176 0 0 0 -4.2-2.263c-2.694 0-4.593 2.29-4.593 5.091v.054c0 2.882 1.9 5.145 4.593 5.145a5.248 5.248 0 0 0 4.35-2.343l4.013 2.855a10.149 10.149 0 0 1 -18.48-5.589z" transform="translate(-589.369 -77.013)"/><path d="m832.3 90.8h9.172c2.963 0 5.01.768 6.316 2.1a6.017 6.017 0 0 1 1.724 4.512v.054a6.125 6.125 0 0 1 -3.987 5.953l4.633 6.761h-6.208l-3.906-5.872h-2.357v5.872h-5.374v-19.38zm8.916 9.306c1.832 0 2.882-.889 2.882-2.3v-.054c0-1.522-1.1-2.3-2.909-2.3h-3.515v4.66z" transform="translate(-720.206 -78.571)"/><path d="m978.7 90.8h15.6v4.566h-10.28v2.934h9.306v4.242h-9.306v3.071h10.411v4.566h-15.731z" transform="translate(-846.888 -78.571)"/><path d="m1116.413 90.8h7.475c6.923 0 10.936 3.987 10.936 9.589v.054c0 5.6-4.067 9.751-11.057 9.751h-7.367v-19.394zm7.556 14.64c3.219 0 5.347-1.778 5.347-4.9v-.054c0-3.1-2.128-4.9-5.347-4.9h-2.2v9.859z" transform="translate(-966.043 -78.571)"/><path d="m536.618 109.173a9.562 9.562 0 0 1 -9.818-9.966c0-5.71 4.013-10.007 9.347-10.007a8.495 8.495 0 0 1 6.853 3.071 11.564 11.564 0 0 1 2.3 7.273c0 .323-.027.633-.054.983h-14.486l.04.283a5.765 5.765 0 0 0 5.885 5.185 7.249 7.249 0 0 0 5.32-2.249l2.29 2.034a9.63 9.63 0 0 1 -7.677 3.393zm-.525-16.781c-2.8 0-4.889 2.114-5.333 5.374l-.04.269h10.613l-.027-.269c-.338-3.313-2.331-5.374-5.213-5.374z" transform="translate(-455.85 -77.186)"/><path d="m369.289 53.533c-4.418 0-8.889-3.434-8.889-10.007s4.471-10.007 8.889-10.007a7.883 7.883 0 0 1 6.518 3.38l.431.552v-12.551h4.027v28.269h-4.027v-3.852l-.444.62a7.6 7.6 0 0 1 -6.505 3.596zm1.077-16.593c-3.475 0-5.912 2.707-5.912 6.586 0 3.811 2.492 6.586 5.912 6.586 3.394 0 5.953-2.828 5.953-6.586s-2.559-6.586-5.953-6.586z" transform="translate(-311.861 -21.546)"/></g></svg>