<svg xmlns="http://www.w3.org/2000/svg" viewBox="0 0 168.781 32">
  <defs>
    <style>
      .cls-1 {
        fill: #2970ff;
      }

      .cls-2 {
        fill: #2dd8a3;
      }

      .cls-3 {
        fill: #091440;
      }
    </style>
  </defs>
  <g id="Symbol_116_1" data-name="Symbol 116 – 1" transform="translate(-45.179 -107.675)">
    <g id="Group_1413" data-name="Group 1413" transform="translate(45.179 107.675)">
      <g id="Group_1409" data-name="Group 1409">
        <path id="Path_631" data-name="Path 631" class="cls-1" d="M7.906,7.919,0,0H8.539L21.2,12.66H12.66a6.33,6.33,0,0,0,0,12.66h3.165l6.33,6.33H12.66A12.662,12.662,0,0,1,0,18.99C0,13.859,2.532,9.71,7.906,7.919Z"/>
        <g id="Group_1408" data-name="Group 1408" transform="translate(15.825)">
          <g id="Group_1407" data-name="Group 1407">
            <g id="Group_1406" data-name="Group 1406">
              <path id="Path_632" data-name="Path 632" class="cls-2" d="M131.736,23.731l7.919,7.919h-8.539l-12.66-12.66h8.539a6.323,6.323,0,0,0,4.471-10.8,6.241,6.241,0,0,0-4.471-1.859H123.83L117.5,0h9.495a12.662,12.662,0,0,1,12.66,12.66C139.655,17.791,137.123,21.939,131.736,23.731Z" transform="translate(-117.5)"/>
            </g>
          </g>
        </g>
      </g>
      <g id="Group_1412" data-name="Group 1412" transform="translate(48.539 3.354)">
        <g id="Group_1411" data-name="Group 1411">
          <g id="Group_1410" data-name="Group 1410">
            <path id="XMLID_15_" class="cls-3" d="M681.1,99.074V99.02A9.9,9.9,0,0,1,691.255,89a9.464,9.464,0,0,1,8.175,4.013l-4.013,3.111a5.176,5.176,0,0,0-4.2-2.263c-2.694,0-4.593,2.29-4.593,5.091v.054c0,2.882,1.9,5.145,4.593,5.145a5.248,5.248,0,0,0,4.35-2.343l4.013,2.855A10.149,10.149,0,0,1,681.1,99.074Z" transform="translate(-637.908 -80.367)"/>
            <path id="XMLID_12_" class="cls-3" d="M832.3,90.8h9.172c2.963,0,5.01.768,6.316,2.1a6.017,6.017,0,0,1,1.724,4.512v.054a6.125,6.125,0,0,1-3.987,5.953l4.633,6.761H843.95l-3.906-5.872h-2.357v5.872h-5.374V90.8Zm8.916,9.306c1.832,0,2.882-.889,2.882-2.3v-.054c0-1.522-1.1-2.3-2.909-2.3h-3.515v4.66Z" transform="translate(-768.745 -81.925)"/>
            <path id="XMLID_10_" class="cls-3" d="M978.7,90.8h15.6v4.566H984.02V98.3h9.306v4.242H984.02v3.071h10.411v4.566H978.7Z" transform="translate(-895.427 -81.925)"/>
            <path id="XMLID_7_" class="cls-3" d="M1116.413,90.8h7.475c6.923,0,10.936,3.987,10.936,9.589v.054c0,5.6-4.067,9.751-11.057,9.751H1116.4V90.8Zm7.556,14.64c3.219,0,5.347-1.778,5.347-4.9v-.054c0-3.1-2.128-4.9-5.347-4.9h-2.2v9.859Z" transform="translate(-1014.582 -81.925)"/>
            <path id="XMLID_4_" class="cls-3" d="M536.618,109.173a9.562,9.562,0,0,1-9.818-9.966c0-5.71,4.013-10.007,9.347-10.007A8.495,8.495,0,0,1,543,92.271a11.564,11.564,0,0,1,2.3,7.273c0,.323-.027.633-.054.983H530.76l.04.283a5.765,5.765,0,0,0,5.885,5.185,7.249,7.249,0,0,0,5.32-2.249l2.29,2.034A9.63,9.63,0,0,1,536.618,109.173Zm-.525-16.781c-2.8,0-4.889,2.114-5.333,5.374l-.04.269h10.613l-.027-.269C540.968,94.453,538.975,92.392,536.093,92.392Z" transform="translate(-504.389 -80.54)"/>
            <path id="XMLID_1_" class="cls-3" d="M369.289,53.533c-4.418,0-8.889-3.434-8.889-10.007s4.471-10.007,8.889-10.007a7.883,7.883,0,0,1,6.518,3.38l.431.552V24.9h4.027V53.169h-4.027V49.317l-.444.62A7.6,7.6,0,0,1,369.289,53.533Zm1.077-16.593c-3.475,0-5.912,2.707-5.912,6.586,0,3.811,2.492,6.586,5.912,6.586,3.394,0,5.953-2.828,5.953-6.586S373.76,36.94,370.366,36.94Z" transform="translate(-360.4 -24.9)"/>
          </g>
        </g>
      </g>
    </g>
  </g>
</svg>
