<svg xmlns="http://www.w3.org/2000/svg" viewBox="22185 6751 20 20"><defs><style>.a{fill:#091440;}.b{fill:#48566e;}.c{fill:none;}</style></defs><g transform="translate(22028 6160)"><path class="a" d="M34.089,24.9a8.889,8.889,0,1,0,8.889,8.889A8.886,8.886,0,0,0,34.089,24.9Zm-.542,1.96h1.111v6.933H33.547ZM38.409,38.1a6.109,6.109,0,1,1-8.64-8.64l.787.787a5,5,0,1,0,7.067,0l.787-.787A6.116,6.116,0,0,1,38.409,38.1Z" transform="translate(132.92 567.207)"/><path class="b" d="M97.344,128.487a5,5,0,1,1-7.067,0l-.787-.787a6.109,6.109,0,1,0,8.64,0Z" transform="translate(73.198 468.976)"/><rect class="b" width="1.111" height="6.933" transform="translate(166.467 594.067)"/><rect class="c" width="20" height="20" transform="translate(157 591)"/></g></svg>