<svg viewBox="22360 4991 20 20" xmlns="http://www.w3.org/2000/svg"><path d="m34.089 24.9a8.889 8.889 0 1 0 8.889 8.889 8.886 8.886 0 0 0 -8.889-8.889zm-.542 1.96h1.111v6.933h-1.111zm4.862 11.24a6.109 6.109 0 1 1 -8.64-8.64l.787.787a5 5 0 1 0 7.067 0l.787-.787a6.116 6.116 0 0 1 -.001 8.64z" fill="#fff" transform="translate(22335.92 4967.207)"/><path d="m97.344 128.487a5 5 0 1 1 -7.067 0l-.787-.787a6.109 6.109 0 1 0 8.64 0z" fill="#2970ff" transform="translate(22276.198 4868.976)"/><path d="m22369.467 4994.067h1.111v6.933h-1.111z" fill="#2970ff"/><path d="m22360 4991h20v20h-20z" fill="none"/></svg>