<svg xmlns="http://www.w3.org/2000/svg" viewBox="0 0 860 860"><defs><style>.cls-1{isolation:isolate;}.cls-2{fill:#fbf4a2;}.cls-3{opacity:0.17;}.cls-10,.cls-11,.cls-3,.cls-5,.cls-8{mix-blend-mode:multiply;}.cls-4{fill:#2971ff;}.cls-5{opacity:0.39;}.cls-6{fill:#2ed6a1;}.cls-7,.cls-9{fill:#fff;}.cls-8,.cls-9{opacity:0.2;}.cls-10{opacity:0.15;}.cls-11{opacity:0.1;}.cls-12{fill:#231f20;}.cls-13{fill:#476db4;}.cls-14{font-size:34px;fill:#0c1e3e;font-family:SourceSansPro-Bold, Source Sans Pro;font-weight:700;}.cls-15{letter-spacing:0em;}.cls-16{letter-spacing:-0.01em;}.cls-17{letter-spacing:-0.02em;}.cls-18{letter-spacing:-0.03em;}.cls-19{letter-spacing:-0.03em;}.cls-20{letter-spacing:-0.01em;}.cls-21{letter-spacing:0em;}.cls-22{letter-spacing:-0.01em;}.cls-23{letter-spacing:-0.02em;}.cls-24{letter-spacing:0em;}.cls-25{letter-spacing:-0.02em;}</style></defs><title>Artboard 14 copy 2</title><g class="cls-1"><g id="Layer_1" data-name="Layer 1"><rect class="cls-2" x="-0.47" y="-0.39" width="860.47" height="860.39"/><path class="cls-3" d="M405.74,721.32c0,16.12-54.89,29.18-122.59,29.18s-122.6-13.06-122.6-29.18,54.89-29.18,122.6-29.18S405.74,705.21,405.74,721.32Z"/><path class="cls-4" d="M193,494.36a14.52,14.52,0,0,0,14.52-14.52h16.94a14.52,14.52,0,0,0,29,0h16.94a14.52,14.52,0,0,0,29,0h16.94a14.52,14.52,0,1,0,29,0H362.4a14.52,14.52,0,0,0,14.52,14.52l8.33,105.27H229.3Z"/><path class="cls-5" d="M193,494.36l36.3,105.27h144V494.36a14.53,14.53,0,0,1-14.52-14.52H345.46a14.52,14.52,0,0,1-14.52,14.52,15.42,15.42,0,0,1-1.81-.12,15.6,15.6,0,0,1-1.82.12,14.52,14.52,0,0,1-14.52-14.52H299.48A14.52,14.52,0,0,1,285,494.36a15.6,15.6,0,0,1-1.82-.12,15.42,15.42,0,0,1-1.81.12,14.52,14.52,0,0,1-14.52-14.52H253.5A14.52,14.52,0,0,1,239,494.36a15.6,15.6,0,0,1-1.82-.12,15.42,15.42,0,0,1-1.81.12,14.52,14.52,0,0,1-14.52-14.52H207.52A14.52,14.52,0,0,1,193,494.36Z"/><path class="cls-6" d="M255.69,666.22c-8.35-1.24-17.11-.77-23.21,5.82-5,5.36-6.31,12.82-7.06,19.82-.36,3.39-.51,6.79-.75,10.19a40.63,40.63,0,0,1-1,7.88c-.14.61-.31,1.21-.48,1.81-.55,1.87,0,0-.38,1-.21.51-.6.92-.84,1.4.64-1.3.29-.27-.26.12,1.65-1.15-.12.1-.48.18.05,0,.87,0-.64.06,1.37,0-2.5-.16-2.76-.21-9.06-1.66-12.91,12.21-3.8,13.88,7.81,1.43,15.75.26,20.4-6.83,3.6-5.48,4.13-12.45,4.59-18.8.5-6.83.23-12,2.42-18.08-.17.49,1.49-2.63.86-1.82a8.32,8.32,0,0,1,1.24-1.34c1.57-1.26-1.23.77.5-.34.37-.22.75-.42,1.14-.61-.65.27-.72.32-.21.14a13.24,13.24,0,0,1,2.49-.58c-.08,0,3.33.05,4.4.21,3.88.57,7.69-1,8.85-5.05,1-3.39-1.21-8.27-5-8.84Z"/><path class="cls-6" d="M304.83,673.74c11.37,15.59.63,51.51,26.81,56.47,9.06,1.72,12.91-12.16,3.8-13.89-3.85-.72-5.23-2.35-6.86-6.26-1.74-4.17-2.5-9.47-3.23-14.11-1.52-9.79-2.05-21.19-8.1-29.5-5.4-7.4-17.88-.21-12.42,7.29Z"/><path class="cls-6" d="M369.66,635.72V494.36a14.52,14.52,0,0,1-14.52-14.52H338.2a14.52,14.52,0,1,1-29,0H292.22a14.52,14.52,0,0,1-29,0H246.24a14.52,14.52,0,0,1-29,0H200.26a14.52,14.52,0,0,1-14.52,14.52v190H344.6l21.67-16.42Z"/><path d="M257.67,552.57a12.24,12.24,0,1,1-12.24-12.24A12.23,12.23,0,0,1,257.67,552.57Z"/><path class="cls-7" d="M254.76,548.44a3.2,3.2,0,1,1-3.2-3.2A3.19,3.19,0,0,1,254.76,548.44Z"/><path class="cls-7" d="M251.1,552.24a1,1,0,1,1-1-1A1,1,0,0,1,251.1,552.24Z"/><path d="M321.14,551.63a12.24,12.24,0,1,1-12.23-12.24A12.24,12.24,0,0,1,321.14,551.63Z"/><path class="cls-7" d="M318.23,547.5a3.2,3.2,0,1,1-3.19-3.19A3.2,3.2,0,0,1,318.23,547.5Z"/><path class="cls-7" d="M314.58,551.3a1,1,0,1,1-1-1A1,1,0,0,1,314.58,551.3Z"/><polygon class="cls-8" points="366.27 667.92 369.66 635.72 344.6 684.34 366.27 667.92"/><path class="cls-5" d="M280.55,595.13c.56,9.73-9,18.19-21.32,18.9s-22.79-6.59-23.35-16.31,9-18.18,21.31-18.89S280,585.41,280.55,595.13Z"/><path class="cls-4" d="M279,593.75c.56,9.72-9,18.18-21.32,18.9s-22.79-6.59-23.36-16.31,9-18.18,21.32-18.9S278.44,584,279,593.75Z"/><path class="cls-9" d="M279,593.75c.56,9.72-9,18.18-21.32,18.9s-22.79-6.59-23.36-16.31,9-18.18,21.32-18.9S278.44,584,279,593.75Z"/><path class="cls-4" d="M265.73,595a9.06,9.06,0,1,1-9.57-8.52A9.05,9.05,0,0,1,265.73,595Z"/><path class="cls-5" d="M265.73,595a9.06,9.06,0,1,1-9.57-8.52A9.05,9.05,0,0,1,265.73,595Z"/><path class="cls-4" d="M264.72,594.12a9.06,9.06,0,1,1-9.57-8.52A9.06,9.06,0,0,1,264.72,594.12Z"/><path class="cls-4" d="M256.24,625.1c-8.67.51-16.18-6.86-16.73-16.43s6.05-17.76,14.72-18.26,16.18,6.87,16.73,16.44-6,17.75-14.72,18.25Zm-1.67-28.82c-5.44.31-9.56,5.72-9.2,12.05s5.09,11.22,10.53,10.91,9.56-5.72,9.2-12S260,596,254.57,596.28Z"/><g class="cls-10"><path d="M256.24,625.1c-8.67.51-16.18-6.86-16.73-16.43s6.05-17.76,14.72-18.26,16.18,6.87,16.73,16.44-6,17.75-14.72,18.25Zm-1.67-28.82c-5.44.31-9.56,5.72-9.2,12.05s5.09,11.22,10.53,10.91,9.56-5.72,9.2-12S260,596,254.57,596.28Z"/></g><g class="cls-11"><path class="cls-12" d="M303.42,585.94c-10.65,1-18.93,15.42-9.84,23.54,2.3,2,5.7-1.33,3.39-3.39-5.68-5.08-.39-14.69,6.45-15.35,3-.3,3.08-5.1,0-4.8Z"/></g><path class="cls-6" d="M189.42,536.51c-12.79-1.33-25.5-3.59-38.39-3.71-9.27-.09-9.36,14.31-.1,14.39,12.89.12,25.6,2.39,38.39,3.72,9.22,1,9.23-13.45.1-14.4Z"/><path class="cls-6" d="M366.36,557.35a244,244,0,0,1,40.32-14.12c9-2.28,5.26-16.18-3.72-13.9a266.6,266.6,0,0,0-43.88,15.6c-3.57,1.61-4.35,6.74-2.57,9.85,2.1,3.67,6.33,4.16,9.85,2.57Z"/><path class="cls-4" d="M456.27,476.53c0,5.85.62,11.66,1.21,17.48a3.68,3.68,0,0,0,3.58,3.63c1.81,0,3.84-1.62,3.64-3.59-.58-5.81-1.17-11.62-1.21-17.47,0-4.66-7.24-4.71-7.22-.05Z"/><path class="cls-4" d="M464.84,469a21.56,21.56,0,0,0,0,9.72c1.05,4.55,8,2.66,7-1.86a13.28,13.28,0,0,1,0-5.95c1-4.54-5.92-6.45-7-1.91Z"/><path class="cls-4" d="M484.59,493.45c0-6.82-1.2-13.66-.61-20.49l-4.56,3.46c3.34,1.08,5.58,4,7.48,6.79a3.67,3.67,0,0,0,4.94,1.28c4.07-2.24,6.07-6.37,9.17-9.61l-5.68-.72c2.3,5.41,2.5,11.65,2.52,17.43,0,4.66,7.24,4.71,7.22.05,0-7.21-.66-14.43-3.51-21.13-.92-2.17-4.22-2.24-5.68-.71-2.58,2.69-4.35,6.62-7.7,8.46l4.95,1.29c-3-4.46-6.54-8.4-11.81-10.09-2.36-.77-4.37,1.24-4.56,3.45-.6,6.83.56,13.67.6,20.49,0,4.66,7.26,4.71,7.23.05Z"/><path class="cls-4" d="M537.89,467c-4,1-9,3.71-7.33,8.69,1.15,3.5,4.6,5.8,7.36,8,.58.45,1.15.91,1.69,1.39.23.2.45.42.67.63.72.73-.08-.2.13.18-.73-1.3,0,.16.05.53a4.39,4.39,0,0,1,0,1c0,.18-.39.48-.27.4-1.06.74-2.56.75-4.32.59a8.74,8.74,0,0,1-4.32-1.69c-3.8-2.71-7.38,3.57-3.61,6.25a16.76,16.76,0,0,0,12.81,2.35c5.42-1.14,7.76-6.18,6.51-11.27-.85-3.48-4.3-5.4-6.89-7.51-.73-.6-1.44-1.22-2.11-1.89a3,3,0,0,1-1-1.4,1.27,1.27,0,0,1-.4,1.86,7.54,7.54,0,0,1,2.88-1.06c4.53-1.1,2.66-8.07-1.86-7Z"/><path class="cls-4" d="M548.59,483.52c1.77,5.61,6.3,9.46,12.35,8.47,5.89-1,8.53-7.68,7.78-12.9-.66-4.71-5.05-8.79-9.55-9.82-5.29-1.2-9.78,2.32-10.58,7.54-.29,1.94.48,3.87,2.53,4.43,1.73.48,4.14-.58,4.44-2.53a4.21,4.21,0,0,1,1-2.48c-.1.1.06.06.34,0-.3.07.6.06.77.1a5.74,5.74,0,0,1,3.88,3.7c.63,1.92-.43,4.37-2,4.88s-3.3-1.27-3.93-3.26c-1.39-4.43-8.37-2.58-7,1.87Z"/><path class="cls-4" d="M437.12,516c-1.23,7.14.85,13.89,4,20.26,2,4.18,8.28.5,6.23-3.66-2.18-4.45-4.11-9.65-3.25-14.69.79-4.55-6.17-6.49-7-1.91Z"/><path class="cls-4" d="M458.07,532.62a163.91,163.91,0,0,0-1.2-16.87l-3.64,3.58c4.1.16,8.15,3.21,10.74,6.19,1.56,1.79,4.55,1.13,5.67-.76,1.68-2.85,3.17-5.89,5.47-8.31l-5.69-.71c3.07,4.6,3.08,10.68,5.43,15.67,2,4.21,8.2.53,6.23-3.66-2.39-5-2.25-10.9-5.43-15.66a3.66,3.66,0,0,0-5.68-.72c-2.74,2.89-4.58,6.39-6.58,9.78l5.66-.76c-3.84-4.42-9.81-8-15.77-8.28-1.79-.07-3.85,1.67-3.64,3.59a161.16,161.16,0,0,1,1.21,16.87c0,4.66,7.25,4.71,7.22,0Z"/><path class="cls-4" d="M492.29,529.85c-1.52-4.77-2.34-10-1.2-15l-4.44,2.53c3.1,1.16,5.75,3.49,9,4.28,4.41,1.1,8.27-2,11.41-4.62L501,515.45c1.72,4.88,1.83,10.07,3,15.07,1.07,4.54,8,2.65,7-1.87-1.18-5-1.3-10.19-3-15.07a3.66,3.66,0,0,0-6-1.6,14.64,14.64,0,0,1-3.49,2.47,1.81,1.81,0,0,1-1.07.24c.66,0-.86-.32-.42-.12-2.86-1.27-5.4-3-8.37-4.14a3.62,3.62,0,0,0-4.44,2.53,35.84,35.84,0,0,0,1.2,18.76c1.41,4.42,8.4,2.57,7-1.87Z"/><path class="cls-4" d="M520.74,533.22c.47-3.53.53-7.13.89-10.68a40.74,40.74,0,0,1,.89-5.47c.13-.57.56-1.9.61-2a6.35,6.35,0,0,1,.53-.91c-.16.24-.91.71-.15.3-.56.3-.35.07,0,.16a3.7,3.7,0,0,1,1.35.73,19.77,19.77,0,0,1,3.94,4.42,29.11,29.11,0,0,1,4.67,9.56c1.09,4.54,8.06,2.65,7-1.87a36.77,36.77,0,0,0-6.4-12.72c-3-4-7.21-8.27-12.66-7.14-4.85,1-6,7.13-6.56,11.19-.72,4.78-.73,9.62-1.36,14.4-.26,2,1.8,3.63,3.58,3.64,2.16,0,3.38-1.64,3.64-3.59Z"/><path class="cls-4" d="M519.51,526a61.39,61.39,0,0,0,11.21-1.33c4.57-.9,2.67-7.87-1.87-7a51.77,51.77,0,0,1-9.29,1.08c-4.65.06-4.7,7.28,0,7.22Z"/><path class="cls-4" d="M541.81,513.91c6.25,0,12.43-1.15,18.68-1.21,4.66,0,4.7-7.26,0-7.22-6.25.06-12.43,1.16-18.68,1.21-4.66,0-4.7,7.26-.05,7.22Z"/><path class="cls-4" d="M546.06,511.48c-.48,4.89,1.1,9.6,1.2,14.46.1,4.66,7.32,4.71,7.22,0-.1-4.86-1.67-9.58-1.2-14.46.45-4.64-6.78-4.64-7.22,0Z"/><path class="cls-4" d="M567.15,507.86c-.61,7.92,2.76,18.86,12.39,18.93a10,10,0,0,0,8.68-5.5c2.44-4.56,1.8-10.16.49-14.94-1.24-4.49-8.21-2.62-7,1.87.86,3.12,1.36,6.29.32,9.3.1-.31-.46.81-.61,1.05.33-.52-.52.51-.72.67.79-.68-1.24.53-.13.09a7.08,7.08,0,0,1-.82.24c-.92.21.77,0-.17,0a3,3,0,0,1-1.67-.43,6.06,6.06,0,0,1-1.93-1.89c-1.69-2.58-1.88-6.07-1.63-9.34.36-4.65-6.87-4.66-7.22-.05Z"/><path class="cls-4" d="M593.18,503.4c1.07,5.89,2.27,11.76,2.89,17.72a3.7,3.7,0,0,0,3.58,3.64c1.8,0,3.85-1.63,3.64-3.59-.69-6.6-1.94-13.11-3.13-19.64-.84-4.58-7.81-2.68-7,1.87Z"/><path class="cls-4" d="M596.09,504.37c3.17-1.5,7.53-1.41,9.92.71,0,0,.79.92.38.37.08.1.54,1.06.24.28.09.22.12,1.07.09.24s-.18.35.12-.31c-.15.33-.07.27-.89.75a11.37,11.37,0,0,1-3.59,1c-3.36.59-3.24,5-.87,6.61,3.42,2.29,6.78,4.76,8.94,8.34,2.39,4,8.63.34,6.22-3.65-2.81-4.68-7.08-8-11.55-10.94l-.87,6.61c3.42-.6,7.06-1.94,8.87-5.12,1.6-2.83.69-6.14-1.26-8.51-4.7-5.68-13.3-5.52-19.41-2.61-4.2,2-.52,8.21,3.66,6.22Z"/><path class="cls-4" d="M619,504.25c.94,10.32,7.16,24.78,19.9,18.81,4.21-2,.53-8.2-3.66-6.23-6.19,2.9-8.63-8.33-9-12.53-.42-4.6-7.65-4.68-7.22-.05Z"/><path class="cls-4" d="M624.64,513.18a13.75,13.75,0,0,0,7.91,0,3.61,3.61,0,1,0-1.87-7,6.77,6.77,0,0,1-4.13,0,3.61,3.61,0,0,0-1.91,7Z"/><path class="cls-4" d="M625.15,505a6.44,6.44,0,0,1,5.24-2.54c4.65-.1,4.7-7.32.05-7.22A13.48,13.48,0,0,0,620,499.93a3.69,3.69,0,0,0,0,5.1c1.29,1.28,3.88,1.52,5.11,0Z"/><path class="cls-13" d="M436.6,574.56c18.47,1.36,39.08-10.11,39.6-30.29.08-3.09-4.72-3.09-4.8,0-.45,17.62-19.08,26.65-34.8,25.5-3.08-.23-3.07,4.57,0,4.79Z"/><rect class="cls-6" x="-0.47" y="-0.39" width="860.47" height="248"/><text class="cls-14" transform="translate(184.06 106.94)">Th<tspan class="cls-15" x="38.32" y="0">o</tspan><tspan x="57.02" y="0">se a</tspan><tspan class="cls-16" x="114.41" y="0">r</tspan><tspan x="127.6" y="0">e sold as imm</tspan><tspan class="cls-17" x="329.39" y="0">a</tspan><tspan x="346.69" y="0">tu</tspan><tspan class="cls-16" x="379.03" y="0">r</tspan><tspan x="392.22" y="0">e tic</tspan><tspan class="cls-18" x="454.91" y="0">k</tspan><tspan class="cls-16" x="472.59" y="0">et</tspan><tspan x="502.55" y="0">s </tspan><tspan x="26.26" y="40.8">and </tspan><tspan class="cls-16" x="89.91" y="40.8">c</tspan><tspan x="105.45" y="40.8">ann</tspan><tspan class="cls-19" x="162.26" y="40.8">o</tspan><tspan x="180.25" y="40.8">t </tspan><tspan class="cls-20" x="200.07" y="40.8">v</tspan><tspan class="cls-19" x="217.58" y="40.8">o</tspan><tspan class="cls-17" x="235.57" y="40.8">t</tspan><tspan class="cls-21" x="247.98" y="40.8">e </tspan><tspan class="cls-22" x="272.39" y="40.8">f</tspan><tspan x="283.64" y="40.8">or 256 blocks. </tspan><tspan x="58.63" y="81.6">This </tspan><tspan class="cls-23" x="128.2" y="81.6">st</tspan><tspan class="cls-24" x="154.92" y="81.6">a</tspan><tspan class="cls-25" x="172.84" y="81.6">g</tspan><tspan x="190.38" y="81.6">e </tspan><tspan class="cls-23" x="214.79" y="81.6">t</tspan><tspan x="227.13" y="81.6">a</tspan><tspan class="cls-18" x="245.05" y="81.6">k</tspan><tspan x="262.73" y="81.6">es ~20 hou</tspan><tspan class="cls-20" x="420.46" y="81.6">r</tspan><tspan class="cls-21" x="433.72" y="81.6" xml:space="preserve">s.  </tspan></text></g></g></svg>