<svg xmlns="http://www.w3.org/2000/svg" viewBox="0 0 860 860"><defs><style>.cls-1{isolation:isolate;}.cls-2{fill:#fbf4a2;}.cls-3{fill:#0c1e3e;stroke:#fd714a;stroke-width:5.78px;stroke-dasharray:5.78 5.78;}.cls-25,.cls-4{fill:#2971ff;}.cls-5{opacity:0.39;}.cls-5,.cls-9{mix-blend-mode:multiply;}.cls-6{fill:#2ed6a1;}.cls-7{opacity:0.21;}.cls-13,.cls-8{fill:#fff;}.cls-9{opacity:0.2;}.cls-10{fill:#476db4;}.cls-11{font-size:19.33px;fill:#fd714a;font-family:Consolas, Consolas;}.cls-12{letter-spacing:-0.01em;}.cls-13,.cls-25{font-size:34px;font-family:SourceSansPro-Bold, Source Sans Pro;font-weight:700;}.cls-14{letter-spacing:-0.03em;}.cls-15{letter-spacing:-0.01em;}.cls-16{letter-spacing:-0.02em;}.cls-17{letter-spacing:-0.01em;}.cls-18{letter-spacing:-0.03em;}.cls-19{letter-spacing:-0.02em;}.cls-20{letter-spacing:-0.03em;}.cls-21{letter-spacing:0em;}.cls-22{letter-spacing:-0.02em;}.cls-23{letter-spacing:-0.01em;}.cls-24{letter-spacing:-0.02em;}</style></defs><title>Artboard 14 copy 4</title><g class="cls-1"><g id="Layer_1" data-name="Layer 1"><rect class="cls-2" width="860" height="860"/><rect class="cls-3" x="61.25" y="129" width="719.51" height="61"/><rect class="cls-4" y="498.03" width="860" height="361.97"/><path class="cls-4" d="M234.85,333.57a11.64,11.64,0,0,0,11.64-11.64h13.58a11.64,11.64,0,1,0,23.27,0h13.58a11.64,11.64,0,0,0,23.28,0h13.57a11.64,11.64,0,1,0,23.28,0h13.58a11.64,11.64,0,0,0,11.64,11.64l29.09,84.37H264Z"/><path class="cls-5" d="M234.85,333.57,264,417.94H379.36V333.57a11.64,11.64,0,0,1-11.64-11.64H357.05a13.18,13.18,0,0,1-26.19,0H320.2a11.64,11.64,0,0,1-11.64,11.64,11.8,11.8,0,0,1-1.46-.1,11.51,11.51,0,0,1-1.45.1A11.64,11.64,0,0,1,294,321.93H283.34a11.57,11.57,0,0,1-13.09,11.54,11.57,11.57,0,0,1-13.09-11.54H246.49A11.64,11.64,0,0,1,234.85,333.57Z"/><path class="cls-6" d="M277,470.62c-8-1.18-16.29-.77-22.22,5.43-4.88,5.1-6.21,12.28-7,19-.65,5.83-.58,12.57-1.57,16.95-.14.61-.31,1.21-.47,1.82-.38,1.43-.2.69-.23.74-.26.59-.67,1.09-.95,1.66.55-1.14-.08-.46-.26.09.3-.92.94-.36-.25,0,2-.64-.06,0-.33,0-1.61.2,1,0-.63,0a6.52,6.52,0,0,1-2-.16c-9.09-1.66-13,12.27-3.81,13.93,7.51,1.37,15.09.29,19.65-6.46,3.53-5.22,4.08-11.88,4.53-18,.48-6.42.33-11.45,2.19-16.94a10.78,10.78,0,0,1,1.36-2.57s-.43.2.65-.61c1.24-.92-1,.57.5-.32,1.66-1-1.32.32.61-.32a12.61,12.61,0,0,1,2.1-.51s3.14,0,4.29.14c3.89.58,7.72-1,8.88-5.06,1-3.4-1.21-8.3-5.06-8.87Z"/><path class="cls-6" d="M323.18,478.33c10.83,14.9.56,48.95,25.66,53.74,9.09,1.74,13-12.18,3.81-13.93-3.42-.65-4.71-2-6.21-5.63-1.65-4-2.4-9.09-3.09-13.54-1.45-9.29-2-20.07-7.71-28-5.41-7.44-17.94-.22-12.46,7.31Z"/><path class="cls-6" d="M368.65,368.55c14.2,11.2,35.32-1.21,42.78-15.26,6.12-11.5,7.78-34.53-11.42-31.34-9.16,1.52-5.37,15.46,3.74,13.95-.84.14-1.45-.78-2.09-1.12-1-.53.07-.79-.22-.2-.2.42-.08,3.08-.28,4.26a37.5,37.5,0,0,1-1.44,5.28,8.69,8.69,0,0,1-1.58,3.29,30.08,30.08,0,0,1-9.41,8.51c-2.17,1.31-7.34,4.4-9.92,2.36-3.09-2.43-7.22-2.9-10.22.06-2.53,2.5-3,7.8.06,10.21Z"/><path class="cls-6" d="M376.45,446.86V333.57a11.64,11.64,0,0,1-11.64-11.64H351.23a11.64,11.64,0,1,1-23.27,0H314.38a11.64,11.64,0,1,1-23.28,0H277.52a11.64,11.64,0,1,1-23.27,0H240.67A11.64,11.64,0,0,1,229,333.57V485.83H356.36l17.37-13.16Z"/><path class="cls-6" d="M231.33,364.58c-9.8-1.39-19.36,0-26.92,6.85-6,5.47-9.37,13.54-10.59,21.46-2,13.23.54,35.16,16.14,39.46a17.21,17.21,0,0,0,12.68-1.64A9.52,9.52,0,0,0,227.1,420c-1.08-4.09-4.24-4.8-7.29-6.54-8.07-4.63-15.3,7.88-7.22,12.51a13.67,13.67,0,0,0,3,1.34c2.61.74-.43.71-1.67-1.78l-1-3.71-.05.34,3.31-4.33c-1.84,1,.06.05-.95.47-.32.13-2.06.93-.16.17-.16.06-3,.35-.58.14a3,3,0,0,1-1.38-.39c1.55,1.12.33.13,0-.13-.95-.71,1,.93-.51-.44a12.09,12.09,0,0,1-1.08-1.18c1.22,1.44-.29-.48-.48-.84-.29-.53-.58-1.05-.87-1.59-.72-1.35-.31-.63-.38-.82a36.09,36.09,0,0,1-1.27-4.19,28.32,28.32,0,0,1-.87-8.92c.11-5.53,1.82-12.21,4.44-15.67,3.84-5.08,8.55-6.89,15.48-5.91,3.89.56,7.71-1,8.87-5.05,1-3.39-1.2-8.33-5.06-8.88Z"/><g class="cls-7"><path class="cls-8" d="M207.41,373.73c-5.63,6-9.55,15.42-9.44,23.69.05,3.09,4.86,3.1,4.82,0-.1-7,3.25-15.19,8-20.29,2.12-2.25-1.28-5.67-3.4-3.4Z"/></g><g class="cls-7"><path class="cls-8" d="M390.24,364.21c9.8.55,17.12-8.67,19.82-17.19.94-3-3.7-4.23-4.64-1.28-2.07,6.53-7.6,14.08-15.18,13.65-3.1-.17-3.09,4.64,0,4.82Z"/></g><polygon class="cls-9" points="373.73 472.67 376.45 446.87 356.36 485.83 373.73 472.67"/><path d="M317.42,391c-3.7-2.59-10.31-1.37-13.3,1.74-1.7,1.77-2.81,3.9-4.34,5.8-3.09,3.82-25.2,10.52-12.45,18.36,3.24,2,8,1,11.54.88a34.67,34.67,0,0,0,16-4.47C322.43,408.85,325.23,396.5,317.42,391Z"/><path class="cls-10" d="M459.64,362c17.19,1.22,36.19-9.4,36.73-28.15.09-3.1-4.73-3.1-4.82,0-.46,16.18-17.48,24.36-31.91,23.33-3.09-.22-3.08,4.59,0,4.82Z"/><path class="cls-4" d="M509.49,284.37c-.1,12.58-7.34,41.72,12.07,43.7a18.36,18.36,0,0,0,18.72-11.77c3.6-8.94-4.27-16.13-12.37-17.64l0,9.7c5.08-.95,10.43-3,13.12-7.68,2.26-4,1.26-8.77-1-12.46-5.29-8.44-16.71-13.26-26.41-12.86-6.47.26-6.55,10.32-.08,10.05a22.33,22.33,0,0,1,17.17,7.06c1,1.09-.15-.31.65.85.12.18,1,1.91.68,1.13.42,1.09.34.94.18,1.53.28-1-.46.55.09-.13a3.54,3.54,0,0,1-1.21,1,16.34,16.34,0,0,1-5.75,1.79c-4.83.91-4.89,8.8,0,9.71a14,14,0,0,1,3.93,1.16,2.8,2.8,0,0,1,1.51,1.25A1.79,1.79,0,0,1,531,312a5.72,5.72,0,0,1-.58,1.94c-1.43,2.74-6.28,5.84-9.77,3.59.67.44-.54-.7-.07-.08a10.33,10.33,0,0,1-.87-1.47,20.22,20.22,0,0,1-1-3.63,43.16,43.16,0,0,1-.38-9.3c.19-6.2,1.16-12.36,1.21-18.57.06-6.49-10-6.55-10-.07Z"/><path class="cls-4" d="M544.68,289.4c0,8.56-.77,17,1.18,25.47,1.45,6.32,11.16,3.7,9.71-2.61-1.73-7.49-.88-15.18-.84-22.79,0-6.5-10-6.55-10.05-.07Z"/><path class="cls-4" d="M569.82,314.61V285.45l-6.36,4.81c4,1.05,6.79,4.83,9.06,8.11,2.86,4.13,5.16,8.61,8,12.71,2.29,3.28,8.23,3.4,9.19-1.22,2.09-10.05,1.22-20.26,1.18-30.44,0-6.5-10.08-6.56-10.06-.08,0,9.24,1.07,18.75-.82,27.87l9.18-1.22c-6.34-9.06-11.29-22.36-23.12-25.43a5.08,5.08,0,0,0-6.35,4.82v29.15c0,6.5,10.06,6.55,10.06.08Z"/><path class="cls-4" d="M609.49,275c-8.7,5.74-14.18,17.66-13.94,27.94.25,10.67,9.39,18.75,20,16.55,7.37-1.53,13.57-8.88,14.33-16.25a10.1,10.1,0,0,0-4.37-9.5c-3.74-2.51-8.6-2-12.76-1.16-6.35,1.35-3.71,11.06,2.6,9.71a14.89,14.89,0,0,1,3.88-.35c-.83,0,.54.12.63.14.43.11.31.15-.12-.19,1,.8-.08-.82.21.39-.3-1.27-.06-.27-.06.12,0,.75.2-.67-.12.67a9.14,9.14,0,0,1-2.4,4.08,7.83,7.83,0,0,1-4.91,2.73c1-.21-.53,0-.65,0a2.5,2.5,0,0,1-1.28-.16A5.26,5.26,0,0,1,608,308.5c-2.27-1.94-2.48-4.95-2.33-7.74.31-5.95,4.18-13.9,9-17,5.38-3.56.33-12.26-5.1-8.68Z"/><path class="cls-4" d="M631.32,296.77c1.81,9.31,8.81,18.12,18.74,19.07,10.68,1,16.5-8.55,17.48-17.93,1-9.87-5.62-18.34-14.55-21.59-9.15-3.32-18.94.8-24.19,8.59-3.63,5.39,5.1,10.38,8.71,5,6.2-9.21,20.25-3.66,20,7.11a11.5,11.5,0,0,1-2.73,7.43,4.6,4.6,0,0,1-4,1.4c-5.63-.82-8.79-6.42-9.82-11.72-1.24-6.37-10.95-3.72-9.71,2.61Z"/><path class="cls-4" d="M667.34,249.18c.06,12.73,2.14,25.2,5.2,37.53,1.56,6.3,11.27,3.69,9.71-2.6-2.85-11.5-4.8-23-4.86-34.86,0-6.49-10.08-6.55-10-.07Z"/><path class="cls-4" d="M679.37,311.56c6.49,0,6.55-10.06.07-10.06s-6.55,10.06-.07,10.06Z"/><text class="cls-11" transform="translate(81.12 164.7)">97d0f1582198b6456666abc6<tspan class="cls-12" x="235.03" y="0">f</tspan><tspan x="240.43" y="0">c693a14c4e8a76ad5da1bbd736a382754c045d8</tspan></text><text class="cls-13" transform="translate(238.34 599.58)">When a tic<tspan class="cls-14" x="153.92" y="0">k</tspan><tspan class="cls-15" x="171.6" y="0">e</tspan><tspan x="188.87" y="0">t </tspan><tspan class="cls-16" x="208.69" y="0">g</tspan><tspan class="cls-15" x="226.23" y="0">et</tspan><tspan x="256.19" y="0">s </tspan><tspan class="cls-17" x="278.05" y="0">v</tspan><tspan class="cls-18" x="295.56" y="0">o</tspan><tspan class="cls-19" x="313.55" y="0">t</tspan><tspan x="325.96" y="0">ed, </tspan><tspan x="-138.99" y="40.8">the funds (tic</tspan><tspan class="cls-14" x="59.53" y="40.8">k</tspan><tspan class="cls-15" x="77.21" y="40.8">e</tspan><tspan x="94.49" y="40.8">t pri</tspan><tspan class="cls-20" x="156.7" y="40.8">c</tspan><tspan x="171.63" y="40.8">e + su</tspan><tspan class="cls-21" x="255.17" y="40.8">b</tspan><tspan x="274.48" y="40.8">sidy - tic</tspan><tspan class="cls-20" x="399.29" y="40.8">k</tspan><tspan class="cls-15" x="416.97" y="40.8">e</tspan><tspan x="434.24" y="40.8">t </tspan><tspan class="cls-15" x="454.06" y="40.8">f</tspan><tspan x="465.32" y="40.8">ee) </tspan><tspan x="-99.35" y="81.6">will en</tspan><tspan class="cls-19" x="-0.27" y="81.6">t</tspan><tspan x="12.14" y="81.6">er imm</tspan><tspan class="cls-16" x="117.74" y="81.6">a</tspan><tspan x="135.05" y="81.6">tu</tspan><tspan class="cls-15" x="167.38" y="81.6">r</tspan><tspan x="180.57" y="81.6">e </tspan><tspan class="cls-22" x="204.98" y="81.6">st</tspan><tspan class="cls-19" x="231.71" y="81.6">a</tspan><tspan x="249.01" y="81.6">tus </tspan><tspan class="cls-15" x="303.21" y="81.6">f</tspan><tspan x="314.46" y="81.6">or an</tspan><tspan class="cls-18" x="391.03" y="81.6">o</tspan><tspan x="409.02" y="81.6">ther </tspan><tspan x="-50.52" y="122.4">256 blocks, a</tspan><tspan class="cls-19" x="142.7" y="122.4">ft</tspan><tspan x="165.48" y="122.4">er which th</tspan><tspan class="cls-23" x="333.13" y="122.4">e</tspan><tspan x="350.54" y="122.4">y a</tspan><tspan class="cls-15" x="392.97" y="122.4">r</tspan><tspan x="406.16" y="122.4">e </tspan><tspan x="-29.02" y="163.2">a</tspan><tspan class="cls-22" x="-11.1" y="163.2">v</tspan><tspan x="6" y="163.2">aliable </tspan><tspan class="cls-15" x="114.56" y="163.2">f</tspan><tspan x="125.82" y="163.2">or spending a</tspan><tspan class="cls-24" x="327.81" y="163.2">g</tspan><tspan x="345.32" y="163.2">ain.</tspan></text><text class="cls-25" transform="translate(180.4 90.34)">Each block <tspan class="cls-15" x="168.03" y="0">c</tspan><tspan x="183.56" y="0">alls 5 tic</tspan><tspan class="cls-14" x="305.83" y="0">k</tspan><tspan class="cls-15" x="323.51" y="0">et</tspan><tspan x="353.46" y="0">s </tspan><tspan class="cls-16" x="375.32" y="0">t</tspan><tspan x="387.73" y="0">o </tspan><tspan class="cls-17" x="413.4" y="0">v</tspan><tspan class="cls-18" x="430.91" y="0">o</tspan><tspan class="cls-19" x="448.9" y="0">t</tspan><tspan x="461.31" y="0">e.</tspan></text><path d="M271.08,366.46a6.53,6.53,0,1,1-6.53-6.53A6.53,6.53,0,0,1,271.08,366.46Z"/><path class="cls-8" d="M268,364.75a1.71,1.71,0,1,1-1.7-1.7A1.7,1.7,0,0,1,268,364.75Z"/><path class="cls-8" d="M268.84,363.93c-.14.15-.65-.13-1.14-.62s-.77-1-.62-1.14.65.13,1.14.62S269,363.79,268.84,363.93Z"/><path d="M347.46,366.46a6.53,6.53,0,1,1-6.53-6.53A6.53,6.53,0,0,1,347.46,366.46Z"/><path class="cls-8" d="M344.34,364.75a1.71,1.71,0,1,1-1.71-1.7A1.7,1.7,0,0,1,344.34,364.75Z"/><path class="cls-8" d="M345.22,363.93c-.14.15-.65-.13-1.14-.62s-.77-1-.62-1.14.65.13,1.14.62S345.37,363.79,345.22,363.93Z"/></g></g></svg>