<svg xmlns="http://www.w3.org/2000/svg" xmlns:xlink="http://www.w3.org/1999/xlink" viewBox="0 0 860 860"><defs><style>.cls-1{fill:none;}.cls-2{isolation:isolate;}.cls-3{fill:#0c1e3e;}.cls-4{font-size:42px;fill:#6ed3f3;font-family:SourceSansPro-Bold, Source Sans Pro;font-weight:700;}.cls-5{letter-spacing:-0.01em;}.cls-6{letter-spacing:-0.02em;}.cls-7{letter-spacing:-0.05em;}.cls-8{letter-spacing:-0.02em;}.cls-9{letter-spacing:-0.03em;}.cls-10{letter-spacing:-0.01em;}.cls-11,.cls-12{fill:#ddd6b5;}.cls-12,.cls-14,.cls-20{mix-blend-mode:multiply;}.cls-13{fill:#2971ff;}.cls-14{opacity:0.39;}.cls-15{fill:#e4c438;}.cls-16{opacity:0.21;}.cls-17{fill:#fff;}.cls-18{clip-path:url(#clip-path);}.cls-19{fill:#2ed6a1;}.cls-20{opacity:0.2;}.cls-21{fill:#0d1f3e;}.cls-22{fill:#6dceef;}.cls-23{fill:#dd87b8;}.cls-24{clip-path:url(#clip-path-2);}.cls-25{clip-path:url(#clip-path-3);}.cls-26{clip-path:url(#clip-path-4);}.cls-27{clip-path:url(#clip-path-5);}.cls-28{clip-path:url(#clip-path-6);}</style><clipPath id="clip-path"><path class="cls-1" d="M305.51,565.27c-23.14,0-41.91-7-41.91-15.72,0-4.34-46.13-53.46-38.55-56.31s70.72-33.63,82.29-33.27c86,2.71,75,87.07,82.47,89.58,8.51,2.87-42.39-4.64-42.39,0C347.42,558.23,328.66,565.27,305.51,565.27Z"/></clipPath><clipPath id="clip-path-2"><path class="cls-1" d="M579.74,483.25c-23.15,0-41.91-7-41.91-15.72,0-2.29-20.24-11.65-31.25-25.47-9.9-12.43-10.89-29.49-7.3-30.84,7.58-2.84,70.72-33.63,82.29-33.27,85.95,2.71,75,87.07,82.47,89.58,8.51,2.87-42.39-4.64-42.39,0C621.65,476.21,602.88,483.25,579.74,483.25Z"/></clipPath><clipPath id="clip-path-3"><path class="cls-1" d="M313.61,372.85v35.72c0,11.81-33.24,28.9-14,40.35,2.29,1.36,7.74,11,10.2,12.17,2.82,1.35,2.67-5.78,5.7-4.71a87.19,87.19,0,0,0,26.89,4.71c16.08.4,23-2.74,32.92-7.1,2.06-.9,5.1,1.71,7,.68,1.49-.79,1.91-5.2,3.33-6.06,18.95-11.44-1.41-28.33-1.41-40V372.85Z"/></clipPath><clipPath id="clip-path-4"><path class="cls-1" d="M464.44,410.49v35.72c0,11.81,33.23,28.9,14,40.34-2.28,1.36-7.73,11-10.19,12.17-2.82,1.36-2.68-5.77-5.71-4.7a87.48,87.48,0,0,1-26.89,4.7c-16.08.41-23-2.73-32.92-7.09-2.05-.9-5.09,1.71-7,.68-1.49-.79-1.91-5.2-3.32-6.06-19-11.44,1.4-28.34,1.4-40V410.49Z"/></clipPath><clipPath id="clip-path-5"><path class="cls-1" d="M438,598.55c-23.15,0-41.91-7-41.91-15.73,0-2.05-29.31,6.77-39.4-5.71-11.21-13.86,27.45-57,31.44-58.53,7.58-2.85,40.13-25.7,51.69-25.33,85.95,2.71,75.05,87.07,82.47,89.58,8.52,2.87-42.39-4.64-42.39,0C479.88,591.51,461.12,598.55,438,598.55Z"/></clipPath><clipPath id="clip-path-6"><path class="cls-1" d="M555.88,573.79c23.15,0,41.91-7,41.91-15.72,0-2.06,29.31,6.76,39.4-5.71,11.21-13.86-27.45-57-31.45-58.54-7.58-2.84-40.12-25.69-51.68-25.33-86,2.71-75,87.07-82.48,89.58-8.51,2.88,42.39-4.64,42.39,0C514,566.75,532.74,573.79,555.88,573.79Z"/></clipPath></defs><title>Artboard 14 copy 5</title><g class="cls-2"><g id="Layer_1" data-name="Layer 1"><rect class="cls-3" width="860" height="860"/><text class="cls-4" transform="translate(135.86 168.76)">N<tspan class="cls-5" x="27.93" y="0">o</tspan><tspan x="50.9" y="0">w th</tspan><tspan class="cls-6" x="131.96" y="0">a</tspan><tspan x="153.34" y="0">t </tspan><tspan class="cls-7" x="177.83" y="0">Y</tspan><tspan x="197.57" y="0">ou kn</tspan><tspan class="cls-5" x="300.17" y="0">o</tspan><tspan x="323.14" y="0">w h</tspan><tspan class="cls-5" x="388.12" y="0">o</tspan><tspan x="411.09" y="0">w </tspan><tspan class="cls-8" x="452.08" y="0">st</tspan><tspan x="485.09" y="0">aking </tspan><tspan class="cls-5" x="81.21" y="50.4">w</tspan><tspan x="113.46" y="50.4">orks, join a </tspan><tspan class="cls-8" x="325.64" y="50.4">st</tspan><tspan x="358.65" y="50.4">a</tspan><tspan class="cls-9" x="380.79" y="50.4">k</tspan><tspan x="402.63" y="50.4">epool </tspan><tspan x="67.03" y="100.8">and buy </tspan><tspan class="cls-7" x="223.86" y="100.8">Y</tspan><tspan x="243.6" y="100.8">our fi</tspan><tspan class="cls-5" x="341.79" y="100.8">r</tspan><tspan class="cls-8" x="358.17" y="100.8">s</tspan><tspan x="375.94" y="100.8">t tic</tspan><tspan class="cls-9" x="447.71" y="100.8">k</tspan><tspan class="cls-10" x="469.55" y="100.8">e</tspan><tspan x="490.89" y="100.8">t!</tspan></text><polygon class="cls-11" points="617.37 617.83 76.58 617.83 295.53 377.62 783.42 377.62 617.37 617.83"/><polygon class="cls-12" points="589.02 606.54 112.28 606.54 310.65 388.9 747.72 388.9 589.02 606.54"/><polygon class="cls-12" points="310.65 388.9 310.65 606.54 112.28 606.54 310.65 388.9"/><polygon class="cls-13" points="138.06 606.54 310.65 412.33 730.64 412.33 589.02 606.54 138.06 606.54"/><g class="cls-14"><path d="M305.51,521.14c-40.4,0-73.16,14.6-73.16,32.61s32.76,32.61,73.16,32.61,73.16-14.61,73.16-32.61S345.92,521.14,305.51,521.14Zm0,48.33c-23.14,0-41.91-7-41.91-15.72S282.37,538,305.51,538s41.91,7.05,41.91,15.73S328.66,569.47,305.51,569.47Z"/></g><path class="cls-15" d="M305.51,517.85c-40.4,0-73.16,14.59-73.16,32.6s32.76,32.61,73.16,32.61,73.16-14.6,73.16-32.61S345.92,517.85,305.51,517.85Zm0,48.33c-23.14,0-41.91-7-41.91-15.73s18.77-15.72,41.91-15.72,41.91,7,41.91,15.72S328.66,566.18,305.51,566.18Z"/><g class="cls-16"><path class="cls-17" d="M252.33,536.73c-9.07,1.31-15.43,8-14.12,17.37.24,1.71,2.83,1,2.59-.71-1.12-8,4.84-13,12.24-14.07,1.71-.25,1-2.83-.71-2.59Z"/></g><g class="cls-16"><path class="cls-17" d="M366.07,548.26c.6,6.4-4.08,11.39-8.94,14.85a43.38,43.38,0,0,1-19.62,7.44c-1.69.21-1.71,2.9,0,2.69a46.82,46.82,0,0,0,22.18-8.69c5.14-3.82,9.7-9.54,9.07-16.29-.16-1.71-2.85-1.73-2.69,0Z"/></g><g class="cls-18"><path class="cls-13" d="M267,491.26a6.5,6.5,0,0,0,6.5-6.5h7.58a6.5,6.5,0,1,0,13,0h7.58a6.5,6.5,0,1,0,13,0h7.58a6.5,6.5,0,1,0,13,0h7.58a6.5,6.5,0,0,0,6.49,6.5l16.24,47.09H283.25Z"/><g class="cls-14"><path d="M267,491.26a6.5,6.5,0,0,0,6.5-6.5h7.58a6.5,6.5,0,1,0,13,0h7.58a6.5,6.5,0,1,0,13,0h7.58a6.5,6.5,0,1,0,13,0h7.58a6.5,6.5,0,0,0,6.49,6.5l16.24,47.09H283.25Z"/></g><g class="cls-14"><path d="M267,491.26l16.24,47.09h64.42V491.26a6.5,6.5,0,0,1-6.5-6.5h-5.95a6.5,6.5,0,0,1-6.5,6.5,7.36,7.36,0,0,1-.81-.06,7.18,7.18,0,0,1-.81.06,6.5,6.5,0,0,1-6.5-6.5h-6a6.5,6.5,0,0,1-6.5,6.5,5.5,5.5,0,0,0-1.62,0,6.5,6.5,0,0,1-6.5-6.5h-5.95a6.5,6.5,0,0,1-6.5,6.5,7.18,7.18,0,0,1-.81-.06,7.36,7.36,0,0,1-.82.06,6.5,6.5,0,0,1-6.49-6.5h-5.95A6.5,6.5,0,0,1,267,491.26Z"/></g><path class="cls-19" d="M290.54,567.76c-4.46-.66-9-.41-12.33,3-2.83,2.82-3.54,7-4,10.81-.19,1.74-.27,3.49-.39,5.24-.05.78-.11,1.57-.19,2.35a9.7,9.7,0,0,1-.3,1.84c-.07.33-.69,2.1-.3,1.2a8.56,8.56,0,0,1-.42.79c-.34.58.52-.5-.26.27.7-.69.2-.15-.08,0-.52.31.7-.17-.42.09,1-.22-.1,0-.32,0a2.82,2.82,0,0,1-1.05-.09c-5.08-.93-7.24,6.84-2.13,7.78,4.24.77,8.26.12,10.92-3.54,2.08-2.87,2.34-6.81,2.58-10.22.28-3.69.19-6.27,1.25-9.44.36-1.08-.35.68.13-.32a9.5,9.5,0,0,1,.5-.88c.56-.9-.53.58.18-.21s-.07,0,.46-.39c.13-.09,1.12-.51.26-.18a8.43,8.43,0,0,1,1.5-.37c-.76.13.7,0,.69,0a11.56,11.56,0,0,1,1.56.09c2.17.32,4.32-.52,4.95-2.82.53-1.93-.65-4.63-2.82-5Z"/><path class="cls-19" d="M316.32,572.06c6,8.21.34,27.34,14.32,30,5.08,1,7.23-6.81,2.13-7.78-2-.38-2.41-1-3.36-2.89s-1.41-5.07-1.79-7.47c-.85-5.28-1.08-11.45-4.35-15.94-3-4.15-10-.13-6.95,4.08Z"/><path class="cls-19" d="M346.31,524.37c1.34-1.06,4.09.54,5.23,1.18a17,17,0,0,1,5.42,4.76,11.55,11.55,0,0,1,1.76,4.74,9,9,0,0,1,.17,2.81c.05-.63-.42.65,0-.1a1.64,1.64,0,0,1,1.35-.86c-5.08-.85-7.24,6.92-2.13,7.77s8.22-1.82,8.86-6.75c.46-3.49-.94-7.52-2.41-10.63-1.82-3.85-5.94-7-9.55-9-4.76-2.67-10-3-14.41.45-1.72,1.36-1.39,4.3,0,5.7,1.7,1.68,4,1.33,5.7,0Z"/><path class="cls-19" d="M346.05,554.5V491.26a6.5,6.5,0,0,1-6.5-6.5H332a6.5,6.5,0,1,1-13,0H311.4a6.5,6.5,0,1,1-13,0h-7.58a6.5,6.5,0,1,1-13,0h-7.58a6.5,6.5,0,0,1-6.5,6.5v85h71.07l9.7-7.35Z"/><path class="cls-19" d="M262.94,519.58c-3.76.53-6.23-.47-8.39-3,.54.62-.23-.32-.27-.38-.29-.42-.54-.87-.79-1.32a6,6,0,0,1-.79-1.89,15.62,15.62,0,0,1-.9-5.25,26,26,0,0,1,.08-2.79,9.64,9.64,0,0,1,.31-2,19.42,19.42,0,0,1,.69-2.45c.08-.22.16-.44.25-.65-.18.42-.17.43,0,0s.4-.77.62-1.14.33-.51.51-.76c-.61.85.17-.12.33-.28s.91-.71,0,0c.24-.18,1.33-.69.15-.2a4.83,4.83,0,0,1,.74-.22c.65-.16-.92,0,.23,0,.61,0-.73-.2.35.12.54.16-.43-.26.52.26l-1.88-2.45q4.17-3.75,1.78-2.94a8.6,8.6,0,0,0-1.94.85c-4.51,2.58-.44,9.53,4.08,6.95,1.86-1.06,4.15-1.77,4.18-4.65s-1.46-4.57-4-5.58a9.33,9.33,0,0,0-7.58.46c-4.82,2.3-6.67,8.64-7.27,13.47-.69,5.6.27,11.77,3.39,16.56,4,6.14,10.73,8,17.69,7,2.18-.31,3.37-3,2.85-4.93-.62-2.32-2.76-3.16-4.93-2.85Z"/><path d="M287,512.23a3.76,3.76,0,1,1-3.76-3.76A3.76,3.76,0,0,1,287,512.23Z"/><path class="cls-17" d="M285.19,511.25a1,1,0,1,1-1-1A1,1,0,0,1,285.19,511.25Z"/><path class="cls-17" d="M285.69,510.78c-.08.08-.37-.08-.65-.36s-.44-.58-.36-.66.37.07.66.36S285.78,510.69,285.69,510.78Z"/><path d="M325.75,512.23a3.77,3.77,0,1,1-3.77-3.76A3.76,3.76,0,0,1,325.75,512.23Z"/><path class="cls-17" d="M324,511.25a1,1,0,1,1-1-1A1,1,0,0,1,324,511.25Z"/><path class="cls-17" d="M324.46,510.78c-.09.08-.38-.08-.67-.36s-.43-.58-.35-.66.38.07.66.36S324.54,510.69,324.46,510.78Z"/><path d="M312.64,528c-1.57-1-5-1.2-8-1.28-4-.1-7.83-.1-11.79.13-3.27.19-5.11,1.47-4.31,2.46h0c-1.12,1.74,1.19,3.4,5.81,4.35a37.23,37.23,0,0,0,14.16-.12C313.39,532.35,315.65,529.89,312.64,528Z"/><g class="cls-16"><path class="cls-17" d="M253.59,520.35A17.47,17.47,0,0,1,249.11,509a1.34,1.34,0,0,0-2.68,0,20.19,20.19,0,0,0,5.26,13.22c1.19,1.27,3.08-.64,1.9-1.9Z"/></g><g class="cls-16"><path class="cls-17" d="M352.66,523.78c4.24-.24,7.32,4,8.48,7.62.52,1.64,3.11,1,2.59-.71-1.51-4.76-5.6-9.9-11.07-9.59-1.72.09-1.73,2.78,0,2.68Z"/></g><g class="cls-20"><polygon points="344.53 568.9 346.05 554.5 334.83 576.25 344.53 568.9"/></g></g><path class="cls-21" d="M293.36,520.75H276.85a6.43,6.43,0,0,1,0-12.85h16.51a6.43,6.43,0,1,1,0,12.85"/><path class="cls-21" d="M330.16,520.75H313.65a6.43,6.43,0,1,1,0-12.85h16.51a6.43,6.43,0,1,1,0,12.85"/><path class="cls-21" d="M298.17,515.4a13.18,13.18,0,0,1,11.43.55c1.53.81,2.88-1.51,1.36-2.32a15.74,15.74,0,0,0-13.51-.82c-1.58.64-.89,3.24.72,2.59"/><path class="cls-21" d="M273.65,515.14c.89-6.22-6.26-9.28-10.87-5.64-1.35,1.08.56,3,1.9,1.9,2.41-1.91,6.88-.47,6.38,3-.24,1.69,2.35,2.42,2.59.71"/><path class="cls-21" d="M336.54,514c1.89-1.41,7.55-4.89,9.86-2.69,1.24,1.2,3.15-.7,1.89-1.9-3.47-3.32-10-.07-13.11,2.27-1.37,1,0,3.35,1.36,2.32"/><polygon class="cls-22" points="283.27 520.15 276.29 520.15 281.66 508.5 288.64 508.5 283.27 520.15"/><polygon class="cls-22" points="320.87 520.15 313.89 520.15 319.26 508.5 326.24 508.5 320.87 520.15"/><g class="cls-14"><path d="M579.74,439.12c-40.4,0-73.16,14.6-73.16,32.61s32.76,32.6,73.16,32.6,73.16-14.59,73.16-32.6S620.14,439.12,579.74,439.12Zm0,48.33c-23.15,0-41.91-7-41.91-15.72S556.59,456,579.74,456s41.91,7,41.91,15.73S602.88,487.45,579.74,487.45Z"/></g><path class="cls-23" d="M579.74,435.83c-40.4,0-73.16,14.59-73.16,32.6S539.34,501,579.74,501s73.16-14.6,73.16-32.61S620.14,435.83,579.74,435.83Zm0,48.33c-23.15,0-41.91-7-41.91-15.73s18.76-15.72,41.91-15.72,41.91,7,41.91,15.72S602.88,484.16,579.74,484.16Z"/><g class="cls-16"><path class="cls-17" d="M526.56,454.71c-9.07,1.31-15.43,8-14.12,17.37.24,1.71,2.83,1,2.59-.71-1.12-8,4.84-13,12.24-14.07,1.71-.25,1-2.83-.71-2.59Z"/></g><g class="cls-16"><path class="cls-17" d="M640.3,466.24c.6,6.4-4.08,11.39-8.95,14.85a43.3,43.3,0,0,1-19.61,7.44c-1.69.21-1.71,2.9,0,2.69a46.82,46.82,0,0,0,22.18-8.69c5.14-3.82,9.7-9.54,9.07-16.29-.16-1.71-2.85-1.73-2.69,0Z"/></g><g class="cls-24"><path class="cls-13" d="M541.24,409.24a6.5,6.5,0,0,0,6.49-6.5h7.58a6.5,6.5,0,1,0,13,0h7.58a6.5,6.5,0,0,0,13,0h7.57a6.5,6.5,0,0,0,13,0H617a6.49,6.49,0,0,0,6.49,6.5l16.24,47.09H557.48Z"/><g class="cls-14"><path d="M541.24,409.24a6.5,6.5,0,0,0,6.49-6.5h7.58a6.5,6.5,0,1,0,13,0h7.58a6.5,6.5,0,0,0,13,0h7.57a6.5,6.5,0,0,0,13,0H617a6.49,6.49,0,0,0,6.49,6.5l16.24,47.09H557.48Z"/></g><g class="cls-14"><path d="M541.24,409.24l16.24,47.09H621.9V409.24a6.5,6.5,0,0,1-6.5-6.5h-5.95a6.5,6.5,0,0,1-6.5,6.5,7.18,7.18,0,0,1-.81-.06,7.36,7.36,0,0,1-.81.06,6.5,6.5,0,0,1-6.5-6.5h-6a6.5,6.5,0,0,1-6.5,6.5,7,7,0,0,1-.81-.06,7.36,7.36,0,0,1-.81.06,6.5,6.5,0,0,1-6.5-6.5h-6a6.49,6.49,0,0,1-6.49,6.5,7,7,0,0,1-.81-.06,7.36,7.36,0,0,1-.82.06,6.49,6.49,0,0,1-6.49-6.5h-6A6.5,6.5,0,0,1,541.24,409.24Z"/></g><path class="cls-19" d="M564.77,485.74c-4.46-.66-9-.41-12.33,2.95-2.83,2.82-3.55,7-4,10.81-.2,1.74-.27,3.49-.39,5.24-.05.78-.11,1.57-.19,2.35a9.9,9.9,0,0,1-.31,1.84c-.06.32-.68,2.1-.29,1.2a8.56,8.56,0,0,1-.42.79c-.34.57.52-.5-.26.27.7-.69.2-.15-.08,0-.52.31.7-.17-.42.09,1-.22-.1,0-.32,0a2.82,2.82,0,0,1-1-.09c-5.08-.93-7.24,6.84-2.13,7.78,4.24.77,8.26.12,10.91-3.54,2.09-2.88,2.34-6.81,2.59-10.22.27-3.69.19-6.27,1.25-9.44.35-1.08-.35.68.13-.33a8.47,8.47,0,0,1,.5-.87c.56-.9-.53.58.18-.21s-.08-.05.45-.39c.14-.09,1.13-.51.27-.18a7.65,7.65,0,0,1,1.5-.37c-.77.13.7,0,.68,0a11.71,11.71,0,0,1,1.57.09c2.17.32,4.32-.52,5-2.82.53-1.92-.65-4.63-2.82-4.95Z"/><path class="cls-19" d="M590.54,490c6,8.21.34,27.34,14.32,30,5.09,1,7.24-6.81,2.13-7.78-2-.38-2.4-1-3.35-2.89s-1.41-5.07-1.79-7.47c-.85-5.29-1.09-11.45-4.36-15.94-3-4.16-10-.13-7,4.08Z"/><path class="cls-19" d="M620.54,442.35c1.33-1.06,4.08.54,5.23,1.18a17,17,0,0,1,5.42,4.76,11.41,11.41,0,0,1,1.75,4.74,8.66,8.66,0,0,1,.18,2.81c0-.63-.42.65,0-.1.21-.39.84-.95,1.35-.86-5.09-.85-7.25,6.92-2.13,7.77s8.22-1.82,8.86-6.75c.45-3.49-.94-7.52-2.41-10.63-1.82-3.85-5.95-7-9.55-9-4.76-2.66-10-3-14.41.46-1.73,1.36-1.39,4.3,0,5.7,1.7,1.68,4,1.33,5.7,0Z"/><path class="cls-19" d="M620.27,472.48V409.24a6.5,6.5,0,0,1-6.49-6.5H606.2a6.5,6.5,0,0,1-13,0h-7.57a6.5,6.5,0,0,1-13,0h-7.57a6.5,6.5,0,0,1-13,0h-7.57a6.5,6.5,0,0,1-6.5,6.5v85h71.07l9.7-7.35Z"/><path class="cls-19" d="M540,434.21c-1.18,3.61-3.17,5.38-6.34,6.23.8-.22-.39.06-.47.07-.5.08-1,.1-1.53.13a6.11,6.11,0,0,1-2-.13,15.41,15.41,0,0,1-5.11-1.5,26.61,26.61,0,0,1-2.48-1.3,11,11,0,0,1-1.67-1.17,18.11,18.11,0,0,1-1.9-1.71c-.17-.16-.32-.33-.48-.51q.45.53,0,0c-.27-.34-.51-.69-.75-1.06a7.75,7.75,0,0,1-.46-.79c.5.92,0-.2-.11-.42s-.23-1.13,0,0c-.05-.29,0-1.48-.11-.22a3.93,3.93,0,0,1,.13-.75c.14-.66-.41.83.13-.19.29-.54-.49.57.27-.26.37-.42-.43.26.46-.36l-3,.61c-1-3.59-1.64-4.56-1.86-2.89a8.82,8.82,0,0,0-.08,2.12c.33,5.18,8.36,4.59,8-.6-.13-2.14.24-4.51-2.33-5.8s-4.75-.71-6.79,1.15a9.36,9.36,0,0,0-2.92,7c-.07,5.34,4.81,9.8,8.88,12.46,4.73,3.09,10.69,4.95,16.36,4.26,7.28-.89,11.93-6.09,14.11-12.79.68-2.09-1.21-4.34-3.17-4.73-2.35-.46-4.06,1.09-4.73,3.18Z"/><path d="M561.21,430.21a3.76,3.76,0,1,1-3.76-3.76A3.76,3.76,0,0,1,561.21,430.21Z"/><path class="cls-17" d="M559.41,429.23a1,1,0,1,1-1-1A1,1,0,0,1,559.41,429.23Z"/><path class="cls-17" d="M559.92,428.75c-.08.09-.38-.07-.66-.35s-.44-.58-.36-.66.38.07.66.36S560,428.67,559.92,428.75Z"/><path d="M600,430.21a3.76,3.76,0,1,1-3.76-3.76A3.76,3.76,0,0,1,600,430.21Z"/><path class="cls-17" d="M598.17,429.23a1,1,0,1,1-1-1A1,1,0,0,1,598.17,429.23Z"/><path class="cls-17" d="M598.68,428.75c-.08.09-.37-.07-.66-.35s-.44-.58-.35-.66.37.07.66.36S598.77,428.67,598.68,428.75Z"/><g class="cls-16"><path class="cls-17" d="M536.52,442.94a17.48,17.48,0,0,1-12.14-1,1.34,1.34,0,0,0-1.18,2.41,20.27,20.27,0,0,0,14.19,1.1c1.66-.51.79-3.05-.87-2.54Z"/></g><g class="cls-16"><path class="cls-17" d="M626.89,441.76c4.24-.24,7.32,4,8.47,7.62.52,1.65,3.12.94,2.59-.71-1.5-4.76-5.59-9.9-11.06-9.59-1.72.09-1.73,2.78,0,2.68Z"/></g><g class="cls-20"><polygon points="618.76 486.88 620.27 472.48 609.06 494.23 618.76 486.88"/></g></g><path d="M583.16,439.75c-1.66-1.16-4.63-.61-6,.78-.76.8-1.26,1.75-1.94,2.6-1.39,1.72-11.31,4.72-5.59,8.24,1.45.89,3.58.44,5.18.39a15.51,15.51,0,0,0,7.17-2C585.41,447.75,586.66,442.21,583.16,439.75Z"/><g class="cls-25"><path class="cls-13" d="M319.59,388.66c2.31,0,4.18-3.55,4.18-7.92h4.87c0,4.37,1.87,7.92,4.18,7.92s4.17-3.55,4.17-7.92h4.88c0,4.37,1.87,7.92,4.17,7.92s4.18-3.55,4.18-7.92h4.88c0,4.37,1.86,7.92,4.17,7.92s4.18-3.55,4.18-7.92h4.87c0,4.37,1.87,7.92,4.18,7.92L389.27,446H330Z"/><path class="cls-14" d="M319.59,388.66c2.31,0,4.18-3.55,4.18-7.92h4.87c0,4.37,1.87,7.92,4.18,7.92s4.17-3.55,4.17-7.92h4.88c0,4.37,1.87,7.92,4.17,7.92s4.18-3.55,4.18-7.92h4.88c0,4.37,1.86,7.92,4.17,7.92s4.18-3.55,4.18-7.92h4.87c0,4.37,1.87,7.92,4.18,7.92L389.27,446H330Z"/><path class="cls-19" d="M336.72,481.86c-2.45-.81-4.92-.5-6.76,3.59-1.55,3.44-1.95,8.54-2.18,13.17-.1,2.12-.15,4.26-.21,6.39,0,.95-.06,1.9-.11,2.86s0,.73-.16,2.24c0,.39-.38,2.56-.17,1.47a9.41,9.41,0,0,1-.23.95c-.18.71.29-.61-.14.33.39-.83.11-.18,0,0-.29.37.38-.21-.23.1.52-.26-.06,0-.18,0-.43,0-.27,0-.57-.1-2.79-1.14-4,8.33-1.17,9.47,2.32.94,4.53.15,6-4.31,1.14-3.5,1.29-8.3,1.42-12.46a96.81,96.81,0,0,1,.68-11.49c.2-1.32-.19.83.08-.4a10.94,10.94,0,0,1,.27-1.06c.31-1.11-.29.7.1-.26s0-.06.25-.47c.07-.11.62-.63.14-.23a3,3,0,0,1,.82-.45c-.41.16.39,0,.38,0a2.54,2.54,0,0,1,.86.11c1.19.39,2.37-.63,2.71-3.44.29-2.35-.35-5.64-1.54-6Z"/><path class="cls-19" d="M350.85,487.1c3.27,10,.18,33.31,7.85,36.54,2.78,1.18,4-8.29,1.16-9.47-1.1-.47-1.32-1.18-1.84-3.52a76,76,0,0,1-1-9.1c-.46-6.44-.59-13.95-2.38-19.42-1.66-5.06-5.49-.16-3.81,5Z"/><path class="cls-19" d="M371.37,465.7v-77c-2.31,0-4.19-3.55-4.19-7.92h-4.89c0,4.37-1.88,7.92-4.19,7.92s-4.19-3.55-4.19-7.92H349c0,4.37-1.88,7.92-4.19,7.92s-4.2-3.55-4.2-7.92h-4.89c0,4.37-1.87,7.92-4.19,7.92s-4.19-3.55-4.19-7.92h-4.89c0,4.37-1.87,7.92-4.19,7.92V492.2h45.85l6.26-8.95Z"/><path d="M333.26,414.21c0,2.53-1.08,4.58-2.42,4.58s-2.43-2.05-2.43-4.58,1.09-4.58,2.43-4.58S333.26,411.68,333.26,414.21Z"/><path class="cls-17" d="M332.1,413c0,.66-.28,1.2-.63,1.2s-.63-.54-.63-1.2.28-1.19.63-1.19S332.1,412.35,332.1,413Z"/><path class="cls-17" d="M332.43,412.44c-.05.1-.24-.1-.42-.44a1.27,1.27,0,0,1-.23-.8c.05-.1.24.09.42.43A1.35,1.35,0,0,1,332.43,412.44Z"/><path d="M358.27,414.21c0,2.53-1.09,4.58-2.42,4.58s-2.43-2.05-2.43-4.58,1.09-4.58,2.43-4.58S358.27,411.68,358.27,414.21Z"/><path class="cls-17" d="M357.11,413c0,.66-.28,1.2-.63,1.2s-.63-.54-.63-1.2.28-1.19.63-1.19S357.11,412.35,357.11,413Z"/><path class="cls-17" d="M357.44,412.44c-.05.1-.24-.1-.42-.44a1.27,1.27,0,0,1-.23-.8c0-.1.24.09.42.43A1.43,1.43,0,0,1,357.44,412.44Z"/><path d="M349.82,433.46c-1-1.18-3.2-1.47-5.15-1.56a48.32,48.32,0,0,0-7.61.16c-2.11.23-3.3,1.79-2.78,3v0c-.72,2.11.76,4.13,3.75,5.29a12.92,12.92,0,0,0,9.13-.14C350.3,438.72,351.76,435.72,349.82,433.46Z"/><path class="cls-19" d="M370.64,429c.89-1.29,2.7.65,3.46,1.44a17.66,17.66,0,0,1,3.58,5.8,22.07,22.07,0,0,1,1.16,5.77,20.06,20.06,0,0,1,.11,3.42c0-.77-.27.8,0-.12.14-.47.55-1.15.89-1.05-3.36-1-4.79,8.43-1.4,9.48s5.43-2.23,5.85-8.24a43.27,43.27,0,0,0-1.59-12.94,25.47,25.47,0,0,0-6.32-11c-3.14-3.25-6.62-3.67-9.51.55-1.14,1.66-.92,5.24,0,6.94,1.12,2.05,2.62,1.63,3.76,0Z"/><path class="cls-19" d="M323.79,419.94c-3.67-4.41-8-5.21-11.9-1.19-3.46,3.6-5.75,10.4-7,17.17-1,5.47-1.42,12.9.51,17.89,1.17,3,2.76,4.42,4.72,4.86,1.5.34,2.81-.79,3.58-3.25a11.23,11.23,0,0,0,.33-4.78c-.17-1.5-.79-2-1.2-3.08-2-5.07-6.61-.16-4.59,5,.41,1.05.91,1.88,1.35,2.87-.23-.74-.47-1.48-.7-2.22l.06.46v-2.57c.07-.25.14-.5.22-.76l1.91-1.46a4.22,4.22,0,0,1-.71,0c-.71,0,.5.22-.15-.05-.16-.07-.7-.56-.09,0-.65-.58.11.29-.2-.22-.13-.21-.45-1.08,0,0-.11-.28-.2-.6-.29-.91.33,1.17,0,.16,0-.15-.09-.49-.14-1-.19-1.51.11,1.14,0-1.22,0-1.65a16.88,16.88,0,0,1,.14-2.45,40.69,40.69,0,0,1,1.08-6.06c1.09-4.18,2.42-7.12,4.45-9.09a3.49,3.49,0,0,1,2.57-.88c1,.06,2.41,1.28,3.5,2.59,2.88,3.46,5.53-5.06,2.66-8.51Z"/><g class="cls-16"><path class="cls-17" d="M314.83,419.16c-2.8,2-5.65,6.66-6.88,11.78-.46,1.91,1.07,3.58,1.53,1.65,1-4.31,3.44-8.55,5.82-10.28,1.05-.76.6-3.93-.47-3.15Z"/></g><g class="cls-16"><path class="cls-17" d="M374.84,428.28c2.8-.29,4.83,4.84,5.6,9.29.34,2,2.05,1.14,1.71-.88-1-5.79-3.7-12.06-7.31-11.68-1.14.12-1.14,3.39,0,3.27Z"/></g></g><g class="cls-26"><path class="cls-13" d="M458.45,426.29c-2.3,0-4.17-3.54-4.17-7.91H449.4c0,4.37-1.87,7.91-4.17,7.91s-4.18-3.54-4.18-7.91h-4.87c0,4.37-1.87,7.91-4.18,7.91s-4.18-3.54-4.18-7.91H423c0,4.37-1.87,7.91-4.18,7.91s-4.18-3.54-4.18-7.91h-4.87c0,4.37-1.87,7.91-4.17,7.91l-16.78,57.38H448Z"/><path class="cls-14" d="M458.45,426.29c-2.3,0-4.17-3.54-4.17-7.91H449.4c0,4.37-1.87,7.91-4.17,7.91s-4.18-3.54-4.18-7.91h-4.87c0,4.37-1.87,7.91-4.18,7.91s-4.18-3.54-4.18-7.91H423c0,4.37-1.87,7.91-4.18,7.91s-4.18-3.54-4.18-7.91h-4.87c0,4.37-1.87,7.91-4.17,7.91l-16.78,57.38H448Z"/><path class="cls-19" d="M441.33,519.49c2.44-.8,4.91-.5,6.75,3.6,1.56,3.44,1.95,8.54,2.18,13.16.11,2.13.15,4.26.21,6.39,0,1,.07,1.91.11,2.86s0,.74.17,2.25c0,.39.37,2.55.16,1.46.07.33.15.65.23,1,.18.7-.29-.61.14.33-.38-.84-.11-.19.05,0,.28.37-.39-.21.23.1-.53-.27.05,0,.17,0,.43,0,.28,0,.58-.11,2.78-1.13,4,8.33,1.17,9.47-2.33.95-4.53.15-6-4.31-1.14-3.5-1.28-8.3-1.42-12.45a92.63,92.63,0,0,0-.68-11.49c-.2-1.33.19.82-.07-.41-.08-.36-.18-.71-.27-1.06-.31-1.1.29.7-.1-.25s0-.06-.25-.47c-.08-.12-.62-.64-.15-.23a2.77,2.77,0,0,0-.82-.45c.42.16-.39,0-.38,0a2.72,2.72,0,0,0-.85.11c-1.19.4-2.37-.63-2.72-3.43-.29-2.35.36-5.64,1.55-6Z"/><path class="cls-19" d="M427.2,524.74c-3.28,10-.19,33.31-7.85,36.54-2.79,1.17-4-8.29-1.17-9.47,1.11-.47,1.32-1.19,1.84-3.53a73.83,73.83,0,0,0,1-9.09c.47-6.44.6-14,2.39-19.43,1.66-5.06,5.49-.15,3.81,5Z"/><path class="cls-19" d="M406.67,503.34v-77c2.32,0,4.19-3.54,4.19-7.91h4.9c0,4.37,1.87,7.91,4.19,7.91s4.19-3.54,4.19-7.91H429c0,4.37,1.87,7.91,4.19,7.91s4.19-3.54,4.19-7.91h4.89c0,4.37,1.88,7.91,4.19,7.91s4.19-3.54,4.19-7.91h4.89c0,4.37,1.88,7.91,4.19,7.91V529.83H413.91l-6.26-8.94Z"/><path d="M444.78,451.85c0,2.53,1.09,4.58,2.43,4.58s2.43-2.05,2.43-4.58-1.09-4.59-2.43-4.59S444.78,449.31,444.78,451.85Z"/><path class="cls-17" d="M445.94,450.65c0,.66.28,1.2.63,1.2s.64-.54.64-1.2-.29-1.2-.64-1.2S445.94,450,445.94,450.65Z"/><path class="cls-17" d="M445.61,450.07c.06.1.25-.09.43-.43a1.45,1.45,0,0,0,.23-.81c0-.1-.24.09-.43.44A1.42,1.42,0,0,0,445.61,450.07Z"/><path d="M419.77,451.85c0,2.53,1.09,4.58,2.43,4.58s2.43-2.05,2.43-4.58-1.09-4.59-2.43-4.59S419.77,449.31,419.77,451.85Z"/><path class="cls-17" d="M420.93,450.65c0,.66.29,1.2.64,1.2s.63-.54.63-1.2-.28-1.2-.63-1.2S420.93,450,420.93,450.65Z"/><path class="cls-17" d="M420.6,450.07c.06.1.25-.09.43-.43a1.45,1.45,0,0,0,.23-.81c-.06-.1-.24.09-.43.44A1.42,1.42,0,0,0,420.6,450.07Z"/><path d="M428.23,471.1c1-1.19,3.2-1.47,5.15-1.57a48.19,48.19,0,0,1,7.6.16c2.11.24,3.3,1.8,2.78,3v0c.72,2.11-.77,4.13-3.75,5.29a13,13,0,0,1-9.14-.15C427.74,476.36,426.29,473.35,428.23,471.1Z"/><path class="cls-19" d="M407.4,466.63c-.88-1.28-2.7.66-3.45,1.44a17.71,17.71,0,0,0-3.59,5.8,22.72,22.72,0,0,0-1.15,5.78,19,19,0,0,0-.12,3.42c0-.77.28.8,0-.12-.13-.47-.55-1.15-.89-1.05,3.36-1,4.79,8.43,1.41,9.47s-5.43-2.22-5.85-8.23a43,43,0,0,1,1.59-12.94,25.4,25.4,0,0,1,6.31-11c3.14-3.25,6.62-3.66,9.52.56,1.13,1.66.92,5.23,0,6.94-1.13,2.05-2.63,1.62-3.77,0Z"/><path class="cls-19" d="M454.26,457.58c3.66-4.42,8-5.21,11.89-1.19,3.47,3.6,5.76,10.4,7,17.17,1,5.47,1.42,12.9-.51,17.89-1.16,3-2.75,4.41-4.71,4.85-1.51.35-2.82-.78-3.59-3.25a11.21,11.21,0,0,1-.33-4.78c.18-1.49.79-2,1.2-3.08,2-5.07,6.61-.16,4.6,5-.42,1.05-.91,1.87-1.36,2.86.24-.74.47-1.47.7-2.21,0,.15,0,.3-.05.46v-2.57c-.08-.25-.15-.51-.22-.76L467,486.49a4.22,4.22,0,0,0,.71,0c.71,0-.5.22.15-.06.16-.06.7-.56.09,0,.65-.57-.1.29.2-.22.13-.21.46-1.07.05,0a8.75,8.75,0,0,0,.28-.91c-.32,1.17,0,.16,0-.15.09-.49.14-1,.19-1.52-.11,1.15,0-1.21,0-1.65a17,17,0,0,0-.13-2.44,40.51,40.51,0,0,0-1.09-6.07c-1.09-4.17-2.41-7.11-4.45-9.08a3.43,3.43,0,0,0-2.56-.89c-1,.07-2.42,1.28-3.5,2.59-2.89,3.47-5.53-5.05-2.66-8.5Z"/><g class="cls-16"><path class="cls-17" d="M463.21,456.79c2.8,2,5.65,6.67,6.88,11.79.46,1.9-1.07,3.57-1.53,1.64-1-4.3-3.44-8.54-5.82-10.27-1.05-.76-.59-3.93.47-3.16Z"/></g><g class="cls-16"><path class="cls-17" d="M403.21,465.92c-2.8-.3-4.84,4.84-5.6,9.28-.35,2-2.06,1.15-1.71-.87,1-5.79,3.69-12.06,7.31-11.68,1.13.11,1.14,3.39,0,3.27Z"/></g></g><g class="cls-27"><path class="cls-13" d="M399.47,524.53A6.49,6.49,0,0,0,406,518h7.58a6.5,6.5,0,0,0,13,0h7.58a6.5,6.5,0,0,0,13,0h7.58a6.5,6.5,0,0,0,13,0h7.58a6.49,6.49,0,0,0,6.5,6.49L498,571.63H415.71Z"/><g class="cls-14"><path d="M399.47,524.53A6.49,6.49,0,0,0,406,518h7.58a6.5,6.5,0,0,0,13,0h7.58a6.5,6.5,0,0,0,13,0h7.58a6.5,6.5,0,0,0,13,0h7.58a6.49,6.49,0,0,0,6.5,6.49L498,571.63H415.71Z"/></g><g class="cls-14"><path d="M399.47,524.53l16.24,47.1h64.42v-47.1a6.48,6.48,0,0,1-6.49-6.49h-6a6.49,6.49,0,0,1-6.49,6.49,7.37,7.37,0,0,1-.82,0,7,7,0,0,1-.81,0,6.49,6.49,0,0,1-6.5-6.49h-5.95a6.49,6.49,0,0,1-6.5,6.49,7.34,7.34,0,0,1-.81,0,7,7,0,0,1-.81,0,6.49,6.49,0,0,1-6.5-6.49h-5.95a6.49,6.49,0,0,1-6.5,6.49,7.34,7.34,0,0,1-.81,0,7,7,0,0,1-.81,0,6.49,6.49,0,0,1-6.5-6.49H406A6.49,6.49,0,0,1,399.47,524.53Z"/></g><path class="cls-19" d="M423,601c-4.46-.66-9-.41-12.33,2.94-2.83,2.83-3.54,7-4,10.81-.19,1.75-.27,3.5-.38,5.25-.05.78-.12,1.56-.2,2.35a9,9,0,0,1-.3,1.84c-.07.32-.68,2.1-.3,1.2a8.46,8.46,0,0,1-.41.79c-.34.57.52-.5-.27.27.7-.69.2-.16-.08,0-.52.3.7-.17-.42.08,1-.21-.1,0-.31,0a2.85,2.85,0,0,1-1.06-.09c-5.08-.93-7.23,6.84-2.13,7.77,4.25.78,8.27.13,10.92-3.53,2.08-2.88,2.34-6.81,2.59-10.22.27-3.69.19-6.27,1.24-9.44.36-1.09-.35.68.13-.33a9.34,9.34,0,0,1,.5-.87c.56-.9-.53.58.18-.21s-.07,0,.46-.39c.14-.09,1.13-.52.26-.18a7.65,7.65,0,0,1,1.5-.37c-.76.13.71,0,.69,0a9,9,0,0,1,1.56.09c2.18.32,4.32-.52,4.95-2.82.53-1.93-.65-4.63-2.82-5Z"/><path class="cls-19" d="M448.78,605.34c6,8.21.34,27.34,14.32,30,5.08,1,7.23-6.8,2.13-7.77-2-.38-2.41-1-3.36-2.89s-1.4-5.07-1.79-7.47c-.84-5.29-1.08-11.45-4.35-15.94-3-4.16-10-.13-7,4.08Z"/><path class="cls-19" d="M478.77,557.65c1.34-1.06,4.09.53,5.23,1.18a17,17,0,0,1,5.43,4.76,11.55,11.55,0,0,1,1.75,4.74,9.21,9.21,0,0,1,.18,2.81c0-.63-.42.65,0-.1.2-.39.83-.95,1.35-.86-5.09-.85-7.25,6.92-2.13,7.77s8.21-1.82,8.85-6.75c.46-3.49-.94-7.52-2.4-10.63-1.82-3.85-5.95-7-9.56-9-4.76-2.67-10-3-14.41.45-1.72,1.36-1.38,4.3,0,5.7,1.71,1.68,4,1.33,5.7,0Z"/><path class="cls-19" d="M478.51,587.78V524.53A6.49,6.49,0,0,1,472,518h-7.58a6.5,6.5,0,0,1-13,0h-7.58a6.5,6.5,0,0,1-13,0h-7.58a6.5,6.5,0,0,1-13,0h-7.58a6.49,6.49,0,0,1-6.5,6.49v85h71.07l9.7-7.35Z"/><path class="cls-19" d="M407.85,550.22c-5.55-3.63-12.15-4.28-18-1-5.25,3-8.71,8.54-10.62,14.09-1.53,4.49-2.14,10.59.77,14.68a9.63,9.63,0,0,0,7.14,4,5.31,5.31,0,0,0,5.93-6.59c-.26-1.23-1.19-1.66-1.82-2.53-3-4.16-10-.13-6.95,4.08.63.87,1.38,1.54,2.05,2.36l-1.06-1.82c0,.12,0,.25.08.37,0-.7,0-1.4,0-2.1.1-.21.22-.42.32-.63l2.9-1.19c-.36,0-.71,0-1.07,0-1.07,0,.76.18-.23-.05-.24,0-1.06-.45-.14,0-1-.48.16.24-.3-.18-.19-.18-.68-.89-.07,0a6.29,6.29,0,0,1-.43-.75c.5,1,.07.13,0-.12a10.78,10.78,0,0,1-.29-1.25c.17.94,0-1,0-1.35a7.51,7.51,0,0,1,.21-2,20.07,20.07,0,0,1,1.64-5,15.23,15.23,0,0,1,6.73-7.45,8.22,8.22,0,0,1,3.89-.73,12.39,12.39,0,0,1,5.29,2.12c4.37,2.85,8.37-4.15,4-7Z"/><path d="M419.45,545.51a3.77,3.77,0,1,1-3.77-3.76A3.76,3.76,0,0,1,419.45,545.51Z"/><path class="cls-17" d="M417.65,544.53a1,1,0,1,1-1-1A1,1,0,0,1,417.65,544.53Z"/><path class="cls-17" d="M418.16,544.05c-.09.09-.38-.08-.66-.35s-.44-.58-.36-.66.38.07.66.35S418.24,544,418.16,544.05Z"/><path d="M458.21,545.51a3.77,3.77,0,1,1-3.76-3.76A3.76,3.76,0,0,1,458.21,545.51Z"/><path class="cls-17" d="M456.41,544.53a1,1,0,1,1-1-1A1,1,0,0,1,456.41,544.53Z"/><path class="cls-17" d="M456.92,544.05c-.09.09-.38-.08-.66-.35s-.44-.58-.36-.66.38.07.66.35S457,544,456.92,544.05Z"/><path d="M445.1,561.31c-1.57-1-5-1.21-8-1.28-4-.1-7.82-.1-11.79.13-3.27.19-5.11,1.47-4.31,2.46h0c-1.13,1.74,1.18,3.39,5.8,4.34a37.08,37.08,0,0,0,14.17-.11C445.86,565.63,448.11,563.17,445.1,561.31Z"/><g class="cls-16"><path class="cls-17" d="M394.29,549.57a20,20,0,0,0-10.41,9.67c-.69,1.57,1.62,2.94,2.32,1.36a17.38,17.38,0,0,1,8.81-8.44c1.59-.63.89-3.22-.72-2.59Z"/></g><g class="cls-16"><path class="cls-17" d="M485.12,557.06c4.24-.24,7.32,4,8.48,7.62.52,1.65,3.11.94,2.59-.71-1.51-4.76-5.59-9.91-11.07-9.6-1.72.1-1.73,2.79,0,2.69Z"/></g><g class="cls-20"><polygon points="476.99 602.18 478.51 587.77 467.3 609.52 476.99 602.18"/></g></g><g class="cls-28"><path class="cls-13" d="M594.39,499.78a6.5,6.5,0,0,1-6.5-6.5h-7.58a6.5,6.5,0,1,1-13,0h-7.58a6.5,6.5,0,1,1-13,0h-7.58a6.5,6.5,0,0,1-13,0H518.6a6.5,6.5,0,0,1-6.5,6.5l-16.24,47.09h82.28Z"/><g class="cls-14"><path d="M594.39,499.78a6.5,6.5,0,0,1-6.5-6.5h-7.58a6.5,6.5,0,1,1-13,0h-7.58a6.5,6.5,0,1,1-13,0h-7.58a6.5,6.5,0,0,1-13,0H518.6a6.5,6.5,0,0,1-6.5,6.5l-16.24,47.09h82.28Z"/></g><g class="cls-14"><path d="M594.39,499.78l-16.25,47.09H513.72V499.78a6.5,6.5,0,0,0,6.5-6.5h5.95a6.5,6.5,0,0,0,6.5,6.5,7,7,0,0,0,.81-.06,7.36,7.36,0,0,0,.81.06,6.5,6.5,0,0,0,6.5-6.5h6a6.5,6.5,0,0,0,6.49,6.5,7.36,7.36,0,0,0,.82-.06,7,7,0,0,0,.81.06,6.5,6.5,0,0,0,6.49-6.5h6a6.49,6.49,0,0,0,6.49,6.5,7.36,7.36,0,0,0,.82-.06,7,7,0,0,0,.81.06,6.49,6.49,0,0,0,6.49-6.5h6A6.5,6.5,0,0,0,594.39,499.78Z"/></g><path class="cls-19" d="M570.85,576.28c4.46-.66,9-.41,12.33,3,2.83,2.82,3.55,7,4,10.81.2,1.74.27,3.49.39,5.24.05.79.11,1.57.19,2.35a9.9,9.9,0,0,0,.31,1.84c.07.32.68,2.1.3,1.2a5.91,5.91,0,0,0,.41.79c.34.58-.52-.5.26.27-.7-.69-.2-.15.09,0,.52.3-.71-.17.41.09-1-.22.1,0,.32,0a2.6,2.6,0,0,0,1-.09c5.09-.93,7.24,6.84,2.13,7.78-4.24.77-8.26.12-10.91-3.54-2.08-2.87-2.34-6.81-2.59-10.22-.27-3.69-.19-6.27-1.24-9.44-.36-1.08.34.68-.14-.33-.14-.3-.32-.58-.49-.87-.57-.9.52.58-.19-.2s.08,0-.45-.4c-.14-.09-1.13-.51-.26-.18a8,8,0,0,0-1.5-.37c.76.13-.71,0-.69,0a11.81,11.81,0,0,0-1.57.09c-2.17.32-4.32-.52-5-2.82-.53-1.93.65-4.63,2.82-5Z"/><path class="cls-19" d="M545.08,580.58c-6,8.21-.34,27.34-14.32,30-5.08,1-7.23-6.81-2.13-7.78,2-.38,2.4-1,3.35-2.89s1.41-5.07,1.79-7.47c.85-5.28,1.09-11.45,4.36-15.94,3-4.15,10-.13,7,4.08Z"/><path class="cls-19" d="M515.08,532.89c-1.33-1.06-4.08.54-5.23,1.18a17,17,0,0,0-5.42,4.76,11.41,11.41,0,0,0-1.75,4.74,9,9,0,0,0-.18,2.81c0-.63.42.65,0-.1a1.64,1.64,0,0,0-1.35-.86c5.09-.85,7.25,6.92,2.13,7.78s-8.22-1.83-8.86-6.76c-.45-3.48.94-7.52,2.41-10.63,1.82-3.85,5.95-7,9.56-9,4.75-2.67,10-3,14.4.45,1.73,1.37,1.39,4.3,0,5.7-1.7,1.68-4,1.33-5.7,0Z"/><path class="cls-19" d="M515.35,563V499.78a6.5,6.5,0,0,0,6.49-6.5h7.59a6.5,6.5,0,1,0,13,0H550a6.5,6.5,0,0,0,13,0h7.58a6.5,6.5,0,1,0,13,0h7.58a6.49,6.49,0,0,0,6.49,6.5v85H526.56l-9.69-7.35Z"/><path class="cls-19" d="M586,525.46c5.56-3.63,12.15-4.28,18-1,5.25,3,8.71,8.54,10.61,14.09,1.54,4.49,2.15,10.59-.77,14.69a9.61,9.61,0,0,1-7.13,4,5.3,5.3,0,0,1-5.93-6.59c.26-1.22,1.19-1.66,1.82-2.52,3-4.17,10-.14,6.95,4.08-.63.86-1.38,1.54-2,2.35l1.06-1.82c0,.12-.06.25-.08.38,0-.71,0-1.41,0-2.11l-.33-.62-2.89-1.2c.35,0,.71,0,1.06,0,1.08,0-.75.18.23,0,.25-.06,1.06-.46.14,0,1-.47-.15.24.3-.18.2-.17.69-.89.08,0a6.86,6.86,0,0,0,.42-.75c-.49,1-.06.14,0-.12a9.21,9.21,0,0,0,.28-1.24c-.16.94,0-1,0-1.36a7.38,7.38,0,0,0-.21-2,20,20,0,0,0-1.64-5,15.2,15.2,0,0,0-6.74-7.45,8.27,8.27,0,0,0-3.88-.73,12.37,12.37,0,0,0-5.3,2.13c-4.36,2.84-8.36-4.15-4-7Z"/><path d="M574.41,520.75a3.76,3.76,0,1,0,3.76-3.76A3.76,3.76,0,0,0,574.41,520.75Z"/><path class="cls-17" d="M576.21,519.77a1,1,0,1,0,1-1A1,1,0,0,0,576.21,519.77Z"/><path class="cls-17" d="M575.7,519.29c.08.09.38-.07.66-.35s.44-.58.36-.66-.38.07-.66.36S575.62,519.21,575.7,519.29Z"/><path d="M535.65,520.75a3.76,3.76,0,1,0,3.76-3.76A3.76,3.76,0,0,0,535.65,520.75Z"/><path class="cls-17" d="M537.45,519.77a1,1,0,1,0,1-1A1,1,0,0,0,537.45,519.77Z"/><path class="cls-17" d="M536.94,519.29c.08.09.38-.07.66-.35s.44-.58.35-.66-.37.07-.66.36S536.86,519.21,536.94,519.29Z"/><path d="M556.12,536.55a3.4,3.4,0,0,1,2.87-1.28,18.14,18.14,0,0,1,4.23.13,2,2,0,0,1,1.55,2.46h0a3.94,3.94,0,0,1-2.09,4.35,5.11,5.11,0,0,1-5.09-.12A4.35,4.35,0,0,1,556.12,536.55Z"/><g class="cls-16"><path class="cls-17" d="M599.56,524.81A20,20,0,0,1,610,534.48c.69,1.57-1.62,2.94-2.32,1.36a17.42,17.42,0,0,0-8.81-8.44c-1.59-.62-.9-3.22.71-2.59Z"/></g><g class="cls-16"><path class="cls-17" d="M508.73,532.3c-4.23-.24-7.32,4-8.47,7.62-.52,1.65-3.12.94-2.59-.71,1.51-4.76,5.59-9.9,11.06-9.59,1.72.09,1.73,2.78,0,2.68Z"/></g><g class="cls-20"><polygon points="516.87 577.42 515.35 563.02 526.56 584.77 516.87 577.42"/></g></g></g></g></svg>