<svg xmlns="http://www.w3.org/2000/svg" xmlns:xlink="http://www.w3.org/1999/xlink" viewBox="0 0 860 860"><defs><style>.cls-1{fill:none;}.cls-2{isolation:isolate;}.cls-3{fill:#f6f4e3;}.cls-27,.cls-4{fill:#2971ff;}.cls-16,.cls-5{fill:#fbf4a2;}.cls-5{stroke:#f9a62b;stroke-width:5.77px;}.cls-6,.cls-7{fill:#ddd6b5;}.cls-14,.cls-7,.cls-8{mix-blend-mode:multiply;}.cls-8{opacity:0.39;}.cls-9{fill:#e4c438;}.cls-10{opacity:0.21;}.cls-11{fill:#fff;}.cls-12{clip-path:url(#clip-path);}.cls-13{fill:#2ed6a1;}.cls-14{opacity:0.2;}.cls-15{font-size:21.04px;fill:#0c1e3e;font-family:ComicSansMS-Bold, Comic Sans MS;}.cls-15,.cls-16{font-weight:700;}.cls-16{font-size:34px;font-family:SourceSansPro-Bold, Source Sans Pro;}.cls-17{letter-spacing:-0.01em;}.cls-18{letter-spacing:-0.02em;}.cls-19{letter-spacing:-0.01em;}.cls-20{letter-spacing:-0.03em;}.cls-21{letter-spacing:-0.02em;}.cls-22{letter-spacing:-0.02em;}.cls-23{letter-spacing:-0.03em;}.cls-24{letter-spacing:-0.02em;}.cls-25{letter-spacing:-0.01em;}.cls-26{letter-spacing:-0.03em;}.cls-27{font-size:30px;font-family:SourceSansPro-Black, Source Sans Pro;}.cls-28{letter-spacing:-0.01em;}.cls-29{letter-spacing:-0.03em;}.cls-30{letter-spacing:-0.01em;}.cls-31{letter-spacing:-0.01em;}.cls-32{letter-spacing:-0.03em;}.cls-33{letter-spacing:-0.02em;}.cls-34{letter-spacing:0em;}.cls-35{fill:#0d1f3e;}.cls-36{fill:#6dceef;}</style><clipPath id="clip-path"><path class="cls-1" d="M492.73,654.43c-41.9,0-75.86-12.74-75.86-28.46,0-7.85-83.51-96.76-69.78-101.91s128-60.88,148.94-60.22C651.61,468.74,631.86,621.43,645.31,626c15.41,5.21-76.73-8.4-76.73,0C568.58,641.69,534.62,654.43,492.73,654.43Z"/></clipPath></defs><title>Artboard 14 copy 3</title><g class="cls-2"><g id="Layer_1" data-name="Layer 1"><rect class="cls-3" width="860" height="860"/><rect class="cls-4" width="860" height="327.98"/><rect class="cls-5" x="37.32" y="50.92" width="275.08" height="66.33"/><path class="cls-4" d="M621.68,415c-.18,3.61-.19,8,2.07,11.06,2.71,3.67,7.22,3.34,11,1.75a2.54,2.54,0,0,0,1.76-3,2.49,2.49,0,0,0-3-1.77,10.29,10.29,0,0,1-4.16,1,1.87,1.87,0,0,1-1.62-.95c-1.4-2.1-1.18-5.51-1.06-8,.15-3.22-4.83-3.24-5,0Z"/><path class="cls-4" d="M638,416.84a28.48,28.48,0,0,0-.51,6.45c0,3.22,5,3.25,5,0a24.27,24.27,0,0,1,.33-5.18c.72-3.13-4.09-4.45-4.8-1.31Z"/><path class="cls-4" d="M653.28,413.76c-9.69-.89-10.12,13.05-3.19,17,3.65,2.07,8.73.95,10.27-3.19s-2.39-7.09-6.25-6.73a2.54,2.54,0,0,0-2.5,2.47,2.48,2.48,0,0,0,2.47,2.51,7.3,7.3,0,0,1,1.39,0c.34.07.38.21.22,0,.19.27,0-.26,0,.07,0-.52,0,.05-.06.19.14-.48-.1.13-.15.22.11-.18-.24.22-.31.26a2.4,2.4,0,0,1-.82.28,3.56,3.56,0,0,1-2.47-.84,5.73,5.73,0,0,1-1.63-4.79,3.11,3.11,0,0,1,.93-2.05,3,3,0,0,1,2.07-.37c3.2.29,3.2-4.7,0-5Z"/><path class="cls-4" d="M660.33,415.81c0,3.19.39,6.37.42,9.56s4.92,3.25,5,0a5,5,0,0,1,.35-2,1.74,1.74,0,0,1,.82-.76c.55-.32.11-.08.46-.21s.6-.19.91-.28c.67-.18,1.35-.33,2-.53,4.1-1.21,5.08-4.69,4.09-8.57-.58-2.26-4.43-2.55-4.81,0-.79,5.12-.12,10.08.32,15.19.28,3.18,5.26,3.23,5,0-.4-4.61-1.21-9.3-.51-13.91h-4.8a9.06,9.06,0,0,1,.25,1.15c0,.13,0,1.09,0,.72-.07.4.16-.12-.16.4.11-.18.22-.23.05-.12-.58.38.07,0-.32.18a8.16,8.16,0,0,1-.84.26c-.61.17-1.22.31-1.82.47-3.87,1.07-5.92,3.91-6,7.91l5,0c0-3.19-.39-6.37-.41-9.56s-5-3.25-5,0Z"/><path class="cls-4" d="M679.68,417c3.73-.76,7.61-.35,11.39-.33,3.22,0,3.25-5,0-5-4.26,0-8.51-.36-12.72.5-3.15.64-1.84,5.45,1.29,4.81Z"/><path class="cls-4" d="M680.37,414.81A51.14,51.14,0,0,1,682,425.37c0,3.22,5,3.25,5,0a58.35,58.35,0,0,0-1.75-11.89c-.69-3.14-5.5-1.83-4.81,1.29Z"/><path class="cls-4" d="M695.25,414.15a30.82,30.82,0,0,0,.92,10.64c.69,2.86,4.67,2.06,4.89-.63.3-3.57-1.16-6.87-1.24-10.39l-3.74,2.14a22.18,22.18,0,0,1,9.49,8.25c1.14,1.68,4,1.64,4.55-.6a31.49,31.49,0,0,0,.09-11,2.57,2.57,0,0,0-2.48-2.51,2.5,2.5,0,0,0-2.5,2.48c.39,3.22.81,6.55.08,9.75l4.56-.6c-2.85-4.18-6.57-8.06-11.3-10.05-1.62-.68-3.79.08-3.74,2.14.09,3.53,1.55,6.86,1.25,10.4l4.9-.63a26.57,26.57,0,0,1-.75-9.31,2.49,2.49,0,0,0-2.47-2.51,2.54,2.54,0,0,0-2.51,2.47Z"/><path class="cls-4" d="M714,413.15c.76,3.44.1,7,1.25,10.39,1,3,5.84,1.76,4.81-1.29-1.13-3.34-.49-7-1.25-10.39-.7-3.14-5.5-1.84-4.81,1.29Z"/><path class="cls-4" d="M727.67,426.24c0-4.7-.95-9.81.74-14.32-1.52.19-3,.4-4.55.6,2.57,3.38,5.51,6.46,7.9,10,1.13,1.68,4,1.64,4.55-.6.8-3.52.53-7,.5-10.62,0-3.21-5-3.24-5,0s.37,6.27-.33,9.34l4.55-.61c-2.39-3.52-5.33-6.59-7.9-10a2.52,2.52,0,0,0-4.55.6c-1.84,4.94-1,10.47-.92,15.6,0,3.22,5,3.25,5,0Z"/><path class="cls-4" d="M748.47,407.93c-11.5-.4-11.76,17.93-1.68,20.62,8.71,2.31,12-13.85,2.51-13.55-3.21.1-3.24,5.08,0,5,0,0,.87,0,.38,0,.1,0,.74.27.24,0,.56.26-.31-.33.14.07.26.25-.15-.29.15.29-.19-.37,0,.47,0,.33a3.64,3.64,0,0,1,0,.66c0-.5-.09.38-.12.49a3.21,3.21,0,0,1-1.17,1.79c.41-.35-.15.05-.22.09.48-.27-.08,0-.21,0,.51-.13-.12,0-.25,0-.29,0-.1,0-.6-.16-4.3-1.42-4.55-10.87.83-10.67,3.22.11,3.24-4.87,0-5Z"/><path class="cls-4" d="M639.13,449.52c0-4-.49-8.26.33-12.25L636.4,439c1.93.51,3.39,2.17,4.67,3.61a39,39,0,0,1,3.81,5.23,2.52,2.52,0,0,0,4.55-.6,35.32,35.32,0,0,0,1.34-9c0-3.22-4.95-3.24-5,0a30.17,30.17,0,0,1-1.16,7.67l4.55-.6c-2.67-4.24-6.31-9.77-11.47-11.12a2.5,2.5,0,0,0-3.06,1.75c-.91,4.45-.52,9-.5,13.52,0,3.22,5,3.25,5,0Z"/><path class="cls-4" d="M653.77,438.09c.65,3.05.31,6.38,1.63,9.26,1.58,3.45,6.3,3.5,9.49,3.39s3.24-5.09,0-5a13.66,13.66,0,0,1-4.64-.35s-.47-.33-.42-.28c-.45-.44.25.41-.07-.13-.13-.25-.13-.23,0,.07,0-.13-.09-.27-.13-.41a12.09,12.09,0,0,1-.39-3,38.46,38.46,0,0,0-.69-4.88c-.67-3.15-5.48-1.84-4.81,1.29Z"/><path class="cls-4" d="M657.4,443.67h3.33a2.49,2.49,0,1,0,0-5h-3.32a2.49,2.49,0,0,0,0,5Z"/><path class="cls-4" d="M658.27,438.76a8.94,8.94,0,0,1,5-1.74c3.21-.07,3.25-5,0-5a13.66,13.66,0,0,0-7.52,2.42,2.54,2.54,0,0,0-.88,3.41,2.5,2.5,0,0,0,3.41.89Z"/><path class="cls-4" d="M669.46,439.1c3.46-.43,6.93-.81,10.39-1.24a2.56,2.56,0,0,0,2.51-2.48,2.51,2.51,0,0,0-2.48-2.51c-3.46.43-6.92.82-10.39,1.25a2.56,2.56,0,0,0-2.51,2.47,2.5,2.5,0,0,0,2.48,2.51Z"/><path class="cls-4" d="M671.56,436.59v9.57c0,3.21,5,3.24,5,0v-9.56c0-3.22-5-3.25-5,0Z"/><path class="cls-4" d="M682.71,438.7c1,1.9,1.93,3.86,2.89,5.8a8.56,8.56,0,0,0,2.79,3.68c3.82,2.37,6.69-2.63,8.18-5.34l-3.91.53c2,2.08,3.72,4.38,6.33,5.79a2.51,2.51,0,0,0,3.65-1.5c.75-4.14.17-8.47,1.66-12.47,1.12-3-3.69-4.3-4.81-1.31-1.5,4.05-.9,8.29-1.66,12.47l3.65-1.5c-2.19-1.19-3.61-3.27-5.31-5a2.51,2.51,0,0,0-3.91.53,14.84,14.84,0,0,1-2.42,3.58c.17-.13.14-.12-.09,0a1.4,1.4,0,0,1,1.29,0c.32.16-.09-.11-.19-.25-1.57-2.31-2.51-5.08-3.85-7.53-1.54-2.81-5.84-.29-4.29,2.52Z"/><path class="cls-4" d="M706.47,436.59a16.6,16.6,0,0,0,3.64,9.9c2.77,3.43,7.5,2.79,10-.6,4.84-6.62-3.63-17.51-11.14-13.5-2.83,1.51-.31,5.8,2.52,4.29s6.52,4.05,4.45,6.49a3.26,3.26,0,0,1-1,.73c-.23.12,0,0-.3,0,0,0-.43-.3-.58-.44a5.1,5.1,0,0,1-.81-1,11.82,11.82,0,0,1-1.78-5.74c-.05-3.21-5-3.25-5,0Z"/><path class="cls-4" d="M721.52,434.35c.78,3.78,1.94,7.5,2,11.39,0,2.75,4.32,3.52,4.9.68a23,23,0,0,0,0-5.68c-.06-1.15-.1-2.3-.08-3.46,0-.35,0-1.13,0-1.27s.07-.34.11-.5c.13-.56,0,.05-.08.13.2-.17.47-.1.33-.15a1.76,1.76,0,0,1,1,1,1.24,1.24,0,0,1,.16.91c.06-.24-.1.16,0,.11a2.92,2.92,0,0,1-1.22.46c-2.82.61-2.12,4.82.62,4.89s4.56,1.88,5.77,4.18c1.5,2.84,5.79.31,4.3-2.52a11.74,11.74,0,0,0-10-6.64l.63,4.9c3.25-.71,5.47-3.4,4.84-6.79a6.66,6.66,0,0,0-5.94-5.41,5.78,5.78,0,0,0-4.23,1.81c-1.07,1-1.18,2.84-1.26,4.18a42.7,42.7,0,0,0,.1,4.93c0,.82.08,1.63.11,2.45v.84c0,.18-.15,1.09,0,.33l4.9.68c-.07-4.35-1.3-8.5-2.17-12.72-.65-3.15-5.45-1.84-4.81,1.29Z"/><path class="cls-4" d="M739.81,437.67a89.28,89.28,0,0,1,2.08,10c.29,2.21,3.62,2.37,4.56.6,1.8-3.39,2.07-8.32,5.34-10.74l-3.66-2.8c-.6,1.82-2.18,3.2-3,4.92-.92,1.87-1,4.34.71,5.84,1.34,1.22,3.3,1.7,5,2.22.87.26,1.74.52,2.6.8a8.58,8.58,0,0,1,1,.38c.14.06.9.61.58.32,2.38,2.14,5.9-1.39,3.51-3.54s-5.71-2.46-8.51-3.46a2.63,2.63,0,0,1-.56-.25c-.08,0-.67-.51-.28-.15,1.3,1.17.24.57.27.42a3.59,3.59,0,0,1,.57-1.14c1-1.7,2.28-3.12,2.92-5s-1.89-4.12-3.66-2.81a13.81,13.81,0,0,0-4.71,6.17,67.85,67.85,0,0,1-2.42,6.37l4.56.6a89.28,89.28,0,0,0-2.08-10c-.78-3.12-5.59-1.82-4.81,1.29Z"/><path class="cls-4" d="M760.59,447.23a6.36,6.36,0,0,1-.16,5.18c-1.56,2.81,2.75,5.3,4.31,2.49a11.15,11.15,0,0,0,.66-9c-.95-3.05-5.76-1.78-4.81,1.29Z"/><path class="cls-4" d="M659.05,463.35a56.91,56.91,0,0,0,1.78,19.22c1.1,4.15,7.53,2.42,6.43-1.73a51,51,0,0,1-1.55-17.44c.36-4.29-6.31-4.3-6.66,0Z"/><path class="cls-4" d="M662.36,464.48a14.11,14.11,0,0,1,5.88.65,9.15,9.15,0,0,1,1.88,1c.87.57-.38-.35.35.3.13.11.89,1,.44.42a4.6,4.6,0,0,1,.39.68c-.13-.25-.14-.57-.13-.33,0,.74.19-.69,0,0,.09-.3.26-.49,0-.26.51-.52-.13.05-.28.14a2.66,2.66,0,0,1-.89.32,13.69,13.69,0,0,1-3.72.4c-4.3.05-4.34,6.71,0,6.66,3.28,0,6.88-.43,9.46-2.66a6.14,6.14,0,0,0,1.78-6.6c-2.07-5.85-9.54-7.85-15.08-7.4-4.26.34-4.33,7,0,6.66Z"/><path class="cls-4" d="M679.05,462.79c-.23,5.67-.46,12.42,2.82,17.36,3.82,5.78,11,5.42,16.93,3.66,4.11-1.22,2.4-7.65-1.72-6.43-2.09.62-4.52,1.29-6.66.94a4.08,4.08,0,0,1-3.2-2.16c-2.1-3.46-1.68-9.15-1.51-13.32s-6.48-4.32-6.66,0Z"/><path class="cls-4" d="M699.58,463.92a56.14,56.14,0,0,1,7.92.35,10.87,10.87,0,0,1,1.26.27c.88.24,0-.05.41.14.81.42-.19-.23.14.1-.19-.19-.47-1.06-.31-.36-.23-1,0-.2,0,.14s.12-.54-.08.39a22.88,22.88,0,0,1-.86,2.78c-.89,2.52-1.87,5-2.73,7.54a3.38,3.38,0,0,0,2.34,4.09c4.76,1.79,9.71.12,14.52-.55,1.8-.25,2.78-2.49,2.35-4.08-.51-1.92-2.28-2.6-4.08-2.35-3.64.5-7.44,1.91-11,.56l2.33,4.09c1-2.87,2.11-5.68,3.07-8.55.65-1.93,1.2-4.15.55-6.15-1.89-5.9-10.94-5.06-15.7-5.07-4.3,0-4.34,6.66,0,6.66Z"/><path class="cls-4" d="M726.83,457.79c.6,6.61,1.18,13.24,2.34,19.78.75,4.23,7.18,2.47,6.43-1.73-1.05-5.95-1.56-12-2.11-18-.38-4.24-7-4.32-6.66,0Z"/><path class="cls-4" d="M732.36,488.37c4.3,0,4.34-6.66,0-6.66s-4.34,6.66,0,6.66Z"/><path class="cls-4" d="M577.36,497.46c6.46,0,6.51-10,.07-10s-6.5,10-.07,10Z"/><path class="cls-4" d="M588.24,488.45a19.48,19.48,0,0,0,8.3,1.5c4.49,0,5.86-4.69,5.87-8.29a5,5,0,1,0-10-.07c0,.51,0,1,0,1.53a2.32,2.32,0,0,1,.39-1.36c-.25.43-.17.33.26-.32l3.59-1.48c-.76,0-1.53,0-2.29,0-.18,0-1.54-.21-.38,0-.29-.05-1.85-.61-.7-.09-2.48-1.12-5.37-.71-6.83,1.83-1.26,2.18-.65,5.69,1.83,6.82Z"/><path class="cls-4" d="M611.55,480.78c3.8.19,8.39-.91,10.23-4.64a10,10,0,0,0-.87-9.85,12.78,12.78,0,0,0-7.43-5.67,9.12,9.12,0,0,0-10.12,4.59,15.7,15.7,0,0,0-1.6,4.25,5,5,0,0,0,9.64,2.64q.12-.53.27-1.05c.14-.45.73-1.87,0-.09.13-.3.29-.6.45-.89.08-.13.16-.26.25-.39.41-.6-.88,1.12-.43.57a5.1,5.1,0,0,1,.46-.47c.51-.46-1.19.89-.64.49l.3-.18c1-.55-1.37.48-.52.21l.32-.07c.65-.14-1.57.17-.9.11a3.25,3.25,0,0,1,.54,0c.88.05-1.57-.3-.52-.06.22.06.43.13.64.21-1.84-.7-.88-.38-.43-.14l.51.32c.94.62-1-.85-.33-.26a8.93,8.93,0,0,1,1.07,1.06c.62.72-.89-1.19-.33-.42a7.4,7.4,0,0,1,.41.62c.12.2.23.42.34.64.41.84-.57-1.53-.2-.47.06.18.11.36.16.54s.05.22.07.33c.12.66-.18-1.57-.12-.9a4.42,4.42,0,0,1,0,.63c0,.39.34-1.64.06-.59s.52-1.12.27-.62a2.2,2.2,0,0,1-.15.26c-.34.54.94-1.17.52-.68s-1.16.91.45-.28a4.29,4.29,0,0,1-.63.36c-.51.25,1.59-.57.47-.23a7.18,7.18,0,0,1-.92.2c2-.33.58-.07.06-.05s-.84,0-1.26,0a5,5,0,0,0-.07,10Z"/><polygon class="cls-6" points="632.99 726.53 164.65 726.53 354.27 518.5 776.8 518.5 632.99 726.53"/><polygon class="cls-7" points="608.44 716.75 195.57 716.75 367.37 528.27 745.88 528.27 608.44 716.75"/><polygon class="cls-7" points="367.37 528.27 367.37 716.75 195.57 716.75 367.37 528.27"/><polygon class="cls-4" points="217.9 716.75 367.37 548.56 731.09 548.56 608.44 716.75 217.9 716.75"/><path class="cls-8" d="M492.73,574.56c-73.14,0-132.42,26.42-132.42,59s59.28,59,132.42,59,132.41-26.43,132.41-59S565.86,574.56,492.73,574.56Zm0,87.47c-41.9,0-75.86-12.74-75.86-28.45s34-28.46,75.86-28.46,75.85,12.74,75.85,28.46S534.62,662,492.73,662Z"/><path class="cls-9" d="M492.73,568.59c-73.14,0-132.42,26.43-132.42,59s59.28,59,132.42,59,132.41-26.42,132.41-59S565.86,568.59,492.73,568.59Zm0,87.48c-41.9,0-75.86-12.74-75.86-28.46s34-28.45,75.86-28.45,75.85,12.74,75.85,28.45S534.62,656.07,492.73,656.07Z"/><g class="cls-10"><path class="cls-11" d="M396.47,602.8c-16.39,2.37-27.89,14.43-25.53,31.41.42,3,5.05,1.76,4.63-1.27-2-14.53,8.76-23.56,22.18-25.5,3.05-.44,1.75-5.07-1.28-4.64Z"/></g><g class="cls-10"><path class="cls-11" d="M602.37,623.65c1.07,11.54-7.37,20.76-16.25,26.93A79.78,79.78,0,0,1,550.65,664c-3,.37-3.07,5.18,0,4.81,14.35-1.77,28.58-7,40.16-15.75,9.25-7,17.5-17.17,16.37-29.43-.29-3.06-5.09-3.09-4.81,0Z"/></g><g class="cls-12"><path class="cls-4" d="M423,520.47a11.76,11.76,0,0,0,11.75-11.76h13.72a11.76,11.76,0,0,0,23.52,0h13.72a11.76,11.76,0,1,0,23.51,0H523a11.76,11.76,0,0,0,23.52,0h13.71A11.77,11.77,0,0,0,572,520.47l29.4,85.24H452.43Z"/><path class="cls-8" d="M423,520.47a11.76,11.76,0,0,0,11.75-11.76h13.72a11.76,11.76,0,0,0,23.52,0h13.72a11.76,11.76,0,1,0,23.51,0H523a11.76,11.76,0,0,0,23.52,0h13.71A11.77,11.77,0,0,0,572,520.47l29.4,85.24H452.43Z"/><path class="cls-8" d="M423,520.47l29.39,85.24H569V520.47a11.77,11.77,0,0,1-11.76-11.76H546.5a13.31,13.31,0,0,1-26.46,0H509.26a11.76,11.76,0,0,1-11.76,11.76,12.1,12.1,0,0,1-1.47-.1,11.69,11.69,0,0,1-13.22-11.66H472a13.31,13.31,0,0,1-26.46,0H434.79A11.76,11.76,0,0,1,423,520.47Z"/><path class="cls-13" d="M465.6,659c-8.08-1.19-16.54-.76-22.48,5.59-4.82,5.15-6.16,12.33-6.89,19.08-.65,5.94-.59,12.84-1.63,17.29-.16.69-1.29,3.69-.6,2.29a10.43,10.43,0,0,1-.94,1.66c.49-.64.25.32-.43.31.76,0,.73-.9-.26,0,.89-.82.67-.16-.35,0,1.69-.24-.24,0-.64,0a9.77,9.77,0,0,1-2-.17c-9.08-1.65-12.94,12.24-3.81,13.91,7.58,1.38,15.3.25,19.85-6.62,3.48-5.26,4-11.94,4.48-18.05.48-6.57.26-11.59,2.27-17.29a6.3,6.3,0,0,1,2.6-3.44c1.38-.73-1.09.25.63-.31a12.94,12.94,0,0,1,2.11-.5,40.54,40.54,0,0,1,4.32.16c3.87.57,7.69-1,8.85-5,1-3.4-1.2-8.29-5-8.86Z"/><path class="cls-13" d="M512.35,666.68c11,15.1.56,49.43,25.87,54.26,9.08,1.73,12.93-12.17,3.81-13.91-3.49-.67-4.8-2.11-6.33-5.73-1.72-4.07-2.43-9.2-3.13-13.7-1.47-9.37-2-20.26-7.78-28.22-5.4-7.42-17.91-.22-12.44,7.3Z"/><path class="cls-13" d="M566.51,580.34c2.62-2.06,7.94,1.13,10.13,2.46a30.06,30.06,0,0,1,9.51,8.65c1.58,2.4,2.34,4.84,3,8.6.25,1.33-.11,3.12.29,4.43,0,0-.44.15,0,0,.63-.15,1.37-1.51,2.25-1.36-9.08-1.51-13,12.38-3.81,13.9,19.34,3.22,17.68-20,11.46-31.57-7.61-14.16-28.76-26.62-43.12-15.29-3.08,2.42-2.44,7.67.06,10.19,3,3,7.15,2.34,10.19-.06Z"/><path class="cls-13" d="M566.09,634.94V520.47a11.77,11.77,0,0,1-11.76-11.76H540.62a11.76,11.76,0,0,1-23.52,0H503.38a11.76,11.76,0,1,1-23.51,0H466.15a11.76,11.76,0,0,1-23.52,0H428.92a11.77,11.77,0,0,1-11.76,11.76V674.3H545.8L563.35,661Z"/><path class="cls-13" d="M415.69,571.81a17.81,17.81,0,0,1-9.67-1,14.42,14.42,0,0,1-5.93-4.76c.8,1-.73-1.19-.87-1.41-.37-.61-.7-1.24-1-1.88a14.34,14.34,0,0,1-1.37-3.62,28,28,0,0,1-1.41-9.11c-.12-6.24,1-11.62,3.63-16.14.15-.26,1.28-1.74.18-.38.45-.56.93-1.06,1.43-1.57,1.05-1.05-1,1,.1-.1.23-.22,2.28-1.76.36-.33a2.86,2.86,0,0,1,1.37-.36c-2.49-.4.15.08.27.14s-1-.49.47.18c.92.43-.69-.43,1,.5l-3.36-4.38c-.38-1.58,6.64-5.72,2.73-5.07a10.2,10.2,0,0,0-3.06,1.39c-8.05,4.6-.78,17.05,7.29,12.43,2.29-1.3,4.81-1.67,6.41-4.5,2.08-3.68,1.27-9.16-2.07-11.8a17,17,0,0,0-11-3.14c-7.5.45-13.15,6.21-16.13,12.72-6.71,14.71-5.47,34.77,5.39,47.22,7.41,8.49,18.35,10.41,29,8.88,3.88-.55,6-5.38,5.09-8.82-1.06-4.15-5-5.65-8.82-5.1Z"/><path d="M459.19,558.43a6.81,6.81,0,1,1-6.81-6.81A6.81,6.81,0,0,1,459.19,558.43Z"/><path class="cls-11" d="M455.94,556.65a1.78,1.78,0,1,1-1.78-1.77A1.78,1.78,0,0,1,455.94,556.65Z"/><path class="cls-11" d="M456.86,555.8c-.15.15-.69-.14-1.2-.65s-.79-1-.64-1.19.68.13,1.19.64S457,555.65,456.86,555.8Z"/><path d="M529.35,558.43a6.81,6.81,0,1,1-6.81-6.81A6.81,6.81,0,0,1,529.35,558.43Z"/><path class="cls-11" d="M526.09,556.65a1.78,1.78,0,1,1-1.77-1.77A1.77,1.77,0,0,1,526.09,556.65Z"/><path class="cls-11" d="M527,555.8c-.15.15-.68-.14-1.19-.65s-.8-1-.65-1.19.69.13,1.2.64S527.16,555.65,527,555.8Z"/><path d="M505.63,587c-2.85-1.76-9-2.18-14.45-2.32-7.23-.18-14.16-.18-21.33.24-5.93.35-9.26,2.66-7.81,4.45l0,0c-2,3.15,2.14,6.14,10.52,7.87,7.37,1.51,18.63,1.56,25.64-.22C507,594.85,511.06,590.39,505.63,587Z"/><g class="cls-10"><path class="cls-11" d="M398.73,573.15c-4.83-5.15-8.22-13.43-8.12-20.51.05-3.09-4.76-3.1-4.8,0-.12,8.35,3.84,17.85,9.52,23.91,2.12,2.26,5.51-1.14,3.4-3.4Z"/></g><g class="cls-10"><path class="cls-11" d="M578.07,579.31c7.67-.43,13.27,7.2,15.36,13.81.93,2.94,5.57,1.69,4.64-1.27-2.73-8.6-10.11-17.9-20-17.35-3.08.18-3.1,5,0,4.81Z"/></g><polygon class="cls-14" points="563.35 661.01 566.09 634.94 545.8 674.3 563.35 661.01"/></g><text class="cls-15" transform="translate(71.82 91.01)">256 blocks later...</text><text class="cls-16" transform="translate(172.44 188.53)"><tspan class="cls-17">A</tspan><tspan class="cls-18" x="19.14" y="0">ft</tspan><tspan x="41.92" y="0">er </tspan><tspan class="cls-19" x="79.87" y="0">y</tspan><tspan x="97.31" y="0">our tic</tspan><tspan class="cls-20" x="194.1" y="0">k</tspan><tspan class="cls-17" x="211.78" y="0">e</tspan><tspan x="229.05" y="0">t m</tspan><tspan class="cls-21" x="278.01" y="0">a</tspan><tspan x="295.32" y="0">tu</tspan><tspan class="cls-17" x="327.65" y="0">r</tspan><tspan x="340.85" y="0">es, it en</tspan><tspan class="cls-22" x="456.78" y="0">t</tspan><tspan x="469.19" y="0">e</tspan><tspan class="cls-19" x="486.81" y="0">r</tspan><tspan x="500.07" y="0">s </tspan><tspan x="-41.7" y="40.8">the Tic</tspan><tspan class="cls-23" x="59.31" y="40.8">k</tspan><tspan class="cls-17" x="76.99" y="40.8">e</tspan><tspan x="94.26" y="40.8">t </tspan><tspan class="cls-24" x="114.09" y="40.8">P</tspan><tspan x="133.64" y="40.8">ool and is eligible </tspan><tspan class="cls-17" x="400.67" y="40.8">f</tspan><tspan x="411.92" y="40.8">or </tspan><tspan class="cls-25" x="451.12" y="40.8">v</tspan><tspan class="cls-26" x="468.63" y="40.8">o</tspan><tspan x="486.62" y="40.8">ting.</tspan></text><text class="cls-27" transform="translate(163.56 798.47)">50% <tspan class="cls-28" x="64.5" y="0">o</tspan><tspan x="81.12" y="0">f the tic</tspan><tspan class="cls-29" x="183.96" y="0">k</tspan><tspan class="cls-30" x="200.04" y="0">et</tspan><tspan x="227.22" y="0">s a</tspan><tspan class="cls-30" x="262.86" y="0">r</tspan><tspan x="275.1" y="0">e </tspan><tspan class="cls-31" x="296.88" y="0">v</tspan><tspan class="cls-32" x="312.9" y="0">o</tspan><tspan class="cls-33" x="328.8" y="0">t</tspan><tspan class="cls-34" x="340.2" y="0">ed in 28 days.</tspan></text><path class="cls-35" d="M470.74,573.86H440.85a11.64,11.64,0,0,1,0-23.27h29.89a11.64,11.64,0,0,1,0,23.27"/><path class="cls-35" d="M537.34,573.86H507.45a11.64,11.64,0,0,1,0-23.27h29.89a11.64,11.64,0,0,1,0,23.27"/><path class="cls-35" d="M479.43,564.17a23.84,23.84,0,0,1,20.7,1c2.76,1.47,5.21-2.72,2.45-4.2a28.52,28.52,0,0,0-24.44-1.48c-2.87,1.15-1.62,5.86,1.29,4.69"/><path class="cls-35" d="M435.06,563.7c1.62-11.26-11.34-16.81-19.67-10.21-2.45,2,1,5.37,3.44,3.44,4.36-3.46,12.45-.84,11.54,5.48-.44,3.06,4.24,4.38,4.69,1.29"/><path class="cls-35" d="M548.88,561.61c3.43-2.55,13.67-8.85,17.84-4.86,2.27,2.16,5.71-1.27,3.44-3.44-6.28-6-18-.13-23.73,4.11-2.49,1.84-.06,6.07,2.45,4.19"/><polygon class="cls-36" points="452.47 572.76 439.83 572.76 449.55 551.69 462.19 551.69 452.47 572.76"/><polygon class="cls-36" points="520.53 572.76 507.89 572.76 517.61 551.69 530.25 551.69 520.53 572.76"/></g></g></svg>