<svg xmlns="http://www.w3.org/2000/svg" viewBox="0 0 860 860"><defs><style>.cls-1{isolation:isolate;}.cls-2{fill:#0c1e3e;}.cls-3{fill:#2971ff;}.cls-4{opacity:0.39;}.cls-4,.cls-8{mix-blend-mode:multiply;}.cls-5{fill:#2ed6a1;}.cls-6{fill:#fff;}.cls-7{opacity:0.21;}.cls-8{opacity:0.2;}.cls-9{fill:#fbf4a2;}.cls-10,.cls-16{font-size:98.66px;fill:#6ed3f3;font-weight:700;}.cls-10{font-family:SourceSansPro-Semibold, Source Sans Pro;}.cls-11{letter-spacing:-0.02em;}.cls-12{letter-spacing:-0.02em;}.cls-13{letter-spacing:-0.03em;}.cls-14{letter-spacing:-0.04em;}.cls-15{letter-spacing:-0.02em;}.cls-16{font-family:SourceSansPro-Bold, Source Sans Pro;}.cls-17{letter-spacing:-0.03em;}.cls-18{letter-spacing:-0.02em;}.cls-19{letter-spacing:-0.02em;}.cls-20{letter-spacing:-0.01em;}.cls-21{letter-spacing:0em;}.cls-22{letter-spacing:-0.04em;}.cls-23{letter-spacing:-0.03em;}.cls-24{letter-spacing:-0.02em;}.cls-25{fill:#2972ff;}</style></defs><title>Artboard 14</title><g class="cls-1"><g id="Layer_1" data-name="Layer 1"><rect class="cls-2" width="860" height="860"/><path class="cls-3" d="M614.6,615.83a11.55,11.55,0,0,0,11.56-11.56h13.48a11.56,11.56,0,1,0,23.12,0h13.48a11.56,11.56,0,0,0,23.12,0h13.48a11.56,11.56,0,0,0,23.12,0h13.48A11.55,11.55,0,0,0,761,615.83l28.89,83.79H643.5Z"/><path class="cls-4" d="M614.6,615.83l28.9,83.79H758.11V615.83a11.55,11.55,0,0,1-11.56-11.56H736a11.5,11.5,0,0,1-13,11.46,11.35,11.35,0,0,1-1.44.1A11.56,11.56,0,0,1,710,604.27H699.36a11.56,11.56,0,0,1-11.56,11.56,11.35,11.35,0,0,1-1.44-.1,11.5,11.5,0,0,1-13-11.46H662.76a11.56,11.56,0,0,1-11.56,11.56,11.35,11.35,0,0,1-1.44-.1,11.49,11.49,0,0,1-13-11.46h-10.6A11.55,11.55,0,0,1,614.6,615.83Z"/><path class="cls-5" d="M656.48,751.88c-8-1.17-16-.72-22,5.28-4.9,4.9-6.2,12.07-7,18.64-.36,3-.5,6-.69,9-.1,1.48-.21,2.95-.34,4.42a17.85,17.85,0,0,1-.53,3.58c-.12.59-1.17,3.84-.55,2.36a14.87,14.87,0,0,1-.77,1.48c-.59,1,.86-.8-.54.56,1.25-1.21.25-.22-.23,0,1.56-.87.21-.12-.33,0-1.86.48,1.48,0-.63,0a6,6,0,0,1-2-.16c-9.11-1.66-13,12.27-3.81,13.94,7.57,1.38,14.74.23,19.48-6.32,3.59-5,4.11-11.7,4.57-17.6.5-6.47.38-11.45,2.13-17,.51-1.62.06-.55,1.16-2.36s-.92,1,.38-.46,0-.18.92-.77c1.39-.88,3.61-1.23,7-.73,3.89.58,7.74-.93,8.87-5.06,1-3.45-1.16-8.3-5.06-8.88Z"/><path class="cls-5" d="M702.28,759.62c10.81,14.9.53,48.61,25.51,53.39,9.11,1.74,13-12.18,3.81-13.93-3.2-.62-4.57-1.8-5.86-4.89-1.86-4.47-2.61-9.41-3.35-14.16-1.45-9.22-2-19.89-7.65-27.72-5.42-7.46-18-.24-12.46,7.31Z"/><path class="cls-5" d="M747.44,650.61c14.36,11.32,34.49-1.33,42.44-14.91,6.68-11.41,7.63-34.57-11.28-31.46-9.19,1.51-5.36,15.45,3.74,14-1.46.25-2.62-2.41-2.28-.89,0,0-.12,2.46-.29,3.4a22.7,22.7,0,0,1-3.3,9.22c-2.16,3.31-5.78,6-9.08,8.06-2.1,1.32-7.27,4.35-9.79,2.36-3.09-2.44-7.22-3-10.22,0-2.53,2.57-3,7.78.06,10.22Z"/><path class="cls-5" d="M755.22,728.34V615.83a11.55,11.55,0,0,1-11.56-11.56H730.18a11.56,11.56,0,0,1-23.12,0H693.58a11.56,11.56,0,0,1-23.12,0H657a11.56,11.56,0,1,1-23.11,0H620.38a11.55,11.55,0,0,1-11.56,11.56V767H735.27L752.52,754Z"/><path class="cls-5" d="M611.12,646.58c-12.64-1.8-23.76,1.63-31.36,12.22-5.89,8.2-7.45,19.78-6.27,29.58,1.1,9.08,4.41,19.74,13.12,24.3a16.21,16.21,0,0,0,13.28.79c4.59-1.78,7.37-4.65,7.31-9.92s-3.93-6.4-7.5-8.45c-8.09-4.63-15.32,7.88-7.23,12.51a11.43,11.43,0,0,0,2.55,1.2c3.23,1.15-.22.46-1.27-1.65-.34-1.24-.67-2.47-1-3.71a3.06,3.06,0,0,1,0,.32l3.31-4.32c-.29.16-2.15,1-.4.27a10.8,10.8,0,0,1-1.57.45c1.81-.42.47-.07-.09-.07-1.22,0,1.42.42-.5-.12-1.57-.43,1.42.73,0,0-1.74-.92.38.47-.54-.33a12.81,12.81,0,0,1-1.1-1.11c-.77-.83.6,1-.51-.74-2.89-4.38-3.74-9.84-3.67-15.88.06-5.47,1.85-12.19,4.4-15.53,3.83-5,8.46-6.82,15.31-5.84,3.9.55,7.74-.92,8.88-5.06.94-3.44-1.16-8.32-5.06-8.88Z"/><path d="M650.14,653.15a6.69,6.69,0,1,1-6.69-6.7A6.7,6.7,0,0,1,650.14,653.15Z"/><path class="cls-6" d="M646.94,651.4a1.75,1.75,0,1,1-1.74-1.75A1.75,1.75,0,0,1,646.94,651.4Z"/><path class="cls-6" d="M647.85,650.56c-.15.15-.68-.14-1.18-.64s-.78-1-.63-1.17.67.13,1.17.64S648,650.41,647.85,650.56Z"/><path d="M719.1,653.15a6.69,6.69,0,1,1-6.69-6.7A6.7,6.7,0,0,1,719.1,653.15Z"/><path class="cls-6" d="M715.9,651.4a1.75,1.75,0,1,1-1.74-1.75A1.75,1.75,0,0,1,715.9,651.4Z"/><path class="cls-6" d="M716.81,650.56c-.15.15-.68-.14-1.18-.64s-.78-1-.63-1.17.67.13,1.17.64S717,650.41,716.81,650.56Z"/><path d="M689,679.42c-1.86-2.67-5.87-3.31-9.46-3.51a71.56,71.56,0,0,0-14,.35c-3.88.53-6.06,4-5.1,6.74v0c-1.33,4.76,1.4,9.29,6.88,11.89,4.83,2.28,12.19,2.36,16.78-.33C689.85,691.22,692.52,684.49,689,679.42Z"/><path class="cls-6" d="M674,675.74a62.81,62.81,0,0,0-6.42.29v7.41H674Z"/><g class="cls-7"><path class="cls-6" d="M587.34,655.7c-5.6,6-9.49,15.32-9.38,23.54,0,3.1,4.86,3.1,4.82,0a31,31,0,0,1,8-20.13c2.12-2.27-1.28-5.68-3.4-3.41Z"/></g><g class="cls-7"><path class="cls-6" d="M768.92,646.27c9.74.56,17-8.61,19.7-17.08.94-3-3.71-4.23-4.65-1.28-2.05,6.48-7.52,14-15.05,13.55-3.11-.18-3.09,4.64,0,4.81Z"/></g><polygon class="cls-8" points="752.52 753.97 755.22 728.34 735.27 767.04 752.52 753.97"/><path class="cls-9" d="M492.18,642.27C501.56,655.87,516,666.58,533,667c9.34.25,9.4-14.21.11-14.45-11.72-.31-22.05-8.28-28.5-17.62-5.24-7.61-17.76-.37-12.46,7.32Z"/><path class="cls-9" d="M148.37,579.63c-.47-3.88-6.54-3.42-6.07.48.32,2.7.59,5.41.87,8.12l-5.54.3a20.07,20.07,0,0,0-1.43-5.89c-1.5-3.61-7.24-1.56-5.72,2.07,1.82,4.38,1.28,9.21.24,13.73-.88,3.84,5.11,5,6,1.15a44.65,44.65,0,0,0,.86-5l6.32-.34c.23,1.71.49,3.42.81,5.11.71,3.82,6.79,3.39,6.07-.47C149.56,592.55,149.14,586.07,148.37,579.63Z"/><path class="cls-9" d="M165.4,592.05a8.39,8.39,0,0,1-5.32-.79h0c.74-.1,1.5-.14,2.25-.18a3,3,0,0,0-.48-6.07,20.74,20.74,0,0,0-4.57.66c.46-2.15,2.72-3.58,4.89-4.19,3.78-1.06,1.69-6.79-2.08-5.73-6.07,1.71-10.21,7.33-8.52,13.7s8,9.52,14.3,8.67C169.75,597.59,169.3,591.52,165.4,592.05Z"/><path class="cls-9" d="M179.19,577.53a44.4,44.4,0,0,0-1.7,4.37,1.42,1.42,0,0,1-.86.09c-1.76-.28-2.27-2.86-2.19-4.25.23-3.87-5.75-5.07-6-1.16-.3,5.18,1.74,9.86,7,11.39.2.06.39.09.59.13a26.58,26.58,0,0,0,.15,8.3c.71,3.82,6.78,3.38,6.07-.48a24.12,24.12,0,0,1,.7-11.18,12.64,12.64,0,0,0,1.94-5.31C185.32,576.13,180.68,574.24,179.19,577.53Z"/><path class="cls-9" d="M223.11,588.18c-3.45,1.59-7.57,3.06-9.5-1.18-1.68-3.7-1.63-8.21-1.68-12.19s-6.12-3.43-6.07.48c.08,5.58.31,11.83,3.57,16.6,3.71,5.44,10.57,4.4,15.75,2C228.71,592.28,226.68,586.53,223.11,588.18Z"/><path class="cls-9" d="M240.17,586.7c-2.45.72-4.6.45-6.06-.93l2.89-.16a3,3,0,1,0-.47-6.07l-3.89.21a4.3,4.3,0,0,1,3.91-2.7c3.92-.17,3.43-6.24-.48-6.07-6.65.3-10.65,6.4-9.57,12.73,1.32,7.82,8.63,10.79,15.74,8.72C246,591.33,243.93,585.61,240.17,586.7Z"/><path class="cls-9" d="M257.82,569.76a43.24,43.24,0,0,0-15.17,1.85c-3.72,1.25-1.65,7,2.07,5.73a25.81,25.81,0,0,1,2.8-.76,67.86,67.86,0,0,0,1.29,12.95c.89,3.82,6.61,1.71,5.72-2.07s-.83-7.74-1-11.62c1.57-.06,3.14-.06,4.72,0C262.21,576,261.7,569.88,257.82,569.76Z"/><path class="cls-9" d="M302.9,569c-.45-2.35-3.57-4.09-5.34-1.74a55.54,55.54,0,0,0-4.72,7.15c-3.52-3.72-8.15-7.32-12.57-4.5-5,3.21-1.38,13.12-1,17.67.34,3.91,6.41,3.44,6.07-.47-.32-3.56-1.16-7.05-1.38-10.63a5.54,5.54,0,0,1,.07-1.86c-.27.78,1.5,1.49,2.22,2.07a36.26,36.26,0,0,1,4.9,5c1.31,1.54,4.39,2,5.24-.41a29.14,29.14,0,0,1,1.76-3.94,22.41,22.41,0,0,0,4.15,10.07c2.43,3.06,7.45-.39,5-3.47C303.92,579.64,303.9,574.11,302.9,569Z"/><path class="cls-9" d="M324.35,580.08a2.17,2.17,0,0,0-.25,0,2.66,2.66,0,0,0-1.9.2c-2.74,1.28-5.19,2.41-6.49-.85-.12-.29-.22-.6-.32-.89a3.2,3.2,0,0,0,.74-.59l.24-.23c.17-.14.35-.27.54-.4l.18-.11.82-.35a3,3,0,1,0-2.07-5.72,13.31,13.31,0,0,0-1.93,1q-.18-1-.39-2c2-.22,3.93-.35,5.91-.46,3.92-.21,3.44-6.28-.48-6.07a72.78,72.78,0,0,0-9.43,1,3.1,3.1,0,0,0-2.8,3.27,3.18,3.18,0,0,0,.67,1.65,3.27,3.27,0,0,0,.07,1.38c1.18,4.38,1.42,9.05,3.7,13.06,2.78,4.87,8.6,4.12,12.94,2.15a2.93,2.93,0,0,0,.73,0C328.74,585.84,328.27,579.77,324.35,580.08Z"/><path class="cls-9" d="M368.13,561.38c-6.27-.78-14-1.82-19.38,2.31-3.1,2.38.35,7.4,3.47,5a9.7,9.7,0,0,1,4.29-1.77c.21,5.12-.18,10.25,1.84,15.09,1.51,3.61,7.25,1.56,5.73-2.07-1.74-4.17-1.35-8.68-1.49-13.11,1.54.15,3,.36,4.38.53C370.85,567.85,372,561.87,368.13,561.38Z"/><path class="cls-9" d="M386.42,555.34c-4.9.2-9.72-.17-14,2.57-2.27,1.43-1.36,4.22.5,5.17-.69,4.58-1.18,9.58,1.14,13.74,2.79,5,9.51,3.38,13.69,1.59,3.58-1.55,1.54-7.29-2.07-5.73-1.36.58-5.63,2.77-6.64.62a8.41,8.41,0,0,1-.68-2.78,13.36,13.36,0,0,1,5.8-1.73c3.92-.28,3.44-6.35-.47-6.07a19.29,19.29,0,0,0-4.7.92c0-.17.05-.34.08-.5a3.21,3.21,0,0,0-.09-1.4c2.58-.51,5.44-.22,7.95-.33C390.82,561.25,390.33,555.18,386.42,555.34Z"/><path class="cls-9" d="M407.38,573.77c-3.28.73-7.65,2.15-9.7-1.33-.69-1.16-.28-3.56-.24-4.84.05-1.79.2-3.57.15-5.37-.12-3.93-6.19-3.43-6.07.48.15,5.15-1.41,11,2.57,15.12s10.25,2.8,15.36,1.67C413.27,578.65,411.16,572.93,407.38,573.77Z"/><path class="cls-9" d="M423.31,568.31c-2.14.35-7.4,2.19-9.17.23-.72-.81-.43-2.79-.43-3.8,0-1.71.12-3.43.06-5.14-.13-3.93-6.2-3.44-6.07.48s-1.09,9.12,1.85,12.38c3.74,4.15,9.42,2.7,14.24,1.92C427.64,573.76,427.19,567.68,423.31,568.31Z"/><path class="cls-9" d="M458.59,570.92c.29-5,.54-9.86-.58-14.91-.5-2.24-3.89-2.61-5.18-.94a22.52,22.52,0,0,0-1.81,2.82c-.64,1.14-1.31,3.65-2.16,2.61a43.14,43.14,0,0,1-3.92-6.31c-1.93-3.42-6.92.07-5,3.47,1.65,2.94,4.05,8.71,7.82,9.42a5.46,5.46,0,0,0,5.15-1.52c-.07,3.71-.54,7.44-.66,11.14-.13,3.92,5.94,3.41,6.07-.47,0-.09,0-.18,0-.27A3.2,3.2,0,0,0,458.59,570.92Z"/><path class="cls-9" d="M472.11,555.19a7.27,7.27,0,0,0-7.12,1.93,3.05,3.05,0,0,0-.43,0c-2.8.22-3.34,3.38-2,5,0,.13,0,.27-.05.4a3.12,3.12,0,0,0,.26,1.61,2.64,2.64,0,0,0-.51,3.91,14.54,14.54,0,0,0,10.93,5.68c4.86.07,7.62-3.68,7.42-8.29A11,11,0,0,0,472.11,555.19Zm.59,12.47a8.51,8.51,0,0,1-4.83-2.39,2.74,2.74,0,0,0,.62-1.55c.19-2.12.75-3,2.89-2.45s3,2.75,3.16,4.67C474.72,567.61,474.15,567.83,472.7,567.66Z"/><path class="cls-9" d="M491.94,552.35a2.88,2.88,0,0,0-2.68,3.35,3.14,3.14,0,0,0-.06.82,36.21,36.21,0,0,1,0,4.42,19.05,19.05,0,0,1-.39,2.59,2.42,2.42,0,0,1-.22.72h0l-.36-.18c-.56-.31-.72-1.56-.86-2.07-.58-2.21-.34-4.62-.73-6.86-.67-3.83-6.75-3.39-6.07.48.58,3.34.31,6.78,1.57,10s4.88,5.68,8.32,4.71c5.44-1.55,5-9.92,4.81-14.29a3.92,3.92,0,0,0-.15-.8A2.88,2.88,0,0,0,491.94,552.35Z"/><path class="cls-9" d="M134.2,636.82c-1.5-2.65-2.95-5.32-4.59-7.89s-3.85-6-7.09-6.74c-7-1.66-7.25,12.55-7.67,16.53s5.57,5.06,6,1.16c0-.3.06-.6.09-.9a42.7,42.7,0,0,0,6.45-1.24,1.89,1.89,0,0,0,.33-.13l1.12,2a2.92,2.92,0,0,0,3.18,3.15,3,3,0,0,0,2.57-3.91A3.08,3.08,0,0,0,134.2,636.82Zm-11.79-7.61a19.41,19.41,0,0,1,2.12,3c-1,.23-1.92.43-2.89.57A30.91,30.91,0,0,1,122.41,629.21Z"/><path class="cls-9" d="M148.39,628.82a5.81,5.81,0,0,0,1.12-5.87c-1.22-4.47-7.72-5.14-11.42-4.45a3.31,3.31,0,0,0-1.23.49,1.9,1.9,0,0,0-.34,0,2.87,2.87,0,0,0-2.69,3.29,2.59,2.59,0,0,0-.39,2c1,6.14,2,20.64,12,16.36a8.56,8.56,0,0,0,5.32-7.94A4.5,4.5,0,0,0,148.39,628.82Zm-4.55-3.67a46.54,46.54,0,0,1-3.84,3.17c-.19-1.56-.31-3-.41-3.92C141.06,624.2,143,624.13,143.84,625.15Zm-1.6,10c-.44-.06-.8-.54-1.1-1.28a2.34,2.34,0,0,0,.7,0,9.21,9.21,0,0,1,2.63-.18A2.65,2.65,0,0,1,142.24,635.18Z"/><path class="cls-9" d="M163,619.18a10.25,10.25,0,0,0-10.86,5.7,2.82,2.82,0,0,0,1.54,4c1.76,3.57,4.47,7.73,8.44,8.7,5.46,1.34,8.56-5,8.51-9.59A9,9,0,0,0,163,619.18Zm.21,12.34A13.51,13.51,0,0,1,159,626c2.08-1.4,5.28-1.14,5.54,2a6.09,6.09,0,0,1-1.09,3.6C163.37,631.64,163.94,632,163.18,631.52Z"/><path class="cls-9" d="M184.39,616a2.89,2.89,0,0,0-2.7,3.26,3.51,3.51,0,0,0-.06.81c.11,1.91.26,3.81.27,5.73a12,12,0,0,1-.55,4.05c0-.08-.44,0-.68-.19-.64-.49-.88-1.95-1-2.67a51.16,51.16,0,0,1-.69-7.72c-.19-3.93-6.26-3.44-6.06.47.29,5.91.6,17.28,9.37,16.2,7.13-.87,5.73-11.43,5.44-16.35a3.09,3.09,0,0,0-.14-.77A2.88,2.88,0,0,0,184.39,616Z"/><path class="cls-9" d="M207.14,615.6c-2.65.61-5.55-.33-8.21-.46a11.52,11.52,0,0,0-8.28,2.47c-3,2.46.42,7.49,3.47,5a5.85,5.85,0,0,1,2.46-1.22.78.78,0,0,0,0,.16c-.22,4.49.95,10.66,4.55,13.7,3,2.54,6.95-2.09,3.95-4.62-2.14-1.82-2.52-6.19-2.45-9a19.84,19.84,0,0,0,6.6-.29C213,620.46,210.92,614.74,207.14,615.6Z"/><path class="cls-9" d="M235.94,618.93c-1,.18-1.93.45-2.93.57l-.19,0a1.29,1.29,0,0,1-.06-.7c.17-1.18,3.11-1.21,3.87-.93,3.65,1.38,6.32-4.09,2.65-5.48-4-1.52-9.29-.65-11.69,3.23a6.47,6.47,0,0,0,3.49,9.57,3.13,3.13,0,0,0-2.07,4.73c4.13,6.43,16.1,1.91,16.48-5.1C245.72,620.46,239.31,618.31,235.94,618.93Zm-3.33.6c-.13,0-.09,0,0,0Zm1.89,7.3c-.56-.08-.27,0-.49-.37a3,3,0,0,0-.87-.9h.35c1.88-.08,3.43-1.07,5.17-.39a3.68,3.68,0,0,1,.34.16,7.73,7.73,0,0,1-3.15,1.48A3.61,3.61,0,0,1,234.5,626.83Z"/><path class="cls-9" d="M262.06,611.56c-4.27-2.72-9.77.73-12.6,3.9-3.34,3.73-4.62,9.37-.75,13.17a2.55,2.55,0,0,0,2.47.76C260.58,632.25,272.3,618.09,262.06,611.56Zm-9.25,12a3.2,3.2,0,0,0-.55-.18c-.81-2.48,4.45-7,6.82-6.5C262.42,617.55,256.08,625,252.81,623.53Z"/><path class="cls-9" d="M287.21,611.14a3.07,3.07,0,0,0-5.35-1.74c-1.73,1.81-2.74,4.31-4.31,6.25a15.82,15.82,0,0,0-5-4.33,3.08,3.08,0,0,0-4.32,2.16,31.6,31.6,0,0,0,.44,14.69c.9,3.81,6.62,1.71,5.72-2.07a27.65,27.65,0,0,1-.75-5.61l1,1.34a3.11,3.11,0,0,0,4.24.76,11.67,11.67,0,0,0,3.65-3.58,61.7,61.7,0,0,1,1,7.16,3.88,3.88,0,0,0,3.69,3.17,3,3,0,0,0,2.29-4.61C289.05,620.15,287.89,615.69,287.21,611.14Z"/><path class="cls-9" d="M302.09,620.13c-1.82,1-3.31.74-4.4-.32a23.44,23.44,0,0,0,2.37-1.14,3,3,0,0,0,.77-4.23,3.08,3.08,0,0,0-4.05-.86l-.18.09-.51.22c.57-1.32,2-2,4.07-1.91,3.91.19,3.39-5.88-.48-6.07-7.47-.37-10.89,6.22-9.39,12.82,1.66,7.26,9.1,9.94,15.28,6.4C309,623.18,305.48,618.18,302.09,620.13Z"/><path class="cls-9" d="M321.8,603.93a2.45,2.45,0,0,0-.54.1,3.28,3.28,0,0,0-.64,0c-4.8.23-9.52.27-14.24,1.29-3.82.83-1.71,6.55,2.08,5.73a30.78,30.78,0,0,1,3.31-.52,13.27,13.27,0,0,0,.68,4.23c.69,2.21,1.7,3.83,1.06,6.15-.93,1.87.13,4.74,2.85,4.53a2.78,2.78,0,0,0,2.63-2.31,3.44,3.44,0,0,0,.47-1,11,11,0,0,0-.16-6.39c-.55-2-1.57-3.57-1.4-5.57,1.07,0,2.14-.06,3.19-.11a2.94,2.94,0,0,0,.53-.08,2.88,2.88,0,0,0,.66,0C326.19,609.69,325.72,603.62,321.8,603.93Z"/><path class="cls-9" d="M335.67,605.49c-.13,1.47-.18,2.93-.19,4.38-.87,0-1.75,0-2.63,0-.1-1.17-.18-2.34-.25-3.51-.24-3.92-6.31-3.44-6.07.48.28,4.75.87,9.47,1.16,14.22a5,5,0,0,0,3.73,4,3,3,0,0,0,2.33-4.55c-.09-1.51-.22-3-.35-4.54l2.29,0c.11,1.68.23,3.35.33,5,.23,3.93,6.3,3.44,6.07-.47-.27-4.61-.87-9.24-.44-13.85C342,602.77,336,601.59,335.67,605.49Z"/><path class="cls-9" d="M344.25,604.26c.76,5,2.74,9.79,2.79,14.93,0,3.93,6.1,3.43,6.07-.47-.05-5.17-2-9.89-2.79-14.94C349.74,599.93,343.66,600.37,344.25,604.26Z"/><path class="cls-9" d="M367.56,602.65a31.12,31.12,0,0,0-1.94,7.51,52.74,52.74,0,0,0-5.94-6.63,3.07,3.07,0,0,0-5,2.55c.49,5.12-3.28,10.19.07,15,2.23,3.22,7.24-.24,5-3.47-.89-1.29-.2-3.44.16-4.94a86.85,86.85,0,0,1,6,8.61c1.67,2.67,5.67.91,5.54-2-.24-4.78-.18-9.52,1.64-14C374.52,601.68,369,599,367.56,602.65Z"/><path class="cls-9" d="M385.41,606.2c-3.44,1.75-1.42,7.5,2.08,5.73a4.52,4.52,0,0,1,1.07-.4,4.6,4.6,0,0,1,0,.58c0,.77-.69,1.94-1.35,1.91-2.79-.17-5.24-2.71-6.11-5.2-1.09-3.12,1.36-3.91,4-3.78,3.91.19,3.39-5.88-.47-6.07-6-.29-10.71,4-9.65,10.18.95,5.56,6.43,11,12.3,10.91,4.69-.08,7.53-4.35,7.36-8.72C394.47,606.43,389.6,604.08,385.41,606.2Z"/><path class="cls-9" d="M427.93,603.75a7.44,7.44,0,0,0,.37-7.64c-2.71-4.87-8.8-3.13-12.45-.56a3,3,0,0,0-.06,4.85c0,6.62-.54,18.87,9.06,15.9,3.19-1,5.46-4.59,5.52-7.81A5.27,5.27,0,0,0,427.93,603.75Zm-4.83-4.52c.52.7-.38,1.79-1.26,2.61,0-.92,0-1.84,0-2.75C422.38,598.91,422.85,598.89,423.1,599.23Zm1.15,9.62c-.32.91-1.36,1.86-1.61,1.75-.55-.22-.74-1.24-.8-2.31a3,3,0,0,0,.74.08,10.75,10.75,0,0,1,1.67.1A.61.61,0,0,1,424.25,608.85Z"/><path class="cls-9" d="M444.57,596.47c3.92.07,3.41-6-.48-6.07-4.26-.07-7.84,2.28-11.2,4.63a3,3,0,0,0,.17,5c-.35,3.19-1.19,6.42-.39,9.56,1.22,4.82,6.3,5.38,10.48,4.78,3.86-.55,3.41-6.62-.48-6.07-2.36.34-4,.88-4.22-1.25,1.28-.39,2.57-.76,3.86-1.1a3.05,3.05,0,0,0,1.83-3.9,3.1,3.1,0,0,0-3.9-1.82c-.41.1-.82.22-1.23.34.11-.84.2-1.67.23-2.51A10,10,0,0,1,444.57,596.47Z"/><path class="cls-9" d="M460.78,590.7c-2.64.16-5.29.64-7.92.12a2.75,2.75,0,0,0-2.76.9,2.43,2.43,0,0,0-2.34,2.39,60.1,60.1,0,0,0-.2,7.93,2.73,2.73,0,0,0,0,2,3,3,0,0,0,.15.31,55.37,55.37,0,0,0,.87,6.37c.75,3.81,6.83,3.37,6.07-.47-.33-1.66-.58-3.33-.76-5a27.65,27.65,0,0,1,4.26.3,3.11,3.11,0,0,0,3.57-2.41,3.06,3.06,0,0,0-2.41-3.57,43.69,43.69,0,0,0-5.74-.4c0-.72,0-1.44.06-2.15a54.22,54.22,0,0,0,7.64-.28C465.17,596.53,464.69,590.46,460.78,590.7Z"/><path class="cls-9" d="M477.5,593.47c-4.38-2.51-9.17-.68-11.5,3.55a2.45,2.45,0,0,0-1.44,2.86c.83,4.67,4.16,9.69,8.77,11.33a8.21,8.21,0,0,0,10.89-7.64C484.18,599.26,481.09,595.52,477.5,593.47Zm-2.43,11.89a9.09,9.09,0,0,1-4.15-4.92,3.15,3.15,0,0,0,.54-.72c.89-1.64,1.82-1.57,3.38-.77a6.54,6.54,0,0,1,3.28,4.34A2.09,2.09,0,0,1,475.07,605.36Z"/><path class="cls-9" d="M502,606.64c-2.42-1-4.21-2.8-6.19-4.34a13,13,0,0,0,3.05-8c.16-3.85-2.51-7.39-6.47-7.35-4.81.06-6.89,5.78-7.3,9.63-.48,4.56-.06,10.51,2.75,14.34,2.32,3.16,7.33-.3,5-3.47-.06-.08-.11-.18-.17-.27,2.23,1.58,4.17,4,6.67,5C503,613.61,505.62,608.13,502,606.64Zm-9.41-13.48a4.7,4.7,0,0,1,.2,1.58,5.29,5.29,0,0,1-2,4.06,9.42,9.42,0,0,1,1.32-5.13A2,2,0,0,1,492.58,593.16Z"/><path class="cls-9" d="M518,601.83a2.81,2.81,0,0,0-1.88.85c-2.71.83-4.77-.62-5.86-2.77a8.3,8.3,0,0,1,4.52-1.73c3.91-.3,3.44-6.37-.48-6.07a14.47,14.47,0,0,0-4.07.9,4.45,4.45,0,0,1,2.59-2c3.76-1.13,1.68-6.86-2.07-5.73-13.92,4.18-6.24,29.18,8.15,22.87a3,3,0,0,0,1.11-.81C522.18,605.8,521.33,601.57,518,601.83Z"/><path class="cls-9" d="M178.59,656.13c-.44,1.43-.54,6.28-2.81,4.6-1.91-1.42-3.2-4-4.38-6-2-3.39-7,.1-5,3.47,2.23,3.83,5.63,9.49,10.83,9a8.34,8.34,0,0,0,1.62-.3c0,3-.16,6-.23,9-.08,3.93,6,3.41,6.07-.47.14-6.36.52-12.69-.08-19C184.28,652.85,179.56,653,178.59,656.13Z"/><path class="cls-9" d="M196,657.33c-5-1.09-8.89,2.77-10,7.24a3,3,0,0,0,0,1.43,3.93,3.93,0,0,0-.46,1.76c-.18,4.77,3.17,8,7.81,8.08s8.64-3.8,9.41-8.1A8.85,8.85,0,0,0,196,657.33Zm.75,9.26a3.91,3.91,0,0,1-3.17,3.13c-1.68.27-2.08-.4-2-2.43a2,2,0,0,0-.06-.56,3.27,3.27,0,0,0,.45-1C192.88,662.05,197.18,662.78,196.74,666.59Z"/><path class="cls-9" d="M213.14,659.8a18.06,18.06,0,0,1,2.12,3.24,19.25,19.25,0,0,1,.83,2.89,15.09,15.09,0,0,1-5.39,2.41c-.07-.08-.16-.18-.27-.33a8,8,0,0,1-1.09-3.24,23.74,23.74,0,0,1-.21-6.68c.41-3.88-5.57-5.06-6-1.16-.54,5.14-.16,19.19,8.3,17.45,3-.63,7-2,9.12-4.38,3.53-4,.25-10.24-2.42-13.67C215.74,653.25,210.72,656.7,213.14,659.8Z"/><path class="cls-9" d="M290.19,663.56c-3.28-4.39-6.43-15.85-13.75-14.53-2.62.48-3.92,2.25-4.47,4.59a2.87,2.87,0,0,0-3-1.88l-9.49.51c-3.93.21-3.44,6.28.47,6.07h0a38.24,38.24,0,0,0,1.48,10.35,2.94,2.94,0,1,0,5.86-.42,3,3,0,0,0-.11-1.55,31.22,31.22,0,0,1-1.17-8.71l3.41-.18a2.71,2.71,0,0,0,2.11-1c-.07,4.21,1.1,9.07,1.3,11.78.28,3.92,6.35,3.44,6.07-.47-.09-1.15-.23-2.29-.38-3.44a32.45,32.45,0,0,0,4.24-1.54,30.64,30.64,0,0,0,2,3.43,2.93,2.93,0,0,0,5.83-.46A2.66,2.66,0,0,0,290.19,663.56ZM278,658.48c0-.79-.06-1.57-.06-2.36a5.16,5.16,0,0,1,.07-.79,8.35,8.35,0,0,1,2,2.45c-.41.17-.83.32-1.26.46C278.44,658.33,278.19,658.4,278,658.48Z"/><path class="cls-9" d="M310.62,662.16l-.2,0a25.92,25.92,0,0,1-6.56-2.41c2.08-1.44,3.57-3.46,2.56-6.12-1.3-3.45-5.16-4.68-8.54-4.73-4.35-.07-6.79,3.37-6.9,7.38-.09,3.34.37,8.76,2.73,11.4,2.58,2.89,7.62-.54,5-3.47A3.85,3.85,0,0,1,298,663a28.37,28.37,0,0,0,11.44,5.2,3,3,0,0,0,1.37,0h.24C315,667.93,314.53,661.86,310.62,662.16Zm-10.78-6.84a16.45,16.45,0,0,1-2.65.95.59.59,0,0,0-.14.06,6.14,6.14,0,0,1,.15-1.13A3.56,3.56,0,0,1,299.84,655.32Z"/><path class="cls-9" d="M324.28,643.3c-5.13,1.72-10.44-.95-15.28,2.34-3.25,2.2.22,7.21,3.47,5,.1-.07.2-.11.3-.17a3.21,3.21,0,0,0,1,1c2.73,1.61,2.34,6.08,2.47,8.78a3.66,3.66,0,0,0,.16.85,3,3,0,1,0,5.83-.44,3.1,3.1,0,0,0,.08-.88c-.18-3.55-.46-7.06-2.06-9.91a18,18,0,0,0,6.07-.81C330.07,647.78,328,642.06,324.28,643.3Z"/><path class="cls-9" d="M349.51,650.85a12.07,12.07,0,0,1,1.87-1.34,12.35,12.35,0,0,1,4.64-1.94c3.89-.48,3.43-6.55-.47-6.07-6.21.75-14.2,5.67-12.35,12.75,1,3.7,5.23,2.7,7.89,2.44,1-.1,3.65,1.9,2.72,3.1-1.15,1.48-3.61,1.19-5.16.84-3.83-.87-5,5.11-1.15,6,6.86,1.55,16.66-4.11,11.15-11.77A10,10,0,0,0,349.51,650.85Z"/><path class="cls-9" d="M376.13,640.39a4.49,4.49,0,0,0-.57.1,4.16,4.16,0,0,0-.62,0c-4.68.17-9.39-.57-13.84,1.26-3.61,1.49-1.57,7.23,2.07,5.73a12.23,12.23,0,0,1,2.41-.69c.44,3.94,2.58,7.48,2.58,11.47a2.9,2.9,0,0,0,.18,1,2.84,2.84,0,0,0,3.13,2.57,2.88,2.88,0,0,0,2.68-3.36,3.19,3.19,0,0,0,.08-.7c0-4-2.07-7.42-2.56-11.27,1.26,0,2.51.08,3.74,0a3.15,3.15,0,0,0,.56-.08,3.29,3.29,0,0,0,.63,0C380.52,646.15,380,640.09,376.13,640.39Z"/><path class="cls-9" d="M397.05,648.7c-1.58-2.91-3.94-8-7.58-8.86-8.4-1.89-8.14,14.08-7.4,18.83.6,3.86,6.68,3.41,6.07-.47-.07-.47-.11-1-.15-1.43,2.07-.45,4-1.17,5.76-.68a2.09,2.09,0,0,0,.49.08c.71,1.53,1.36,3.06,2,4.54,1.47,3.62,7.21,1.57,5.73-2.07A98.36,98.36,0,0,0,397.05,648.7Zm-9.19-2.89c-.35-.08-.33-.26,0,0Zm.2,4.8c0-.15,0-.3,0-.45a18.5,18.5,0,0,1,.62-3.37A33.85,33.85,0,0,1,391,650C390,650.15,389,650.4,388.06,650.61Z"/><path class="cls-9" d="M416,639.2a28.49,28.49,0,0,1-6.87,5.93,2.92,2.92,0,0,0-1.56.77,22.49,22.49,0,0,1-.53-5.38c.15-3.92-5.93-3.41-6.07.47-.23,6,2.76,11.38,2.91,17.31.1,3.93,6.17,3.43,6.07-.48a21.9,21.9,0,0,0-.3-3,23,23,0,0,0,7.88,6.56c3.46,1.88,6.09-3.62,2.65-5.48-2.71-1.47-5.48-3.47-6.68-6.35a33.77,33.77,0,0,0,7.13-6.37C423.13,640.13,418.51,636.17,416,639.2Z"/><path class="cls-9" d="M424.8,641.3c.79,5.06,3.11,9.75,3.18,14.91,0,3.93,6.12,3.43,6.07-.47-.07-5.23-2.39-9.84-3.18-14.92C430.26,637,424.19,637.42,424.8,641.3Z"/><path class="cls-9" d="M449.67,635.25a2.91,2.91,0,0,0-2.65,3.56,3.25,3.25,0,0,0-.08.9c.13,2.16.32,4.3.38,6.45l-.91-1.34a19.85,19.85,0,0,0-5.69-5.53c-1.39-.91-3.41.06-4.06,1.41-2.31,4.78-2.13,12.3.26,17,1.75,3.45,7.5,1.43,5.73-2.07a16.65,16.65,0,0,1-1.53-7.78c.62.85,1.19,1.74,1.78,2.59a17.36,17.36,0,0,0,5.68,5.24,3.07,3.07,0,0,0,4.32-2.16c.88-4.76.4-9.52.11-14.31a3.31,3.31,0,0,0-.16-.82A2.93,2.93,0,0,0,449.67,635.25Z"/><path class="cls-9" d="M463.86,642.82c-3.17,2.13,0,6.92,3.22,5.14-.16,1.67-1,2-2.69,1.63-8.88-2.13.93-10,5.31-10.57,3.87-.55,3.42-6.63-.47-6.07-5.75.82-12.12,4.84-14.12,10.51-2.33,6.56,4.14,12.46,10.52,12.41,4.76,0,7.65-4.19,7.51-8.66C473,642,467.87,640.13,463.86,642.82Z"/><path class="cls-9" d="M245.52,659.74a20.32,20.32,0,0,1-2.21-.13h-.06a5.27,5.27,0,0,1,.07-1.33c.13-1.22,2.12-2.3,3-1.19,2.48,3,7.51-.44,5-3.47a8,8,0,0,0-11.4-1.06c-3.3,2.81-4.36,10.13.23,12.36,3.19,1.56,7.87-.63,9.26,3.47.43,1.29-1.18,2.26-2.12,2.61-1.63.6-2.8-.28-3.58-1.64a3,3,0,0,0-.51-.66,2.79,2.79,0,0,0-3-1.84c-2.91.23-3.39,3.63-1.84,5.24a3.29,3.29,0,0,0,.3.74c4.7,8.23,18.74,3.56,16.55-6C254.17,661.91,250.18,659.88,245.52,659.74Z"/><g id="_Group_" data-name="&lt;Group&gt;"><text class="cls-10" transform="translate(399.11 372.34)"><tspan class="cls-11">T</tspan><tspan class="cls-12" x="52.26" y="0">i</tspan><tspan class="cls-13" x="75.74" y="0">c</tspan><tspan class="cls-14" x="118.81" y="0">k</tspan><tspan class="cls-15" x="166.62" y="0">e</tspan><tspan x="215.1" y="0">t</tspan></text><text class="cls-16" transform="translate(399.11 486.38)"><tspan class="cls-17">L</tspan><tspan class="cls-18" x="48.35" y="0">i</tspan><tspan class="cls-19" x="73.86" y="0">f</tspan><tspan class="cls-20" x="105.69" y="0">e</tspan><tspan class="cls-21" x="155.39" y="0">c</tspan><tspan class="cls-22" x="201.06" y="0">y</tspan><tspan class="cls-23" x="248.86" y="0">c</tspan><tspan class="cls-24" x="292.28" y="0">l</tspan><tspan x="318.7" y="0">e</tspan></text></g><g id="_Group_2" data-name="&lt;Group&gt;"><path id="_Path_" data-name="&lt;Path&gt;" class="cls-25" d="M193.78,416.66h58.66a39.52,39.52,0,0,0,0-79H233.75l-40-34.7h58.66a74.23,74.23,0,0,1,28,143l46.25,40.15H273.72Z"/></g><g id="_Group_3" data-name="&lt;Group&gt;"><path id="_Path_2" data-name="&lt;Path&gt;" class="cls-25" d="M222.42,372.32H163.77a39.52,39.52,0,1,0,0,79h18.68l40,34.69H163.77a74.22,74.22,0,0,1-28-143L89.56,302.92h52.92Z"/></g></g></g></svg>