<svg xmlns="http://www.w3.org/2000/svg" xmlns:xlink="http://www.w3.org/1999/xlink" viewBox="0 0 860 860"><defs><style>.cls-1,.cls-6{opacity:0.2;}.cls-1,.cls-3,.cls-31,.cls-6{mix-blend-mode:multiply;}.cls-10,.cls-2,.cls-24{fill:#2971ff;}.cls-3,.cls-6{fill:#231f20;}.cls-3{opacity:0.39;}.cls-4{fill:#2ed6a1;}.cls-5{fill:#fff;}.cls-7{isolation:isolate;}.cls-8{fill:#f6f4e3;}.cls-9{fill:#fbf4a2;}.cls-10{font-size:34px;font-family:SourceSansPro-Bold, Source Sans Pro;font-weight:700;}.cls-11{letter-spacing:-0.01em;}.cls-12{letter-spacing:-0.03em;}.cls-13{letter-spacing:-0.03em;}.cls-14{letter-spacing:-0.02em;}.cls-15{letter-spacing:-0.02em;}.cls-16{letter-spacing:0.01em;}.cls-17{letter-spacing:-0.02em;}.cls-18{letter-spacing:0em;}.cls-19{letter-spacing:-0.02em;}.cls-20{letter-spacing:-0.01em;}.cls-21{letter-spacing:-0.01em;}.cls-22{letter-spacing:0em;}.cls-23{letter-spacing:-0.01em;}.cls-24{font-size:28px;font-family:SourceSansPro-Black, Source Sans Pro;}.cls-25{letter-spacing:-0.01em;}.cls-26{letter-spacing:-0.01em;}.cls-27{letter-spacing:-0.01em;}.cls-28{letter-spacing:-0.03em;}.cls-29{letter-spacing:-0.02em;}.cls-30{letter-spacing:-0.02em;}.cls-31{opacity:0.55;}.cls-32{fill:#c6eccb;}.cls-33{fill:#a0dfa9;}</style><symbol id="New_Symbol" data-name="New Symbol" viewBox="0 0 92.4 92.4"><path class="cls-1" d="M92.4,53.18,87.57,6.45A6.45,6.45,0,0,1,81.12,0H70.37a6.45,6.45,0,0,1-4.83,6.24A6.46,6.46,0,0,1,60.7,0H50a6.45,6.45,0,0,1-4.84,6.24A6.46,6.46,0,0,1,40.29,0H29.55a6.46,6.46,0,0,1-4.84,6.24A6.45,6.45,0,0,1,19.88,0H9.13A6.44,6.44,0,0,1,2.69,6.45V90.79H73.21l9.63-7.29,1.5-14.29v-16H92.4Z"/><path class="cls-2" d="M3.22,8.06A6.45,6.45,0,0,0,9.67,1.61h7.52a6.45,6.45,0,1,0,12.89,0H37.6a6.45,6.45,0,0,0,12.9,0H58a6.45,6.45,0,1,0,12.89,0h7.52a6.45,6.45,0,0,0,6.45,6.45L89.71,54.8H19.34Z"/><path class="cls-3" d="M3.22,8.06,19.34,54.8H83.27V8.06a6.45,6.45,0,0,1-6.45-6.45H70.91a6.44,6.44,0,0,1-6.44,6.45A5.32,5.32,0,0,1,63.66,8a5.32,5.32,0,0,1-.81.06,6.44,6.44,0,0,1-6.44-6.45H50.5a6.45,6.45,0,0,1-6.45,6.45,5.29,5.29,0,0,1-.8-.06,5.52,5.52,0,0,1-.81.06A6.45,6.45,0,0,1,36,1.61H30.08a6.44,6.44,0,0,1-6.44,6.45A5.42,5.42,0,0,1,22.83,8a5.29,5.29,0,0,1-.8.06,6.45,6.45,0,0,1-6.45-6.45H9.67A6.45,6.45,0,0,1,3.22,8.06Z"/><path class="cls-4" d="M81.66,70.82V8.06a6.45,6.45,0,0,1-6.45-6.45H67.69a6.45,6.45,0,1,1-12.9,0H47.27a6.45,6.45,0,1,1-12.89,0H26.86A6.45,6.45,0,1,1,14,1.61H6.45A6.45,6.45,0,0,1,0,8.06V92.4H70.53l9.62-7.29Z"/><path d="M28.91,26.75a7.33,7.33,0,1,1-7.32-7.33A7.33,7.33,0,0,1,28.91,26.75Z"/><path class="cls-5" d="M25.41,24.84a1.91,1.91,0,1,1-1.91-1.91A1.9,1.9,0,0,1,25.41,24.84Z"/><path class="cls-5" d="M26.4,23.92c-.16.16-.73-.15-1.28-.7s-.86-1.12-.7-1.28.74.15,1.29.69S26.56,23.76,26.4,23.92Z"/><path d="M67.4,26.75a7.33,7.33,0,1,1-7.33-7.33A7.33,7.33,0,0,1,67.4,26.75Z"/><path class="cls-5" d="M63.89,24.84A1.91,1.91,0,1,1,62,22.93,1.9,1.9,0,0,1,63.89,24.84Z"/><path class="cls-5" d="M64.88,23.92c-.16.16-.73-.15-1.28-.7s-.86-1.12-.7-1.28.74.15,1.29.69S65.05,23.76,64.88,23.92Z"/><polygon class="cls-6" points="80.15 85.11 81.66 70.82 70.53 92.4 80.15 85.11"/></symbol></defs><title>Artboard 14 copy</title><g class="cls-7"><g id="Layer_1" data-name="Layer 1"><rect class="cls-8" y="1.19" width="860" height="858.81"/><rect class="cls-9" width="860" height="356.67"/><text class="cls-10" transform="translate(58.62 106.94)">Each dec<tspan class="cls-11" x="131.61" y="0">r</tspan><tspan x="144.8" y="0">ed block </tspan><tspan class="cls-12" x="278.08" y="0">c</tspan><tspan x="293.01" y="0">omes with 20 tic</tspan><tspan class="cls-13" x="536.48" y="0">k</tspan><tspan class="cls-11" x="554.16" y="0">et</tspan><tspan x="584.11" y="0">s a</tspan><tspan class="cls-14" x="623.89" y="0">v</tspan><tspan x="640.99" y="0">aliable </tspan><tspan class="cls-11" x="90.86" y="40.8">f</tspan><tspan x="102.12" y="40.8">or pu</tspan><tspan class="cls-11" x="180.11" y="40.8">r</tspan><tspan x="193.31" y="40.8">chase </tspan><tspan class="cls-15" x="285.99" y="40.8">a</tspan><tspan x="303.29" y="40.8">t a p</tspan><tspan class="cls-11" x="367.32" y="40.8">r</tspan><tspan class="cls-16" x="380.51" y="40.8">e</tspan><tspan x="398.46" y="40.8">-specified pri</tspan><tspan class="cls-13" x="594.43" y="40.8">c</tspan><tspan class="cls-17" x="609.36" y="40.8">e</tspan><tspan x="626.15" y="40.8">*. </tspan><tspan x="36.26" y="81.6">Th</tspan><tspan class="cls-18" x="74.58" y="81.6">o</tspan><tspan x="93.28" y="81.6">se </tspan><tspan class="cls-19" x="132.75" y="81.6">g</tspan><tspan class="cls-20" x="150.3" y="81.6">e</tspan><tspan x="167.57" y="81.6">t au</tspan><tspan class="cls-11" x="224.62" y="81.6">c</tspan><tspan x="240.16" y="81.6">tioned </tspan><tspan class="cls-11" x="344.77" y="81.6">f</tspan><tspan x="356.03" y="81.6">or the higher </tspan><tspan class="cls-11" x="556.39" y="81.6">f</tspan><tspan x="567.64" y="81.6">ee </tspan><tspan class="cls-18" x="609.66" y="81.6">o</tspan><tspan class="cls-21" x="628.36" y="81.6">ff</tspan><tspan class="cls-22" x="650.36" y="81.6">e</tspan><tspan class="cls-23" x="667.97" y="81.6">r</tspan><tspan x="681.23" y="81.6">s.</tspan></text><text class="cls-24" transform="translate(129.12 782.74)">*<tspan class="cls-25" x="13.22" y="0">y</tspan><tspan x="28.11" y="0">ou </tspan><tspan class="cls-26" x="65.57" y="0">c</tspan><tspan x="78.51" y="0">an check cur</tspan><tspan class="cls-27" x="235.48" y="0">r</tspan><tspan x="246.9" y="0">ent pri</tspan><tspan class="cls-28" x="330.73" y="0">c</tspan><tspan x="343.11" y="0">e </tspan><tspan class="cls-29" x="363.43" y="0">a</tspan><tspan x="377.88" y="0">t </tspan><tspan class="cls-30" x="394.68" y="0">sta</tspan><tspan class="cls-27" x="431.86" y="0">t</tspan><tspan x="442.78" y="0">s</tspan><tspan class="cls-25" x="455.44" y="0">.</tspan><tspan x="464.12" y="0">dec</tspan><tspan class="cls-25" x="508.3" y="0">r</tspan><tspan x="519.73" y="0">ed</tspan><tspan class="cls-25" x="550.69" y="0">.</tspan><tspan x="559.37" y="0">o</tspan><tspan class="cls-25" x="575.05" y="0">r</tspan><tspan x="586.48" y="0">g</tspan></text><polygon class="cls-2" points="356.9 543.67 226.78 695.56 226.78 504.15 356.9 305.18 356.9 543.67"/><polygon class="cls-1" points="356.9 543.67 226.78 695.56 226.78 504.15 356.9 305.18 356.9 543.67"/><rect class="cls-2" x="356.18" y="305.18" width="359.82" height="191.41"/><rect class="cls-31" x="371.3" y="305.18" width="343.65" height="191.41"/><use width="92.4" height="92.4" transform="translate(364.46 314.43) scale(1.01)" xlink:href="#New_Symbol"/><use width="92.4" height="92.4" transform="translate(335.5 354.03) scale(1.01)" xlink:href="#New_Symbol"/><use width="92.4" height="92.4" transform="translate(306.54 393.62) scale(1.01)" xlink:href="#New_Symbol"/><use width="92.4" height="92.4" transform="translate(277.57 433.22) scale(1.01)" xlink:href="#New_Symbol"/><use id="New_Symbol-11" data-name="New Symbol" width="92.4" height="92.4" transform="translate(248.61 472.82) scale(1.01)" xlink:href="#New_Symbol"/><use width="92.4" height="92.4" transform="translate(458.2 315.3) scale(1.01)" xlink:href="#New_Symbol"/><use width="92.4" height="92.4" transform="translate(429.23 354.9) scale(1.01)" xlink:href="#New_Symbol"/><use width="92.4" height="92.4" transform="translate(400.27 394.5) scale(1.01)" xlink:href="#New_Symbol"/><use width="92.4" height="92.4" transform="translate(371.3 434.1) scale(1.01)" xlink:href="#New_Symbol"/><use width="92.4" height="92.4" transform="translate(342.34 473.69) scale(1.01)" xlink:href="#New_Symbol"/><use width="92.4" height="92.4" transform="translate(551.93 316.18) scale(1.01)" xlink:href="#New_Symbol"/><use width="92.4" height="92.4" transform="translate(522.96 355.78) scale(1.01)" xlink:href="#New_Symbol"/><use width="92.4" height="92.4" transform="translate(494 395.38) scale(1.01)" xlink:href="#New_Symbol"/><use width="92.4" height="92.4" transform="translate(465.03 434.97) scale(1.01)" xlink:href="#New_Symbol"/><use width="92.4" height="92.4" transform="translate(436.07 474.57) scale(1.01)" xlink:href="#New_Symbol"/><use width="92.4" height="92.4" transform="translate(644.24 316.18) scale(1.01)" xlink:href="#New_Symbol"/><use width="92.4" height="92.4" transform="translate(615.27 355.78) scale(1.01)" xlink:href="#New_Symbol"/><use width="92.4" height="92.4" transform="translate(586.31 395.38) scale(1.01)" xlink:href="#New_Symbol"/><use width="92.4" height="92.4" transform="translate(557.35 434.97) scale(1.01)" xlink:href="#New_Symbol"/><use width="92.4" height="92.4" transform="translate(528.38 474.57) scale(1.01)" xlink:href="#New_Symbol"/><polygon class="cls-2" points="716 496.6 585.88 695.56 585.88 504.15 716 305.18 716 496.6"/><polygon class="cls-1" points="716 496.6 585.88 695.56 585.88 504.15 716 305.18 716 496.6"/><rect class="cls-2" x="227.82" y="504.15" width="358.07" height="191.41"/><polygon class="cls-2" points="812.04 370.01 697.49 568.65 587.63 504.15 716 306 812.04 370.01"/><polygon class="cls-2" points="286.61 368.26 148.53 566.91 226.96 503.97 356.9 305.18 286.61 368.26"/><path class="cls-32" d="M392.38,639.46h31.89a21.48,21.48,0,0,0,0-43H414.11l-21.73-18.86h31.89a40.35,40.35,0,0,1,15.19,77.72l25.14,21.82H435.84Z"/><path class="cls-33" d="M408,615.36H376.07a21.48,21.48,0,1,0,0,43h10.15L408,677.18H376.07a40.35,40.35,0,0,1-15.2-77.72l-25.14-21.82H364.5Z"/></g></g></svg>