<svg width="30" height="30" viewBox="0 0 30 30" fill="none" xmlns="http://www.w3.org/2000/svg">
<path d="M2.4992 3.33433C2.95935 3.33433 3.33238 2.9613 3.33238 2.50115C3.33238 2.041 2.95935 1.66797 2.4992 1.66797C2.03904 1.66797 1.66602 2.041 1.66602 2.50115C1.66602 2.9613 2.03904 3.33433 2.4992 3.33433Z" fill="#C4CBD2"/>
<path d="M2.4992 8.33336C2.95935 8.33336 3.33238 7.96033 3.33238 7.50017C3.33238 7.04002 2.95935 6.66699 2.4992 6.66699C2.03904 6.66699 1.66602 7.04002 1.66602 7.50017C1.66602 7.96033 2.03904 8.33336 2.4992 8.33336Z" fill="#C4CBD2"/>
<path d="M2.4992 13.3338C2.95935 13.3338 3.33238 12.9608 3.33238 12.5007C3.33238 12.0405 2.95935 11.6675 2.4992 11.6675C2.03904 11.6675 1.66602 12.0405 1.66602 12.5007C1.66602 12.9608 2.03904 13.3338 2.4992 13.3338Z" fill="#C4CBD2"/>
<path d="M2.4992 18.3343C2.95935 18.3343 3.33238 17.9613 3.33238 17.5012C3.33238 17.041 2.95935 16.668 2.4992 16.668C2.03904 16.668 1.66602 17.041 1.66602 17.5012C1.66602 17.9613 2.03904 18.3343 2.4992 18.3343Z" fill="#C4CBD2"/>
<path d="M2.4992 23.3334C2.95935 23.3334 3.33238 22.9603 3.33238 22.5002C3.33238 22.04 2.95935 21.667 2.4992 21.667C2.03904 21.667 1.66602 22.04 1.66602 22.5002C1.66602 22.9603 2.03904 23.3334 2.4992 23.3334Z" fill="#C4CBD2"/>
<path d="M2.4992 28.3338C2.95935 28.3338 3.33238 27.9608 3.33238 27.5007C3.33238 27.0405 2.95935 26.6675 2.4992 26.6675C2.03904 26.6675 1.66602 27.0405 1.66602 27.5007C1.66602 27.9608 2.03904 28.3338 2.4992 28.3338Z" fill="#C4CBD2"/>
<path d="M7.49969 3.33433C7.95984 3.33433 8.33287 2.9613 8.33287 2.50115C8.33287 2.041 7.95984 1.66797 7.49969 1.66797C7.03953 1.66797 6.6665 2.041 6.6665 2.50115C6.6665 2.9613 7.03953 3.33433 7.49969 3.33433Z" fill="#C4CBD2"/>
<path d="M7.49969 8.33336C7.95984 8.33336 8.33287 7.96033 8.33287 7.50017C8.33287 7.04002 7.95984 6.66699 7.49969 6.66699C7.03953 6.66699 6.6665 7.04002 6.6665 7.50017C6.6665 7.96033 7.03953 8.33336 7.49969 8.33336Z" fill="#C4CBD2"/>
<path d="M7.49969 13.3338C7.95984 13.3338 8.33287 12.9608 8.33287 12.5007C8.33287 12.0405 7.95984 11.6675 7.49969 11.6675C7.03953 11.6675 6.6665 12.0405 6.6665 12.5007C6.6665 12.9608 7.03953 13.3338 7.49969 13.3338Z" fill="#C4CBD2"/>
<path d="M7.49969 18.3343C7.95984 18.3343 8.33287 17.9613 8.33287 17.5012C8.33287 17.041 7.95984 16.668 7.49969 16.668C7.03953 16.668 6.6665 17.041 6.6665 17.5012C6.6665 17.9613 7.03953 18.3343 7.49969 18.3343Z" fill="#C4CBD2"/>
<path d="M7.49969 23.3334C7.95984 23.3334 8.33287 22.9603 8.33287 22.5002C8.33287 22.04 7.95984 21.667 7.49969 21.667C7.03953 21.667 6.6665 22.04 6.6665 22.5002C6.6665 22.9603 7.03953 23.3334 7.49969 23.3334Z" fill="#C4CBD2"/>
<path d="M7.49969 28.3338C7.95984 28.3338 8.33287 27.9608 8.33287 27.5007C8.33287 27.0405 7.95984 26.6675 7.49969 26.6675C7.03953 26.6675 6.6665 27.0405 6.6665 27.5007C6.6665 27.9608 7.03953 28.3338 7.49969 28.3338Z" fill="#C4CBD2"/>
<path d="M12.5002 3.33433C12.9603 3.33433 13.3334 2.9613 13.3334 2.50115C13.3334 2.041 12.9603 1.66797 12.5002 1.66797C12.04 1.66797 11.667 2.041 11.667 2.50115C11.667 2.9613 12.04 3.33433 12.5002 3.33433Z" fill="#C4CBD2"/>
<path d="M12.5002 8.33336C12.9603 8.33336 13.3334 7.96033 13.3334 7.50017C13.3334 7.04002 12.9603 6.66699 12.5002 6.66699C12.04 6.66699 11.667 7.04002 11.667 7.50017C11.667 7.96033 12.04 8.33336 12.5002 8.33336Z" fill="#C4CBD2"/>
<path d="M12.5002 13.3338C12.9603 13.3338 13.3334 12.9608 13.3334 12.5007C13.3334 12.0405 12.9603 11.6675 12.5002 11.6675C12.04 11.6675 11.667 12.0405 11.667 12.5007C11.667 12.9608 12.04 13.3338 12.5002 13.3338Z" fill="#C4CBD2"/>
<path d="M12.5002 18.3343C12.9603 18.3343 13.3334 17.9613 13.3334 17.5012C13.3334 17.041 12.9603 16.668 12.5002 16.668C12.04 16.668 11.667 17.041 11.667 17.5012C11.667 17.9613 12.04 18.3343 12.5002 18.3343Z" fill="#C4CBD2"/>
<path d="M12.5002 23.3334C12.9603 23.3334 13.3334 22.9603 13.3334 22.5002C13.3334 22.04 12.9603 21.667 12.5002 21.667C12.04 21.667 11.667 22.04 11.667 22.5002C11.667 22.9603 12.04 23.3334 12.5002 23.3334Z" fill="#C4CBD2"/>
<path d="M12.5002 28.3338C12.9603 28.3338 13.3334 27.9608 13.3334 27.5007C13.3334 27.0405 12.9603 26.6675 12.5002 26.6675C12.04 26.6675 11.667 27.0405 11.667 27.5007C11.667 27.9608 12.04 28.3338 12.5002 28.3338Z" fill="#C4CBD2"/>
<path d="M17.4992 3.33433C17.9594 3.33433 18.3324 2.9613 18.3324 2.50115C18.3324 2.041 17.9594 1.66797 17.4992 1.66797C17.039 1.66797 16.666 2.041 16.666 2.50115C16.666 2.9613 17.039 3.33433 17.4992 3.33433Z" fill="#C4CBD2"/>
<path d="M17.4992 8.33336C17.9594 8.33336 18.3324 7.96033 18.3324 7.50017C18.3324 7.04002 17.9594 6.66699 17.4992 6.66699C17.039 6.66699 16.666 7.04002 16.666 7.50017C16.666 7.96033 17.039 8.33336 17.4992 8.33336Z" fill="#C4CBD2"/>
<path d="M17.4992 13.3338C17.9594 13.3338 18.3324 12.9608 18.3324 12.5007C18.3324 12.0405 17.9594 11.6675 17.4992 11.6675C17.039 11.6675 16.666 12.0405 16.666 12.5007C16.666 12.9608 17.039 13.3338 17.4992 13.3338Z" fill="#C4CBD2"/>
<path d="M17.4992 18.3343C17.9594 18.3343 18.3324 17.9613 18.3324 17.5012C18.3324 17.041 17.9594 16.668 17.4992 16.668C17.039 16.668 16.666 17.041 16.666 17.5012C16.666 17.9613 17.039 18.3343 17.4992 18.3343Z" fill="#C4CBD2"/>
<path d="M17.4992 23.3334C17.9594 23.3334 18.3324 22.9603 18.3324 22.5002C18.3324 22.04 17.9594 21.667 17.4992 21.667C17.039 21.667 16.666 22.04 16.666 22.5002C16.666 22.9603 17.039 23.3334 17.4992 23.3334Z" fill="#C4CBD2"/>
<path d="M17.4992 28.3338C17.9594 28.3338 18.3324 27.9608 18.3324 27.5007C18.3324 27.0405 17.9594 26.6675 17.4992 26.6675C17.039 26.6675 16.666 27.0405 16.666 27.5007C16.666 27.9608 17.039 28.3338 17.4992 28.3338Z" fill="#C4CBD2"/>
<path d="M22.4997 3.33433C22.9598 3.33433 23.3329 2.9613 23.3329 2.50115C23.3329 2.041 22.9598 1.66797 22.4997 1.66797C22.0395 1.66797 21.6665 2.041 21.6665 2.50115C21.6665 2.9613 22.0395 3.33433 22.4997 3.33433Z" fill="#C4CBD2"/>
<path d="M22.4997 8.33336C22.9598 8.33336 23.3329 7.96033 23.3329 7.50017C23.3329 7.04002 22.9598 6.66699 22.4997 6.66699C22.0395 6.66699 21.6665 7.04002 21.6665 7.50017C21.6665 7.96033 22.0395 8.33336 22.4997 8.33336Z" fill="#C4CBD2"/>
<path d="M22.4997 13.3338C22.9598 13.3338 23.3329 12.9608 23.3329 12.5007C23.3329 12.0405 22.9598 11.6675 22.4997 11.6675C22.0395 11.6675 21.6665 12.0405 21.6665 12.5007C21.6665 12.9608 22.0395 13.3338 22.4997 13.3338Z" fill="#C4CBD2"/>
<path d="M22.4997 18.3343C22.9598 18.3343 23.3329 17.9613 23.3329 17.5012C23.3329 17.041 22.9598 16.668 22.4997 16.668C22.0395 16.668 21.6665 17.041 21.6665 17.5012C21.6665 17.9613 22.0395 18.3343 22.4997 18.3343Z" fill="#C4CBD2"/>
<path d="M22.4997 23.3334C22.9598 23.3334 23.3329 22.9603 23.3329 22.5002C23.3329 22.04 22.9598 21.667 22.4997 21.667C22.0395 21.667 21.6665 22.04 21.6665 22.5002C21.6665 22.9603 22.0395 23.3334 22.4997 23.3334Z" fill="#C4CBD2"/>
<path d="M22.4997 28.3338C22.9598 28.3338 23.3329 27.9608 23.3329 27.5007C23.3329 27.0405 22.9598 26.6675 22.4997 26.6675C22.0395 26.6675 21.6665 27.0405 21.6665 27.5007C21.6665 27.9608 22.0395 28.3338 22.4997 28.3338Z" fill="#C4CBD2"/>
<path d="M27.5002 3.33433C27.9603 3.33433 28.3334 2.9613 28.3334 2.50115C28.3334 2.041 27.9603 1.66797 27.5002 1.66797C27.04 1.66797 26.667 2.041 26.667 2.50115C26.667 2.9613 27.04 3.33433 27.5002 3.33433Z" fill="#C4CBD2"/>
<path d="M27.5002 8.33336C27.9603 8.33336 28.3334 7.96033 28.3334 7.50017C28.3334 7.04002 27.9603 6.66699 27.5002 6.66699C27.04 6.66699 26.667 7.04002 26.667 7.50017C26.667 7.96033 27.04 8.33336 27.5002 8.33336Z" fill="#C4CBD2"/>
<path d="M27.5002 13.3338C27.9603 13.3338 28.3334 12.9608 28.3334 12.5007C28.3334 12.0405 27.9603 11.6675 27.5002 11.6675C27.04 11.6675 26.667 12.0405 26.667 12.5007C26.667 12.9608 27.04 13.3338 27.5002 13.3338Z" fill="#C4CBD2"/>
<path d="M27.5002 18.3343C27.9603 18.3343 28.3334 17.9613 28.3334 17.5012C28.3334 17.041 27.9603 16.668 27.5002 16.668C27.04 16.668 26.667 17.041 26.667 17.5012C26.667 17.9613 27.04 18.3343 27.5002 18.3343Z" fill="#C4CBD2"/>
<path d="M27.5002 23.3334C27.9603 23.3334 28.3334 22.9603 28.3334 22.5002C28.3334 22.04 27.9603 21.667 27.5002 21.667C27.04 21.667 26.667 22.04 26.667 22.5002C26.667 22.9603 27.04 23.3334 27.5002 23.3334Z" fill="#C4CBD2"/>
<path d="M27.5002 28.3338C27.9603 28.3338 28.3334 27.9608 28.3334 27.5007C28.3334 27.0405 27.9603 26.6675 27.5002 26.6675C27.04 26.6675 26.667 27.0405 26.667 27.5007C26.667 27.9608 27.04 28.3338 27.5002 28.3338Z" fill="#C4CBD2"/>
<path d="M24.5218 1.66797H13.096L5.47852 16.9025H13.096L9.28711 28.3284L24.5218 13.0939H16.7492L24.5218 1.66797Z" fill="#3D5873"/>
</svg>
