<svg xmlns="http://www.w3.org/2000/svg" width="22" height="22" viewBox="0 0 22 22"><g transform="translate(-2203.756 157.305)"><circle cx="0.611" cy="0.611" r="0.611" transform="translate(2204.978 -156.082)" fill="#151640"/><circle cx="0.611" cy="0.611" r="0.611" transform="translate(2204.978 -152.416)" fill="#151640"/><circle cx="0.611" cy="0.611" r="0.611" transform="translate(2204.978 -148.749)" fill="#151640"/><circle cx="0.611" cy="0.611" r="0.611" transform="translate(2204.978 -145.082)" fill="#151640"/><circle cx="0.611" cy="0.611" r="0.611" transform="translate(2204.978 -141.416)" fill="#151640"/><circle cx="0.611" cy="0.611" r="0.611" transform="translate(2204.978 -137.749)" fill="#151640"/><circle cx="0.611" cy="0.611" r="0.611" transform="translate(2208.645 -156.082)" fill="#151640"/><circle cx="0.611" cy="0.611" r="0.611" transform="translate(2208.645 -152.416)" fill="#151640"/><circle cx="0.611" cy="0.611" r="0.611" transform="translate(2208.645 -148.749)" fill="#151640"/><circle cx="0.611" cy="0.611" r="0.611" transform="translate(2208.645 -145.082)" fill="#151640"/><circle cx="0.611" cy="0.611" r="0.611" transform="translate(2208.645 -141.416)" fill="#151640"/><circle cx="0.611" cy="0.611" r="0.611" transform="translate(2208.645 -137.749)" fill="#151640"/><circle cx="0.611" cy="0.611" r="0.611" transform="translate(2212.312 -156.082)" fill="#151640"/><circle cx="0.611" cy="0.611" r="0.611" transform="translate(2212.312 -152.416)" fill="#151640"/><circle cx="0.611" cy="0.611" r="0.611" transform="translate(2212.312 -148.749)" fill="#151640"/><circle cx="0.611" cy="0.611" r="0.611" transform="translate(2212.312 -145.082)" fill="#151640"/><circle cx="0.611" cy="0.611" r="0.611" transform="translate(2212.312 -141.416)" fill="#151640"/><circle cx="0.611" cy="0.611" r="0.611" transform="translate(2212.312 -137.749)" fill="#151640"/><circle cx="0.611" cy="0.611" r="0.611" transform="translate(2215.978 -156.082)" fill="#151640"/><circle cx="0.611" cy="0.611" r="0.611" transform="translate(2215.978 -152.416)" fill="#151640"/><circle cx="0.611" cy="0.611" r="0.611" transform="translate(2215.978 -148.749)" fill="#151640"/><circle cx="0.611" cy="0.611" r="0.611" transform="translate(2215.978 -145.082)" fill="#151640"/><circle cx="0.611" cy="0.611" r="0.611" transform="translate(2215.978 -141.416)" fill="#151640"/><circle cx="0.611" cy="0.611" r="0.611" transform="translate(2215.978 -137.749)" fill="#151640"/><circle cx="0.611" cy="0.611" r="0.611" transform="translate(2219.645 -156.082)" fill="#151640"/><circle cx="0.611" cy="0.611" r="0.611" transform="translate(2219.645 -152.416)" fill="#151640"/><circle cx="0.611" cy="0.611" r="0.611" transform="translate(2219.645 -148.749)" fill="#151640"/><circle cx="0.611" cy="0.611" r="0.611" transform="translate(2219.645 -145.082)" fill="#151640"/><circle cx="0.611" cy="0.611" r="0.611" transform="translate(2219.645 -141.416)" fill="#151640"/><circle cx="0.611" cy="0.611" r="0.611" transform="translate(2219.645 -137.749)" fill="#151640"/><circle cx="0.611" cy="0.611" r="0.611" transform="translate(2223.312 -156.082)" fill="#151640"/><circle cx="0.611" cy="0.611" r="0.611" transform="translate(2223.312 -152.416)" fill="#151640"/><circle cx="0.611" cy="0.611" r="0.611" transform="translate(2223.312 -148.749)" fill="#151640"/><circle cx="0.611" cy="0.611" r="0.611" transform="translate(2223.312 -145.082)" fill="#151640"/><circle cx="0.611" cy="0.611" r="0.611" transform="translate(2223.312 -141.416)" fill="#151640"/><circle cx="0.611" cy="0.611" r="0.611" transform="translate(2223.312 -137.749)" fill="#151640"/><path d="M2221.739-156.082h-8.379l-5.586,11.172h5.586l-2.793,8.379,11.172-11.172h-5.7Z" fill="#c4cbd2"/></g><rect width="22" height="22" fill="none"/></svg>