<svg id="Layer_1" data-name="Layer 1" xmlns="http://www.w3.org/2000/svg" viewBox="0 0 1160 800"><defs><style>.cls-1{fill:#fff;}.cls-2{fill:#091440;}.cls-3{fill:#c4cbd2;}.cls-4{fill:none;}.cls-5{fill:#ffe49e;}.cls-6{fill:#b07c07;}.cls-7{fill:#ffc724;}.cls-8{fill:#081540;}.cls-9{fill:#ffc84e;}.cls-10{fill:#ffe4a7;}.cls-11{fill:#2dd8a3;}</style></defs><rect class="cls-1" width="1160" height="800"/><rect class="cls-2" x="44.73" y="45.88" width="1070.27" height="340" rx="14"/><path class="cls-2" d="M471.92,254.81a1.5,1.5,0,0,0,0-3,1.5,1.5,0,0,0,0,3Z"/><rect class="cls-3" x="44.73" y="405.69" width="343.33" height="350" rx="14"/><rect class="cls-3" x="773.26" y="406.19" width="343.33" height="350" rx="14"/><rect class="cls-3" x="408.2" y="406.19" width="343.33" height="350" rx="14"/><rect class="cls-1" x="864.93" y="558.39" width="75.2" height="17.8"/><rect class="cls-1" x="950.13" y="558.39" width="74.8" height="17.8"/><rect class="cls-1" x="864.93" y="615.99" width="75.2" height="20.2"/><rect class="cls-1" x="950.13" y="615.99" width="74.8" height="20.2"/><rect class="cls-1" x="864.93" y="501.19" width="160" height="20"/><rect class="cls-2" x="864.93" y="568.39" width="75.2" height="35.2"/><rect class="cls-2" x="950.13" y="568.39" width="74.8" height="35.2"/><path class="cls-2" d="M940.13,626h-75.2v25.2a10,10,0,0,0,10,10h65.2Z"/><rect class="cls-2" x="950.13" y="625.99" width="74.8" height="35.2"/><rect class="cls-2" x="864.93" y="511.19" width="160" height="35"/><rect class="cls-4" x="854.93" y="491.19" width="180" height="180"/><circle class="cls-1" cx="894.87" cy="631.24" r="39.95"/><polygon class="cls-2" points="912.55 615.99 891.34 637.2 877.2 623.06 870.13 630.13 891.34 651.34 919.62 623.06 912.55 615.99"/><path class="cls-2" d="M649.86,631.19v-110a10,10,0,0,0-20,0v10h-100v-10a10,10,0,1,0-20,0v110h-10v20h160v-20Zm-20-35h-100v-25h100Zm0-55v20h-100v-20Zm-100,65h100v25h-100Z"/><circle class="cls-1" cx="542.36" cy="536.19" r="12.5"/><circle class="cls-1" cx="567.36" cy="536.19" r="12.5"/><circle class="cls-1" cx="592.36" cy="566.19" r="12.5"/><circle class="cls-1" cx="617.36" cy="566.19" r="12.5"/><circle class="cls-1" cx="542.36" cy="601.19" r="12.5"/><circle class="cls-1" cx="567.36" cy="601.19" r="12.5"/><rect class="cls-4" x="489.86" y="491.19" width="180" height="180"/><path class="cls-1" d="M156.39,510.69h110a10,10,0,0,1,10,10v18h-130v-18A10,10,0,0,1,156.39,510.69Z"/><path class="cls-2" d="M166.39,640.69h120a10,10,0,0,0,10-10v-90a10,10,0,0,0-10-10h-130a10,10,0,0,1-10-10h0v100A20,20,0,0,0,166.39,640.69Z"/><path class="cls-1" d="M271.39,585.69a25.13,25.13,0,0,0,25,25v-50A25.13,25.13,0,0,0,271.39,585.69Z"/><rect class="cls-4" x="126.39" y="490.69" width="180" height="180"/><circle class="cls-1" cx="170.14" cy="616.94" r="33.75"/><path class="cls-2" d="M155.14,605.69A15,15,0,0,0,161.55,618a35.49,35.49,0,0,0-15.81,8.64,26.26,26.26,0,0,0,48.81,0A35.58,35.58,0,0,0,178.73,618a15,15,0,1,0-23.59-12.29Z"/><rect class="cls-5" x="390.05" y="199.24" width="379.62" height="113.16"/><path class="cls-6" d="M766.38,202.53V309.11h-373V202.53h373M773,196H386.76V315.69H773V196Z"/><rect class="cls-5" x="310.08" y="172.55" width="86.6" height="166.54"/><path class="cls-6" d="M393.34,175.88V335.75H313.41V175.88h79.93m6.66-6.66H306.74v173.2H400V169.22Z"/><rect class="cls-5" x="763.05" y="172.55" width="86.6" height="166.54"/><path class="cls-6" d="M846.32,175.88V335.75H766.38V175.88h79.94m6.66-6.66H759.72v173.2H853V169.22Z"/><rect class="cls-7" x="313.41" y="176.01" width="79.94" height="26.65"/><rect class="cls-7" x="313.41" y="209.31" width="79.94" height="26.65"/><rect class="cls-7" x="313.41" y="242.62" width="79.94" height="26.65"/><rect class="cls-7" x="313.41" y="322.56" width="79.94" height="13.32"/><rect class="cls-7" x="400" y="202.65" width="359.72" height="19.98"/><rect class="cls-7" x="400" y="229.3" width="359.72" height="19.98"/><rect class="cls-7" x="400" y="255.94" width="359.72" height="19.98"/><rect class="cls-7" x="766.38" y="176.01" width="79.94" height="26.65"/><rect class="cls-7" x="766.38" y="209.31" width="79.94" height="26.65"/><rect class="cls-7" x="766.38" y="242.62" width="79.94" height="26.65"/><rect class="cls-7" x="766.38" y="322.56" width="79.94" height="13.32"/><circle class="cls-8" cx="579.86" cy="255.82" r="39.97"/><path class="cls-1" d="M594.05,233.61H577L565.68,259H577l-5.68,19,22.7-25.37H582.46Z"/><g id="coin"><circle class="cls-1" cx="212.91" cy="252.23" r="36.4" transform="translate(-70.17 421.99) rotate(-80.78)"/><path class="cls-9" d="M212.91,219.4a32.83,32.83,0,1,1-32.83,32.83,32.87,32.87,0,0,1,32.83-32.83m0-7.14a40,40,0,1,0,40,40,40,40,0,0,0-40-40Z"/><path class="cls-2" d="M222.32,259.57l6.94,7h-7.5l-11.1-11.16h7.49a5.5,5.5,0,0,0,3.93-1.63,5.6,5.6,0,0,0,0-7.9,5.5,5.5,0,0,0-3.93-1.63h-2.77l-5.56-5.59h8.33a11.13,11.13,0,0,1,7.87,3.29,10.91,10.91,0,0,1,2.4,3.62,11.12,11.12,0,0,1,.84,4.26A9.66,9.66,0,0,1,222.32,259.57Z"/><path class="cls-2" d="M202.88,245.61l-6.94-7h7.5l11.1,11.17h-7.49a5.58,5.58,0,1,0,0,11.16h2.78l5.55,5.58h-8.33a11.13,11.13,0,0,1-11.11-11.16A9.67,9.67,0,0,1,202.88,245.61Z"/></g><path class="cls-9" d="M132.09,212.29v79.94h-6.43c-16.85,0-30.51-17.89-30.51-40s13.66-40,30.51-40Z"/><path class="cls-10" d="M97.33,266.18c.27,1,.58,1.92.91,2.86h34.12v-2.86Z"/><path class="cls-10" d="M100.35,274c.49,1,1,1.94,1.56,2.86h30.45V274Z"/><path class="cls-10" d="M95.77,258.33c.12,1,.26,1.91.43,2.86h36.16v-2.86Z"/><path class="cls-10" d="M105.45,281.88a35.11,35.11,0,0,0,2.71,2.86h24.2v-2.86Z"/><path class="cls-10" d="M132.36,290.81V288H112.2a26.17,26.17,0,0,0,5.66,2.86Z"/><path class="cls-10" d="M96.32,242.63q-.25,1.41-.45,2.85h36.49v-2.85Z"/><path class="cls-10" d="M95.46,250.48c0,.59,0,1.19,0,1.78,0,.36,0,.72,0,1.07h36.92v-2.85Z"/><path class="cls-10" d="M120.21,213a25.55,25.55,0,0,0-6.87,2.85h19V213Z"/><path class="cls-10" d="M108.93,219.07a35,35,0,0,0-2.85,2.86h26.28v-2.86Z"/><path class="cls-10" d="M102.34,226.93c-.58.91-1.12,1.87-1.63,2.85h31.65v-2.85Z"/><path class="cls-10" d="M98.49,234.78c-.34.93-.66,1.88-.95,2.85h34.82v-2.85Z"/><ellipse class="cls-9" cx="132.27" cy="252.26" rx="30.51" ry="39.97"/><ellipse class="cls-1" cx="132.27" cy="252.26" rx="23.73" ry="33.19"/><path class="cls-2" d="M127.1,244.8l-5-7.52h5.38l8,12h-5.38a2.91,2.91,0,0,0-1.5.45,4.37,4.37,0,0,0-1.28,1.29,6.33,6.33,0,0,0-.85,1.92,8.74,8.74,0,0,0,0,4.54,6.39,6.39,0,0,0,.85,1.93,4.33,4.33,0,0,0,1.28,1.28,2.82,2.82,0,0,0,1.5.45h2l3.94,5.93h-6a5.68,5.68,0,0,1-3-.9,8.67,8.67,0,0,1-2.59-2.6,13.6,13.6,0,0,1-1.73-3.9,17.48,17.48,0,0,1-.6-4.6,14.13,14.13,0,0,1,1.3-6.46,7.44,7.44,0,0,1,3.7-3.81Z"/><path class="cls-2" d="M140.87,259.72l4.95,7.53h-5.33l-7.9-12h5.33a2.76,2.76,0,0,0,1.49-.45,4.12,4.12,0,0,0,1.27-1.29,6.86,6.86,0,0,0,.85-1.92,9.07,9.07,0,0,0,0-4.55,6.86,6.86,0,0,0-.85-1.92,4.23,4.23,0,0,0-1.27-1.29,2.76,2.76,0,0,0-1.49-.45h-2L132,237.28h5.91a5.59,5.59,0,0,1,3,.9,8.52,8.52,0,0,1,2.56,2.61,13.46,13.46,0,0,1,1.72,3.9,17.55,17.55,0,0,1,.59,4.61,14.59,14.59,0,0,1-1.29,6.5,7.79,7.79,0,0,1-3.66,3.92Z"/><circle class="cls-1" cx="113" cy="111.19" r="40"/><path class="cls-2" d="M95.22,97.86a17.77,17.77,0,0,0,7.6,14.57,42.09,42.09,0,0,0-18.75,10.23,31.13,31.13,0,0,0,57.86,0,42.09,42.09,0,0,0-18.75-10.23,17.78,17.78,0,1,0-28-14.57Z"/><circle class="cls-11" cx="1052" cy="111.19" r="40"/><path class="cls-2" d="M1034.22,97.86a17.77,17.77,0,0,0,7.6,14.57,42.09,42.09,0,0,0-18.75,10.23,31.13,31.13,0,0,0,57.86,0,42.09,42.09,0,0,0-18.75-10.23,17.78,17.78,0,1,0-28-14.57Z"/><circle class="cls-11" cx="218.15" cy="616.94" r="33.75"/><path class="cls-2" d="M203.15,605.69A15,15,0,0,0,209.57,618a35.47,35.47,0,0,0-15.82,8.64,26.26,26.26,0,0,0,48.81,0A35.53,35.53,0,0,0,226.74,618a15,15,0,1,0-23.59-12.29Z"/><path class="cls-1" d="M44.8,215.81V288.6a36.4,36.4,0,0,0,0-72.79Z"/><path class="cls-9" d="M44.8,212.24v7.14a32.83,32.83,0,0,1,0,65.65v7.14a40,40,0,0,0,0-79.93Z"/><path class="cls-2" d="M61,249.77a11.11,11.11,0,0,0-6.85-10.3,10.92,10.92,0,0,0-4.26-.86H44.8v5.58h5.08a5.49,5.49,0,0,1,2.12.42,5.39,5.39,0,0,1,1.8,1.21,5.6,5.6,0,0,1,0,7.9,5.39,5.39,0,0,1-1.8,1.21,5.49,5.49,0,0,1-2.12.42H44.8v2.44l8.68,8.73H61l-6.94-7A9.66,9.66,0,0,0,61,249.77Z"/><path class="cls-9" d="M965.18,212.31v79.94h-6.42c-16.85,0-30.51-17.9-30.51-40s13.66-40,30.51-40Z"/><path class="cls-10" d="M930.42,266.2c.28,1,.58,1.92.91,2.85h34.12V266.2Z"/><path class="cls-10" d="M933.45,274.05c.48,1,1,1.93,1.55,2.85h30.45v-2.85Z"/><path class="cls-10" d="M928.87,258.35c.11,1,.26,1.91.42,2.85h36.16v-2.85Z"/><path class="cls-10" d="M938.54,281.9a33.41,33.41,0,0,0,2.71,2.85h24.2V281.9Z"/><path class="cls-10" d="M965.45,290.82V288H945.29a26.83,26.83,0,0,0,5.66,2.85Z"/><path class="cls-10" d="M929.42,242.64c-.18.94-.33,1.89-.46,2.86h36.49v-2.86Z"/><path class="cls-10" d="M928.55,250.49c0,.6,0,1.19,0,1.79,0,.36,0,.71,0,1.07h36.91v-2.86Z"/><path class="cls-10" d="M953.3,213a25.58,25.58,0,0,0-6.87,2.86h19V213Z"/><path class="cls-10" d="M942,219.09a34.84,34.84,0,0,0-2.85,2.85h26.28v-2.85Z"/><path class="cls-10" d="M935.43,226.94c-.57.92-1.12,1.87-1.63,2.86h31.65v-2.86Z"/><path class="cls-10" d="M931.59,234.79c-.35.93-.66,1.89-1,2.86h34.81v-2.86Z"/><ellipse class="cls-9" cx="965.36" cy="252.28" rx="30.51" ry="39.97"/><ellipse class="cls-1" cx="965.36" cy="252.28" rx="23.73" ry="33.19"/><path class="cls-2" d="M960.19,244.81l-5-7.52h5.37l8,12h-5.37a2.82,2.82,0,0,0-1.51.45,4.33,4.33,0,0,0-1.28,1.28,6.93,6.93,0,0,0-.85,1.93,8.74,8.74,0,0,0,0,4.54,6.86,6.86,0,0,0,.85,1.92,4.37,4.37,0,0,0,1.28,1.29,2.82,2.82,0,0,0,1.51.45h2l3.94,5.93h-6a5.7,5.7,0,0,1-3.06-.91,8.64,8.64,0,0,1-2.58-2.6,13.21,13.21,0,0,1-1.73-3.9,17.07,17.07,0,0,1-.6-4.6,14.06,14.06,0,0,1,1.29-6.45,7.5,7.5,0,0,1,3.7-3.82Z"/><path class="cls-2" d="M974,259.74l5,7.53h-5.34l-7.9-12H971a2.91,2.91,0,0,0,1.5-.45,4.32,4.32,0,0,0,1.26-1.29,6.65,6.65,0,0,0,.85-1.93,8.74,8.74,0,0,0,0-4.54,6.65,6.65,0,0,0-.85-1.93,4.32,4.32,0,0,0-1.26-1.29,2.91,2.91,0,0,0-1.5-.45h-2l-3.9-6.08H971a5.61,5.61,0,0,1,3,.91,8.62,8.62,0,0,1,2.57,2.6,13.91,13.91,0,0,1,1.71,3.91,17.48,17.48,0,0,1,.6,4.6,14.61,14.61,0,0,1-1.3,6.51,7.75,7.75,0,0,1-3.66,3.92Z"/><path class="cls-9" d="M1048.94,212.31v79.94h-6.43c-16.85,0-30.51-17.9-30.51-40s13.66-40,30.51-40Z"/><path class="cls-10" d="M1014.18,266.2c.27,1,.58,1.92.91,2.85h34.12V266.2Z"/><path class="cls-10" d="M1017.2,274.05q.74,1.47,1.56,2.85h30.45v-2.85Z"/><path class="cls-10" d="M1012.62,258.35c.11,1,.26,1.91.42,2.85h36.17v-2.85Z"/><path class="cls-10" d="M1022.3,281.9a31.91,31.91,0,0,0,2.71,2.85h24.2V281.9Z"/><path class="cls-10" d="M1049.21,290.82V288h-20.16a26.75,26.75,0,0,0,5.65,2.85Z"/><path class="cls-10" d="M1013.17,242.64c-.18.94-.33,1.89-.45,2.86h36.49v-2.86Z"/><path class="cls-10" d="M1012.31,250.49c0,.6,0,1.19,0,1.79,0,.36,0,.71,0,1.07h36.92v-2.86Z"/><path class="cls-10" d="M1037.06,213a25.32,25.32,0,0,0-6.87,2.86h19V213Z"/><path class="cls-10" d="M1025.78,219.09a31.94,31.94,0,0,0-2.85,2.85h26.28v-2.85Z"/><path class="cls-10" d="M1019.19,226.94c-.58.92-1.12,1.87-1.63,2.86h31.65v-2.86Z"/><path class="cls-10" d="M1015.34,234.79c-.34.93-.66,1.89-1,2.86h34.82v-2.86Z"/><ellipse class="cls-9" cx="1049.11" cy="252.28" rx="30.51" ry="39.97"/><ellipse class="cls-1" cx="1049.11" cy="252.28" rx="23.73" ry="33.19"/><path class="cls-2" d="M1043.94,244.81l-5-7.52h5.38l8,12h-5.38a2.82,2.82,0,0,0-1.51.45,4.3,4.3,0,0,0-1.27,1.28,6.67,6.67,0,0,0-.86,1.93,8.74,8.74,0,0,0,0,4.54,6.6,6.6,0,0,0,.86,1.92,4.34,4.34,0,0,0,1.27,1.29,2.82,2.82,0,0,0,1.51.45h2l3.94,5.93h-6a5.67,5.67,0,0,1-3.05-.91,8.56,8.56,0,0,1-2.59-2.6,13.47,13.47,0,0,1-1.73-3.9,17.48,17.48,0,0,1-.6-4.6,13.94,13.94,0,0,1,1.3-6.45,7.48,7.48,0,0,1,3.69-3.82Z"/><path class="cls-2" d="M1057.72,259.74l5,7.53h-5.33l-7.91-12h5.34a2.85,2.85,0,0,0,1.49-.45,4.34,4.34,0,0,0,1.27-1.29,6.64,6.64,0,0,0,.84-1.93,8.74,8.74,0,0,0,0-4.54,6.64,6.64,0,0,0-.84-1.93,4.34,4.34,0,0,0-1.27-1.29,2.85,2.85,0,0,0-1.49-.45h-2l-3.91-6.08h5.91a5.57,5.57,0,0,1,3,.91,8.5,8.5,0,0,1,2.57,2.6,13.36,13.36,0,0,1,1.71,3.91,17.48,17.48,0,0,1,.6,4.6,14.48,14.48,0,0,1-1.3,6.51,7.73,7.73,0,0,1-3.65,3.92Z"/></svg>