<svg id="Layer_1" data-name="Layer 1" xmlns="http://www.w3.org/2000/svg" viewBox="0 0 1160 800"><defs><style>.cls-1{fill:#fff;}.cls-2{fill:#091440;}.cls-3{fill:#c4ecca;}.cls-4{fill:#feb8a5;}.cls-5{fill:none;}.cls-6{fill:#c4cbd2;}</style></defs><rect class="cls-1" width="1160" height="800"/><rect id="BG" class="cls-2" x="45" y="45.41" width="1070" height="709.17" rx="14"/><path class="cls-3" d="M384.39,45.41a92,92,0,1,0,172.91,0Z"/><path class="cls-3" d="M893.73,45.41a92,92,0,0,0,175.65,0Z"/><path class="cls-4" d="M1115,475.2A92,92,0,1,0,1115,582Z"/><path class="cls-3" d="M1053.8,754.58a92,92,0,1,0-182.52,0Z"/><path class="cls-1" d="M922,754.58h93.27l7-10.06L941,687.57l-7.76,11.09,2.21,12.57C925.44,725.46,922.71,744.23,922,754.58Z"/><path class="cls-3" d="M720.28,754.58h50.77a92,92,0,1,0-50.77,0Z"/><path class="cls-3" d="M322,754.58a92,92,0,1,0-173.93,0Z"/><path class="cls-3" d="M45,560.51V736.43a92,92,0,0,0,0-175.92Z"/><path class="cls-3" d="M81.58,339.71A91.65,91.65,0,0,0,45,354.79v151a92,92,0,1,0,36.58-166Z"/><circle class="cls-3" cx="392.22" cy="292.87" r="91.96"/><path class="cls-5" d="M441.26,314.13H428.49c-17.87,17.87-47.87,22.34-47.87,22.34l-9.57,9.58-31.91-31.92,9.57-9.57s4.47-30,22.34-47.87V243.92l9.57-9.57,70.21,70.21Z"/><path class="cls-1" d="M371.05,243.92v12.77c-17.87,17.87-22.34,47.87-22.34,47.87l-9.57,9.57,31.91,31.92,9.57-9.58s30-4.47,47.87-22.34h12.77l9.57-9.57-70.21-70.21Z"/><rect class="cls-2" x="335.83" y="331.3" width="22.57" height="13.54" transform="translate(-137.38 344.47) rotate(-45)"/><polygon class="cls-2" points="450.83 285.41 441.26 275.84 431.69 285.41 399.77 253.5 409.35 243.92 399.77 234.35 390.2 243.92 380.62 234.35 371.05 243.92 380.62 253.5 380.62 253.5 390.2 263.07 390.2 263.07 422.11 294.99 422.11 294.99 431.69 304.56 431.69 304.56 441.26 314.13 450.83 304.56 441.26 294.99 450.83 285.41"/><rect class="cls-5" x="323.62" y="223.62" width="137.94" height="137.94" transform="translate(785.18 585.18) rotate(-180)"/><circle class="cls-3" cx="176.18" cy="214.24" r="91.96"/><path class="cls-1" d="M154.6,158.62l81.34,56.95-7.77,11.09-12.57,2.22c-14.5,20.7-43.27,30.31-43.27,30.31l-7.76,11.09-37-25.88,7.76-11.1s-.81-30.31,13.69-51l-2.22-12.57Z"/><rect class="cls-2" x="128.33" y="259.81" width="22.57" height="13.54" transform="translate(-158.84 228.04) rotate(-55)"/><polygon class="cls-2" points="232.61 196.71 221.52 188.95 213.75 200.04 176.78 174.15 184.55 163.06 173.46 155.29 165.69 166.38 154.6 158.62 146.83 169.71 157.93 177.48 157.93 177.48 169.02 185.24 169.02 185.24 205.99 211.13 205.99 211.13 217.08 218.9 217.08 218.9 228.17 226.66 235.94 215.57 224.84 207.8 232.61 196.71"/><rect class="cls-5" x="107.53" y="144.93" width="137.94" height="137.94" transform="translate(387.46 393.9) rotate(170)"/><circle class="cls-3" cx="902.92" cy="234.09" r="91.96"/><path class="cls-1" d="M881.35,178.48l81.33,57-7.76,11.09-12.58,2.21c-14.49,20.71-43.26,30.32-43.26,30.32l-7.77,11.09-37-25.89,7.77-11.09s-.81-30.32,13.69-51l-2.22-12.57Z"/><rect class="cls-2" x="855.07" y="279.67" width="22.57" height="13.54" transform="translate(134.8 831.82) rotate(-55)"/><polygon class="cls-2" points="959.36 216.57 948.27 208.8 940.5 219.9 903.53 194.01 911.29 182.92 900.2 175.15 892.44 186.24 881.35 178.47 873.58 189.57 884.67 197.33 884.67 197.33 895.76 205.1 895.76 205.1 932.73 230.99 932.73 230.99 943.83 238.75 943.83 238.75 954.92 246.52 962.68 235.43 951.59 227.66 959.36 216.57"/><rect class="cls-5" x="834.28" y="164.78" width="137.94" height="137.94" transform="translate(1833.36 307.11) rotate(170)"/><polygon class="cls-2" points="1018.96 725.66 1007.87 717.9 1000.11 728.99 963.13 703.1 970.9 692.01 959.81 684.24 952.04 695.34 940.95 687.57 933.19 698.66 944.28 706.43 944.28 706.43 955.37 714.19 955.37 714.19 992.34 740.08 992.34 740.08 1003.43 747.85 1003.43 747.85 1014.52 755.61 1022.29 744.52 1011.2 736.75 1018.96 725.66"/><circle class="cls-3" cx="686.89" cy="155.46" r="91.96"/><path class="cls-1" d="M675.29,96.94l70.21,70.21-9.57,9.58H723.16c-17.87,17.87-47.87,22.34-47.87,22.34l-9.57,9.57-31.91-31.91,9.57-9.58s4.47-30,22.34-47.87V106.52Z"/><rect class="cls-2" x="630.5" y="193.89" width="22.57" height="13.54" transform="translate(46.09 512.58) rotate(-45)"/><polygon class="cls-2" points="745.5 148 735.93 138.43 726.36 148 694.44 116.09 704.02 106.52 694.44 96.94 684.87 106.52 675.29 96.94 665.72 106.52 675.29 116.09 675.29 116.09 684.87 125.66 684.87 125.66 716.78 157.58 716.78 157.58 726.36 167.15 726.36 167.15 735.93 176.73 745.5 167.15 735.93 157.58 745.5 148"/><rect class="cls-5" x="618.29" y="86.21" width="137.94" height="137.94" transform="translate(1374.52 310.37) rotate(-180)"/><rect class="cls-2" x="414.46" y="115.26" width="22.57" height="13.54" transform="translate(38.41 336.79) rotate(-45)"/><rect class="cls-2" x="925.17" y="56.48" width="22.57" height="13.54" transform="translate(229.55 680.7) rotate(-45)"/><path class="cls-1" d="M734.07,607.65l70.21,70.21-9.57,9.57H781.94c-17.87,17.88-47.87,22.34-47.87,22.34l-9.57,9.58-31.92-31.92,9.58-9.57s4.46-30,22.34-47.87V617.22Z"/><rect class="cls-2" x="689.28" y="704.6" width="22.57" height="13.54" transform="translate(-297.82 703.73) rotate(-45)"/><polygon class="cls-2" points="804.28 658.71 794.71 649.14 785.13 658.71 753.22 626.8 762.79 617.23 753.22 607.65 743.64 617.23 734.07 607.65 724.5 617.22 734.07 626.8 734.07 626.8 743.64 636.37 743.64 636.37 775.56 668.29 775.56 668.29 785.13 677.86 785.13 677.86 794.71 687.43 804.28 677.86 794.71 668.29 804.28 658.71"/><rect class="cls-5" x="677.07" y="596.92" width="137.94" height="137.94" transform="translate(1492.07 1331.79) rotate(-180)"/><circle class="cls-3" cx="529.62" cy="587.54" r="91.96"/><path class="cls-1" d="M518,529l70.21,70.21-9.57,9.57H565.9C548,626.67,518,631.14,518,631.14l-9.57,9.58L476.54,608.8l9.58-9.57s4.47-30,22.34-47.87V538.59Z"/><rect class="cls-2" x="473.24" y="625.97" width="22.57" height="13.54" transform="translate(-305.5 527.93) rotate(-45)"/><polygon class="cls-2" points="588.24 580.08 578.67 570.51 569.09 580.08 537.18 548.17 546.75 538.59 537.18 529.02 527.61 538.59 518.03 529.02 508.46 538.59 518.03 548.17 518.03 548.17 527.61 557.74 527.61 557.74 559.52 589.65 559.52 589.65 569.09 599.23 569.09 599.23 578.67 608.8 588.24 599.23 578.67 589.65 588.24 580.08"/><rect class="cls-5" x="461.03" y="518.29" width="137.94" height="137.94" transform="translate(1060 1174.52) rotate(-180)"/><path class="cls-1" d="M76,374.66l81.33,56.95-7.76,11.09L137,444.92c-14.5,20.7-43.27,30.31-43.27,30.31l-7.76,11.09L49,460.43l7.76-11.09s-.81-30.32,13.69-51L68.2,385.75Z"/><rect class="cls-2" x="49.7" y="475.85" width="22.57" height="13.54" transform="matrix(0.57, -0.82, 0.82, 0.57, -369.34, 255.75)"/><polygon class="cls-2" points="153.98 412.75 142.89 404.99 135.12 416.08 98.15 390.19 105.92 379.1 94.83 371.33 87.06 382.42 75.97 374.66 68.2 385.75 79.29 393.51 79.29 393.51 90.39 401.28 90.39 401.28 127.36 427.17 127.36 427.17 138.45 434.93 138.45 434.93 149.54 442.7 157.3 431.61 146.21 423.84 153.98 412.75"/><path class="cls-4" d="M255.19,91a91.9,91.9,0,0,0,79.43-45.6H175.76A91.9,91.9,0,0,0,255.19,91Z"/><path class="cls-4" d="M313.79,416.44a92,92,0,1,0,92,92A92,92,0,0,0,313.79,416.44Z"/><path class="cls-2" d="M296.76,549c0-10.08,7.22-16.94,16.92-16.94S330.6,538.87,330.6,549s-7.22,17.23-16.92,17.23S296.76,559,296.76,549Zm5.31-75.69-.82-22.5h24.86l-.82,22.5-3.45,47.67H305.52Z"/><path class="cls-4" d="M822.93,357.59a92,92,0,1,0,92,92A92,92,0,0,0,822.93,357.59Z"/><path class="cls-2" d="M805.91,490.1c0-10.08,7.22-16.94,16.92-16.94s16.91,6.86,16.91,16.94-7.21,17.23-16.91,17.23S805.91,500.17,805.91,490.1Zm5.31-75.69-.83-22.5h24.87l-.83,22.5L831,462.08H814.67Z"/><path class="cls-2" d="M1023.1,569.15c0-10.08,7.22-16.94,16.92-16.94s16.92,6.86,16.92,16.94-7.22,17.23-16.92,17.23S1023.1,579.23,1023.1,569.15Zm5.32-75.69-.83-22.5h24.87l-.83,22.5-3.45,47.67h-16.32Z"/><path class="cls-2" d="M239.06,45.41a17,17,0,0,0,32,0Z"/><path class="cls-1" d="M45,676.32a66.51,66.51,0,0,0,12.56-13.2l12.57-2.22,7.77-11.09-32.9-23Z"/><polygon class="cls-2" points="74.56 630.95 63.47 623.18 55.7 634.28 44.99 626.78 44.99 643.31 47.94 645.37 47.94 645.37 59.03 653.13 59.03 653.13 70.12 660.9 77.89 649.81 66.8 642.04 74.56 630.95"/><path class="cls-1" d="M260.29,754.58a62.63,62.63,0,0,0,11.06-8.71h12.77l9.57-9.57-70.21-70.21-9.57,9.57v12.77C196,706.3,191.57,736.3,191.57,736.3L182,745.87l8.7,8.71Z"/><polygon class="cls-2" points="293.69 717.15 284.12 707.58 274.55 717.15 242.63 685.24 252.21 675.66 242.63 666.09 233.06 675.66 223.48 666.09 213.91 675.66 223.48 685.24 223.48 685.24 233.06 694.81 233.06 694.81 264.97 726.73 264.97 726.73 274.55 736.3 274.55 736.3 284.12 745.87 293.69 736.3 284.12 726.73 293.69 717.15"/><path class="cls-3" d="M529.15,754.58a92,92,0,0,0-156.08,0Z"/><polygon class="cls-2" points="467.96 754.58 468.24 754.29 458.67 744.72 449.1 754.29 439.52 744.72 429.95 754.29 430.23 754.58 467.96 754.58"/><path class="cls-4" d="M1115,62.16a92.12,92.12,0,0,0,0,81.85Z"/><path class="cls-3" d="M1115,220.48a93.07,93.07,0,0,0-12.33,1.33A92,92,0,0,0,1115,404.28Z"/><rect class="cls-2" x="1070.78" y="357.95" width="22.57" height="13.54" transform="translate(162.66 1041.9) rotate(-55)"/><path class="cls-1" d="M1115,269.32l-17.94-12.56-7.77,11.09,2.22,12.57c-14.5,20.7-13.69,51-13.69,51l-7.77,11.09,37,25.89,7.77-11.09.21-.07Z"/><polygon class="cls-2" points="1115 254.74 1108.15 264.52 1097.06 256.76 1089.29 267.85 1100.38 275.61 1100.38 275.61 1111.47 283.38 1111.47 283.38 1115 285.85 1115 254.74"/><path class="cls-1" d="M934.57,45.41l25.82,25.82L970,61.66s23-3.42,40.68-16.25Z"/><path class="cls-1" d="M445.45,45.41c-14.35,18-18.11,43.11-18.11,43.11l-9.57,9.57L449.68,130l9.58-9.58s30-4.46,47.87-22.34h12.76l9.58-9.57L486.36,45.41Z"/><polygon class="cls-2" points="519.89 59.8 510.32 69.37 486.36 45.41 467.21 45.41 468.83 47.03 468.83 47.03 500.74 78.95 500.74 78.95 510.32 88.52 510.32 88.52 519.89 98.09 529.47 88.52 519.89 78.95 529.47 69.37 519.89 59.8"/><circle class="cls-1" cx="580" cy="400" r="240"/><rect class="cls-5" x="399.47" y="220.38" width="360" height="360"/><path class="cls-6" d="M656,448.6,531.51,324.15l17-17h22.63c31.68-31.68,84.85-39.6,84.85-39.6l17-17,56.56,56.57-17,17s-7.92,53.17-39.59,84.85v22.63Z"/><rect class="cls-2" x="695.36" y="252.75" width="40" height="24" transform="translate(22.32 583.38) rotate(-45)"/><rect class="cls-2" x="590.23" y="289.89" width="24" height="176" transform="translate(-90.82 536.52) rotate(-45)"/><path class="cls-6" d="M503.23,352.43,627.68,476.88l-17,17H588.08c-31.68,31.68-84.85,39.6-84.85,39.6l-17,17-56.57-56.57,17-17s7.92-53.17,39.6-84.85V369.4Z"/><rect class="cls-2" x="423.83" y="524.28" width="40" height="24" transform="translate(-249.21 470.91) rotate(-45)"/><polygon class="cls-2" points="627.68 442.94 610.71 425.97 593.74 442.94 537.17 386.37 554.14 369.4 537.17 352.43 520.2 369.4 503.23 352.43 486.26 369.4 503.23 386.37 503.23 386.37 520.2 403.34 520.2 403.34 576.77 459.91 576.77 459.91 593.74 476.88 593.74 476.88 610.71 493.85 627.68 476.88 610.71 459.91 627.68 442.94"/></svg>