<svg width="22" height="22" viewBox="0 0 22 22" fill="none" xmlns="http://www.w3.org/2000/svg">
<path d="M7.32715 14.0402C7.32713 15.3715 7.72189 16.6729 8.46152 17.7799C9.20114 18.8869 10.2524 19.7496 11.4824 20.2591C12.7124 20.7686 14.0658 20.9019 15.3715 20.6422C16.6773 20.3825 17.8767 19.7414 18.818 18.8C19.7594 17.8586 20.4005 16.6592 20.6602 15.3535C20.92 14.0478 20.7867 12.6943 20.2772 11.4644C19.7677 10.2344 18.905 9.18311 17.798 8.44348C16.6911 7.70385 15.3896 7.30907 14.0583 7.30908C12.2731 7.30908 10.561 8.01825 9.29868 9.28058C8.03634 10.5429 7.32716 12.255 7.32715 14.0402Z" fill="#C4CBD2"/>
<path d="M16.8179 9.92432H13.5033L11.2935 14.6456H13.5033L12.3983 18.1865L16.8179 13.4653H14.5631L16.8179 9.92432Z" fill="#091440"/>
<path d="M8.4347 8.41624C9.21732 7.63181 10.1556 7.02005 11.1891 6.62035C12.2226 6.22066 13.3283 6.04192 14.4351 6.09563C14.1133 4.96816 13.5027 3.94426 12.6636 3.1253C11.8246 2.30635 10.7862 1.72074 9.65122 1.42645C8.51627 1.13215 7.32414 1.13939 6.19285 1.44742C5.06155 1.75546 4.03032 2.35362 3.20125 3.18269C2.37218 4.01177 1.77402 5.04299 1.46598 6.17429C1.15794 7.30559 1.15071 8.49772 1.445 9.63267C1.7393 10.7676 2.32491 11.806 3.14386 12.6451C3.96281 13.4842 4.98671 14.0948 6.11419 14.4165C6.06046 13.3098 6.2392 12.204 6.63887 11.1706C7.03855 10.1371 7.65029 9.19886 8.4347 8.41624Z" fill="#C4CBD2"/>
<path d="M6.23628 6.22345C6.69313 5.76767 7.31203 5.51159 7.95735 5.51134C8.60267 5.51108 9.22178 5.76666 9.67899 6.22208L9.6805 6.2235L10.5415 5.35655C10.003 4.81681 9.30826 4.46034 8.55577 4.3377V2.44434H7.33354V4.33829C6.58584 4.46149 5.89623 4.81795 5.36332 5.3567C4.93697 5.78443 4.62291 6.31088 4.44907 6.88925C4.27523 7.46763 4.247 8.07999 4.36689 8.6719C4.48677 9.26381 4.75106 9.81693 5.13625 10.2821C5.52144 10.7472 6.0156 11.11 6.57479 11.3381V11.3376C6.62265 11.2053 6.67462 11.0739 6.72967 10.9437C6.83454 10.6962 6.95182 10.4543 7.08108 10.2186C6.70282 10.0724 6.36705 9.83403 6.10421 9.52519C5.84136 9.21635 5.65976 8.84679 5.57586 8.45001C5.49196 8.05324 5.50842 7.6418 5.62374 7.25299C5.73906 6.86418 5.94961 6.51031 6.23628 6.22345Z" fill="#091440"/>
</svg>
