<svg width="21" height="20" viewBox="0 0 21 20" fill="none" xmlns="http://www.w3.org/2000/svg">
<path d="M18.778 15.5555V3.33328C18.778 3.03859 18.6609 2.75598 18.4526 2.5476C18.2442 2.33923 17.9616 2.22217 17.6669 2.22217C17.3722 2.22217 17.0896 2.33923 16.8812 2.5476C16.6728 2.75598 16.5558 3.03859 16.5558 3.33328V4.44439H5.44466V3.33328C5.44466 3.03859 5.3276 2.75598 5.11922 2.5476C4.91085 2.33923 4.62824 2.22217 4.33355 2.22217C4.03887 2.22217 3.75625 2.33923 3.54788 2.5476C3.3395 2.75598 3.22244 3.03859 3.22244 3.33328V15.5555H2.11133V17.7777H19.8891V15.5555H18.778ZM16.5558 11.6666H5.44466V8.88883H16.5558V11.6666ZM16.5558 5.5555V7.77772H5.44466V5.5555H16.5558ZM5.44466 12.7777H16.5558V15.5555H5.44466V12.7777Z" fill="#436ec3"/>
<path d="M6.83322 6.38861C7.60029 6.38861 8.22211 5.76679 8.22211 4.99972C8.22211 4.23266 7.60029 3.61084 6.83322 3.61084C6.06616 3.61084 5.44434 4.23266 5.44434 4.99972C5.44434 5.76679 6.06616 6.38861 6.83322 6.38861Z" fill="#99c1e3"/>
<path d="M9.61106 6.38861C10.3781 6.38861 11 5.76679 11 4.99972C11 4.23266 10.3781 3.61084 9.61106 3.61084C8.844 3.61084 8.22217 4.23266 8.22217 4.99972C8.22217 5.76679 8.844 6.38861 9.61106 6.38861Z" fill="#99c1e3"/>
<path d="M12.3889 9.72211C13.156 9.72211 13.7778 9.10029 13.7778 8.33323C13.7778 7.56616 13.156 6.94434 12.3889 6.94434C11.6218 6.94434 11 7.56616 11 8.33323C11 9.10029 11.6218 9.72211 12.3889 9.72211Z" fill="#99c1e3"/>
<path d="M15.1667 9.72211C15.9338 9.72211 16.5556 9.10029 16.5556 8.33323C16.5556 7.56616 15.9338 6.94434 15.1667 6.94434C14.3997 6.94434 13.7778 7.56616 13.7778 8.33323C13.7778 9.10029 14.3997 9.72211 15.1667 9.72211Z" fill="#99c1e3"/>
<path d="M6.83322 13.6113C7.60029 13.6113 8.22211 12.9895 8.22211 12.2224C8.22211 11.4553 7.60029 10.8335 6.83322 10.8335C6.06616 10.8335 5.44434 11.4553 5.44434 12.2224C5.44434 12.9895 6.06616 13.6113 6.83322 13.6113Z" fill="#99c1e3"/>
<path d="M9.61106 13.6113C10.3781 13.6113 11 12.9895 11 12.2224C11 11.4553 10.3781 10.8335 9.61106 10.8335C8.844 10.8335 8.22217 11.4553 8.22217 12.2224C8.22217 12.9895 8.844 13.6113 9.61106 13.6113Z" fill="#99c1e3"/>
<path d="M5 20C7.76142 20 10 17.7614 10 15C10 12.2386 7.76142 10 5 10C2.23858 10 0 12.2386 0 15C0 17.7614 2.23858 20 5 20Z" fill="#436ec3"/>
<path d="M7.21255 13.0908L4.5575 15.7459L2.78739 13.9759L1.90234 14.8609L4.5575 17.516L8.0976 13.9759L7.21255 13.0908Z" fill="#99c1e3"/>
</svg>
