<svg width="27" height="27" viewBox="0 0 27 27" fill="none" xmlns="http://www.w3.org/2000/svg">
<path d="M23.0293 12.9688C19.612 9.56605 14.4575 4.42441 14.0773 4.02019L13.5747 3.36475L3.43945 13.5002L13.5001 23.5609L23.5621 13.4989L23.0293 12.9688ZM20.6842 12.7502H14.2501V6.32563C15.3126 7.39255 17.2266 9.30619 20.6842 12.7502ZM12.7501 12.7502H6.31069L12.7501 6.31081V12.7502ZM12.7501 14.2502V20.6896L6.31069 14.2502H12.7501ZM14.2501 14.2502H20.6894L14.2501 20.6896V14.2502Z" fill="#436ec3"/>
<path d="M4.49986 14.9729C5.31337 14.9729 5.97286 14.3134 5.97286 13.4999C5.97286 12.6863 5.31337 12.0269 4.49986 12.0269C3.68634 12.0269 3.02686 12.6863 3.02686 13.4999C3.02686 14.3134 3.68634 14.9729 4.49986 14.9729Z" fill="#99c1e3"/>
<path d="M13.4999 5.97286C14.3134 5.97286 14.9729 5.31337 14.9729 4.49986C14.9729 3.68634 14.3134 3.02686 13.4999 3.02686C12.6863 3.02686 12.0269 3.68634 12.0269 4.49986C12.0269 5.31337 12.6863 5.97286 13.4999 5.97286Z" fill="#99c1e3"/>
<path d="M13.4999 23.9729C14.3134 23.9729 14.9729 23.3134 14.9729 22.4999C14.9729 21.6863 14.3134 21.0269 13.4999 21.0269C12.6863 21.0269 12.0269 21.6863 12.0269 22.4999C12.0269 23.3134 12.6863 23.9729 13.4999 23.9729Z" fill="#99c1e3"/>
<path d="M22.4999 14.9729C23.3134 14.9729 23.9729 14.3134 23.9729 13.4999C23.9729 12.6863 23.3134 12.0269 22.4999 12.0269C21.6863 12.0269 21.0269 12.6863 21.0269 13.4999C21.0269 14.3134 21.6863 14.9729 22.4999 14.9729Z" fill="#99c1e3"/>
</svg>
