<svg width="450" height="450" viewBox="0 0 450 450" fill="none" xmlns="http://www.w3.org/2000/svg">
<path d="M375 171.875H75V367.985H375V171.875Z" fill="#C4CBD2"/>
<path d="M75 221.285H375V424.994H75V221.285Z" fill="#091440"/>
<path d="M103.385 147.484V196.873H151.985V147.484C151.973 127.942 159.718 109.195 173.517 95.3578C187.316 81.5209 206.043 73.7258 225.585 73.6842H225.785C245.327 73.6728 264.074 81.417 277.911 95.2164C291.748 109.016 299.543 127.742 299.585 147.284V196.784H348.185V147.39C348.148 114.939 335.24 83.8277 312.294 60.8813C289.347 37.9349 258.236 25.0273 225.785 24.9902C193.322 25.0432 162.206 37.9688 139.26 60.9321C116.314 83.8954 103.413 115.022 103.385 147.484Z" fill="#091440"/>
<path d="M295.742 263.145L207.322 351.565L154.258 298.501L136.611 316.148L207.322 386.859L313.389 280.792L295.742 263.145Z" fill="#C4CBD2"/>
</svg>
