<svg id="Group_1289" data-name="Group 1289" xmlns="http://www.w3.org/2000/svg" width="30" height="25.04" viewBox="0 0 30 25.04">
  <g id="Group_1288" data-name="Group 1288">
    <g id="Group_1284" data-name="Group 1284">
      <path id="Path_528" data-name="Path 528" d="M6.4,6.29,0,0H6.887L17.095,10.04H10.208a4.968,4.968,0,0,0-3.567,1.451,4.907,4.907,0,0,0,0,7.016,4.968,4.968,0,0,0,3.567,1.451H12.79l5.042,4.959H10.208A10.1,10.1,0,0,1,0,14.878,8.52,8.52,0,0,1,6.4,6.29Z" fill="#091440"/>
      <g id="Group_1283" data-name="Group 1283" transform="translate(12.167)">
        <g id="Group_1282" data-name="Group 1282">
          <g id="Group_1281" data-name="Group 1281">
            <path id="Path_529" data-name="Path 529" d="M21.737,18.75l6.4,6.29H21.246L11.038,15h6.887a4.967,4.967,0,0,0,3.567-1.452,4.907,4.907,0,0,0,0-7.016,4.967,4.967,0,0,0-3.567-1.452H15.342L10.3,0h7.625A10.1,10.1,0,0,1,28.133,10.04,8.751,8.751,0,0,1,21.737,18.75Z" transform="translate(-10.3)" fill="#091440"/>
          </g>
        </g>
      </g>
    </g>
  </g>
</svg>