<svg width="16" height="16" viewBox="0 0 16 16" fill="none" xmlns="http://www.w3.org/2000/svg">
<path d="M4.44422 5.97363H0.888672V7.55582H4.44422V5.97363Z" fill="#091440"/>
<path d="M15.1112 5.97363H11.5557V7.55582H15.1112V5.97363Z" fill="#091440"/>
<path d="M5.77756 11.0938H0.888672V12.8893H7.11089L5.77756 11.0938Z" fill="#091440"/>
<path d="M8.88867 12.8893H15.1109V11.0938H10.2055L8.88867 12.8893Z" fill="#091440"/>
<path d="M15.1109 0.888672H0.888672V2.66641H15.1109V0.888672Z" fill="#091440"/>
<path d="M7.57312 11.9824H0.888672V15.1113H7.57312V11.9824Z" fill="#C4CBD2"/>
<path d="M15.1108 11.9824H8.46191V15.1113H15.1108V11.9824Z" fill="#C4CBD2"/>
<path d="M0.888672 1.77832V4.88943H5.48601C6.19763 4.31429 7.08496 4.00055 7.99994 4.00055C8.91493 4.00055 9.80225 4.31429 10.5139 4.88943H15.1109V1.77832H0.888672Z" fill="#C4CBD2"/>
<path d="M15.1107 6.86155H11.835C11.7692 6.63957 11.6849 6.17671 11.5835 5.97266H9.77734V11.5833C10.4857 11.2305 11.0741 10.6764 11.4688 9.99043H15.1107V6.86155Z" fill="#C4CBD2"/>
<path d="M4.41578 5.97266C4.31438 6.17671 4.23004 6.63957 4.16423 6.86155H0.888672V9.99043H4.53059C4.92521 10.6764 5.51362 11.2305 6.222 11.5833V5.97266H4.41578Z" fill="#C4CBD2"/>
<path d="M11.1427 4.85669C10.3364 4.0503 9.251 3.58466 8.11099 3.55608C6.97098 3.52751 5.8636 3.93818 5.01789 4.70317C4.17217 5.46815 3.65283 6.52892 3.56727 7.66607C3.48171 8.80322 3.83648 9.92975 4.5582 10.8127L2.65723 12.7137L3.28574 13.3422L5.18672 11.4412C6.06963 12.1629 7.19617 12.5177 8.33331 12.4321C9.47046 12.3466 10.5312 11.8272 11.2962 10.9815C12.0612 10.1358 12.4719 9.02844 12.4433 7.88844C12.4147 6.74844 11.9491 5.66302 11.1427 4.85669ZM10.514 10.5138C9.90397 11.1237 9.09306 11.4911 8.23229 11.5475C7.37151 11.604 6.51958 11.3456 5.83518 10.8205C5.15079 10.2954 4.6806 9.53941 4.51221 8.69339C4.34382 7.84737 4.4887 6.96897 4.91988 6.22185H6.22203V4.91969C6.76274 4.60823 7.3758 4.44429 7.9998 4.44429C8.62381 4.44429 9.23687 4.60823 9.77758 4.91969V6.22185H11.0797C11.4708 6.89982 11.6273 7.68785 11.525 8.4638C11.4227 9.23976 11.0673 9.96031 10.514 10.5138Z" fill="#091440"/>
</svg>
