<svg viewBox="0 0 400 400" xmlns="http://www.w3.org/2000/svg"><circle cx="365.82" cy="168.61" fill="none" r="12.5"/><path d="m357.92 183.51a34.23 34.23 0 0 0 10-22l1.64-25.18 4.82-74.17a34.25 34.25 0 0 0 -36.38-36.4l-99.42 6.39a34.35 34.35 0 0 0 -22.07 9.93l-205.7 205.68 35.56 35.56 105.87 105.87zm-31.19-130.27a14.29 14.29 0 1 1 0 20.2 14.29 14.29 0 0 1 0-20.2z" fill="#18173f"/><g fill="#8795a2"><path d="m63.92 265.53 19.34-19.34 40.42 18.26 15.44 7.55.43-.43-7.61-15.43-18.69-40 19.34-19.34 70.63 70.63-17.39 17.39-20.83-20.82c-7.17-7.17-16.63-19.67-22.82-27.6l-.43.43 10.65 22.38 14 33.58-7 7-33.58-14-22.17-10.87-.43.43c7.93 6.19 20.43 15.65 27.6 22.82l20.9 20.83-17.17 17.17z"/><path d="m237 203.7-19.78 19.78 11.52 18.47-19.12 19.12-49.12-92.15 22.6-22.6 92.15 49.12-19.78 19.78zm-17.8-11.09-6.09-3.69c-8.48-5-18.8-11.84-27.6-17.17l-.43.43c5.65 8.69 12.39 18.91 17.39 27.38l3.69 6.09z"/><path d="m261.43 136.69-52.38-16.3 20.86-20.86 16.3 6.74c4.79 1.73 10.22 4.13 16.79 6.73l.43-.43c-3-6.09-5.43-11.52-7.39-16.08l-7.39-15.65 20-20 17.17 53.25 54.55 16.3-20.86 20.86-18.26-7c-5.43-2-10.65-4.13-16.73-6.74l-.52.49c2.83 5.87 5 11.08 7.17 16.3l7.39 17.82-20 20z"/></g><path d="m0 0h400v400h-400z" fill="none"/></svg>