<svg viewBox="0 0 400 400" xmlns="http://www.w3.org/2000/svg"><circle cx="365.82" cy="168.61" fill="none" r="12.5"/><path d="m358.46 182.82a34.23 34.23 0 0 0 10-22l1.64-25.18 4.82-74.17a34.25 34.25 0 0 0 -36.41-36.41l-99.41 6.4a34.35 34.35 0 0 0 -22.1 9.93l-205.65 205.68 35.56 35.56 105.87 105.87zm-31.19-130.27a14.29 14.29 0 1 1 0 20.2 14.29 14.29 0 0 1 0-20.2z" fill="#8795a2"/><g fill="#18173f"><path d="m173.16 297.39-35.9-11.53-7.18 7.14 23.72 23.72-18.71 18.71-70.71-70.67 26.76-26.76c15.23-15.23 33.51-23.06 51.13-5.44 10.12 10.12 12.18 21.32 9 31.87l42.75 12.08zm-57.87-19.15 6.71-6.74c7.4-7.4 8.05-14.58 2-20.67s-12-4.13-19.36 3.26l-6.74 6.74z"/><path d="m131.27 197.87 45.73-45.69 15.67 15.67-27 27 11.1 11.1 23.06-23.06 15.67 15.67-23.06 23.06 12.56 12.58 28.07-28.07 15.67 15.67-46.74 46.78z"/><path d="m190.21 138.92 18.71-18.71 55 55 26.76-26.76 15.67 15.67-45.47 45.47z"/></g><path d="m0 0h400v400h-400z" fill="none"/></svg>