<svg viewBox="0 0 400 400" xmlns="http://www.w3.org/2000/svg"><path d="m0 143h188v25h-188z" fill="#18173f"/><path d="m188 230.93v-62.93h-188v62.93 25.07h188z" fill="#8795a2"/><path d="m213 143h187v25h-187z" fill="#18173f"/><path d="m213 230.93v25.07h187v-25.07-62.93h-187z" fill="#8795a2"/><path d="m0 287h188v25h-188z" fill="#18173f"/><path d="m188 374.68v-62.68h-188v62.68 25.32h188z" fill="#8795a2"/><path d="m213 287h187v25h-187z" fill="#18173f"/><path d="m213 374.68v25.32h187v-25.32-62.68h-187z" fill="#8795a2"/><g fill="#18173f"><path d="m0 0v25h250.24 149.76v-25h-149.76z"/><path d="m58.34 35.48h26.66l15.26 40.4 5.39 15.86h.6l5.39-15.86 14.66-40.4h26.6v97.25h-23.9v-28.73c0-9.87 2.09-25 3.29-34.71h-.6l-8.12 22.71-13.47 32.77h-9.58l-13.45-32.77-7.78-22.7h-.6c1.19 9.7 3.31 24.83 3.31 34.7v28.73h-23.66z"/><path d="m220.08 112.09h-27.23l-4.79 20.65h-26.33l29.62-97.25h31.12l29.62 97.25h-27.22zm-4.64-19.9-1.65-6.73c-2.39-9.28-4.79-21.1-7.18-30.82h-.61c-2.09 9.88-4.49 21.55-6.88 30.82l-1.65 6.73z"/><path d="m283 82.76-24.83-47.28h28.73l6.58 15.86c2.09 4.49 4.19 9.87 6.88 16.16h.6c2.09-6.28 4.19-11.67 6-16.16l5.69-15.86h27.53l-24.85 48.52 26.33 48.78h-28.73l-7.78-17.36c-2.39-5.09-4.49-10.17-6.88-16.16h-.6c-2.09 6-4.19 11.07-6.28 16.16l-7.18 17.36h-27.53z"/></g></svg>