<?xml version="1.0" encoding="utf-8"?>
<!-- Generator: Adobe Illustrator 16.0.0, SVG Export Plug-In . SVG Version: 6.00 Build 0)  -->
<!DOCTYPE svg PUBLIC "-//W3C//DTD SVG 1.1//EN" "http://www.w3.org/Graphics/SVG/1.1/DTD/svg11.dtd">
<svg version="1.1" id="Layer_1" xmlns="http://www.w3.org/2000/svg" xmlns:xlink="http://www.w3.org/1999/xlink" x="0px" y="0px"
	 width="325.369px" height="60px" viewBox="0 0 325.369 60" enable-background="new 0 0 325.369 60" xml:space="preserve">
<path id="XMLID_102_" fill="#2ED7A2" d="M33.73,36.807h18.982c7.051,0,12.787-5.738,12.787-12.789
	c0-7.051-5.736-12.791-12.787-12.791h-6.049L33.73,0h18.982c13.264,0,24.016,10.754,24.016,24.018
	c0,10.063-6.189,18.68-14.969,22.251l14.967,12.994H59.6L33.73,36.807z"/>
<path id="XMLID_100_" fill="#2972FF" d="M43,22.457H24.016c-7.049,0-12.787,5.736-12.787,12.787c0,7.053,5.738,12.791,12.787,12.791
	h6.049L43,59.264H24.016C10.754,59.264,0,48.51,0,35.244c0-10.061,6.191-18.68,14.969-22.252L0.002,0h17.127L43,22.457z"/>
<path id="XMLID_97_" fill="#FFFFFF" d="M179.117,41.102v-0.104c0-10.652,8.194-19.004,19.262-19.004
	c7.468,0,12.271,3.133,15.509,7.623l-7.623,5.898c-2.089-2.611-4.488-4.281-7.986-4.281c-5.117,0-8.721,4.334-8.721,9.658v0.104
	c0,5.479,3.604,9.762,8.721,9.762c3.809,0,6.055-1.776,8.248-4.438l7.623,5.431c-3.447,4.75-8.094,8.248-16.185,8.248
	C187.521,60,179.117,52.014,179.117,41.102z"/>
<path id="XMLID_94_" fill="#FFFFFF" d="M217.758,22.455h17.406c5.625,0,9.515,1.473,11.985,3.998
	c2.156,2.102,3.261,4.941,3.261,8.57v0.104c0,5.625-2.996,9.356-7.572,11.306l8.781,12.83h-11.775l-7.413-11.148h-4.472v11.148
	h-10.201V22.455z M234.688,40.123c3.472,0,5.468-1.684,5.468-4.365v-0.104c0-2.891-2.103-4.363-5.521-4.363h-6.678v8.832H234.688z"
	/>
<path id="XMLID_92_" fill="#FFFFFF" d="M255.197,22.463h29.602v8.676h-19.506v5.574h17.666v8.045h-17.666v5.834h19.771v8.678
	h-29.865L255.197,22.463L255.197,22.463z"/>
<path id="XMLID_89_" fill="#FFFFFF" d="M290.401,22.463h14.199c13.146,0,20.769,7.572,20.769,18.193v0.104
	c0,10.621-7.729,18.509-20.979,18.509h-13.988V22.463z M304.76,50.225c6.099,0,10.146-3.365,10.146-9.305v-0.105
	c0-5.891-4.049-9.307-10.146-9.307h-4.153v18.717H304.76z"/>
<path id="XMLID_86_" fill="#FFFFFF" d="M158.311,59.957c-10.803,0-18.645-7.959-18.645-18.926c0-10.83,7.621-18.998,17.729-18.998
	c5.414,0,9.911,2.016,13.002,5.832c2.819,3.479,4.373,8.379,4.373,13.801c0,0.625-0.047,1.203-0.104,1.867h-27.467l0.086,0.531
	c0.988,6.063,5.266,9.83,11.166,9.83c3.883,0,6.924-1.283,10.092-4.275l4.354,3.863C169.121,57.838,164.344,59.957,158.311,59.957z
	 M157.324,28.096c-5.313,0-9.281,4.001-10.111,10.195l-0.068,0.52h20.133l-0.053-0.504
	C166.578,32.008,162.785,28.096,157.324,28.096z"/>
<path id="XMLID_83_" fill="#FFFFFF" d="M114.008,59.957c-8.387,0-16.877-6.525-16.877-18.998c0-12.475,8.49-19,16.877-19
	c4.984,0,9.031,2.094,12.373,6.402l0.822,1.061V5.613h7.643v53.651h-7.643V51.97l-0.834,1.177
	C123.117,57.729,119.074,59.957,114.008,59.957z M116.059,28.471c-6.602,0-11.215,5.134-11.215,12.488
	c0,7.236,4.717,12.488,11.215,12.488c6.434,0,11.285-5.369,11.285-12.488C127.344,33.838,122.492,28.471,116.059,28.471z"/>
</svg>
