<?xml version="1.0" encoding="UTF-8" standalone="no"?>
<svg
   xmlns:dc="http://purl.org/dc/elements/1.1/"
   xmlns:cc="http://creativecommons.org/ns#"
   xmlns:rdf="http://www.w3.org/1999/02/22-rdf-syntax-ns#"
   xmlns:svg="http://www.w3.org/2000/svg"
   xmlns="http://www.w3.org/2000/svg"
   id="svg16"
   version="1.1"
   viewBox="11732 1653 16 16">
  <metadata
     id="metadata20">
    <rdf:RDF>
      <cc:Work
         rdf:about="">
        <dc:format>image/svg+xml</dc:format>
        <dc:type
           rdf:resource="http://purl.org/dc/dcmitype/StillImage" />
        <dc:title></dc:title>
      </cc:Work>
    </rdf:RDF>
  </metadata>
  <defs
     id="defs4">
    <style
       id="style2">.a{fill:#152337;}.b{fill:none;}</style>
  </defs>
  <g
     id="g14"
     transform="translate(11732 1653)">
    <path
       class="a"
       d="M 8,12.668 A 4.639,4.639 0 0 1 4.7,11.299 L 6.446,9.553 H 1.778 v 4.668 l 1.824,-1.824 a 6.22,6.22 0 0 0 10.62,-4.4 H 12.665 A 4.664,4.664 0 0 1 8,12.668 Z"
       id="path6"
       style="fill:#b7deee;fill-opacity:1" />
    <path
       class="a"
       d="M 8,1.778 A 6.222,6.222 0 0 0 1.778,8 H 3.335 A 4.666,4.666 0 0 1 11.303,4.7 L 9.558,6.446 h 4.665 V 1.778 L 12.398,3.602 A 6.193,6.193 0 0 0 8,1.778 Z"
       id="path8"
       style="fill:#b7deee;fill-opacity:1" />
    <rect
       id="rect12"
       height="16"
       width="16"
       class="b" />
  </g>
</svg>
