<svg xmlns="http://www.w3.org/2000/svg" viewBox="1181 1574 16 16"><defs><style>.a{fill:none;}.b{fill:#8795a3;}.c{fill:#09182d;}.d{fill:#69d5f7;}</style></defs><g transform="translate(1162 893)"><rect class="a" width="16" height="16" transform="translate(19 681)"/><g transform="translate(20.017 683.023)"><g transform="translate(0.004)"><path class="b" d="M28.9,85.043c0-.014,0-.028.007-.043C28.9,85.014,28.9,85.028,28.9,85.043Z" transform="translate(-28.893 -84.001)"/><path class="c" d="M30.28,60.37l10.77-.395V58.1a1.2,1.2,0,0,0-1.2-1.2H30.28a1.2,1.2,0,0,0-1.18,1C29.2,58.464,29.69,60.37,30.28,60.37Z" transform="translate(-29.086 -56.9)"/><path class="b" d="M28.8,86.539c0-.014,0-.025,0-.039A.159.159,0,0,0,28.8,86.539Z" transform="translate(-28.796 -85.448)"/><path class="b" d="M28.7,88.328a.078.078,0,0,1,0-.028A.078.078,0,0,0,28.7,88.328Z" transform="translate(-28.7 -87.184)"/><path class="c" d="M351.2,185.4a2.493,2.493,0,0,0,2.492,2.492V182.9A2.494,2.494,0,0,0,351.2,185.4Z" transform="translate(-339.733 -178.42)"/></g><path class="d" d="M41.368,86.1H29.8a1.2,1.2,0,0,1-1.18-1h0c0,.014,0,.028-.007.043v.011c0,.011,0,.025,0,.039a.069.069,0,0,1,0,.025.078.078,0,0,1,0,.028V94.86a1.2,1.2,0,0,0,1.2,1.2h11.57a1.2,1.2,0,0,0,1.2-1.2V93.573a2.492,2.492,0,0,1,0-4.985V87.3A1.2,1.2,0,0,0,41.368,86.1Z" transform="translate(-28.6 -84.097)"/></g></g></svg>