<svg xmlns="http://www.w3.org/2000/svg" width="22" height="22" viewBox="0 0 22 22"><circle cx="6.407" cy="6.407" r="6.407" transform="translate(4.539 4.592)" fill="#99c1e3"/><path d="M234.669-48.651v-2.6H232.6a7.463,7.463,0,0,0-1.333-3.227l1.459-1.468-1.838-1.843-1.445,1.457a7.9,7.9,0,0,0-3.195-1.335v-2.111h-2.6v2.111a7.449,7.449,0,0,0-3.222,1.332l-1.466-1.458-1.841,1.838,1.457,1.477a7.464,7.464,0,0,0-1.334,3.227h-2.018v2.6h2.018a7.874,7.874,0,0,0,1.332,3.19l-1.459,1.45,1.839,1.833,1.472-1.461a7.439,7.439,0,0,0,3.222,1.33v2.082h2.6v-2.082a7.885,7.885,0,0,0,3.194-1.332l1.453,1.459,1.835-1.839-1.461-1.44a7.872,7.872,0,0,0,1.331-3.19Zm-9.723,3.743a5.1,5.1,0,0,1-5.1-5.095,5.1,5.1,0,0,1,5.1-5.1,5.1,5.1,0,0,1,5.1,5.1A5.1,5.1,0,0,1,224.946-44.908Z" transform="translate(-214 61.001)" fill="#2f4d8c"/><rect width="22" height="22" fill="none"/></svg>