<svg xmlns="http://www.w3.org/2000/svg" width="22" height="22" viewBox="0 0 22 22"><defs><style>.a{fill:#091440;}.b{fill:#c4cbd2;}.c{fill:none;}</style></defs><g transform="translate(536 67.409)"><rect class="a" width="11.027" height="5.48" transform="translate(-531.424 -60.076)"/><rect class="b" width="11.027" height="5.48" transform="translate(-529.604 -58.223)"/><circle class="a" cx="1.4" cy="1.4" r="1.4" transform="translate(-525.473 -56.883)"/><circle class="a" cx="0.695" cy="0.695" r="0.695" transform="translate(-521.333 -56.177)"/><circle class="a" cx="0.695" cy="0.695" r="0.695" transform="translate(-528.237 -56.177)"/><path class="b" d="M-519.833-51.222l-.007,1.216.471.006a8.557,8.557,0,0,1-11.759-.451,8.527,8.527,0,0,1-2.436-5.958h-1.223A9.74,9.74,0,0,0-532-49.6a9.777,9.777,0,0,0,13.505.456l-.005.519,1.223.012.028-2.589Z"/><path class="b" d="M-530.177-61.621l.008-1.216-.472,0a8.556,8.556,0,0,1,11.759.451,8.526,8.526,0,0,1,2.437,5.958h1.223a9.746,9.746,0,0,0-2.786-6.812,9.777,9.777,0,0,0-13.505-.456l.006-.519-1.223-.012-.028,2.589Z"/></g><rect class="c" width="22" height="22"/></svg>