<svg viewBox="11711 1652 16 16" xmlns="http://www.w3.org/2000/svg"><path d="m56.222 229.668a4.639 4.639 0 0 1 -3.3-1.369l1.746-1.746h-4.668v4.668l1.824-1.824a6.22 6.22 0 0 0 10.62-4.4h-1.557a4.664 4.664 0 0 1 -4.665 4.671z" fill="#8997a5" transform="translate(11662.778 1435)"/><path d="m56.222 50a6.222 6.222 0 0 0 -6.222 6.222h1.557a4.666 4.666 0 0 1 7.968-3.3l-1.745 1.746h4.665v-4.668l-1.825 1.824a6.193 6.193 0 0 0 -4.398-1.824z" fill="#8997a5" transform="translate(11662.778 1603.778)"/><path d="m11711 1652h16v16h-16z" fill="none"/></svg>