<svg xmlns="http://www.w3.org/2000/svg" width="22" height="22" viewBox="0 0 22 22"><g transform="translate(12796 11044)"><g transform="translate(-12796 -11044)"><g transform="translate(-4042.226 89.409)"><path d="M4048.622-74.743h1.653l7.333-7.333H4046.8v5.48h1.82Z" fill="#99c1e3"/><path d="M4057.83-80.57,4052-74.743h7.646v-5.48h-1.82Z" fill="#99c1e3"/></g><rect width="22" height="22" fill="none"/><g transform="translate(-4042.226 89.409)"><path d="M4058.393-73.222l-.007,1.216.471.006a8.557,8.557,0,0,1-11.759-.451,8.529,8.529,0,0,1-2.437-5.958h-1.223a9.746,9.746,0,0,0,2.786,6.812,9.777,9.777,0,0,0,13.5.456l-.006.519,1.224.012.028-2.589Z" fill="#2f4d8c"/><path d="M4048.049-83.621l.007-1.216-.471-.005a8.556,8.556,0,0,1,11.759.451,8.521,8.521,0,0,1,2.436,5.958H4063a9.74,9.74,0,0,0-2.785-6.812,9.777,9.777,0,0,0-13.505-.456l.006-.519-1.224-.012-.028,2.589Z" fill="#2f4d8c"/></g><rect width="1.222" height="26.37" transform="translate(19.852 1.205) rotate(45)" fill="#2f4d8c"/></g></g></svg>