<svg enable-background="new 0 0 325.369 60" height="60" viewBox="0 0 325.369 60" width="325.369" xmlns="http://www.w3.org/2000/svg"><path d="m33.73 36.807h18.982c7.051 0 12.787-5.738 12.787-12.789s-5.736-12.791-12.787-12.791h-6.049l-12.933-11.227h18.982c13.264 0 24.016 10.754 24.016 24.018 0 10.063-6.189 18.68-14.969 22.251l14.967 12.994h-17.126z" fill="#2ed7a2"/><path d="m43 22.457h-18.984c-7.049 0-12.787 5.736-12.787 12.787 0 7.053 5.738 12.791 12.787 12.791h6.049l12.935 11.229h-18.984c-13.262 0-24.016-10.754-24.016-24.02 0-10.061 6.191-18.68 14.969-22.252l-14.967-12.992h17.127z" fill="#2972ff"/><g fill="#fff"><path d="m179.117 41.102v-.104c0-10.652 8.194-19.004 19.262-19.004 7.468 0 12.271 3.133 15.509 7.623l-7.623 5.898c-2.089-2.611-4.488-4.281-7.986-4.281-5.117 0-8.721 4.334-8.721 9.658v.104c0 5.479 3.604 9.762 8.721 9.762 3.809 0 6.055-1.776 8.248-4.438l7.623 5.431c-3.447 4.75-8.094 8.248-16.185 8.248-10.444.001-18.848-7.985-18.848-18.897z"/><path d="m217.758 22.455h17.406c5.625 0 9.515 1.473 11.985 3.998 2.156 2.102 3.261 4.941 3.261 8.57v.104c0 5.625-2.996 9.356-7.572 11.306l8.781 12.83h-11.775l-7.413-11.148h-4.472v11.148h-10.201zm16.93 17.668c3.472 0 5.468-1.684 5.468-4.365v-.104c0-2.891-2.103-4.363-5.521-4.363h-6.678v8.832z"/><path d="m255.197 22.463h29.602v8.676h-19.506v5.574h17.666v8.045h-17.666v5.834h19.771v8.678h-29.865z"/><path d="m290.401 22.463h14.199c13.146 0 20.769 7.572 20.769 18.193v.104c0 10.621-7.729 18.509-20.979 18.509h-13.988v-36.806zm14.359 27.762c6.099 0 10.146-3.365 10.146-9.305v-.105c0-5.891-4.049-9.307-10.146-9.307h-4.153v18.717z"/><path d="m158.311 59.957c-10.803 0-18.645-7.959-18.645-18.926 0-10.83 7.621-18.998 17.729-18.998 5.414 0 9.911 2.016 13.002 5.832 2.819 3.479 4.373 8.379 4.373 13.801 0 .625-.047 1.203-.104 1.867h-27.467l.086.531c.988 6.063 5.266 9.83 11.166 9.83 3.883 0 6.924-1.283 10.092-4.275l4.354 3.863c-3.776 4.356-8.553 6.475-14.586 6.475zm-.987-31.861c-5.313 0-9.281 4.001-10.111 10.195l-.068.52h20.133l-.053-.504c-.647-6.299-4.44-10.211-9.901-10.211z"/><path d="m114.008 59.957c-8.387 0-16.877-6.525-16.877-18.998 0-12.475 8.49-19 16.877-19 4.984 0 9.031 2.094 12.373 6.402l.822 1.061v-23.809h7.643v53.651h-7.643v-7.294l-.834 1.177c-3.252 4.582-7.295 6.81-12.361 6.81zm2.051-31.486c-6.602 0-11.215 5.134-11.215 12.488 0 7.236 4.717 12.488 11.215 12.488 6.434 0 11.285-5.369 11.285-12.488 0-7.121-4.852-12.488-11.285-12.488z"/></g></svg>