<svg xmlns="http://www.w3.org/2000/svg" width="22" height="22" viewBox="0 0 22 22"><g transform="translate(1.222 3.667)"><rect width="15.889" height="8.556" transform="translate(0 6.111)" fill="#1b41b3"/><g transform="translate(3.667)"><rect width="15.889" height="8.556" fill="#66a9ff"/></g></g><rect width="22" height="22" fill="none"/><g transform="translate(4583 12289)"><rect width="5.159" height="3.439" rx="0.665" transform="translate(-4575.492 -12282.585)" fill="#1b41b3"/><rect width="5.159" height="3.439" rx="0.665" transform="translate(-4569.187 -12282.585)" fill="#1b41b3"/><rect width="1.146" height="0.573" transform="translate(-4576.065 -12282.585)" fill="#1b41b3"/><rect width="1.146" height="0.573" transform="translate(-4564.601 -12282.585)" fill="#1b41b3"/><rect width="3.226" height="0.573" transform="translate(-4571.358 -12282.012)" fill="#1b41b3"/><g transform="translate(-4575.118 -12280.567)"><path d="M25.7,231.591a.916.916,0,0,1-.915-.915h.459a.456.456,0,0,0,.456.456Z" transform="translate(-24.783 -230.676)" fill="#66a9ff"/></g><g transform="translate(-4568.843 -12280.567)"><path d="M31.78,231.591a.916.916,0,0,1-.915-.915h.458a.457.457,0,0,0,.457.456Z" transform="translate(-30.865 -230.676)" fill="#66a9ff"/></g></g></svg>