<svg xmlns="http://www.w3.org/2000/svg" viewBox="14890.127 249.127 16 16"><defs><style>.a{fill:#2970ff;}.b{fill:#fff;}</style></defs><g transform="translate(14460 -273)"><path class="a" d="M8,0a8,8,0,1,0,8,8A8,8,0,0,0,8,0ZM7.512,1.764h1V8h-1Zm4.376,10.124A5.5,5.5,0,1,1,4.112,4.112l.708.708a4.5,4.5,0,1,0,6.36,0l.708-.708A5.5,5.5,0,0,1,11.888,11.888Z" transform="translate(430.127 522.127)"/><path class="b" d="M71.18,103.508a4.5,4.5,0,1,1-6.36,0l-.708-.708a5.5,5.5,0,1,0,7.776,0Z" transform="translate(370.127 423.439)"/><rect class="b" width="1" height="6.24" transform="translate(437.639 523.891)"/></g></svg>