<svg xmlns="http://www.w3.org/2000/svg" viewBox="0 0 30 30">
  <defs>
    <style>
      .cls-1 {
        fill: #fd714b;
      }

      .cls-2 {
        fill: #feb8a5;
      }

      .cls-3 {
        fill: none;
      }
    </style>
  </defs>
  <g id="error" transform="translate(0 -0.203)">
    <path id="Path_735" data-name="Path 735" class="cls-1" d="M25.3,85.415,36.5,66.209a2.129,2.129,0,0,1,3.679,0l11.2,19.206a2.131,2.131,0,0,1-1.84,3.2h-22.4A2.131,2.131,0,0,1,25.3,85.415Z" transform="translate(-23.345 -60.814)"/>
    <rect id="Rectangle_1479" data-name="Rectangle 1479" class="cls-1" width="26.671" height="2.169" transform="translate(1.665 23.494)"/>
    <path id="Path_736" data-name="Path 736" class="cls-2" d="M25.3,53.225,36.5,34.019a2.129,2.129,0,0,1,3.679,0l11.2,19.206a2.131,2.131,0,0,1-1.84,3.2h-22.4A2.131,2.131,0,0,1,25.3,53.225Z" transform="translate(-23.345 -30.767)"/>
    <rect id="Rectangle_1480" data-name="Rectangle 1480" class="cls-1" width="12.034" height="2.127" transform="translate(9.994 20.641) rotate(-45.01)"/>
    <rect id="Rectangle_1481" data-name="Rectangle 1481" class="cls-1" width="2.127" height="12.034" transform="translate(9.994 13.636) rotate(-45)"/>
    <rect id="Rectangle_1482" data-name="Rectangle 1482" class="cls-3" width="30" height="30" transform="translate(0 0.203)"/>
  </g>
</svg>
