<svg viewBox="0 0 30 30" xmlns="http://www.w3.org/2000/svg"><path d="m25.3 85.415 11.2-19.206a2.129 2.129 0 0 1 3.679 0l11.2 19.206a2.131 2.131 0 0 1 -1.84 3.2h-22.4a2.131 2.131 0 0 1 -1.839-3.2z" fill="#fd714b" transform="translate(-23.345 -61.017)"/><path d="m1.665 23.291h26.671v2.169h-26.671z" fill="#fd714b"/><path d="m25.3 53.225 11.2-19.206a2.129 2.129 0 0 1 3.679 0l11.2 19.206a2.131 2.131 0 0 1 -1.84 3.2h-22.4a2.131 2.131 0 0 1 -1.839-3.2z" fill="#feb8a5" transform="translate(-23.345 -30.97)"/><path d="m0 0h12.034v2.127h-12.034z" fill="#fd714b" transform="matrix(.70698336 -.70723018 .70723018 .70698336 9.994 20.438)"/><path d="m0 0h2.127v12.034h-2.127z" fill="#fd714b" transform="matrix(.70710678 -.70710678 .70710678 .70710678 9.994 13.433)"/><path d="m0 0h30v30h-30z" fill="none"/></svg>