<svg xmlns="http://www.w3.org/2000/svg" viewBox="2390.491 217.891 200 336.149"><defs><style>.a{fill:#fff;}.b{fill:#d1d5db;}.c{fill:#091440;}.d{fill:#2970ff;}.e{fill:none;}.f{opacity:0.5;}</style></defs><g transform="translate(2306)"><g transform="translate(84.491 217.891)"><path class="a" d="M128.916,158.921l-6.322-3.223-1.363-13.015,7.809-2.231-5.206-5.95,2.975-6.074h.744L104.374,97.937l-1.735-6.2c-1.24-3.347-2.727-6.941-2.727-6.941h0c0,.124-6.322,13.759-14.75,14.007-8.553.124-23.675-20.2-23.675-20.2h0L56.9,86.781S64.957,126.2,69.543,162.02c.5,3.966.868,8.429,1.116,13.139l12.519-3.719.248.5,5.826-11.28c-2.231-20.824-4.834-35.7-5.7-40.78H83.3l-6.322-8.057,8.677-9.916,9.668,10.04-4.958,6.693c2.6,9.544,4.958,19.708,7.065,30,7.561-4.214,18.1-8.553,18.1-8.553l-.124,4.09,5.7-2.851,1.859,18.469,2.6.248-.248,4.214-1.859.62,1.116,10.536s-2.975,2.727-7.065,5.95l-1.735,8.553-11.032,2.975c3.966,29,5.7,51.316,5.7,51.316l-8.429,11.9-9.172-12.147V216.931c-.124-6.074-.372-12.023-.62-17.725-3.966,3.1-11.652,8.925-21.32,15.122-.62,30.864-2.231,65.819-.62,94.947a89.387,89.387,0,0,0,19.089.372,268.615,268.615,0,0,0,37.434-6.941c-.744-9.049-1.735-24.171-2.231-43.879A745.629,745.629,0,0,1,128.916,158.921Z" transform="translate(13.807 18.827)"/><path class="b" d="M86.271,113.1c8.429-.124,14.75-13.883,14.75-14.007l.372-1.859c12.643-4.09,19.832-19.46,23.179-40.78a60.24,60.24,0,0,0-1.735-27.517c-3.347,3.719-9.42,5.95-16.734,4.214C94.7,30.543,94.08,13.81,79.082,20.5a16.19,16.19,0,0,0-6.2,9.3c-2.851,10.288-.744,26.03-.744,26.03l-5.95-2.975c-1.116-5.826-3.471-7.933-5.33-8.677a5.115,5.115,0,0,0-4.586.62c-4.958,3.1-4.958,9.3-4.09,13.883a13.555,13.555,0,0,0,5.578,8.677,13.826,13.826,0,0,0,6.569,2.727c-.62,8.057-1.24,15.99-1.735,22.807C62.6,93.015,77.718,113.343,86.271,113.1Z" transform="translate(12.573 4.536)"/><path class="c" d="M65.027,57.514l5.95,2.975s-1.983-15.742.744-26.03a16.19,16.19,0,0,1,6.2-9.3c15-6.693,15.618,10.04,27.022,12.643,7.313,1.611,13.263-.5,16.734-4.214a11.038,11.038,0,0,0,1.735-12.643S116.219,6.693,96.759,1.24C79.654-3.595,63.912,6.322,59.325,20.328c-4.586,13.883-1.983,28.261-1.983,28.261a3.878,3.878,0,0,1,2.355.372C61.557,49.581,63.912,51.688,65.027,57.514Z" transform="translate(13.736 0)"/><path class="d" d="M88.375,174.743s-1.116.868-2.975,2.479c.248,5.7.5,11.652.62,17.725v27.022l9.172,12.147,8.429-11.9s-1.611-22.435-5.7-51.316l-10.04,2.727Z" transform="translate(20.633 40.935)"/><path class="d" d="M85.891,155.238a22.328,22.328,0,0,1,.372-5.206c.5-1.487,3.471-3.595,7.189-5.7-2.107-10.288-4.462-20.452-7.065-30l4.958-6.693L81.677,97.6,73,107.516l5.95,7.437s4.214,20.452,6.446,41.4l.5-1.116Z" transform="translate(17.663 23.378)"/><path class="c" d="M176.1,184.147c-9.792-39.045-39.293-74.619-39.293-74.619L93.8,89.2h0l1.735,6.2,23.179,30.74h17.229l16.486,22.311h0a14.778,14.778,0,0,1-15.618,12.4l-9.3-.62-7.561-3.719a729.545,729.545,0,0,0-4.214,99.905c.5,19.708,1.487,34.831,2.231,43.879.5,6.2.868,9.668.868,9.668,4.958-.372,16.486-4.958,19.337-13.759.124-.372,1.487-39.293,2.727-75.983,9.172,7.189,21.816,8.057,25.658,6.074C171.022,223.812,180.814,203.112,176.1,184.147Z" transform="translate(22.645 21.366)"/><path class="c" d="M109.122,152.862l-2.479,12.023a88.98,88.98,0,0,0,7.065-5.95L112.592,148.4l-9.792,3.1Z" transform="translate(24.801 35.545)"/><g transform="translate(103.554 159.279)"><path class="e" d="M89,137.871c1.363-.868,3.595-2.107,6.2-3.471C92.719,135.763,90.363,137.127,89,137.871Z" transform="translate(-82.059 -127.087)"/><path class="c" d="M114.76,129.74l-5.7,2.851s-17.725,11.652-20.7,11.652-1.983-2.107,1.487-4.462c.124-.124.372-.248.5-.372,1.363-.868,3.719-2.107,6.2-3.471,5.7-2.975,12.519-6.446,12.519-6.446V128.5a189.751,189.751,0,0,0-18.1,8.553c-3.719,2.107-6.693,4.214-7.189,5.7a23.418,23.418,0,0,0-.372,5.206l.124.992c.248,2.975,2.851,2.231,5.95,1.611l8.181-2.231,12.767-.744,6.322.744Z" transform="translate(-83.4 -128.5)"/><path class="d" d="M89.717,139.116a1.711,1.711,0,0,0-.5.372c-3.347,2.355-4.462,4.462-1.487,4.462s20.7-11.651,20.7-11.651v-3.1h0s-6.817,3.347-12.519,6.446C93.435,137.009,91.08,138.372,89.717,139.116Z" transform="translate(-82.775 -128.332)"/></g><path class="b" d="M111.4,125.05l5.206,5.95-7.809,2.231,1.363,13.015,6.322,3.223,7.561,3.719,9.3.62a14.778,14.778,0,0,0,15.618-12.4h0L132.475,119.1H114.5Z" transform="translate(26.238 28.527)"/><path class="c" d="M84.57,212.847c9.668-6.2,17.353-12.023,21.32-15.122a30.353,30.353,0,0,0,2.975-2.479l-.5-1.116-11.4-23.675-.248-.5L84.2,173.678c-.248-4.71-.62-9.172-1.116-13.139C78.5,124.717,70.439,85.3,70.439,85.3h0l-8.057,8.553-41.276,20.2S-10.5,157.44,3.381,230.82c7.313,4.338,15.866,5.578,24.79,4.71.372,6.074.62,11.28.868,15,1.611,28.757,1.611,51.44,1.611,51.44s16.362,15.866,53.671,13.511c-.248-2.479-.372-5.082-.5-7.685C82.339,278.665,84.074,243.711,84.57,212.847Z" transform="translate(0.144 20.432)"/><path class="b" d="M89.628,180.166l10.04-2.727,11.032-2.975,1.735-8.553,2.479-12.023-6.322-1.363,9.792-3.1,1.859-.62.248-4.214-2.6-.248-6.322-.744-12.767.744-8.181,2.231c-3.1.62-5.7,1.363-5.95-1.611l-.124-.992v-.124l-.62,1.116L78.1,156.243Z" transform="translate(18.885 34.396)"/></g><g class="f" transform="translate(162.635 292.51)"><path class="c" d="M91.7,219.8l2.6,53.3V221.535l-.62.868Z" transform="translate(-56.002 -21.972)"/><path class="c" d="M85.087,87.717C76.659,85.734,66,78.421,63.148,60.2H62.9c1.487,20.2,12.4,28.757,21.072,31.112a25.122,25.122,0,0,0,13.139.372c.744-1.363,1.24-2.355,1.24-2.355l.372-1.859A24.048,24.048,0,0,1,85.087,87.717Z" transform="translate(-62.9 -60.2)"/><path class="c" d="M83.9,112.369v.248a47.082,47.082,0,0,0,9.42-2.727l-4.586-4.09Z" transform="translate(-57.87 -49.278)"/><path class="c" d="M79.932,113.037l-5.95-7.437L68.9,110.806C72.619,111.55,75.841,112.665,79.932,113.037Z" transform="translate(-61.463 -49.326)"/></g><g class="f" transform="translate(202.671 334.654)"><path class="c" d="M112.057,139.071h0l7.809-2.231-5.206-5.95,2.975-6.074-2.975,6.074,2.975-6.074h.744L95.2,94.2s6.446,24.171,9.544,43.011a12.886,12.886,0,0,1,1.487-.62h.124l-.124,4.09,5.7-2.851,1.859,18.469,2.6.248-.248,4.214-1.859.62,1.116,10.536s-2.975,2.727-7.065,5.95l-.744,3.223c.5,13.263,1.116,29.625,1.859,49.7a436.483,436.483,0,0,1-3.471,71.025c4.338-.868,8.181-1.859,11.652-2.727-.744-9.049-1.735-24.171-2.231-43.879-.372-15.742-.248-30.368.124-43.755v0c0-.868.124-1.859.124-2.727v-1.363c0-.868.124-1.859.124-2.727v-1.116c.372-8.677.868-16.61,1.487-23.923v0c.124-1.24.248-2.479.248-3.595h0c.124-1.24.248-2.355.248-3.471a2.109,2.109,0,0,1,.124-.868c.248-2.231.372-4.462.62-6.446a1.572,1.572,0,0,1,.124-.744c.372-3.347.62-6.322.992-9.172l-6.322-3.223Z" transform="translate(-95.2 -94.2)"/><path class="c" d="M113.724,156.7a2.109,2.109,0,0,1-.124.868C113.6,157.2,113.724,156.948,113.724,156.7Z" transform="translate(-90.793 -79.23)"/><path class="c" d="M112,183.516v0Z" transform="translate(-91.176 -73.074)"/><path class="c" d="M114.224,150.8a1.572,1.572,0,0,1-.124.744A1.572,1.572,0,0,0,114.224,150.8Z" transform="translate(-90.673 -80.643)"/><path class="c" d="M111.8,186.863V185.5A5.022,5.022,0,0,1,111.8,186.863Z" transform="translate(-91.224 -72.332)"/></g></g></svg>