<svg viewBox="-1363 232 243 302.38" xmlns="http://www.w3.org/2000/svg"><path d="m124 84.9a.367.367 0 0 1 .1.3l.5-.3-1.2-.6z" fill="none" transform="translate(-1363.192 231.828)"/><path d="m48.566 46.727a11.436 11.436 0 0 0 4.591 2.2c4.69.9 9.081-3.593 12.375-8.982a13.7 13.7 0 0 0 4.69-.3 20.431 20.431 0 0 1 -.1-8.882c.1-.2.1-.3.2-.5.7-1.8 1.2-3.393 1.5-4.391a23.266 23.266 0 0 0 .3-10.778c-2.694-2.794-9.381-6.487-15.668-1-6.287 5.589-4.291 11.377-4.291 11.377l-2.994 1.1c0-3.193-1.4-6.387-3.892-5.788-2.4.6-3.094 3.094-3.393 4.99a5.357 5.357 0 0 0 1.1 4.092c.8 1 1.8 2 2.894 2.1-3.094 3.193-7.584 1.1-9.081.3l-4.797 7.676 15.069 9.58z" fill="#d1d5db" transform="translate(-1363.005 231.977)"/><path d="m45.976 32.034a4.6 4.6 0 0 1 -2.894-2.1 5.587 5.587 0 0 1 -1.1-4.092c.3-1.9 1-4.391 3.393-4.99 2.495-.6 3.892 2.595 3.892 5.788l2.994-1.1s-2-5.788 4.291-11.377c6.287-5.489 12.973-1.8 15.668 1a23.266 23.266 0 0 1 -.3 10.778 46.33 46.33 0 0 1 -1.5 4.391c2.4.2 3.293-.5 3.293-.5l-.1-2.595a6.863 6.863 0 0 1 1-3.393c.8 2.994 2.2 3.992 2.2 3.992l-.3-1.3c-.3-1.3.3-8.383-.9-12.874-1.694-6.577-8.979-12.362-23.15-13.462a10.053 10.053 0 0 0 -1.9-.2h-1.2c-8.776 0-15.663 5.489-14.863 21.855.1 2.894 2 10.179 2 10.179a5.184 5.184 0 0 1 .5.3c1.392.798 5.883 2.894 8.976-.3z" fill="#091440" transform="translate(-1363.01 232)"/><path d="m59.6 160.22c.3 5.289.3 11.975.2 19.56h3.09l2.794-18.462-7.884-40.318c1.8 21.157 2.694 38.92 2.694 38.92z" fill="#d1d5db" transform="translate(-1363.057 231.753)"/><path d="m57.6 118.981 1.2-.3-1.4-8.981-.6.3c.3 2.993.6 5.987.8 8.981z" fill="#4c60aa" transform="translate(-1363.055 231.776)"/><path d="m39.1 292v-.7s6.387 8.582 13.472.1c0-.3.1-.7.1-1h-13.572z" fill="#d1d5db" transform="translate(-1363.019 231.406)"/><path d="m57.8 225.3-.5 8.083c.2-2.694.3-5.389.5-8.083z" fill="#091440" transform="translate(-1363.056 231.539)"/><path d="m57.682 225.067c1-15.867 1.8-31.835 2-45.207.1-7.584.1-14.271-.2-19.56-9.78 2.3-44.808.4-52.892-.1.2 17.165.1 48.5-2.4 61.075-5.29 26.745-4.19 49.798-4.09 68.859h14.67l8.083-58.181 11.277-61.275s4.491 33.232 2.3 53.091c-1.7 14.87-.3 49.8.4 66.364h15.662c1-10.179 2.894-32.633 4.491-56.684" fill="#091440" transform="translate(-1362.939 231.672)"/><path d="m.1 291.9v1.1c2.994 2.994 5.589 1.9 8.183-.3a5.819 5.819 0 0 1 4.291-1.2l.2-1.1h-12.674z" fill="#d1d5db" transform="translate(-1362.939 231.406)"/><g fill="#2970ff"><path d="m39.2 291.3v.7l-.5 10.878h38.621c0-2.4-.8-4.092-10.479-6.686s-13.971-4.89-13.971-4.89l-.1.1c-7.185 8.48-13.571-.102-13.571-.102z" transform="translate(-1363.018 231.404)"/><path d="m8.383 292.7c-2.694 2.2-5.289 3.293-8.183.3l-.1-.1v10.079h25.947a4.707 4.707 0 0 0 -1.2-3.792c-1.5-1.8-9.381-7.086-9.381-7.086a9.569 9.569 0 0 0 -2.794-.6 5.7 5.7 0 0 0 -4.289 1.199z" transform="translate(-1362.939 231.404)"/><path d="m54.6 110.953c-8.283 4.092-20.458 4.99-20.458 4.99s-2.794-4.291-6.487-10.479a.762.762 0 0 1 -1.2-.2l-6.287-9.181a.709.709 0 0 1 .2-1.1c2.794-2 13.373-9.481 18.163-10.279a.8.8 0 0 1 .9.5l3.393 9.481a.889.889 0 0 1 -.5 1.1c-.2.1-.3.1-.5.2.3.7.5 1.1.5 1.1l12.776-2.699c-1.8-15.867-4.191-30.238-6.986-37.224v-6.785l-1-.7-15.07-9.577-1.6-1.1-4.291 6.088c-5.685 3.692-14.866 10.278-17.86 16.366-4.593 9.181-3.293 98.398-3.293 98.398s.6 0 1.7.1c8.083.5 43.112 2.4 52.892.1a2.914 2.914 0 0 1 .9-.2s-.9-17.863-2.694-38.92c-.1-.7-.1-1.3-.2-2-.3-2.994-.5-5.988-.8-8.982a14.69 14.69 0 0 0 -2.198 1.003zm-33.733-52.493c.1 0 .2.1.3.2-.1-.1-.2-.2-.3-.2z" transform="translate(-1362.949 231.92)"/></g><path d="m21.2 58.6c-.1-.1-.2-.1-.3-.2.1.1.2.2.3.2z" fill="#db9583" transform="translate(-1362.982 231.881)"/><g fill="#091440"><path d="m42.853 94.779-3.393-9.479a.714.714 0 0 0 -.9-.5c-4.79.9-15.369 8.383-18.163 10.279a.73.73 0 0 0 -.2 1.1l6.287 9.181a.84.84 0 0 0 1.2.2.1.1 0 0 0 .1-.1c4.191-5.189 11.177-8.283 14.071-9.381.2-.1.4-.1.5-.2a1 1 0 0 0 .498-1.1z" transform="translate(-1362.98 231.827)"/><path d="m226.772 286.4v.9a8.346 8.346 0 0 1 -3.692 6.886l-8.283 5.489a3.692 3.692 0 0 0 -1.9 3.193h29.44s1-5.389.2-8.682c-.4-1.4-1.2-3.293-1.1-4.69l.2-3.094h-14.87z" transform="translate(-1363.375 231.414)"/><path d="m175.966 293.186c-8.982 3.692-11.975 5.788-14.77 6.786a3.072 3.072 0 0 0 -2 2.994h23.053l4.79-1.6v1.6h8.982l1.4-7.485-.7-4.89.2-4.092h-15.766a9.127 9.127 0 0 1 -5.189 6.687z" transform="translate(-1363.265 231.414)"/></g><path d="m166.7 143.1.2-1.4a6.739 6.739 0 0 0 -.2 1.4z" fill="#3ad7a4" transform="translate(-1363.28 231.71)"/><path d="m234.459 216.825c-5.09-19.76-7.485-32.434-8.383-40.717-1.3-10.778-3.393-19.66-8.083-29.44-.1-.3-2.894-4.99-5.389-9.081v.1s-1.2.6-3.094 1.5l-1.5-3.892c1.5-.8 2.4-1.3 2.4-1.3-.9-1.5-1.5-2.495-1.5-2.595 0 0-5.589 5.09-19.66 7.185-14.171 2.1-21.456-4.092-21.456-4.092-.3 1.7-.5 3.293-.7 4.89a7.9 7.9 0 0 0 2.1 1.3l-.4 3.593a17.176 17.176 0 0 1 -2.1-1.2c-4.69 40.317 6.187 62.073 9.381 81.034 3.393 20.258 4.69 55.187 4.69 61.873h17.165c4.191-23.851 7.984-34.03 3.493-61.175a241.756 241.756 0 0 1 -2.4-24.849l-.3-8.582c9.78 24.15 21.256 58.081 26.945 94.606h17.364a206.542 206.542 0 0 0 -8.573-69.158zm-52.892-69.358v1.2l-6.187-1.2v-.8a30.782 30.782 0 0 1 -5.589-1.8l.4-3.593a24.767 24.767 0 0 0 5.189 1.4v-.9l6.187.7v.7h.8a35.313 35.313 0 0 0 7.684-1l.7 4.191a36.466 36.466 0 0 1 -7.385 1.2 10.848 10.848 0 0 0 -1.799-.098zm10.179-1.5-.7-4.191a86.138 86.138 0 0 0 16.167-6.187l1.5 3.892a106.53 106.53 0 0 1 -16.967 6.489z" fill="#2970ff" transform="translate(-1363.278 231.731)"/><path d="m189.33 138.444c14.171-2.1 19.66-7.185 19.66-7.185-3.692-14.67 8.483-30.837-1.3-56.584-3.79-9.881-10.676-12.275-16.065-12.575-5.589 5.688-11.277 9.281-15.967 10.479l-.4-1.8a38.9 38.9 0 0 1 -7.285 1.8 22.93 22.93 0 0 1 -2.694-4.291 19.273 19.273 0 0 0 -4.491 5.888c-1 2.1-3.593 9.281-5.688 15.069l17.464 11.776 1.7-3.792c1.8 2.2 6.786 7.385 17.364 11.277a78.311 78.311 0 0 1 -11.576 14.47c-5.09-1.2-10.179-4.291-14.87-7.984a11 11 0 0 0 .2 1.8 171.688 171.688 0 0 0 2.595 17.564s7.182 6.283 21.353 4.088z" fill="#091440" transform="translate(-1363.256 231.873)"/><path d="m181.388 66.385-1.5-7.085-.2 9.381a25.567 25.567 0 0 1 -4.391 2.1l.4 1.8c4.69-1.2 10.379-4.79 15.967-10.479l-.7-1.7c-2.89 2.89-6.483 5.385-9.576 5.983z" fill="#d1d5db" transform="translate(-1363.298 231.879)"/><path d="m164.071 61.926c1.4-6.387 2.1-5.988 3.792-10.978s-.9-6.187-3.094-10.678a9.68 9.68 0 0 1 -.2-6.487 6.751 6.751 0 0 0 -3.193-7.884l-.6 5.289s-5.888.9-10.578 1.3a23.265 23.265 0 0 0 .8 7.784 41.866 41.866 0 0 0 1.7 4.89 14.764 14.764 0 0 1 -1.1 8.882 15.562 15.562 0 0 0 5.688.2 23.47 23.47 0 0 0 6.786 7.684z" fill="#d1d5db" transform="translate(-1363.246 231.947)"/><path d="m167.957 72.481a38.9 38.9 0 0 0 7.285-1.8 22.22 22.22 0 0 0 4.391-2.1l.2-9.381 1.5 7.085c3.094-.6 6.686-3.094 9.68-6.088 2.794-2.794 4.99-5.988 5.589-8.083 1.4-5.289.2-8.882-1.5-11.377-2.3-3.393-3.692-2.894-4.79-10.379-1-6.986-3.393-11.975-9.481-14.371a15.518 15.518 0 0 0 -7.185-1.6h-.4a13.375 13.375 0 0 0 -2 .1c-.4 0-.7.1-1.1.1-2.495.3-5.189 1-9.081 1.8a17.4 17.4 0 0 0 -9.281 4.69c-4.89 3.692-4.99 11.576-4.99 11.576h2a16.815 16.815 0 0 0 1.5 8.183c2.694 5.888-.7 13.073-.6 20.957 0 2.894 1.2 6.686 3.493 8.283a33.316 33.316 0 0 1 5.289-.8l-1.6-5.788 3.293 5.589s1.9-1.1 4.391-2.894a11.893 11.893 0 0 0 .8 2 18.649 18.649 0 0 0 2.597 4.298zm-10.678-18.263a18.6 18.6 0 0 1 -5.688-.2 14.764 14.764 0 0 0 1.1-8.882 41.866 41.866 0 0 1 -1.7-4.89 26.172 26.172 0 0 1 -.8-7.784c4.69-.3 10.578-1.3 10.578-1.3l.6-5.289a6.822 6.822 0 0 1 3.193 7.884 8.609 8.609 0 0 0 .2 6.487c2.2 4.491 4.79 5.589 3.094 10.678-1.7 4.99-2.4 4.591-3.792 10.978a23.47 23.47 0 0 1 -6.785-7.682z" fill="#091440" transform="translate(-1363.239 231.971)"/><path d="m124.587 84.883 2.495 1.2 8.682-4.491-9.281-4.99-8.183 2.593v2.595l2.3 1.1 2.794 1.4z" fill="#091440" transform="translate(-1363.181 231.843)"/><path d="m179.882 123.113a70.86 70.86 0 0 0 11.576-14.47c-10.578-3.892-15.568-9.081-17.364-11.277l-1.7 3.792-17.461-11.776-3.094-2.1-13.871-6.682-2.2 1.1-8.782 4.491-2.495-1.2-.5.3-1.7 1.2.1.7 1 9.381h15.269s3.792 23.751 19.959 27.643a65.75 65.75 0 0 0 6.487-7.185c-.1-.6-.1-1.2-.2-1.8 4.794 3.592 9.886 6.685 14.976 7.883z" fill="#d1d5db" transform="translate(-1363.189 231.835)"/><g fill="#091440"><path d="m169.195 140.8a11.153 11.153 0 0 1 -2.1-1.3l-.3 2.2-.2 1.4v.1a17.174 17.174 0 0 0 2.1 1.2z" transform="translate(-1363.28 231.715)"/><path d="m191.8 145.979a121.786 121.786 0 0 0 16.965-6.487l-1.5-3.892a88.957 88.957 0 0 1 -16.167 6.187z" transform="translate(-1363.33 231.723)"/><path d="m209.7 139.089c1.9-.9 3.094-1.5 3.094-1.5v-.1l-2.1-3.593s-.9.5-2.4 1.3z" transform="translate(-1363.365 231.726)"/><path d="m181.576 147.487h1.9a30.6 30.6 0 0 0 7.385-1.2l-.7-4.191a35.314 35.314 0 0 1 -7.684 1h-.8v-.7l-6.187-.7v.9a28.847 28.847 0 0 1 -5.189-1.4l-.4 3.593a30.782 30.782 0 0 0 5.589 1.8v.8l6.187 1.2v-1.1z" transform="translate(-1363.287 231.711)"/></g><path d="m94.364 89.89-.2-2.1-4.092-.1v-.1l-.5.1-2.2-.1-4.79.9-3.692.4-.09-3.69-4.89 1.3-3.593 4.79-15.073 3.191-12.774 2.694s-.2-.4-.5-1.1c-2.894 1.1-9.88 4.191-14.071 9.381l-.1.1c3.692 6.187 6.487 10.479 6.487 10.479s12.175-.9 20.458-4.99a21.115 21.115 0 0 0 2.1-1.1l.6-.3c7.584-3.992 15.468-8.882 15.468-8.882l12.075 3.293 7.185-5.589s1-1.2 1.3-1.2 1.2-5.788 1.2-5.788l-7.085 2.1z" fill="#d1d5db" transform="translate(-1362.996 231.826)"/><path d="m95.665 87.37-.2-1.6-.1-1-.1-1.3-1.097-10.07-2.794 1.4v-2.1s-11.774 4.79-12.574 7.085a12.274 12.274 0 0 0 -.2 2.794l.1 6.287 3.692-.4 4.79-.9 2.2.1.5-.1v.1l4.092.1.2 2.1-6.886 3.692 7.085-2.1c.8-.7 1.4-1.2 1.4-1.2z" fill="#091440" transform="translate(-1363.1 231.851)"/><path d="m81.9 78.39c-1.7 1.2-2.2 2.2-.7 2.2s10.277-5.79 10.277-5.79v-1.5c-.1 0-7.884 3.892-9.577 5.09z" fill="#2970ff" transform="translate(-1363.103 231.85)"/><path d="m182.2 302.9h4.79v-1.5z" fill="#59667c" transform="translate(-1363.312 231.384)"/><g fill="#091440" opacity=".5" transform="translate(-1348.868 281.598)"><path d="m26.375 105.354-6.287-9.181a.709.709 0 0 1 .2-1.1 1.378 1.378 0 0 1 .4-.3c-1.898-3.291-4.388-7.682-6.588-12.073 1.1 3.293 2.2 6.487 3.094 9.081 2.994 8.682 16.067 30.637 16.067 30.637l24.051-6.487-.6-5.988c-.7.4-1.4.7-2.1 1.1-8.283 4.092-20.458 4.99-20.458 4.99s-2.794-4.291-6.487-10.479a.946.946 0 0 1 -1.292-.2z" transform="translate(-14.1 -49.767)"/><path d="m47.2 49.7-1.6 7.485h2.595v-.1z" transform="translate(-14.164 -49.7)"/><path d="m166.058 115.859c-10.678-8.283-19.158-20.059-19.158-20.059h-1.1a89.847 89.847 0 0 0 4.291 8.782c3.792 6.487 12.674 15.169 12.774 15.169l2.4-2.994v.1z" transform="translate(-14.369 -49.794)"/></g><path d="m190.5 172.3 8.483 27.843-.3-8.582c-2.994-7.385-5.783-13.872-8.183-19.261z" fill="#091440" opacity=".5" transform="translate(-1363.329 231.648)"/><path d="m121.243 62.243h-27.843v-23.053a4.791 4.791 0 0 1 4.79-4.79h18.263a4.791 4.791 0 0 1 4.79 4.79z" fill="#fff" transform="translate(-1363.13 231.93)"/><path d="m96.993 62.293-3.493 3.592v-7.085z" fill="#fff" transform="translate(-1363.13 231.88)"/><path d="m117.8 62.293 3.493 3.593v-7.086z" fill="#fff" transform="translate(-1363.18 231.88)"/><path d="m-1263.642 279.304h12.774v6.886h-12.774z" fill="#d1d5db"/><path d="m-1260.748 274.314h12.774v6.886h-12.774z" fill="#2f74fb"/><path d="m-1254.76 275.312h.998v4.89h-.998z" fill="#fff"/><path d="m0 0h.998v4.89h-.998z" fill="#fff" transform="matrix(0 -1 1 0 -1256.796 278.235)"/></svg>