<svg xmlns="http://www.w3.org/2000/svg" viewBox="-1363 232 243 302.38"><defs><style>.a{fill:none;}.b{fill:#d1d5db;}.c,.j{fill:#091440;}.d{fill:#4c60aa;}.e{fill:#2970ff;}.f{fill:#db9583;}.g{fill:#3ad7a4;}.h{fill:#59667c;}.i,.j{opacity:0.5;}.k{fill:#fff;}.l{fill:#2f74fb;}</style></defs><g transform="translate(-1426)"><g transform="translate(63 232)"><path class="a" d="M124,84.9a.367.367,0,0,1,.1.3l.5-.3-1.2-.6Z" transform="translate(-0.192 -0.172)"/><path class="b" d="M48.566,46.727a11.436,11.436,0,0,0,4.591,2.2c4.69.9,9.081-3.593,12.375-8.982a13.7,13.7,0,0,0,4.69-.3,20.431,20.431,0,0,1-.1-8.882c.1-.2.1-.3.2-.5.7-1.8,1.2-3.393,1.5-4.391a23.266,23.266,0,0,0,.3-10.778c-2.694-2.794-9.381-6.487-15.668-1-6.287,5.589-4.291,11.377-4.291,11.377l-2.994,1.1c0-3.193-1.4-6.387-3.892-5.788-2.4.6-3.094,3.094-3.393,4.99a5.357,5.357,0,0,0,1.1,4.092c.8,1,1.8,2,2.894,2.1-3.094,3.193-7.584,1.1-9.081.3L32,39.941l15.069,9.58Z" transform="translate(-0.005 -0.023)"/><path class="c" d="M45.976,32.034a4.6,4.6,0,0,1-2.894-2.1,5.587,5.587,0,0,1-1.1-4.092c.3-1.9,1-4.391,3.393-4.99,2.495-.6,3.892,2.595,3.892,5.788l2.994-1.1s-2-5.788,4.291-11.377c6.287-5.489,12.973-1.8,15.668,1a23.266,23.266,0,0,1-.3,10.778,46.33,46.33,0,0,1-1.5,4.391c2.4.2,3.293-.5,3.293-.5l-.1-2.595a6.863,6.863,0,0,1,1-3.393c.8,2.994,2.2,3.992,2.2,3.992l-.3-1.3c-.3-1.3.3-8.383-.9-12.874h0C73.919,7.085,66.634,1.3,52.463.2a10.053,10.053,0,0,0-1.9-.2h-1.2C40.587,0,33.7,5.489,34.5,21.855c.1,2.894,2,10.179,2,10.179a5.184,5.184,0,0,1,.5.3C38.392,33.132,42.883,35.228,45.976,32.034Z" transform="translate(-0.01)"/><path class="b" d="M59.6,160.22c.3,5.289.3,11.975.2,19.56H62.89l2.794-18.462L57.8,121c1.8,21.157,2.694,38.92,2.694,38.92Z" transform="translate(-0.057 -0.247)"/><path class="d" d="M57.6,118.981l1.2-.3L57.4,109.7l-.6.3C57.1,112.993,57.4,115.987,57.6,118.981Z" transform="translate(-0.055 -0.224)"/><path class="b" d="M39.1,292v-.7s6.387,8.582,13.472.1c0-.3.1-.7.1-1H39.1Z" transform="translate(-0.019 -0.594)"/><path class="c" d="M57.8,225.3l-.5,8.083C57.5,230.689,57.6,227.994,57.8,225.3Z" transform="translate(-0.056 -0.461)"/><path class="c" d="M57.682,225.067c1-15.867,1.8-31.835,2-45.207.1-7.584.1-14.271-.2-19.56-9.78,2.3-44.808.4-52.892-.1.2,17.165.1,48.5-2.4,61.075C-1.1,248.02,0,271.073.1,290.134H14.77l8.083-58.181L34.13,170.678s4.491,33.232,2.3,53.091c-1.7,14.87-.3,49.8.4,66.364H52.492c1-10.179,2.894-32.633,4.491-56.684" transform="translate(0.061 -0.328)"/><path class="b" d="M.1,291.9v1.1c2.994,2.994,5.589,1.9,8.183-.3a5.819,5.819,0,0,1,4.291-1.2l.2-1.1H.1Z" transform="translate(0.061 -0.594)"/><path class="e" d="M39.2,291.3v.7l-.5,10.878H77.321c0-2.4-.8-4.092-10.479-6.686s-13.971-4.89-13.971-4.89l-.1.1C45.586,299.882,39.2,291.3,39.2,291.3Z" transform="translate(-0.018 -0.596)"/><path class="e" d="M8.383,292.7c-2.694,2.2-5.289,3.293-8.183.3l-.1-.1v10.079H26.047a4.707,4.707,0,0,0-1.2-3.792c-1.5-1.8-9.381-7.086-9.381-7.086a9.569,9.569,0,0,0-2.794-.6A5.7,5.7,0,0,0,8.383,292.7Z" transform="translate(0.061 -0.596)"/><path class="e" d="M54.6,110.953c-8.283,4.092-20.458,4.99-20.458,4.99s-2.794-4.291-6.487-10.479a.762.762,0,0,1-1.2-.2l-6.287-9.181a.709.709,0,0,1,.2-1.1c2.794-2,13.373-9.481,18.163-10.279a.8.8,0,0,1,.9.5l3.393,9.481a.889.889,0,0,1-.5,1.1c-.2.1-.3.1-.5.2.3.7.5,1.1.5,1.1L55.1,94.386c-1.8-15.867-4.191-30.238-6.986-37.224V50.377l-1-.7L32.044,40.1l-1.6-1.1-4.291,6.088C20.468,48.78,11.287,55.366,8.293,61.454,3.7,70.635,5,159.852,5,159.852s.6,0,1.7.1c8.083.5,43.112,2.4,52.892.1a2.914,2.914,0,0,1,.9-.2s-.9-17.863-2.694-38.92c-.1-.7-.1-1.3-.2-2-.3-2.994-.5-5.988-.8-8.982A14.69,14.69,0,0,0,54.6,110.953ZM20.867,58.46c.1,0,.2.1.3.2C21.067,58.56,20.967,58.46,20.867,58.46Z" transform="translate(0.051 -0.08)"/><path class="f" d="M21.2,58.6c-.1-.1-.2-.1-.3-.2C21,58.5,21.1,58.6,21.2,58.6Z" transform="translate(0.018 -0.119)"/><path class="c" d="M42.853,94.779,39.46,85.3a.714.714,0,0,0-.9-.5c-4.79.9-15.369,8.383-18.163,10.279a.73.73,0,0,0-.2,1.1l6.287,9.181a.84.84,0,0,0,1.2.2.1.1,0,0,0,.1-.1c4.191-5.189,11.177-8.283,14.071-9.381.2-.1.4-.1.5-.2A1,1,0,0,0,42.853,94.779Z" transform="translate(0.02 -0.173)"/><path class="c" d="M226.772,286.4v.9a8.346,8.346,0,0,1-3.692,6.886l-8.283,5.489a3.692,3.692,0,0,0-1.9,3.193h29.44s1-5.389.2-8.682c-.4-1.4-1.2-3.293-1.1-4.69l.2-3.094h-14.87Z" transform="translate(-0.375 -0.586)"/><path class="c" d="M175.966,293.186h0c-8.982,3.692-11.975,5.788-14.77,6.786a3.072,3.072,0,0,0-2,2.994h23.053l4.79-1.6v1.6h8.982l1.4-7.485-.7-4.89.2-4.092H181.155A9.127,9.127,0,0,1,175.966,293.186Z" transform="translate(-0.265 -0.586)"/><path class="g" d="M166.7,143.1l.2-1.4A6.739,6.739,0,0,0,166.7,143.1Z" transform="translate(-0.28 -0.29)"/><path class="e" d="M234.459,216.825c-5.09-19.76-7.485-32.434-8.383-40.717-1.3-10.778-3.393-19.66-8.083-29.44-.1-.3-2.894-4.99-5.389-9.081v.1s-1.2.6-3.094,1.5l-1.5-3.892c1.5-.8,2.4-1.3,2.4-1.3-.9-1.5-1.5-2.495-1.5-2.595,0,0-5.589,5.09-19.66,7.185-14.171,2.1-21.456-4.092-21.456-4.092-.3,1.7-.5,3.293-.7,4.89a7.9,7.9,0,0,0,2.1,1.3l-.4,3.593a17.176,17.176,0,0,1-2.1-1.2c-4.69,40.317,6.187,62.073,9.381,81.034,3.393,20.258,4.69,55.187,4.69,61.873h17.165c4.191-23.851,7.984-34.03,3.493-61.175a241.756,241.756,0,0,1-2.4-24.849h0l-.3-8.582c9.78,24.15,21.256,58.081,26.945,94.606h17.364A206.542,206.542,0,0,0,234.459,216.825Zm-52.892-69.358v1.2l-6.187-1.2v-.8a30.782,30.782,0,0,1-5.589-1.8l.4-3.593a24.767,24.767,0,0,0,5.189,1.4v-.9l6.187.7v.7h.8a35.313,35.313,0,0,0,7.684-1l.7,4.191a36.466,36.466,0,0,1-7.385,1.2A10.848,10.848,0,0,0,181.567,147.467Zm10.179-1.5-.7-4.191a86.138,86.138,0,0,0,16.167-6.187l1.5,3.892A106.53,106.53,0,0,1,191.746,145.97Z" transform="translate(-0.278 -0.269)"/><path class="c" d="M189.33,138.444c14.171-2.1,19.66-7.185,19.66-7.185-3.692-14.67,8.483-30.837-1.3-56.584C203.9,64.794,197.014,62.4,191.625,62.1c-5.589,5.688-11.277,9.281-15.967,10.479l-.4-1.8a38.9,38.9,0,0,1-7.285,1.8,22.93,22.93,0,0,1-2.694-4.291,19.273,19.273,0,0,0-4.491,5.888c-1,2.1-3.593,9.281-5.688,15.069l17.464,11.776,1.7-3.792c1.8,2.2,6.786,7.385,17.364,11.277a78.311,78.311,0,0,1-11.576,14.47c-5.09-1.2-10.179-4.291-14.87-7.984a11,11,0,0,0,.2,1.8,171.688,171.688,0,0,0,2.595,17.564S175.159,140.639,189.33,138.444Z" transform="translate(-0.256 -0.127)"/><path class="b" d="M181.388,66.385l-1.5-7.085-.2,9.381a25.567,25.567,0,0,1-4.391,2.1l.4,1.8c4.69-1.2,10.379-4.79,15.967-10.479h0l-.7-1.7C188.074,63.292,184.481,65.787,181.388,66.385Z" transform="translate(-0.298 -0.121)"/><path class="b" d="M164.071,61.926c1.4-6.387,2.1-5.988,3.792-10.978s-.9-6.187-3.094-10.678a9.68,9.68,0,0,1-.2-6.487,6.751,6.751,0,0,0-3.193-7.884h0l-.6,5.289s-5.888.9-10.578,1.3a23.265,23.265,0,0,0,.8,7.784,41.866,41.866,0,0,0,1.7,4.89,14.764,14.764,0,0,1-1.1,8.882,15.562,15.562,0,0,0,5.688.2,23.47,23.47,0,0,0,6.786,7.684Z" transform="translate(-0.246 -0.053)"/><path class="c" d="M167.957,72.481a38.9,38.9,0,0,0,7.285-1.8,22.22,22.22,0,0,0,4.391-2.1l.2-9.381,1.5,7.085c3.094-.6,6.686-3.094,9.68-6.088,2.794-2.794,4.99-5.988,5.589-8.083,1.4-5.289.2-8.882-1.5-11.377-2.3-3.393-3.692-2.894-4.79-10.379-1-6.986-3.393-11.975-9.481-14.371a15.518,15.518,0,0,0-7.185-1.6h-.4a13.375,13.375,0,0,0-2,.1c-.4,0-.7.1-1.1.1-2.495.3-5.189,1-9.081,1.8a17.4,17.4,0,0,0-9.281,4.69c-4.89,3.692-4.99,11.576-4.99,11.576h2a16.815,16.815,0,0,0,1.5,8.183c2.694,5.888-.7,13.073-.6,20.957,0,2.894,1.2,6.686,3.493,8.283a33.316,33.316,0,0,1,5.289-.8l-1.6-5.788,3.293,5.589s1.9-1.1,4.391-2.894a11.893,11.893,0,0,0,.8,2A18.649,18.649,0,0,0,167.957,72.481ZM157.279,54.218a18.6,18.6,0,0,1-5.688-.2,14.764,14.764,0,0,0,1.1-8.882,41.866,41.866,0,0,1-1.7-4.89,26.172,26.172,0,0,1-.8-7.784c4.69-.3,10.578-1.3,10.578-1.3l.6-5.289h0a6.822,6.822,0,0,1,3.193,7.884,8.609,8.609,0,0,0,.2,6.487c2.2,4.491,4.79,5.589,3.094,10.678-1.7,4.99-2.4,4.591-3.792,10.978h0A23.47,23.47,0,0,1,157.279,54.218Z" transform="translate(-0.239 -0.029)"/><path class="c" d="M124.587,84.883l2.495,1.2,8.682-4.491-9.281-4.99L118.3,79.195v2.595l2.3,1.1,2.794,1.4Z" transform="translate(-0.181 -0.157)"/><path class="b" d="M179.882,123.113a70.86,70.86,0,0,0,11.576-14.47c-10.578-3.892-15.568-9.081-17.364-11.277l-1.7,3.792L154.933,89.382l-3.094-2.1L137.968,80.6l-2.2,1.1-8.782,4.491-2.495-1.2-.5.3-1.7,1.2.1.7,1,9.381h15.269s3.792,23.751,19.959,27.643a65.75,65.75,0,0,0,6.487-7.185c-.1-.6-.1-1.2-.2-1.8C169.7,118.822,174.792,121.915,179.882,123.113Z" transform="translate(-0.189 -0.165)"/><path class="c" d="M169.195,140.8a11.153,11.153,0,0,1-2.1-1.3h0l-.3,2.2-.2,1.4v.1h0a17.174,17.174,0,0,0,2.1,1.2Z" transform="translate(-0.28 -0.285)"/><path class="c" d="M191.8,145.979a121.786,121.786,0,0,0,16.965-6.487l-1.5-3.892a88.957,88.957,0,0,1-16.167,6.187Z" transform="translate(-0.33 -0.277)"/><path class="c" d="M209.7,139.089c1.9-.9,3.094-1.5,3.094-1.5v-.1l-2.1-3.593h0s-.9.5-2.4,1.3Z" transform="translate(-0.365 -0.274)"/><path class="c" d="M181.576,147.487h1.9a30.6,30.6,0,0,0,7.385-1.2l-.7-4.191a35.314,35.314,0,0,1-7.684,1h-.8v-.7l-6.187-.7v.9a28.847,28.847,0,0,1-5.189-1.4l-.4,3.593a30.782,30.782,0,0,0,5.589,1.8v.8l6.187,1.2v-1.1Z" transform="translate(-0.287 -0.289)"/><path class="b" d="M94.364,89.89l-.2-2.1-4.092-.1v-.1l-.5.1-2.2-.1-4.79.9-3.692.4h0L78.8,85.2l-4.89,1.3-3.593,4.79L55.244,94.481,42.47,97.175s-.2-.4-.5-1.1c-2.894,1.1-9.88,4.191-14.071,9.381l-.1.1c3.692,6.187,6.487,10.479,6.487,10.479s12.175-.9,20.458-4.99a21.115,21.115,0,0,0,2.1-1.1l.6-.3c7.584-3.992,15.468-8.882,15.468-8.882l12.075,3.293,7.185-5.589s1-1.2,1.3-1.2,1.2-5.788,1.2-5.788h0l-7.085,2.1Z" transform="translate(0.004 -0.174)"/><path class="c" d="M95.665,87.37l-.2-1.6-.1-1-.1-1.3L94.168,73.4l-2.794,1.4V72.7S79.6,77.49,78.8,79.785a12.274,12.274,0,0,0-.2,2.794l.1,6.287,3.692-.4,4.79-.9,2.2.1.5-.1v.1l4.092.1.2,2.1-6.886,3.692,7.085-2.1c.8-.7,1.4-1.2,1.4-1.2Z" transform="translate(-0.1 -0.149)"/><path class="e" d="M81.9,78.39c-1.7,1.2-2.2,2.2-.7,2.2S91.477,74.8,91.477,74.8V73.3C91.377,73.3,83.593,77.192,81.9,78.39Z" transform="translate(-0.103 -0.15)"/><path class="h" d="M182.2,302.9h4.79v-1.5Z" transform="translate(-0.312 -0.616)"/></g><g class="i" transform="translate(77.132 281.598)"><path class="c" d="M26.375,105.354l-6.287-9.181a.709.709,0,0,1,.2-1.1,1.378,1.378,0,0,1,.4-.3C18.79,91.482,16.3,87.091,14.1,82.7c1.1,3.293,2.2,6.487,3.094,9.081,2.994,8.682,16.067,30.637,16.067,30.637l24.051-6.487-.6-5.988c-.7.4-1.4.7-2.1,1.1-8.283,4.092-20.458,4.99-20.458,4.99s-2.794-4.291-6.487-10.479A.946.946,0,0,1,26.375,105.354Z" transform="translate(-14.1 -49.767)"/><path class="c" d="M47.2,49.7l-1.6,7.485h2.595v-.1Z" transform="translate(-14.164 -49.7)"/><path class="c" d="M166.058,115.859C155.38,107.576,146.9,95.8,146.9,95.8h-1.1a89.847,89.847,0,0,0,4.291,8.782c3.792,6.487,12.674,15.169,12.774,15.169h0l2.4-2.994v.1Z" transform="translate(-14.369 -49.794)"/></g><path class="j" d="M190.5,172.3h0l8.483,27.843h0l-.3-8.582C195.689,184.176,192.9,177.689,190.5,172.3Z" transform="translate(62.671 231.648)"/><g transform="translate(156.27 266.33)"><path class="k" d="M121.243,62.243H93.4V39.19a4.791,4.791,0,0,1,4.79-4.79h18.263a4.791,4.791,0,0,1,4.79,4.79Z" transform="translate(-93.4 -34.4)"/><path class="k" d="M96.993,62.293,93.5,65.885V58.8Z" transform="translate(-93.4 -34.45)"/><path class="k" d="M117.8,62.293l3.493,3.593V58.8Z" transform="translate(-93.45 -34.45)"/><g transform="translate(6.088 7.984)"><rect class="b" width="12.774" height="6.886" transform="translate(0 4.99)"/><rect class="l" width="12.774" height="6.886" transform="translate(2.894)"/><rect class="k" width="0.998" height="4.89" transform="translate(8.882 0.998)"/><rect class="k" width="0.998" height="4.89" transform="translate(6.846 3.921) rotate(-90)"/></g></g></g></svg>