<svg xmlns="http://www.w3.org/2000/svg" viewBox="-97.064 287.301 250 192.237"><defs><style>.a{fill:#fff;}.b{fill:#25549f;}.c{fill:#2970ff;}.d{fill:#091440;}.e{fill:#6c778b;}.f,.g,.h,.i{fill:none;stroke:#25549f;stroke-linecap:round;stroke-linejoin:round;stroke-width:2px;}.g{stroke-dasharray:3.849 6.735;}.h{stroke-dasharray:4.33 7.577;}.i{stroke-dasharray:3.848 6.734;}</style></defs><g transform="translate(-154)"><g transform="translate(56.936 287.301)"><g transform="translate(0 49.721)"><rect class="a" width="13.863" height="10.813" transform="translate(0 34.382)"/><path class="a" d="M43.963,91H30.1v10.906H43.963Z" transform="translate(-2.281 -56.618)"/><path class="a" d="M42.819,114.5H15v10.906H42.819Z" transform="translate(-1.137 -58.399)"/><path class="a" d="M27.819,148.813H41.682V138H0v10.813H27.819Z" transform="translate(0 -60.18)"/><path class="a" d="M42.819,161.5H15v10.813H42.819Z" transform="translate(-1.137 -61.961)"/><path class="a" d="M0,185v10.813H27.819V185H0Z" transform="translate(0 -63.742)"/><path class="b" d="M45.1,185h0v10.813h.555a12.963,12.963,0,0,1-.555-3.789Z" transform="translate(-3.418 -63.742)"/><path class="a" d="M253.219,91H225.4v10.906h41.682V91Z" transform="translate(-17.082 -56.618)"/><rect class="b" height="10.813" transform="translate(208.318 56.101)"/><path class="a" d="M240.4,114.5v10.906h27.819V114.5H240.4Z" transform="translate(-18.219 -58.399)"/><path class="a" d="M225.4,148.813h27.819V138H225.4Z" transform="translate(-17.082 -60.18)"/><rect class="b" height="10.813" transform="translate(208.318 99.539)"/><path class="a" d="M240.4,161.5v10.813h27.819V161.5H240.4Z" transform="translate(-18.219 -61.961)"/><path class="a" d="M225.354,185v7.116a12.962,12.962,0,0,1-.555,3.789h14.418V185Z" transform="translate(-17.037 -63.742)"/><rect class="a" width="13.863" height="10.813" transform="translate(236.137 121.258)"/><path class="c" d="M59.333,77.645H187.891V68.033A14.239,14.239,0,0,0,173.658,53.8H59.333A14.305,14.305,0,0,0,45.1,65.722h0A14.391,14.391,0,0,0,59.333,77.645Z" transform="translate(-3.418 -53.799)"/><path class="d" d="M184.009,186.848V176.035h27.726V165.129H156.283V154.316h55.453V143.5H197.873V132.6h13.863V121.783H156.283V110.97h55.453V92.855A14.239,14.239,0,0,0,197.5,78.622H59.333A14.305,14.305,0,0,1,45.1,66.7h0V89.158h69.316V99.972H45.1v10.813H72.826V121.6H45.1v32.532H72.826v10.813H45.1v11.091h97.042v10.813H45.655a14.277,14.277,0,0,0,13.678,10.444H197.5a14.194,14.194,0,0,0,13.678-10.444H184.009ZM170.054,132.6h13.863V143.41H170.054Zm27.819-43.438V99.972H128.557V89.158h69.316ZM86.782,110.877h55.453v10.813H86.782ZM72.826,143.41H58.963V132.6H86.69V143.41Zm41.682,21.719H86.782V154.316h27.726Zm27.819,0H128.464V154.316h13.863Zm0-21.719h-41.59V132.6h55.453V143.41H142.327Zm27.726,43.438H156.191V176.035h13.863Z" transform="translate(-3.418 -54.776)"/><path class="e" d="M72.826,101.906h41.682V91H45.1v10.906H72.826Z" transform="translate(-3.418 -56.618)"/><path class="e" d="M176.882,91H135.2v10.906h69.5V91H176.882Z" transform="translate(-10.246 -56.618)"/><path class="e" d="M72.826,125.406V114.5H45.1v10.906H72.826Z" transform="translate(-3.418 -58.399)"/><path class="e" d="M117.926,125.406h27.819V114.5H90.2v10.906h27.726Z" transform="translate(-6.836 -58.399)"/><path class="e" d="M193.119,114.5H165.3v10.906h55.545V114.5H193.119Z" transform="translate(-12.527 -58.399)"/><path class="e" d="M87.919,138H60.1v10.813H87.919Z" transform="translate(-4.555 -60.18)"/><path class="a" d="M160.745,138H105.2v10.813h55.545Z" transform="translate(-7.973 -60.18)"/><rect class="e" width="13.863" height="10.813" transform="translate(166.636 77.82)"/><path class="e" d="M72.826,172.313V161.5H45.1v10.813H72.826Z" transform="translate(-3.418 -61.961)"/><path class="e" d="M90.2,161.5v10.813h27.726V161.5H90.2Z" transform="translate(-6.836 -61.961)"/><rect class="e" width="13.863" height="10.813" transform="translate(124.954 99.539)"/><path class="e" d="M193.119,161.5H165.3v10.813h55.545V161.5H193.119Z" transform="translate(-12.527 -61.961)"/><path class="e" d="M72.826,195.813h69.316V185H45.1v7.116a12.964,12.964,0,0,0,.555,3.789H72.826Z" transform="translate(-3.418 -63.742)"/><rect class="e" width="13.863" height="10.813" transform="translate(152.773 121.258)"/><rect class="e" width="13.863" height="10.813" transform="translate(194.455 77.82)"/><path class="e" d="M223.126,185H195.4v10.813h27.172a12.963,12.963,0,0,0,.555-3.789Z" transform="translate(-14.809 -63.742)"/></g><g transform="translate(42.237 23.66)"><line class="f" x1="0.832" y2="1.571" transform="translate(164.695)"/><line class="g" x1="48.585" y2="97.934" transform="translate(113.152 7.116)"/><path class="f" d="M165.773,136l-.924,1.664H163" transform="translate(-54.59 -27.895)"/><line class="h" x1="40.481" transform="translate(60.906 109.768)"/><path class="f" d="M107.58,137.664h-1.848L104.9,136" transform="translate(-50.187 -27.895)"/><line class="i" x1="50.129" y1="99.51" transform="translate(2.311 4.529)"/><line class="f" x1="0.832" y1="1.571" transform="translate(0 0.185)"/></g><g transform="translate(41.312)"><rect class="a" width="167.375" height="24.861"/></g><g transform="translate(85.305 5.36)"><path class="c" d="M93.132,16.889a4.249,4.249,0,0,0,3.142,1.479,2.217,2.217,0,0,0,2.5-2.218c0-1.479-1.017-2.4-3.882-2.4v-1.2c2.588,0,3.42-1.017,3.42-2.311a1.9,1.9,0,0,0-2.126-1.941,3.989,3.989,0,0,0-2.588,1.2l-.832-1.017A5.108,5.108,0,0,1,96.274,7c2.126,0,3.6,1.109,3.6,3.05a2.968,2.968,0,0,1-2.218,2.865v.092a3.083,3.083,0,0,1,2.588,3.05c0,2.126-1.756,3.512-3.974,3.512A5.053,5.053,0,0,1,92.3,17.813Z" transform="translate(-92.3 -5.891)"/><path class="c" d="M104.432,16.889a4.249,4.249,0,0,0,3.142,1.479,2.217,2.217,0,0,0,2.5-2.218c0-1.479-1.017-2.4-3.882-2.4v-1.2c2.588,0,3.42-1.017,3.42-2.311a1.9,1.9,0,0,0-2.126-1.941,3.989,3.989,0,0,0-2.588,1.2l-.832-1.017A5.108,5.108,0,0,1,107.574,7c2.126,0,3.6,1.109,3.6,3.05a2.968,2.968,0,0,1-2.218,2.865v.092a3.083,3.083,0,0,1,2.588,3.05c0,2.126-1.756,3.512-3.974,3.512a5.053,5.053,0,0,1-3.974-1.756Z" transform="translate(-93.156 -5.891)"/><path class="c" d="M120,6.9h1.664l1.294,6.839c.277,1.386.462,2.68.739,4.067h.092c.277-1.386.555-2.68.832-4.067L126.377,6.9h1.479l1.756,6.839c.277,1.294.555,2.68.924,4.067h.092c.277-1.386.462-2.68.739-4.067L132.662,6.9h1.571l-2.588,12.477H129.7l-1.848-7.486c-.185-1.017-.462-1.848-.555-2.865h-.092c-.185,1.017-.462,1.848-.647,2.865l-1.848,7.486h-1.848Z" transform="translate(-94.399 -5.883)"/><path class="c" d="M141.951,10.2c2.311,0,4.251,1.756,4.251,4.9,0,3.05-2.033,4.806-4.251,4.806-2.311,0-4.251-1.756-4.251-4.806C137.7,11.956,139.733,10.2,141.951,10.2Zm0,8.41c1.571,0,2.68-1.386,2.68-3.512s-1.109-3.6-2.68-3.6-2.68,1.479-2.68,3.6S140.38,18.61,141.951,18.61Z" transform="translate(-95.741 -6.133)"/><path class="c" d="M150.6,10.377h1.294l.092,1.664h.092a3.146,3.146,0,0,1,2.588-1.941,3.93,3.93,0,0,1,1.017.185l-.277,1.386a2.734,2.734,0,0,0-.924-.185c-.739,0-1.756.555-2.311,2.126v5.915H150.6v-9.15Z" transform="translate(-96.718 -6.126)"/><path class="c" d="M161.874,9.867a3.5,3.5,0,0,1,2.588,1.109L164.37,9.4V5.8h1.571V19.386h-1.294l-.092-1.109h-.092a4.111,4.111,0,0,1-2.773,1.294c-2.311,0-3.789-1.756-3.789-4.806S159.748,9.867,161.874,9.867Zm.185,8.41a3.491,3.491,0,0,0,2.4-1.294V12.177a3.054,3.054,0,0,0-2.218-1.017c-1.479,0-2.68,1.386-2.68,3.512C159.471,16.891,160.4,18.277,162.059,18.277Z" transform="translate(-97.272 -5.8)"/><path class="c" d="M170.732,17.594a4.319,4.319,0,0,0,2.68,1.109c1.2,0,1.848-.647,1.848-1.479,0-.924-1.109-1.386-2.126-1.756-1.294-.462-2.773-1.109-2.773-2.68,0-1.479,1.2-2.588,3.142-2.588a4.66,4.66,0,0,1,2.865,1.017l-.739,1.017A3.583,3.583,0,0,0,173.5,11.4c-1.2,0-1.664.647-1.664,1.294,0,.832,1.017,1.2,2.033,1.571,1.294.462,2.865,1.017,2.865,2.773,0,1.479-1.2,2.773-3.42,2.773a5.366,5.366,0,0,1-3.42-1.294Z" transform="translate(-98.181 -6.133)"/></g></g></g></svg>