<svg xmlns="http://www.w3.org/2000/svg" width="20" height="20" viewBox="0 0 20 20"><g transform="translate(-436 -891)"><g transform="translate(436 891)"><g transform="translate(1.391 1.387)"><path d="M0,0H17.222V15.556H0Z" fill="#2f4d8c"/><rect width="17.222" height="14.996" transform="translate(0 2.231)" fill="#99c1e3"/><g transform="translate(2.222 13.338)"><g transform="translate(7.222)"><path d="M344.256,332.411h0a.556.556,0,0,0,.556-.556h0a.556.556,0,0,0-.556-.556h0a.556.556,0,0,0-.556.556h0A.556.556,0,0,0,344.256,332.411Z" transform="translate(-339.26 -331.3)" fill="#2f4d8c"/><path d="M294.356,332.411h0a.556.556,0,0,0,.556-.556h0a.556.556,0,0,0-.556-.556h0a.556.556,0,0,0-.556.556h0A.553.553,0,0,0,294.356,332.411Z" transform="translate(-291.578 -331.3)" fill="#2f4d8c"/><path d="M244.356,332.411h0a.556.556,0,0,0,.556-.556h0a.556.556,0,0,0-.556-.556h0a.556.556,0,0,0-.556.556h0A.553.553,0,0,0,244.356,332.411Z" transform="translate(-243.8 -331.3)" fill="#2f4d8c"/></g><rect width="5.556" height="1.111" fill="#2f4d8c"/></g><g transform="translate(2.222 3.333)"><path d="M332.311,106.2H331.2v7.778h1.671V106.2Z" transform="translate(-320.093 -106.2)" fill="#2f4d8c"/><path d="M269.811,131.2H268.7v6.667h1.667V131.2Z" transform="translate(-260.371 -130.089)" fill="#2f4d8c"/><path d="M207.311,156.2H206.2v5.556h1.671V156.2Z" transform="translate(-200.649 -153.978)" fill="#2f4d8c"/><path d="M144.811,143.7H143.7v6.111h1.667V143.7Z" transform="translate(-140.927 -142.033)" fill="#2f4d8c"/><path d="M82.411,181.3H81.3v4.444h1.667V181.3Z" transform="translate(-81.3 -177.962)" fill="#2f4d8c"/></g></g><path d="M0,0H20V20H0Z" fill="none"/></g></g></svg>