<svg viewBox="-2350 1059 20 20" xmlns="http://www.w3.org/2000/svg"><g transform="translate(-2348.609 1060.387)"><path d="m0 0h17.222v15.556h-17.222z" fill="#152337"/><path d="m0 2.231h17.222v14.996h-17.222z" fill="#c4cbd2"/><g fill="#152337"><path d="m344.256 332.411a.556.556 0 0 0 .556-.556.556.556 0 0 0 -.556-.556.556.556 0 0 0 -.556.556.556.556 0 0 0 .556.556z" transform="translate(-329.816 -317.962)"/><path d="m294.356 332.411a.556.556 0 0 0 .556-.556.556.556 0 0 0 -.556-.556.556.556 0 0 0 -.556.556.553.553 0 0 0 .556.556z" transform="translate(-282.134 -317.962)"/><path d="m244.356 332.411a.556.556 0 0 0 .556-.556.556.556 0 0 0 -.556-.556.556.556 0 0 0 -.556.556.553.553 0 0 0 .556.556z" transform="translate(-234.356 -317.962)"/><path d="m2.222 13.338h5.556v1.111h-5.556z"/><path d="m332.311 106.2h-1.111v7.778h1.671v-7.778z" transform="translate(-317.871 -102.867)"/><path d="m269.811 131.2h-1.111v6.667h1.667v-6.667z" transform="translate(-258.149 -126.756)"/><path d="m207.311 156.2h-1.111v5.556h1.671v-5.556z" transform="translate(-198.427 -150.645)"/><path d="m144.811 143.7h-1.111v6.111h1.667v-6.111z" transform="translate(-138.705 -138.7)"/><path d="m82.411 181.3h-1.111v4.444h1.667v-4.444z" transform="translate(-79.078 -174.629)"/></g></g><path d="m-2350 1059h20v20h-20z" fill="none"/></svg>