<svg xmlns="http://www.w3.org/2000/svg" viewBox="7283 1064 40 40"><defs><style>.a{fill:#152337;}.b{fill:#8997a5;}.c{fill:none;}</style></defs><g transform="translate(6741 850)"><g transform="translate(548.667 216.222)"><path class="a" d="M0,0H26.667V17.778H0Z" transform="translate(0 13.333)"/><rect class="b" width="26.667" height="17.778" transform="translate(0 17.778)"/><path class="b" d="M100,36.111v4.444h4.444V36.111a6.669,6.669,0,0,1,6.667-6.667h0a6.669,6.669,0,0,1,6.667,6.667v4.444h4.444V36.111A11.115,11.115,0,0,0,111.111,25h0A11.115,11.115,0,0,0,100,36.111Z" transform="translate(-97.778 -25)"/><g transform="translate(5.123 20.384)"><rect class="a" width="4.444" height="13.333" transform="translate(13.36) rotate(45)"/><rect class="a" width="4.444" height="10" transform="translate(0 5.497) rotate(-45)"/></g></g><rect class="c" width="40" height="40" transform="translate(542 214)"/></g></svg>