<svg viewBox="7283 1064 40 40" xmlns="http://www.w3.org/2000/svg"><path d="m0 0h26.667v17.778h-26.667z" fill="#152337" transform="translate(7289.667 1079.555)"/><path d="m7289.667 1084h26.667v17.778h-26.667z" fill="#8997a5"/><path d="m100 36.111v4.444h4.444v-4.444a6.669 6.669 0 0 1 6.667-6.667 6.669 6.669 0 0 1 6.667 6.667v4.444h4.444v-4.444a11.115 11.115 0 0 0 -11.111-11.111 11.115 11.115 0 0 0 -11.111 11.111z" fill="#8997a5" transform="translate(7191.889 1041.222)"/><path d="m0 0h4.444v13.333h-4.444z" fill="#152337" transform="matrix(.70710678 .70710678 -.70710678 .70710678 7308.15 1086.606)"/><path d="m0 0h4.444v10h-4.444z" fill="#152337" transform="matrix(.70710678 -.70710678 .70710678 .70710678 7294.79 1092.103)"/><path d="m7283 1064h40v40h-40z" fill="none"/></svg>