<?xml version="1.0" encoding="UTF-8" standalone="no"?>
<svg
   xmlns:dc="http://purl.org/dc/elements/1.1/"
   xmlns:cc="http://creativecommons.org/ns#"
   xmlns:rdf="http://www.w3.org/1999/02/22-rdf-syntax-ns#"
   xmlns:svg="http://www.w3.org/2000/svg"
   xmlns="http://www.w3.org/2000/svg"
   id="svg12"
   version="1.1"
   viewBox="0 0 450 450"
   height="450"
   width="450">
  <metadata
     id="metadata18">
    <rdf:RDF>
      <cc:Work
         rdf:about="">
        <dc:format>image/svg+xml</dc:format>
        <dc:type
           rdf:resource="http://purl.org/dc/dcmitype/StillImage" />
        <dc:title>user</dc:title>
      </cc:Work>
    </rdf:RDF>
  </metadata>
  <defs
     id="defs16" />
  <title
     id="title2">user</title>
  <path
     d="m 225.242,24.864 c -110.452,0 -199.99,89.534 -199.99,199.988 0,110.454 89.538,199.987 199.99,199.987 110.452,0 199.987,-89.539 199.987,-199.987 0,-110.448 -89.538,-199.988 -199.987,-199.988 z"
     id="path4"
     style="fill:#436ec3;fill-opacity:1" />
  <path
     d="m 278.216,232.005 a 87.5,87.5 0 1 0 -105.946,0 200.133,200.133 0 0 0 -104.415,69.51 175.193,175.193 0 0 0 314.774,0 200.121,200.121 0 0 0 -104.413,-69.51 z"
     id="path6"
     style="fill:#99c1e3;fill-opacity:1" />
  <rect
     width="450"
     height="450"
     id="rect8"
     x="0"
     y="0"
     style="fill:none" />
</svg>
