<svg xmlns="http://www.w3.org/2000/svg" width="16.1" height="16" viewBox="0 0 16.1 16">
  <g id="stakepool_3" transform="translate(-821.1 -563.3)">
    <path id="Path_445" data-name="Path 445" d="M417.4,11.1l-3.1,3.1a6.8,6.8,0,0,0,4.9,2V11.8A2.875,2.875,0,0,1,417.4,11.1Z" transform="translate(410 562)" fill="#8795a2"/>
    <path id="Path_446" data-name="Path 446" d="M417.4,11.1a2.41,2.41,0,0,1-.7-1.8h-4.4a7.041,7.041,0,0,0,2,4.9Z" transform="translate(410 562)" fill="#436ec3"/>
    <path id="Path_447" data-name="Path 447" d="M417.4,7.5l-3.1-3.1a6.8,6.8,0,0,0-2,4.9h4.4A2.875,2.875,0,0,1,417.4,7.5Z" transform="translate(410 562)" fill="#99c1e3"/>
    <path id="Path_448" data-name="Path 448" d="M414.3,4.4l3.1,3.1a2.41,2.41,0,0,1,1.8-.7V2.3A6.887,6.887,0,0,0,414.3,4.4Z" transform="translate(410 562)" fill="#436ec3"/>
    <path id="Path_449" data-name="Path 449" d="M422,6.5a2.41,2.41,0,0,1,.7,1.8h4.4a7.041,7.041,0,0,0-2-4.9Z" transform="translate(410 562)" fill="#436ec3"/>
    <path id="Path_450" data-name="Path 450" d="M422,6.5l3.1-3.1a6.8,6.8,0,0,0-4.9-2V5.8A2.268,2.268,0,0,1,422,6.5Z" transform="translate(410 562)" fill="#99c1e3"/>
    <path id="Path_451" data-name="Path 451" d="M421.8,9.3a2.875,2.875,0,0,1-.7,1.8l3.1,3.1a6.8,6.8,0,0,0,2-4.9h-4.4Z" transform="translate(410 562)" fill="#99c1e3"/>
    <path id="Path_452" data-name="Path 452" d="M421,11.1a2.41,2.41,0,0,1-1.8.7v4.4a7.041,7.041,0,0,0,4.9-2Z" transform="translate(410 562)" fill="#436ec3"/>
    <g id="Group_1074" data-name="Group 1074" transform="translate(410 562)">
      <path id="XMLID_2_" d="M415.8,17.3a4.335,4.335,0,0,0,2.8-1,4.475,4.475,0,0,0,1.6-3.5v-.7h0a4.457,4.457,0,0,0-3.7-3.8h-.6a4.272,4.272,0,0,0-3.4,1.6,4.779,4.779,0,0,0-1,2.8A4.229,4.229,0,0,0,415.8,17.3Z" fill="#99c1e3"/>
    </g>
    <path id="Path_453" data-name="Path 453" d="M418.8,9.6a4.446,4.446,0,0,0-3.3-1.3,4.639,4.639,0,0,0-4.4,4.3,4.6,4.6,0,0,0,1.3,3.3,4.48,4.48,0,0,0,3.2,1.4.4.4,0,0,0,0-.8,3.631,3.631,0,0,1-2.6-1.1,3.541,3.541,0,0,1-1-2.6,3.685,3.685,0,0,1,3.5-3.5,4,4,0,0,1,2.6,1,4.23,4.23,0,0,1,1.1,2.8.684.684,0,0,1-.7.7c-.4,0-.5-.4-.5-.8a2.245,2.245,0,0,0-2.2-2.5,2.156,2.156,0,0,0-2.2,2.2,2.22,2.22,0,0,0,2.2,2.2,2.43,2.43,0,0,0,1.8-.9,1.606,1.606,0,0,0,1.1.5,1.58,1.58,0,0,0,1.6-1.6v-.2A4.8,4.8,0,0,0,418.8,9.6Zm-3.1,4.5a1.3,1.3,0,1,1,1.3-1.3A1.206,1.206,0,0,1,415.7,14.1Z" transform="translate(410 562)" fill="#436ec3"/>
    <rect id="Rectangle_840" data-name="Rectangle 840" width="15.9" height="15.9" transform="translate(821.3 563.3)" fill="none"/>
  </g>
</svg>
