<svg viewBox="0 0 401.85 400.49" xmlns="http://www.w3.org/2000/svg"><path d="m155.81 245-78.72 78.74a174.45 174.45 0 0 0 123.74 51.26v-111.32a63.48 63.48 0 0 1 -45.02-18.68z" fill="#8795a2"/><path d="m155.81 245a63.48 63.48 0 0 1 -18.65-45h-111.33a174.45 174.45 0 0 0 51.26 123.74z" fill="#18173f"/><path d="m155.81 155-78.72-78.74a174.45 174.45 0 0 0 -51.26 123.74h111.33a63.48 63.48 0 0 1 18.65-45z" fill="#8795a2"/><path d="m77.09 76.26 78.72 78.74a63.48 63.48 0 0 1 45-18.65v-111.35a174.45 174.45 0 0 0 -123.72 51.26z" fill="#18173f"/><path d="m270.86 130a63.48 63.48 0 0 1 18.65 45h111.32a174.45 174.45 0 0 0 -51.25-123.74z" fill="#18173f"/><path d="m270.86 130 78.72-78.72a174.45 174.45 0 0 0 -123.75-51.28v111.32a63.48 63.48 0 0 1 45.03 18.68z" fill="#8795a2"/><path d="m264.51 200a63.48 63.48 0 0 1 -18.65 45l78.72 78.72a174.45 174.45 0 0 0 51.25-123.72z" fill="#8795a2"/><path d="m245.86 245a63.48 63.48 0 0 1 -45 18.65v111.35a174.45 174.45 0 0 0 123.74-51.26z" fill="#18173f"/><path d="m113.32 400.49a110.4 110.4 0 0 0 70.9-25.68 112.66 112.66 0 0 0 40.57-86.81 114.4 114.4 0 0 0 -1.18-16.37l1.33-.47-1.34.46c-7.09-49-45.49-87.76-94.05-94.91a110.89 110.89 0 0 0 -102.23 39.72 112.65 112.65 0 0 0 -25.47 71.57c0 62.13 49.91 112.49 111.47 112.49z" fill="#8795a2"/><path d="m191 206.86a111.25 111.25 0 0 0 -81.64-31.81c-58.68 1.6-107.68 50.64-109.36 109.25a112.5 112.5 0 0 0 112.52 115.7 11.25 11.25 0 0 0 0-22.5 90 90 0 0 1 -90.02-92.5c1.29-47 40.5-86.15 87.4-87.44 24.45-.62 46.56 9.66 65.29 25.47 28.79 24.23 27.24 70.17 27.24 70.17a16.88 16.88 0 0 1 -33.75 0s4.83-59.18-56.26-61.88c-31.27-1.37-56.26 25.25-56.26 56.26a56.11 56.11 0 0 0 101.4 33.27 39.34 39.34 0 0 0 67.38-27.64v-5.71a111.06 111.06 0 0 0 -33.94-80.64zm-78.48 114.38a33.75 33.75 0 1 1 33.75-33.75 33.8 33.8 0 0 1 -33.75 33.75z" fill="#18173f"/><path d="m1.85 0h400v400h-400z" fill="none"/></svg>