<svg viewBox="0 0 400.12 400.54" xmlns="http://www.w3.org/2000/svg"><path d="m132.34 226.68-118.4 46.56a199.37 199.37 0 0 0 106.26 110.17l50.8-116.64a72.55 72.55 0 0 1 -38.66-40.09z" fill="#8795a2"/><path d="m132.34 226.68a72.55 72.55 0 0 1 1-55.69l-116.64-50.8a199.37 199.37 0 0 0 -2.77 153z" fill="#18173f"/><path d="m173.44 132.32-46.56-118.4a199.37 199.37 0 0 0 -110.18 106.27l116.65 50.81a72.55 72.55 0 0 1 40.09-38.68z" fill="#8795a2"/><path d="m126.88 13.92 46.55 118.4a72.55 72.55 0 0 1 55.69 1l50.8-116.64a199.37 199.37 0 0 0 -153.04-2.76z" fill="#18173f"/><path d="m267.79 173.42a72.55 72.55 0 0 1 -1 55.69l116.64 50.8a199.37 199.37 0 0 0 2.77-153z" fill="#18173f"/><path d="m267.79 173.42 118.4-46.55a199.37 199.37 0 0 0 -106.26-110.18l-50.8 116.64a72.55 72.55 0 0 1 38.66 40.09z" fill="#8795a2"/><path d="m266.79 229.11a72.55 72.55 0 0 1 -40.09 38.67l46.55 118.4a199.37 199.37 0 0 0 110.18-106.27z" fill="#8795a2"/><path d="m226.7 267.78a72.55 72.55 0 0 1 -55.69-1l-50.81 116.63a199.37 199.37 0 0 0 153 2.77z" fill="#18173f"/><path d="m112.49 400.54a112.48 112.48 0 0 0 112.51-112.49 113.38 113.38 0 0 0 -1.19-16.37l1.35-.47-1.35.46a112.49 112.49 0 1 0 -111.3 128.87z" fill="#8795a2"/><path d="m27.35 259.33c0-27.71 15.35-43.91 35.81-43.91s35.84 16.2 35.84 43.91-15.35 44.33-35.81 44.33-35.84-16.66-35.84-44.33zm46.46 0c0-18.76-5.12-23.87-10.66-23.87s-10.65 5.12-10.65 23.87 5.12 24.3 10.66 24.3 10.66-5.54 10.66-24.3zm-5.54 99.75 74.17-143.65h20.46l-74.16 143.65zm63.51-44.33c0-27.71 15.35-43.91 35.81-43.91s35.81 16.2 35.81 43.91-15.35 44.33-35.81 44.33-35.8-16.63-35.8-44.33zm46.46 0c0-18.76-5.12-23.87-10.66-23.87s-10.66 5.12-10.66 23.87 5.14 24.25 10.68 24.25 10.65-5.5 10.65-24.25z" fill="#18173f"/><path d="m.07.05h400v400h-400z" fill="none"/></svg>