<svg viewBox="0 0 150 150" xmlns="http://www.w3.org/2000/svg"><g fill="#2f74fb"><path d="m155.625 199.375h-130.687a.937.937 0 1 1 0-1.875h130.687a.937.937 0 1 1 0 1.875z" transform="translate(-15 -123.438)"/><path d="m155.625 199.375h-130.687a.937.937 0 1 1 0-1.875h130.687a.937.937 0 1 1 0 1.875z" transform="translate(-15 -123.438)"/><path d="m.937 66.562h16.875v16.875h-16.875z"/><path d="m16.875 176.875v15h-15v-15zm1.875-1.875h-18.75v18.75h18.75z" transform="translate(0 -109.375)"/></g><path d="m132.187 66.562h16.875v16.875h-16.875z" fill="#fff"/><g fill="#2f74fb"><path d="m366.875 176.875v15h-15v-15zm1.875-1.875h-18.75v18.75h18.75z" transform="translate(-218.75 -109.375)"/><path d="m198.438 155.062a.928.928 0 0 1 -.937-.937v-130.687a.937.937 0 1 1 1.875 0v130.687a.928.928 0 0 1 -.938.937z" transform="translate(-123.438 -14.063)"/><path d="m198.438 155.062a.928.928 0 0 1 -.937-.937v-130.687a.937.937 0 1 1 1.875 0v130.687a.928.928 0 0 1 -.938.937z" transform="translate(-123.438 -14.063)"/></g><path d="m66.562 132.187h16.875v16.875h-16.875z" fill="#fff"/><path d="m191.875 351.875v15h-15v-15zm1.875-1.875h-18.75v18.75h18.75z" fill="#2f74fb" transform="translate(-109.375 -218.75)"/><path d="m66.562.937h16.875v16.875h-16.875z" fill="#fff"/><path d="m191.875 1.875v15h-15v-15zm1.875-1.875h-18.75v18.75h18.75z" fill="#2f74fb" transform="translate(-109.375)"/><path d="m75.706 168.044a.963.963 0 0 1 -.675-.262.906.906 0 0 1 0-1.312l92.437-92.437a.928.928 0 0 1 1.313 1.313l-92.4 92.4a.939.939 0 0 1 -.675.298z" fill="#2f74fb" transform="translate(-46.719 -46.094)"/><path d="m75.706 168.044a.963.963 0 0 1 -.675-.262.906.906 0 0 1 0-1.312l92.437-92.437a.928.928 0 0 1 1.313 1.313l-92.4 92.4a.939.939 0 0 1 -.675.298z" fill="#2f74fb" transform="translate(-46.719 -46.094)"/><path d="m19.687 113.437h16.875v16.875h-16.875z" fill="#fff"/><path d="m66.875 301.875v15h-15v-15zm1.875-1.875h-18.75v18.75h18.75z" fill="#2f74fb" transform="translate(-31.25 -187.5)"/><path d="m113.437 19.687h16.875v16.875h-16.875z" fill="#fff"/><g fill="#2f74fb"><path d="m316.875 51.875v15h-15v-15zm1.875-1.875h-18.75v18.75h18.75z" transform="translate(-187.5 -31.25)"/><path d="m167.106 168.044a.963.963 0 0 1 -.675-.262l-92.4-92.437a.928.928 0 0 1 1.313-1.312l92.4 92.4a.906.906 0 0 1 0 1.313.924.924 0 0 1 -.638.298z" transform="translate(-46.094 -46.094)"/><path d="m167.106 168.044a.963.963 0 0 1 -.675-.262l-92.4-92.437a.928.928 0 0 1 1.313-1.312l92.4 92.4a.906.906 0 0 1 0 1.313.924.924 0 0 1 -.638.298z" transform="translate(-46.094 -46.094)"/><path d="m113.437 113.437h16.875v16.875h-16.875z"/><path d="m316.875 301.875v15h-15v-15zm1.875-1.875h-18.75v18.75h18.75z" transform="translate(-187.5 -187.5)"/><path d="m19.687 19.687h16.875v16.875h-16.875z"/><path d="m66.875 51.875v15h-15v-15zm1.875-1.875h-18.75v18.75h18.75z" transform="translate(-31.25 -31.25)"/><circle cx="75" cy="75" r="37.5"/></g><circle cx="75" cy="75" fill="#70cbff" r="37.5"/><path d="m137.5 228.875a37.515 37.515 0 0 1 -37.425-35.175c-.037.787-.075 1.538-.075 2.325a37.5 37.5 0 0 0 75 0c0-.787-.038-1.575-.075-2.325a37.515 37.515 0 0 1 -37.425 35.175z" fill="#2f74fb" transform="translate(-62.5 -121.063)"/><path d="m159.438 162.5a28.1 28.1 0 0 0 -24.338 14.063 28.134 28.134 0 0 0 48.712 0 28.2 28.2 0 0 0 -24.374-14.063z" fill="#fff" transform="translate(-84.438 -101.563)"/><path d="m192.587 183.237v-3.187l-1.95-.788a10.821 10.821 0 0 0 -.975-2.363l.825-1.95-2.25-2.25-1.95.825a9.248 9.248 0 0 0 -2.363-.975l-.788-1.95h-3.186l-.788 1.95a10.82 10.82 0 0 0 -2.362.975l-1.95-.825-2.25 2.25.825 1.95a9.246 9.246 0 0 0 -.975 2.363l-1.95.788v3.187l1.95.788a10.82 10.82 0 0 0 .975 2.363l-.825 1.95 2.25 2.25 1.95-.825a9.247 9.247 0 0 0 2.362.975l.788 1.95h3.187l.788-1.95a10.82 10.82 0 0 0 2.363-.975l1.95.825 2.25-2.25-.825-1.95a9.247 9.247 0 0 0 .975-2.363z" fill="#fff" transform="translate(-106.563 -106.625)"/><path d="m182.313 191.962h-4.463l-.825-2.138a9.836 9.836 0 0 1 -1.725-.712l-2.1.9-3.15-3.15.9-2.1a9.837 9.837 0 0 1 -.712-1.725l-2.137-.825v-4.462l2.137-.825a9.838 9.838 0 0 1 .712-1.725l-.9-2.1 3.15-3.15 2.1.9a9.837 9.837 0 0 1 1.725-.712l.825-2.138h4.462l.825 2.137a9.838 9.838 0 0 1 1.725.712l2.1-.9 3.15 3.15-.9 2.1a9.839 9.839 0 0 1 .712 1.725l2.137.825v4.5l-2.137.825a9.839 9.839 0 0 1 -.712 1.725l.9 2.1-3.15 3.15-2.1-.9a9.837 9.837 0 0 1 -1.725.712zm-3.187-1.875h1.913l.712-1.8.45-.113a7.625 7.625 0 0 0 2.137-.9l.413-.225 1.8.788 1.35-1.35-.788-1.8.225-.412a10.747 10.747 0 0 0 .9-2.137l.113-.45 1.8-.712v-1.913l-1.8-.712-.113-.45a7.626 7.626 0 0 0 -.9-2.137l-.225-.413.788-1.8-1.35-1.35-1.8.788-.413-.225a10.746 10.746 0 0 0 -2.137-.9l-.45-.113-.712-1.8h-1.913l-.712 1.8-.45.113a7.627 7.627 0 0 0 -2.137.9l-.413.225-1.8-.788-1.35 1.35.788 1.8-.225.413a10.743 10.743 0 0 0 -.9 2.137l-.113.45-1.8.712v1.913l1.8.712.113.45a7.625 7.625 0 0 0 .9 2.137l.225.412-.788 1.8 1.35 1.35 1.8-.788.413.225a10.745 10.745 0 0 0 2.137.9l.45.113z" fill="#2f74fb" transform="translate(-105.063 -105)"/><circle cx="74.999" cy="74.999" fill="#2f74fb" r="4.687"/><path d="m133.572 176a.891.891 0 0 1 -.45-.113.925.925 0 0 1 -.337-1.275 29.066 29.066 0 0 1 50.325 0 .933.933 0 0 1 -1.613.938 27.2 27.2 0 0 0 -37.125-9.938 26.88 26.88 0 0 0 -9.937 9.938 1.1 1.1 0 0 1 -.863.45z" fill="#2f74fb" transform="translate(-82.91 -100.064)"/></svg>