<svg id="Component_1038_1" data-name="Component 1038 – 1" xmlns="http://www.w3.org/2000/svg" width="36" height="16" viewBox="0 0 36 16">
  <g id="Group_4177" data-name="Group 4177" transform="translate(-764 -284)">
    <g id="Group_4174" data-name="Group 4174" transform="translate(784 284)">
      <path id="Path_1178" data-name="Path 1178" d="M116.6,110.09l-.629.629,3.013,3.013H112.5v.889h6.483l-3.013,3.012.629.629,4.086-4.085Z" transform="translate(-108.5 -106.175)" fill="#091440"/>
      <rect id="Rectangle_3972" data-name="Rectangle 3972" width="16" height="16" fill="none"/>
    </g>
    <g id="Group_4175" data-name="Group 4175" transform="translate(774 284)" opacity="0.202">
      <path id="Path_1178-2" data-name="Path 1178" d="M116.6,110.09l-.629.629,3.013,3.013H112.5v.889h6.483l-3.013,3.012.629.629,4.086-4.085Z" transform="translate(-108.5 -106.175)" fill="#091440"/>
      <rect id="Rectangle_3972-2" data-name="Rectangle 3972" width="16" height="16" fill="none"/>
    </g>
    <g id="Group_4176" data-name="Group 4176" transform="translate(764 284)" opacity="0.029">
      <path id="Path_1178-3" data-name="Path 1178" d="M116.6,110.09l-.629.629,3.013,3.013H112.5v.889h6.483l-3.013,3.012.629.629,4.086-4.085Z" transform="translate(-108.5 -106.175)" fill="#091440"/>
      <rect id="Rectangle_3972-3" data-name="Rectangle 3972" width="16" height="16" fill="none"/>
    </g>
  </g>
</svg>
