<svg xmlns="http://www.w3.org/2000/svg" viewBox="0 0 150 150"><defs><style>.a{fill:#2f74fb;}.b{fill:#fff;}.c{fill:#70cbff;}</style></defs><g transform="translate(-831.414 -329)"><g transform="translate(831.414 329)"><g transform="translate(9 74.062)"><path class="a" d="M155.625,199.375H24.938a.937.937,0,1,1,0-1.875H155.625a.937.937,0,1,1,0,1.875Z" transform="translate(-24 -197.5)"/></g><g transform="translate(9 74.062)"><path class="a" d="M155.625,199.375H24.938a.937.937,0,1,1,0-1.875H155.625a.937.937,0,1,1,0,1.875Z" transform="translate(-24 -197.5)"/></g><g transform="translate(0.937 66.562)"><rect class="a" width="16.875" height="16.875"/></g><g transform="translate(0 65.625)"><path class="a" d="M16.875,176.875v15h-15v-15h15M18.75,175H0v18.75H18.75Z" transform="translate(0 -175)"/></g><g transform="translate(132.187 66.562)"><rect class="b" width="16.875" height="16.875"/></g><g transform="translate(131.25 65.625)"><path class="a" d="M366.875,176.875v15h-15v-15h15M368.75,175H350v18.75h18.75Z" transform="translate(-350 -175)"/></g><g transform="translate(74.062 8.437)"><path class="a" d="M198.438,155.062a.928.928,0,0,1-.937-.937V23.438a.937.937,0,1,1,1.875,0V154.125A.928.928,0,0,1,198.438,155.062Z" transform="translate(-197.5 -22.5)"/></g><g transform="translate(74.062 8.437)"><path class="a" d="M198.438,155.062a.928.928,0,0,1-.937-.937V23.438a.937.937,0,1,1,1.875,0V154.125A.928.928,0,0,1,198.438,155.062Z" transform="translate(-197.5 -22.5)"/></g><g transform="translate(66.562 132.187)"><rect class="b" width="16.875" height="16.875"/></g><g transform="translate(65.625 131.25)"><path class="a" d="M191.875,351.875v15h-15v-15h15M193.75,350H175v18.75h18.75Z" transform="translate(-175 -350)"/></g><g transform="translate(66.562 0.937)"><rect class="b" width="16.875" height="16.875"/></g><g transform="translate(65.625)"><path class="a" d="M191.875,1.875v15h-15v-15h15M193.75,0H175V18.75h18.75Z" transform="translate(-175)"/></g><g transform="translate(28.031 27.656)"><path class="a" d="M75.706,168.044a.963.963,0,0,1-.675-.262.906.906,0,0,1,0-1.312l92.437-92.437a.928.928,0,0,1,1.313,1.313l-92.4,92.4A.939.939,0,0,1,75.706,168.044Z" transform="translate(-74.75 -73.75)"/></g><g transform="translate(28.031 27.656)"><path class="a" d="M75.706,168.044a.963.963,0,0,1-.675-.262.906.906,0,0,1,0-1.312l92.437-92.437a.928.928,0,0,1,1.313,1.313l-92.4,92.4A.939.939,0,0,1,75.706,168.044Z" transform="translate(-74.75 -73.75)"/></g><g transform="translate(19.687 113.437)"><rect class="b" width="16.875" height="16.875"/></g><g transform="translate(18.75 112.5)"><path class="a" d="M66.875,301.875v15h-15v-15h15M68.75,300H50v18.75H68.75Z" transform="translate(-50 -300)"/></g><g transform="translate(113.437 19.687)"><rect class="b" width="16.875" height="16.875"/></g><g transform="translate(112.5 18.75)"><path class="a" d="M316.875,51.875v15h-15v-15h15M318.75,50H300V68.75h18.75Z" transform="translate(-300 -50)"/></g><g transform="translate(27.656 27.656)"><path class="a" d="M167.106,168.044a.963.963,0,0,1-.675-.262l-92.4-92.437a.928.928,0,0,1,1.313-1.312l92.4,92.4a.906.906,0,0,1,0,1.313A.924.924,0,0,1,167.106,168.044Z" transform="translate(-73.75 -73.75)"/></g><g transform="translate(27.656 27.656)"><path class="a" d="M167.106,168.044a.963.963,0,0,1-.675-.262l-92.4-92.437a.928.928,0,0,1,1.313-1.312l92.4,92.4a.906.906,0,0,1,0,1.313A.924.924,0,0,1,167.106,168.044Z" transform="translate(-73.75 -73.75)"/></g><g transform="translate(113.437 113.437)"><rect class="a" width="16.875" height="16.875"/></g><g transform="translate(112.5 112.5)"><path class="a" d="M316.875,301.875v15h-15v-15h15M318.75,300H300v18.75h18.75Z" transform="translate(-300 -300)"/></g><g transform="translate(19.687 19.687)"><rect class="a" width="16.875" height="16.875"/></g><g transform="translate(18.75 18.75)"><path class="a" d="M66.875,51.875v15h-15v-15h15M68.75,50H50V68.75H68.75Z" transform="translate(-50 -50)"/></g><g transform="translate(37.5 37.5)"><circle class="a" cx="37.5" cy="37.5" r="37.5"/></g><g transform="translate(37.5 37.5)"><circle class="c" cx="37.5" cy="37.5" r="37.5"/></g><g transform="translate(37.5 72.637)"><path class="a" d="M137.5,228.875A37.515,37.515,0,0,1,100.075,193.7c-.037.787-.075,1.538-.075,2.325a37.5,37.5,0,0,0,75,0c0-.787-.038-1.575-.075-2.325A37.515,37.515,0,0,1,137.5,228.875Z" transform="translate(-100 -193.7)"/></g><g transform="translate(50.662 60.937)"><path class="b" d="M159.438,162.5A28.1,28.1,0,0,0,135.1,176.563a28.134,28.134,0,0,0,48.712,0A28.2,28.2,0,0,0,159.438,162.5Z" transform="translate(-135.1 -162.5)"/></g><g transform="translate(63.037 63)"><path class="b" d="M192.587,183.237V180.05l-1.95-.788a10.821,10.821,0,0,0-.975-2.363l.825-1.95-2.25-2.25-1.95.825a9.248,9.248,0,0,0-2.363-.975l-.788-1.95H179.95l-.788,1.95a10.82,10.82,0,0,0-2.362.975l-1.95-.825-2.25,2.25.825,1.95a9.246,9.246,0,0,0-.975,2.363l-1.95.788v3.187l1.95.788a10.82,10.82,0,0,0,.975,2.363l-.825,1.95,2.25,2.25,1.95-.825a9.247,9.247,0,0,0,2.362.975l.788,1.95h3.187l.788-1.95a10.82,10.82,0,0,0,2.363-.975l1.95.825,2.25-2.25-.825-1.95a9.247,9.247,0,0,0,.975-2.363Z" transform="translate(-169.6 -169.625)"/><path class="a" d="M182.313,191.962H177.85l-.825-2.138a9.836,9.836,0,0,1-1.725-.712l-2.1.9-3.15-3.15.9-2.1a9.837,9.837,0,0,1-.712-1.725l-2.137-.825V177.75l2.137-.825a9.838,9.838,0,0,1,.712-1.725l-.9-2.1,3.15-3.15,2.1.9a9.837,9.837,0,0,1,1.725-.712L177.85,168h4.462l.825,2.137a9.838,9.838,0,0,1,1.725.712l2.1-.9,3.15,3.15-.9,2.1a9.839,9.839,0,0,1,.712,1.725l2.137.825v4.5l-2.137.825a9.839,9.839,0,0,1-.712,1.725l.9,2.1-3.15,3.15-2.1-.9a9.837,9.837,0,0,1-1.725.712Zm-3.187-1.875h1.913l.712-1.8.45-.113a7.625,7.625,0,0,0,2.137-.9l.413-.225,1.8.788,1.35-1.35-.788-1.8.225-.412a10.747,10.747,0,0,0,.9-2.137l.113-.45,1.8-.712v-1.913l-1.8-.712-.113-.45a7.626,7.626,0,0,0-.9-2.137l-.225-.413.788-1.8-1.35-1.35-1.8.788-.413-.225a10.746,10.746,0,0,0-2.137-.9l-.45-.113-.712-1.8h-1.913l-.712,1.8-.45.113a7.627,7.627,0,0,0-2.137.9l-.413.225-1.8-.788-1.35,1.35.788,1.8-.225.413a10.743,10.743,0,0,0-.9,2.137l-.113.45-1.8.712v1.913l1.8.712.113.45a7.625,7.625,0,0,0,.9,2.137l.225.412-.788,1.8,1.35,1.35,1.8-.788.413.225a10.745,10.745,0,0,0,2.137.9l.45.113Zm11.962-8.475Z" transform="translate(-168.1 -168)"/></g><g transform="translate(70.312 70.312)"><circle class="a" cx="4.687" cy="4.687" r="4.687"/></g><g transform="translate(49.746 60.038)"><path class="a" d="M133.572,176a.891.891,0,0,1-.45-.113.925.925,0,0,1-.337-1.275,29.066,29.066,0,0,1,50.325,0,.933.933,0,0,1-1.613.938,27.2,27.2,0,0,0-37.125-9.938,26.88,26.88,0,0,0-9.937,9.938A1.1,1.1,0,0,1,133.572,176Z" transform="translate(-132.656 -160.102)"/></g></g></g></svg>