<svg viewBox="0 0 150 150" xmlns="http://www.w3.org/2000/svg"><path d="m155.625 199.375h-130.687a.937.937 0 1 1 0-1.875h130.687a.937.937 0 1 1 0 1.875z" fill="#2f74fb" transform="translate(-15 -123.438)"/><path d="m155.625 199.375h-130.687a.937.937 0 1 1 0-1.875h130.687a.937.937 0 1 1 0 1.875z" fill="#2f74fb" transform="translate(-15 -123.438)"/><path d="m.937 66.562h16.875v16.875h-16.875z" fill="#fff"/><path d="m16.875 176.875v15h-15v-15zm1.875-1.875h-18.75v18.75h18.75z" fill="#2f74fb" transform="translate(0 -109.375)"/><path d="m132.187 66.562h16.875v16.875h-16.875z" fill="#fff"/><g fill="#2f74fb"><path d="m366.875 176.875v15h-15v-15zm1.875-1.875h-18.75v18.75h18.75z" transform="translate(-218.75 -109.375)"/><g transform="translate(-123.438 -14.063)"><path d="m198.438 155.062a.928.928 0 0 1 -.937-.937v-130.687a.937.937 0 1 1 1.875 0v130.687a.928.928 0 0 1 -.938.937z"/><path d="m198.438 155.062a.928.928 0 0 1 -.937-.937v-130.687a.937.937 0 1 1 1.875 0v130.687a.928.928 0 0 1 -.938.937z"/></g></g><path d="m66.562 132.187h16.875v16.875h-16.875z" fill="#fff"/><path d="m191.875 351.875v15h-15v-15zm1.875-1.875h-18.75v18.75h18.75z" fill="#2f74fb" transform="translate(-109.375 -218.75)"/><path d="m66.562.937h16.875v16.875h-16.875z" fill="#fff"/><g fill="#2f74fb"><path d="m191.875 1.875v15h-15v-15zm1.875-1.875h-18.75v18.75h18.75z" transform="translate(-109.375)"/><path d="m75.706 168.044a.963.963 0 0 1 -.675-.262.906.906 0 0 1 0-1.312l92.437-92.437a.928.928 0 0 1 1.313 1.313l-92.4 92.4a.939.939 0 0 1 -.675.298z" transform="translate(-46.719 -46.094)"/><path d="m75.706 168.044a.963.963 0 0 1 -.675-.262.906.906 0 0 1 0-1.312l92.437-92.437a.928.928 0 0 1 1.313 1.313l-92.4 92.4a.939.939 0 0 1 -.675.298z" transform="translate(-46.719 -46.094)"/></g><path d="m19.687 113.437h16.875v16.875h-16.875z" fill="#fff"/><path d="m66.875 301.875v15h-15v-15zm1.875-1.875h-18.75v18.75h18.75z" fill="#2f74fb" transform="translate(-31.25 -187.5)"/><path d="m113.437 19.687h16.875v16.875h-16.875z" fill="#fff"/><path d="m316.875 51.875v15h-15v-15zm1.875-1.875h-18.75v18.75h18.75z" fill="#2f74fb" transform="translate(-187.5 -31.25)"/><path d="m167.106 168.044a.963.963 0 0 1 -.675-.262l-92.4-92.437a.928.928 0 0 1 1.313-1.312l92.4 92.4a.906.906 0 0 1 0 1.313.924.924 0 0 1 -.638.298z" fill="#2f74fb" transform="translate(-46.094 -46.094)"/><path d="m167.106 168.044a.963.963 0 0 1 -.675-.262l-92.4-92.437a.928.928 0 0 1 1.313-1.312l92.4 92.4a.906.906 0 0 1 0 1.313.924.924 0 0 1 -.638.298z" fill="#2f74fb" transform="translate(-46.094 -46.094)"/><path d="m113.437 113.437h16.875v16.875h-16.875z" fill="#fff"/><path d="m316.875 301.875v15h-15v-15zm1.875-1.875h-18.75v18.75h18.75z" fill="#2f74fb" transform="translate(-187.5 -187.5)"/><path d="m19.687 19.687h16.875v16.875h-16.875z" fill="#fff"/><path d="m66.875 51.875v15h-15v-15zm1.875-1.875h-18.75v18.75h18.75z" fill="#2f74fb" transform="translate(-31.25 -31.25)"/><circle cx="75" cy="75" fill="#2f74fb" r="37.5"/><circle cx="75" cy="75" fill="#70cbff" r="37.5"/><g fill="#2f74fb"><path d="m137.5 228.875a37.515 37.515 0 0 1 -37.425-35.175c-.037.787-.075 1.538-.075 2.325a37.5 37.5 0 0 0 75 0c0-.787-.038-1.575-.075-2.325a37.515 37.515 0 0 1 -37.425 35.175z" transform="translate(-62.5 -121.063)"/><path d="m157.985 213.472a29.053 29.053 0 0 1 -25.2-14.512.933.933 0 1 1 1.612-.938 27.176 27.176 0 0 0 47.063 0 .933.933 0 0 1 1.613.938 28.963 28.963 0 0 1 -25.087 14.512z" transform="translate(-82.91 -123.473)"/><path d="m266.69 201.028a1.594 1.594 0 0 1 -.412-.075l-3.378-1.613a.931.931 0 1 1 .787-1.687l3.375 1.613a.946.946 0 0 1 .45 1.238.9.9 0 0 1 -.822.524z" transform="translate(-163.978 -123.478)"/><path d="m244.916 225.478a.924.924 0 0 1 -.712-.337l-2.362-2.887a.931.931 0 1 1 1.425-1.2l2.363 2.887a.942.942 0 0 1 -.113 1.313.919.919 0 0 1 -.601.224z" transform="translate(-151.016 -137.953)"/><path d="m214.851 238.751a.891.891 0 0 1 -.9-.75l-.788-3.712a.968.968 0 0 1 .712-1.125.949.949 0 0 1 1.125.712l.788 3.713a.968.968 0 0 1 -.712 1.125.476.476 0 0 1 -.225.037z" transform="translate(-133.214 -145.714)"/><path d="m124.505 201.018a1 1 0 0 1 -.863-.525.914.914 0 0 1 .45-1.238l3.375-1.613a.931.931 0 0 1 .787 1.688l-3.375 1.612a.562.562 0 0 1 -.374.076z" transform="translate(-77.217 -123.467)"/><path d="m148.033 225.458a.938.938 0 0 1 -.713-1.538l2.363-2.887a.931.931 0 1 1 1.425 1.2l-2.363 2.887a.824.824 0 0 1 -.712.338z" transform="translate(-91.932 -137.932)"/><path d="m180.764 238.751a.281.281 0 0 1 -.187-.038.949.949 0 0 1 -.712-1.125l.788-3.713a.942.942 0 0 1 1.837.413l-.79 3.712a.96.96 0 0 1 -.936.751z" transform="translate(-112.401 -145.714)"/><path d="m189.33 165.419a1.155 1.155 0 0 1 -.488-.112c-8.213-4.8-18.937-4.838-26.7 0a.926.926 0 1 1 -.975-1.575c8.325-5.175 19.875-5.175 28.65 0a.925.925 0 0 1 .338 1.275 1 1 0 0 1 -.825.412z" transform="translate(-100.455 -99.906)"/></g></svg>