<svg xmlns="http://www.w3.org/2000/svg" width="22" height="22" viewBox="0 0 22 22"><g transform="translate(-2016.256 157.305)"><path d="M2034.116-145.507l-3.2-8.556h0a6.856,6.856,0,0,1-3.667,1.222,6.85,6.85,0,0,1-3.666-1.222h0l-3.22,8.556Z" fill="#c4cbd2"/><path d="M2027.256-142.585a23.871,23.871,0,0,1-9.892-2.32l-.414-.217.414-.216a23.845,23.845,0,0,1,9.892-2.321,23.844,23.844,0,0,1,9.892,2.321l.413.216-.413.217A23.87,23.87,0,0,1,2027.256-142.585Z" fill="#c4cbd2"/><path d="M2020.8-146.663a22.532,22.532,0,0,0,6.457,1,22.516,22.516,0,0,0,6.431-.995l-.484-1.3h-11.919Z" fill="#151640"/><rect width="5.5" height="3.667" rx="0.731" transform="translate(2021.145 -142.213)" fill="#151640"/><rect width="5.5" height="3.667" rx="0.731" transform="translate(2027.867 -142.213)" fill="#151640"/><rect width="1.222" height="0.611" transform="translate(2020.534 -142.213)" fill="#151640"/><rect width="1.222" height="0.611" transform="translate(2032.756 -142.213)" fill="#151640"/><rect width="3.44" height="0.611" transform="translate(2025.552 -141.602)" fill="#151640"/><path d="M2022.519-139.086a.976.976,0,0,1-.975-.976h.489a.487.487,0,0,0,.486.487Z" fill="#c4cbd2"/><path d="M2029.209-139.086a.976.976,0,0,1-.975-.976h.489a.487.487,0,0,0,.486.487Z" fill="#c4cbd2"/></g><rect width="22" height="22" fill="none"/></svg>