<svg viewBox="0 0 150 150" xmlns="http://www.w3.org/2000/svg"><g fill="#2f74fb"><path d="m155.625 199.375h-130.687a.937.937 0 1 1 0-1.875h130.687a.937.937 0 1 1 0 1.875z" transform="translate(-15 -123.438)"/><path d="m155.625 199.375h-130.687a.937.937 0 1 1 0-1.875h130.687a.937.937 0 1 1 0 1.875z" transform="translate(-15 -123.438)"/><path d="m.937 66.562h16.875v16.875h-16.875z"/><path d="m16.875 176.875v15h-15v-15zm1.875-1.875h-18.75v18.75h18.75z" transform="translate(0 -109.375)"/><path d="m132.187 66.562h16.875v16.875h-16.875z"/><path d="m366.875 176.875v15h-15v-15zm1.875-1.875h-18.75v18.75h18.75z" transform="translate(-218.75 -109.375)"/><path d="m198.438 155.062a.928.928 0 0 1 -.937-.937v-130.688a.937.937 0 1 1 1.875 0v130.688a.928.928 0 0 1 -.938.937z" transform="translate(-123.438 -14.063)"/><path d="m198.438 155.062a.928.928 0 0 1 -.937-.937v-130.688a.937.937 0 1 1 1.875 0v130.688a.928.928 0 0 1 -.938.937z" transform="translate(-123.438 -14.063)"/><path d="m66.562 132.187h16.875v16.875h-16.875z"/><path d="m191.875 351.875v15h-15v-15zm1.875-1.875h-18.75v18.75h18.75z" transform="translate(-109.375 -218.75)"/><path d="m66.562.937h16.875v16.875h-16.875z"/><path d="m191.875 1.875v15h-15v-15zm1.875-1.875h-18.75v18.75h18.75z" transform="translate(-109.375)"/><path d="m75.706 168.044a.963.963 0 0 1 -.675-.262.906.906 0 0 1 0-1.312l92.437-92.437a.928.928 0 0 1 1.313 1.313l-92.4 92.4a.939.939 0 0 1 -.675.298z" transform="translate(-46.719 -46.094)"/><path d="m75.706 168.044a.963.963 0 0 1 -.675-.262.906.906 0 0 1 0-1.312l92.437-92.437a.928.928 0 0 1 1.313 1.313l-92.4 92.4a.939.939 0 0 1 -.675.298z" transform="translate(-46.719 -46.094)"/><path d="m19.687 113.437h16.875v16.875h-16.875z"/><path d="m66.875 301.875v15h-15v-15zm1.875-1.875h-18.75v18.75h18.75z" transform="translate(-31.25 -187.5)"/><path d="m113.437 19.687h16.875v16.875h-16.875z"/><path d="m316.875 51.875v15h-15v-15zm1.875-1.875h-18.75v18.75h18.75z" transform="translate(-187.5 -31.25)"/><path d="m167.106 168.044a.963.963 0 0 1 -.675-.262l-92.4-92.437a.928.928 0 0 1 1.313-1.312l92.4 92.4a.906.906 0 0 1 0 1.313.924.924 0 0 1 -.638.298z" transform="translate(-46.094 -46.094)"/><path d="m167.106 168.044a.963.963 0 0 1 -.675-.262l-92.4-92.437a.928.928 0 0 1 1.313-1.312l92.4 92.4a.906.906 0 0 1 0 1.313.924.924 0 0 1 -.638.298z" transform="translate(-46.094 -46.094)"/><path d="m113.437 113.437h16.875v16.875h-16.875z"/><path d="m316.875 301.875v15h-15v-15zm1.875-1.875h-18.75v18.75h18.75z" transform="translate(-187.5 -187.5)"/><path d="m19.687 19.687h16.875v16.875h-16.875z"/><path d="m66.875 51.875v15h-15v-15zm1.875-1.875h-18.75v18.75h18.75z" transform="translate(-31.25 -31.25)"/><circle cx="75" cy="75" r="37.5"/></g><circle cx="75" cy="75" fill="#70cbff" r="37.5"/><path d="m137.5 228.875a37.515 37.515 0 0 1 -37.425-35.175c-.037.788-.075 1.538-.075 2.325a37.5 37.5 0 0 0 75 0c0-.788-.037-1.575-.075-2.325a37.515 37.515 0 0 1 -37.425 35.175z" fill="#2f74fb" transform="translate(-62.5 -121.063)"/><path d="m159.438 162.5a28.1 28.1 0 0 0 -24.338 14.063 28.134 28.134 0 0 0 48.712 0 28.2 28.2 0 0 0 -24.374-14.063z" fill="#fff" transform="translate(-84.438 -101.563)"/><path d="m181.813 192.325a10.313 10.313 0 1 1 10.313-10.312 10.307 10.307 0 0 1 -10.313 10.312z" fill="#fff" transform="translate(-107.188 -107.313)"/><path d="m180.25 171.075a9.375 9.375 0 1 1 -9.375 9.375 9.378 9.378 0 0 1 9.375-9.375m0-1.875a11.25 11.25 0 1 0 11.25 11.25 11.235 11.235 0 0 0 -11.25-11.25z" fill="#2f74fb" transform="translate(-105.625 -105.75)"/><circle cx="74.999" cy="74.999" fill="#2f74fb" r="4.687"/><path d="m208.85 176.4-8.85 8.85h12.563z" fill="#fff" transform="translate(-125 -110.25)"/><path d="m133.572 176a.891.891 0 0 1 -.45-.113.925.925 0 0 1 -.337-1.275 29.066 29.066 0 0 1 50.325 0 .933.933 0 1 1 -1.613.938 27.176 27.176 0 0 0 -47.062 0 1.1 1.1 0 0 1 -.863.45z" fill="#2f74fb" transform="translate(-82.91 -100.064)"/></svg>