<svg xmlns="http://www.w3.org/2000/svg" xmlns:xlink="http://www.w3.org/1999/xlink" viewBox="0 0 13 13"><defs><style>.a{fill:#fff;}.b{fill:#2970ff;}.c{fill:url(#a);}</style><linearGradient id="a" x1="6" y1="6.5" x2="11" y2="6.5" gradientUnits="userSpaceOnUse"><stop offset="0" stop-color="#2dd8a3"/><stop offset="0.93" stop-color="#39d8aa"/></linearGradient></defs><title>blue-green-with-white-bg</title><rect class="a" width="13" height="13"/><polygon class="b" points="3 9 4 9 4 10 7 10 7 11 3 11 3 10 2 10 2 6 3 6 3 5 4 5 4 4 3 4 3 3 2 3 2 2 4 2 4 3 5 3 5 4 6 4 6 5 7 5 7 6 4 6 4 7 3 7 3 9"/><polygon class="c" points="11 3 11 7 10 7 10 8 9 8 9 9 10 9 10 10 11 10 11 11 9 11 9 10 8 10 8 9 7 9 7 8 6 8 6 7 9 7 9 6 10 6 10 4 9 4 9 3 6 3 6 2 10 2 10 3 11 3"/></svg>