<svg xmlns="http://www.w3.org/2000/svg" viewBox="0 0 20 20"><defs><style>.a{fill:#e9f8fe;}.b{fill:#091440;}.c{fill:none;}</style></defs><g transform="translate(-933 -305)"><g transform="translate(934.658 306.449)"><path class="a" d="M39.549,41.8A7.176,7.176,0,0,1,37.3,36.6a7.1,7.1,0,0,1,1.222-4l.987.667a5.954,5.954,0,0,0,.858,7.667Z" transform="translate(-37.3 -32.6)"/><g transform="translate(2.929 1.271)"><path class="a" d="M104.04,66.631a4.778,4.778,0,0,1,.013-5.431l.978.68a3.6,3.6,0,0,0-.64,2.049,3.54,3.54,0,0,0,.631,2.027Z" transform="translate(-103.2 -61.2)"/></g><g transform="translate(13.618 0.004)"><path class="a" d="M344.518,41.9l-.818-.867a5.953,5.953,0,0,0,.858-7.667l.987-.667a7.1,7.1,0,0,1,1.222,4A7.183,7.183,0,0,1,344.518,41.9Z" transform="translate(-343.7 -32.7)"/></g><g transform="translate(11.822 1.28)"><path class="a" d="M304.291,66.822l-.982-.676a3.571,3.571,0,0,0-.009-4.067l.978-.68a4.764,4.764,0,0,1,.013,5.422Z" transform="translate(-303.3 -61.4)"/></g><path class="b" d="M95.771,73.613a2.384,2.384,0,1,0-1.658,0L88.9,84.484h1.32l.413-.858.307-.3h8.009l.307.307.409.858h1.32Zm1.947,6.813-1.929-1.916.684-.68Zm-3.964-9.044a1.191,1.191,0,1,1,1.191,1.191A1.191,1.191,0,0,1,93.753,71.382Zm1.191,3.262.987,2.053-.987.978-.987-.978Zm-1.533,3.191.684.68-1.929,1.911Zm-1.271,4.3,2.8-2.778,2.8,2.778Z" transform="translate(-86.607 -67.382)"/><path class="a" d="M199.191,95.8A1.191,1.191,0,1,1,198,96.991a1.191,1.191,0,0,1,1.191-1.191" transform="translate(-190.858 -92.991)"/></g><rect class="c" width="20" height="20" transform="translate(933 305)"/></g></svg>