<svg viewBox="0 0 20 20" xmlns="http://www.w3.org/2000/svg"><g fill="#e9f8fe"><path d="m39.549 41.8a7.176 7.176 0 0 1 -2.249-5.2 7.1 7.1 0 0 1 1.222-4l.987.667a5.954 5.954 0 0 0 .858 7.667z" transform="translate(-35.642 -31.151)"/><path d="m104.04 66.631a4.778 4.778 0 0 1 .013-5.431l.978.68a3.6 3.6 0 0 0 -.64 2.049 3.54 3.54 0 0 0 .631 2.027z" transform="translate(-98.613 -58.48)"/><path d="m344.518 41.9-.818-.867a5.953 5.953 0 0 0 .858-7.667l.987-.667a7.1 7.1 0 0 1 1.222 4 7.183 7.183 0 0 1 -2.249 5.201z" transform="translate(-328.424 -31.247)"/><path d="m304.291 66.822-.982-.676a3.571 3.571 0 0 0 -.009-4.067l.978-.68a4.764 4.764 0 0 1 .013 5.422z" transform="translate(-289.82 -58.671)"/></g><path d="m95.771 73.613a2.384 2.384 0 1 0 -1.658 0l-5.213 10.871h1.32l.413-.858.307-.3h8.009l.307.307.409.858h1.32zm1.947 6.813-1.929-1.916.684-.68zm-3.964-9.044a1.191 1.191 0 1 1 1.191 1.191 1.191 1.191 0 0 1 -1.192-1.191zm1.191 3.262.987 2.053-.987.978-.987-.978zm-1.533 3.191.684.68-1.929 1.911zm-1.271 4.3 2.8-2.778 2.8 2.778z" fill="#091440" transform="translate(-84.949 -65.933)"/><path d="m199.191 95.8a1.191 1.191 0 1 1 -1.191 1.191 1.191 1.191 0 0 1 1.191-1.191" fill="#e9f8fe" transform="translate(-189.2 -91.542)"/><path d="m0 0h20v20h-20z" fill="none"/></svg>