<svg xmlns="http://www.w3.org/2000/svg" viewBox="7098 1191.041 59.943 50.959"><defs><style>.a{fill:#2970ff;}.b{fill:#69d5f7;}</style></defs><path class="a" d="M-6609.141-459.06A19.5,19.5,0,0,1-6618-461.1c.076-.062,7.577-6.31,6.4-11.664a16.261,16.261,0,0,1-5.265-11.666v-.12a16.691,16.691,0,0,1,5.205-11.724c1.244-5.4-6.266-11.662-6.341-11.724a19.389,19.389,0,0,1,8.775-2.022,20.7,20.7,0,0,1,9.23,2.2,26.236,26.236,0,0,1,5.085,3.649,43.674,43.674,0,0,1,7.417-.658,37.8,37.8,0,0,1,20.1,5.383,22.528,22.528,0,0,1,6.639,6.341,15.149,15.149,0,0,1,2.692,8.554,14.8,14.8,0,0,1-2.632,8.615,22.525,22.525,0,0,1-6.64,6.341,37.784,37.784,0,0,1-20.1,5.383,43.219,43.219,0,0,1-7.419-.658,26.251,26.251,0,0,1-5.084,3.649A20.962,20.962,0,0,1-6609.141-459.06Zm21.649-41.58c-13.858,0-25.184,7.191-25.246,16.031,0,3.757,2.04,7.39,5.744,10.229a14.04,14.04,0,0,1-4.187,11.425,9.747,9.747,0,0,0,2.367.287c5.032,0,9.894-3.667,12.528-6.806a37.115,37.115,0,0,0,8.794,1.016c13.919,0,25.244-7.219,25.244-16.092S-6573.572-500.64-6587.491-500.64Z" transform="translate(13716 1701.06)"/><g transform="translate(7113.494 1213.76)"><g transform="translate(11.665)"><circle class="a" cx="3.35" cy="3.35" r="3.35"/></g><g transform="translate(23.33)"><circle class="a" cx="3.35" cy="3.35" r="3.35"/></g><circle class="a" cx="3.35" cy="3.35" r="3.35"/></g><g transform="translate(7104.819 1216.811)"><path class="b" d="M35.089,56.859a40.928,40.928,0,0,1-8.794-.9c-2.453,2.572-7.537,6.042-12.8,5.922A21.275,21.275,0,0,1,11.4,64.516c5.982,1.5,12.084-3.17,14.9-6.52a38.08,38.08,0,0,0,8.794,1.017c13.819,0,25.065-7.119,25.244-15.912C60.154,50.7,48.907,56.859,35.089,56.859Z" transform="translate(-11.4 -43.1)"/></g></svg>