<svg viewBox="0 0 40 40" xmlns="http://www.w3.org/2000/svg"><path d="m0 0h40v40h-40z" fill="none"/><g fill="#091440"><path d="m4.594 26.426a10.115 10.115 0 0 1 -4.594-1.057c.04-.032 3.929-3.272 3.319-6.049a8.433 8.433 0 0 1 -2.73-6.05v-.062a8.655 8.655 0 0 1 2.7-6.08c.645-2.798-3.25-6.047-3.289-6.079a10.055 10.055 0 0 1 4.551-1.049 10.733 10.733 0 0 1 4.786 1.142 13.609 13.609 0 0 1 2.637 1.892 22.651 22.651 0 0 1 3.846-.341 19.6 19.6 0 0 1 10.425 2.791 11.68 11.68 0 0 1 3.442 3.288 7.856 7.856 0 0 1 1.4 4.436 7.675 7.675 0 0 1 -1.365 4.468 11.685 11.685 0 0 1 -3.444 3.288 19.593 19.593 0 0 1 -10.422 2.791 22.409 22.409 0 0 1 -3.856-.34 13.618 13.618 0 0 1 -2.637 1.892 10.87 10.87 0 0 1 -4.769 1.119zm11.227-21.562c-7.186 0-13.059 3.729-13.091 8.313a6.8 6.8 0 0 0 2.978 5.3 7.281 7.281 0 0 1 -2.171 5.925 5.05 5.05 0 0 0 1.227.149c2.61 0 5.131-1.9 6.5-3.53a19.249 19.249 0 0 0 4.561.527c7.218 0 13.091-3.744 13.091-8.345s-5.877-8.339-13.095-8.339z" transform="translate(4 7)"/><circle cx="19.82" cy="20.518" r="1.737"/><circle cx="25.869" cy="20.518" r="1.737"/><circle cx="13.771" cy="20.518" r="1.737"/></g><path d="m23.684 50.235a21.224 21.224 0 0 1 -4.56-.465 9.793 9.793 0 0 1 -6.638 3.071 11.032 11.032 0 0 1 -1.086 1.365c3.1.776 6.266-1.644 7.724-3.381a19.747 19.747 0 0 0 4.56.527c7.166 0 13-3.691 13.091-8.252-.093 3.94-5.925 7.135-13.091 7.135z" fill="#c4cbd2" transform="translate(-3.864 -22.737)"/></svg>