<svg viewBox="6577 44 30 30" xmlns="http://www.w3.org/2000/svg"><path d="m6577 44h30v30h-30z" fill="none"/><path d="m6582.167 55.707h19.667v13.073h-19.667z" fill="#8795a2"/><path d="m6582.167 59h19.667v13.073h-19.667z" fill="#0c1e3e"/><path d="m2670.073-3802.5a8.235 8.235 0 0 0 -7.273 4.24 8.482 8.482 0 0 0 7.273 4.24 8.29 8.29 0 0 0 7.273-4.24 8.484 8.484 0 0 0 -7.273-4.24z" fill="#8795a2" transform="translate(3921.98 3863.805)"/><circle cx="6592.054" cy="65.54" fill="#0c1e3e" r="3.24"/><path d="m2774.513-3778.9-2.613 2.667h3.713z" fill="#8795a2" transform="translate(3820.154 3841.773)"/><g fill="#0c1e3e"><ellipse cx="6585.514" cy="57.327" rx="1.62" ry=".84"/><ellipse cx="6598.594" cy="57.327" rx="1.62" ry=".84"/><path d="m2649.5-4025.04v3.293h3.24v-3.293a4.918 4.918 0 0 1 4.907-4.92h.013a4.918 4.918 0 0 1 4.92 4.906v3.307h3.24v-3.293a8.169 8.169 0 0 0 -8.16-8.16 8.173 8.173 0 0 0 -8.16 8.16z" transform="translate(3934.394 4079.12)"/></g></svg>