<svg xmlns="http://www.w3.org/2000/svg" width="20" height="20" viewBox="0 0 20 20"><g transform="translate(-636 -891)"><g transform="translate(277 847)"><rect width="20" height="20" transform="translate(359 44)" fill="none"/><g transform="translate(362.444 45.28)"><path d="M0,0H13.111V8.716H0Z" transform="translate(0 6.524)" fill="#99c1e3"/><path d="M0,0H13.111V8.716H0Z" transform="translate(0 8.72)" fill="#2f4d8c"/><g transform="translate(1.742 10.253)"><path d="M2667.649-3802.5a5.491,5.491,0,0,0-4.849,2.827,5.655,5.655,0,0,0,4.849,2.827,5.527,5.527,0,0,0,4.849-2.827A5.656,5.656,0,0,0,2667.649-3802.5Z" transform="translate(-2662.8 3802.505)" fill="#99c1e3"/></g><path d="M2.16,0A2.16,2.16,0,1,1,0,2.16,2.16,2.16,0,0,1,2.16,0Z" transform="translate(4.431 10.92)" fill="#2f4d8c"/><path d="M2773.642-3778.9l-1.742,1.778h2.475Z" transform="translate(-2765.309 3790.201)" fill="#99c1e3"/><ellipse cx="1.08" cy="0.56" rx="1.08" ry="0.56" transform="translate(1.151 7.044)" fill="#2f4d8c"/><ellipse cx="1.08" cy="0.56" rx="1.08" ry="0.56" transform="translate(9.871 7.044)" fill="#2f4d8c"/><path d="M2649.5-4027.76v2.195h2.16v-2.195a3.278,3.278,0,0,1,3.271-3.28h.009a3.278,3.278,0,0,1,3.28,3.271v2.2h2.16v-2.195a5.446,5.446,0,0,0-5.44-5.44h0A5.449,5.449,0,0,0,2649.5-4027.76Z" transform="translate(-2648.349 4033.2)" fill="#2f4d8c"/></g></g></g></svg>