<svg viewBox="-2350 1278 20 20" xmlns="http://www.w3.org/2000/svg"><path d="m-2350 1278h20v20h-20z" fill="none"/><path d="m0 0h13.111v8.716h-13.111z" fill="#c4cbd2" transform="translate(-2346.556 1285.804)"/><path d="m0 0h13.111v8.716h-13.111z" fill="#152337" transform="translate(-2346.556 1288)"/><path d="m2667.649-3802.5a5.491 5.491 0 0 0 -4.849 2.827 5.655 5.655 0 0 0 4.849 2.827 5.527 5.527 0 0 0 4.849-2.827 5.656 5.656 0 0 0 -4.849-2.827z" fill="#c4cbd2" transform="translate(-5007.614 5092.038)"/><path d="m2.16 0a2.16 2.16 0 1 1 -2.16 2.16 2.16 2.16 0 0 1 2.16-2.16z" fill="#152337" transform="translate(-2342.125 1290.2)"/><path d="m2773.642-3778.9-1.742 1.778h2.475z" fill="#c4cbd2" transform="translate(-5111.865 5069.481)"/><g fill="#152337"><ellipse cx="-2344.325" cy="1286.884" rx="1.08" ry=".56"/><ellipse cx="-2335.605" cy="1286.884" rx="1.08" ry=".56"/><path d="m2649.5-4027.76v2.195h2.16v-2.195a3.278 3.278 0 0 1 3.271-3.28h.009a3.278 3.278 0 0 1 3.28 3.271v2.2h2.16v-2.195a5.446 5.446 0 0 0 -5.44-5.44 5.449 5.449 0 0 0 -5.44 5.444z" transform="translate(-4994.905 5312.48)"/></g></svg>