<svg xmlns="http://www.w3.org/2000/svg" viewBox="6577 44 30 30"><defs><style>.a{fill:none;}.b{fill:#8795a2;}.c{fill:#0c1e3e;}</style></defs><g transform="translate(6218)"><rect class="a" width="30" height="30" transform="translate(359 44)"/><g transform="translate(364.167 45.92)"><rect class="b" width="19.667" height="13.073" transform="translate(0 9.787)"/><rect class="c" width="19.667" height="13.073" transform="translate(0 13.08)"/><g transform="translate(2.613 15.38)"><path class="b" d="M2670.073-3802.5a8.235,8.235,0,0,0-7.273,4.24,8.482,8.482,0,0,0,7.273,4.24,8.29,8.29,0,0,0,7.273-4.24A8.484,8.484,0,0,0,2670.073-3802.5Z" transform="translate(-2662.8 3802.505)"/></g><circle class="c" cx="3.24" cy="3.24" r="3.24" transform="translate(6.647 16.38)"/><path class="b" d="M2774.513-3778.9l-2.613,2.667h3.713Z" transform="translate(-2762.013 3795.853)"/><ellipse class="c" cx="1.62" cy="0.84" rx="1.62" ry="0.84" transform="translate(1.727 10.567)"/><ellipse class="c" cx="1.62" cy="0.84" rx="1.62" ry="0.84" transform="translate(14.807 10.567)"/><path class="c" d="M2649.5-4025.04v3.293h3.24v-3.293a4.918,4.918,0,0,1,4.907-4.92h.013a4.918,4.918,0,0,1,4.92,4.906v3.307h3.24v-3.293a8.169,8.169,0,0,0-8.16-8.16h0A8.173,8.173,0,0,0,2649.5-4025.04Z" transform="translate(-2647.773 4033.2)"/></g></g></svg>