<svg viewBox="0 0 30 30" xmlns="http://www.w3.org/2000/svg"><path d="m0 0h30v30h-30z" fill="none"/><path d="m5.167 11.707h19.667v13.073h-19.667z" fill="#c2c9d0"/><path d="m5.167 15h19.667v13.073h-19.667z" fill="#3d5873"/><path d="m2670.073-3802.5a8.235 8.235 0 0 0 -7.273 4.24 8.482 8.482 0 0 0 7.273 4.24 8.29 8.29 0 0 0 7.273-4.24 8.484 8.484 0 0 0 -7.273-4.24z" fill="#c2c9d0" transform="translate(-2655.02 3819.805)"/><circle cx="15.054" cy="21.54" fill="#3d5873" r="3.24"/><path d="m2774.513-3778.9-2.613 2.667h3.713z" fill="#c2c9d0" transform="translate(-2756.846 3797.773)"/><g fill="#3d5873"><ellipse cx="8.514" cy="13.327" rx="1.62" ry=".84"/><ellipse cx="21.594" cy="13.327" rx="1.62" ry=".84"/><path d="m2649.5-4025.04v3.293h3.24v-3.293a4.918 4.918 0 0 1 4.907-4.92h.013a4.918 4.918 0 0 1 4.92 4.906v3.307h3.24v-3.293a8.169 8.169 0 0 0 -8.16-8.16 8.173 8.173 0 0 0 -8.16 8.16z" transform="translate(-2642.606 4035.12)"/></g></svg>