<svg xmlns="http://www.w3.org/2000/svg" viewBox="-2350 1278 20 20"><defs><style>.a{fill:none;}.b{fill:#c4cbd2;}.c{fill:#152337;}</style></defs><g transform="translate(-2894 850)"><rect class="a" width="20" height="20" transform="translate(544 428)"/><g transform="translate(547.444 429.28)"><path class="b" d="M0,0H13.111V8.716H0Z" transform="translate(0 6.524)"/><path class="c" d="M0,0H13.111V8.716H0Z" transform="translate(0 8.72)"/><g transform="translate(1.742 10.253)"><path class="b" d="M2667.649-3802.5a5.491,5.491,0,0,0-4.849,2.827,5.655,5.655,0,0,0,4.849,2.827,5.527,5.527,0,0,0,4.849-2.827A5.656,5.656,0,0,0,2667.649-3802.5Z" transform="translate(-2662.8 3802.505)"/></g><path class="c" d="M2.16,0A2.16,2.16,0,1,1,0,2.16,2.16,2.16,0,0,1,2.16,0Z" transform="translate(4.431 10.92)"/><path class="b" d="M2773.642-3778.9l-1.742,1.778h2.475Z" transform="translate(-2765.309 3790.201)"/><ellipse class="c" cx="1.08" cy="0.56" rx="1.08" ry="0.56" transform="translate(1.151 7.044)"/><ellipse class="c" cx="1.08" cy="0.56" rx="1.08" ry="0.56" transform="translate(9.871 7.044)"/><path class="c" d="M2649.5-4027.76v2.195h2.16v-2.195a3.278,3.278,0,0,1,3.271-3.28h.009a3.278,3.278,0,0,1,3.28,3.271v2.2h2.16v-2.195a5.446,5.446,0,0,0-5.44-5.44h0A5.449,5.449,0,0,0,2649.5-4027.76Z" transform="translate(-2648.349 4033.2)"/></g></g></svg>