<svg viewBox="6079 239 20 10.561" xmlns="http://www.w3.org/2000/svg"><g fill="#2971ff"><circle cx="6088.975" cy="244.278" r="2.319"/><path d="m1.193 76.459.878-.883a.354.354 0 0 0 0-.482.354.354 0 0 0 -.482 0l-1.463 1.469a.478.478 0 0 0 -.126.252.33.33 0 0 0 .1.23l1.468 1.468a.354.354 0 0 0 .482 0 .354.354 0 0 0 0-.482l-.883-.883h5.588v-.689z" transform="translate(6079 167.378)"/><path d="m298.607 77.053-.878.878a.341.341 0 0 0 .482.482l1.468-1.468a.478.478 0 0 0 .126-.252.33.33 0 0 0 -.1-.23l-1.468-1.468a.341.341 0 0 0 -.482.482l.878.878h-5.633v.689h5.607z" transform="translate(5799.195 167.473)"/><path d="m183.255 187.273-.878-.878a.341.341 0 0 0 -.482.482l1.468 1.468a.478.478 0 0 0 .252.126.33.33 0 0 0 .23-.1l1.468-1.468a.341.341 0 1 0 -.482-.482l-.878.878v-.887h-.689v.865z" transform="translate(5905.388 61.09)"/><path d="m183.848 1.193.883.878a.354.354 0 0 0 .482 0 .354.354 0 0 0 0-.482l-1.468-1.463a.478.478 0 0 0 -.253-.126.33.33 0 0 0 -.23.1l-1.468 1.468a.354.354 0 0 0 0 .482.354.354 0 0 0 .482 0l.883-.883v.887h.689z" transform="translate(5905.483 239)"/></g></svg>