<svg xmlns="http://www.w3.org/2000/svg" viewBox="0 0 20.032 20.032"><defs><style>.a{fill:none;}.b{fill:#3d5873;}.c{fill:#c4cbd2;}</style></defs><g transform="translate(-1029.081 -255.081)"><rect class="a" width="20.032" height="20.032" transform="translate(1029.081 255.081)"/><g transform="translate(1032.094 256.343)"><path class="b" d="M70.154,40.692l1.338-.892a5.5,5.5,0,0,1-1.857-2.317,7.023,7.023,0,0,1,3.282-1.907,3.119,3.119,0,0,1,1.574-5.69c.061,0,.122,0,.183,0s.122,0,.183,0a3.119,3.119,0,0,1,1.574,5.69,7.024,7.024,0,0,1,3.282,1.907A5.5,5.5,0,0,1,77.856,39.8l1.338.892a7,7,0,1,0-9.04,0Z" transform="translate(-67.67 -28.34)"/><g transform="translate(0 10.505)"><path class="b" d="M81.678,269l-7-4.669-7,4.669v2.334H81.678Z" transform="translate(-67.67 -264.33)"/></g><g transform="translate(1.965 1.543)"><path class="c" d="M113.666,72.907l3.182-2.122,3.182,2.122a5.5,5.5,0,0,0,1.857-2.317,7.024,7.024,0,0,0-3.282-1.907,3.119,3.119,0,0,0-1.574-5.69c-.061,0-.122,0-.183,0s-.122,0-.183,0a3.119,3.119,0,0,0-1.574,5.69,7.024,7.024,0,0,0-3.282,1.907A5.5,5.5,0,0,0,113.666,72.907Z" transform="translate(-111.81 -62.99)"/></g></g></g></svg>