<svg xmlns="http://www.w3.org/2000/svg" viewBox="0 0 20 20"><defs><style>.a{fill:none;}.b{fill:#3d5873;}.c{fill:#c4cbd2;}</style></defs><g transform="translate(-1059 -255)"><rect class="a" width="20" height="20" transform="translate(1059 255)"/><g transform="translate(1060.119 259.112)"><g transform="translate(0)"><rect class="b" width="12.973" height="6.985" transform="translate(0 4.79)"/><g transform="translate(2.395 2.396)"><rect class="c" width="12.973" height="6.985"/></g><path class="b" d="M132.94,92.53h12.973v6.985H132.94Z" transform="translate(-128.15 -92.53)"/></g><g transform="translate(6.817 2.395)"><g transform="translate(0)"><path class="c" d="M170.88,146.521l.475-2.791h.711l.567,1.488.6-1.488h.722l.42,2.791h-.727l-.208-1.6-.675,1.6h-.289l-.643-1.6-.24,1.6Z" transform="translate(-170.88 -143.73)"/></g><g transform="translate(3.692)"><path class="c" d="M255.894,146.033h-1l-.192.487h-.764l1.066-2.79h.791l1.05,2.791h-.775Zm-.2-.551-.3-.888-.3.888Z" transform="translate(-253.94 -143.73)"/></g><g transform="translate(6.635)"><path class="c" d="M321.25,145.031l-.895-1.3h.895l.415.722.432-.722h.888l-.91,1.3,1.054,1.489h-.874l-.6-.911-.627.911h-.872Z" transform="translate(-320.16 -143.73)"/></g></g></g></g></svg>