<svg viewBox="0 0 20 20" xmlns="http://www.w3.org/2000/svg"><path d="m0 0h20v20h-20z" fill="none"/><path d="m1.119 8.902h12.973v6.985h-12.973z" fill="#3d5873"/><path d="m3.514 6.508h12.973v6.985h-12.973z" fill="#c4cbd2"/><path d="m132.94 92.53h12.973v6.985h-12.973z" fill="#3d5873" transform="translate(-127.031 -88.418)"/><g fill="#c4cbd2"><path d="m170.88 146.521.475-2.791h.711l.567 1.488.6-1.488h.722l.42 2.791h-.727l-.208-1.6-.675 1.6h-.289l-.643-1.6-.24 1.6z" transform="translate(-162.944 -137.223)"/><path d="m255.894 146.033h-1l-.192.487h-.764l1.066-2.79h.791l1.05 2.791h-.775zm-.2-.551-.3-.888-.3.888z" transform="translate(-242.312 -137.223)"/><path d="m321.25 145.031-.895-1.3h.895l.415.722.432-.722h.888l-.91 1.3 1.054 1.489h-.874l-.6-.911-.627.911h-.872z" transform="translate(-305.589 -137.223)"/></g></svg>