<svg viewBox="0 0 20.032 20.032" xmlns="http://www.w3.org/2000/svg"><path d="m0 0h20.032v20.032h-20.032z" fill="none"/><path d="m70.154 40.692 1.338-.892a5.5 5.5 0 0 1 -1.857-2.317 7.023 7.023 0 0 1 3.282-1.907 3.119 3.119 0 0 1 1.574-5.69h.183s.122 0 .183 0a3.119 3.119 0 0 1 1.574 5.69 7.024 7.024 0 0 1 3.282 1.907 5.5 5.5 0 0 1 -1.857 2.317l1.338.892a7 7 0 1 0 -9.04 0z" fill="#18173f" transform="translate(-64.657 -27.078)"/><path d="m81.678 269-7-4.669-7 4.669v2.334h14z" fill="#18173f" transform="translate(-64.657 -252.563)"/><path d="m113.666 72.907 3.182-2.122 3.182 2.122a5.5 5.5 0 0 0 1.857-2.317 7.024 7.024 0 0 0 -3.282-1.907 3.119 3.119 0 0 0 -1.574-5.69c-.061 0-.122 0-.183 0s-.122 0-.183 0a3.119 3.119 0 0 0 -1.574 5.69 7.024 7.024 0 0 0 -3.282 1.907 5.5 5.5 0 0 0 1.857 2.317z" fill="#c4cbd2" transform="translate(-106.832 -60.185)"/></svg>