<svg xmlns="http://www.w3.org/2000/svg" viewBox="4800 237 20 13.44">
  <defs>
    <style>
      .cls-1 {
        fill: #2971ff;
      }
    </style>
  </defs>
  <g id="Symbol_20_1" data-name="Symbol 20 – 1" transform="translate(3756)">
    <ellipse id="XMLID_1_" class="cls-1" cx="2.314" cy="2.314" rx="2.314" ry="2.314" transform="translate(1051.684 241.408)"/>
    <path id="Path_214" data-name="Path 214" class="cls-1" d="M3.824,1.459,5.289-.006a.353.353,0,0,1,.481,0,.353.353,0,0,1,0,.481l-.876.876H18.6a1.4,1.4,0,0,1,1.4,1.4v7.711a1.4,1.4,0,0,1-1.4,1.4h-.939a.333.333,0,0,1,0-.665H18.6a.741.741,0,0,0,.732-.732V2.776a.741.741,0,0,0-.732-.732H4.866l.876.876a.34.34,0,0,1-.481.481L3.8,1.94a.337.337,0,0,1-.1-.229A.493.493,0,0,1,3.824,1.459Zm12.37,10.326a.353.353,0,0,0,0-.481L14.729,9.839a.353.353,0,0,0-.481,0,.337.337,0,0,0-.1.229.329.329,0,0,0,.1.229l.876.876H1.4a.741.741,0,0,1-.732-.732V2.776A.741.741,0,0,1,1.4,2.043h.939a.333.333,0,0,0,0-.665H1.4A1.4,1.4,0,0,0,0,2.776v7.711a1.4,1.4,0,0,0,1.4,1.4h13.75l-.876.876a.34.34,0,0,0,.481.481Z" transform="translate(1044 237.1)"/>
  </g>
</svg>
