<svg xmlns="http://www.w3.org/2000/svg" width="22" height="22" viewBox="0 0 22 22"><g transform="translate(-344 -435)"><g transform="translate(344 435)"><g transform="translate(1.222 3.667)"><rect width="15.889" height="8.556" transform="translate(0 6.111)" fill="#3d5873"/><g transform="translate(3.667)"><rect width="15.889" height="8.556" fill="#e6eaed"/></g><rect width="1.222" height="6.111" transform="translate(8.556 4.889) rotate(-90)" fill="#fd714b"/></g><rect width="22" height="22" fill="none"/></g></g><g transform="translate(8.603 3.603)"><path d="M29.161,24.864a3.909,3.909,0,1,0,3.909,3.909A3.909,3.909,0,0,0,29.161,24.864Z" transform="translate(-24.758 -24.378)" fill="#e6eaed"/><path d="M71.965,77.935a1.71,1.71,0,1,0-2.071,0,3.912,3.912,0,0,0-2.041,1.359,3.424,3.424,0,0,0,6.152,0A3.911,3.911,0,0,0,71.965,77.935Z" transform="translate(-66.528 -73.401)" fill="#3d5873"/><rect width="8" height="8" transform="translate(0.397 0.397)" fill="none"/></g></svg>