<svg viewBox="7796 45 30 30" xmlns="http://www.w3.org/2000/svg"><g fill="none"><path d="m7796 45h30v30h-30z"/><path d="m104.333 81.267a1.633 1.633 0 1 0 -1.633-1.633 1.636 1.636 0 0 0 1.633 1.633z" transform="translate(7700.147 -27.8)"/><path d="m300.233 203.767a1.633 1.633 0 1 0 -1.633-1.633 1.636 1.636 0 0 0 1.633 1.633z" transform="translate(7517.307 -142.134)"/><path d="m104.333 326.167a1.633 1.633 0 1 0 -1.633-1.633 1.636 1.636 0 0 0 1.633 1.633z" transform="translate(7700.147 -256.374)"/></g><g fill="#0c1e3e"><path d="m32.38 91.42v-.027a3.117 3.117 0 0 1 .1-.793h-3.38v1.633h3.38a3.275 3.275 0 0 1 -.1-.813z" transform="translate(7768.84 -39.56)"/><path d="m174.707 91.407v.013a3.076 3.076 0 0 1 -.107.82h16.42v-1.64h-16.413a3.117 3.117 0 0 1 .1.793z" transform="translate(7633.04 -39.56)"/><path d="m370.7 213.907v.013a3.274 3.274 0 0 1 -.1.813h3.36v-1.633h-3.353a3.118 3.118 0 0 1 .1.793c-.007.007-.007.007-.007.014z" transform="translate(7450.107 -153.894)"/><path d="m45.44 213.82v-.027a3.117 3.117 0 0 1 .1-.793h-16.44v1.633h16.44a3.2 3.2 0 0 1 -.1-.813z" transform="translate(7768.84 -153.8)"/><path d="m32.38 336.32v-.027a3.117 3.117 0 0 1 .1-.793h-3.38v1.633h3.38a3.275 3.275 0 0 1 -.1-.813z" transform="translate(7768.84 -268.134)"/><path d="m174.8 336.307v.013a3.275 3.275 0 0 1 -.1.813h16.42v-1.633h-16.42a3.117 3.117 0 0 1 .1.793z" transform="translate(7632.947 -268.134)"/></g><g fill="#8795a2"><path d="m78.113 56.873a3.222 3.222 0 0 0 .1.807 3.264 3.264 0 0 0 6.32 0 3.222 3.222 0 0 0 .1-.807v-.013a3.117 3.117 0 0 0 -.1-.793.024.024 0 0 0 -.007-.02 3.264 3.264 0 0 0 -6.32 0 .024.024 0 0 1 -.007.02 3.117 3.117 0 0 0 -.1.793c.014.007.014.013.014.013zm3.26-1.64a1.633 1.633 0 1 1 -1.633 1.633 1.636 1.636 0 0 1 1.633-1.633z" transform="translate(7723.107 -5.027)"/><path d="m78.113 301.773a3.222 3.222 0 0 0 .1.807 3.264 3.264 0 0 0 6.32 0 3.222 3.222 0 0 0 .1-.807v-.013a3.117 3.117 0 0 0 -.1-.793.024.024 0 0 0 -.007-.02 3.264 3.264 0 0 0 -6.32 0 .024.024 0 0 1 -.007.02 3.117 3.117 0 0 0 -.1.793c.014.007.014.013.014.013zm3.26-1.64a1.633 1.633 0 1 1 -1.633 1.633 1.636 1.636 0 0 1 1.633-1.633z" transform="translate(7723.107 -233.6)"/><path d="m274.013 179.373a3.221 3.221 0 0 0 .1.807 3.264 3.264 0 0 0 6.32 0 3.223 3.223 0 0 0 .1-.807v-.013a3.118 3.118 0 0 0 -.1-.793.024.024 0 0 0 -.007-.02 3.264 3.264 0 0 0 -6.32 0 .025.025 0 0 1 -.007.02 3.117 3.117 0 0 0 -.1.793c.014.007.014.007.014.013zm3.26-1.647a1.633 1.633 0 1 1 -1.633 1.633 1.636 1.636 0 0 1 1.633-1.632z" transform="translate(7540.267 -119.36)"/></g></svg>