<svg viewBox="-2350 1334 20 20" xmlns="http://www.w3.org/2000/svg"><g fill="none"><path d="m-2350 1334h20v20h-20z"/><path d="m103.789 80.178a1.089 1.089 0 1 0 -1.089-1.089 1.091 1.091 0 0 0 1.089 1.089z" transform="translate(-2448.136 1259.466)"/><path d="m299.689 202.678a1.089 1.089 0 1 0 -1.089-1.089 1.091 1.091 0 0 0 1.089 1.089z" transform="translate(-2635.329 1142.411)"/><path d="m103.789 325.078a1.089 1.089 0 1 0 -1.089-1.089 1.091 1.091 0 0 0 1.089 1.089z" transform="translate(-2448.136 1025.451)"/></g><g fill="#152337"><path d="m31.287 91.147v-.018a2.078 2.078 0 0 1 .067-.529h-2.254v1.089h2.253a2.183 2.183 0 0 1 -.066-.542z" transform="translate(-2377.807 1247.426)"/><path d="m174.671 91.138v.009a2.05 2.05 0 0 1 -.071.547h10.947v-1.094h-10.947a2.079 2.079 0 0 1 .067.529z" transform="translate(-2516.84 1247.426)"/><path d="m370.667 213.638v.009a2.184 2.184 0 0 1 -.067.542h2.24v-1.089h-2.24a2.08 2.08 0 0 1 .067.529s0 .004 0 .009z" transform="translate(-2704.129 1130.371)"/><path d="m39.993 213.547v-.018a2.078 2.078 0 0 1 .067-.529h-10.96v1.089h10.96a2.133 2.133 0 0 1 -.067-.542z" transform="translate(-2377.807 1130.466)"/><path d="m31.287 336.047v-.018a2.078 2.078 0 0 1 .067-.529h-2.254v1.089h2.253a2.183 2.183 0 0 1 -.066-.542z" transform="translate(-2377.807 1013.411)"/><path d="m174.767 336.038v.009a2.182 2.182 0 0 1 -.067.542h10.947v-1.089h-10.947a2.077 2.077 0 0 1 .067.529z" transform="translate(-2516.936 1013.411)"/></g><g fill="#c4cbd2"><path d="m78.109 55.782a2.148 2.148 0 0 0 .067.538 2.176 2.176 0 0 0 4.213 0 2.148 2.148 0 0 0 .067-.538v-.009a2.079 2.079 0 0 0 -.067-.529.016.016 0 0 0 0-.013 2.176 2.176 0 0 0 -4.213 0 .016.016 0 0 1 0 .013 2.078 2.078 0 0 0 -.067.529zm2.173-1.093a1.089 1.089 0 1 1 -1.089 1.089 1.091 1.091 0 0 1 1.089-1.089z" transform="translate(-2424.629 1282.782)"/><path d="m78.109 300.682a2.148 2.148 0 0 0 .067.538 2.176 2.176 0 0 0 4.213 0 2.148 2.148 0 0 0 .067-.538v-.009a2.078 2.078 0 0 0 -.067-.529.016.016 0 0 0 0-.013 2.176 2.176 0 0 0 -4.213 0 .016.016 0 0 1 0 .013 2.078 2.078 0 0 0 -.067.529zm2.173-1.093a1.089 1.089 0 1 1 -1.089 1.089 1.091 1.091 0 0 1 1.089-1.089z" transform="translate(-2424.629 1048.766)"/><path d="m274.009 178.282a2.148 2.148 0 0 0 .067.538 2.176 2.176 0 0 0 4.213 0 2.147 2.147 0 0 0 .067-.538v-.009a2.077 2.077 0 0 0 -.067-.529.016.016 0 0 0 0-.013 2.176 2.176 0 0 0 -4.213 0 .016.016 0 0 1 0 .013 2.079 2.079 0 0 0 -.067.529zm2.173-1.1a1.089 1.089 0 1 1 -1.089 1.089 1.091 1.091 0 0 1 1.089-1.087z" transform="translate(-2611.823 1165.726)"/></g></svg>