<svg xmlns="http://www.w3.org/2000/svg" viewBox="-2350 1334 20 20"><defs><style>.a{fill:none;}.b{fill:#152337;}.c{fill:#c4cbd2;}</style></defs><g transform="translate(-2894 850)"><g transform="translate(544 484)"><rect class="a" width="20" height="20"/></g><g transform="translate(545.293 486.382)"><path class="a" d="M103.789,80.178a1.089,1.089,0,1,0-1.089-1.089A1.091,1.091,0,0,0,103.789,80.178Z" transform="translate(-99.429 -76.916)"/><path class="a" d="M299.689,202.678a1.089,1.089,0,1,0-1.089-1.089A1.091,1.091,0,0,0,299.689,202.678Z" transform="translate(-286.622 -193.971)"/><path class="a" d="M103.789,325.078a1.089,1.089,0,1,0-1.089-1.089A1.091,1.091,0,0,0,103.789,325.078Z" transform="translate(-99.429 -310.931)"/><path class="b" d="M31.287,91.147v-.018a2.078,2.078,0,0,1,.067-.529H29.1v1.089h2.253A2.183,2.183,0,0,1,31.287,91.147Z" transform="translate(-29.1 -88.956)"/><path class="b" d="M174.671,91.138v.009a2.05,2.05,0,0,1-.071.547h10.947V90.6H174.6a2.079,2.079,0,0,1,.067.529Z" transform="translate(-168.133 -88.956)"/><path class="b" d="M370.667,213.638v.009a2.184,2.184,0,0,1-.067.542h2.24V213.1H370.6a2.08,2.08,0,0,1,.067.529S370.667,213.633,370.667,213.638Z" transform="translate(-355.422 -206.011)"/><path class="b" d="M39.993,213.547v-.018A2.078,2.078,0,0,1,40.06,213H29.1v1.089H40.06A2.133,2.133,0,0,1,39.993,213.547Z" transform="translate(-29.1 -205.916)"/><path class="b" d="M31.287,336.047v-.018a2.078,2.078,0,0,1,.067-.529H29.1v1.089h2.253A2.183,2.183,0,0,1,31.287,336.047Z" transform="translate(-29.1 -322.971)"/><path class="b" d="M174.767,336.038v.009a2.182,2.182,0,0,1-.067.542h10.947V335.5H174.7a2.077,2.077,0,0,1,.067.529Z" transform="translate(-168.229 -322.971)"/><path class="c" d="M78.109,55.782a2.148,2.148,0,0,0,.067.538,2.176,2.176,0,0,0,4.213,0,2.148,2.148,0,0,0,.067-.538v-.009a2.079,2.079,0,0,0-.067-.529.016.016,0,0,0,0-.013,2.176,2.176,0,0,0-4.213,0,.016.016,0,0,1,0,.013,2.078,2.078,0,0,0-.067.529C78.109,55.778,78.109,55.782,78.109,55.782Zm2.173-1.093a1.089,1.089,0,1,1-1.089,1.089A1.091,1.091,0,0,1,80.282,54.689Z" transform="translate(-75.922 -53.6)"/><path class="c" d="M78.109,300.682a2.148,2.148,0,0,0,.067.538,2.176,2.176,0,0,0,4.213,0,2.148,2.148,0,0,0,.067-.538v-.009a2.078,2.078,0,0,0-.067-.529.016.016,0,0,0,0-.013,2.176,2.176,0,0,0-4.213,0,.016.016,0,0,1,0,.013,2.078,2.078,0,0,0-.067.529C78.109,300.678,78.109,300.682,78.109,300.682Zm2.173-1.093a1.089,1.089,0,1,1-1.089,1.089A1.091,1.091,0,0,1,80.282,299.589Z" transform="translate(-75.922 -287.616)"/><path class="c" d="M274.009,178.282a2.148,2.148,0,0,0,.067.538,2.176,2.176,0,0,0,4.213,0,2.147,2.147,0,0,0,.067-.538v-.009a2.077,2.077,0,0,0-.067-.529.016.016,0,0,0,0-.013,2.176,2.176,0,0,0-4.213,0,.016.016,0,0,1,0,.013,2.079,2.079,0,0,0-.067.529C274.009,178.278,274.009,178.278,274.009,178.282Zm2.173-1.1a1.089,1.089,0,1,1-1.089,1.089A1.091,1.091,0,0,1,276.182,177.184Z" transform="translate(-263.116 -170.656)"/></g></g></svg>