<svg xmlns="http://www.w3.org/2000/svg" viewBox="0 0 40 40"><defs><style>.a{fill:#091440;}.b{fill:none;}</style></defs><g transform="translate(1733 1978)"><g transform="translate(-2417 -2659.564)"><g transform="translate(689 686.564)"><path class="a" d="M56.439,24.72c.325,1.3.976,2.765,1.139,3.579a2.628,2.628,0,0,1-4.717,1.789c-.651-.976-.651-1.952-1.3-3.579-1.789.488-2.928,1.3-4.229,1.139-2.115-.325-2.6-3.253-1.139-4.554.976-.813,2.44-.813,3.741-1.464a60.115,60.115,0,0,0-1.952-5.693c-1.464.488-3.416,1.3-4.392,1.139a2.584,2.584,0,0,1-1.789-2.44c0-2.44,2.765-2.6,4.554-3.253-.488-1.464-1.139-2.44-1.139-3.9a2.727,2.727,0,0,1,4.229-1.952c.813.488,1.3,2.6,1.789,4.229L56.765,7.8c-.651-2.115-1.789-4.066-.325-5.53a2.858,2.858,0,0,1,4.066.325c.813,1.139.813,2.44,1.3,3.579,1.464-.651,3.253-1.627,4.717-1.139a2.532,2.532,0,0,1,1.464,2.928c-.651,1.789-2.765,2.115-4.554,2.765l1.789,5.693c1.627-.488,2.44-1.139,3.9-1.139a2.657,2.657,0,0,1,2.6,2.115c.325,2.765-2.765,3.091-4.717,3.741.651,1.952,1.139,2.44,1.139,3.9,0,2.6-3.416,3.253-4.88,1.3a16.419,16.419,0,0,1-1.139-3.416C61.97,22.931,56.439,24.883,56.439,24.72Zm3.9-6.669-1.952-5.693L53.024,14.31l1.789,5.53Z" transform="translate(-41.8 -1.564)"/></g></g><g transform="translate(-2825 -2813)"><rect class="b" width="40" height="40" transform="translate(1092 835)"/></g></g></svg>