<svg xmlns="http://www.w3.org/2000/svg" viewBox="6618 1338.749 60 59.251"><defs><style>.a{fill:#2970ff;}</style></defs><g transform="translate(6618 1338.749)"><path class="a" d="M71.125,47.948c.652,2.607,1.955,5.539,2.281,7.168.652,5.213-6.517,7.82-9.449,3.584-1.3-1.955-1.3-3.91-2.607-7.168-3.584.977-5.865,2.607-8.472,2.281-4.236-.652-5.213-6.517-2.281-9.123,1.955-1.629,4.887-1.629,7.494-2.932a120.415,120.415,0,0,0-3.91-11.4c-2.932.977-6.842,2.607-8.8,2.281C43.1,31.657,41.8,30.027,41.8,27.747c0-4.887,5.539-5.213,9.123-6.517-.977-2.932-2.281-4.887-2.281-7.82A5.462,5.462,0,0,1,57.114,9.5c1.629.977,2.607,5.213,3.584,8.472l11.078-3.91c-1.3-4.236-3.584-8.146-.652-11.078C73.405.7,77.315,1.355,79.27,3.635,80.9,5.916,80.9,8.523,81.877,10.8c2.932-1.3,6.517-3.258,9.449-2.281,2.281.652,3.584,3.91,2.932,5.865-1.3,3.584-5.539,4.236-9.123,5.539l3.584,11.4c3.258-.977,4.887-2.281,7.82-2.281a5.322,5.322,0,0,1,5.213,4.236c.652,5.539-5.539,6.191-9.449,7.494,1.3,3.91,2.281,4.887,2.281,7.82,0,5.213-6.842,6.517-9.775,2.607-.977-1.3-1.3-3.91-2.281-6.842C82.2,44.364,71.125,48.274,71.125,47.948Zm7.82-13.359-3.91-11.4-10.752,3.91,3.584,11.078Z" transform="translate(-41.8 -1.564)"/></g></svg>