<svg viewBox="0 0 40 40" xmlns="http://www.w3.org/2000/svg"><path d="m56.439 24.72c.325 1.3.976 2.765 1.139 3.579a2.628 2.628 0 0 1 -4.717 1.789c-.651-.976-.651-1.952-1.3-3.579-1.789.488-2.928 1.3-4.229 1.139-2.115-.325-2.6-3.253-1.139-4.554.976-.813 2.44-.813 3.741-1.464a60.115 60.115 0 0 0 -1.952-5.693c-1.464.488-3.416 1.3-4.392 1.139a2.584 2.584 0 0 1 -1.789-2.44c0-2.44 2.765-2.6 4.554-3.253-.488-1.464-1.139-2.44-1.139-3.9a2.727 2.727 0 0 1 4.229-1.952c.813.488 1.3 2.6 1.789 4.229l5.531-1.96c-.651-2.115-1.789-4.066-.325-5.53a2.858 2.858 0 0 1 4.066.325c.813 1.139.813 2.44 1.3 3.579 1.464-.651 3.253-1.627 4.717-1.139a2.532 2.532 0 0 1 1.464 2.928c-.651 1.789-2.765 2.115-4.554 2.765l1.789 5.693c1.627-.488 2.44-1.139 3.9-1.139a2.657 2.657 0 0 1 2.6 2.115c.325 2.765-2.765 3.091-4.717 3.741.651 1.952 1.139 2.44 1.139 3.9 0 2.6-3.416 3.253-4.88 1.3a16.419 16.419 0 0 1 -1.139-3.416c-.155.009-5.686 1.961-5.686 1.798zm3.9-6.669-1.952-5.693-5.363 1.952 1.789 5.53z" fill="#091440" transform="translate(-36.8 3.436)"/><path d="m0 0h40v40h-40z" fill="none"/></svg>