<svg viewBox="7257 210.359 11.429 10" xmlns="http://www.w3.org/2000/svg"><g fill="none"><ellipse cx=".714" cy=".714" rx=".714" ry=".714" transform="matrix(.97323506 -.22981194 .22981194 .97323506 7259.004 211.256)"/><ellipse cx=".714" cy=".714" rx=".714" ry=".714" transform="matrix(.38268343 -.92387953 .92387953 .38268343 7264.644 215.745)"/><ellipse cx=".714" cy=".714" rx=".714" ry=".714" transform="matrix(.92624602 -.37691951 .37691951 .92624602 7258.932 218.537)"/></g><g fill="#fff"><path d="m1.434 38.06v-.011a1.4 1.4 0 0 1 .043-.349h-1.477v.714h1.48a1.309 1.309 0 0 1 -.046-.354z" transform="translate(7257 173.736)"/><path d="m148.546 38.151v.006a1.473 1.473 0 0 1 -.046.357h7.186v-.714h-7.186a1.4 1.4 0 0 1 .043.349z" transform="translate(7112.743 173.639)"/><path d="m348.646 163.251v.006a1.345 1.345 0 0 1 -.046.357h1.469v-.714h-1.469a1.4 1.4 0 0 1 .043.349z" transform="translate(6918.36 52.113)"/><path d="m7.149 163.06v-.011a1.4 1.4 0 0 1 .043-.349h-7.192v.714h7.194a1.433 1.433 0 0 1 -.045-.354z" transform="translate(7257 52.307)"/><path d="m1.434 288.06v-.011a1.4 1.4 0 0 1 .043-.349h-1.477v.714h1.48a1.309 1.309 0 0 1 -.046-.354z" transform="translate(7257 -69.121)"/><path d="m148.546 288.251v.006a1.346 1.346 0 0 1 -.046.357h7.186v-.714h-7.186a1.4 1.4 0 0 1 .043.349z" transform="translate(7112.743 -69.316)"/><path d="m50.2 1.431a1.45 1.45 0 0 0 .046.354 1.428 1.428 0 0 0 2.766 0 1.451 1.451 0 0 0 .046-.354v-.005a1.4 1.4 0 0 0 -.043-.349.01.01 0 0 0 0-.009 1.429 1.429 0 0 0 -2.766 0 .01.01 0 0 1 0 .009 1.4 1.4 0 0 0 -.043.349zm1.429-.717a.714.714 0 1 1 -.714.714.715.715 0 0 1 .714-.714z" transform="translate(7208.234 210.359)"/><path d="m50.2 251.434a1.409 1.409 0 0 0 .046.351 1.429 1.429 0 0 0 2.811-.351v-.006a1.4 1.4 0 0 0 -.043-.349.011.011 0 0 0 0-.009 1.428 1.428 0 0 0 -2.766 0 .011.011 0 0 1 0 .009 1.4 1.4 0 0 0 -.043.349zm1.429-.72a.714.714 0 1 1 -.714.714.715.715 0 0 1 .714-.714z" transform="translate(7208.234 -32.498)"/><path d="m250.2 126.434a1.409 1.409 0 0 0 .046.351 1.429 1.429 0 0 0 2.811-.351v-.006a1.4 1.4 0 0 0 -.043-.349.011.011 0 0 0 0-.009 1.428 1.428 0 0 0 -2.766 0 .01.01 0 0 1 0 .009 1.4 1.4 0 0 0 -.043.349zm1.429-.72a.714.714 0 1 1 -.714.714.715.715 0 0 1 .714-.714z" transform="translate(7013.949 88.93)"/></g></svg>