<svg xmlns="http://www.w3.org/2000/svg" viewBox="7257 210.359 11.429 10"><defs><style>.a{fill:none;}.b{fill:#fff;}</style></defs><g transform="translate(6218)"><ellipse class="a" cx="0.714" cy="0.714" rx="0.714" ry="0.714" transform="translate(1041.004 211.256) rotate(-13.286)"/><ellipse class="a" cx="0.714" cy="0.714" rx="0.714" ry="0.714" transform="translate(1046.644 215.745) rotate(-67.5)"/><ellipse class="a" cx="0.714" cy="0.714" rx="0.714" ry="0.714" transform="translate(1040.932 218.537) rotate(-22.143)"/><path class="b" d="M1.434,38.06v-.011a1.4,1.4,0,0,1,.043-.349H0v.714H1.48A1.309,1.309,0,0,1,1.434,38.06Z" transform="translate(1039 173.736)"/><path class="b" d="M148.546,38.151v.006a1.473,1.473,0,0,1-.046.357h7.186V37.8H148.5a1.4,1.4,0,0,1,.043.349Z" transform="translate(894.743 173.639)"/><path class="b" d="M348.646,163.251v.006a1.345,1.345,0,0,1-.046.357h1.469V162.9H348.6a1.4,1.4,0,0,1,.043.349Z" transform="translate(700.36 52.113)"/><path class="b" d="M7.149,163.06v-.011a1.4,1.4,0,0,1,.043-.349H0v.714H7.194A1.433,1.433,0,0,1,7.149,163.06Z" transform="translate(1039 52.307)"/><path class="b" d="M1.434,288.06v-.011a1.4,1.4,0,0,1,.043-.349H0v.714H1.48A1.309,1.309,0,0,1,1.434,288.06Z" transform="translate(1039 -69.121)"/><path class="b" d="M148.546,288.251v.006a1.346,1.346,0,0,1-.046.357h7.186V287.9H148.5a1.4,1.4,0,0,1,.043.349Z" transform="translate(894.743 -69.316)"/><path class="b" d="M50.2,1.431a1.45,1.45,0,0,0,.046.354,1.428,1.428,0,0,0,2.766,0,1.451,1.451,0,0,0,.046-.354V1.426a1.4,1.4,0,0,0-.043-.349.01.01,0,0,0,0-.009,1.429,1.429,0,0,0-2.766,0,.01.01,0,0,1,0,.009,1.4,1.4,0,0,0-.043.349ZM51.629.714a.714.714,0,1,1-.714.714A.715.715,0,0,1,51.629.714Z" transform="translate(990.234 210.359)"/><path class="b" d="M50.2,251.434a1.409,1.409,0,0,0,.046.351,1.429,1.429,0,0,0,2.811-.351v-.006a1.4,1.4,0,0,0-.043-.349.011.011,0,0,0,0-.009,1.428,1.428,0,0,0-2.766,0,.011.011,0,0,1,0,.009,1.4,1.4,0,0,0-.043.349Zm1.429-.72a.714.714,0,1,1-.714.714A.715.715,0,0,1,51.629,250.714Z" transform="translate(990.234 -32.498)"/><path class="b" d="M250.2,126.434a1.409,1.409,0,0,0,.046.351,1.429,1.429,0,0,0,2.811-.351v-.006a1.4,1.4,0,0,0-.043-.349.011.011,0,0,0,0-.009,1.428,1.428,0,0,0-2.766,0,.01.01,0,0,1,0,.009,1.4,1.4,0,0,0-.043.349Zm1.429-.72a.714.714,0,1,1-.714.714A.715.715,0,0,1,251.629,125.714Z" transform="translate(795.949 88.93)"/></g></svg>