<svg xmlns="http://www.w3.org/2000/svg" viewBox="0 0 20 20"><defs><style>.a{fill:none;}.b{fill:#8795a2;}.c{fill:#c4cbd2;}.d{fill:#18173f;}.e{fill:#091440;}</style></defs><g transform="translate(-994 -195)"><g transform="translate(996.195 197.195)"><path class="a" d="M35.631,25.5a.864.864,0,0,1-.031.281A.864.864,0,0,0,35.631,25.5Z" transform="translate(-24.486 -17.539)"/><path class="b" d="M48.2,15.7a7.674,7.674,0,0,1,.5,1.842A8.9,8.9,0,0,0,48.2,15.7Z" transform="translate(-33.152 -10.799)"/><path class="b" d="M22.9,14.362a4.658,4.658,0,0,1,.656-.062,2.523,2.523,0,0,1,.5.031,2.686,2.686,0,0,0-.5-.031A4.658,4.658,0,0,0,22.9,14.362Z" transform="translate(-15.751 -9.836)"/><path class="b" d="M35.631,25.362V25.3a1.28,1.28,0,0,1-.031.343h0A.864.864,0,0,0,35.631,25.362Z" transform="translate(-24.486 -17.401)"/><path class="b" d="M.7,30.242A7.674,7.674,0,0,1,.2,28.4,8.9,8.9,0,0,0,.7,30.242Z" transform="translate(-0.138 -19.534)"/><path class="b" d="M48.9,32.3Z" transform="translate(-33.634 -22.216)"/><path class="c" d="M31.1,34.632a7.753,7.753,0,0,0,4.027-4.4L30.942,28.7A3.4,3.4,0,0,1,29.1,30.636c.031,0,.062-.031.094-.031Z" transform="translate(-20.015 -19.74)"/><path class="b" d="M49.1,31.5Z" transform="translate(-33.771 -21.666)"/><path class="b" d="M49,32.1Z" transform="translate(-33.702 -22.078)"/><path class="b" d="M48.5,33.531h0V33.5h0Z" transform="translate(-33.358 -23.041)"/><path class="c" d="M2.3,31.1a7.858,7.858,0,0,0,4.4,4.027l.437-1.218L8.2,30.942h0A3.4,3.4,0,0,1,6.265,29.1c0,.031.031.062.031.094Z" transform="translate(-1.582 -20.015)"/><path class="b" d="M24.555,35.5a4.658,4.658,0,0,1-.656.062,2.523,2.523,0,0,1-.5-.031,2.685,2.685,0,0,0,.5.031A4.658,4.658,0,0,0,24.555,35.5Z" transform="translate(-16.095 -24.417)"/><path class="b" d="M14.362,24.555A4.658,4.658,0,0,1,14.3,23.9a2.524,2.524,0,0,1,.031-.5,2.686,2.686,0,0,0-.031.5A4.658,4.658,0,0,0,14.362,24.555Z" transform="translate(-9.836 -16.095)"/><path class="c" d="M34.632,5.527A7.907,7.907,0,0,0,30.261,1.5l-.78,2.092L28.7,5.715h0a3.4,3.4,0,0,1,1.936,1.842c0-.031-.031-.062-.031-.094Z" transform="translate(-19.74 -1.032)"/><path class="b" d="M1.5,16.469Z" transform="translate(-1.032 -11.318)"/><path class="c" d="M5.527,2.3A7.858,7.858,0,0,0,1.5,6.7l1.311.5L5.683,8.263A3.4,3.4,0,0,1,7.525,6.327c-.031,0-.062.031-.094.031Z" transform="translate(-1.032 -1.582)"/><path class="b" d="M15.7.7A8.9,8.9,0,0,1,17.542.2,8.9,8.9,0,0,0,15.7.7Z" transform="translate(-10.799 -0.138)"/><path class="d" d="M14.9,21.4Z" transform="translate(-10.248 -14.719)"/><path class="e" d="M.031,19.9v.094a.281.281,0,0,0,.031.156v.031a7.674,7.674,0,0,0,.5,1.842h0a.237.237,0,0,1,.062.125c0,.031.031.062.031.094a.109.109,0,0,0,.031.062c0,.031.031.031.031.062h0L4.745,20.49a.115.115,0,0,1-.031-.094v-.031c0-.031-.031-.094-.031-.125v-.031c0-.031-.031-.062-.031-.094s0-.031-.031-.062c0-.031-.031-.062-.031-.094V19.9c0-.031-.031-.094-.031-.125v-.031a4.658,4.658,0,0,1-.062-.656,2.685,2.685,0,0,1,.031-.5h0c0-.062.031-.094.031-.156V18.4c0-.031.031-.062.031-.125v-.062c0-.031.031-.062.031-.094s0-.031.031-.062v-.031a.109.109,0,0,1,.031-.062L1.78,16.9.468,16.4h0c-.062.219-.156.437-.187.624h0c0,.062-.031.094-.031.125v.062c0,.031-.031.062-.031.094a.115.115,0,0,1-.031.094v.062A7.628,7.628,0,0,0,0,19.085a6.016,6.016,0,0,0,.031.749Z" transform="translate(0 -11.28)"/><path class="e" d="M18,34.825l-1.061,2.966L16.5,39.008h0a.579.579,0,0,0,.219.062h.031c.062.031.094.031.156.062h.031c.062.031.125.031.187.062h.031c.031,0,.094.031.125.031h.062c.031,0,.062.031.094.031a.115.115,0,0,1,.094.031h.062a8.536,8.536,0,0,0,1.561.156,6.016,6.016,0,0,0,.749-.031h.156a.281.281,0,0,0,.156-.031h.031a7.674,7.674,0,0,0,1.842-.5h0c.062-.031.094-.031.156-.062.031,0,.062-.031.094-.031a.109.109,0,0,0,.062-.031c.031,0,.031-.031.062-.031h0L20.59,34.7c-.031,0-.062.031-.094.031h-.031c-.062.031-.094.062-.156.062h-.031c-.031,0-.062.031-.094.031s-.031,0-.062.031c-.031,0-.062.031-.094.031h-.062c-.031,0-.094.031-.125.031h-.031a4.658,4.658,0,0,1-.656.062,2.685,2.685,0,0,1-.5-.031h0c-.062,0-.094-.031-.156-.031h-.031c-.031,0-.062-.031-.125-.031H18.28c-.031,0-.062-.031-.094-.031s-.031,0-.062-.031h-.031c-.031.031-.062,0-.094,0Z" transform="translate(-11.349 -23.867)"/><path class="e" d="M19.682,2.56l.78-2.092H20.4c-.062-.031-.094-.031-.156-.062-.031,0-.031,0-.062-.031-.031,0-.094-.031-.125-.031s-.062,0-.062-.031C19.932.281,19.87.281,19.807.25h-.031c-.031,0-.094-.031-.125-.031h-.062c-.031,0-.062-.031-.094-.031A.115.115,0,0,1,19.4.156h-.062A8.82,8.82,0,0,0,17.778,0a6.016,6.016,0,0,0-.749.031h-.156a.188.188,0,0,0-.125.031h-.031a7.674,7.674,0,0,0-1.842.5h-.031a.237.237,0,0,1-.125.062c-.031,0-.062.031-.094.031a.109.109,0,0,0-.062.031c-.031,0-.031.031-.062.031h0l1.873,4.027a.115.115,0,0,1,.094-.031H16.5c.031-.031.094-.031.125-.062h.031c.031,0,.062-.031.094-.031s.031,0,.062-.031c.031,0,.062-.031.094-.031h.062c.031,0,.094-.031.125-.031h.031a4.658,4.658,0,0,1,.656-.062,2.686,2.686,0,0,1,.5.031h0c.062,0,.094.031.156.031h.031c.062,0,.094.031.125.031h.062c.031,0,.062.031.094.031s.031,0,.062.031c.031,0,.031,0,.062.031a.109.109,0,0,1,.062.031h0Z" transform="translate(-9.973)"/><path class="e" d="M39.077,20.325h0c.031-.031.031-.031.031-.062h0c0-.062.031-.094.031-.156h0c0-.031,0-.031.031-.062h0c0-.031.031-.094.031-.125h0a.109.109,0,0,1,.031-.062h0a1.3,1.3,0,0,1,.062-.187h0v-.031c0-.031.031-.094.031-.125v-.062c0-.031.031-.062.031-.094a.115.115,0,0,1,.031-.094V19.2a8.536,8.536,0,0,0,.156-1.561,6.016,6.016,0,0,0-.031-.749v-.156a.281.281,0,0,0-.031-.156v-.031a7.674,7.674,0,0,0-.5-1.842v-.031c-.031-.062-.031-.094-.062-.156,0-.031-.031-.062-.031-.094a.109.109,0,0,0-.031-.062c0-.031-.031-.031-.031-.062h0L34.8,16.173a.115.115,0,0,1,.031.094V16.3c.031.031.031.094.062.125v.031c0,.031.031.062.031.094s0,.031.031.062c0,.031.031.062.031.094v.062c0,.031.031.094.031.125v.031a4.657,4.657,0,0,1,.062.656v.156a.864.864,0,0,1-.031.281h0v.062h0a.281.281,0,0,1-.031.156v.031c0,.031-.031.094-.031.125v.031c0,.031-.031.062-.031.094s0,.031-.031.062c0,.031-.031.062-.031.094s0,.031-.031.062h0l4.215,1.592Z" transform="translate(-23.936 -9.836)"/></g><rect class="a" width="20" height="20" transform="translate(994 195)"/></g></svg>