<svg viewBox="0 0 20 20" xmlns="http://www.w3.org/2000/svg"><path d="m3.684 6.887h10.025v4.982h-10.025z" fill="#3c5872"/><path d="m4.937 8.14h10.025v4.982h-10.025z" fill="#c4cbd2"/><g fill="#3c5872"><circle cx="9.965" cy="10.631" r="1.273"/><circle cx="13.088" cy="10.632" r=".632"/><circle cx="6.812" cy="10.632" r=".632"/></g><g fill="#c4cbd2"><path d="m348.754 81.658a8.917 8.917 0 0 0 -.837-1.058l-.917.852a7.4 7.4 0 0 1 .717.907z" transform="translate(-332.158 -76.56)"/><path d="m171.169 25.753a7.485 7.485 0 0 1 3.709.977l.622-1.088a8.779 8.779 0 0 0 -4.331-1.143 8.749 8.749 0 0 0 -3.469.712l.5 1.153a7.442 7.442 0 0 1 2.969-.611z" transform="translate(-161.846 -23.272)"/><path d="m80.8 74.072-2-2.005-2.005 2.005.887.887.486-.486a7.52 7.52 0 1 1 -12.418-6.326l-.822-.947a8.772 8.772 0 1 0 14.491 7.268l.491.491z" transform="translate(-61.349 -63.832)"/></g><path d="m0 0h20v20h-20z" fill="none"/></svg>