<svg xmlns="http://www.w3.org/2000/svg" viewBox="6939 1198 60 60"><defs><style>.a{fill:#69d5f7;}.b{fill:#8795a2;}.c{fill:#2970ff;}</style></defs><path class="a" d="M29.991,0A29.991,29.991,0,1,0,59.983,29.991,30,30,0,0,0,29.991,0Zm0,42.845A12.853,12.853,0,1,1,42.845,29.991,12.858,12.858,0,0,1,29.991,42.845Z" transform="translate(6939 1198)"/><path class="b" d="M110,3.568A31.04,31.04,0,0,1,117.027,1.7,30.114,30.114,0,0,0,110,3.568Z" transform="translate(6847.852 1196.591)"/><g transform="translate(6939 1198)"><path class="c" d="M243.785,112.688a13.049,13.049,0,0,1-.754,4.353l15.938,6.341a30.066,30.066,0,0,0-.925-23.582L242.5,107.066A12.946,12.946,0,0,1,243.785,112.688Z" transform="translate(-200.94 -82.696)"/><path class="c" d="M124.371,259.946a29.849,29.849,0,0,0,13.522-3.222L130.37,241.3a12.874,12.874,0,0,1-10.4.72L113.9,258.061A29.864,29.864,0,0,0,124.371,259.946Z" transform="translate(-94.38 -199.946)"/><path class="c" d="M17.155,127.189a12.758,12.758,0,0,1,.788-4.456L1.662,117.3A30.134,30.134,0,0,0,3.5,141.259l15.116-8.123A12.77,12.77,0,0,1,17.155,127.189Z" transform="translate(0 -97.197)"/><path class="c" d="M110.533,0A30.045,30.045,0,0,0,97.2,3.119l7.832,15.27a12.927,12.927,0,0,1,9.957-.446l5.758-16.161A30.036,30.036,0,0,0,110.533,0Z" transform="translate(-80.542 0)"/></g></svg>