<svg viewBox="0 0 400 400" xmlns="http://www.w3.org/2000/svg"><path d="m148.54 251.46-90 90a199.37 199.37 0 0 0 141.46 58.54v-127.23a72.55 72.55 0 0 1 -51.46-21.31z" fill="#8795a2"/><path d="m148.54 251.46a72.55 72.55 0 0 1 -21.31-51.46h-127.23a199.37 199.37 0 0 0 58.58 141.42z" fill="#18173f"/><path d="m148.54 148.54-90-90a199.37 199.37 0 0 0 -58.54 141.46h127.23a72.55 72.55 0 0 1 21.31-51.46z" fill="#8795a2"/><path d="m58.58 58.58 90 90a72.55 72.55 0 0 1 51.42-21.35v-127.23a199.37 199.37 0 0 0 -141.42 58.58z" fill="#18173f"/><path d="m251.46 148.54a72.55 72.55 0 0 1 21.31 51.46h127.23a199.37 199.37 0 0 0 -58.58-141.42z" fill="#18173f"/><path d="m251.46 148.54 90-90a199.37 199.37 0 0 0 -141.46-58.54v127.23a72.55 72.55 0 0 1 51.46 21.31z" fill="#8795a2"/><path d="m272.77 200a72.55 72.55 0 0 1 -21.32 51.46l90 90a199.37 199.37 0 0 0 58.55-141.46z" fill="#8795a2"/><path d="m251.46 251.46a72.55 72.55 0 0 1 -51.46 21.31v127.23a199.37 199.37 0 0 0 141.42-58.58z" fill="#18173f"/></svg>