<svg viewBox="0 0 20 20" xmlns="http://www.w3.org/2000/svg"><path d="m35.631 25.5a.864.864 0 0 1 -.031.281.864.864 0 0 0 .031-.281z" fill="none" transform="translate(-22.291 -15.344)"/><g fill="#8795a2"><path d="m48.2 15.7a7.674 7.674 0 0 1 .5 1.842 8.9 8.9 0 0 0 -.5-1.842z" transform="translate(-30.957 -8.604)"/><path d="m22.9 14.362a4.658 4.658 0 0 1 .656-.062 2.523 2.523 0 0 1 .5.031 2.686 2.686 0 0 0 -.5-.031 4.658 4.658 0 0 0 -.656.062z" transform="translate(-13.556 -7.641)"/><path d="m35.631 25.362v-.062a1.28 1.28 0 0 1 -.031.343.864.864 0 0 0 .031-.281z" transform="translate(-22.291 -15.206)"/><path d="m.7 30.242a7.674 7.674 0 0 1 -.5-1.842 8.9 8.9 0 0 0 .5 1.842z" transform="translate(2.057 -17.339)"/></g><path d="m31.1 34.632a7.753 7.753 0 0 0 4.027-4.4l-4.185-1.532a3.4 3.4 0 0 1 -1.842 1.936c.031 0 .062-.031.094-.031z" fill="#c4cbd2" transform="translate(-17.82 -17.545)"/><path d="m48.5 33.531v-.031z" fill="#8795a2" transform="translate(-31.163 -20.846)"/><path d="m2.3 31.1a7.858 7.858 0 0 0 4.4 4.027l.437-1.218 1.063-2.967a3.4 3.4 0 0 1 -1.935-1.842c0 .031.031.062.031.094z" fill="#c4cbd2" transform="translate(.613 -17.82)"/><path d="m24.555 35.5a4.658 4.658 0 0 1 -.656.062 2.523 2.523 0 0 1 -.5-.031 2.685 2.685 0 0 0 .5.031 4.658 4.658 0 0 0 .656-.062z" fill="#8795a2" transform="translate(-13.9 -22.222)"/><path d="m14.362 24.555a4.658 4.658 0 0 1 -.062-.655 2.524 2.524 0 0 1 .031-.5 2.686 2.686 0 0 0 -.031.5 4.658 4.658 0 0 0 .062.655z" fill="#8795a2" transform="translate(-7.641 -13.9)"/><path d="m34.632 5.527a7.907 7.907 0 0 0 -4.371-4.027l-.78 2.092-.781 2.123a3.4 3.4 0 0 1 1.936 1.842c0-.031-.031-.062-.031-.094z" fill="#c4cbd2" transform="translate(-17.545 1.163)"/><path d="m5.527 2.3a7.858 7.858 0 0 0 -4.027 4.4l1.311.5 2.872 1.063a3.4 3.4 0 0 1 1.842-1.936c-.031 0-.062.031-.094.031z" fill="#c4cbd2" transform="translate(1.163 .613)"/><path d="m15.7.7a8.9 8.9 0 0 1 1.842-.5 8.9 8.9 0 0 0 -1.842.5z" fill="#8795a2" transform="translate(-8.604 2.057)"/><g fill="#091440"><path d="m.031 19.9v.094a.281.281 0 0 0 .031.156v.031a7.674 7.674 0 0 0 .5 1.842.237.237 0 0 1 .062.125c0 .031.031.062.031.094a.109.109 0 0 0 .031.062c0 .031.031.031.031.062l4.028-1.876a.115.115 0 0 1 -.031-.094v-.031c0-.031-.031-.094-.031-.125v-.031c0-.031-.031-.062-.031-.094s0-.031-.031-.062c0-.031-.031-.062-.031-.094v-.059c0-.031-.031-.094-.031-.125v-.031a4.658 4.658 0 0 1 -.062-.656 2.685 2.685 0 0 1 .031-.5c0-.062.031-.094.031-.156v-.032c0-.031.031-.062.031-.125v-.062c0-.031.031-.062.031-.094s0-.031.031-.062v-.031a.109.109 0 0 1 .031-.062l-2.903-1.064-1.312-.5c-.062.219-.156.437-.187.624 0 .062-.031.094-.031.125v.062c0 .031-.031.062-.031.094a.115.115 0 0 1 -.031.094v.062a7.628 7.628 0 0 0 -.188 1.624 6.016 6.016 0 0 0 .031.749z" transform="translate(2.195 -9.085)"/><path d="m18 34.825-1.061 2.966-.439 1.217a.579.579 0 0 0 .219.062h.031c.062.031.094.031.156.062h.031c.062.031.125.031.187.062h.031c.031 0 .094.031.125.031h.062c.031 0 .062.031.094.031a.115.115 0 0 1 .094.031h.062a8.536 8.536 0 0 0 1.561.156 6.016 6.016 0 0 0 .749-.031h.156a.281.281 0 0 0 .156-.031h.031a7.674 7.674 0 0 0 1.842-.5c.062-.031.094-.031.156-.062.031 0 .062-.031.094-.031a.109.109 0 0 0 .062-.031c.031 0 .031-.031.062-.031l-1.871-4.026c-.031 0-.062.031-.094.031h-.031c-.062.031-.094.062-.156.062h-.031c-.031 0-.062.031-.094.031s-.031 0-.062.031c-.031 0-.062.031-.094.031h-.062c-.031 0-.094.031-.125.031h-.031a4.658 4.658 0 0 1 -.656.062 2.685 2.685 0 0 1 -.5-.031c-.062 0-.094-.031-.156-.031h-.031c-.031 0-.062-.031-.125-.031h-.062c-.031 0-.062-.031-.094-.031s-.031 0-.062-.031h-.031c-.031.031-.062 0-.094 0z" transform="translate(-9.154 -21.672)"/><path d="m19.682 2.56.78-2.092h-.062c-.062-.031-.094-.031-.156-.062-.031 0-.031 0-.062-.031-.031 0-.094-.031-.125-.031s-.062 0-.062-.031c-.063-.032-.125-.032-.188-.063h-.031c-.031 0-.094-.031-.125-.031h-.062c-.031 0-.062-.031-.094-.031a.115.115 0 0 1 -.095-.032h-.062a8.82 8.82 0 0 0 -1.56-.156 6.016 6.016 0 0 0 -.749.031h-.156a.188.188 0 0 0 -.125.031h-.031a7.674 7.674 0 0 0 -1.842.5h-.031a.237.237 0 0 1 -.125.062c-.031 0-.062.031-.094.031a.109.109 0 0 0 -.062.031c-.031 0-.031.031-.062.031l1.873 4.027a.115.115 0 0 1 .094-.031h.032c.031-.031.094-.031.125-.062h.031c.031 0 .062-.031.094-.031s.031 0 .062-.031c.031 0 .062-.031.094-.031h.062c.031 0 .094-.031.125-.031h.031a4.658 4.658 0 0 1 .656-.062 2.686 2.686 0 0 1 .5.031c.062 0 .094.031.156.031h.031c.062 0 .094.031.125.031h.062c.031 0 .062.031.094.031s.031 0 .062.031c.031 0 .031 0 .062.031a.109.109 0 0 1 .062.031z" transform="translate(-7.778 2.195)"/><path d="m39.077 20.325c.031-.031.031-.031.031-.062 0-.062.031-.094.031-.156 0-.031 0-.031.031-.062 0-.031.031-.094.031-.125a.109.109 0 0 1 .031-.062 1.3 1.3 0 0 1 .062-.187v-.031c0-.031.031-.094.031-.125v-.062c0-.031.031-.062.031-.094a.115.115 0 0 1 .031-.094v-.065a8.536 8.536 0 0 0 .156-1.561 6.016 6.016 0 0 0 -.031-.749v-.156a.281.281 0 0 0 -.031-.156v-.031a7.674 7.674 0 0 0 -.5-1.842v-.031c-.031-.062-.031-.094-.062-.156 0-.031-.031-.062-.031-.094a.109.109 0 0 0 -.031-.062c0-.031-.031-.031-.031-.062l-4.026 1.873a.115.115 0 0 1 .031.094v.033c.031.031.031.094.062.125v.031c0 .031.031.062.031.094s0 .031.031.062c0 .031.031.062.031.094v.062c0 .031.031.094.031.125v.031a4.657 4.657 0 0 1 .062.656v.156a.864.864 0 0 1 -.031.281v.062a.281.281 0 0 1 -.031.156v.031c0 .031-.031.094-.031.125v.031c0 .031-.031.062-.031.094s0 .031-.031.062c0 .031-.031.062-.031.094s0 .031-.031.062l4.215 1.592z" transform="translate(-21.741 -7.641)"/></g><path d="m0 0h20v20h-20z" fill="none"/></svg>