<svg xmlns="http://www.w3.org/2000/svg" viewBox="0 0 20 20"><defs><style>.a{fill:#3c5872;}.b{fill:#c4cbd2;}.c{fill:none;}</style></defs><g transform="translate(-1034 -195)"><g transform="translate(1034.551 196.228)"><g transform="translate(3.133 5.659)"><rect class="a" width="10.025" height="4.982"/><g transform="translate(1.253 1.253)"><rect class="b" width="10.025" height="4.982"/></g><g transform="translate(5.008 2.471)"><circle class="a" cx="1.273" cy="1.273" r="1.273"/></g><g transform="translate(8.772 3.113)"><circle class="a" cx="0.632" cy="0.632" r="0.632"/></g><g transform="translate(2.496 3.113)"><circle class="a" cx="0.632" cy="0.632" r="0.632"/></g></g><path class="b" d="M348.754,81.658a8.917,8.917,0,0,0-.837-1.058l-.917.852a7.4,7.4,0,0,1,.717.907Z" transform="translate(-332.709 -77.788)"/><path class="b" d="M171.169,25.753h0a7.485,7.485,0,0,1,3.709.977l.622-1.088a8.779,8.779,0,0,0-4.331-1.143h0a8.749,8.749,0,0,0-3.469.712l.5,1.153A7.442,7.442,0,0,1,171.169,25.753Z" transform="translate(-162.397 -24.5)"/><path class="b" d="M80.8,74.072,78.8,72.067l-2.005,2.005.887.887.486-.486A7.52,7.52,0,1,1,65.75,68.147l-.822-.947a8.772,8.772,0,1,0,14.491,7.268l.491.491Z" transform="translate(-61.9 -65.06)"/></g><rect class="c" width="20" height="20" transform="translate(1034 195)"/></g></svg>