<svg xmlns="http://www.w3.org/2000/svg" viewBox="0 0 40 40"><defs><style>.a{fill:none;}.b{fill:#091440;}.c{fill:#c4cbd2;}</style></defs><g transform="translate(1393 2143)"><path class="a" d="M166.027,242l-.427,1.307Z" transform="translate(-1543.88 -2363.489)"/><path class="a" d="M136.8,287.28l7.813-5.68-7.813,5.671Z" transform="translate(-1517.64 -2399.569)"/><path class="a" d="M286.46,264.584,283.9,256.7l2.551,7.884Z" transform="translate(-1651.664 -2376.882)"/><g transform="translate(-1393 -2143)"><path class="a" d="M279.1,183.689,286.913,178Z" transform="translate(-254.291 -162.178)"/><path class="b" d="M42.478,25A17.778,17.778,0,1,0,60.256,42.778,17.773,17.773,0,0,0,42.478,25Zm4.836,19.289L47.74,45.6,50.3,53.48h0v.009l-7.813-5.68-7.813,5.68V53.48h0l2.56-7.884.427-1.307L29.847,38.6h9.662L42.5,29.409,45.464,38.6h9.662Z" transform="translate(-22.504 -22.778)"/><g transform="translate(7.333 6.631)"><path class="c" d="M95.14,74.6l-2.978,9.191H82.5l7.813,5.689h0l-.427,1.307-2.56,7.884h0L95.14,93l7.822,5.68-.009-.009L100.4,90.787l-.427-1.307h0l7.813-5.689H98.127Z" transform="translate(-82.5 -74.6)"/></g><rect class="a" width="40" height="40"/></g></g></svg>