<svg viewBox="0 0 40 40" xmlns="http://www.w3.org/2000/svg"><g fill="none"><path d="m166.027 242-.427 1.307z" transform="translate(-150.88 -220.489)"/><path d="m136.8 287.28 7.813-5.68-7.813 5.671z" transform="translate(-124.64 -256.569)"/><path d="m286.46 264.584-2.56-7.884 2.551 7.884z" transform="translate(-258.664 -233.882)"/></g><path d="m279.1 183.689 7.813-5.689z" fill="none" transform="translate(-254.291 -162.178)"/><path d="m42.478 25a17.778 17.778 0 1 0 17.778 17.778 17.773 17.773 0 0 0 -17.778-17.778zm4.836 19.289.426 1.311 2.56 7.88v.009l-7.813-5.68-7.813 5.68v-.009l2.56-7.884.427-1.307-7.814-5.689h9.662l2.991-9.191 2.964 9.191h9.662z" fill="#091440" transform="translate(-22.504 -22.778)"/><path d="m95.14 74.6-2.978 9.191h-9.662l7.813 5.689-.427 1.307-2.56 7.884 7.814-5.671 7.822 5.68-.009-.009-2.553-7.884-.427-1.307 7.813-5.689h-9.659z" fill="#c4cbd2" transform="translate(-75.167 -67.969)"/><path d="m0 0h40v40h-40z" fill="none"/></svg>