<svg viewBox="16252 1084 80 80" xmlns="http://www.w3.org/2000/svg"><path d="m0 0h80v5h-80z" fill="#1b3751" transform="matrix(.70710678 -.70710678 .70710678 .70710678 16261.942 1150.479)"/><path d="m210 39.9v20.8l15.6-15.6a31.991 31.991 0 0 0 -15.6-5.2z" fill="#8997a5" transform="translate(16084 1052.08)"/><path d="m100.56 192.2-22.36 22.36a31.144 31.144 0 0 0 3.54 3.54l21.18-21.18" fill="#132f4b" transform="translate(16189.44 930.24)"/><path d="m132.78 229.9-20.78 20.78a32.05 32.05 0 0 0 38.8-2.76z" fill="#c4cbd2" transform="translate(16162.4 900.08)"/><path d="m69.84 64.7v-24.8a32.05 32.05 0 0 0 -24.78 49.58z" fill="#c4cbd2" transform="translate(16220.16 1052.08)"/><path d="m250.86 111.9-20.76 20.78 18.02 18.02a32.005 32.005 0 0 0 8.02-21.2v-.02a32.029 32.029 0 0 0 -5.28-17.58z" fill="#8997a5" transform="translate(16067.92 994.48)"/><path d="m16252 1084h80v80h-80z" fill="none"/></svg>