<svg xmlns="http://www.w3.org/2000/svg" viewBox="16252 1084 80 80"><defs><style>.a{fill:#1b3751;}.b{fill:#8997a5;}.c{fill:#132f4b;}.d{fill:#c4cbd2;}.e{fill:none;}</style></defs><g transform="translate(15565 850)"><g transform="translate(694.96 241.98)"><rect class="a" width="80" height="5" transform="translate(1.982 58.499) rotate(-45)"/><path class="b" d="M210,39.9V60.7l15.6-15.6A31.991,31.991,0,0,0,210,39.9Z" transform="translate(-175.96 -39.9)"/><path class="c" d="M100.56,192.2,78.2,214.56a31.144,31.144,0,0,0,3.54,3.54l21.18-21.18" transform="translate(-70.52 -161.74)"/><path class="d" d="M132.78,229.9,112,250.68a32.05,32.05,0,0,0,38.8-2.76Z" transform="translate(-97.56 -191.9)"/><path class="d" d="M69.84,64.7V39.9A32.05,32.05,0,0,0,45.06,89.48Z" transform="translate(-39.8 -39.9)"/><path class="b" d="M250.86,111.9,230.1,132.68l18.02,18.02a32.005,32.005,0,0,0,8.02-21.2v-.02A32.029,32.029,0,0,0,250.86,111.9Z" transform="translate(-192.04 -97.5)"/></g><rect class="e" width="80" height="80" transform="translate(687 234)"/></g></svg>