<svg xmlns="http://www.w3.org/2000/svg" viewBox="0 0 40 40"><defs><style>.a{fill:none;}.b{fill:#091440;}.c{fill:#fff;}.d{fill:#c4cbd2;}</style></defs><g transform="translate(1733 1758)"><g transform="translate(-2081 -2532)"><g transform="translate(-72 17)"><rect class="a" width="40" height="40" transform="translate(420 757)"/></g><g transform="translate(2016.322 1978.322)"><g transform="translate(-1665.322 -1201.322)"><circle class="b" cx="17" cy="17" r="17" transform="translate(0 0)"/><g transform="translate(6.073 9.19)"><path class="c" d="M114.539,144.874,111.5,160.179a1.125,1.125,0,0,1-1.592.554l-7.006-5.369-2.548-1.229-4.287-1.446s-.656-.236-.72-.745.745-.783.745-.783l17.051-6.688C113.137,144.472,114.539,143.855,114.539,144.874Z" transform="translate(-95.344 -144.287)"/><path class="d" d="M184.966,193.828c.019-.363-.573,0-.573,0L174.1,200.369s1.293,4.248,1.548,5.051.459.828.459.828a.485.485,0,0,0,.452-.064l2.771-2.529-2.675-2.089.013-.1s7.771-6.987,8.089-7.28S184.966,193.828,184.966,193.828Z" transform="translate(-169.084 -190.521)"/></g></g></g></g></g></svg>