<svg viewBox="0 0 40 40" xmlns="http://www.w3.org/2000/svg"><path d="m0 0h40v40h-40z" fill="none"/><circle cx="20" cy="20" fill="#091440" r="17"/><path d="m114.539 144.874-3.039 15.305a1.125 1.125 0 0 1 -1.592.554l-7.006-5.369-2.548-1.229-4.287-1.446s-.656-.236-.72-.745.745-.783.745-.783l17.051-6.688c-.006-.001 1.396-.618 1.396.401z" fill="#fff" transform="translate(-86.271 -132.097)"/><path d="m184.966 193.828c.019-.363-.573 0-.573 0l-10.293 6.541s1.293 4.248 1.548 5.051.459.828.459.828a.485.485 0 0 0 .452-.064l2.771-2.529-2.675-2.089.013-.1s7.771-6.987 8.089-7.28.209-.358.209-.358z" fill="#c4cbd2" transform="translate(-160.011 -178.331)"/></svg>