<svg xmlns="http://www.w3.org/2000/svg" viewBox="0 0 107.116 20"><defs><style>.a{fill:#091440;}</style></defs><g transform="translate(1102 8303)"><g transform="translate(-1102 -8303)"><path class="a" d="M4.961,4.961,0,0H5.345l7.929,7.929H7.929a3.972,3.972,0,0,0,0,7.944H9.908l3.957,3.957H7.929A7.944,7.944,0,0,1,0,11.887,6.847,6.847,0,0,1,4.961,4.961Z"/><g transform="translate(9.908)"><path class="a" d="M76.019,14.87l4.961,4.961H75.635l-7.944-7.944h5.345a3.968,3.968,0,0,0,2.806-6.778,3.931,3.931,0,0,0-2.806-1.167H71.057L67.1,0h5.951a7.918,7.918,0,0,1,7.915,7.929A6.868,6.868,0,0,1,76.019,14.87Z" transform="translate(-67.1)"/></g><g transform="translate(30.375 7.536)"><path class="a" d="M155.992,27.266H152.3V24.8h10.071v2.466h-3.706v9.687h-2.673Z" transform="translate(-152.3 -24.666)"/><path class="a" d="M228.8,24.8h9.17v2.377h-6.512v2.466h5.729v2.377h-5.729v2.555h6.6v2.377h-9.244V24.8Z" transform="translate(-217.504 -24.666)"/><path class="a" d="M298.3,34.407l1.58-1.875a5.55,5.55,0,0,0,3.633,1.477c1.093,0,1.742-.443,1.742-1.137v-.03c0-.664-.413-1.034-2.451-1.55-2.451-.62-4.031-1.3-4.031-3.706v-.03c0-2.2,1.772-3.662,4.253-3.662a6.931,6.931,0,0,1,4.5,1.55l-1.388,1.979a5.634,5.634,0,0,0-3.16-1.2c-1.034,0-1.565.473-1.565,1.063V27.3c0,.8.517,1.063,2.614,1.595,2.466.635,3.854,1.536,3.854,3.647v.03c0,2.422-1.846,3.78-4.459,3.78A7.749,7.749,0,0,1,298.3,34.407Z" transform="translate(-276.741 -23.892)"/><path class="a" d="M372.392,27.266H368.7V24.8h10.071v2.466h-3.692v9.687h-2.673V27.266Z" transform="translate(-336.746 -24.666)"/><path class="a" d="M445.1,24.8h2.466l5.7,7.486V24.8h2.643V36.953h-2.274l-5.892-7.723v7.723H445.1Z" transform="translate(-401.864 -24.666)"/><path class="a" d="M534.7,24.8h9.17v2.377h-6.512v2.466h5.729v2.377h-5.729v2.555h6.6v2.377h-9.244V24.8Z" transform="translate(-478.234 -24.666)"/><path class="a" d="M607.492,27.266H603.8V24.8h10.071v2.466h-3.692v9.687h-2.673V27.266Z" transform="translate(-537.13 -24.666)"/></g></g></g></svg>