<svg viewBox="0 0 107.116 20" xmlns="http://www.w3.org/2000/svg"><g fill="#091440"><path d="m4.961 4.961-4.961-4.961h5.345l7.929 7.929h-5.345a3.972 3.972 0 0 0 0 7.944h1.979l3.957 3.957h-5.936a7.944 7.944 0 0 1 -7.929-7.943 6.847 6.847 0 0 1 4.961-6.926z"/><path d="m76.019 14.87 4.961 4.961h-5.345l-7.944-7.944h5.345a3.968 3.968 0 0 0 2.806-6.778 3.931 3.931 0 0 0 -2.806-1.167h-1.979l-3.957-3.942h5.951a7.918 7.918 0 0 1 7.915 7.929 6.868 6.868 0 0 1 -4.947 6.941z" transform="translate(-57.192)"/><path d="m155.992 27.266h-3.692v-2.466h10.071v2.466h-3.706v9.687h-2.673z" transform="translate(-121.925 -17.13)"/><path d="m228.8 24.8h9.17v2.377h-6.512v2.466h5.729v2.377h-5.729v2.555h6.6v2.377h-9.244v-12.152z" transform="translate(-187.129 -17.13)"/><path d="m298.3 34.407 1.58-1.875a5.55 5.55 0 0 0 3.633 1.477c1.093 0 1.742-.443 1.742-1.137v-.03c0-.664-.413-1.034-2.451-1.55-2.451-.62-4.031-1.3-4.031-3.706v-.03c0-2.2 1.772-3.662 4.253-3.662a6.931 6.931 0 0 1 4.5 1.55l-1.388 1.979a5.634 5.634 0 0 0 -3.16-1.2c-1.034 0-1.565.473-1.565 1.063v.014c0 .8.517 1.063 2.614 1.595 2.466.635 3.854 1.536 3.854 3.647v.03c0 2.422-1.846 3.78-4.459 3.78a7.749 7.749 0 0 1 -5.122-1.945z" transform="translate(-246.366 -16.356)"/><path d="m372.392 27.266h-3.692v-2.466h10.071v2.466h-3.692v9.687h-2.673v-9.687z" transform="translate(-306.371 -17.13)"/><path d="m445.1 24.8h2.466l5.7 7.486v-7.486h2.643v12.153h-2.274l-5.892-7.723v7.723h-2.643z" transform="translate(-371.489 -17.13)"/><path d="m534.7 24.8h9.17v2.377h-6.512v2.466h5.729v2.377h-5.729v2.555h6.6v2.377h-9.244v-12.152z" transform="translate(-447.859 -17.13)"/><path d="m607.492 27.266h-3.692v-2.466h10.071v2.466h-3.692v9.687h-2.673v-9.687z" transform="translate(-506.755 -17.13)"/></g></svg>