<svg xmlns="http://www.w3.org/2000/svg" viewBox="2816 870 110.555 20"><defs><style>.a{fill:#152337;}</style></defs><g transform="translate(2794 850)"><g transform="translate(22 20)"><g transform="translate(11.215)"><path class="a" d="M69.7,12.245h6.307a4.248,4.248,0,0,0,0-8.5H74L69.7,0h6.307a7.986,7.986,0,0,1,3.009,15.382l4.972,4.328h-5.7Z" transform="translate(-69.7)"/></g><path class="a" d="M14.3,7.466H7.981a4.248,4.248,0,1,0,0,8.5H9.992l4.3,3.733H7.981A7.986,7.986,0,0,1,4.972,4.312L0,0H5.7Z"/></g><g transform="translate(53.408 27.144)"><path class="a" d="M199.013,47.842H195.2V45.3h10.394v2.542h-3.829v9.992h-2.751Z" transform="translate(-195.2 -45.155)"/><path class="a" d="M267.6,45.3h9.461v2.446h-6.71v2.542h5.905v2.446h-5.905v2.655h6.806v2.446h-9.541V45.3Z" transform="translate(-255.951 -45.155)"/><path class="a" d="M333.4,55.261l1.625-1.947a5.761,5.761,0,0,0,3.749,1.529c1.126,0,1.8-.451,1.8-1.175v-.032c0-.692-.434-1.062-2.526-1.593-2.526-.644-4.151-1.335-4.151-3.829v-.032c0-2.269,1.834-3.781,4.393-3.781a7.263,7.263,0,0,1,4.65,1.593l-1.432,2.043a5.876,5.876,0,0,0-3.266-1.239c-1.062,0-1.609.483-1.609,1.094v.032c0,.821.531,1.094,2.7,1.641,2.542.66,3.974,1.577,3.974,3.765v.032c0,2.494-1.9,3.894-4.6,3.894A8,8,0,0,1,333.4,55.261Z" transform="translate(-311.163 -44.4)"/><path class="a" d="M403.813,47.842H400V45.3h10.394v2.542h-3.813v9.992h-2.751V47.842Z" transform="translate(-367.047 -45.155)"/><path class="a" d="M472.4,45.3h2.542l5.873,7.723V45.3h2.719V57.834h-2.349l-6.066-7.965v7.965H472.4Z" transform="translate(-427.798 -45.155)"/><path class="a" d="M557.2,45.3h9.461v2.446h-6.71v2.542h5.905v2.446h-5.905v2.655h6.806v2.446h-9.541V45.3Z" transform="translate(-498.954 -45.155)"/><path class="a" d="M626.313,47.842H622.5V45.3h10.394v2.542h-3.813v9.992h-2.751V47.842Z" transform="translate(-553.747 -45.155)"/></g></g></svg>