<svg viewBox="0 0 40 40" xmlns="http://www.w3.org/2000/svg"><path d="m21.89 32.43 18.11-4.43-1.39-5.7a6.67 6.67 0 0 1 -3.18-13l-1.43-5.65-12.13 3z" fill="#fd704a"/><path d="m18.06 7.56-18.06 4.44 1.39 5.69a6.67 6.67 0 0 1 3.18 13l1.43 5.64 12.09-3v-25.77z" fill="#fd704a"/><g fill="#132f4b"><path d="m18.06 12.73a7.5 7.5 0 0 0 0 14.51z"/><path d="m21.9 12.73v14.51a7.5 7.5 0 0 0 0-14.51z"/><path d="m19.34 32.54h1.27v5.01h-1.27z"/><path d="m19.34 25h1.27v5.01h-1.27z"/><path d="m19.34 17.48h1.27v5.01h-1.27z"/><path d="m19.34 9.96h1.27v5.01h-1.27z"/><path d="m19.34 2.45h1.27v5.01h-1.27z"/></g><path d="m0 0h40v40h-40z" fill="none"/></svg>