<svg id="icon" xmlns="http://www.w3.org/2000/svg" viewBox="0 0 450 450"><defs><style>.cls-1{fill:#70cbff;}.cls-2{fill:#2970ff;}.cls-3{fill:none;}</style></defs><title>ticketUnmined</title><path class="cls-1" d="M158.33,399.33a66.6,66.6,0,1,1,133.2,0v.45H350V50.22H291.53a66.6,66.6,0,1,1-133.2,0H100V399.6h58.47C158.33,399.6,158.33,399.45,158.33,399.33Z"/><path class="cls-2" d="M239.87,298.51a75.27,75.27,0,0,1-14.5,1.5l-.15-25a51,51,0,0,0,9.69-1h0a51.24,51.24,0,0,0,9.41-2.88L254,294.2a75.82,75.82,0,0,1-14.07,4.31Zm-43.19-4.06a75,75,0,0,1-24.37-16.06l17.55-17.81a50.09,50.09,0,0,0,16.28,10.73Zm81.52-16.58-17.74-17.61A50.21,50.21,0,0,0,271.25,244l23.1,9.54A74.81,74.81,0,0,1,278.2,277.87Zm21.81-53L275,225a50.74,50.74,0,0,0-3.82-19.12l23.11-9.55A75.53,75.53,0,0,1,300,224.89Zm-39.62-35.22a50.25,50.25,0,0,0-16.2-10.85l9.61-23.08A75.05,75.05,0,0,1,278.06,172Z"/><path class="cls-2" d="M210.11,151.49a75.09,75.09,0,0,0-58.62,88.4,75.89,75.89,0,0,0,4.41,14.3l23-9.71A50.07,50.07,0,0,1,215.07,176a50.73,50.73,0,0,1,10-1l0-25A75.52,75.52,0,0,0,210.11,151.49Z"/><rect class="cls-3" width="450" height="450"/></svg>