<svg id="icon" xmlns="http://www.w3.org/2000/svg" viewBox="0 0 450 450"><defs><style>.cls-1{fill:#fd704a;}.cls-2{fill:#132f4b;}.cls-3{fill:none;}</style></defs><title>ticketRevoked</title><g id="Layer_2" data-name="Layer 2"><g id="Symbol_7_1" data-name="Symbol 7 1"><g id="Group_369" data-name="Group 369"><g id="_Group_2" data-name=" Group 2"><path class="cls-1" d="M255.8,346.2l163-28.74-10.13-57.4a66.42,66.42,0,0,1-23.06-130.82l-10.12-57.4-119.28,21Z"/><path class="cls-1" d="M194.16,103.81,31.22,132.54l10.13,57.4A66.42,66.42,0,0,1,64.41,320.76l10.12,57.4,119.24-21Z"/><path class="cls-2" d="M194.08,157.15a74.55,74.55,0,0,0-.21,135.57Z"/><path class="cls-2" d="M298.41,212.06a74.44,74.44,0,0,0-42.32-54.8l-.21,135.61A74.58,74.58,0,0,0,298.41,212.06Z"/></g></g></g></g><rect class="cls-2" x="187.51" y="377.55" width="74.97" height="19.93" transform="translate(-162.85 611.94) rotate(-89.91)"/><rect class="cls-2" x="187.51" y="265.05" width="74.97" height="19.93" transform="translate(-50.35 499.6) rotate(-89.91)"/><rect class="cls-2" x="187.51" y="152.54" width="74.97" height="19.93" transform="translate(62.16 387.26) rotate(-89.91)"/><rect class="cls-2" x="187.51" y="40.03" width="74.97" height="19.93" transform="translate(174.67 274.92) rotate(-89.91)"/><rect class="cls-3" width="450" height="450"/></svg>