<svg xmlns="http://www.w3.org/2000/svg" viewBox="0 0 40 40"><defs><style>.cls-1{fill:none;}.cls-2{fill:#69d5f7;}.cls-3{fill:#2971ff;}</style></defs><title>ticket-immature</title><g id="Layer_2" data-name="Layer 2"><g id="Layer_1-2" data-name="Layer 1"><g id="Symbol_10_1" data-name="Symbol 10 1"><g id="_Group_" data-name="&lt;Group&gt;"><rect id="_Path_" data-name="&lt;Path&gt;" class="cls-1" width="40" height="40"/></g><g id="_Group_2" data-name="&lt;Group&gt;"><path id="_Path_2" data-name="&lt;Path&gt;" class="cls-2" d="M12.37,39.93a7.63,7.63,0,1,1,15.27,0h0v0h6.7V0H27.61A7.63,7.63,0,0,1,20,7.63h0A7.65,7.65,0,0,1,12.37,0H5.71V40h6.7S12.37,40,12.37,39.93Z"/></g><circle id="Ellipse_12" data-name="Ellipse 12" class="cls-3" cx="18.31" cy="13.63" r="2"/><circle id="Ellipse_13" data-name="Ellipse 13" class="cls-3" cx="18.97" cy="19.83" r="3.23"/><circle id="Ellipse_14" data-name="Ellipse 14" class="cls-3" cx="24.87" cy="21.77" r="2.1"/><circle id="Ellipse_15" data-name="Ellipse 15" class="cls-3" cx="25.57" cy="25.23" r="0.9"/><circle id="Ellipse_16" data-name="Ellipse 16" class="cls-3" cx="14.44" cy="16.4" r="0.9"/><circle id="Ellipse_17" data-name="Ellipse 17" class="cls-3" cx="21.54" cy="25.37" r="1.5"/><circle id="Ellipse_18" data-name="Ellipse 18" class="cls-3" cx="14.67" cy="23.37" r="1.1"/><circle id="Ellipse_19" data-name="Ellipse 19" class="cls-3" cx="23.27" cy="16.7" r="1.1"/><circle id="Ellipse_20" data-name="Ellipse 20" class="cls-3" cx="17.37" cy="24.73" r="1"/><circle id="Ellipse_21" data-name="Ellipse 21" class="cls-3" cx="13.77" cy="20.4" r="0.7"/><circle id="Ellipse_22" data-name="Ellipse 22" class="cls-3" cx="18.71" cy="27.7" r="0.7"/><circle id="Ellipse_23" data-name="Ellipse 23" class="cls-3" cx="22.54" cy="13.03" r="0.7"/></g></g></g></svg>