<svg enable-background="new 0 0 24 24" height="24" viewBox="0 0 24 24" width="24" xmlns="http://www.w3.org/2000/svg"><g fill="#69d5f7"><path d="m17.059 22.877c2.863-1.336 5.113-3.771 6.211-6.762l-6.441-2.348c-.488 1.334-1.516 2.408-2.814 2.965.053-.023.104-.047.154-.07z"/><path d="m1.125 17.061c1.336 2.863 3.77 5.111 6.756 6.207l.689-1.875 1.646-4.564.006.02.008-.02c-1.332-.49-2.406-1.516-2.961-2.814.023.053.045.104.068.156z"/><path d="m22.871 6.932c-1.334-2.854-3.762-5.098-6.738-6.193l-1.199 3.213-1.15 3.227-.01-.004c1.33.49 2.402 1.516 2.957 2.813-.023-.053-.045-.105-.07-.158z"/><path d="m6.934 1.125c-2.86 1.338-5.108 3.771-6.204 6.758l2.004.74 4.434 1.613c.49-1.334 1.518-2.412 2.82-2.969-.054.024-.107.047-.158.071z"/></g><g fill="#fff"><path d="m.066 13.25c.006.047.012.094.018.141.008.072.018.146.025.219.004.012.004.023.006.035.135.963.385 1.91.746 2.813.002.008.006.016.01.023.031.08.066.16.098.24.021.045.041.09.063.137.016.039.035.078.051.117.016.029.027.059.039.088l.004-.002 6.213-2.891c-.023-.053-.045-.104-.068-.156-.008-.012-.012-.025-.016-.037-.027-.064-.051-.129-.078-.193-.008-.02-.012-.039-.02-.059-.018-.049-.035-.098-.051-.146-.008-.031-.02-.063-.029-.096-.014-.049-.029-.1-.043-.15-.006-.025-.014-.051-.02-.076-.018-.064-.031-.129-.045-.193-.004-.018-.008-.033-.01-.049-.068-.337-.104-.677-.104-1.015 0-.262.023-.523.063-.781v-.002c.012-.076.023-.15.039-.227.004-.014.008-.027.01-.043.014-.059.027-.117.041-.176.006-.025.012-.051.02-.076.01-.045.023-.088.037-.135.01-.033.02-.068.029-.104.008-.018.014-.037.02-.057.016-.047.031-.074.047-.117l-4.427-1.636-2.004-.751-.003.007c-.119.324-.223.648-.313.98-.002.01-.006.02-.008.031-.019.067-.035.132-.051.2-.007.03-.015.057-.021.088-.014.051-.025.106-.037.156-.012.053-.024.104-.035.157-.008.033-.014.066-.02.1-.16.782-.242 1.581-.242 2.386 0 .389.02.779.059 1.168.004.027.005.055.007.082z"/><path d="m10.217 16.828-1.647 4.565-.689 1.875-.002.002.016.006c.109.039.217.076.328.111.016.006.035.012.051.018.082.027.16.051.242.076.023.006.045.014.068.021.098.027.197.057.295.084.012.002.021.006.031.008.068.018.135.035.203.053.027.006.057.014.086.02.053.014.105.027.16.039.051.012.102.021.152.031.033.008.068.016.102.023.785.16 1.582.24 2.387.24.387 0 .777-.021 1.166-.059.029-.004.057-.006.084-.008.047-.006.094-.012.139-.018.072-.008.146-.016.221-.027.012 0 .021-.002.033-.004.963-.135 1.912-.385 2.813-.746.006-.002.014-.004.02-.008.082-.031.162-.066.244-.102.045-.02.09-.039.137-.059.039-.018.078-.035.117-.053.029-.014.057-.025.086-.039v-.002l-2.891-6.215c-.051.023-.102.047-.154.07-.014.004-.025.01-.037.016-.064.025-.127.051-.191.074-.02.008-.043.016-.063.021-.047.018-.094.033-.145.049-.031.012-.063.021-.096.031-.049.016-.1.029-.15.043-.027.006-.051.014-.078.02-.063.016-.127.031-.191.045-.016.004-.033.008-.051.01-.334.068-.674.104-1.012.104-.262 0-.523-.021-.781-.061l-.004-.002c-.074-.012-.148-.025-.223-.039-.016-.004-.031-.006-.047-.01-.059-.012-.115-.025-.174-.041-.025-.006-.051-.012-.076-.018-.045-.012-.09-.025-.133-.039-.035-.01-.07-.02-.105-.031-.023-.006-.047.004-.07-.004-.047-.018-.098-.033-.145-.033h-.016l-.004-.02z"/><path d="m14.934 3.951 1.199-3.213v-.002l-.043-.015c-.008-.002-.016-.004-.023-.008-.01-.004-.023-.008-.033-.012-.08-.029-.162-.057-.24-.084-.035-.01-.07-.021-.107-.033-.061-.02-.123-.039-.184-.059-.037-.012-.072-.021-.107-.033-.094-.027-.188-.055-.285-.08-.008-.002-.02-.006-.029-.008-.064-.018-.131-.035-.197-.051-.029-.008-.059-.016-.09-.021-.051-.014-.102-.025-.154-.037s-.104-.023-.156-.033c-.033-.008-.064-.014-.098-.021-.785-.161-1.582-.241-2.387-.241-.391 0-.781.021-1.172.061-.025.002-.051.004-.076.006-.049.006-.1.012-.146.018-.07.008-.143.018-.213.027-.014 0-.029.004-.043.006-.959.134-1.909.384-2.807.743-.012.006-.023.01-.035.016-.076.029-.153.062-.229.094-.049.019-.095.041-.142.062-.037.016-.074.033-.11.051-.031.014-.062.025-.093.041l2.896 6.213c.051-.023.104-.047.158-.07.012-.004.022-.008.035-.014.063-.027.129-.053.195-.078.02-.006.039-.014.055-.02.051-.018.1-.033.15-.049.029-.012.061-.021.092-.029.051-.016.102-.031.154-.045.025-.006.049-.014.072-.02.066-.016.131-.031.195-.045.016-.004.031-.006.047-.01.337-.067.677-.103 1.017-.103.262 0 .523.021.781.063h.002c.076.012.15.025.227.041.014.002.029.004.041.008.061.012.121.027.18.041.023.006.049.012.074.018.045.012.09.025.137.039.033.01.066.02.102.029.033.012.066.023.102.035.039.014.078.025.113.039l.016.006.01.004z"/><path d="m23.27 16.115.004-.012c.004-.008.012-.018.016-.025.006-.014.023-.029.023-.045 0-.076.066-.154.066-.23v-.002c0-.031.023-.064.033-.096 0-.004-.01-.008-.01-.012.02-.061.047-.121.047-.182 0-.037.033-.084.043-.084h.008c.027-.137.059-.205.082-.273h.002c0-.07.002-.02.002-.02.002-.01.004-.027.008-.037.018-.068.035-.139.051-.207.008-.029.016-.059.021-.086.014-.053.025-.109.037-.164.012-.049.023-.1.033-.148.008-.035.016-.07.021-.107.163-.783.243-1.58.243-2.385 0-.387-.02-.775-.059-1.164-.004-.029-.006-.059-.008-.088-.006-.047-.012-.092-.018-.137-.01-.074-.018-.148-.025-.223-.004-.012-.006-.023-.008-.035-.133-.963-.385-1.91-.746-2.814-.004-.012-.01-.023-.016-.035-.029-.076-.061-.152-.094-.227-.02-.047-.039-.094-.061-.141-.018-.037-.033-.074-.051-.111-.014-.031-.027-.063-.041-.094h-.004l-6.209 2.897c.025.053.047.105.07.158.006.012.012.025.016.037.027.064.055.129.078.195.006.018.014.039.02.059.018.047.033.096.051.145.008.033.02.064.029.098.014.049.029.1.041.148.008.025.016.051.021.076.016.064.031.129.045.193.004.016.008.033.01.049.068.336.1.676.1 1.014v.156c-.002.027-.004.055-.004.084-.002.145-.012.289-.039.434 0 .004 0 .006-.002.008-.006.033-.014.066-.021.1v.002c0 .076-.023.152-.039.229 0 .014 0 .025-.004.039-.014.061-.027.123-.043.186-.004.021-.008.043-.016.064-.012.051-.027.102-.041.15-.01.029-.016.059-.025.09-.012.039-.027.08-.041.119-.01.033-.021.064-.031.096l-.006.012z"/></g></svg>