<svg viewBox="0 0 40 40.02" xmlns="http://www.w3.org/2000/svg"><path d="m12.38 40a7.61 7.61 0 0 1 15.23 0h6.69v-40h-6.69a7.62 7.62 0 0 1 -7.61 7.61 7.62 7.62 0 0 1 -7.62-7.61h-6.7v40z" fill="#c4cbd2"/><path d="m13.17 22.91a1.26 1.26 0 0 0 1.26-1.25v-2.39l5.38 5.38a1.26 1.26 0 0 0 1.79 0l6.09-6.09a1.26 1.26 0 0 0 -1.78-1.78l-5.21 5.22-4.44-4.43h2.38a1.26 1.26 0 0 0 0-2.51h-5.32a1.16 1.16 0 0 0 -1 .36 1.26 1.26 0 0 0 -.38.9v5.38a1.22 1.22 0 0 0 1.21 1.23z" fill="#8997a5"/><path d="m0 .02h40v40h-40z" fill="none"/></svg>