<svg xmlns="http://www.w3.org/2000/svg" viewBox="0 0 20 19.996"><defs><style>.a{fill:none;}.b{fill:#ffc84e;}.c{fill:#ffe4a7;}</style></defs><g transform="translate(-367.794 -521.754)"><g transform="translate(367.794 521.754)"><rect class="a" width="19.996" height="19.996"/><g transform="translate(0 2.497)"><rect class="b" width="16.25" height="8.749" transform="translate(0 6.252)"/><rect class="c" width="16.254" height="8.749" transform="translate(3.746)"/><g transform="translate(8.789 1.289)"><rect class="b" width="1.249" height="7.313" transform="matrix(-0.706, -0.709, 0.709, -0.706, 0.881, 6.045)"/><path class="b" d="M203.844,88.057a.625.625,0,1,1-.883,0,.617.617,0,0,1,.883,0m.439-.439a1.249,1.249,0,1,0,0,1.766,1.25,1.25,0,0,0,0-1.766Z" transform="translate(-202.144 -87.24)"/><path class="b" d="M285,169.557a.625.625,0,1,1-.883,0,.617.617,0,0,1,.883,0m.444-.439a1.249,1.249,0,1,0,0,1.766,1.25,1.25,0,0,0,0-1.766Z" transform="translate(-279.775 -165.195)"/></g></g></g></g></svg>