<svg enable-background="new 0 0 40 40" height="40" viewBox="0 0 40 40" width="40" xmlns="http://www.w3.org/2000/svg"><path d="m22.676 40v-4.261c2.352-.406 4.643-1.36 6.57-2.726l2.986 2.984 3.775-3.762-3.004-2.944c1.371-1.92 2.328-4.187 2.736-6.527h4.261v-5.318h-4.26c-.408-2.554-1.367-4.685-2.74-6.603l3-3.003-3.781-3.771-2.973 2.98c-1.928-1.367-4.219-2.323-6.57-2.731v-4.318h-5.348v4.318c-2.566.408-4.699 1.359-6.629 2.727l-3.011-2.985-3.79 3.761 2.996 3.022c-1.375 1.918-2.334 4.049-2.744 6.603h-4.15v5.318h4.15c.41 2.341 1.369 4.607 2.74 6.527l-3 2.964 3.781 3.752 3.027-2.99c1.93 1.367 4.063 2.315 6.629 2.722v4.261zm-13.379-19.972c0-4.936 3.324-9.097 8.031-10.28v10.251h5.348v-10.251c4.492 1.184 7.973 5.345 7.973 10.28 0 5.855-4.789 10.619-10.676 10.619s-10.676-4.763-10.676-10.619z" fill="#8795a2"/></svg>