<svg viewBox="0 0 39.93 39.95" xmlns="http://www.w3.org/2000/svg"><path d="m0 0h39.93v39.93h-39.93z" fill="none"/><path d="m12.35 39.9a7.61 7.61 0 0 1 15.22 0v.1h6.68v-40h-6.68a7.61 7.61 0 0 1 -7.57 7.61 7.61 7.61 0 0 1 -7.65-7.61h-6.67v39.93h6.68s-.01-.02-.01-.03z" fill="#69d5f7"/><path d="m15.74 24.82-1.4 1.62-.17-.15c-.1-.12-.2-.24-.29-.35l-.08-.1 1.7-1.32c.1.14.2.25.32.39-.47-.44-.27-.25-.08-.09zm-2-3.22-2.08.54q.15.53.35 1.06l.05.12s0 0 0 0l1.94-.89a7.15 7.15 0 0 1 -.27-.83zm11-5.94s.05.07.08.08l1.62-1.4-.05-.05-.05-.05c-.29-.29-.59-.56-.89-.81l-1.32 1.7a2.58 2.58 0 0 1 .62.53zm3.8 4.1v-.08-.08c0-.14 0-.27 0-.4l-2.13.24a6.52 6.52 0 0 1 0 1.28l2.14.19c0-.49 0-.79 0-1.11zm-2.46-1.76 2-.66a9.07 9.07 0 0 0 -.34-.86c-.08-.19-.19-.35-.27-.54l-1.82 1.06a4.77 4.77 0 0 1 .43 1zm-10.34 9.44.49.25h.05l.72.31.66-2a6.14 6.14 0 0 1 -1.18-.52zm9.92-4.44 1.89 1c.14-.25.25-.52.37-.79s0-.05 0-.07a.24.24 0 0 0 .08-.14c.05-.14.08-.27.14-.4l-2.06-.61a4.91 4.91 0 0 1 -.4 1zm-1.4 1.79-.26.21 1.37 1.65.29-.25a9.08 9.08 0 0 0 .88-.93l-1.62-1.47a5.13 5.13 0 0 1 -.66.71zm-2.48 1.38.61 2.06a8 8 0 0 0 1.61-.67l-1-1.89a8 8 0 0 1 -1.22.47zm-2.55.22-.23 2.1a9.78 9.78 0 0 0 1.72 0l-.19-2.14a6.5 6.5 0 0 1 -1.28 0zm4.52-14.09a8.36 8.36 0 0 0 -1.6-.59l-.56 2.06a4.88 4.88 0 0 1 1.2.46zm-3.8.84h.17v-1.75h-.12a8.62 8.62 0 0 0 -3.7.84l-.12.07a2 2 0 0 0 -.32.19l-.13.07a4.58 4.58 0 0 0 -.59.4l-.14.04s-.05.05-.08.07l-.25.2s-.05.05-.08.07l-.22.19-.08.08-.24.24-.1.1a9.06 9.06 0 0 0 -1 1.37.13.13 0 0 0 0 .07l-.05.08a3.48 3.48 0 0 0 -.2.44s0 .05 0 .07 0 .05 0 .07l-.05.14-.05.15a8.67 8.67 0 0 0 -.51 2.9v.05h1.91v-.05a6.7 6.7 0 0 1 .37-2.18 5.79 5.79 0 0 1 .39-.88s0 0 0 0l.14-.24a6.73 6.73 0 0 1 1-1.23c.12-.12.22-.22.34-.32l.05-.05a6.88 6.88 0 0 1 1.18-.79h.05a7.24 7.24 0 0 1 2.48-.44z" fill="#2971ff"/></svg>