<svg viewBox="0 0 20 19.996" xmlns="http://www.w3.org/2000/svg"><path d="m0 0h19.996v19.996h-19.996z" fill="none"/><path d="m0 8.749h16.25v8.749h-16.25z" fill="#ffc84e"/><path d="m3.746 2.497h16.254v8.749h-16.254z" fill="#ffe4a7"/><g fill="#ffc84e"><path d="m0 0h1.249v7.313h-1.249z" transform="matrix(-.706 -.709 .709 -.706 9.67 9.831)"/><path d="m203.844 88.057a.625.625 0 1 1 -.883 0 .617.617 0 0 1 .883 0m.439-.439a1.249 1.249 0 1 0 0 1.766 1.25 1.25 0 0 0 0-1.766z" transform="translate(-193.355 -83.454)"/><path d="m285 169.557a.625.625 0 1 1 -.883 0 .617.617 0 0 1 .883 0m.444-.439a1.249 1.249 0 1 0 0 1.766 1.25 1.25 0 0 0 0-1.766z" transform="translate(-270.986 -161.409)"/></g></svg>