<svg xmlns="http://www.w3.org/2000/svg" viewBox="0 0 40 40"><defs><style>.cls-1{fill:#8997a5;}.cls-2{fill:#132f4b;}.cls-3{fill:none;}</style></defs><title>ticket-expired</title><g id="Layer_2" data-name="Layer 2"><g id="Layer_1-2" data-name="Layer 1"><g id="Symbol_5_1" data-name="Symbol 5 1"><path id="_Path_" data-name="&lt;Path&gt;" class="cls-1" d="M12.38,40a7.62,7.62,0,1,1,15.24,0v0h6.68V0H27.62A7.62,7.62,0,0,1,20,7.62,7.62,7.62,0,0,1,12.38,0H5.69V40h6.68Z"/><rect id="_Path_2" data-name="&lt;Path&gt;" class="cls-2" x="19.14" y="14.47" width="1.45" height="6.12"/><rect id="_Path_3" data-name="&lt;Path&gt;" class="cls-2" x="15.89" y="19.46" width="4.7" height="1.45"/><path id="Path_184" data-name="Path 184" class="cls-2" d="M19.81,12.93A7.12,7.12,0,1,1,12.69,20a7.12,7.12,0,0,1,7.12-7.12m0-1.47A8.58,8.58,0,1,0,28.39,20h0A8.59,8.59,0,0,0,19.81,11.46Z"/><g id="Group_438" data-name="Group 438"><path id="Path_185" data-name="Path 185" class="cls-1" d="M25.48,29.79a4.17,4.17,0,1,1,4.17-4.17,4.17,4.17,0,0,1-4.17,4.17Z"/><path id="Path_186" data-name="Path 186" class="cls-2" d="M25.48,22.2A3.43,3.43,0,1,1,22,25.63h0a3.44,3.44,0,0,1,3.43-3.43m0-1.46a4.9,4.9,0,1,0,4.9,4.9h0A4.9,4.9,0,0,0,25.48,20.73Z"/></g><g id="Group_439" data-name="Group 439"><rect id="_Path_4" data-name="&lt;Path&gt;" class="cls-2" x="24.75" y="22.85" width="1.45" height="3.44"/><rect id="_Path_5" data-name="&lt;Path&gt;" class="cls-2" x="24.75" y="26.95" width="1.45" height="1.45"/></g></g><g id="_Group_" data-name="&lt;Group&gt;"><rect id="_Path_6" data-name="&lt;Path&gt;" class="cls-3" width="40" height="40"/></g></g></g></svg>