<svg enable-background="new 0 0 40 40" height="40" viewBox="0 0 40 40" width="40" xmlns="http://www.w3.org/2000/svg"><path d="m22.676 40v-4.258c2.352-.406 4.643-1.36 6.57-2.726l2.986 2.984 3.775-3.761-3.004-2.947c1.371-1.917 2.328-4.187 2.736-6.527h4.261v-5.318h-4.26c-.408-2.553-1.367-4.685-2.74-6.602l3-3.004-3.781-3.771-2.973 2.98c-1.928-1.366-4.219-2.324-6.57-2.731v-4.319h-5.347v4.319c-2.566.407-4.699 1.359-6.63 2.726l-3.011-2.984-3.79 3.76 2.996 3.023c-1.375 1.917-2.334 4.049-2.744 6.602h-4.15v5.318h4.15c.41 2.341 1.369 4.61 2.74 6.527l-3 2.967 3.781 3.751 3.027-2.989c1.931 1.367 4.063 2.315 6.63 2.722v4.258zm-13.379-19.971c0-4.937 3.325-9.096 8.032-10.28v10.251h5.347v-10.251c4.492 1.185 7.973 5.344 7.973 10.28 0 5.857-4.789 10.621-10.675 10.621-5.887 0-10.677-4.763-10.677-10.621z" fill="#2970ff"/></svg>