<svg viewBox="0 0 40 40" xmlns="http://www.w3.org/2000/svg"><path d="m0 0h40v40h-40z" fill="none"/><path d="m12.37 39.93a7.63 7.63 0 1 1 15.27 0h6.7v-39.93h-6.73a7.63 7.63 0 0 1 -7.61 7.63 7.65 7.65 0 0 1 -7.63-7.63h-6.66v40h6.7s-.04 0-.04-.07z" fill="#69d5f7"/><g fill="#2971ff"><circle cx="18.31" cy="13.63" r="2"/><circle cx="18.97" cy="19.83" r="3.23"/><circle cx="24.87" cy="21.77" r="2.1"/><circle cx="25.57" cy="25.23" r=".9"/><circle cx="14.44" cy="16.4" r=".9"/><circle cx="21.54" cy="25.37" r="1.5"/><circle cx="14.67" cy="23.37" r="1.1"/><circle cx="23.27" cy="16.7" r="1.1"/><circle cx="17.37" cy="24.73" r="1"/><circle cx="13.77" cy="20.4" r=".7"/><circle cx="18.71" cy="27.7" r=".7"/><circle cx="22.54" cy="13.03" r=".7"/></g></svg>