<svg viewBox="0 0 40 40" xmlns="http://www.w3.org/2000/svg"><path d="m12.38 40a7.62 7.62 0 1 1 15.24 0h6.68v-40h-6.68a7.62 7.62 0 0 1 -7.62 7.62 7.62 7.62 0 0 1 -7.62-7.62h-6.69v40h6.68z" fill="#8997a5"/><g fill="#132f4b"><path d="m19.14 14.47h1.45v6.12h-1.45z"/><path d="m15.89 19.46h4.7v1.45h-4.7z"/><path d="m19.81 12.93a7.12 7.12 0 1 1 -7.12 7.07 7.12 7.12 0 0 1 7.12-7.12m0-1.47a8.58 8.58 0 1 0 8.58 8.59 8.59 8.59 0 0 0 -8.58-8.54z"/></g><path d="m25.48 29.79a4.17 4.17 0 1 1 4.17-4.17 4.17 4.17 0 0 1 -4.17 4.17z" fill="#8997a5"/><g fill="#132f4b"><path d="m25.48 22.2a3.43 3.43 0 1 1 -3.48 3.43 3.44 3.44 0 0 1 3.43-3.43m0-1.46a4.9 4.9 0 1 0 4.9 4.9 4.9 4.9 0 0 0 -4.85-4.91z"/><path d="m24.75 22.85h1.45v3.44h-1.45z"/><path d="m24.75 26.95h1.45v1.45h-1.45z"/></g><path d="m0 0h40v40h-40z" fill="none"/></svg>