<svg xmlns="http://www.w3.org/2000/svg" width="20.1" height="20.2" viewBox="0 0 20.1 20.2">
  <g id="XMLID_138_" transform="translate(-1060.3 -409.2)">
    <path id="XMLID_138_2" data-name="XMLID_138_" d="M716.7,73.3V71.2a8.056,8.056,0,0,0,3.3-1.4l1.5,1.5,1.9-1.9-1.5-1.5a8.057,8.057,0,0,0,1.4-3.3h2.1V62h-2.1a7.055,7.055,0,0,0-1.4-3.3l1.5-1.5-1.9-1.9L720,56.8a8.056,8.056,0,0,0-3.3-1.4V53.2H714v2.2a7.524,7.524,0,0,0-3.3,1.4l-1.5-1.5-1.9,1.9,1.5,1.5a7.524,7.524,0,0,0-1.4,3.3h-2.1v2.7h2.1a8.057,8.057,0,0,0,1.4,3.3l-1.5,1.5,1.9,1.9,1.5-1.5a7.524,7.524,0,0,0,3.3,1.4v2.1h2.7Zm-6.7-10a5.37,5.37,0,0,1,4-5.2v5.2h2.7V58.1a5.486,5.486,0,0,1,4,5.2,5.335,5.335,0,0,1-5.3,5.3A5.422,5.422,0,0,1,710,63.3Z" transform="translate(355 356)" fill="#436ec3"/>
  </g>
</svg>
