<svg xmlns="http://www.w3.org/2000/svg" viewBox="0 0 39.93 39.95"><defs><style>.cls-1{fill:none;}.cls-2{fill:#69d5f7;}.cls-3{fill:#2971ff;}</style></defs><title>ticket-unmined</title><g id="Layer_2" data-name="Layer 2"><g id="Layer_1-2" data-name="Layer 1"><g id="Symbol_6_1" data-name="Symbol 6 1"><g id="Group_445" data-name="Group 445"><g id="_Group_" data-name="&lt;Group&gt;"><rect id="_Path_" data-name="&lt;Path&gt;" class="cls-1" width="39.93" height="39.93"/></g><g id="_Group_2" data-name="&lt;Group&gt;"><path id="_Path_2" data-name="&lt;Path&gt;" class="cls-2" d="M12.35,39.9a7.61,7.61,0,0,1,15.22,0V40h6.68V0H27.57A7.61,7.61,0,0,1,20,7.61,7.61,7.61,0,0,1,12.35,0H5.68V39.93h6.68S12.35,39.91,12.35,39.9Z"/></g></g><path id="Path_187" data-name="Path 187" class="cls-3" d="M15.74,24.82l-1.4,1.62-.17-.15h0l0,0h0l0,0h0l0,0h0l0,0h0l0,0h0l0,0h0l0,0h0l0,0h0l0,0h0l0,0h0l0,0h0l0,0h0l0,0h0l0,0h0l0,0h0c-.1-.12-.2-.24-.29-.35h0l-.08-.1,1.7-1.32c.1.14.2.25.32.39C15.35,24.47,15.55,24.66,15.74,24.82Zm-2-3.22-2.08.54q.15.53.35,1.06h0l0,0h0l.05.12h0s0,0,0,0h0L14,22.43A7.15,7.15,0,0,1,13.73,21.6Zm11-5.94s.05.07.08.08l1.62-1.4-.05-.05h0l-.05-.05h0l0,0h0l0,0h0c-.29-.29-.59-.56-.89-.81l-1.32,1.7A2.58,2.58,0,0,1,24.75,15.66Zm3.8,4.1h0v0h0v-.08h0v-.08h0c0-.14,0-.27,0-.4l-2.13.24a6.52,6.52,0,0,1,0,1.28l2.14.19c0-.49,0-.79,0-1.11ZM26.08,18l2-.66a9.07,9.07,0,0,0-.34-.86h0c-.08-.19-.19-.35-.27-.54L25.65,17A4.77,4.77,0,0,1,26.08,18ZM15.74,27.44l.49.25h0l0,0h0l0,0h0l0,0h0l.05,0h0L17,28l.66-2a6.14,6.14,0,0,1-1.18-.52ZM25.66,23l1.89,1c.14-.25.25-.52.37-.79h0v0h0v0h0s0-.05,0-.07h0A.24.24,0,0,0,28,23h0c.05-.14.08-.27.14-.4l-2.06-.61a4.91,4.91,0,0,1-.4,1Zm-1.4,1.79L24,25l1.37,1.65.29-.25h0l0,0h0a9.08,9.08,0,0,0,.88-.93L24.92,24a5.13,5.13,0,0,1-.66.71Zm-2.48,1.38.61,2.06A8,8,0,0,0,24,27.56l-1-1.89A8,8,0,0,1,21.78,26.14Zm-2.55.22L19,28.49a9.78,9.78,0,0,0,1.72,0l-.19-2.14a6.5,6.5,0,0,1-1.28,0Zm4.52-14.09a8.36,8.36,0,0,0-1.6-.59h0l-.56,2.06a4.88,4.88,0,0,1,1.2.46Zm-3.8.84h.17V11.39H20a8.62,8.62,0,0,0-3.7.84l0,0-.12.07a2,2,0,0,0-.32.19l-.13.07a4.58,4.58,0,0,0-.59.4L15,13s-.05.05-.08.07l-.25.2s-.05.05-.08.07l-.22.19,0,0,0,0-.08.08-.24.24-.1.1a9.06,9.06,0,0,0-1,1.37.13.13,0,0,0,0,.07v0l-.05.08a3.48,3.48,0,0,0-.2.44s0,.05,0,.07v0s0,.05,0,.07v0l-.05.14-.05.15v0a8.67,8.67,0,0,0-.51,2.9v.05H14v-.05a6.7,6.7,0,0,1,.37-2.18,5.79,5.79,0,0,1,.39-.88s0,0,0,0l.14-.24a6.73,6.73,0,0,1,1-1.23c.12-.12.22-.22.34-.32l.05-.05a6.88,6.88,0,0,1,1.18-.79l.05,0A7.24,7.24,0,0,1,20,13.11Z"/></g></g></g></svg>