<svg viewBox="-319 440.976 11.482 11.987" xmlns="http://www.w3.org/2000/svg"><g fill="#586d82"><path d="m17.539 3.721a.551.551 0 0 0 .04-.213v-.16a.633.633 0 0 0 -.159-.412.633.633 0 0 0 .159-.412v-.159a.587.587 0 0 0 -.253-.492l.465-1.422v-.146c0-.013 0-.013-.013-.027s0-.013-.013-.027-.013-.013-.013-.027-.014-.012-.014-.024a.013.013 0 0 0 -.013-.013l-.014-.015c-.013 0-.013-.013-.027-.013l-.013-.013a.307.307 0 0 1 -.093-.093.7.7 0 0 0 -.531-.253.675.675 0 0 0 -.532.253c-.08.08-.12.106-.186.106s-.106-.027-.186-.106a.7.7 0 0 0 -.531-.253.675.675 0 0 0 -.532.253c-.08.08-.12.106-.186.106s-.106-.027-.186-.106a.7.7 0 0 0 -.532-.253.73.73 0 0 0 -.545.253l-.08.08-.013.013a.246.246 0 0 0 -.04.332l.452 1.369a.6.6 0 0 0 -.266.505v.159a.633.633 0 0 0 .159.412.633.633 0 0 0 -.159.412v.159a.6.6 0 0 0 .04.213 5.157 5.157 0 0 0 -2.724 4.386c0 2.246 1.807 3.695 4.612 3.695s4.612-1.449 4.612-3.695a5.218 5.218 0 0 0 -2.685-4.372zm-3.416-1.183v-.16a.133.133 0 0 1 .133-.133h2.711a.133.133 0 0 1 .133.133v.159a.133.133 0 0 1 -.133.133h-2.711a.155.155 0 0 1 -.133-.132zm0 .811a.133.133 0 0 1 .133-.133h2.711a.133.133 0 0 1 .133.133v.159a.133.133 0 0 1 -.133.133h-2.711a.133.133 0 0 1 -.133-.133zm.013-3.03c.08 0 .106.027.186.106a.7.7 0 0 0 .532.253.675.675 0 0 0 .532-.253c.08-.08.12-.106.2-.106s.106.027.186.106a.7.7 0 0 0 .528.252.675.675 0 0 0 .532-.253c.08-.08.12-.106.186-.106s.106.027.186.106c.013.013.027.027.04.027l-.4 1.3h-2.468l-.439-1.326c.093-.08.12-.107.199-.107zm1.476 10.981c-1.993 0-4.12-.837-4.12-3.2a4.637 4.637 0 0 1 2.538-4 .621.621 0 0 0 .226.04h2.711a.621.621 0 0 0 .226-.04 4.637 4.637 0 0 1 2.538 4c0 2.358-2.139 3.2-4.119 3.2z" transform="translate(-328.538 441.176)"/><path d="m6.771 8.4a.771.771 0 0 0 -.771.771.771.771 0 0 0 1.542 0 .771.771 0 0 0 -.771-.771zm0 1.05a.281.281 0 0 1 -.279-.279.279.279 0 1 1 .279.279z" transform="translate(-324.203 433.719)"/><path d="m66.771 14.343a.571.571 0 1 0 -.571-.571.567.567 0 0 0 .571.571zm0-.771a.213.213 0 1 1 -.2.2.2.2 0 0 1 .2-.2z" transform="translate(-376.402 429.557)"/><path d="m11.212 32.324a.412.412 0 1 0 -.412-.412.414.414 0 0 0 .412.412zm0-.478a.08.08 0 1 1 -.08.08q.02-.08.08-.08z" transform="translate(-328.365 413.689)"/><path d="m77.977 26.9h-.518v.359h-.359v.518h.359v.359h.518v-.359h.359v-.518h-.359z" transform="translate(-385.854 417.678)"/><path d="m.877 41h-.518v.359h-.359v.518h.359v.359h.518v-.359h.359v-.518h-.359z" transform="translate(-319 405.451)"/></g></svg>