<?xml version="1.0" encoding="utf-8"?>
<!-- Generator: Adobe Illustrator 16.0.0, SVG Export Plug-In . SVG Version: 6.00 Build 0)  -->
<!DOCTYPE svg PUBLIC "-//W3C//DTD SVG 1.1//EN" "http://www.w3.org/Graphics/SVG/1.1/DTD/svg11.dtd">
<svg version="1.1" id="Layer_1" xmlns="http://www.w3.org/2000/svg" xmlns:xlink="http://www.w3.org/1999/xlink" x="0px" y="0px"
	 width="24px" height="24px" viewBox="0 0 24 24" enable-background="new 0 0 24 24" xml:space="preserve">
<g>
	<path id="XMLID_43_" fill="#69D5F7" d="M17.059,22.877c2.863-1.336,5.113-3.771,6.211-6.762l-6.441-2.348
		c-0.488,1.334-1.516,2.408-2.814,2.965c0.053-0.023,0.104-0.047,0.154-0.07L17.059,22.877z"/>
	<path id="XMLID_39_" fill="#69D5F7" d="M1.125,17.061c1.336,2.863,3.77,5.111,6.756,6.207l0.689-1.875l1.646-4.564l0,0l0.006,0.02
		l0.008-0.02c-1.332-0.49-2.406-1.516-2.961-2.814c0.023,0.053,0.045,0.104,0.068,0.156L1.125,17.061z"/>
	<path id="XMLID_36_" fill="#69D5F7" d="M22.871,6.932c-1.334-2.854-3.762-5.098-6.738-6.193l-1.199,3.213l-1.15,3.227l-0.01-0.004
		c1.33,0.49,2.402,1.516,2.957,2.813c-0.023-0.053-0.045-0.105-0.07-0.158L22.871,6.932z"/>
	<path id="XMLID_34_" fill="#69D5F7" d="M6.934,1.125C4.074,2.463,1.826,4.896,0.73,7.883l2.004,0.74l4.434,1.613
		c0.49-1.334,1.518-2.412,2.82-2.969C9.934,7.291,9.881,7.314,9.83,7.338L6.934,1.125z"/>
	<path id="XMLID_31_" fill="#FFFFFF" d="M0.066,13.25c0.006,0.047,0.012,0.094,0.018,0.141c0.008,0.072,0.018,0.146,0.025,0.219
		c0.004,0.012,0.004,0.023,0.006,0.035c0.135,0.963,0.385,1.91,0.746,2.813c0.002,0.008,0.006,0.016,0.01,0.023
		c0.031,0.08,0.066,0.16,0.098,0.24c0.021,0.045,0.041,0.09,0.063,0.137c0.016,0.039,0.035,0.078,0.051,0.117
		c0.016,0.029,0.027,0.059,0.039,0.088l0.004-0.002l6.213-2.891c-0.023-0.053-0.045-0.104-0.068-0.156
		c-0.008-0.012-0.012-0.025-0.016-0.037c-0.027-0.064-0.051-0.129-0.078-0.193c-0.008-0.02-0.012-0.039-0.02-0.059
		c-0.018-0.049-0.035-0.098-0.051-0.146c-0.008-0.031-0.02-0.063-0.029-0.096c-0.014-0.049-0.029-0.1-0.043-0.15
		c-0.006-0.025-0.014-0.051-0.02-0.076c-0.018-0.064-0.031-0.129-0.045-0.193c-0.004-0.018-0.008-0.033-0.01-0.049
		C6.891,12.678,6.855,12.338,6.855,12c0-0.262,0.023-0.523,0.063-0.781v-0.002c0.012-0.076,0.023-0.15,0.039-0.227
		c0.004-0.014,0.008-0.027,0.01-0.043c0.014-0.059,0.027-0.117,0.041-0.176c0.006-0.025,0.012-0.051,0.02-0.076
		c0.01-0.045,0.023-0.088,0.037-0.135c0.01-0.033,0.02-0.068,0.029-0.104c0.008-0.018,0.014-0.037,0.02-0.057
		c0.016-0.047,0.031-0.074,0.047-0.117L2.734,8.646L0.73,7.895L0.727,7.902c-0.119,0.324-0.223,0.648-0.313,0.98
		c-0.002,0.01-0.006,0.02-0.008,0.031C0.387,8.98,0.371,9.045,0.355,9.113C0.348,9.143,0.34,9.17,0.334,9.201
		C0.32,9.252,0.309,9.307,0.297,9.357C0.285,9.41,0.273,9.461,0.262,9.514c-0.008,0.033-0.014,0.066-0.02,0.1
		C0.082,10.396,0,11.195,0,12c0,0.389,0.02,0.779,0.059,1.168C0.063,13.195,0.064,13.223,0.066,13.25z"/>
	<path id="XMLID_30_" fill="#FFFFFF" d="M10.217,16.828L8.57,21.393l-0.689,1.875L7.879,23.27l0.016,0.006
		c0.109,0.039,0.217,0.076,0.328,0.111c0.016,0.006,0.035,0.012,0.051,0.018c0.082,0.027,0.16,0.051,0.242,0.076
		c0.023,0.006,0.045,0.014,0.068,0.021c0.098,0.027,0.197,0.057,0.295,0.084c0.012,0.002,0.021,0.006,0.031,0.008
		c0.068,0.018,0.135,0.035,0.203,0.053c0.027,0.006,0.057,0.014,0.086,0.02c0.053,0.014,0.105,0.027,0.16,0.039
		c0.051,0.012,0.102,0.021,0.152,0.031c0.033,0.008,0.068,0.016,0.102,0.023C10.398,23.92,11.195,24,12,24
		c0.387,0,0.777-0.021,1.166-0.059c0.029-0.004,0.057-0.006,0.084-0.008c0.047-0.006,0.094-0.012,0.139-0.018
		c0.072-0.008,0.146-0.016,0.221-0.027c0.012,0,0.021-0.002,0.033-0.004c0.963-0.135,1.912-0.385,2.813-0.746
		c0.006-0.002,0.014-0.004,0.02-0.008c0.082-0.031,0.162-0.066,0.244-0.102c0.045-0.02,0.09-0.039,0.137-0.059
		c0.039-0.018,0.078-0.035,0.117-0.053c0.029-0.014,0.057-0.025,0.086-0.039v-0.002l-2.891-6.215
		c-0.051,0.023-0.102,0.047-0.154,0.07c-0.014,0.004-0.025,0.01-0.037,0.016c-0.064,0.025-0.127,0.051-0.191,0.074
		c-0.02,0.008-0.043,0.016-0.063,0.021c-0.047,0.018-0.094,0.033-0.145,0.049c-0.031,0.012-0.063,0.021-0.096,0.031
		c-0.049,0.016-0.1,0.029-0.15,0.043c-0.027,0.006-0.051,0.014-0.078,0.02c-0.063,0.016-0.127,0.031-0.191,0.045
		c-0.016,0.004-0.033,0.008-0.051,0.01c-0.334,0.068-0.674,0.104-1.012,0.104c-0.262,0-0.523-0.021-0.781-0.061l-0.004-0.002
		c-0.074-0.012-0.148-0.025-0.223-0.039c-0.016-0.004-0.031-0.006-0.047-0.01c-0.059-0.012-0.115-0.025-0.174-0.041
		c-0.025-0.006-0.051-0.012-0.076-0.018c-0.045-0.012-0.09-0.025-0.133-0.039c-0.035-0.01-0.07-0.02-0.105-0.031
		c-0.023-0.006-0.047,0.004-0.07-0.004c-0.047-0.018-0.098-0.033-0.145-0.033h-0.016l-0.004-0.02L10.217,16.828L10.217,16.828z"/>
	<path id="XMLID_29_" fill="#FFFFFF" d="M14.934,3.951l1.199-3.213V0.736L16.09,0.721c-0.008-0.002-0.016-0.004-0.023-0.008
		c-0.01-0.004-0.023-0.008-0.033-0.012c-0.08-0.029-0.162-0.057-0.24-0.084c-0.035-0.01-0.07-0.021-0.107-0.033
		c-0.061-0.02-0.123-0.039-0.184-0.059c-0.037-0.012-0.072-0.021-0.107-0.033c-0.094-0.027-0.188-0.055-0.285-0.08
		c-0.008-0.002-0.02-0.006-0.029-0.008c-0.064-0.018-0.131-0.035-0.197-0.051c-0.029-0.008-0.059-0.016-0.09-0.021
		c-0.051-0.014-0.102-0.025-0.154-0.037s-0.104-0.023-0.156-0.033c-0.033-0.008-0.064-0.014-0.098-0.021C13.602,0.08,12.805,0,12,0
		c-0.391,0-0.781,0.021-1.172,0.061c-0.025,0.002-0.051,0.004-0.076,0.006c-0.049,0.006-0.1,0.012-0.146,0.018
		c-0.07,0.008-0.143,0.018-0.213,0.027c-0.014,0-0.029,0.004-0.043,0.006C9.391,0.252,8.441,0.502,7.543,0.861
		C7.531,0.867,7.52,0.871,7.508,0.877C7.432,0.906,7.355,0.939,7.279,0.971C7.23,0.99,7.184,1.012,7.137,1.033
		C7.1,1.049,7.063,1.066,7.027,1.084C6.996,1.098,6.965,1.109,6.934,1.125l0,0L9.83,7.338c0.051-0.023,0.104-0.047,0.158-0.07
		C10,7.264,10.01,7.26,10.023,7.254c0.063-0.027,0.129-0.053,0.195-0.078c0.02-0.006,0.039-0.014,0.055-0.02
		c0.051-0.018,0.1-0.033,0.15-0.049c0.029-0.012,0.061-0.021,0.092-0.029c0.051-0.016,0.102-0.031,0.154-0.045
		c0.025-0.006,0.049-0.014,0.072-0.02c0.066-0.016,0.131-0.031,0.195-0.045c0.016-0.004,0.031-0.006,0.047-0.01
		C11.32,6.891,11.66,6.855,12,6.855c0.262,0,0.523,0.021,0.781,0.063h0.002c0.076,0.012,0.15,0.025,0.227,0.041
		c0.014,0.002,0.029,0.004,0.041,0.008c0.061,0.012,0.121,0.027,0.18,0.041c0.023,0.006,0.049,0.012,0.074,0.018
		c0.045,0.012,0.09,0.025,0.137,0.039c0.033,0.01,0.066,0.02,0.102,0.029c0.033,0.012,0.066,0.023,0.102,0.035
		c0.039,0.014,0.078,0.025,0.113,0.039l0.016,0.006l0.01,0.004L14.934,3.951z"/>
	<path id="XMLID_28_" fill="#FFFFFF" d="M23.27,16.115l0.004-0.012l0,0c0.004-0.008,0.012-0.018,0.016-0.025
		c0.006-0.014,0.023-0.029,0.023-0.045l0,0c0-0.076,0.066-0.154,0.066-0.23v-0.002c0-0.031,0.023-0.064,0.033-0.096
		c0-0.004-0.01-0.008-0.01-0.012c0.02-0.061,0.047-0.121,0.047-0.182l0,0c0-0.037,0.033-0.084,0.043-0.084H23.5
		c0.027-0.137,0.059-0.205,0.082-0.273h0.002c0-0.07,0.002-0.02,0.002-0.02c0.002-0.01,0.004-0.027,0.008-0.037
		c0.018-0.068,0.035-0.139,0.051-0.207c0.008-0.029,0.016-0.059,0.021-0.086c0.014-0.053,0.025-0.109,0.037-0.164
		c0.012-0.049,0.023-0.1,0.033-0.148c0.008-0.035,0.016-0.07,0.021-0.107C23.92,13.602,24,12.805,24,12
		c0-0.387-0.02-0.775-0.059-1.164c-0.004-0.029-0.006-0.059-0.008-0.088c-0.006-0.047-0.012-0.092-0.018-0.137
		c-0.01-0.074-0.018-0.148-0.025-0.223c-0.004-0.012-0.006-0.023-0.008-0.035c-0.133-0.963-0.385-1.91-0.746-2.814
		c-0.004-0.012-0.01-0.023-0.016-0.035c-0.029-0.076-0.061-0.152-0.094-0.227c-0.02-0.047-0.039-0.094-0.061-0.141
		c-0.018-0.037-0.033-0.074-0.051-0.111c-0.014-0.031-0.027-0.063-0.041-0.094h-0.004L16.66,9.828
		c0.025,0.053,0.047,0.105,0.07,0.158c0.006,0.012,0.012,0.025,0.016,0.037c0.027,0.064,0.055,0.129,0.078,0.195
		c0.006,0.018,0.014,0.039,0.02,0.059c0.018,0.047,0.033,0.096,0.051,0.145c0.008,0.033,0.02,0.064,0.029,0.098
		c0.014,0.049,0.029,0.1,0.041,0.148c0.008,0.025,0.016,0.051,0.021,0.076c0.016,0.064,0.031,0.129,0.045,0.193
		c0.004,0.016,0.008,0.033,0.01,0.049c0.068,0.336,0.1,0.676,0.1,1.014c0,0.053,0,0.105,0,0.156
		c-0.002,0.027-0.004,0.055-0.004,0.084c-0.002,0.145-0.012,0.289-0.039,0.434c0,0.004,0,0.006-0.002,0.008
		c-0.006,0.033-0.014,0.066-0.021,0.1v0.002c0,0.076-0.023,0.152-0.039,0.229c0,0.014,0,0.025-0.004,0.039
		c-0.014,0.061-0.027,0.123-0.043,0.186c-0.004,0.021-0.008,0.043-0.016,0.064c-0.012,0.051-0.027,0.102-0.041,0.15
		c-0.01,0.029-0.016,0.059-0.025,0.09c-0.012,0.039-0.027,0.08-0.041,0.119c-0.01,0.033-0.021,0.064-0.031,0.096l-0.006,0.012l0,0
		l0,0L23.27,16.115L23.27,16.115z"/>
</g>
</svg>
