<svg xmlns="http://www.w3.org/2000/svg" viewBox="-319 440.976 11.482 11.987"><defs><style>.a{fill:#586d82;}</style></defs><g transform="translate(-1349 -369)"><g transform="translate(1030 810.176)"><path class="a" d="M17.539,3.721a.551.551,0,0,0,.04-.213V3.348a.633.633,0,0,0-.159-.412.633.633,0,0,0,.159-.412V2.365a.587.587,0,0,0-.253-.492L17.791.451V.305c0-.013,0-.013-.013-.027s0-.013-.013-.027-.013-.013-.013-.027S17.738.212,17.738.2a.013.013,0,0,0-.013-.013L17.711.172c-.013,0-.013-.013-.027-.013L17.671.146a.307.307,0,0,1-.093-.093A.7.7,0,0,0,17.047-.2a.675.675,0,0,0-.532.253c-.08.08-.12.106-.186.106s-.106-.027-.186-.106A.7.7,0,0,0,15.612-.2a.675.675,0,0,0-.532.253c-.08.08-.12.106-.186.106s-.106-.027-.186-.106A.7.7,0,0,0,14.176-.2a.73.73,0,0,0-.545.253l-.08.08-.013.013a.246.246,0,0,0-.04.332h0l.452,1.369a.6.6,0,0,0-.266.505v.159a.633.633,0,0,0,.159.412.633.633,0,0,0-.159.412v.159a.6.6,0,0,0,.04.213A5.157,5.157,0,0,0,11,8.093c0,2.246,1.807,3.695,4.612,3.695s4.612-1.449,4.612-3.695A5.218,5.218,0,0,0,17.539,3.721ZM14.123,2.538V2.378a.133.133,0,0,1,.133-.133h2.711a.133.133,0,0,1,.133.133v.159a.133.133,0,0,1-.133.133H14.256A.155.155,0,0,1,14.123,2.538Zm0,.811a.133.133,0,0,1,.133-.133h2.711a.133.133,0,0,1,.133.133v.159a.133.133,0,0,1-.133.133H14.256a.133.133,0,0,1-.133-.133Zm.013-3.03c.08,0,.106.027.186.106a.7.7,0,0,0,.532.253.675.675,0,0,0,.532-.253c.08-.08.12-.106.2-.106s.106.027.186.106A.7.7,0,0,0,16.3.677a.675.675,0,0,0,.532-.253c.08-.08.12-.106.186-.106s.106.027.186.106c.013.013.027.027.04.027l-.4,1.3H14.376L13.937.425C14.03.345,14.057.318,14.136.318ZM15.612,11.3c-1.993,0-4.12-.837-4.12-3.2a4.637,4.637,0,0,1,2.538-4,.621.621,0,0,0,.226.04h2.711a.621.621,0,0,0,.226-.04,4.637,4.637,0,0,1,2.538,4C19.731,10.458,17.592,11.3,15.612,11.3Z" transform="translate(-9.538 0)"/><path class="a" d="M6.771,8.4A.771.771,0,0,0,6,9.171a.771.771,0,0,0,1.542,0A.771.771,0,0,0,6.771,8.4Zm0,1.05a.281.281,0,0,1-.279-.279.279.279,0,1,1,.279.279Z" transform="translate(-5.203 -7.457)"/><path class="a" d="M66.771,14.343a.571.571,0,1,0-.571-.571A.567.567,0,0,0,66.771,14.343Zm0-.771a.213.213,0,1,1-.2.2A.2.2,0,0,1,66.771,13.572Z" transform="translate(-57.402 -11.619)"/><path class="a" d="M11.212,32.324a.412.412,0,1,0-.412-.412A.414.414,0,0,0,11.212,32.324Zm0-.478a.08.08,0,1,1-.08.08Q11.152,31.846,11.212,31.846Z" transform="translate(-9.365 -27.487)"/><path class="a" d="M77.977,26.9h-.518v.359H77.1v.518h.359v.359h.518v-.359h.359v-.518h-.359Z" transform="translate(-66.854 -23.498)"/><path class="a" d="M.877,41H.359v.359H0v.518H.359v.359H.877v-.359h.359v-.518H.877Z" transform="translate(0 -35.725)"/></g></g></svg>