<svg  viewBox="0 0 12 12" fill="none" xmlns="http://www.w3.org/2000/svg">
<path d="M1.50098 6.80002C1.50071 7.67412 1.75503 8.52936 2.23285 9.26129C2.71067 9.99322 3.39132 10.5702 4.19164 10.9216C4.99197 11.2731 5.87732 11.3838 6.73956 11.2403C7.6018 11.0969 8.40359 10.7054 9.047 10.1137C9.6904 9.52207 10.1476 8.75583 10.3626 7.90861C10.5777 7.06139 10.5414 6.16987 10.2581 5.34296C9.9748 4.51605 9.45682 3.78953 8.76742 3.25217C8.07801 2.71481 7.24703 2.38986 6.37598 2.31702V1.54902H7.12498V0.749023H4.87398V1.54902H5.62298V2.31702C4.49911 2.41176 3.4518 2.92507 2.68842 3.75531C1.92504 4.58555 1.50125 5.67217 1.50098 6.80002ZM3.34898 9.44902C2.73669 8.83556 2.356 8.02881 2.27177 7.16617C2.18754 6.30354 2.40496 5.43838 2.88702 4.71806C3.36907 3.99774 4.08593 3.46681 4.91549 3.21571C5.74506 2.96461 6.63603 3.00887 7.43663 3.34094C8.23723 3.67302 8.89794 4.27237 9.30624 5.03691C9.71454 5.80146 9.84516 6.6839 9.67585 7.53395C9.50655 8.38399 9.04779 9.14904 8.37772 9.69881C7.70765 10.2486 6.86771 10.549 6.00098 10.549C5.50813 10.5503 5.01995 10.4537 4.56471 10.2649C4.10947 10.076 3.69624 9.79874 3.34898 9.44902Z" fill="#4570c0"/>
<path d="M9 6.7998H6V3.7998C5.40665 3.7998 4.82664 3.97575 4.33329 4.30539C3.83994 4.63503 3.45542 5.10357 3.22836 5.65175C3.0013 6.19993 2.94189 6.80313 3.05765 7.38507C3.1734 7.96701 3.45912 8.50157 3.87868 8.92113C4.29823 9.34068 4.83278 9.6264 5.41472 9.74216C5.99667 9.85791 6.59987 9.7985 7.14805 9.57144C7.69622 9.34438 8.16476 8.95987 8.49441 8.46652C8.82405 7.97317 9 7.39315 9 6.7998Z" fill="#92b8d9"/>
</svg>

