<svg xmlns="http://www.w3.org/2000/svg" viewBox="7131 430 12 12"><defs><style>.a{fill:#8997a5;}.b{fill:#c4cbd2;}.c{fill:none;}</style></defs><g transform="translate(6085)"><g transform="translate(1047.5 430.75)"><path class="a" d="M50,31.048a4.5,4.5,0,1,0,4.875-4.482V25.8h.75V25h-2.25v.8h.75v.768A4.5,4.5,0,0,0,50,31.048ZM51.848,33.7A3.752,3.752,0,1,1,54.5,34.8,3.726,3.726,0,0,1,51.848,33.7Z" transform="translate(-50 -25)"/><path class="b" d="M106,129.6h-3v-3a3,3,0,1,0,3,3Z" transform="translate(-98.5 -123.552)"/></g><rect class="c" width="12" height="12" transform="translate(1046 430)"/></g></svg>