<svg xmlns="http://www.w3.org/2000/svg" viewBox="-228.059 440.135 9.774 12"><defs><style>.a{fill:#586d82;}</style></defs><g transform="translate(-1349 -369)"><g transform="translate(1120.941 809.135)"><path class="a" d="M8.46,4.475V3.228A3.414,3.414,0,0,0,4.9,0,3.414,3.414,0,0,0,1.336,3.228V4.475A1.6,1.6,0,0,0,0,6.056V10.4A1.6,1.6,0,0,0,1.6,12H8.171a1.6,1.6,0,0,0,1.6-1.6V6.056A1.581,1.581,0,0,0,8.46,4.475ZM1.781,3.228A2.969,2.969,0,0,1,4.9.445,2.969,2.969,0,0,1,8.015,3.228V4.453H1.781Zm7.57,7.191a1.15,1.15,0,0,1-1.158,1.158H1.6A1.15,1.15,0,0,1,.445,10.419V6.056A1.15,1.15,0,0,1,1.6,4.9H8.171A1.15,1.15,0,0,1,9.328,6.056v4.364Z"/><path class="a" d="M18.891,28a.893.893,0,0,0-.891.891v1.336a.891.891,0,0,0,1.781,0V28.891A.893.893,0,0,0,18.891,28Zm.445,2.226a.445.445,0,0,1-.891,0V28.891a.445.445,0,1,1,.891,0Z" transform="translate(-13.993 -21.766)"/></g></g></svg>