<svg width="200px" height="200px" viewBox="0 0 200 200" version="1.1" xmlns="http://www.w3.org/2000/svg" xmlns:xlink="http://www.w3.org/1999/xlink">
    <g id="Page-1" stroke="none" fill="none" fill-rule="evenodd">
        <g id="Group">
            <rect id="Rectangle" x="0" y="0" width="200" height="200"></rect>
            <path d="M142.922204,65.052153 L160,65.052153 L160,160.1727 L99.6520104,188.052153 L40,160.1727 L40,65.052153 L56.9222045,65.052153 L56.9222045,52 L56.9341535,52 C57.4779837,29.2660032 76.5161785,11 99.9222045,11 C123.32823,11 142.366425,29.2660032 142.910255,52 L142.922204,52 L142.922204,65.052153 Z M83.9207397,65 L117.922937,65 L119.922204,65 L119.922204,52 L119.897639,52 C119.376608,41.4188885 110.632575,33 99.9222045,33 C89.2118343,33 80.4678008,41.4188885 79.9467695,52 L79.9222045,52 L79.9222045,65 L83.9207397,65 Z M65.1205258,88.3928148 L65.1205258,142.793727 L99.9222045,159.304738 L134.78612,142.793727 L134.78612,88.3928148 L65.1205258,88.3928148 Z" fill="#24292F"></path>
        </g>
    </g>
</svg>