<svg width="40" height="40" viewBox="0 0 40 40" fill="none" xmlns="http://www.w3.org/2000/svg">
<path d="M20 35.5555C28.5911 35.5555 35.5556 28.5911 35.5556 20C35.5556 11.4089 28.5911 4.44443 20 4.44443C11.4089 4.44443 4.44446 11.4089 4.44446 20C4.44446 28.5911 11.4089 35.5555 20 35.5555Z" fill="#C4CBD2"/>
<path d="M18.1689 8.88892H9.11113C8.4178 9.56447 7.78668 10.3111 7.22668 11.1111H18.16V8.88892H18.1689Z" fill="#091440"/>
<path d="M24.4445 8.88892V11.1111H28.8889H32.7645C32.2045 10.3111 31.5733 9.56447 30.88 8.88892H28.8889H24.4445Z" fill="#091440"/>
<path d="M29.9733 24.4444H34.9155C35.1288 23.7244 35.2977 22.9778 35.4044 22.2222H29.9733V24.4444Z" fill="#091440"/>
<path d="M18.3733 24.4444H24.4444V22.2222H18.3733H6.66659H4.60437C4.71104 22.9778 4.87993 23.7244 5.09326 24.4444H6.66659H18.3733Z" fill="#091440"/>
<path d="M13.3334 15.5556V17.7778H21.3778H35.3956C35.2889 17.0223 35.12 16.2756 34.9067 15.5556H21.3778H13.3334Z" fill="#091440"/>
<path d="M28.8888 28.8889H15.5555H14.2222V31.1111H15.5555H28.8888H29.9555H30.8799C31.5733 30.4356 32.2044 29.6889 32.7644 28.8889H29.9555H28.8888Z" fill="#091440"/>
<path d="M33.2711 21.1111H26.6666V25.5556H33.2711V24.4444V22.2222V21.1111Z" fill="white"/>
<path d="M11.1111 14.4445H5.46665C4.93331 15.84 4.59554 17.3334 4.47998 18.8889H11.1111V14.4445Z" fill="white"/>
<path d="M15.5555 12.2222H22.2222V7.7778H15.5555V8.88891V11.1111V12.2222Z" fill="white"/>
<path d="M12 32.0356V27.7778H6.52441C7.51997 29.4934 8.82664 31.0045 10.3733 32.2222H12V32.0356Z" fill="white"/>
<path d="M36.6863 7.80201L31.9723 3.08801L13.4557 21.6046L18.1697 26.3186L36.6863 7.80201Z" fill="#091440"/>
<path d="M11.1022 28.6667L18.1688 26.3111L13.4577 21.6L11.1022 28.6667Z" fill="white"/>
</svg>
