<svg width="14" height="24" viewBox="0 0 14 24" fill="none" xmlns="http://www.w3.org/2000/svg">
<g clip-path="url(#clip0_614:172)">
<path d="M9.3209 24H4.71645C4.52356 24 4.33689 23.958 4.16889 23.88C2.69422 23.202 0 20.328 0 13.878V2.442C0 1.104 1.20711 0.516 2.76267 0.276C2.79378 0.27 2.82489 0.27 2.856 0.264L4.78489 0.09C6.25956 -0.03 7.74667 -0.03 9.22756 0.09L11.2 0.264C12.7805 0.444 14.0062 1.086 14.0062 2.442V13.872C14.0062 19.746 11.368 23.178 9.87468 23.874C9.70045 23.958 9.51379 24 9.3209 24Z" fill="#C4CBD2"/>
<path d="M11.6853 10.5H2.35822C1.92889 10.5 1.57422 10.164 1.57422 9.744V5.256C1.58044 4.836 1.92889 4.5 2.35822 4.5H11.6791C12.1084 4.5 12.4631 4.836 12.4631 5.256V9.75C12.4631 10.164 12.1147 10.5 11.6853 10.5Z" fill="#091440"/>
<path d="M6.00457 14.25H1.8979C1.72368 14.25 1.58057 14.112 1.58057 13.944V12.306C1.58057 12.138 1.72368 12 1.8979 12H6.00457C6.17879 12 6.3219 12.138 6.3219 12.306V13.944C6.3219 14.112 6.17879 14.25 6.00457 14.25Z" fill="#091440"/>
<path d="M12.1271 14.25H8.02046C7.84624 14.25 7.70312 14.112 7.70312 13.944V12.306C7.70312 12.138 7.84624 12 8.02046 12H12.1271C12.3014 12 12.4445 12.138 12.4445 12.306V13.944C12.4445 14.112 12.3014 14.25 12.1271 14.25Z" fill="#091440"/>
</g>
<defs>
<clipPath id="clip0_614:172">
<rect width="14" height="24" fill="white"/>
</clipPath>
</defs>
</svg>
