<svg width="15" height="13" viewBox="0 0 15 13" fill="none" xmlns="http://www.w3.org/2000/svg">
<path d="M3.04168 3.04167L0 0H3.285L8.15164 4.86667H4.86667C4.21672 4.86667 3.60563 5.1198 3.14604 5.57939C2.68646 6.03897 2.43333 6.65005 2.43333 7.30002C2.43333 7.94997 2.68646 8.56106 3.14604 9.02064C3.60563 9.48023 4.21672 9.73335 4.86667 9.73335H6.08329L8.51663 12.1667H4.86667C2.17886 12.1667 0 9.98782 0 7.30002C0 5.32632 0.97333 3.73518 3.04168 3.04168V3.04167Z" fill="#091440"/>
<path d="M11.559 9.12502L14.6006 12.1667H11.3157L6.44899 7.30002H9.73399C10.3839 7.30002 10.995 7.04689 11.4546 6.58731C11.9142 6.12771 12.1673 5.51664 12.1673 4.86667C12.1673 4.21671 11.9142 3.60564 11.4546 3.14605C10.995 2.68646 10.3839 2.43334 9.73399 2.43334H8.51731L6.08398 0H9.73399C12.4218 0 14.6006 2.17888 14.6006 4.86667C14.6006 6.84037 13.6273 8.43152 11.559 9.12502V9.12502Z" fill="#091440"/>
</svg>
