<svg width="40" height="40" viewBox="0 0 40 40" fill="none" xmlns="http://www.w3.org/2000/svg">
<path d="M23.3156 37.7779H16.7378C16.4622 37.7779 16.1956 37.7156 15.9556 37.6001C13.8578 36.5956 10 32.329 10 22.7734V5.84008C10 3.84896 11.7244 2.98674 13.9467 2.6223C13.9911 2.61341 14.0356 2.61341 14.08 2.60452L16.8356 2.34674C18.9422 2.16896 21.0667 2.16896 23.1822 2.34674L26 2.60452C28.2578 2.87119 30.0089 3.8223 30.0089 5.83119V22.7645C30.0089 31.4667 26.24 36.5512 24.1067 37.5823C23.8578 37.7156 23.5911 37.7779 23.3156 37.7779Z" fill="#C4CBD2"/>
<path d="M26.6934 17.7779H13.3689C12.7556 17.7779 12.2489 17.2801 12.2489 16.6579V10.0001C12.2489 9.38676 12.7467 8.8801 13.3689 8.8801H26.6845C27.2978 8.8801 27.8045 9.37787 27.8045 10.0001V16.6579C27.8045 17.2801 27.3067 17.7779 26.6934 17.7779Z" fill="#091440"/>
<path d="M18.5777 23.3333H12.711C12.4621 23.3333 12.2577 23.1289 12.2577 22.88V20.4533C12.2577 20.2044 12.4621 20 12.711 20H18.5777C18.8266 20 19.031 20.2044 19.031 20.4533V22.88C19.031 23.1289 18.8266 23.3333 18.5777 23.3333Z" fill="#091440"/>
<path d="M27.3245 23.3333H21.4578C21.209 23.3333 21.0045 23.1289 21.0045 22.88V20.4533C21.0045 20.2044 21.209 20 21.4578 20H27.3245C27.5734 20 27.7778 20.2044 27.7778 20.4533V22.88C27.7778 23.1289 27.5734 23.3333 27.3245 23.3333Z" fill="#091440"/>
</svg>
