<svg width="40" height="40" viewBox="0 0 40 40" fill="none" xmlns="http://www.w3.org/2000/svg">
<path d="M22.4889 33.3334H17.5556C17.3512 33.3334 17.1467 33.2889 16.9689 33.2C15.3956 32.4445 12.5067 29.2445 12.5067 22.08V9.38669C12.5067 7.89336 13.7956 7.24447 15.4667 6.9778C15.5023 6.96891 15.5289 6.96891 15.5645 6.96891L17.6267 6.77336C19.2089 6.64002 20.8 6.64002 22.3823 6.77336L24.4978 6.96891C26.1867 7.16447 27.5023 7.88447 27.5023 9.38669V22.0889C27.5023 28.6134 24.6756 32.4267 23.0756 33.2089C22.8889 33.2889 22.6934 33.3334 22.4889 33.3334Z" fill="#C4CBD2"/>
<path d="M25.0133 18.3288H15.0311C14.5689 18.3288 14.1956 17.9555 14.1956 17.4933V12.5066C14.1956 12.0444 14.5689 11.6711 15.0311 11.6711H25.0222C25.4845 11.6711 25.8578 12.0444 25.8578 12.5066V17.4933C25.8578 17.9555 25.4845 18.3288 25.0133 18.3288Z" fill="#091440"/>
<path d="M18.9333 22.4978H14.5333C14.3467 22.4978 14.1956 22.3467 14.1956 22.16V20.3378C14.1956 20.1511 14.3467 20 14.5333 20H18.9333C19.12 20 19.2711 20.1511 19.2711 20.3378V22.16C19.2711 22.3467 19.12 22.4978 18.9333 22.4978Z" fill="#091440"/>
<path d="M25.4934 22.4978H21.0934C20.9067 22.4978 20.7556 22.3467 20.7556 22.16V20.3378C20.7556 20.1511 20.9067 20 21.0934 20H25.4934C25.6801 20 25.8312 20.1511 25.8312 20.3378V22.16C25.8312 22.3467 25.6801 22.4978 25.4934 22.4978Z" fill="#091440"/>
<path d="M28.4355 29.4578L28.4177 31.6711L29.2711 31.68C23.1022 37.1022 13.6977 36.8 7.89327 30.8622C4.95105 27.84 3.4755 23.9289 3.46661 20.0178H1.24438C1.25327 24.4889 2.94216 28.96 6.31105 32.4C12.9866 39.2267 23.8222 39.5378 30.8622 33.2267L30.8533 34.1689L33.0755 34.1956L33.1288 29.4844L28.4355 29.4578Z" fill="#091440"/>
<path d="M9.62668 10.5422L9.64446 8.32884L8.79113 8.31995C14.96 2.89772 24.3645 3.19995 30.1689 9.13773C33.12 12.1511 34.5867 16.0622 34.5956 19.9733H36.8178C36.8089 15.5022 35.12 11.0311 31.7511 7.59106C25.0756 0.764391 14.24 0.45328 7.20002 6.76439L7.2089 5.82217L4.98668 5.7955L4.93335 10.5066L9.62668 10.5422Z" fill="#091440"/>
</svg>
