<svg xmlns="http://www.w3.org/2000/svg" viewBox="0 0 20 20">
  <defs>
    <style>
      .cls-1 {
        fill: none;
      }

      .cls-2, .cls-4 {
        fill: #091440;
      }

      .cls-3 {
        fill: #c4cbd2;
      }

      .cls-4 {
        fill-rule: evenodd;
      }
    </style>
  </defs>
  <g id="Layer_2" data-name="Layer 2">
    <g id="icon">
      <g>
        <g>
          <rect class="cls-1" width="20" height="20"/>
          <g>
            <rect class="cls-2" x="1.11" y="3.02" width="17.78" height="13.97" rx="1.11"/>
            <rect class="cls-3" x="1.11" y="4.29" width="17.78" height="12.7" rx="1.06"/>
          </g>
        </g>
        <g>
          <path class="cls-4" d="M6.92,10.84c.77,0,1.12-.79,1.12-1.46,0-.84-.58-2.05-1.55-2.05-.77,0-1.11.79-1.11,1.46C5.38,9.62,6,10.84,6.92,10.84Z"/>
          <path class="cls-4" d="M10,10.63c-1.46,0-3.43,2.11-3.43,3.51,0,.76.62.88,1.23.88.79,0,1.44-.54,2.2-.54s1.48.53,2.34.53c.58,0,1.09-.19,1.09-.87,0-1.41-2-3.51-3.43-3.51Z"/>
          <path class="cls-4" d="M12,9.71c0,.58.31,1.18,1,1.18,1,0,1.65-1.16,1.65-2,0-.58-.31-1.18-1-1.18-.95,0-1.65,1.17-1.65,2Z"/>
          <path class="cls-4" d="M8.86,8.5c.16.64.7,1.32,1.44,1.13.94-.25,1.19-1.57,1-2.38-.17-.64-.7-1.32-1.44-1.13C8.9,6.37,8.64,7.69,8.86,8.5Z"/>
        </g>
      </g>
    </g>
  </g>
</svg>
