<svg viewBox="0 0 16 16" xmlns="http://www.w3.org/2000/svg"><path d="m11.43 8.16v.29a1.7 1.7 0 0 0 0-.29z" fill="none"/><g fill="#8795a2"><path d="m15.42 5a8.09 8.09 0 0 1 .5 1.88 7.93 7.93 0 0 0 -.5-1.88z"/><path d="m7.32 4.64a3.44 3.44 0 0 1 1.2 0 3.34 3.34 0 0 0 -1.2 0z"/><path d="m11.43 8.16v-.06a3.44 3.44 0 0 1 0 .35c-.02-.1-.01-.19 0-.29z"/><path d="m.57 11a8.09 8.09 0 0 1 -.49-1.9 7.93 7.93 0 0 0 .49 1.9z"/></g><path d="m11.37 15.25a8 8 0 0 0 4.14-4.51l-4.29-1.56a3.45 3.45 0 0 1 -1.88 2h.1z" fill="#fff"/><path d="m15.51 10.74h.01z" fill="#8795a2"/><path d="m.75 11.37a8 8 0 0 0 4.5 4.14l.46-1.25 1.1-3a3.45 3.45 0 0 1 -2-1.88v.1z" fill="#fff"/><path d="m8.68 11.36a3.44 3.44 0 0 1 -1.2 0 3.34 3.34 0 0 0 1.2 0z" fill="#8795a2"/><path d="m4.64 8.68a3.44 3.44 0 0 1 0-1.2 3.34 3.34 0 0 0 0 1.2z" fill="#8795a2"/><path d="m15.25 4.62a8 8 0 0 0 -4.49-4.13l-.76 2.14-.81 2.15a3.45 3.45 0 0 1 2 1.88v-.11z" fill="#fff"/><path d="m4.62.75a8 8 0 0 0 -4.13 4.5l1.34.49 3 1.08a3.45 3.45 0 0 1 1.88-2h-.11z" fill="#fff"/><path d="m5 .57a8.09 8.09 0 0 1 1.9-.49 7.93 7.93 0 0 0 -1.9.49z" fill="#8795a2"/></svg>