<svg xmlns="http://www.w3.org/2000/svg" viewBox="0 0 20 20"><defs><style>.a{fill:#c4cbd2;}.b{fill:#3c5872;}.c{fill:none;}</style></defs><g transform="translate(-1074 -195)"><g transform="translate(1076.486 196.193)"><path class="a" d="M49.6,465.705a7.519,7.519,0,1,0,8.145-7.489v-1.283H59V455.6H55.239v1.333h1.253v1.283A7.507,7.507,0,0,0,49.6,465.705Zm3.088,4.426a6.268,6.268,0,1,1,4.431,1.835A6.226,6.226,0,0,1,52.688,470.131Z" transform="translate(-49.6 -455.6)"/><path class="b" d="M109.525,562.112h-5.013V557.1a5.013,5.013,0,1,0,5.013,5.013Z" transform="translate(-96.999 -552.012)"/></g><rect class="c" width="20" height="20" transform="translate(1074 195)"/></g></svg>