<svg xmlns="http://www.w3.org/2000/svg" width="16" height="16" viewBox="0 0 16 16">
  <g id="ticket_2" transform="translate(-821.1 -563.3)">
    <g id="Group_1077" data-name="Group 1077" transform="translate(506 562)">
      <path id="XMLID_1_" d="M326.2,1.3a3,3,0,1,1-6,0h-2.7v16h2.7a3,3,0,1,1,6,0h2.7V1.3Z" fill="#99c1e3"/>
      <path id="Path_462" data-name="Path 462" d="M325.7,6.7a3.541,3.541,0,0,0-2.6-1,3.685,3.685,0,0,0-3.5,3.5,3.541,3.541,0,0,0,1,2.6,3.631,3.631,0,0,0,2.6,1.1.4.4,0,0,0,0-.8,2.878,2.878,0,0,1-2.1-.9,3.227,3.227,0,0,1-.8-2.1,2.862,2.862,0,0,1,2.8-2.8,3.227,3.227,0,0,1,2.1.8,3.264,3.264,0,0,1,.9,2.2.5.5,0,0,1-1,0,1.806,1.806,0,1,0-1.8,1.6,1.75,1.75,0,0,0,1.4-.7,1.268,1.268,0,0,0,.9.4,1.324,1.324,0,0,0,1.3-1.3h0A4.823,4.823,0,0,0,325.7,6.7Zm-2.6,3.7a1.1,1.1,0,1,1,1.1-1.1A1.11,1.11,0,0,1,323.1,10.4Z" fill="#436ec3"/>
    </g>
    <rect id="Rectangle_841" data-name="Rectangle 841" width="16" height="16" transform="translate(821.1 563.3)" fill="none"/>
  </g>
</svg>
