<svg xmlns="http://www.w3.org/2000/svg" viewBox="0 0 400 400"><defs><style>.cls-1{fill:#8795a2;}.cls-2{fill:#18173f;}.cls-3{fill:none;}</style></defs><title>voting-address</title><g id="Layer_2" data-name="Layer 2"><g id="design"><path id="_Path_" data-name="&lt;Path&gt;" class="cls-1" d="M276.22.45a76.2,76.2,0,1,1-152.41,0c0-.15,0-.3,0-.45H56.94V400h66.88a76.2,76.2,0,0,1,152.41,0h66.84V0H276.21C276.21.15,276.22.3,276.22.45Z"/><path class="cls-2" d="M262.7,135.88a88.86,88.86,0,0,0-65.21-25.41c-46.85,1.27-86,40.44-87.29,87.26A89.86,89.86,0,0,0,200,290.15a9,9,0,0,0,0-18,71.91,71.91,0,0,1-71.9-73.92c1-37.47,32.34-68.79,69.81-69.81,19.53-.5,37.19,7.71,52.15,20.35,23,19.35,21.76,56,21.76,56a13.48,13.48,0,1,1-27,0s3.86-47.27-44.94-49.43c-25-1.1-44.94,20.17-44.94,44.94a44.82,44.82,0,0,0,81,26.57,31.43,31.43,0,0,0,53.82-22.08v-4.56A88.71,88.71,0,0,0,262.7,135.88ZM200,227.24a27,27,0,1,1,27-27A27,27,0,0,1,200,227.24Z"/><rect class="cls-3" width="400" height="400"/></g></g></svg>