<svg viewBox="0 0 30 30" xmlns="http://www.w3.org/2000/svg"><path d="m26.633 330h20.867v-.015l.583.007 3.35-4.992h-5v2.467h-4.652a4.441 4.441 0 0 0 -7.36 0h-4.654v-2.467h-1.667l-3.35 5z" fill="#091440" transform="translate(-23.1 -303.333)"/><path d="m104.655 70.8a4.441 4.441 0 0 1 7.36 0h4.652v-20.8h-3.894s0 .019 0 .027a4.439 4.439 0 1 1 -8.877 0c0-.009 0-.027 0-.027h-3.896v20.8zm3.679-14.119a4.988 4.988 0 1 1 -4.987 4.988 4.988 4.988 0 0 1 4.986-4.988z" fill="#c4cbd2" transform="translate(-93.333 -46.667)"/><circle cx="4.988" cy="4.988" fill="#18173f" r="4.988" transform="matrix(.70710678 -.70710678 .70710678 .70710678 7.946 15.002)"/><path d="m0 0h30v30h-30z" fill="none"/></svg>