<svg xmlns="http://www.w3.org/2000/svg" viewBox="0 0 30 30"><defs><style>.a{fill:#091440;}.b{fill:#c4cbd2;}.c{fill:#18173f;}.d{fill:none;}</style></defs><g transform="translate(-793 -244)"><path class="a" d="M26.633,330H47.5v-.015l.583.007L51.433,325h-5v2.467H41.781a4.441,4.441,0,0,0-7.36,0H29.767V325H28.1l-3.35,5L26.633,330Z" transform="translate(769.9 -59.333)"/><g transform="translate(793 244)"><g transform="translate(6.667 3.333)"><path class="b" d="M104.655,70.8a4.441,4.441,0,0,1,7.36,0h4.652V50h-3.894s0,.019,0,.027a4.439,4.439,0,1,1-8.877,0c0-.009,0-.027,0-.027H100V70.8Zm3.679-14.119a4.988,4.988,0,1,1-4.987,4.988A4.988,4.988,0,0,1,108.333,56.681Z" transform="translate(-100 -50)"/></g><circle class="c" cx="4.988" cy="4.988" r="4.988" transform="translate(7.946 15.002) rotate(-45)"/><rect class="d" width="30" height="30"/></g></g></svg>