<svg enable-background="new 0 0 40 36" height="36" viewBox="0 0 40 36" width="40" xmlns="http://www.w3.org/2000/svg"><g opacity=".75"><path d="m.031 3.868c.008-.041.012-.084.02-.123-.008.039-.016.082-.02.123z" fill="#8997a5"/><path d="m3.43 6.599h30.852v-2.284c0-1.885-1.544-3.428-3.431-3.428h-27.421c-1.691 0-3.105 1.24-3.379 2.855.273 1.616 1.687 2.857 3.379 2.857z" fill="#219672"/><path d="m.016 4.009c.004-.037.007-.072.011-.108-.004.036-.007.071-.011.108z" fill="#8997a5"/><path d="m.004 4.157c0-.025.004-.053.004-.08 0 .027-.004.055-.004.08z" fill="#8997a5"/><path d="m36.57 6.599h-2.285-.004-30.851c-1.691 0-3.105-1.24-3.379-2.855v.002c-.008.039-.012.082-.02.123-.004.009-.004.021-.004.032-.004.036-.007.071-.011.108-.004.021-.004.045-.008.068 0 .027-.004.055-.004.08-.004.053-.004.106-.004.158v5.711 15.945 5.711c0 1.887 1.543 3.43 3.43 3.43h33.14c1.887 0 3.43-1.543 3.43-3.43v-3.682c-3.945 0-7.141-3.197-7.141-7.143s3.195-7.144 7.141-7.144v-3.689c0-1.882-1.543-3.425-3.43-3.425z" fill="#2ed8a3"/><path d="m32.859 20.857c0 3.945 3.195 7.144 7.141 7.144v-.183-2.856-8.389-2.857c-3.945 0-7.141 3.197-7.141 7.141z" fill="#219672"/></g></svg>