<svg viewBox="0 0 20 20" xmlns="http://www.w3.org/2000/svg"><path d="m10 0a10 10 0 1 1 -10 10 10 10 0 0 1 10-10z" fill="#091440"/><g transform="translate(2 2)"><circle cx="8.007" cy="7.997" fill="#fff" r=".889"/><path d="m38.58 75.2a7.109 7.109 0 0 0 -6.88 5.326 7.107 7.107 0 0 0 13.76 0 7.106 7.106 0 0 0 -6.88-5.326zm0 8.885a3.556 3.556 0 1 1 1.4-6.827 1.334 1.334 0 1 0 1.874 1.874 3.559 3.559 0 0 1 -3.271 4.953z" fill="#fff" transform="translate(-30.573 -72.526)"/><path d="m130.981 127.763a1.334 1.334 0 0 1 -.828-2.379 3.557 3.557 0 1 0 2.158 3.271 3.581 3.581 0 0 0 -.284-1.4 1.34 1.34 0 0 1 -1.046.508zm-2.226 1.774a.889.889 0 1 1 .889-.889.889.889 0 0 1 -.888.889z" fill="#091440" transform="translate(-120.748 -120.652)"/><path d="m0 0h16v16h-16z" fill="none"/></g></svg>