<svg xmlns="http://www.w3.org/2000/svg" viewBox="0 0 20 20"><defs><style>.a{fill:#091440;}.b{fill:#fff;}.c{fill:none;}</style></defs><g transform="translate(-22 -20)"><path class="a" d="M10,0A10,10,0,1,1,0,10,10,10,0,0,1,10,0Z" transform="translate(22 20)"/><g transform="translate(24 22)"><g transform="translate(7.118 7.108)"><circle class="b" cx="0.889" cy="0.889" r="0.889"/></g><g transform="translate(1.127 2.674)"><path class="b" d="M38.58,75.2a7.109,7.109,0,0,0-6.88,5.326,7.107,7.107,0,0,0,13.76,0A7.106,7.106,0,0,0,38.58,75.2Zm0,8.885a3.556,3.556,0,1,1,1.4-6.827,1.334,1.334,0,1,0,1.874,1.874,3.559,3.559,0,0,1-3.271,4.953Z" transform="translate(-31.7 -75.2)"/></g><path class="a" d="M130.981,127.763a1.334,1.334,0,0,1-.828-2.379,3.557,3.557,0,1,0,2.158,3.271,3.581,3.581,0,0,0-.284-1.4A1.34,1.34,0,0,1,130.981,127.763Zm-2.226,1.774a.889.889,0,1,1,.889-.889A.889.889,0,0,1,128.756,129.537Z" transform="translate(-120.748 -120.652)"/><rect class="c" width="16" height="16"/></g></g></svg>