<svg xmlns="http://www.w3.org/2000/svg" viewBox="4973.617 1319.277 19.632 18.59"><defs><style>.a{fill:#2971ff;}.b{opacity:0.39;}.c{fill:#2ed6a1;}.d{opacity:0.21;}.e{fill:#fff;}.f{opacity:0.2;}</style></defs><g transform="translate(4196 850)"><g transform="translate(777.617 469.277)"><path class="a" d="M41.4,1.331A1.032,1.032,0,0,0,42.431.3h1.2a1.031,1.031,0,1,0,2.062,0h1.182a1.031,1.031,0,1,0,2.062,0h1.2A1.031,1.031,0,1,0,52.2.3h1.2a1.032,1.032,0,0,0,1.031,1.031L57,8.78H43.969Z" transform="translate(-37.721 -0.273)"/><path class="b" d="M41.4,1.331,43.969,8.78H54.155V1.331A1.032,1.032,0,0,1,53.124.3h-.942a1.032,1.032,0,0,1-1.031,1.031.547.547,0,0,1-.124-.009.63.63,0,0,1-.124.009A1.032,1.032,0,0,1,49.871.3h-.942A1.032,1.032,0,0,1,47.9,1.331a.547.547,0,0,1-.124-.009.63.63,0,0,1-.124.009A1.032,1.032,0,0,1,46.618.3h-.942a1.032,1.032,0,0,1-1.031,1.031.547.547,0,0,1-.124-.009.63.63,0,0,1-.124.009A1.032,1.032,0,0,1,43.364.3h-.942A1.024,1.024,0,0,1,41.4,1.331Z" transform="translate(-37.721 -0.273)"/><g transform="translate(3.434 13.098)"><path class="c" d="M42.6,147.406a2.131,2.131,0,0,0-1.956.471,2.758,2.758,0,0,0-.622,1.689c-.027.276-.044.56-.062.836a3.351,3.351,0,0,1-.08.676,1.074,1.074,0,0,1-.044.16c-.044.16.018-.044-.018.062-.018.044-.053.08-.071.124.089-.2-.027.036-.018.009.009-.053.089-.018-.053.009s.089,0-.053,0a.5.5,0,0,1-.178-.018c-.809-.151-1.156,1.093-.338,1.236a1.61,1.61,0,0,0,1.733-.56,3.2,3.2,0,0,0,.409-1.6,5.809,5.809,0,0,1,.2-1.511c.027-.062,1.222-3.548,1.329-3.69-.044.062.1-.629.081-.62.018-.018.341,1.149.217,1.193L42.6,144.8v.424s.236-.554.343-.545c.347.053.022,3.866.128,3.5a.662.662,0,0,0-.471-.773Z" transform="translate(-38.642 -147.358)"/></g><g transform="translate(11.345 12.906)"><path class="c" d="M127.76,146.12c.96,1.324.044,4.32,2.267,4.747.809.151,1.147-1.084.338-1.236a.608.608,0,0,1-.524-.436,5.034,5.034,0,0,1-.3-1.262,5.6,5.6,0,0,0-.676-2.462c-.471-.658-1.591-.018-1.1.649Z" transform="translate(-127.639 -145.196)"/></g><g transform="translate(15.291 0)"><path class="c" d="M172.228,4.141c1.253.987,3.093-.1,3.769-1.324.56-1.022.7-3.075-1-2.791-.818.133-.48,1.369.329,1.244-.053.009-.116-.044-.16-.071-.107-.053,0-.089-.044-.018-.018.036-.018.276-.036.356a1.778,1.778,0,0,1-.284.773,2.857,2.857,0,0,1-.809.72c-.187.116-.649.391-.871.213a.661.661,0,0,0-.907.009.631.631,0,0,0,.018.889Z" transform="translate(-172.036 0.001)"/></g><path class="c" d="M48.6,11.331v-10A1.032,1.032,0,0,1,47.573.3h-1.2a1.031,1.031,0,0,1-2.062,0h-1.2a1.031,1.031,0,0,1-2.062,0H39.875a1.031,1.031,0,1,1-2.062,0H36.631A1.032,1.032,0,0,1,35.6,1.331V14.762H46.835L48.364,13.6Z" transform="translate(-32.436 -0.273)"/><g transform="translate(0 3.743)"><path class="c" d="M3.375,42.152a2.8,2.8,0,0,0-2.364.6,3.175,3.175,0,0,0-.951,1.9C-.118,45.823.1,47.779,1.5,48.143a1.493,1.493,0,0,0,1.1-.151.849.849,0,0,0,.4-.951c-.1-.364-.373-.427-.649-.578a.641.641,0,0,0-.64,1.111,1.208,1.208,0,0,0,.267.116c.231.062-.036.062-.151-.16-.027-.107-.062-.222-.089-.329v.027c.1-.124.2-.258.293-.382-.16.089.009.009-.089.044-.036.018-.178.08-.018.018-.018.009-.2-.009-.089.009s-.062-.018-.08-.027c.142.107.018.009,0-.018-.08-.062.089.089-.044-.044-.036-.036-.062-.071-.1-.107.1.124,0,0-.018-.036-.036-.053-.169-.356-.124-.231a3.449,3.449,0,0,1-.124-.4,2.31,2.31,0,0,1-.071-.764A2.515,2.515,0,0,1,1.7,43.859a1.34,1.34,0,0,1,1.324-.471.665.665,0,0,0,.791-.453.643.643,0,0,0-.444-.782Z" transform="translate(-0.007 -42.109)"/></g><g class="d" transform="translate(0.417 4.532)"><path class="e" d="M5.534,51.051A3.209,3.209,0,0,0,4.7,53.14a.213.213,0,0,0,.427,0,2.726,2.726,0,0,1,.711-1.787c.187-.2-.116-.5-.3-.3Z" transform="translate(-4.698 -50.988)"/></g><g class="d" transform="translate(17.182 1.977)"><path class="e" d="M193.516,24.024a1.96,1.96,0,0,0,1.751-1.52.213.213,0,0,0-.409-.116c-.187.578-.667,1.244-1.342,1.2-.276-.009-.267.418,0,.436Z" transform="translate(-193.312 -22.241)"/></g><path class="f" d="M163.529,126.676l.24-2.276L162,127.831Z" transform="translate(-147.601 -113.342)"/><path d="M92.528,67.6a1.01,1.01,0,0,0-1.173.151c-.151.16-.249.347-.382.516-.276.338-2.222.924-1.1,1.618a1.891,1.891,0,0,0,1.022.08,3.118,3.118,0,0,0,1.413-.391A1.22,1.22,0,0,0,92.528,67.6Z" transform="translate(-81.569 -61.48)"/></g><g transform="translate(783.332 472.7)"><path d="M65.456,39.078a.578.578,0,1,1-.578-.578A.588.588,0,0,1,65.456,39.078Z" transform="translate(-64.3 -38.5)"/><path class="e" d="M71.1,41.751a.151.151,0,1,1-.151-.151A.156.156,0,0,1,71.1,41.751Z" transform="translate(-70.222 -41.324)"/><path class="e" d="M73.494,40.928c-.009.009-.062-.009-.1-.053s-.071-.089-.053-.1.062.009.1.053S73.512,40.919,73.494,40.928Z" transform="translate(-72.534 -40.573)"/><path d="M141.356,39.078a.578.578,0,1,1-.578-.578A.588.588,0,0,1,141.356,39.078Z" transform="translate(-133.453 -38.5)"/><path class="e" d="M147,41.751a.151.151,0,1,1-.151-.151A.162.162,0,0,1,147,41.751Z" transform="translate(-139.376 -41.324)"/><path class="e" d="M149.294,40.928c-.009.009-.062-.009-.1-.053s-.071-.089-.053-.1.062.009.1.053S149.312,40.919,149.294,40.928Z" transform="translate(-141.596 -40.573)"/></g></g></svg>