<svg viewBox="4973.617 1319.277 19.632 18.59" xmlns="http://www.w3.org/2000/svg"><path d="m41.4 1.331a1.032 1.032 0 0 0 1.031-1.031h1.2a1.031 1.031 0 1 0 2.062 0h1.182a1.031 1.031 0 1 0 2.062 0h1.2a1.031 1.031 0 1 0 2.063 0h1.2a1.032 1.032 0 0 0 1.031 1.031l2.569 7.449h-13.031z" fill="#2971ff" transform="translate(4935.896 1319.004)"/><path d="m41.4 1.331 2.569 7.449h10.186v-7.449a1.032 1.032 0 0 1 -1.031-1.031h-.942a1.032 1.032 0 0 1 -1.031 1.031.547.547 0 0 1 -.124-.009.63.63 0 0 1 -.124.009 1.032 1.032 0 0 1 -1.032-1.031h-.942a1.032 1.032 0 0 1 -1.029 1.031.547.547 0 0 1 -.124-.009.63.63 0 0 1 -.124.009 1.032 1.032 0 0 1 -1.034-1.031h-.942a1.032 1.032 0 0 1 -1.031 1.031.547.547 0 0 1 -.124-.009.63.63 0 0 1 -.124.009 1.032 1.032 0 0 1 -1.033-1.031h-.942a1.024 1.024 0 0 1 -1.022 1.031z" opacity=".39" transform="translate(4935.896 1319.004)"/><g fill="#2ed6a1"><path d="m42.6 147.406a2.131 2.131 0 0 0 -1.956.471 2.758 2.758 0 0 0 -.622 1.689c-.027.276-.044.56-.062.836a3.351 3.351 0 0 1 -.08.676 1.074 1.074 0 0 1 -.044.16c-.044.16.018-.044-.018.062-.018.044-.053.08-.071.124.089-.2-.027.036-.018.009.009-.053.089-.018-.053.009s.089 0-.053 0a.5.5 0 0 1 -.178-.018c-.809-.151-1.156 1.093-.338 1.236a1.61 1.61 0 0 0 1.733-.56 3.2 3.2 0 0 0 .409-1.6 5.809 5.809 0 0 1 .2-1.511c.027-.062 1.222-3.548 1.329-3.69-.044.062.1-.629.081-.62.018-.018.341 1.149.217 1.193l-.476-1.072v.424s.236-.554.343-.545c.347.053.022 3.866.128 3.5a.662.662 0 0 0 -.471-.773z" transform="translate(4938.409 1185.017)"/><path d="m127.76 146.12c.96 1.324.044 4.32 2.267 4.747.809.151 1.147-1.084.338-1.236a.608.608 0 0 1 -.524-.436 5.034 5.034 0 0 1 -.3-1.262 5.6 5.6 0 0 0 -.676-2.462c-.471-.658-1.591-.018-1.1.649z" transform="translate(4857.323 1186.987)"/><path d="m172.228 4.141c1.253.987 3.093-.1 3.769-1.324.56-1.022.7-3.075-1-2.791-.818.133-.48 1.369.329 1.244-.053.009-.116-.044-.16-.071-.107-.053 0-.089-.044-.018-.018.036-.018.276-.036.356a1.778 1.778 0 0 1 -.284.773 2.857 2.857 0 0 1 -.809.72c-.187.116-.649.391-.871.213a.661.661 0 0 0 -.907.009.631.631 0 0 0 .018.889z" transform="translate(4816.872 1319.278)"/><path d="m48.6 11.331v-10a1.032 1.032 0 0 1 -1.027-1.031h-1.2a1.031 1.031 0 0 1 -2.062 0h-1.2a1.031 1.031 0 0 1 -2.062 0h-1.174a1.031 1.031 0 1 1 -2.062 0h-1.182a1.032 1.032 0 0 1 -1.031 1.031v13.431h11.235l1.529-1.162z" transform="translate(4941.181 1319.004)"/><path d="m3.375 42.152a2.8 2.8 0 0 0 -2.364.6 3.175 3.175 0 0 0 -.951 1.9c-.178 1.171.04 3.127 1.44 3.491a1.493 1.493 0 0 0 1.1-.151.849.849 0 0 0 .4-.951c-.1-.364-.373-.427-.649-.578a.641.641 0 0 0 -.64 1.111 1.208 1.208 0 0 0 .267.116c.231.062-.036.062-.151-.16-.027-.107-.062-.222-.089-.329v.027c.1-.124.2-.258.293-.382-.16.089.009.009-.089.044-.036.018-.178.08-.018.018-.018.009-.2-.009-.089.009s-.062-.018-.08-.027c.142.107.018.009 0-.018-.08-.062.089.089-.044-.044-.036-.036-.062-.071-.1-.107.1.124 0 0-.018-.036-.036-.053-.169-.356-.124-.231a3.449 3.449 0 0 1 -.124-.4 2.31 2.31 0 0 1 -.071-.764 2.515 2.515 0 0 1 .426-1.431 1.34 1.34 0 0 1 1.324-.471.665.665 0 0 0 .791-.453.643.643 0 0 0 -.444-.782z" transform="translate(4973.61 1280.911)"/></g><path d="m5.534 51.051a3.209 3.209 0 0 0 -.834 2.089.213.213 0 0 0 .427 0 2.726 2.726 0 0 1 .711-1.787c.187-.2-.116-.5-.3-.3z" fill="#fff" opacity=".21" transform="translate(4969.336 1272.821)"/><path d="m193.516 24.024a1.96 1.96 0 0 0 1.751-1.52.213.213 0 0 0 -.409-.116c-.187.578-.667 1.244-1.342 1.2-.276-.009-.267.418 0 .436z" fill="#fff" opacity=".21" transform="translate(4797.487 1299.013)"/><path d="m163.529 126.676.24-2.276-1.769 3.431z" opacity=".2" transform="translate(4826.016 1205.935)"/><path d="m92.528 67.6a1.01 1.01 0 0 0 -1.173.151c-.151.16-.249.347-.382.516-.276.338-2.222.924-1.1 1.618a1.891 1.891 0 0 0 1.022.08 3.118 3.118 0 0 0 1.413-.391 1.22 1.22 0 0 0 .22-1.974z" transform="translate(4892.048 1257.797)"/><path d="m65.456 39.078a.578.578 0 1 1 -.578-.578.588.588 0 0 1 .578.578z" transform="translate(4915.032 1284.2)"/><path d="m71.1 41.751a.151.151 0 1 1 -.151-.151.156.156 0 0 1 .151.151z" fill="#fff" transform="translate(4909.11 1281.376)"/><path d="m73.494 40.928c-.009.009-.062-.009-.1-.053s-.071-.089-.053-.1.062.009.1.053.071.091.053.1z" fill="#fff" transform="translate(4906.798 1282.127)"/><path d="m141.356 39.078a.578.578 0 1 1 -.578-.578.588.588 0 0 1 .578.578z" transform="translate(4845.879 1284.2)"/><g fill="#fff"><path d="m147 41.751a.151.151 0 1 1 -.151-.151.162.162 0 0 1 .151.151z" transform="translate(4839.956 1281.376)"/><path d="m149.294 40.928c-.009.009-.062-.009-.1-.053s-.071-.089-.053-.1.062.009.1.053.071.091.053.1z" transform="translate(4837.736 1282.127)"/></g></svg>