<svg xmlns="http://www.w3.org/2000/svg" viewBox="0 0 1160 800"><defs><style>.cls-1{fill:#fff;}.cls-2{fill:#2f74fb;}.cls-3{fill:#091440;}.cls-4,.cls-5{fill:#ed6d47;}.cls-4{fill-rule:evenodd;}.cls-6{fill:none;}</style></defs><g id="Layer_2" data-name="Layer 2"><g id="_" data-name="######"><rect class="cls-1" width="1160" height="800"/><g id="repetitive"><rect id="BG" class="cls-2" x="45.6" y="45.41" width="1069.4" height="709.17" rx="17.06"/></g><g id="bg2"><path id="BG-2" data-name="BG" class="cls-3" d="M59,45.41H1101a14,14,0,0,1,14,14v353a0,0,0,0,1,0,0H45a0,0,0,0,1,0,0v-353a14,14,0,0,1,14-14Z"/><rect class="cls-3" x="45" y="432.27" width="1070" height="25.99"/><rect class="cls-2" x="45" y="382.27" width="1070" height="10"/><rect class="cls-2" x="45" y="352.27" width="1070" height="10"/></g><path class="cls-4" d="M85,581.42H95v10H85Zm60-10h10v-10h10v-10h10v-30H165v20H155v-20H145v-10H125v10h20v10H95v-10h20v-10H95v10H85v20H75v-20H65v30H75v10H85v10H95v10h10v-10h30v10h10Zm10,10v10H145v-10Zm-60-30h10v10H95Zm40,0h10v10H135Z"/><path class="cls-4" d="M1060.82,534.54h10v10h-10Zm60-10h10v-10h10v-10h10v-30h-10v20h-10v-20h-10v-10h-20v10h20v10h-50v-10h20v-10h-20v10h-10v20h-10v-20h-10v30h10v10h10v10h10v10h10v-10h30v10h10Zm10,10v10h-10v-10Zm-60-30h10v10h-10Zm40,0h10v10h-10Z"/><path class="cls-4" d="M196.72,779.48h10v10h-10Zm60-10h10v-10h10v-10h10v-30h-10v20h-10v-20h-10v-10h-20v10h20v10h-50v-10h20v-10h-20v10h-10v20h-10v-20h-10v30h10v10h10v10h10v10h10v-10h30v10h10Zm10,10v10h-10v-10Zm-60-30h10v10h-10Zm40,0h10v10h-10Z"/><path class="cls-4" d="M970.82,665h10v10h-10Zm60-10h10V645h10V635h10V605h-10v20h-10V605h-10V595h-20v10h20v10h-50V605h20V595h-20v10h-10v20h-10V605h-10v30h10v10h10v10h10v10h10V655h30v10h10Zm10,10v10h-10V665Zm-60-30h10v10h-10Zm40,0h10v10h-10Z"/><rect class="cls-5" x="1125" y="723.36" width="10" height="10"/><path class="cls-5" d="M1160,673.36h-25v-10h-10v20h-10v-20h-10v30h10v10h10v10h10v10h10v-10h15Zm-25,30v-10h10v10Z"/><rect class="cls-5" x="1135" y="653.36" width="20" height="10"/><circle class="cls-3" cx="587.81" cy="415.32" r="172.69"/><path class="cls-3" d="M586.82,660.28A262.09,262.09,0,0,1,427.35,606.8a266.47,266.47,0,0,1-94-135.4,3.72,3.72,0,1,1,7.13-2.12,259,259,0,0,0,91.37,131.58,254.68,254.68,0,0,0,155,52c141.71,0,257-115.28,257-257a3.73,3.73,0,1,1,7.45,0C851.26,541.66,732.63,660.28,586.82,660.28Z"/><path class="cls-2" d="M326.12,399.57a3.73,3.73,0,0,1-3.73-3.72C322.39,250,441,131.42,586.82,131.42A262.1,262.1,0,0,1,746.3,184.9a266.44,266.44,0,0,1,94,135.39,3.73,3.73,0,0,1-7.14,2.13A259,259,0,0,0,741.8,190.83a254.79,254.79,0,0,0-155-52c-141.7,0-257,115.29-257,257A3.73,3.73,0,0,1,326.12,399.57Z"/><path class="cls-3" d="M583.1,623.78a3.72,3.72,0,0,1,3.72-3.72h0a3.72,3.72,0,0,1,3.72,3.72h0a3.72,3.72,0,0,1-3.72,3.73h0A3.72,3.72,0,0,1,583.1,623.78Zm-12.91,3.13a3.72,3.72,0,0,1-3.45-4h0a3.74,3.74,0,0,1,4-3.46h0a3.73,3.73,0,0,1,3.44,4h0a3.72,3.72,0,0,1-3.71,3.46h0A1.23,1.23,0,0,1,570.19,626.91Zm-16.55-1.77a3.74,3.74,0,0,1-3.16-4.22h0a3.74,3.74,0,0,1,4.22-3.15h0a3.72,3.72,0,0,1,3.16,4.21h0a3.74,3.74,0,0,1-3.68,3.21h0A3.29,3.29,0,0,1,553.64,625.14Zm-16.37-2.95h0a3.73,3.73,0,0,1-2.84-4.44h0a3.71,3.71,0,0,1,4.42-2.84h0a3.72,3.72,0,0,1,2.84,4.44h0a3.72,3.72,0,0,1-3.63,2.93h0A3.42,3.42,0,0,1,537.27,622.19Zm-16.13-4.13a3.73,3.73,0,0,1-2.52-4.63h0a3.73,3.73,0,0,1,4.63-2.52h0a3.74,3.74,0,0,1,2.52,4.64h0a3.74,3.74,0,0,1-3.58,2.66h0A3.46,3.46,0,0,1,521.14,618.06Zm-15.79-5.28a3.74,3.74,0,0,1-2.18-4.8h0a3.73,3.73,0,0,1,4.8-2.18h0a3.72,3.72,0,0,1,2.17,4.8h0a3.71,3.71,0,0,1-3.48,2.41h0A3.73,3.73,0,0,1,505.35,612.78ZM490,606.35a3.73,3.73,0,0,1-1.82-4.94h0a3.71,3.71,0,0,1,4.93-1.83h0a3.73,3.73,0,0,1,1.84,4.94h0a3.73,3.73,0,0,1-3.38,2.18h0A3.81,3.81,0,0,1,490,606.35Zm-14.87-7.52h0a3.73,3.73,0,0,1-1.46-5.06h0a3.72,3.72,0,0,1,5.05-1.46h0a3.73,3.73,0,0,1,1.48,5.06h0a3.72,3.72,0,0,1-3.28,1.92h0A3.79,3.79,0,0,1,475.1,598.83Zm-14.28-8.56a3.74,3.74,0,0,1-1.11-5.16h0a3.74,3.74,0,0,1,5.16-1.09h0a3.73,3.73,0,0,1,1.1,5.16h0a3.74,3.74,0,0,1-3.13,1.7h0A3.73,3.73,0,0,1,460.82,590.27Zm-13.63-9.57a3.72,3.72,0,0,1-.73-5.21h0a3.72,3.72,0,0,1,5.21-.73h0a3.72,3.72,0,0,1,.73,5.21h0a3.73,3.73,0,0,1-3,1.49h0A3.69,3.69,0,0,1,447.19,580.7Zm-12.92-10.52h0a3.72,3.72,0,0,1-.34-5.26h0a3.75,3.75,0,0,1,5.26-.34h0a3.75,3.75,0,0,1,.34,5.26h0a3.74,3.74,0,0,1-2.8,1.27h0A3.67,3.67,0,0,1,434.27,570.18Zm-12.13-11.39a3.75,3.75,0,0,1,0-5.28h0a3.75,3.75,0,0,1,5.28,0h0a3.72,3.72,0,0,1,0,5.26h0a3.72,3.72,0,0,1-2.63,1.09h0A3.74,3.74,0,0,1,422.14,558.79Zm-11.27-12.25a3.72,3.72,0,0,1,.4-5.26h0a3.73,3.73,0,0,1,5.26.4h0a3.73,3.73,0,0,1-.41,5.26h0a3.71,3.71,0,0,1-2.42.9h0A3.75,3.75,0,0,1,410.87,546.54Zm-10.37-13h0a3.73,3.73,0,0,1,.77-5.21h0a3.73,3.73,0,0,1,5.22.79h0a3.72,3.72,0,0,1-.78,5.2h0a3.73,3.73,0,0,1-2.22.73h0A3.74,3.74,0,0,1,400.5,533.52Zm-9.42-13.72a3.73,3.73,0,0,1,1.15-5.14h0a3.71,3.71,0,0,1,5.14,1.15h0a3.72,3.72,0,0,1-1.15,5.14h0a3.8,3.8,0,0,1-2,.58h0A3.74,3.74,0,0,1,391.08,519.8Zm-8.4-14.36a3.72,3.72,0,0,1,1.52-5h0a3.71,3.71,0,0,1,5,1.51h0a3.71,3.71,0,0,1-1.52,5h0a3.68,3.68,0,0,1-1.75.45h0A3.72,3.72,0,0,1,382.68,505.44Zm-7.35-14.91v0h0a3.71,3.71,0,0,1,1.88-4.91h0a3.73,3.73,0,0,1,4.92,1.87h0a3.71,3.71,0,0,1-1.88,4.92h0a3.72,3.72,0,0,1-1.52.33h0A3.75,3.75,0,0,1,375.33,490.53Zm-6.25-15.42a3.73,3.73,0,0,1,2.23-4.77h0a3.71,3.71,0,0,1,4.77,2.22h0a3.74,3.74,0,0,1-2.22,4.78h0a3.85,3.85,0,0,1-1.28.23h0A3.72,3.72,0,0,1,369.08,475.11ZM364,459.27a3.73,3.73,0,0,1,2.57-4.6h0a3.71,3.71,0,0,1,4.6,2.56h0a3.71,3.71,0,0,1-2.56,4.6h0a3.36,3.36,0,0,1-1,.15h0A3.74,3.74,0,0,1,364,459.27Zm-4-16.16a3.73,3.73,0,0,1,2.89-4.41h0a3.74,3.74,0,0,1,4.41,2.89h0A3.74,3.74,0,0,1,364.4,446h0a5.24,5.24,0,0,1-.77.07h0A3.71,3.71,0,0,1,360,443.11Zm-2.79-16.42a3.74,3.74,0,0,1,3.21-4.18h0a3.72,3.72,0,0,1,4.17,3.2h0a3.71,3.71,0,0,1-3.19,4.18h0l-.51,0h0A3.71,3.71,0,0,1,357.2,426.69Zm-1.6-16.56a3.73,3.73,0,0,1,3.5-3.95h0a3.72,3.72,0,0,1,3.93,3.5h0a3.73,3.73,0,0,1-3.49,3.95h-.22A3.72,3.72,0,0,1,355.6,410.13Z"/><path class="cls-2" d="M810.61,382h0a3.72,3.72,0,0,1,3.5-3.93h0a3.71,3.71,0,0,1,3.93,3.49h0a3.71,3.71,0,0,1-3.48,3.94h-.24A3.72,3.72,0,0,1,810.61,382Zm-1.55-16h0a3.72,3.72,0,0,1,3.2-4.18h0a3.73,3.73,0,0,1,4.19,3.2h0a3.73,3.73,0,0,1-3.2,4.19h0c-.17,0-.33,0-.5,0h0A3.73,3.73,0,0,1,809.06,366Zm-2.7-15.88a3.72,3.72,0,0,1,2.89-4.39h0a3.7,3.7,0,0,1,4.41,2.87h0a3.72,3.72,0,0,1-2.9,4.41h0a3.25,3.25,0,0,1-.75.08h0A3.74,3.74,0,0,1,806.36,350.1Zm-3.84-15.64a3.74,3.74,0,0,1,2.58-4.6h0a3.71,3.71,0,0,1,4.59,2.56h0a3.73,3.73,0,0,1-2.57,4.6h0a3.26,3.26,0,0,1-1,.15h0A3.75,3.75,0,0,1,802.52,334.46Zm-4.95-15.33a3.71,3.71,0,0,1,2.22-4.77h0a3.71,3.71,0,0,1,4.77,2.22h0a3.71,3.71,0,0,1-2.22,4.77h0a3.56,3.56,0,0,1-1.26.24h0A3.73,3.73,0,0,1,797.57,319.13Zm-6-14.91a3.7,3.7,0,0,1,1.86-4.92h0a3.73,3.73,0,0,1,4.93,1.88h0a3.73,3.73,0,0,1-1.88,4.92h0a3.71,3.71,0,0,1-1.52.32h0A3.69,3.69,0,0,1,791.53,304.22Zm-7.13-14.44h0a3.75,3.75,0,0,1,1.52-5h0a3.71,3.71,0,0,1,5,1.52h0a3.73,3.73,0,0,1-1.5,5.05h0a3.77,3.77,0,0,1-1.76.45h0A3.76,3.76,0,0,1,784.4,289.78Zm-8.13-13.9a3.73,3.73,0,0,1,1.16-5.14h0a3.72,3.72,0,0,1,5.13,1.15h0a3.72,3.72,0,0,1-1.15,5.14h0a3.61,3.61,0,0,1-2,.58h0A3.74,3.74,0,0,1,776.27,275.88Zm-9.1-13.27a3.73,3.73,0,0,1,.77-5.21h0a3.73,3.73,0,0,1,5.22.77h0a3.71,3.71,0,0,1-.77,5.21h0a3.66,3.66,0,0,1-2.21.73h0A3.72,3.72,0,0,1,767.17,262.61Zm-10-12.6a3.72,3.72,0,0,1,.4-5.25h0a3.69,3.69,0,0,1,5.24.41h0a3.7,3.7,0,0,1-.4,5.24h0a3.69,3.69,0,0,1-2.41.89h0A3.68,3.68,0,0,1,757.13,250Zm-10.92-11.86a3.71,3.71,0,0,1,0-5.26h0a3.71,3.71,0,0,1,5.26,0h0a3.72,3.72,0,0,1,0,5.26h0a3.78,3.78,0,0,1-2.62,1.09h0A3.7,3.7,0,0,1,746.21,238.15Zm-11.74-11a3.72,3.72,0,0,1-.34-5.26h0a3.7,3.7,0,0,1,5.24-.34h0a3.73,3.73,0,0,1,.36,5.26h0a3.78,3.78,0,0,1-2.8,1.26h0A3.64,3.64,0,0,1,734.47,227.11ZM722,216.93a3.71,3.71,0,0,1-.72-5.21h0a3.73,3.73,0,0,1,5.22-.73h0a3.7,3.7,0,0,1,.71,5.21h0a3.71,3.71,0,0,1-3,1.49h0A3.7,3.7,0,0,1,722,216.93Zm-13.2-9.26a3.73,3.73,0,0,1-1.09-5.14h0a3.73,3.73,0,0,1,5.16-1.1h0a3.74,3.74,0,0,1,1.09,5.15h0a3.73,3.73,0,0,1-3.13,1.7h0A3.65,3.65,0,0,1,708.77,207.67ZM695,199.39a3.72,3.72,0,0,1-1.46-5.07h0a3.74,3.74,0,0,1,5.06-1.46h0a3.73,3.73,0,0,1,1.46,5.07h0a3.74,3.74,0,0,1-3.26,1.92h0A3.79,3.79,0,0,1,695,199.39Zm-14.4-7.28a3.72,3.72,0,0,1-1.81-4.94h0a3.72,3.72,0,0,1,4.93-1.82h0a3.7,3.7,0,0,1,1.83,4.93h0a3.72,3.72,0,0,1-3.38,2.18h0A3.85,3.85,0,0,1,680.55,192.11Zm-14.88-6.21a3.73,3.73,0,0,1-2.17-4.79h0a3.72,3.72,0,0,1,4.79-2.19h0a3.73,3.73,0,0,1,2.18,4.81h0a3.72,3.72,0,0,1-3.49,2.41h0A4,4,0,0,1,665.67,185.9Zm-15.27-5.12a3.73,3.73,0,0,1-2.52-4.62h0a3.73,3.73,0,0,1,4.64-2.52h0a3.73,3.73,0,0,1,2.52,4.62h0a3.74,3.74,0,0,1-3.58,2.67h0A4,4,0,0,1,650.4,180.78Zm-15.61-4h0a3.73,3.73,0,0,1-2.84-4.44h0a3.72,3.72,0,0,1,4.42-2.85h0a3.75,3.75,0,0,1,2.85,4.44h0a3.73,3.73,0,0,1-3.64,2.93h0A4.43,4.43,0,0,1,634.79,176.79Zm-15.85-2.86a3.75,3.75,0,0,1-3.16-4.22h0a3.73,3.73,0,0,1,4.22-3.16h0a3.71,3.71,0,0,1,3.15,4.22h0a3.71,3.71,0,0,1-3.68,3.18h0Zm-16-1.72a3.73,3.73,0,0,1-3.45-4h0a3.73,3.73,0,0,1,4-3.45h0a3.72,3.72,0,0,1,3.45,4h0a3.71,3.71,0,0,1-3.71,3.45h-.27Zm-19.82-4.29a3.72,3.72,0,0,1,3.72-3.72h0a3.72,3.72,0,0,1,3.72,3.72h0a3.72,3.72,0,0,1-3.72,3.71v0A3.73,3.73,0,0,1,583.1,167.92Z"/><path class="cls-3" d="M586.82,696a3.71,3.71,0,0,1-.73-.08,4.83,4.83,0,0,1-.69-.2,4.94,4.94,0,0,1-.64-.35,5.09,5.09,0,0,1-.58-.46,3.84,3.84,0,0,1-1.08-2.64,3.8,3.8,0,0,1,1.08-2.63,4.26,4.26,0,0,1,.58-.47,3.92,3.92,0,0,1,.64-.34,4.91,4.91,0,0,1,.69-.21,3.73,3.73,0,0,1,3.37,6.29A3.79,3.79,0,0,1,586.82,696Z"/><path class="cls-3" d="M570,695.49a3.74,3.74,0,0,1-3.51-3.94h0A3.72,3.72,0,0,1,570.4,688h0a3.73,3.73,0,0,1,3.52,3.93h0a3.74,3.74,0,0,1-3.73,3.52H570Zm-16.76-1.4a3.74,3.74,0,0,1-3.3-4.12h0a3.74,3.74,0,0,1,4.12-3.29h0a3.73,3.73,0,0,1,3.29,4.11h0a3.71,3.71,0,0,1-3.7,3.31h-.41Zm-16.67-2.34a3.74,3.74,0,0,1-3.06-4.29h0a3.73,3.73,0,0,1,4.29-3.06h0a3.74,3.74,0,0,1,3.06,4.29h0a3.73,3.73,0,0,1-3.67,3.12h0A3.18,3.18,0,0,1,536.56,691.75Zm-16.51-3.27a3.7,3.7,0,0,1-2.8-4.45h0a3.7,3.7,0,0,1,4.45-2.8h0a3.7,3.7,0,0,1,2.8,4.45h0a3.7,3.7,0,0,1-3.62,2.89h0A3.91,3.91,0,0,1,520.05,688.48Zm-16.3-4.18a3.72,3.72,0,0,1-2.55-4.62h0a3.74,3.74,0,0,1,4.61-2.55h0a3.73,3.73,0,0,1,2.54,4.62h0a3.73,3.73,0,0,1-3.57,2.7h0A4.07,4.07,0,0,1,503.75,684.3Zm-16.07-5.13h0a3.7,3.7,0,0,1-2.28-4.73h0a3.72,3.72,0,0,1,4.74-2.3h0a3.76,3.76,0,0,1,2.29,4.75h0a3.72,3.72,0,0,1-3.52,2.49h0A3.54,3.54,0,0,1,487.68,679.17Zm-15.75-6h0a3.72,3.72,0,0,1-2-4.87h0a3.71,3.71,0,0,1,4.87-2h0a3.71,3.71,0,0,1,2,4.85h0a3.7,3.7,0,0,1-3.44,2.31h0A3.77,3.77,0,0,1,471.93,673.16Zm-15.37-6.89a3.72,3.72,0,0,1-1.75-5h0a3.72,3.72,0,0,1,5-1.73v0a3.72,3.72,0,0,1,1.73,5h0a3.7,3.7,0,0,1-3.35,2.11h0A3.57,3.57,0,0,1,456.56,666.27Zm-15-7.74a3.73,3.73,0,0,1-1.44-5.07h0A3.72,3.72,0,0,1,445.2,652h0a3.74,3.74,0,0,1,1.45,5.07h0a3.75,3.75,0,0,1-3.26,1.92h0A3.83,3.83,0,0,1,441.58,658.53Zm-14.49-8.59a3.71,3.71,0,0,1-1.16-5.14h0a3.72,3.72,0,0,1,5.14-1.16h0a3.75,3.75,0,0,1,1.16,5.14h0a3.76,3.76,0,0,1-3.16,1.75h0A3.71,3.71,0,0,1,427.09,649.94Zm-14-9.37a3.73,3.73,0,0,1-.88-5.2h0a3.74,3.74,0,0,1,5.2-.87h0a3.73,3.73,0,0,1,.86,5.2h0a3.67,3.67,0,0,1-3,1.56h0A3.67,3.67,0,0,1,413.1,640.57Zm-13.45-10.14a3.73,3.73,0,0,1-.58-5.23h0a3.72,3.72,0,0,1,5.23-.58h0a3.73,3.73,0,0,1,.59,5.23h0a3.73,3.73,0,0,1-2.92,1.4h0A3.72,3.72,0,0,1,399.65,630.43Zm-12.84-10.86h0a3.72,3.72,0,0,1-.3-5.26h0a3.73,3.73,0,0,1,5.26-.3h0a3.72,3.72,0,0,1,.29,5.26h0a3.72,3.72,0,0,1-2.78,1.24h0A3.74,3.74,0,0,1,386.81,619.57ZM374.58,608a3.71,3.71,0,0,1,0-5.26h0a3.72,3.72,0,0,1,5.27,0h0a3.74,3.74,0,0,1,0,5.26h0a3.73,3.73,0,0,1-2.64,1.11h0A3.72,3.72,0,0,1,374.58,608ZM363,595.76a3.71,3.71,0,0,1,.3-5.24h0a3.71,3.71,0,0,1,5.26.28h0a3.72,3.72,0,0,1-.3,5.26h0a3.67,3.67,0,0,1-2.48,1h0A3.66,3.66,0,0,1,363,595.76Zm-10.86-12.84a3.73,3.73,0,0,1,.59-5.23h0a3.72,3.72,0,0,1,5.24.58h0a3.72,3.72,0,0,1-.6,5.23h0a3.67,3.67,0,0,1-2.31.82h0A3.72,3.72,0,0,1,352.15,582.92ZM342,569.48a3.7,3.7,0,0,1,.88-5.18h0a3.71,3.71,0,0,1,5.18.86h0a3.72,3.72,0,0,1-.88,5.2h0a3.71,3.71,0,0,1-2.14.69h0A3.66,3.66,0,0,1,342,569.48Zm-9.36-14a3.72,3.72,0,0,1,1.17-5.14h0a3.74,3.74,0,0,1,5.14,1.16h0a3.75,3.75,0,0,1-1.18,5.14h0a3.67,3.67,0,0,1-2,.58h0A3.71,3.71,0,0,1,332.68,555.51ZM324.12,541a3.72,3.72,0,0,1,1.46-5.07h0a3.73,3.73,0,0,1,5.06,1.46h0a3.72,3.72,0,0,1-1.46,5.07h0a3.74,3.74,0,0,1-1.8.46h0A3.7,3.7,0,0,1,324.12,541ZM316.4,526.1a3.72,3.72,0,0,1,1.73-5h0a3.71,3.71,0,0,1,5,1.74h0a3.73,3.73,0,0,1-1.74,5h0a3.69,3.69,0,0,1-1.61.35h0A3.71,3.71,0,0,1,316.4,526.1Zm-6.88-15.33h0a3.73,3.73,0,0,1,2-4.87h0a3.73,3.73,0,0,1,4.87,2h0a3.71,3.71,0,0,1-2,4.87h0a3.59,3.59,0,0,1-1.43.29h0A3.73,3.73,0,0,1,309.52,510.77Zm-6-15.7a3.72,3.72,0,0,1,2.3-4.74h0a3.73,3.73,0,0,1,4.74,2.28h0a3.74,3.74,0,0,1-2.28,4.75h0a3.77,3.77,0,0,1-1.22.21h0A3.78,3.78,0,0,1,303.51,495.07Zm-5.11-16a3.73,3.73,0,0,1,2.55-4.6h0a3.72,3.72,0,0,1,4.62,2.54h0a3.73,3.73,0,0,1-2.55,4.61h0a3.74,3.74,0,0,1-1,.15h0A3.74,3.74,0,0,1,298.4,479Zm-4.18-16.3a3.7,3.7,0,0,1,2.8-4.45h0a3.71,3.71,0,0,1,4.45,2.8h0a3.7,3.7,0,0,1-2.8,4.45h0a3,3,0,0,1-.83.11h0A3.72,3.72,0,0,1,294.22,462.74Zm-3.28-16.5h0A3.73,3.73,0,0,1,294,442h0a3.72,3.72,0,0,1,4.3,3.05h0a3.73,3.73,0,0,1-3.06,4.29h0a4.44,4.44,0,0,1-.62,0h0A3.73,3.73,0,0,1,290.94,446.24Zm-2.34-16.67a3.73,3.73,0,0,1,3.29-4.12h0a3.75,3.75,0,0,1,4.12,3.3h0a3.75,3.75,0,0,1-3.3,4.11h0c-.13,0-.26,0-.41,0h0A3.74,3.74,0,0,1,288.6,429.57Zm-1.4-16.76a3.74,3.74,0,0,1,3.52-3.94h0a3.73,3.73,0,0,1,3.92,3.52h0a3.72,3.72,0,0,1-3.52,3.92h-.21A3.71,3.71,0,0,1,287.2,412.81Z"/><path class="cls-3" d="M290.45,399.58a3.73,3.73,0,0,1-2.64-1.11,3.2,3.2,0,0,1-.46-.56,4.32,4.32,0,0,1-.34-.64,3.53,3.53,0,0,1-.21-2.15,3.73,3.73,0,0,1,.21-.7,4.89,4.89,0,0,1,.34-.64,3.2,3.2,0,0,1,.46-.56,3.86,3.86,0,0,1,5.28,0,3.73,3.73,0,0,1,0,5.25A3.73,3.73,0,0,1,290.45,399.58Z"/><path class="cls-2" d="M586.82,103.21a3.7,3.7,0,0,1-2.62-1.11,3.67,3.67,0,0,1-1.1-2.63,3.51,3.51,0,0,1,.07-.72,3,3,0,0,1,.22-.7,2.86,2.86,0,0,1,.35-.64,2.5,2.5,0,0,1,.46-.56,3.17,3.17,0,0,1,.56-.47,3.92,3.92,0,0,1,.64-.34,4.26,4.26,0,0,1,.69-.22,3.77,3.77,0,0,1,3.37,1,2.81,2.81,0,0,1,.46.56,3.92,3.92,0,0,1,.34.64,4.33,4.33,0,0,1,.21.7,2.93,2.93,0,0,1,.07.72,3.68,3.68,0,0,1-1.08,2.63A3.75,3.75,0,0,1,586.82,103.21Z"/><path class="cls-2" d="M879,379.3a3.73,3.73,0,0,1,3.52-3.92h0a3.73,3.73,0,0,1,3.93,3.52h0a3.74,3.74,0,0,1-3.51,3.92h-.21A3.74,3.74,0,0,1,879,379.3Zm-1.35-16.36a3.72,3.72,0,0,1,3.28-4.11h0a3.74,3.74,0,0,1,4.12,3.3h0a3.73,3.73,0,0,1-3.29,4.11h0l-.42,0h0A3.73,3.73,0,0,1,877.65,362.94Zm-2.28-16.23h0a3.73,3.73,0,0,1,3-4.31h0a3.74,3.74,0,0,1,4.3,3.05h0a3.73,3.73,0,0,1-3.05,4.3h0a3.35,3.35,0,0,1-.63.05h0A3.71,3.71,0,0,1,875.37,346.71Zm-3.2-16.11a3.73,3.73,0,0,1,2.81-4.45h0a3.73,3.73,0,0,1,4.46,2.8h0a3.74,3.74,0,0,1-2.8,4.47h0a4.07,4.07,0,0,1-.84.09h0A3.74,3.74,0,0,1,872.17,330.6Zm-4.09-15.88a3.72,3.72,0,0,1,2.55-4.62h0a3.73,3.73,0,0,1,4.6,2.55h0a3.73,3.73,0,0,1-2.54,4.62h0a4.14,4.14,0,0,1-1,.15h0A3.76,3.76,0,0,1,868.08,314.72Zm-5-15.64a3.74,3.74,0,0,1,2.28-4.75h0a3.73,3.73,0,0,1,4.75,2.29h0a3.71,3.71,0,0,1-2.27,4.74h0a3.69,3.69,0,0,1-1.24.22h0A3.75,3.75,0,0,1,863.09,299.08Zm-5.84-15.3a3.72,3.72,0,0,1,2-4.87h0a3.74,3.74,0,0,1,4.88,2h0a3.74,3.74,0,0,1-2,4.87h0a3.69,3.69,0,0,1-1.41.28h0A3.73,3.73,0,0,1,857.25,283.78Zm-6.7-15a3.72,3.72,0,0,1,1.73-5h0a3.71,3.71,0,0,1,5,1.73h0a3.73,3.73,0,0,1-1.74,5h0a3.71,3.71,0,0,1-1.61.37h0A3.71,3.71,0,0,1,850.55,268.82ZM843,254.27a3.74,3.74,0,0,1,1.45-5.07h0a3.72,3.72,0,0,1,5.06,1.46h0a3.74,3.74,0,0,1-1.44,5.07h0a3.8,3.8,0,0,1-1.81.46h0A3.7,3.7,0,0,1,843,254.27Zm-8.34-14.11a3.72,3.72,0,0,1,1.16-5.14h0a3.74,3.74,0,0,1,5.14,1.16h0a3.73,3.73,0,0,1-1.16,5.14h0a3.75,3.75,0,0,1-2,.58h0A3.73,3.73,0,0,1,834.67,240.16Zm-9.13-13.63a3.73,3.73,0,0,1,.88-5.2h0a3.74,3.74,0,0,1,5.2.88h0a3.73,3.73,0,0,1-.88,5.2h0a3.73,3.73,0,0,1-2.15.68h0A3.75,3.75,0,0,1,825.54,226.53Zm-9.87-13.11a3.72,3.72,0,0,1,.59-5.23h0a3.71,3.71,0,0,1,5.22.58h0a3.71,3.71,0,0,1-.58,5.24h0a3.72,3.72,0,0,1-2.32.81h0A3.71,3.71,0,0,1,815.67,213.42Zm-10.59-12.53a3.73,3.73,0,0,1,.3-5.26h0a3.72,3.72,0,0,1,5.26.3h0a3.74,3.74,0,0,1-.3,5.26h0a3.77,3.77,0,0,1-2.49.94h0A3.72,3.72,0,0,1,805.08,200.89ZM793.81,189a3.71,3.71,0,0,1,0-5.26h0a3.72,3.72,0,0,1,5.27,0h0a3.72,3.72,0,0,1,0,5.26h0a3.64,3.64,0,0,1-2.62,1.1h0A3.71,3.71,0,0,1,793.81,189Zm-11.92-11.28a3.72,3.72,0,0,1-.3-5.26h0a3.73,3.73,0,0,1,5.26-.3h0a3.73,3.73,0,0,1,.3,5.26h0a3.7,3.7,0,0,1-2.79,1.25h0A3.65,3.65,0,0,1,781.89,177.68Zm-12.55-10.61a3.71,3.71,0,0,1-.58-5.23h0a3.72,3.72,0,0,1,5.23-.58h0a3.7,3.7,0,0,1,.58,5.23h0a3.66,3.66,0,0,1-2.9,1.4h0A3.72,3.72,0,0,1,769.34,167.07Zm-13.11-9.87a3.73,3.73,0,0,1-.88-5.2h0a3.72,3.72,0,0,1,5.2-.88h0a3.73,3.73,0,0,1,.88,5.2h0a3.75,3.75,0,0,1-3,1.56h0A3.78,3.78,0,0,1,756.23,157.2Zm-13.64-9.15a3.71,3.71,0,0,1-1.16-5.14h0a3.73,3.73,0,0,1,5.14-1.16h0a3.75,3.75,0,0,1,1.16,5.14h0a3.77,3.77,0,0,1-3.16,1.74h0A3.7,3.7,0,0,1,742.59,148.05Zm-14.14-8.36a3.74,3.74,0,0,1-1.46-5.06h0a3.72,3.72,0,0,1,5.07-1.45h0a3.72,3.72,0,0,1,1.46,5h0a3.72,3.72,0,0,1-3.27,1.92h0A3.77,3.77,0,0,1,728.45,139.69Zm-14.58-7.55a3.73,3.73,0,0,1-1.75-5h0a3.74,3.74,0,0,1,5-1.74h0a3.74,3.74,0,0,1,1.73,5h0a3.71,3.71,0,0,1-3.36,2.11h0A3.7,3.7,0,0,1,713.87,132.14Zm-15-6.72v0a3.71,3.71,0,0,1-2-4.85h0a3.72,3.72,0,0,1,4.87-2h0a3.71,3.71,0,0,1,2,4.85h0a3.7,3.7,0,0,1-3.44,2.31h0A3.83,3.83,0,0,1,698.86,125.42Zm-15.36-5.87a3.72,3.72,0,0,1-2.27-4.75h0a3.7,3.7,0,0,1,4.73-2.28h0a3.72,3.72,0,0,1,2.3,4.74h0a3.74,3.74,0,0,1-3.52,2.5h0A4.14,4.14,0,0,1,683.5,119.55Zm-15.65-5h0a3.74,3.74,0,0,1-2.57-4.6h0a3.75,3.75,0,0,1,4.62-2.57h0a3.74,3.74,0,0,1,2.55,4.62h0a3.75,3.75,0,0,1-3.58,2.7h0A3.6,3.6,0,0,1,667.85,114.56ZM652,110.48a3.74,3.74,0,0,1-2.81-4.47h0a3.73,3.73,0,0,1,4.47-2.8h0a3.72,3.72,0,0,1,2.8,4.45h0a3.74,3.74,0,0,1-3.64,2.91h0A3.81,3.81,0,0,1,652,110.48Zm-16.1-3.19a3.73,3.73,0,0,1-3.06-4.29h0a3.74,3.74,0,0,1,4.29-3.06h0a3.73,3.73,0,0,1,3.06,4.3h0a3.71,3.71,0,0,1-3.67,3.09h0A4.3,4.3,0,0,1,635.85,107.29ZM619.59,105a3.7,3.7,0,0,1-3.27-4.11h0a3.71,3.71,0,0,1,4.11-3.29h0a3.72,3.72,0,0,1,3.28,4.11h0A3.73,3.73,0,0,1,620,105h0Zm-16.34-1.36h0a3.72,3.72,0,0,1-3.51-3.91h0a3.7,3.7,0,0,1,3.91-3.52h0a3.71,3.71,0,0,1,3.52,3.92h0a3.73,3.73,0,0,1-3.71,3.51h-.21Z"/><path class="cls-2" d="M883.19,399.58a3.66,3.66,0,0,1-2.62-1.11,2.5,2.5,0,0,1-.46-.56,3.06,3.06,0,0,1-.35-.64,3.69,3.69,0,0,1-.22-2.15,4.71,4.71,0,0,1,.22-.7,3.33,3.33,0,0,1,.35-.64,2.5,2.5,0,0,1,.46-.56,3.7,3.7,0,0,1,3.35-1,4,4,0,0,1,.7.21,3.55,3.55,0,0,1,.64.34,3.24,3.24,0,0,1,.57.47,3.68,3.68,0,0,1,0,5.25,3.81,3.81,0,0,1-.57.48,4.28,4.28,0,0,1-.64.33,4.07,4.07,0,0,1-.7.22A3.55,3.55,0,0,1,883.19,399.58Z"/><circle class="cls-2" cx="847.53" cy="395.85" r="53.49"/><path class="cls-2" d="M847.53,422.59a53.51,53.51,0,0,1-51.8-40.11,53.49,53.49,0,1,0,103.6,0A53.51,53.51,0,0,1,847.53,422.59Z"/><circle class="cls-2" cx="326.12" cy="395.85" r="53.49"/><path class="cls-2" d="M326.12,422.59a53.5,53.5,0,0,1-51.8-40.11,53.49,53.49,0,1,0,103.6,0A53.51,53.51,0,0,1,326.12,422.59Z"/><path class="cls-2" d="M836.73,325.08a3.66,3.66,0,0,1-1.57-.35l-16.87-7.87a3.72,3.72,0,1,1,3.15-6.75l13.49,6.29,6.3-13.49a3.72,3.72,0,0,1,6.75,3.15l-7.87,16.87A3.74,3.74,0,0,1,836.73,325.08Z"/><path class="cls-3" d="M329.05,490.94a3.73,3.73,0,0,1-3.38-5.3l7.87-16.87a3.72,3.72,0,0,1,4.95-1.8l16.87,7.86a3.72,3.72,0,0,1-3.15,6.75l-13.49-6.29-6.3,13.5A3.72,3.72,0,0,1,329.05,490.94Z"/><rect class="cls-6" x="290.25" y="361.12" width="69.45" height="69.45" transform="translate(375.09 -113.85) rotate(45)"/><rect class="cls-3" x="294.47" y="391.52" width="61.73" height="7.93" rx="3.96" transform="translate(720.82 70.14) rotate(90)"/><path class="cls-1" d="M346.78,376.75a30.88,30.88,0,0,0-43.61,0h16.38v3.86h11.58v-3.86Z"/><g id="_Group_2" data-name=" Group 2"><path id="_Path_2" data-name=" Path 2" class="cls-1" d="M859.77,366.66a11.09,11.09,0,0,1-11.1,11.09h0a11.09,11.09,0,0,1-11.09-11.09h-9.74v58.39h9.74a11.1,11.1,0,0,1,22.19,0h9.73V366.66Z"/><path id="_Path_3" data-name=" Path 3" class="cls-3" d="M836.22,395.86a12.46,12.46,0,1,1,12.45,12.45,12.46,12.46,0,0,1-12.45-12.45Z"/></g><rect class="cls-6" x="811.09" y="358.27" width="75.17" height="75.17"/><circle class="cls-2" cx="578.81" cy="400.72" r="172.69"/><path class="cls-1" d="M635.07,441.73l40,40.18H631.87l-63.94-64.29h43.16a31.73,31.73,0,0,0,22.61-9.42,32.28,32.28,0,0,0,0-45.46,31.66,31.66,0,0,0-22.61-9.41h-16l-32-32.15h48A64.1,64.1,0,0,1,675,385.47C675,411.55,662.24,432.56,635.07,441.73Z"/><path class="cls-1" d="M523.16,361.36l-40-40.18h43.17l63.94,64.29H547.14a31.68,31.68,0,0,0-22.61,9.42,32.25,32.25,0,0,0,0,45.46,31.66,31.66,0,0,0,22.61,9.41h16l32,32.15h-48a64.12,64.12,0,0,1-63.95-64.29C483.19,391.55,496,370.53,523.16,361.36Z"/></g></g></svg>