<svg xmlns="http://www.w3.org/2000/svg" viewBox="0 0 1160 800"><defs><style>.cls-1,.cls-4,.cls-7{fill:#fff;}.cls-2{fill:#c4cbd2;}.cls-3{fill:#091440;}.cls-4{stroke:#feb8a5;stroke-miterlimit:10;stroke-width:10px;}.cls-5{fill:#ed6d47;}.cls-5,.cls-7{fill-rule:evenodd;}.cls-6{fill:none;}</style></defs><g id="Layer_2" data-name="Layer 2"><g id="s3_-_f3_-_attack" data-name="s3 - f3 - attack"><rect class="cls-1" width="1160" height="800"/><g id="repetitive"><rect id="BG" class="cls-2" x="45.6" y="45.41" width="1069.4" height="709.17" rx="17.06"/></g><g id="bg2"><path id="BG-2" data-name="BG" class="cls-3" d="M59,45.41H1101a14,14,0,0,1,14,14v353a0,0,0,0,1,0,0H45a0,0,0,0,1,0,0v-353A14,14,0,0,1,59,45.41Z"/><rect class="cls-3" x="45" y="432.27" width="1070" height="20"/><rect class="cls-2" x="45" y="382.27" width="1070" height="10"/><rect class="cls-2" x="45" y="352.27" width="1070" height="10"/></g><circle class="cls-4" cx="580" cy="400" r="210"/><g id="space_invaders" data-name="space invaders"><path class="cls-5" d="M136.72,553.24h10v10h-10Zm60,10h-10v10h-30v-10h-10v10h-10v10h-10v10h-10v30h10v-20h10v20h10v10h20v-10h-20v-10h50v10h-20v10h20v-10h10v-20h10v20h10v-30h-10v-10h-10v-10h-10Zm0,0v-10h10v10Zm-50,20h10v10h-10Zm40,0h10v10h-10Z"/><path class="cls-5" d="M688.11,548.23h10v10h-10Zm60,10h-10v10h-30v-10h-10v10h-10v10h-10v10h-10v30h10v-20h10v20h10v10h20v-10h-20v-10h50v10h-20v10h20v-10h10v-20h10v20h10v-30h-10v-10h-10v-10h-10Zm0,0v-10h10v10Zm-50,20h10v10h-10Zm40,0h10v10h-10Z"/><path class="cls-5" d="M251.72,345.53h10v10h-10Zm60,10h-10v10h-30v-10h-10v10h-10v10h-10v10h-10v30h10v-20h10v20h10v10h20v-10h-20v-10h50v10h-20v10h20v-10h10v-20h10v20h10v-30h-10v-10h-10v-10h-10Zm0,0v-10h10v10Zm-50,20h10v10h-10Zm40,0h10v10h-10Z"/><path class="cls-5" d="M895.82,447.63h10v10h-10Zm60,10h-10v10h-30v-10h-10v10h-10v10h-10v10h-10v30h10v-20h10v20h10v10h20v-10h-20v-10h50v10h-20v10h20v-10h10v-20h10v20h10v-30h-10v-10h-10v-10h-10Zm0,0v-10h10v10Zm-50,20h10v10h-10Zm40,0h10v10h-10Z"/><path class="cls-5" d="M950.82,257.48h10v10h-10Zm60,10h-10v10h-30v-10h-10v10h-10v10h-10v10h-10v30h10v-20h10v20h10v10h20v-10h-20v-10h50v10h-20v10h20v-10h10v-20h10v20h10v-30h-10v-10h-10v-10h-10Zm0,0v-10h10v10Zm-50,20h10v10h-10Zm40,0h10v10h-10Z"/><path class="cls-5" d="M106.72,194.2h10v10h-10Zm60,10h-10v10h-30v-10h-10v10h-10v10h-10v10h-10v30h10v-20h10v20h10v10h20v-10h-20v-10h50v10h-20v10h20v-10h10v-20h10v20h10v-30h-10v-10h-10v-10h-10Zm0,0v-10h10v10Zm-50,20h10v10h-10Zm40,0h10v10h-10Z"/></g><path class="cls-3" d="M646.14,452.33A37.47,37.47,0,0,0,683.38,419h.24V314.85a25,25,0,0,0-25,25c0,.15,0,.3,0,.46h0l0,41.27a6.24,6.24,0,0,1-12.48.25l0,0V293a15.63,15.63,0,1,0-31.25,0v55.26h0a6.25,6.25,0,0,1-12.49,0h0V280.47a15.63,15.63,0,0,0-31.25,0v67.71h0v0h0a6.25,6.25,0,0,1-12.49,0h0v0h0V280.47a15.63,15.63,0,0,0-31.25,0v67.72h0a6.25,6.25,0,0,1-12.49,0h0V305.48a15.63,15.63,0,1,0-31.25,0v226l162.5.08Z"/><rect class="cls-6" x="433.62" y="248.23" width="300" height="300"/><g id="Ticket"><g id="_Group_2" data-name=" Group 2"><path id="_Path_2" data-name=" Path 2" class="cls-1" d="M587.31,376.24A20.36,20.36,0,0,1,567,396.59h0a20.35,20.35,0,0,1-20.35-20.35H528.74V483.35H546.6a20.36,20.36,0,0,1,40.71,0h17.86V376.24Z"/><path id="_Path_3" data-name=" Path 3" class="cls-3" d="M544.11,429.79A22.85,22.85,0,1,1,567,452.63a22.85,22.85,0,0,1-22.84-22.84Z"/></g><rect class="cls-6" x="498.01" y="360.85" width="137.89" height="137.89"/></g><path class="cls-7" d="M556.33,416.52h3.16v3.16h-3.16Zm18.94,3.16h-3.16v3.15h-9.47v-3.15h-3.15v3.15h-3.16V426h-3.15v3.15H550v9.47h3.16V432.3h3.15v6.31h3.16v3.16h6.31v-3.16h-6.31v-3.16h15.78v3.16H569v3.16h6.32v-3.16h3.15V432.3h3.16v6.31h3.15v-9.47h-3.15V426h-3.16v-3.16h-3.15Zm0,0v-3.16h3.15v3.16ZM559.49,426h3.15v3.15h-3.15Zm12.62,0h3.16v3.15h-3.16Z"/></g></g></svg>