<svg xmlns="http://www.w3.org/2000/svg" viewBox="0 0 1160 800"><defs><style>.cls-1{fill:#fff;}.cls-2{fill:#c4cbd2;}.cls-3{fill:#ed6d47;}.cls-4{fill:none;}.cls-5{fill:#091440;}.cls-6{fill:#feb8a5;}</style></defs><g id="Layer_2" data-name="Layer 2"><g id="s3_-_f2_-_error" data-name="s3 - f2 - error"><rect class="cls-1" width="1160" height="800"/><g id="repetitive"><path class="cls-2" d="M794.55,410.56h310.9a9.55,9.55,0,0,1,9.55,9.55v321.8a13.7,13.7,0,0,1-13.7,13.7H794.55a9.55,9.55,0,0,1-9.55-9.55v-326a9.55,9.55,0,0,1,9.55-9.55Z" transform="translate(1900 1166.18) rotate(-180)"/><path class="cls-3" d="M794.55,45.41h310.9A9.55,9.55,0,0,1,1115,55v321.8a13.7,13.7,0,0,1-13.7,13.7H794.55a9.55,9.55,0,0,1-9.55-9.55V55a9.55,9.55,0,0,1,9.55-9.55Z" transform="translate(1900 435.88) rotate(-180)"/><rect id="BG" class="cls-2" x="45.6" y="45.41" width="726.06" height="709.17" rx="14.06"/></g><circle class="cls-1" cx="419.57" cy="408.43" r="210"/><rect class="cls-4" x="250.82" y="239.68" width="337.5" height="337.5" transform="translate(828 -11.14) rotate(90)"/><rect class="cls-5" x="272.08" y="389.17" width="300" height="38.53" rx="19.26" transform="translate(1009.34 398.78) rotate(135)"/><path class="cls-2" d="M560.12,417.72A150,150,0,0,0,410.28,267.89l56.28,56.28L453.3,337.43l39.78,39.77L506.34,364Z"/><g id="alarm"><path class="cls-5" d="M1033.63,275.19,962.41,153.11a14.38,14.38,0,0,0-24.83,0L866.37,275.19H860v14.66a14.41,14.41,0,0,0,14.39,14.49H1025.6a14.46,14.46,0,0,0,5.54-1.11,14.23,14.23,0,0,0,4.68-3.14,14.65,14.65,0,0,0,3.11-4.7,14.42,14.42,0,0,0,1.07-5.54V275.19Z"/><path class="cls-6" d="M862,268.23l75.6-129.6a14.36,14.36,0,0,1,24.83,0L1038,268.23a14.38,14.38,0,0,1-12.42,21.62H874.4A14.37,14.37,0,0,1,862,268.23Z"/><path class="cls-5" d="M932.57,259.84c0-10.38,7.44-17.45,17.43-17.45s17.43,7.07,17.43,17.45S960,277.59,950,277.59,932.57,270.26,932.57,259.84Zm5.47-78-.83-23.16h25.58l-.85,23.18L958.38,231H941.6Z"/></g><path class="cls-5" d="M1096.93,519.72h-25l-5.58,20.95a74.64,74.64,0,0,0-20.6,8.53L1027,538.34,1009.32,556l10.86,18.76a74.53,74.53,0,0,0-8.54,20.6L990.7,601v25l20.94,5.58a74.66,74.66,0,0,0,8.54,20.6l-10.86,18.76L1027,688.57l18.76-10.86a74.66,74.66,0,0,0,20.6,8.54l5.58,20.94h25l5.58-20.94A74.54,74.54,0,0,0,1114.8,682V635.44a37.49,37.49,0,1,1,0-44V544.89a73.62,73.62,0,0,0-12.29-4.22Z"/><path class="cls-5" d="M989.34,688.2l10.86-18.77-17.67-17.67-18.77,10.86a74.47,74.47,0,0,0-20.59-8.54l-5.59-20.94h-25L907,654.08a74.66,74.66,0,0,0-20.6,8.54l-18.76-10.86L850,669.43l10.86,18.77a74.47,74.47,0,0,0-8.54,20.59l-20.94,5.59v25L852.29,745a74.82,74.82,0,0,0,3.29,10.09h44.78a37.5,37.5,0,1,1,49.45,0h44.78A74.82,74.82,0,0,0,997.88,745l20.94-5.59v-25l-20.94-5.59A74.47,74.47,0,0,0,989.34,688.2Z"/><path class="cls-5" d="M798.5,410a13.7,13.7,0,0,0-13.7,13.7V597l.69.7,28.15-16.29a111.86,111.86,0,0,0,30.89,12.8l8.38,31.41H890.4l8.38-31.41a112.05,112.05,0,0,0,30.9-12.8l28.14,16.29,26.51-26.51L968,543.06a111.86,111.86,0,0,0,12.8-30.89l31.42-8.38V466.3l-31.42-8.38A112.05,112.05,0,0,0,968,427l9.85-17Zm73.16,131.28A56.24,56.24,0,1,1,927.9,485,56.23,56.23,0,0,1,871.66,541.28Z"/></g></g></svg>