<svg width="92" height="92" viewBox="0 0 92 92" fill="none" xmlns="http://www.w3.org/2000/svg">
<rect width="92" height="92" fill="#2F74FB"/>
<path d="M31.5582 24.0486C31.5582 28.5729 27.8969 32.2342 23.3727 32.2342C18.8484 32.2342 15.1871 28.5729 15.1871 24.0486H8V67.1462H15.1871C15.1871 62.6219 18.8607 58.9606 23.3727 58.9606C27.8969 58.9606 31.5582 62.6219 31.5582 67.1462H38.7453V24.0486H31.5582Z" fill="white"/>
<path d="M14.1887 45.5972C14.1887 40.5182 18.3062 36.4131 23.3729 36.4131C28.4396 36.4131 32.557 40.5305 32.557 45.5972C32.557 50.6639 28.4396 54.7814 23.3729 54.7814C18.3062 54.7814 14.1887 50.6762 14.1887 45.5972Z" fill="#091440"/>
<path d="M52.1072 28.9303L82.7335 59.5579C83.9759 60.8004 83.9759 62.8256 82.7335 64.0681C81.491 65.3106 79.4658 65.3106 78.2234 64.0681L47.5971 33.453C46.3547 32.2105 46.3547 30.1852 47.5971 28.9428C48.8396 27.6878 50.8647 27.6878 52.1072 28.9303Z" fill="#091440"/>
<path d="M67.6653 24C53.864 24.012 42.6778 34.7507 42.6653 48L52.0497 38.991L54.2644 41.1171L60.896 34.7508L58.6813 32.6246L67.6653 24Z" fill="white"/>
</svg>
