<svg width="92" height="92" viewBox="0 0 92 92" fill="none" xmlns="http://www.w3.org/2000/svg">
<rect width="92" height="92" fill="#FFC84E"/>
<path d="M57.5605 14.6753C57.5605 21.2469 52.2423 26.5651 45.6707 26.5651C39.0991 26.5651 33.7809 21.2469 33.7809 14.6753H23.3416V77.2757H33.7809C33.7809 70.7041 39.117 65.3859 45.6707 65.3859C52.2423 65.3859 57.5605 70.7041 57.5605 77.2757H67.9999V14.6753H57.5605Z" fill="white"/>
<path d="M32.3311 45.9759C32.3311 38.5985 38.3118 32.6357 45.6713 32.6357C53.0308 32.6357 59.0115 38.6165 59.0115 45.9759C59.0115 53.3354 53.0308 59.3162 45.6713 59.3162C38.3118 59.3162 32.3311 53.3534 32.3311 45.9759Z" fill="#091440"/>
</svg>
