<svg xmlns="http://www.w3.org/2000/svg" viewBox="0 0 1160 800"><defs><style>.cls-1{fill:#fff;}.cls-2{fill:#2dd8a3;}.cls-3{fill:#c4cbd2;}.cls-4{fill:#091440;}.cls-5{fill:none;}.cls-6{fill:#ffc84e;}.cls-7{fill:#ffe4a7;}</style></defs><g id="Layer_2" data-name="Layer 2"><g id="_" data-name="######"><rect class="cls-1" width="1160" height="800"/><g id="repetitive"><path class="cls-2" d="M798.7,45.41h306.75A9.55,9.55,0,0,1,1115,55v690a9.55,9.55,0,0,1-9.55,9.55H794.55a9.55,9.55,0,0,1-9.55-9.55V59.12A13.7,13.7,0,0,1,798.7,45.41Z"/><rect id="BG" class="cls-3" x="45.6" y="45.41" width="726.06" height="709.17" rx="14.06"/></g><g id="Coin"><polygon class="cls-4" points="234.24 563.61 281.14 493.54 607.8 493.54 560.9 563.44 234.24 563.61"/><rect class="cls-5" x="211.14" y="190.21" width="420" height="420"/></g><g id="Lock_open" data-name="Lock open"><rect class="cls-1" x="870" y="389.12" width="160" height="104.59"/><path class="cls-4" d="M870,415.47h160V524.12H870Z"/><path class="cls-4" d="M920.47,304.25l-18.62,18.62,18.32,18.33,18.63-18.63a39.34,39.34,0,0,1,55.59-.07l.07.07a39.34,39.34,0,0,1,.08,55.59l-18.67,18.67,18.33,18.32,18.63-18.62a65.36,65.36,0,0,0,0-92.32h0A65.39,65.39,0,0,0,920.47,304.25Z"/><line class="cls-5" x1="904.87" y1="470.79" x2="904.87" y2="470.79"/><polygon class="cls-1" points="987.73 437.8 940.57 484.96 912.27 456.66 902.86 466.07 940.57 503.78 997.14 447.21 987.73 437.8"/><rect class="cls-5" x="830" y="297.46" width="240" height="240"/></g><path class="cls-1" d="M374.58,292.54a26.73,26.73,0,1,1,26.72-26.73A26.75,26.75,0,0,1,374.58,292.54Z"/><path class="cls-6" d="M374.58,241.71a24.11,24.11,0,1,1-24.11,24.1,24.13,24.13,0,0,1,24.11-24.1m0-5.24a29.35,29.35,0,1,0,29.34,29.34,29.35,29.35,0,0,0-29.34-29.34Z"/><path class="cls-4" d="M381.48,271.2l5.1,5.12h-5.5l-8.15-8.19h5.5a4,4,0,0,0,1.56-.32,3.9,3.9,0,0,0,1.32-.89,4.12,4.12,0,0,0,0-5.79,4.21,4.21,0,0,0-1.32-.89,4,4,0,0,0-1.56-.31h-2l-4.08-4.1h6.12a8.16,8.16,0,0,1,3.12.63,8.35,8.35,0,0,1,2.65,1.78A7.92,7.92,0,0,1,386,260.9a8.17,8.17,0,0,1,.62,3.13A7.1,7.1,0,0,1,381.48,271.2Z"/><path class="cls-4" d="M367.22,261l-5.1-5.12h5.51l8.15,8.2h-5.51a4,4,0,0,0-2.88,1.2,4.12,4.12,0,0,0,0,5.79,4,4,0,0,0,2.88,1.2h2l4.08,4.1h-6.11a8.18,8.18,0,0,1-8.16-8.19A7.1,7.1,0,0,1,367.22,261Z"/><path class="cls-1" d="M315.55,248.78a26.72,26.72,0,1,1,26.72-26.72A26.75,26.75,0,0,1,315.55,248.78Z"/><path class="cls-6" d="M315.55,198a24.1,24.1,0,1,1-24.1,24.1,24.13,24.13,0,0,1,24.1-24.1m0-5.24a29.34,29.34,0,1,0,29.34,29.34,29.35,29.35,0,0,0-29.34-29.34Z"/><path class="cls-4" d="M322.46,227.45l5.09,5.12h-5.5l-8.15-8.2h5.5a4.08,4.08,0,0,0,2.89-1.2,4.12,4.12,0,0,0,0-5.79,4.08,4.08,0,0,0-2.89-1.2h-2l-4.07-4.1h6.11a8.15,8.15,0,0,1,7.54,5.07,8,8,0,0,1,.61,3.13A7.1,7.1,0,0,1,322.46,227.45Z"/><path class="cls-4" d="M308.19,217.2l-5.09-5.12h5.5l8.15,8.2h-5.5a4,4,0,0,0-2.88,1.2,4.11,4.11,0,0,0,1.32,6.68,4,4,0,0,0,1.56.31h2l4.07,4.1h-6.11a8.18,8.18,0,0,1-8.15-8.2A7.1,7.1,0,0,1,308.19,217.2Z"/><path class="cls-6" d="M436.22,316.57V635.42H410.6C343.38,635.42,288.89,564,288.89,476S343.38,316.57,410.6,316.57Z"/><path class="cls-7" d="M297.57,531.51c1.1,3.87,2.33,7.66,3.64,11.38H437.3V531.51Z"/><path class="cls-7" d="M309.63,562.82q2.92,5.88,6.22,11.39H437.3V562.82Z"/><path class="cls-7" d="M291.37,500.19c.45,3.85,1,7.63,1.69,11.39H437.3V500.19Z"/><path class="cls-7" d="M330,594.14a135.82,135.82,0,0,0,10.8,11.38H437.3V594.14Z"/><path class="cls-7" d="M437.3,629.72V618.33H356.89a105,105,0,0,0,22.56,11.39Z"/><path class="cls-7" d="M293.56,437.56c-.71,3.74-1.3,7.54-1.8,11.39H437.3V437.56Z"/><path class="cls-7" d="M290.12,468.87c-.08,2.37-.14,4.74-.14,7.12,0,1.43,0,2.85.08,4.27H437.3V468.87Z"/><path class="cls-7" d="M388.83,319.41a101.74,101.74,0,0,0-27.4,11.39H437.3V319.41Z"/><path class="cls-7" d="M343.85,343.61A132.86,132.86,0,0,0,332.48,355H437.3V343.61Z"/><path class="cls-7" d="M317.56,374.93q-3.44,5.49-6.5,11.39H437.3V374.93Z"/><path class="cls-7" d="M302.23,406.24c-1.39,3.72-2.64,7.53-3.8,11.39H437.3V406.24Z"/><ellipse class="cls-6" cx="436.93" cy="475.99" rx="121.7" ry="159.42"/><ellipse class="cls-1" cx="436.93" cy="475.99" rx="94.66" ry="132.38"/><path class="cls-4" d="M416.31,446.21l-19.92-30h21.45l31.79,47.89H428.18a11.31,11.31,0,0,0-6,1.8,17.17,17.17,0,0,0-5.09,5.13,26.58,26.58,0,0,0-3.41,7.67,35,35,0,0,0,0,18.11,26.58,26.58,0,0,0,3.41,7.67,17.17,17.17,0,0,0,5.09,5.13,11.31,11.31,0,0,0,6,1.8h8.05l15.7,23.65H428.18A22.8,22.8,0,0,1,416,531.45a34.49,34.49,0,0,1-10.32-10.38,53.63,53.63,0,0,1-6.89-15.55,69.11,69.11,0,0,1-2.4-18.34,55.87,55.87,0,0,1,5.18-25.76c3.62-7.45,8.82-12.81,14.74-15.21Z"/><path class="cls-4" d="M471.25,505.74l19.75,30H469.73L438.2,487.83h21.27a11.12,11.12,0,0,0,6-1.8,17,17,0,0,0,5.05-5.13,26.72,26.72,0,0,0,3.38-7.68,35.41,35.41,0,0,0,0-18.13,26.66,26.66,0,0,0-3.38-7.69,17.06,17.06,0,0,0-5.05-5.13,11.12,11.12,0,0,0-6-1.8h-8l-15.57-24.26h23.55a22.35,22.35,0,0,1,12.08,3.62,34.32,34.32,0,0,1,10.24,10.39,54.09,54.09,0,0,1,6.83,15.57A70,70,0,0,1,491,464.15a58.12,58.12,0,0,1-5.17,26c-3.58,7.53-8.71,13-14.58,15.63Z"/><rect class="cls-4" x="264.37" y="550.51" width="296.39" height="13.06"/><rect class="cls-3" x="303.29" y="563.57" width="238.1" height="99.81"/><path class="cls-6" d="M315.26,265.29v58.53h-4.7c-12.34,0-22.34-13.1-22.34-29.27s10-29.26,22.34-29.26Z"/><path class="cls-7" d="M289.81,304.75c.2.71.43,1.4.67,2.09h25v-2.09Z"/><path class="cls-7" d="M292,310.5c.36.71.74,1.41,1.15,2.09h22.29V310.5Z"/><path class="cls-7" d="M288.67,299c.08.7.19,1.4.31,2.09h26.48V299Z"/><path class="cls-7" d="M295.76,316.24a24.61,24.61,0,0,0,2,2.09h17.72v-2.09Z"/><path class="cls-7" d="M315.46,322.78v-2.09H300.7a19.87,19.87,0,0,0,4.14,2.09Z"/><path class="cls-7" d="M289.07,287.5c-.13.69-.24,1.38-.33,2.09h26.72V287.5Z"/><path class="cls-7" d="M288.44,293.25c0,.43,0,.87,0,1.3,0,.27,0,.53,0,.79h27v-2.09Z"/><path class="cls-7" d="M306.56,265.81a19,19,0,0,0-5,2.09h13.93v-2.09Z"/><path class="cls-7" d="M298.31,270.25a24.25,24.25,0,0,0-2.09,2.09h19.24v-2.09Z"/><path class="cls-7" d="M293.48,276c-.42.67-.82,1.37-1.19,2.09h23.17V276Z"/><path class="cls-7" d="M290.66,281.75c-.25.68-.48,1.38-.69,2.09h25.49v-2.09Z"/><ellipse class="cls-6" cx="315.39" cy="294.55" rx="22.34" ry="29.27"/><ellipse class="cls-1" cx="315.39" cy="294.55" rx="17.38" ry="24.3"/><path class="cls-4" d="M311.61,289.09,308,283.58h3.94l5.84,8.79h-3.94a2.08,2.08,0,0,0-1.11.33,3.33,3.33,0,0,0-.93.94,5,5,0,0,0-.63,1.41,6.51,6.51,0,0,0-.21,1.66,6.59,6.59,0,0,0,.21,1.67,5.17,5.17,0,0,0,.63,1.41,3.33,3.33,0,0,0,.93.94,2.17,2.17,0,0,0,1.11.33h1.48l2.88,4.34h-4.36a4.22,4.22,0,0,1-2.24-.66,6.26,6.26,0,0,1-1.89-1.91,9.74,9.74,0,0,1-1.27-2.85,13,13,0,0,1-.44-3.37,10.33,10.33,0,0,1,.95-4.73,5.46,5.46,0,0,1,2.71-2.79Z"/><path class="cls-4" d="M321.69,300l3.63,5.51h-3.9l-5.79-8.8h3.9a2,2,0,0,0,1.1-.33,3.18,3.18,0,0,0,.92-.94,4.82,4.82,0,0,0,.62-1.42,6.37,6.37,0,0,0,0-3.32,4.64,4.64,0,0,0-.62-1.41,3.1,3.1,0,0,0-.92-.95,2.13,2.13,0,0,0-1.1-.33h-1.46l-2.86-4.45h4.32a4.15,4.15,0,0,1,2.22.66,6.35,6.35,0,0,1,1.88,1.91,9.92,9.92,0,0,1,1.25,2.86,12.92,12.92,0,0,1,.44,3.37,10.66,10.66,0,0,1-.95,4.77,5.73,5.73,0,0,1-2.68,2.87Z"/></g></g></svg>