<svg xmlns="http://www.w3.org/2000/svg" viewBox="0 0 1160 800"><defs><style>.cls-1{fill:#fff;}.cls-2{fill:#ffc84e;}.cls-3{fill:#c4cbd2;}.cls-4{fill:#091440;}.cls-5,.cls-6{fill:none;}.cls-5{stroke:#091440;stroke-width:5.71px;stroke-dasharray:14.29 14.29;}</style></defs><g id="Layer_2" data-name="Layer 2"><g id="s4_-_f3_-_verify" data-name="s4 - f3 - verify"><rect class="cls-1" width="1160" height="800"/><path class="cls-2" d="M798.7,45.41h306.75A9.55,9.55,0,0,1,1115,55v690a9.55,9.55,0,0,1-9.55,9.55H794.55a9.55,9.55,0,0,1-9.55-9.55V59.12A13.7,13.7,0,0,1,798.7,45.41Z"/><rect id="BG" class="cls-3" x="45.6" y="45.41" width="726.06" height="709.17" rx="14.06"/><circle class="cls-4" cx="950.32" cy="351.25" r="68.69"/><rect class="cls-4" x="881.64" y="481.17" width="137.37" height="137.37"/><path class="cls-4" d="M950.53,88.92l75.26,118H875.27Z"/><rect class="cls-5" x="830" y="256.96" width="240" height="188.57"/><path class="cls-4" d="M881.64,754.59V715.34l68.68-42.49L1019,715.34v39.25Z"/><g id="Ticket"><g id="_Group_2" data-name=" Group 2"><path id="_Path_2" data-name=" Path 2" class="cls-1" d="M483.13,236.87a62,62,0,0,1-62,62h0a62,62,0,0,1-62-62h-54.4V563.13h54.4a62,62,0,0,1,124,0h54.4V236.87Z"/><path id="_Path_3" data-name=" Path 3" class="cls-4" d="M351.56,400a69.58,69.58,0,1,1,69.58,69.57A69.58,69.58,0,0,1,351.56,400Z"/></g><rect class="cls-6" x="211.14" y="190" width="420" height="420"/></g></g></g></svg>