<svg xmlns="http://www.w3.org/2000/svg" viewBox="0 0 1160 800"><defs><style>.cls-1{fill:#fff;}.cls-2{fill:#2dd8a3;}.cls-3{fill:#c4cbd2;}.cls-4{fill:#091440;}.cls-5{fill:none;}</style></defs><g id="Layer_2" data-name="Layer 2"><g id="_" data-name="######"><rect class="cls-1" width="1160" height="800"/><g id="repetitive"><path class="cls-2" d="M798.7,45.41h306.75A9.55,9.55,0,0,1,1115,55v690a9.55,9.55,0,0,1-9.55,9.55H794.55a9.55,9.55,0,0,1-9.55-9.55V59.12A13.7,13.7,0,0,1,798.7,45.41Z"/><rect id="BG" class="cls-3" x="45.6" y="45.41" width="726.06" height="709.17" rx="14.06"/></g><g id="Ticket"><polygon class="cls-4" points="234.24 563.4 281.14 493.33 607.8 493.33 560.9 563.23 234.24 563.4"/><path class="cls-1" d="M537.8,527.87V426.67H483.29v.38a62.14,62.14,0,1,1-124.28,0c0-.13,0-.38,0-.38H304.47v101.2Z"/><rect class="cls-5" x="211.14" y="190" width="420" height="420"/></g><g id="checkmark"><path class="cls-4" d="M421.14,406.08a25,25,0,1,0-25-25A25,25,0,0,0,421.14,406.08Z"/><path class="cls-1" d="M432.2,371.54l-13.28,13.27L410.08,376l-4.43,4.43,13.27,13.27L436.63,376Z"/></g><g id="lock"><rect class="cls-1" x="870" y="389.12" width="160" height="104.59"/><path class="cls-4" d="M870,415.47h160V524.12H870Z"/><path class="cls-4" d="M885.14,376.11v26.34h25.92V376.11a39.33,39.33,0,0,1,39.25-39.36h.11A39.35,39.35,0,0,1,989.78,376v26.4h25.92V376.06a65.36,65.36,0,0,0-65.28-65.27h0A65.38,65.38,0,0,0,885.14,376.11Z"/><line class="cls-5" x1="904.87" y1="470.79" x2="904.87" y2="470.79"/><rect class="cls-5" x="830" y="297.46" width="240" height="240"/></g><polygon class="cls-1" points="987.73 437.8 940.57 484.96 912.27 456.66 902.86 466.07 940.57 503.78 997.14 447.21 987.73 437.8"/></g></g></svg>