<svg xmlns="http://www.w3.org/2000/svg" viewBox="0 0 1160 800"><defs><style>.cls-1{fill:#fff;}.cls-2{fill:#ffc84e;}.cls-3{fill:#c4cbd2;}.cls-4{fill:#091440;}.cls-5,.cls-6{fill:none;}.cls-5{stroke:#091440;stroke-width:5.71px;stroke-dasharray:14.29 14.29;}.cls-7{fill:#6ed3f3;}.cls-8{fill:#2f74fb;}</style></defs><g id="Layer_2" data-name="Layer 2"><g id="s4_-_f4_-_ff" data-name="s4 - f4 - ff"><rect class="cls-1" width="1160" height="800"/><g id="repetitive"><path class="cls-2" d="M798.7,45.41h306.75A9.55,9.55,0,0,1,1115,55v690a9.55,9.55,0,0,1-9.55,9.55H794.55a9.55,9.55,0,0,1-9.55-9.55V59.12A13.7,13.7,0,0,1,798.7,45.41Z"/><rect id="BG" class="cls-3" x="45.6" y="45.41" width="726.06" height="709.17" rx="14.06"/></g><g id="shapes"><circle class="cls-4" cx="950.32" cy="186.52" r="68.69"/><rect class="cls-4" x="881.64" y="316.44" width="137.37" height="137.37"/><rect class="cls-5" x="830" y="492.96" width="240" height="188.57"/></g><g id="Ticket"><g id="Layer_2-2" data-name="Layer 2"><g id="_Group_2" data-name=" Group 2"><path id="_Path_2" data-name=" Path 2" class="cls-1" d="M483.13,236.87a62,62,0,0,1-62,62h0a62,62,0,0,1-62-62h-54.4V563.13h54.4a62,62,0,0,1,124,0h54.4V236.87Z"/><path class="cls-4" d="M489.81,439.57,421.12,479.4l-68.67-39.83V360.18l68.69-39.84,68.68,39.84Z"/></g></g><rect class="cls-6" x="211.14" y="190" width="420" height="420"/></g><g id="cube"><path class="cls-7" d="M1019,627.35,950.3,667.18l-68.66-39.83V548l68.69-39.83L1019,548Z"/><path class="cls-8" d="M949.6,667.18V588l-68-39.34v78.87Z"/></g><g id="checkmark"><path class="cls-4" d="M1070,607.89a25,25,0,1,0-25-25A25,25,0,0,0,1070,607.89Z"/><path class="cls-1" d="M1081.06,573.35l-13.27,13.27-8.85-8.84-4.43,4.42,13.28,13.28,17.7-17.7Z"/></g></g></g></svg>