<svg xmlns="http://www.w3.org/2000/svg" viewBox="0 0 1160 800"><defs><style>.cls-1{fill:#fff;}.cls-2{fill:#2dd8a3;}.cls-3{fill:#ffc84e;}.cls-4{fill:#c4cbd2;}.cls-5{fill:#091440;}.cls-6{fill:none;}.cls-7{fill:#ffe4a7;}</style></defs><g id="Layer_2" data-name="Layer 2"><g id="s4_-_f3_-_verify" data-name="s4 - f3 - verify"><rect class="cls-1" width="1160" height="800"/><g id="repetitive"><path class="cls-2" d="M794.55,410.56h310.9a9.55,9.55,0,0,1,9.55,9.55v321.8a13.7,13.7,0,0,1-13.7,13.7H794.55a9.55,9.55,0,0,1-9.55-9.55v-326a9.55,9.55,0,0,1,9.55-9.55Z" transform="translate(1900 1166.18) rotate(-180)"/><path class="cls-3" d="M798.7,45.41h306.75A9.55,9.55,0,0,1,1115,55v326a9.55,9.55,0,0,1-9.55,9.55H794.55a9.55,9.55,0,0,1-9.55-9.55V59.12A13.7,13.7,0,0,1,798.7,45.41Z"/><rect id="BG" class="cls-4" x="45.6" y="45.41" width="726.06" height="709.17" rx="14.06"/></g><g id="lock"><rect class="cls-1" x="870" y="546.04" width="160" height="104.59"/><path class="cls-5" d="M870,572.39h160V681H870Z"/><path class="cls-5" d="M885.14,533v26.34h25.92V533a39.33,39.33,0,0,1,39.25-39.36h.11a39.35,39.35,0,0,1,39.36,39.26v26.39h25.92V533a65.37,65.37,0,0,0-65.28-65.28h0A65.39,65.39,0,0,0,885.14,533Z"/><line class="cls-6" x1="904.87" y1="627.71" x2="904.87" y2="627.71"/><rect class="cls-6" x="830" y="454.38" width="240" height="240"/></g><g id="timer"><path class="cls-1" d="M950.42,631.27V608.5a22.77,22.77,0,1,0,22.76,22.77Z"/><path class="cls-6" d="M909.44,585.74h78.37a3.59,3.59,0,0,1,3.59,3.59V667.7a0,0,0,0,1,0,0h-82a0,0,0,0,1,0,0v-82A0,0,0,0,1,909.44,585.74Z"/><path class="cls-1" d="M952.69,599.48v-4.64h6.83v-4.55H941.31v4.55h6.83v4.64a31.88,31.88,0,1,0,4.55,0Zm-2.27,59.11a27.32,27.32,0,1,1,27.32-27.32A27.35,27.35,0,0,1,950.42,658.59Z"/></g><g id="Ticket"><g id="_Group_2" data-name=" Group 2"><path id="_Path_2" data-name=" Path 2" class="cls-1" d="M987,120.57a37,37,0,0,1-37,37h0a37,37,0,0,1-37-37H880.53V315.3H913a37,37,0,0,1,74,0h32.47V120.57Z"/><path id="_Path_3" data-name=" Path 3" class="cls-5" d="M908.47,217.94A41.53,41.53,0,1,1,950,259.47a41.53,41.53,0,0,1-41.53-41.53Z"/></g><rect class="cls-6" x="824.66" y="92.6" width="250.69" height="250.69"/></g><path class="cls-3" d="M426.52,190V618.38H392.09c-90.3,0-163.51-95.9-163.51-214.19S301.79,190,392.09,190Z"/><path class="cls-7" d="M240.24,478.77c1.48,5.21,3.13,10.3,4.9,15.3H428v-15.3Z"/><path class="cls-7" d="M256.45,520.85q3.92,7.89,8.35,15.3H428v-15.3Z"/><path class="cls-7" d="M231.91,436.7c.6,5.17,1.39,10.26,2.27,15.3H428V436.7Z"/><path class="cls-7" d="M283.77,562.92a182,182,0,0,0,14.52,15.3H428v-15.3Z"/><path class="cls-7" d="M428,610.73v-15.3h-108a141.42,141.42,0,0,0,30.31,15.3Z"/><path class="cls-7" d="M234.85,352.56c-.95,5-1.75,10.13-2.42,15.29H428V352.56Z"/><path class="cls-7" d="M230.22,394.63c-.1,3.17-.18,6.35-.18,9.56,0,1.92.07,3.82.11,5.74H428v-15.3Z"/><path class="cls-7" d="M362.86,193.82A136.47,136.47,0,0,0,326,209.12H428v-15.3Z"/><path class="cls-7" d="M302.42,226.34a176.52,176.52,0,0,0-15.28,15.3H428v-15.3Z"/><path class="cls-7" d="M267.1,268.41q-4.62,7.38-8.74,15.3H428v-15.3Z"/><path class="cls-7" d="M246.5,310.48c-1.86,5-3.54,10.11-5.1,15.3H428v-15.3Z"/><ellipse class="cls-3" cx="427.47" cy="404.19" rx="163.51" ry="214.19"/><ellipse class="cls-1" cx="427.47" cy="404.19" rx="127.18" ry="177.85"/><path class="cls-5" d="M399.77,364.18,373,323.87h28.82l42.7,64.34H415.72a15.14,15.14,0,0,0-8.07,2.42,23.07,23.07,0,0,0-6.85,6.89,35.77,35.77,0,0,0-4.57,10.31,46.76,46.76,0,0,0,0,24.33,35.77,35.77,0,0,0,4.57,10.31,23.07,23.07,0,0,0,6.85,6.89,15,15,0,0,0,8.07,2.41h10.81l21.1,31.78H415.72a30.5,30.5,0,0,1-16.36-4.85,46.41,46.41,0,0,1-13.87-13.94,72.41,72.41,0,0,1-9.26-20.9A92.93,92.93,0,0,1,373,419.22c-.37-12.4,2.09-24.6,6.95-34.61s11.85-17.21,19.81-20.43Z"/><path class="cls-5" d="M473.58,444.16l26.54,40.35H471.54L429.18,420.1h28.58a15,15,0,0,0,8-2.42,22.94,22.94,0,0,0,6.79-6.9,36,36,0,0,0,4.53-10.32,47.41,47.41,0,0,0,0-24.35,36.11,36.11,0,0,0-4.53-10.33,22.9,22.9,0,0,0-6.79-6.89,15,15,0,0,0-8-2.42H447l-20.92-32.6h31.64A30.18,30.18,0,0,1,474,328.73a46.17,46.17,0,0,1,13.75,14,72.57,72.57,0,0,1,9.18,20.92,94,94,0,0,1,3.2,24.67,78.18,78.18,0,0,1-6.95,34.88c-4.81,10.12-11.7,17.51-19.59,21Z"/></g></g></svg>