<svg width="1160" height="800" viewBox="0 0 1160 800" fill="none" xmlns="http://www.w3.org/2000/svg">
<path d="M1160 0H0V800H1160V0Z" fill="white"/>
<path d="M1098.5 45.4004H60.2C52.5 45.4004 46.2 51.7004 46.2 59.4004V740.6C46.2 748.3 52.5 754.6 60.2 754.6H1098.4C1106.1 754.6 1112.4 748.3 1112.4 740.6V59.4004C1112.5 51.7004 1106.2 45.4004 1098.5 45.4004Z" fill="#2970FF"/>
<path d="M88.5 374.9H46.2V394.5H88.5V374.9Z" fill="white"/>
<path d="M182 374.9H99.6V394.5H182V374.9Z" fill="white"/>
<path d="M88.5 438.301H46.2V460.501H88.5V438.301Z" fill="white"/>
<path d="M182 438.301H99.6V460.501H182V438.301Z" fill="white"/>
<path d="M181.9 311.9H46.2V333.9H181.9V311.9Z" fill="white"/>
<path d="M88.5 385.9H46.2V424.7H88.5V385.9Z" fill="#091440"/>
<path d="M182 385.9H99.6V424.7H182V385.9Z" fill="#091440"/>
<path d="M88.5 449.301H46.2V488.101H88.5V449.301Z" fill="#091440"/>
<path d="M182 449.301H99.6V488.101H182V449.301Z" fill="#091440"/>
<path d="M181.9 322.9H46.2V361.4H181.9V322.9Z" fill="#091440"/>
<path d="M268.8 404.501L249 384.701V424.301L268.8 404.501Z" fill="#091440"/>
<path d="M911.2 404.501L891.4 384.701V424.301L911.2 404.501Z" fill="#091440"/>
<path d="M763 213L771.7 657.1H327.6L318.9 213H763Z" fill="#091440"/>
<path d="M763 213L832.4 142.9L841.1 587L771.7 657.1L763 213Z" fill="#C4CBD2"/>
<path d="M318.9 213L388.3 142.9H832.4L763 213H318.9Z" fill="white"/>
<path d="M1037.3 426.2H1034.7V424.2H1035.3V422.8H1037.3V426.2ZM1032.7 426.2H1028.7V424.2H1032.7V426.2ZM1026.8 426.2H1022.8V424.2H1026.8V426.2ZM1020.8 426.2H1016.8V424.2H1020.8V426.2ZM1014.8 426.2H1010.8V424.2H1014.8V426.2ZM1008.9 426.2H1004.9V424.2H1008.9V426.2ZM1002.9 426.2H998.9V424.2H1002.9V426.2ZM996.9 426.2H992.9V424.2H996.9V426.2ZM990.9 426.2H986.9V424.2H990.9V426.2ZM985 426.2H981V424.2H985V426.2ZM979 426.2H975V424.2H979V426.2ZM973 426.2H969V424.2H973V426.2ZM967 426.2H963V424.2H967V426.2ZM961.1 426.2H957.1V424.2H961.1V426.2ZM955.1 426.2H952.9V422.5H954.9V424.3H955.1V426.2ZM1037.3 420.8H1035.3V416.8H1037.3V420.8ZM954.9 420.4H952.9V416.4H954.9V420.4ZM1037.3 414.9H1035.3V410.9H1037.3V414.9ZM954.9 414.5H952.9V410.5H954.9V414.5ZM1037.3 408.9H1035.3V404.9H1037.3V408.9ZM954.9 408.5H952.9V404.5H954.9V408.5ZM1037.3 402.9H1035.3V398.9H1037.3V402.9ZM954.9 402.5H952.9V398.5H954.9V402.5ZM1037.3 396.9H1035.3V392.9H1037.3V396.9ZM954.9 396.5H952.9V392.5H954.9V396.5ZM1037.3 391H1035.3V387H1037.3V391ZM954.9 390.6H952.9V385.4H954.9V390.6ZM1037.3 385H1035.3V381H1037.3V385ZM954.9 383.4H952.9V379.4H954.9V383.4ZM1037.3 379H1035.3V375.6H1035.7V374.6H1037.3V379ZM954.9 377.4H952.9V374.7H956.1V376.7H954.9V377.4ZM1033.8 376.6H1029.8V374.6H1033.8V376.6ZM1027.8 376.6H1023.8V374.6H1027.8V376.6ZM1021.8 376.6H1017.8V374.6H1021.8V376.6ZM1015.8 376.6H1011.8V374.6H1015.8V376.6ZM1009.9 376.6H1005.9V374.6H1009.9V376.6ZM1003.9 376.6H999.9V374.6H1003.9V376.6ZM997.9 376.6H993.9V374.6H997.9V376.6ZM992 376.6H988V374.6H992V376.6ZM986 376.6H982V374.6H986V376.6ZM980 376.6H976V374.6H980V376.6ZM974 376.6H970V374.6H974V376.6ZM968.1 376.6H964.1V374.6H968.1V376.6ZM962.1 376.6H958.1V374.6H962.1V376.6Z" fill="#091440"/>
<path d="M1130.3 426.2H1128.1V424.2H1128.3V422.4H1130.3V426.2ZM1126.2 426.2H1122.2V424.2H1126.2V426.2ZM1120.2 426.2H1116.2V424.2H1120.2V426.2ZM1114.2 426.2H1110.2V424.2H1114.2V426.2ZM1108.3 426.2H1104.3V424.2H1108.3V426.2ZM1102.3 426.2H1098.3V424.2H1102.3V426.2ZM1096.3 426.2H1092.3V424.2H1096.3V426.2ZM1090.3 426.2H1086.3V424.2H1090.3V426.2ZM1084.4 426.2H1080.4V424.2H1084.4V426.2ZM1078.4 426.2H1074.4V424.2H1078.4V426.2ZM1072.4 426.2H1068.4V424.2H1072.4V426.2ZM1066.4 426.2H1062.4V424.2H1066.4V426.2ZM1060.5 426.2H1056.5V424.2H1060.5V426.2ZM1054.5 426.2H1050.5V424.2H1054.5V426.2ZM1048.5 426.2H1046.3V422.5H1048.3V424.3H1048.5V426.2ZM1048.3 420.4H1046.3V416.4H1048.3V420.4ZM1130.3 420.4H1128.3V416.4H1130.3V420.4ZM1048.3 414.5H1046.3V410.5H1048.3V414.5ZM1130.3 414.4H1128.3V410.4H1130.3V414.4ZM1048.3 408.5H1046.3V404.5H1048.3V408.5ZM1130.3 408.4H1128.3V404.4H1130.3V408.4ZM1048.3 402.5H1046.3V398.5H1048.3V402.5ZM1130.3 402.5H1128.3V398.5H1130.3V402.5ZM1048.3 396.5H1046.3V392.5H1048.3V396.5ZM1130.3 396.5H1128.3V392.5H1130.3V396.5ZM1048.3 390.6H1046.3V386.3H1048.3V390.6ZM1130.3 390.5H1128.3V386.6H1130.3V390.5ZM1130.3 384.6H1128.3V380.6H1130.3V384.6ZM1048.3 384.2H1046.3V380.2H1048.3V384.2ZM1130.3 378.6H1128.3V374.7H1130.3V378.6ZM1048.3 378.3H1046.3V374.7H1048.6V376.7H1048.2V378.3H1048.3ZM1126.3 376.6H1122.3V374.6H1126.3V376.6ZM1120.3 376.6H1116.3V374.6H1120.3V376.6ZM1114.4 376.6H1110.4V374.6H1114.4V376.6ZM1108.4 376.6H1104.4V374.6H1108.4V376.6ZM1102.4 376.6H1098.4V374.6H1102.4V376.6ZM1096.4 376.6H1092.4V374.6H1096.4V376.6ZM1090.5 376.6H1086.5V374.6H1090.5V376.6ZM1084.5 376.6H1080.5V374.6H1084.5V376.6ZM1078.5 376.6H1074.5V374.6H1078.5V376.6ZM1072.6 376.6H1068.6V374.6H1072.6V376.6ZM1066.6 376.6H1062.6V374.6H1066.6V376.6ZM1060.6 376.6H1056.6V374.6H1060.6V376.6ZM1054.6 376.6H1050.6V374.6H1054.6V376.6Z" fill="#091440"/>
<path d="M1037.3 489.401H1034.7V487.401H1035.3V486.001H1037.3V489.401ZM1032.7 489.401H1028.7V487.401H1032.7V489.401ZM1026.8 489.401H1022.8V487.401H1026.8V489.401ZM1020.8 489.401H1016.8V487.401H1020.8V489.401ZM1014.8 489.401H1010.8V487.401H1014.8V489.401ZM1008.9 489.401H1004.9V487.401H1008.9V489.401ZM1002.9 489.401H998.9V487.401H1002.9V489.401ZM996.9 489.401H992.9V487.401H996.9V489.401ZM990.9 489.401H986.9V487.401H990.9V489.401ZM985 489.401H981V487.401H985V489.401ZM979 489.401H975V487.401H979V489.401ZM973 489.401H969V487.401H973V489.401ZM967 489.401H963V487.401H967V489.401ZM961.1 489.401H957.1V487.401H961.1V489.401ZM955.1 489.401H952.9V485.701H954.9V487.501H955.1V489.401ZM1037.3 484.001H1035.3V480.001H1037.3V484.001ZM954.9 483.601H952.9V479.601H954.9V483.601ZM1037.3 478.001H1035.3V474.001H1037.3V478.001ZM954.9 477.601H952.9V473.601H954.9V477.601ZM1037.3 472.101H1035.3V468.101H1037.3V472.101ZM954.9 471.701H952.9V467.701H954.9V471.701ZM1037.3 466.101H1035.3V462.101H1037.3V466.101ZM954.9 465.701H952.9V461.701H954.9V465.701ZM1037.3 460.101H1035.3V456.101H1037.3V460.101ZM954.9 459.701H952.9V455.701H954.9V459.701ZM1037.3 454.101H1035.3V450.101H1037.3V454.101ZM954.9 453.701H952.9V448.501H954.9V453.701ZM1037.3 448.201H1035.3V444.201H1037.3V448.201ZM954.9 446.501H952.9V442.501H954.9V446.501ZM1037.3 442.201H1035.3V438.801H1035.7V437.801H1037.3V442.201ZM954.9 440.501H952.9V437.801H956.1V439.801H954.9V440.501ZM1033.8 439.801H1029.8V437.801H1033.8V439.801ZM1027.8 439.801H1023.8V437.801H1027.8V439.801ZM1021.8 439.801H1017.8V437.801H1021.8V439.801ZM1015.8 439.801H1011.8V437.801H1015.8V439.801ZM1009.9 439.801H1005.9V437.801H1009.9V439.801ZM1003.9 439.801H999.9V437.801H1003.9V439.801ZM997.9 439.801H993.9V437.801H997.9V439.801ZM992 439.801H988V437.801H992V439.801ZM986 439.801H982V437.801H986V439.801ZM980 439.801H976V437.801H980V439.801ZM974 439.801H970V437.801H974V439.801ZM968.1 439.801H964.1V437.801H968.1V439.801ZM962.1 439.801H958.1V437.801H962.1V439.801Z" fill="#091440"/>
<path d="M1130.3 489.401H1128.1V487.401H1128.3V485.601H1130.3V489.401ZM1126.2 489.401H1122.2V487.401H1126.2V489.401ZM1120.2 489.401H1116.2V487.401H1120.2V489.401ZM1114.2 489.401H1110.2V487.401H1114.2V489.401ZM1108.3 489.401H1104.3V487.401H1108.3V489.401ZM1102.3 489.401H1098.3V487.401H1102.3V489.401ZM1096.3 489.401H1092.3V487.401H1096.3V489.401ZM1090.3 489.401H1086.3V487.401H1090.3V489.401ZM1084.4 489.401H1080.4V487.401H1084.4V489.401ZM1078.4 489.401H1074.4V487.401H1078.4V489.401ZM1072.4 489.401H1068.4V487.401H1072.4V489.401ZM1066.4 489.401H1062.4V487.401H1066.4V489.401ZM1060.5 489.401H1056.5V487.401H1060.5V489.401ZM1054.5 489.401H1050.5V487.401H1054.5V489.401ZM1048.5 489.401H1046.3V485.701H1048.3V487.501H1048.5V489.401ZM1048.3 483.601H1046.3V479.601H1048.3V483.601ZM1130.3 483.601H1128.3V479.601H1130.3V483.601ZM1048.3 477.601H1046.3V473.601H1048.3V477.601ZM1130.3 477.601H1128.3V473.601H1130.3V477.601ZM1048.3 471.701H1046.3V467.701H1048.3V471.701ZM1130.3 471.601H1128.3V467.601H1130.3V471.601ZM1048.3 465.701H1046.3V461.701H1048.3V465.701ZM1130.3 465.601H1128.3V461.601H1130.3V465.601ZM1048.3 459.701H1046.3V455.701H1048.3V459.701ZM1130.3 459.701H1128.3V455.701H1130.3V459.701ZM1048.3 453.701H1046.3V449.401H1048.3V453.701ZM1130.3 453.701H1128.3V449.801H1130.3V453.701ZM1130.3 447.701H1128.3V443.701H1130.3V447.701ZM1048.3 447.401H1046.3V443.401H1048.3V447.401ZM1130.3 441.701H1128.3V437.801H1130.3V441.701ZM1048.3 441.401H1046.3V437.801H1048.6V439.801H1048.2V441.401H1048.3ZM1126.3 439.801H1122.3V437.801H1126.3V439.801ZM1120.3 439.801H1116.3V437.801H1120.3V439.801ZM1114.4 439.801H1110.4V437.801H1114.4V439.801ZM1108.4 439.801H1104.4V437.801H1108.4V439.801ZM1102.4 439.801H1098.4V437.801H1102.4V439.801ZM1096.5 439.801H1092.5V437.801H1096.5V439.801ZM1090.5 439.801H1086.5V437.801H1090.5V439.801ZM1084.5 439.801H1080.5V437.801H1084.5V439.801ZM1078.5 439.801H1074.5V437.801H1078.5V439.801ZM1072.6 439.801H1068.6V437.801H1072.6V439.801ZM1066.6 439.801H1062.6V437.801H1066.6V439.801ZM1060.6 439.801H1056.6V437.801H1060.6V439.801ZM1054.6 439.801H1050.6V437.801H1054.6V439.801Z" fill="#091440"/>
<path d="M1129.3 363.2H1125.5V361.2H1129.3V362.1L1130.3 362V363L1129.3 363.2ZM1123.5 363.2H1119.5V361.2H1123.5V363.2ZM1117.6 363.2H1113.6V361.2H1117.6V363.2ZM1111.6 363.2H1107.6V361.2H1111.6V363.2ZM1105.6 363.2H1101.6V361.2H1105.6V363.2ZM1099.6 363.2H1095.6V361.2H1099.6V363.2ZM1093.7 363.2H1089.7V361.2H1093.7V363.2ZM1087.7 363.2H1083.7V361.2H1087.7V363.2ZM1081.7 363.2H1077.7V361.2H1081.7V363.2ZM1075.8 363.2H1071.8V361.2H1075.8V363.2ZM1069.8 363.2H1065.8V361.2H1069.8V363.2ZM1063.8 363.2H1059.8V361.2H1063.8V363.2ZM1057.8 363.2H1053.8V361.2H1057.8V363.2ZM1051.9 363.2H1047.9V361.2H1051.9V363.2ZM1045.9 363.2H1041.9V361.2H1045.9V363.2ZM1039.9 363.2H1035.9V361.2H1039.9V363.2ZM1033.9 363.2H1029.9V361.2H1033.9V363.2ZM1028 363.2H1024V361.2H1028V363.2ZM1022 363.2H1018V361.2H1022V363.2ZM1016 363.2H1012V361.2H1016V363.2ZM1010.1 363.2H1006.1V361.2H1010.1V363.2ZM1004.1 363.2H1000.1V361.2H1004.1V363.2ZM998.1 363.2H994.1V361.2H998.1V363.2ZM992.1 363.2H988.1V361.2H992.1V363.2ZM986.2 363.2H982.2V361.2H986.2V363.2ZM980.2 363.2H976.2V361.2H980.2V363.2ZM974.2 363.2H970.2V361.2H974.2V363.2ZM968.2 363.2H964.2V361.2H968.2V363.2ZM962.3 363.2H958.3V361.2H962.3V363.2ZM956.3 363.2H952.9V360.7H954.9V361.3H956.3V363.2ZM1130.3 360.1H1128.3V356.1H1130.3V360.1ZM954.9 358.7H952.9V354.7H954.9V358.7ZM1130.3 354.1H1128.3V350.1H1130.3V354.1ZM954.9 352.7H952.9V348.7H954.9V352.7ZM1130.3 348.1H1128.3V344.1H1130.3V348.1ZM954.9 346.7H952.9V342.7H954.9V346.7ZM1130.3 342.2H1128.3V338.2H1130.3V342.2ZM954.9 340.8H952.9V336.8H954.9V340.8ZM1130.3 336.2H1128.3V332.2H1130.3V336.2ZM954.9 334.8H952.9V330.8H954.9V334.8ZM1130.3 330.2H1128.3V326.2H1130.3V330.2ZM954.9 328.8H952.9V324.8H954.9V328.8ZM1130.3 324.2H1128.3V320.2H1130.3V324.2ZM954.9 322.9H952.9V318.9H954.9V322.9ZM1130.3 318.3H1128.3V314.3H1130.3V318.3ZM954.9 316.9H952.9V311.9H955.5V313.9H954.9V316.9ZM1128.7 313.9H1124.7V311.9H1128.7V313.9ZM1122.8 313.9H1118.8V311.9H1122.8V313.9ZM1116.8 313.9H1112.8V311.9H1116.8V313.9ZM1110.8 313.9H1106.8V311.9H1110.8V313.9ZM1104.8 313.9H1100.8V311.9H1104.8V313.9ZM1098.9 313.9H1094.9V311.9H1098.9V313.9ZM1092.9 313.9H1088.9V311.9H1092.9V313.9ZM1086.9 313.9H1082.9V311.9H1086.9V313.9ZM1080.9 313.9H1076.9V311.9H1080.9V313.9ZM1075 313.9H1071V311.9H1075V313.9ZM1069 313.9H1065V311.9H1069V313.9ZM1063 313.9H1059V311.9H1063V313.9ZM1057.1 313.9H1053.1V311.9H1057.1V313.9ZM1051.1 313.9H1047.1V311.9H1051.1V313.9ZM1045.1 313.9H1041.1V311.9H1045.1V313.9ZM1039.1 313.9H1035.1V311.9H1039.1V313.9ZM1033.2 313.9H1029.2V311.9H1033.2V313.9ZM1027.2 313.9H1023.2V311.9H1027.2V313.9ZM1021.2 313.9H1017.2V311.9H1021.2V313.9ZM1015.2 313.9H1011.2V311.9H1015.2V313.9ZM1009.3 313.9H1005.3V311.9H1009.3V313.9ZM1003.3 313.9H999.3V311.9H1003.3V313.9ZM997.3 313.9H993.3V311.9H997.3V313.9ZM991.4 313.9H987.4V311.9H991.4V313.9ZM985.4 313.9H981.4V311.9H985.4V313.9ZM979.4 313.9H975.4V311.9H979.4V313.9ZM973.4 313.9H969.4V311.9H973.4V313.9ZM967.5 313.9H963.5V311.9H967.5V313.9ZM961.5 313.9H957.5V311.9H961.5V313.9Z" fill="#091440"/>
<path d="M429.6 265.301C429.6 274.301 422.3 281.501 413.4 281.501C404.4 281.501 397.2 274.201 397.2 265.301H383V350.701H397.2C397.2 341.701 404.5 334.501 413.4 334.501C422.4 334.501 429.6 341.801 429.6 350.701H443.8V265.301H429.6Z" fill="white"/>
<path d="M413.4 326.199C423.617 326.199 431.9 317.916 431.9 307.699C431.9 297.482 423.617 289.199 413.4 289.199C403.183 289.199 394.9 297.482 394.9 307.699C394.9 317.916 403.183 326.199 413.4 326.199Z" fill="#091440"/>
<path d="M411.1 315.099L402.9 306.899L404.5 305.299L411.1 311.799L421.7 301.199L423.3 302.799L411.1 315.099Z" fill="white"/>
<path d="M674.2 265.301C674.2 274.301 666.9 281.501 658 281.501C649 281.501 641.8 274.201 641.8 265.301H627.6V350.701H641.8C641.8 341.701 649.1 334.501 658 334.501C667 334.501 674.2 341.801 674.2 350.701H688.4V265.301H674.2Z" fill="white"/>
<path d="M658 326.199C668.217 326.199 676.5 317.916 676.5 307.699C676.5 297.482 668.217 289.199 658 289.199C647.783 289.199 639.5 297.482 639.5 307.699C639.5 317.916 647.783 326.199 658 326.199Z" fill="#091440"/>
<path d="M655.7 315.099L647.5 306.899L649.2 305.299L655.7 311.799L666.3 301.199L667.9 302.799L655.7 315.099Z" fill="white"/>
<path d="M429.6 509.5C429.6 518.5 422.3 525.7 413.4 525.7C404.4 525.7 397.2 518.4 397.2 509.5H383V595H397.2C397.2 586 404.5 578.8 413.4 578.8C422.4 578.8 429.6 586.1 429.6 595H443.8V509.6H429.6V509.5Z" fill="white"/>
<path d="M413.4 570.5C423.617 570.5 431.9 562.217 431.9 552C431.9 541.783 423.617 533.5 413.4 533.5C403.183 533.5 394.9 541.783 394.9 552C394.9 562.217 403.183 570.5 413.4 570.5Z" fill="#091440"/>
<path d="M411.1 559.4L402.9 551.2L404.5 549.6L411.1 556.1L421.7 545.5L423.3 547.1L411.1 559.4Z" fill="white"/>
<path d="M674.2 509.5C674.2 518.5 666.9 525.7 658 525.7C649 525.7 641.8 518.4 641.8 509.5H627.6V595H641.8C641.8 586 649.1 578.8 658 578.8C667 578.8 674.2 586.1 674.2 595H688.4V509.6H674.2V509.5Z" fill="white"/>
<path d="M658 570.5C668.217 570.5 676.5 562.217 676.5 552C676.5 541.783 668.217 533.5 658 533.5C647.783 533.5 639.5 541.783 639.5 552C639.5 562.217 647.783 570.5 658 570.5Z" fill="#091440"/>
<path d="M655.7 559.4L647.5 551.2L649.2 549.6L655.7 556.1L666.3 545.5L667.9 547.1L655.7 559.4Z" fill="white"/>
<path d="M561.6 381.898C561.6 390.898 554.3 398.098 545.4 398.098C536.4 398.098 529.2 390.798 529.2 381.898H515V467.298H529.2C529.2 458.298 536.5 451.098 545.4 451.098C554.4 451.098 561.6 458.398 561.6 467.298H575.8V381.898H561.6Z" fill="white"/>
<path d="M545.3 442.898C555.517 442.898 563.8 434.616 563.8 424.398C563.8 414.181 555.517 405.898 545.3 405.898C535.083 405.898 526.8 414.181 526.8 424.398C526.8 434.616 535.083 442.898 545.3 442.898Z" fill="#091440"/>
<path d="M543 431.798L534.8 423.598L536.5 421.998L543 428.498L553.6 417.898L555.2 419.498L543 431.798Z" fill="white"/>
<path d="M1160 261.199H1112.5V548.899H1160V261.199Z" fill="white"/>
</svg>
