<svg width="1160" height="800" viewBox="0 0 1160 800" fill="none" xmlns="http://www.w3.org/2000/svg">
<path d="M1160 0H0V800H1160V0Z" fill="white"/>
<path d="M1098.5 292.9H60.2001C52.5001 292.9 46.2001 299.2 46.2001 306.9L45.6001 740.6C45.6001 748.3 51.9001 754.6 59.6001 754.6H1097.8C1105.5 754.6 1111.8 748.3 1111.8 740.6L1112.4 306.9C1112.5 299.1 1106.2 292.9 1098.5 292.9Z" fill="#2970FF"/>
<path d="M1098.5 292.9H60.2001C52.5001 292.9 46.2001 299.2 46.2001 306.9L45.6001 740.6C45.6001 748.3 51.9001 754.6 59.6001 754.6H1097.8C1105.5 754.6 1111.8 748.3 1111.8 740.6L1112.4 306.9C1112.5 299.1 1106.2 292.9 1098.5 292.9Z" fill="#2970FF"/>
<path d="M1112.3 442.3L1112.5 306.9C1112.5 299.2 1106.2 292.9 1098.5 292.9H60.2C52.5 292.9 46.2 299.2 46.2 306.9L46 442.3H1112.3Z" fill="#091440"/>
<path d="M1098.5 45.4004H60.2C52.5 45.4004 46.2 51.7004 46.2 59.4004V258.9C46.2 266.6 52.5 272.9 60.2 272.9H1098.4C1106.1 272.9 1112.4 266.6 1112.4 258.9V59.4004C1112.5 51.7004 1106.2 45.4004 1098.5 45.4004Z" fill="#C4CBD2"/>
<path d="M71.4 151.1H46.2V161.9H71.4V151.1Z" fill="white"/>
<path d="M123 151.1H77.5V161.9H123V151.1Z" fill="white"/>
<path d="M71.4 186.1H46.2V198.4H71.4V186.1Z" fill="white"/>
<path d="M123 186.1H77.5V198.4H123V186.1Z" fill="white"/>
<path d="M122.9 116.299H46.2V128.499H122.9V116.299Z" fill="white"/>
<path d="M71.4 157.1H46.2V178.5H71.4V157.1Z" fill="#091440"/>
<path d="M123 157.1H77.5V178.5H123V157.1Z" fill="#091440"/>
<path d="M71.4 192.199H46.2V213.599H71.4V192.199Z" fill="#091440"/>
<path d="M123 192.199H77.5V213.599H123V192.199Z" fill="#091440"/>
<path d="M122.9 122.398H46.2V143.698H122.9V122.398Z" fill="#091440"/>
<path d="M237.3 151.1H191.6V161.9H237.3V151.1Z" fill="white"/>
<path d="M288.9 151.1H243.4V161.9H288.9V151.1Z" fill="white"/>
<path d="M237.3 186.1H191.6V198.4H237.3V186.1Z" fill="white"/>
<path d="M288.9 186.1H243.4V198.4H288.9V186.1Z" fill="white"/>
<path d="M288.9 116.299H191.6V128.499H288.9V116.299Z" fill="white"/>
<path d="M237.3 157.1H191.6V178.5H237.3V157.1Z" fill="#091440"/>
<path d="M288.9 157.1H243.4V178.5H288.9V157.1Z" fill="#091440"/>
<path d="M237.3 192.199H191.6V213.599H237.3V192.199Z" fill="#091440"/>
<path d="M288.9 192.199H243.4V213.599H288.9V192.199Z" fill="#091440"/>
<path d="M288.9 122.398H191.6V143.698H288.9V122.398Z" fill="#091440"/>
<path d="M401.1 151.1H355.4V161.9H401.1V151.1Z" fill="white"/>
<path d="M452.7 151.1H407.2V161.9H452.7V151.1Z" fill="white"/>
<path d="M401.1 186.1H355.4V198.4H401.1V186.1Z" fill="white"/>
<path d="M452.7 186.1H407.2V198.4H452.7V186.1Z" fill="white"/>
<path d="M452.7 116.299H355.4V128.499H452.7V116.299Z" fill="white"/>
<path d="M401.1 157.1H355.4V178.5H401.1V157.1Z" fill="#091440"/>
<path d="M452.7 157.1H407.2V178.5H452.7V157.1Z" fill="#091440"/>
<path d="M401.1 192.199H355.4V213.599H401.1V192.199Z" fill="#091440"/>
<path d="M452.7 192.199H407.2V213.599H452.7V192.199Z" fill="#091440"/>
<path d="M452.7 122.398H355.4V143.698H452.7V122.398Z" fill="#091440"/>
<path d="M162.7 167.4L151.8 156.5V178.4L162.7 167.4Z" fill="#091440"/>
<path d="M327.6 167.4L316.6 156.5V178.4L327.6 167.4Z" fill="#091440"/>
<path d="M500.7 167.4L489.7 156.5V178.4L500.7 167.4Z" fill="#091440"/>
<path d="M657.3 411.601H486.9L496.4 352.301H647.8L657.3 411.601Z" fill="#2970FF"/>
<path d="M608.5 430.4L535.4 418.5L504.6 373L577.8 384.9L608.5 430.4Z" fill="#091440"/>
<path d="M577.8 384.9L504.6 373L536.9 306L610 317.9L577.8 384.9Z" fill="white"/>
<path d="M515 643.501L562 604.301L573.9 683.201L526.9 722.501L515 643.501Z" fill="#C4CBD2"/>
<path d="M515 643.5L435.3 630.6L482.4 591.4L562 604.3L515 643.5Z" fill="white"/>
<path d="M526.9 722.5L447.3 709.6L435.3 630.6L515 643.5L526.9 722.5Z" fill="#091440"/>
<path d="M798.8 739.9L719.2 727L756.1 656.9L835.7 669.8L798.8 739.9Z" fill="white"/>
<path d="M291.3 635.301L336 651.501L317.2 738.201L272.5 722.001L291.3 635.301Z" fill="#C4CBD2"/>
<path d="M317.2 738.2L237.6 725.3L192.8 709.1L272.5 722L317.2 738.2Z" fill="#091440"/>
<path d="M272.5 722L192.8 709.1L211.6 622.4L291.3 635.3L272.5 722Z" fill="white"/>
<path d="M921.3 523.6L964.6 546.1L942.6 631.4L899.3 608.9L921.3 523.6Z" fill="#C4CBD2"/>
<path d="M942.6 631.4L862.9 618.5L819.7 596L899.3 608.9L942.6 631.4Z" fill="#091440"/>
<path d="M899.3 608.899L819.7 595.999L841.7 510.699L921.3 523.599L899.3 608.899Z" fill="white"/>
<path d="M721.1 541.5L749.8 580.9L692.2 647.5L663.5 608.1L721.1 541.5Z" fill="#C4CBD2"/>
<path d="M692.2 647.499L626.6 600.499L597.9 561.199L663.5 608.099L692.2 647.499Z" fill="#091440"/>
<path d="M663.5 608.1L597.9 561.2L655.5 494.6L721.1 541.5L663.5 608.1Z" fill="white"/>
<path d="M238.7 538.301L272.2 587.801L237.2 660.801L203.7 611.301L238.7 538.301Z" fill="#C4CBD2"/>
<path d="M237.2 660.8L157.5 647.9L124 598.4L203.7 611.3L237.2 660.8Z" fill="#091440"/>
<path d="M203.7 611.3L124 598.4L159.1 525.4L238.7 538.3L203.7 611.3Z" fill="white"/>
<path d="M432.1 536.3L480.5 523.6L477.2 610.8L428.8 623.6L432.1 536.3Z" fill="#C4CBD2"/>
<path d="M432.1 536.299L352.5 523.399L400.9 510.699L480.5 523.599L432.1 536.299Z" fill="white"/>
<path d="M428.8 623.598L349.2 610.698L352.5 523.398L432.1 536.298L428.8 623.598Z" fill="#091440"/>
<path d="M807.4 754.6L798.8 739.9L719.2 727L735.4 754.6H807.4Z" fill="#091440"/>
<path d="M850.7 754.601L867.2 723.301L835.7 669.801L798.8 739.901L807.4 754.601H850.7Z" fill="#C4CBD2"/>
<path d="M617.6 411.6L640.8 363.3L610 317.9L577.8 384.9L595.9 411.6H617.6Z" fill="#C4CBD2"/>
<path d="M579.3 178.098H577.9V176.998H578.2V176.198H579.3V178.098ZM576.8 178.098H574.6V176.998H576.8V178.098ZM573.5 178.098H571.3V176.998H573.5V178.098ZM570.2 178.098H568V176.998H570.2V178.098ZM567 178.098H564.8V176.998H567V178.098ZM563.7 178.098H561.5V176.998H563.7V178.098ZM560.5 178.098H558.3V176.998H560.5V178.098ZM557.2 178.098H555V176.998H557.2V178.098ZM553.9 178.098H551.7V176.998H553.9V178.098ZM550.7 178.098H548.5V176.998H550.7V178.098ZM547.4 178.098H545.2V176.998H547.4V178.098ZM544.1 178.098H542V176.998H544.2V178.098H544.1ZM540.9 178.098H538.7V176.998H540.9V178.098ZM537.6 178.098H535.4V176.998H537.6V178.098ZM534.3 178.098H533.1V176.098H534.2V177.098H534.3V178.098ZM579.3 175.198H578.2V172.998H579.3V175.198ZM534.2 174.998H533.1V172.798H534.2V174.998ZM579.3 171.898H578.2V169.698H579.3V171.898ZM534.2 171.698H533.1V169.498H534.2V171.698ZM579.3 168.598H578.2V166.398H579.3V168.598ZM534.2 168.398H533.1V166.198H534.2V168.398ZM579.3 165.398H578.2V163.198H579.3V165.398ZM534.2 165.198H533.1V162.998H534.2V165.198ZM579.3 162.098H578.2V159.998H579.3V162.098ZM534.2 161.898H533.1V159.698H534.2V161.898ZM579.3 158.898H578.2V156.698H579.3V158.898ZM534.2 158.598H533.1V155.698H534.2V158.598ZM579.3 155.598H578.2V153.398H579.3V155.598ZM534.2 154.698H533.1V152.498H534.2V154.698ZM579.3 152.298H578.2V150.498H578.4V149.998H579.3V152.298ZM534.2 151.398H533.1V149.898H534.9V150.998H534.2V151.398ZM577.3 150.998H575.1V149.898H577.3V150.998ZM574.1 150.998H571.9V149.898H574.1V150.998ZM570.8 150.998H568.6V149.898H570.8V150.998ZM567.5 150.998H565.3V149.898H567.5V150.998ZM564.3 150.998H562.1V149.898H564.3V150.998ZM561 150.998H558.8V149.898H561V150.998ZM557.7 150.998H555.5V149.898H557.7V150.998ZM554.5 150.998H552.3V149.898H554.5V150.998ZM551.2 150.998H549V149.898H551.2V150.998ZM548 150.998H545.8V149.898H548V150.998ZM544.7 150.998H542.5V149.898H544.7V150.998ZM541.4 150.998H539.2V149.898H541.4V150.998ZM538.2 150.998H536V149.898H538.2V150.998Z" fill="#091440"/>
<path d="M630.1 178.098H628.9V176.998H629V175.998H630.1V178.098ZM627.8 178.098H625.6V176.998H627.8V178.098ZM624.5 178.098H622.3V176.998H624.5V178.098ZM621.3 178.098H619.1V176.998H621.3V178.098ZM618 178.098H615.8V176.998H618V178.098ZM614.8 178.098H612.6V176.998H614.8V178.098ZM611.5 178.098H609.3V176.998H611.5V178.098ZM608.2 178.098H606V176.998H608.2V178.098ZM605 178.098H602.8V176.998H605V178.098ZM601.7 178.098H599.5V176.998H601.7V178.098ZM598.4 178.098H596.2V176.998H598.4V178.098ZM595.2 178.098H593V176.998H595.2V178.098ZM591.9 178.098H589.7V176.998H591.9V178.098ZM588.7 178.098H586.5V176.998H588.7V178.098ZM585.4 178.098H584.2V176.098H585.3V177.098H585.4V178.098ZM585.3 174.998H584.2V172.798H585.3V174.998ZM630.1 174.898H629V172.698H630.1V174.898ZM585.3 171.698H584.2V169.498H585.3V171.698ZM630.1 171.698H629V169.498H630.1V171.698ZM585.3 168.398H584.2V166.198H585.3V168.398ZM630.1 168.398H629V166.198H630.1V168.398ZM585.3 165.198H584.2V162.998H585.3V165.198ZM630.1 165.098H629V162.998H630.1V165.098ZM585.3 161.898H584.2V159.698H585.3V161.898ZM630.1 161.898H629V159.698H630.1V161.898ZM585.3 158.598H584.2V156.198H585.3V158.598ZM630.1 158.598H629V156.498H630.1V158.598ZM630.1 155.398H629V153.198H630.1V155.398ZM585.3 155.198H584.2V152.998H585.3V155.198ZM630.1 152.098H629V149.998H630.1V152.098ZM585.3 151.898H584.2V149.898H585.5V150.998H585.3V151.898ZM627.9 150.998H625.7V149.898H627.9V150.998ZM624.6 150.998H622.4V149.898H624.6V150.998ZM621.4 150.998H619.2V149.898H621.4V150.998ZM618.1 150.998H615.9V149.898H618.1V150.998ZM614.8 150.998H612.6V149.898H614.8V150.998ZM611.6 150.998H609.4V149.898H611.6V150.998ZM608.3 150.998H606.1V149.898H608.3V150.998ZM605 150.998H602.8V149.898H605V150.998ZM601.8 150.998H599.6V149.898H601.8V150.998ZM598.5 150.998H596.3V149.898H598.5V150.998ZM595.3 150.998H593.1V149.898H595.3V150.998ZM592 150.998H589.8V149.898H592V150.998ZM588.7 150.998H586.5V149.898H588.7V150.998Z" fill="#091440"/>
<path d="M579.3 212.598H577.9V211.498H578.2V210.698H579.3V212.598ZM576.8 212.598H574.6V211.498H576.8V212.598ZM573.5 212.598H571.3V211.498H573.5V212.598ZM570.2 212.598H568V211.498H570.2V212.598ZM567 212.598H564.8V211.498H567V212.598ZM563.7 212.598H561.5V211.498H563.7V212.598ZM560.5 212.598H558.3V211.498H560.5V212.598ZM557.2 212.598H555V211.498H557.2V212.598ZM553.9 212.598H551.7V211.498H553.9V212.598ZM550.7 212.598H548.5V211.498H550.7V212.598ZM547.4 212.598H545.2V211.498H547.4V212.598ZM544.1 212.598H542V211.498H544.2V212.598H544.1ZM540.9 212.598H538.7V211.498H540.9V212.598ZM537.6 212.598H535.4V211.498H537.6V212.598ZM534.3 212.598H533.1V210.598H534.2V211.598H534.3V212.598ZM579.3 209.698H578.2V207.498H579.3V209.698ZM534.2 209.498H533.1V207.298H534.2V209.498ZM579.3 206.398H578.2V204.198H579.3V206.398ZM534.2 206.198H533.1V203.998H534.2V206.198ZM579.3 203.198H578.2V200.998H579.3V203.198ZM534.2 202.898H533.1V200.698H534.2V202.898ZM579.3 199.898H578.2V197.698H579.3V199.898ZM534.2 199.698H533.1V197.498H534.2V199.698ZM579.3 196.598H578.2V194.398H579.3V196.598ZM534.2 196.398H533.1V194.198H534.2V196.398ZM579.3 193.398H578.2V191.198H579.3V193.398ZM534.2 193.198H533.1V190.298H534.2V193.198ZM579.3 190.098H578.2V187.898H579.3V190.098ZM534.2 189.198H533.1V186.998H534.2V189.198ZM579.3 186.798H578.2V184.998H578.4V184.498H579.3V186.798ZM534.2 185.898H533.1V184.398H534.9V185.498H534.2V185.898ZM577.3 185.498H575.1V184.398H577.3V185.498ZM574.1 185.498H571.9V184.398H574.1V185.498ZM570.8 185.498H568.6V184.398H570.8V185.498ZM567.5 185.498H565.3V184.398H567.5V185.498ZM564.3 185.498H562.1V184.398H564.3V185.498ZM561 185.498H558.8V184.398H561V185.498ZM557.7 185.498H555.5V184.398H557.7V185.498ZM554.5 185.498H552.3V184.398H554.5V185.498ZM551.2 185.498H549V184.398H551.2V185.498ZM548 185.498H545.8V184.398H548V185.498ZM544.7 185.498H542.5V184.398H544.7V185.498ZM541.4 185.498H539.2V184.398H541.4V185.498ZM538.2 185.498H536V184.398H538.2V185.498Z" fill="#091440"/>
<path d="M630.1 212.598H628.9V211.498H629V210.498H630.1V212.598ZM627.8 212.598H625.6V211.498H627.8V212.598ZM624.5 212.598H622.3V211.498H624.5V212.598ZM621.3 212.598H619.1V211.498H621.3V212.598ZM618 212.598H615.8V211.498H618V212.598ZM614.8 212.598H612.6V211.498H614.8V212.598ZM611.5 212.598H609.3V211.498H611.5V212.598ZM608.2 212.598H606V211.498H608.2V212.598ZM605 212.598H602.8V211.498H605V212.598ZM601.7 212.598H599.5V211.498H601.7V212.598ZM598.4 212.598H596.2V211.498H598.4V212.598ZM595.2 212.598H593V211.498H595.2V212.598ZM591.9 212.598H589.7V211.498H591.9V212.598ZM588.7 212.598H586.5V211.498H588.7V212.598ZM585.4 212.598H584.2V210.598H585.3V211.598H585.4V212.598ZM585.3 209.498H584.2V207.298H585.3V209.498ZM630.1 209.398H629V207.198H630.1V209.398ZM585.3 206.198H584.2V203.998H585.3V206.198ZM630.1 206.198H629V203.998H630.1V206.198ZM585.3 202.898H584.2V200.698H585.3V202.898ZM630.1 202.898H629V200.698H630.1V202.898ZM585.3 199.698H584.2V197.498H585.3V199.698ZM630.1 199.698H629V197.498H630.1V199.698ZM585.3 196.398H584.2V194.198H585.3V196.398ZM630.1 196.398H629V194.198H630.1V196.398ZM585.3 193.198H584.2V190.798H585.3V193.198ZM630.1 193.098H629V190.998H630.1V193.098ZM630.1 189.898H629V187.698H630.1V189.898ZM585.3 189.698H584.2V187.498H585.3V189.698ZM630.1 186.598H629V184.498H630.1V186.598ZM585.3 186.398H584.2V184.398H585.5V185.498H585.3V186.398ZM627.9 185.498H625.7V184.398H627.9V185.498ZM624.6 185.498H622.4V184.398H624.6V185.498ZM621.4 185.498H619.2V184.398H621.4V185.498ZM618.1 185.498H615.9V184.398H618.1V185.498ZM614.8 185.498H612.6V184.398H614.8V185.498ZM611.6 185.498H609.4V184.398H611.6V185.498ZM608.3 185.498H606.1V184.398H608.3V185.498ZM605 185.498H602.8V184.398H605V185.498ZM601.8 185.498H599.6V184.398H601.8V185.498ZM598.5 185.498H596.3V184.398H598.5V185.498ZM595.3 185.498H593.1V184.398H595.3V185.498ZM592 185.498H589.8V184.398H592V185.498ZM588.7 185.498H586.5V184.398H588.7V185.498Z" fill="#091440"/>
<path d="M629.5 143.699H627.4V142.599H629.5V143.099H630V143.599L629.5 143.699ZM626.4 143.699H624.2V142.599H626.4V143.699ZM623.1 143.699H620.9V142.599H623.1V143.699ZM619.8 143.699H617.6V142.599H619.8V143.699ZM616.6 143.699H614.4V142.599H616.6V143.699ZM613.3 143.699H611.1V142.599H613.3V143.699ZM610.1 143.699H607.9V142.599H610.1V143.699ZM606.8 143.699H604.6V142.599H606.8V143.699ZM603.5 143.699H601.3V142.599H603.5V143.699ZM600.3 143.699H598.1V142.599H600.3V143.699ZM597 143.699H594.8V142.599H597V143.699ZM593.7 143.699H591.5V142.599H593.7V143.699ZM590.5 143.699H588.3V142.599H590.5V143.699ZM587.2 143.699H585V142.599H587.2V143.699ZM583.9 143.699H581.7V142.599H583.9V143.699ZM580.7 143.699H578.5V142.599H580.7V143.699ZM577.4 143.699H575.2V142.599H577.4V143.699ZM574.2 143.699H572V142.599H574.2V143.699ZM570.9 143.699H568.7V142.599H570.9V143.699ZM567.6 143.699H565.4V142.599H567.6V143.699ZM564.4 143.699H562.2V142.599H564.4V143.699ZM561.1 143.699H558.9V142.599H561.1V143.699ZM557.8 143.699H555.6V142.599H557.8V143.699ZM554.6 143.699H552.4V142.599H554.6V143.699ZM551.3 143.699H549.1V142.599H551.3V143.699ZM548.1 143.699H545.9V142.599H548.1V143.699ZM544.8 143.699H542.6V142.599H544.8V143.699ZM541.5 143.699H539.3V142.599H541.5V143.699ZM538.3 143.699H536.1V142.599H538.3V143.699ZM535 143.699H533.1V142.299H534.2V142.599H535V143.699ZM630.1 141.999H629V139.799H630.1V141.999ZM534.2 141.199H533.1V138.999H534.2V141.199ZM630.1 138.699H629V136.499H630.1V138.699ZM534.2 137.999H533.1V135.799H534.2V137.999ZM630.1 135.499H629V133.299H630.1V135.499ZM534.2 134.699H533.1V132.499H534.2V134.699ZM630.1 132.199H629V129.999H630.1V132.199ZM534.2 131.399H533.1V129.199H534.2V131.399ZM630.1 128.899H629V126.699H630.1V128.899ZM534.2 128.199H533.1V125.999H534.2V128.199ZM630.1 125.699H629V123.499H630.1V125.699ZM534.2 124.899H533.1V122.699H534.2V124.899ZM630.1 122.399H629V120.199H630.1V122.399ZM534.2 121.599H533.1V119.399H534.2V121.599ZM630.1 119.099H629V116.999H630.1V119.099ZM534.2 118.399H533.1V115.699H534.5V116.799H534.1V118.399H534.2ZM629.2 116.799H627V115.699H629.2V116.799ZM625.9 116.799H623.7V115.699H625.9V116.799ZM622.7 116.799H620.5V115.699H622.7V116.799ZM619.4 116.799H617.2V115.699H619.4V116.799ZM616.2 116.799H614V115.699H616.2V116.799ZM612.9 116.799H610.7V115.699H612.9V116.799ZM609.6 116.799H607.4V115.699H609.6V116.799ZM606.4 116.799H604.2V115.699H606.4V116.799ZM603.1 116.799H600.9V115.699H603.1V116.799ZM599.8 116.799H597.6V115.699H599.8V116.799ZM596.6 116.799H594.4V115.699H596.6V116.799ZM593.3 116.799H591.1V115.699H593.3V116.799ZM590 116.799H587.8V115.699H590V116.799ZM586.8 116.799H584.6V115.699H586.8V116.799ZM583.5 116.799H581.3V115.699H583.5V116.799ZM580.3 116.799H578.1V115.699H580.3V116.799ZM577 116.799H574.8V115.699H577V116.799ZM573.7 116.799H571.5V115.699H573.7V116.799ZM570.5 116.799H568.3V115.699H570.5V116.799ZM567.2 116.799H565V115.699H567.2V116.799ZM563.9 116.799H561.7V115.699H563.9V116.799ZM560.7 116.799H558.5V115.699H560.7V116.799ZM557.4 116.799H555.2V115.699H557.4V116.799ZM554.2 116.799H552V115.699H554.2V116.799ZM550.9 116.799H548.7V115.699H550.9V116.799ZM547.6 116.799H545.4V115.699H547.6V116.799ZM544.4 116.799H542.2V115.699H544.4V116.799ZM541.1 116.799H538.9V115.699H541.1V116.799ZM537.8 116.799H535.6V115.699H537.8V116.799Z" fill="#091440"/>
<path d="M608.5 332.7C616.674 332.7 623.3 326.073 623.3 317.9C623.3 309.726 616.674 303.1 608.5 303.1C600.326 303.1 593.7 309.726 593.7 317.9C593.7 326.073 600.326 332.7 608.5 332.7Z" fill="#2970FF"/>
<path d="M614.3 312.9L607.4 319.8L602.7 315.2L600.4 317.5L607.4 324.5L616.7 315.2L614.3 312.9Z" fill="white"/>
<path d="M630.1 130.7C638.053 130.7 644.5 124.253 644.5 116.3C644.5 108.347 638.053 101.9 630.1 101.9C622.147 101.9 615.7 108.347 615.7 116.3C615.7 124.253 622.147 130.7 630.1 130.7Z" fill="white"/>
<path d="M622.4 119.2C624.002 119.2 625.3 117.902 625.3 116.3C625.3 114.699 624.002 113.4 622.4 113.4C620.798 113.4 619.5 114.699 619.5 116.3C619.5 117.902 620.798 119.2 622.4 119.2Z" fill="#091440"/>
<path d="M630.1 119.2C631.702 119.2 633 117.902 633 116.3C633 114.699 631.702 113.4 630.1 113.4C628.498 113.4 627.2 114.699 627.2 116.3C627.2 117.902 628.498 119.2 630.1 119.2Z" fill="#091440"/>
<path d="M637.8 119.2C639.401 119.2 640.7 117.902 640.7 116.3C640.7 114.699 639.401 113.4 637.8 113.4C636.198 113.4 634.9 114.699 634.9 116.3C634.9 117.902 636.198 119.2 637.8 119.2Z" fill="#091440"/>
</svg>
