<svg width="1160" height="800" viewBox="0 0 1160 800" fill="none" xmlns="http://www.w3.org/2000/svg">
<path d="M1160 0H0V800H1160V0Z" fill="white"/>
<path d="M1102 45.9004H606C598.3 45.9004 592 52.2004 592 59.9004V741.2C592 748.9 598.3 755.2 606 755.2H1102C1109.7 755.2 1116 748.9 1116 741.2V59.9004C1116 52.1004 1109.7 45.9004 1102 45.9004Z" fill="#091440"/>
<path d="M555 46.2012H59.7C52 46.2012 45.7 52.5012 45.7 60.2012V741.701C45.7 749.401 52 755.701 59.7 755.701H555C562.7 755.701 569 749.401 569 741.701V60.2012C569 52.5012 562.7 46.2012 555 46.2012Z" fill="#091440"/>
<path d="M137.4 660.9H117.4V680.9H137.4V660.9Z" fill="#394269"/>
<path d="M197.4 660.9H177.4V680.9H197.4V660.9Z" fill="#394269"/>
<path d="M257.4 660.9H237.4V680.9H257.4V660.9Z" fill="#394269"/>
<path d="M300.326 677.979H314.326V663.979H300.326V677.979Z" fill="white"/>
<path d="M377.4 660.9H357.4V680.9H377.4V660.9Z" fill="#394269"/>
<path d="M437.4 660.9H417.4V680.9H437.4V660.9Z" fill="#394269"/>
<path d="M497.4 660.9H477.4V680.9H497.4V660.9Z" fill="#394269"/>
<path d="M137.4 540.9H117.4V560.9H137.4V540.9Z" fill="#394269"/>
<path d="M197.4 540.9H177.4V560.9H197.4V540.9Z" fill="#394269"/>
<path d="M257.4 540.9H237.4V560.9H257.4V540.9Z" fill="#394269"/>
<path d="M300.326 557.979L314.326 557.979L314.326 543.979L300.326 543.979L300.326 557.979Z" fill="white"/>
<path d="M377.4 540.9H357.4V560.9H377.4V540.9Z" fill="#394269"/>
<path d="M437.4 540.9H417.4V560.9H437.4V540.9Z" fill="#394269"/>
<path d="M497.4 540.9H477.4V560.9H497.4V540.9Z" fill="#394269"/>
<path d="M137.4 600.9H117.4V620.9H137.4V600.9Z" fill="#394269"/>
<path d="M197.4 600.9H177.4V620.9H197.4V600.9Z" fill="#394269"/>
<path d="M257.4 600.9H237.4V620.9H257.4V600.9Z" fill="#394269"/>
<path d="M300.326 617.979L314.326 617.979L314.326 603.979L300.326 603.979L300.326 617.979Z" fill="white"/>
<path d="M377.4 600.9H357.4V620.9H377.4V600.9Z" fill="#394269"/>
<path d="M437.4 600.9H417.4V620.9H437.4V600.9Z" fill="#394269"/>
<path d="M497.4 600.9H477.4V620.9H497.4V600.9Z" fill="#394269"/>
<path d="M137.4 420.9H117.4V440.9H137.4V420.9Z" fill="#394269"/>
<path d="M197.4 420.9H177.4V440.9H197.4V420.9Z" fill="#394269"/>
<path d="M257.4 420.9H237.4V440.9H257.4V420.9Z" fill="#394269"/>
<path d="M300.326 437.979H314.326V423.979H300.326V437.979Z" fill="white"/>
<path d="M377.4 420.9H357.4V440.9H377.4V420.9Z" fill="#394269"/>
<path d="M437.4 420.9H417.4V440.9H437.4V420.9Z" fill="#394269"/>
<path d="M497.4 420.9H477.4V440.9H497.4V420.9Z" fill="#394269"/>
<path d="M137.4 480.9H117.4V500.9H137.4V480.9Z" fill="#394269"/>
<path d="M197.4 480.9H177.4V500.9H197.4V480.9Z" fill="#394269"/>
<path d="M257.4 480.9H237.4V500.9H257.4V480.9Z" fill="#394269"/>
<path d="M300.326 497.979L314.326 497.979L314.326 483.979L300.326 483.979L300.326 497.979Z" fill="white"/>
<path d="M377.4 480.9H357.4V500.9H377.4V480.9Z" fill="#394269"/>
<path d="M437.4 480.9H417.4V500.9H437.4V480.9Z" fill="#394269"/>
<path d="M497.4 480.9H477.4V500.9H497.4V480.9Z" fill="#394269"/>
<path d="M137.4 300.9H117.4V320.9H137.4V300.9Z" fill="#394269"/>
<path d="M180.326 317.979H194.326V303.979H180.326V317.979Z" fill="white"/>
<path d="M257.4 300.9H237.4V320.9H257.4V300.9Z" fill="#394269"/>
<path d="M300.326 317.979H314.326V303.979H300.326V317.979Z" fill="white"/>
<path d="M377.4 300.9H357.4V320.9H377.4V300.9Z" fill="#394269"/>
<path d="M420.326 317.979H434.326V303.979H420.326V317.979Z" fill="white"/>
<path d="M497.4 300.9H477.4V320.9H497.4V300.9Z" fill="#394269"/>
<path d="M137.4 360.9H117.4V380.9H137.4V360.9Z" fill="#394269"/>
<path d="M180.326 377.979H194.326V363.979H180.326V377.979Z" fill="white"/>
<path d="M240.326 377.979H254.326V363.979H240.326V377.979Z" fill="white"/>
<path d="M300.326 377.979H314.326V363.979H300.326V377.979Z" fill="white"/>
<path d="M360.326 377.979H374.326V363.979H360.326V377.979Z" fill="white"/>
<path d="M420.326 377.979H434.326V363.979H420.326V377.979Z" fill="white"/>
<path d="M497.4 360.9H477.4V380.9H497.4V360.9Z" fill="#394269"/>
<path d="M137.4 180.9H117.4V200.9H137.4V180.9Z" fill="#394269"/>
<path d="M197.4 180.9H177.4V200.9H197.4V180.9Z" fill="#394269"/>
<path d="M257.4 180.9H237.4V200.9H257.4V180.9Z" fill="#394269"/>
<path d="M317.4 180.9H297.4V200.9H317.4V180.9Z" fill="#394269"/>
<path d="M377.4 180.9H357.4V200.9H377.4V180.9Z" fill="#394269"/>
<path d="M437.4 180.9H417.4V200.9H437.4V180.9Z" fill="#394269"/>
<path d="M497.4 180.9H477.4V200.9H497.4V180.9Z" fill="#394269"/>
<path d="M137.4 240.9H117.4V260.9H137.4V240.9Z" fill="#394269"/>
<path d="M257.4 240.9H237.4V260.9H257.4V240.9Z" fill="#394269"/>
<path d="M377.4 240.9H357.4V260.9H377.4V240.9Z" fill="#394269"/>
<path d="M497.4 240.9H477.4V260.9H497.4V240.9Z" fill="#394269"/>
<path d="M137.4 120.9H117.4V140.9H137.4V120.9Z" fill="#394269"/>
<path d="M197.4 120.9H177.4V140.9H197.4V120.9Z" fill="#394269"/>
<path d="M257.4 120.9H237.4V140.9H257.4V120.9Z" fill="#394269"/>
<path d="M317.4 120.9H297.4V140.9H317.4V120.9Z" fill="#394269"/>
<path d="M377.4 120.9H357.4V140.9H377.4V120.9Z" fill="#394269"/>
<path d="M437.4 120.9H417.4V140.9H437.4V120.9Z" fill="#394269"/>
<path d="M497.4 120.9H477.4V140.9H497.4V120.9Z" fill="#394269"/>
<path d="M674 660.5C668.5 660.5 664 665 664 670.5C664 676 668.5 680.5 674 680.5C679.5 680.5 684 676 684 670.5C684 665 679.5 660.5 674 660.5Z" fill="#2970FF"/>
<path d="M734 660.5C728.5 660.5 724 665 724 670.5C724 676 728.5 680.5 734 680.5C739.5 680.5 744 676 744 670.5C744 665 739.5 660.5 734 660.5Z" fill="#2970FF"/>
<path d="M794 660.5C788.5 660.5 784 665 784 670.5C784 676 788.5 680.5 794 680.5C799.5 680.5 804 676 804 670.5C804 665 799.5 660.5 794 660.5Z" fill="#2970FF"/>
<path d="M854.035 680.456L863.934 670.557L854.035 660.657L844.135 670.557L854.035 680.456Z" fill="white"/>
<path d="M924 660.5H904V680.5H924V660.5Z" fill="#2DD8A3"/>
<path d="M984 660.5H964V680.5H984V660.5Z" fill="#2DD8A3"/>
<path d="M1044 660.5H1024V680.5H1044V660.5Z" fill="#2DD8A3"/>
<path d="M674 540.5C668.5 540.5 664 545 664 550.5C664 556 668.5 560.5 674 560.5C679.5 560.5 684 556 684 550.5C684 545 679.5 540.5 674 540.5Z" fill="#2970FF"/>
<path d="M734 540.5C728.5 540.5 724 545 724 550.5C724 556 728.5 560.5 734 560.5C739.5 560.5 744 556 744 550.5C744 545 739.5 540.5 734 540.5Z" fill="#2970FF"/>
<path d="M794 540.5C788.5 540.5 784 545 784 550.5C784 556 788.5 560.5 794 560.5C799.5 560.5 804 556 804 550.5C804 545 799.5 540.5 794 540.5Z" fill="#2970FF"/>
<path d="M854.034 560.456L863.933 550.557L854.034 540.657L844.134 550.557L854.034 560.456Z" fill="white"/>
<path d="M924 540.5H904V560.5H924V540.5Z" fill="#2DD8A3"/>
<path d="M984 540.5H964V560.5H984V540.5Z" fill="#2DD8A3"/>
<path d="M1044 540.5H1024V560.5H1044V540.5Z" fill="#2DD8A3"/>
<path d="M674 600.5C668.5 600.5 664 605 664 610.5C664 616 668.5 620.5 674 620.5C679.5 620.5 684 616 684 610.5C684 605 679.5 600.5 674 600.5Z" fill="#2970FF"/>
<path d="M734 600.5C728.5 600.5 724 605 724 610.5C724 616 728.5 620.5 734 620.5C739.5 620.5 744 616 744 610.5C744 605 739.5 600.5 734 600.5Z" fill="#2970FF"/>
<path d="M794 600.5C788.5 600.5 784 605 784 610.5C784 616 788.5 620.5 794 620.5C799.5 620.5 804 616 804 610.5C804 605 799.5 600.5 794 600.5Z" fill="#2970FF"/>
<path d="M854.034 620.456L863.934 610.557L854.034 600.657L844.135 610.557L854.034 620.456Z" fill="white"/>
<path d="M924 600.5H904V620.5H924V600.5Z" fill="#2DD8A3"/>
<path d="M984 600.5H964V620.5H984V600.5Z" fill="#2DD8A3"/>
<path d="M1044 600.5H1024V620.5H1044V600.5Z" fill="#2DD8A3"/>
<path d="M674 420.5C668.5 420.5 664 425 664 430.5C664 436 668.5 440.5 674 440.5C679.5 440.5 684 436 684 430.5C684 425 679.5 420.5 674 420.5Z" fill="#2970FF"/>
<path d="M734 420.5C728.5 420.5 724 425 724 430.5C724 436 728.5 440.5 734 440.5C739.5 440.5 744 436 744 430.5C744 425 739.5 420.5 734 420.5Z" fill="#2970FF"/>
<path d="M794 420.5C788.5 420.5 784 425 784 430.5C784 436 788.5 440.5 794 440.5C799.5 440.5 804 436 804 430.5C804 425 799.5 420.5 794 420.5Z" fill="#2970FF"/>
<path d="M854 420.5C848.5 420.5 844 425 844 430.5C844 436 848.5 440.5 854 440.5C859.5 440.5 864 436 864 430.5C864 425 859.5 420.5 854 420.5Z" fill="#2970FF"/>
<path d="M914.033 440.454L923.933 430.555L914.033 420.655L904.134 430.555L914.033 440.454Z" fill="white"/>
<path d="M984 420.5H964V440.5H984V420.5Z" fill="#2DD8A3"/>
<path d="M1044 420.5H1024V440.5H1044V420.5Z" fill="#2DD8A3"/>
<path d="M674 480.5C668.5 480.5 664 485 664 490.5C664 496 668.5 500.5 674 500.5C679.5 500.5 684 496 684 490.5C684 485 679.5 480.5 674 480.5Z" fill="#2970FF"/>
<path d="M734 480.5C728.5 480.5 724 485 724 490.5C724 496 728.5 500.5 734 500.5C739.5 500.5 744 496 744 490.5C744 485 739.5 480.5 734 480.5Z" fill="#2970FF"/>
<path d="M794 480.5C788.5 480.5 784 485 784 490.5C784 496 788.5 500.5 794 500.5C799.5 500.5 804 496 804 490.5C804 485 799.5 480.5 794 480.5Z" fill="#2970FF"/>
<path d="M854 480.5C848.5 480.5 844 485 844 490.5C844 496 848.5 500.5 854 500.5C859.5 500.5 864 496 864 490.5C864 485 859.5 480.5 854 480.5Z" fill="#2970FF"/>
<path d="M914.034 500.454L923.933 490.555L914.034 480.655L904.134 490.555L914.034 500.454Z" fill="white"/>
<path d="M984 480.5H964V500.5H984V480.5Z" fill="#2DD8A3"/>
<path d="M1044 480.5H1024V500.5H1044V480.5Z" fill="#2DD8A3"/>
<path d="M674 300.5C668.5 300.5 664 305 664 310.5C664 316 668.5 320.5 674 320.5C679.5 320.5 684 316 684 310.5C684 305 679.5 300.5 674 300.5Z" fill="#2970FF"/>
<path d="M734 300.5C728.5 300.5 724 305 724 310.5C724 316 728.5 320.5 734 320.5C739.5 320.5 744 316 744 310.5C744 305 739.5 300.5 734 300.5Z" fill="#2970FF"/>
<path d="M794.032 320.454L803.931 310.555L794.032 300.655L784.132 310.555L794.032 320.454Z" fill="white"/>
<path d="M854.032 320.454L863.932 310.555L854.032 300.655L844.133 310.555L854.032 320.454Z" fill="white"/>
<path d="M924 300.5H904V320.5H924V300.5Z" fill="#2DD8A3"/>
<path d="M984 300.5H964V320.5H984V300.5Z" fill="#2DD8A3"/>
<path d="M1044 300.5H1024V320.5H1044V300.5Z" fill="#2DD8A3"/>
<path d="M674 360.5C668.5 360.5 664 365 664 370.5C664 376 668.5 380.5 674 380.5C679.5 380.5 684 376 684 370.5C684 365 679.5 360.5 674 360.5Z" fill="#2970FF"/>
<path d="M734 360.5C728.5 360.5 724 365 724 370.5C724 376 728.5 380.5 734 380.5C739.5 380.5 744 376 744 370.5C744 365 739.5 360.5 734 360.5Z" fill="#2970FF"/>
<path d="M794 360.5C788.5 360.5 784 365 784 370.5C784 376 788.5 380.5 794 380.5C799.5 380.5 804 376 804 370.5C804 365 799.5 360.5 794 360.5Z" fill="#2970FF"/>
<path d="M854 360.5C848.5 360.5 844 365 844 370.5C844 376 848.5 380.5 854 380.5C859.5 380.5 864 376 864 370.5C864 365 859.5 360.5 854 360.5Z" fill="#2970FF"/>
<path d="M914.033 380.454L923.933 370.555L914.033 360.655L904.134 370.555L914.033 380.454Z" fill="white"/>
<path d="M984 360.5H964V380.5H984V360.5Z" fill="#2DD8A3"/>
<path d="M1044 360.5H1024V380.5H1044V360.5Z" fill="#2DD8A3"/>
<path d="M684 180.5H664V200.5H684V180.5Z" fill="#394269"/>
<path d="M744 180.5H724V200.5H744V180.5Z" fill="#394269"/>
<path d="M804 180.5H784V200.5H804V180.5Z" fill="#394269"/>
<path d="M864 180.5H844V200.5H864V180.5Z" fill="#394269"/>
<path d="M924 180.5H904V200.5H924V180.5Z" fill="#394269"/>
<path d="M984 180.5H964V200.5H984V180.5Z" fill="#394269"/>
<path d="M1044 180.5H1024V200.5H1044V180.5Z" fill="#394269"/>
<path d="M674 240.5C668.5 240.5 664 245 664 250.5C664 256 668.5 260.5 674 260.5C679.5 260.5 684 256 684 250.5C684 245 679.5 240.5 674 240.5Z" fill="#2970FF"/>
<path d="M734 240.5C728.5 240.5 724 245 724 250.5C724 256 728.5 260.5 734 260.5C739.5 260.5 744 256 744 250.5C744 245 739.5 240.5 734 240.5Z" fill="#2970FF"/>
<path d="M801.034 257.535V243.535H787.034V257.535H801.034Z" fill="white"/>
<path d="M864 240.5H844V260.5H864V240.5Z" fill="#2DD8A3"/>
<path d="M924 240.5H904V260.5H924V240.5Z" fill="#2DD8A3"/>
<path d="M984 240.5H964V260.5H984V240.5Z" fill="#2DD8A3"/>
<path d="M1044 240.5H1024V260.5H1044V240.5Z" fill="#2DD8A3"/>
<path d="M684 120.5H664V140.5H684V120.5Z" fill="#394269"/>
<path d="M744 120.5H724V140.5H744V120.5Z" fill="#394269"/>
<path d="M804 120.5H784V140.5H804V120.5Z" fill="#394269"/>
<path d="M864 120.5H844V140.5H864V120.5Z" fill="#394269"/>
<path d="M924 120.5H904V140.5H924V120.5Z" fill="#394269"/>
<path d="M984 120.5H964V140.5H984V120.5Z" fill="#394269"/>
<path d="M1044 120.5H1024V140.5H1044V120.5Z" fill="#394269"/>
<path d="M856 670.5H852V549.7L912 489.7V371.4L853.2 312.5H792V190.5H796V308.5H854.8L916 369.7V491.4L856 551.4V670.5Z" fill="white"/>
<path d="M309.4 670.901H305.4V372.901H185.4V250.801H189.4V368.901H309.4V670.901Z" fill="white"/>
<path d="M429.4 372.901H305.4V250.801H309.4V368.901H425.4L425.3 250.801H429.3L429.4 372.901Z" fill="white"/>
<path d="M189.4 130.801H185.4V133.801H189.4V130.801Z" fill="#394269"/>
<path d="M189.4 181.801H185.4V175.801H189.4V181.801ZM189.4 169.801H185.4V163.801H189.4V169.801ZM189.4 157.801H185.4V151.801H189.4V157.801ZM189.4 145.801H185.4V139.801H189.4V145.801Z" fill="#394269"/>
<path d="M189.4 187.801H185.4V190.801H189.4V187.801Z" fill="#394269"/>
<path d="M309.4 130.801H305.4V133.801H309.4V130.801Z" fill="#394269"/>
<path d="M309.4 181.801H305.4V175.801H309.4V181.801ZM309.4 169.801H305.4V163.801H309.4V169.801ZM309.4 157.801H305.4V151.801H309.4V157.801ZM309.4 145.801H305.4V139.801H309.4V145.801Z" fill="#394269"/>
<path d="M309.4 187.801H305.4V190.801H309.4V187.801Z" fill="#394269"/>
<path d="M429.4 130.801H425.4V133.801H429.4V130.801Z" fill="#394269"/>
<path d="M429.4 181.801H425.4V175.801H429.4V181.801ZM429.4 169.801H425.4V163.801H429.4V169.801ZM429.4 157.801H425.4V151.801H429.4V157.801ZM429.4 145.801H425.4V139.801H429.4V145.801Z" fill="#394269"/>
<path d="M429.4 187.801H425.4V190.801H429.4V187.801Z" fill="#394269"/>
<path d="M213.4 249.701C198.2 264.901 173.7 264.901 158.5 249.701C143.3 234.501 143.3 210.001 158.5 194.801L213.4 249.701Z" fill="#FFC84E"/>
<path d="M218.1 195C204.3 178.6 179.9 176.4 163.4 190.2L213.3 249.6C229.7 235.9 231.9 211.4 218.1 195Z" fill="#FFC84E"/>
<path d="M161.7 201.599L169.3 209.199C166.8 212.699 165.4 216.899 165.4 221.399C165.4 227.199 167.8 232.499 171.6 236.299C175.4 240.099 180.7 242.499 186.5 242.499C191 242.499 195.3 241.099 198.7 238.599L206.5 246.399L211.5 241.399L203.7 233.599C206.2 230.099 207.6 225.799 207.6 221.399H207.4H200.6C200.6 225.099 199.1 228.699 196.5 231.299C193.8 233.999 190.3 235.399 186.6 235.399C178.9 235.399 172.6 229.099 172.6 221.399C172.6 217.499 174.2 213.999 176.7 211.499C179.2 208.999 182.7 207.399 186.6 207.399V200.599V200.399C182.3 200.399 178.4 201.599 175.1 203.899C174.9 203.999 174.7 204.199 174.4 204.399L166.7 196.699L161.7 201.599Z" fill="white"/>
<path d="M318 258.1C298.1 266 275.5 256.2 267.7 236.3C259.9 216.4 269.6 193.8 289.5 186L318 258.1Z" fill="#FFC84E"/>
<path d="M347.8 211.2C342.8 190.4 321.8 177.6 301 182.6L319.3 258C340 253 352.8 232 347.8 211.2Z" fill="#FFC84E"/>
<path d="M284.4 198.799L291.1 207.299C288.2 210.499 286.3 214.399 285.7 218.999C285 224.799 286.7 230.299 290 234.599C293.3 238.899 298.3 241.899 304 242.599C308.4 243.099 312.9 242.199 316.6 240.199L323.4 248.799L329 244.499L322.2 235.799C325.1 232.599 327 228.599 327.6 224.199H327.4L320.6 223.399C320.1 227.099 318.3 230.399 315.3 232.699C312.3 234.999 308.7 235.999 304.9 235.599C297.2 234.699 291.7 227.599 292.7 219.999C293.2 216.199 295.2 212.899 298 210.699C300.8 208.499 304.5 207.399 308.3 207.799L309.1 200.999V200.799C304.9 200.299 300.8 200.999 297.2 202.799C297 202.899 296.7 202.999 296.5 203.199L289.8 194.699L284.4 198.799Z" fill="white"/>
<path d="M438.1 258.5C417.7 265 395.9 253.8 389.3 233.4C382.7 213 394 191.2 414.4 184.6L438.1 258.5Z" fill="#FFC84E"/>
<path d="M468.1 207.2C460.8 187.1 438.5 176.7 418.4 184L444.9 256.9C465 249.6 475.4 227.4 468.1 207.2Z" fill="#FFC84E"/>
<path d="M410 193.5L414.6 203.3C411.1 205.7 408.3 209.2 406.7 213.5C404.7 219 405.1 224.7 407.4 229.6C409.7 234.5 413.8 238.5 419.3 240.5C423.5 242 428 242.2 432.1 241L436.7 250.9L443.1 247.9L438.5 237.9C442 235.5 444.8 231.9 446.3 227.8L446.1 227.7L439.7 225.4C438.4 228.9 435.8 231.7 432.5 233.3C429.1 234.9 425.3 235 421.8 233.8C414.5 231.2 410.8 223.1 413.4 215.8C414.7 212.2 417.4 209.4 420.7 207.9C424 206.4 427.8 206.1 431.4 207.4L433.7 201L433.8 200.8C429.8 199.3 425.7 199.2 421.8 200.1C421.5 200.2 421.3 200.2 421 200.3L416.4 190.5L410 193.5Z" fill="white"/>
<path d="M793.8 259.801C815.891 259.801 833.8 241.892 833.8 219.801C833.8 197.709 815.891 179.801 793.8 179.801C771.708 179.801 753.8 197.709 753.8 219.801C753.8 241.892 771.708 259.801 793.8 259.801Z" fill="#2970FF"/>
<path d="M807.6 229.8L817.5 239.8H806.8L791 223.8H801.7C802.7 223.8 803.8 223.6 804.7 223.2C805.7 222.8 806.5 222.2 807.3 221.5C808.8 220 809.6 218 809.6 215.9C809.6 213.8 808.8 211.8 807.3 210.3C806.6 209.6 805.7 209 804.7 208.6C803.7 208.2 802.7 208 801.7 208H797.7L789.8 200H801.7C803.8 200 805.8 200.4 807.8 201.2C809.7 202 811.5 203.2 812.9 204.7C814.4 206.2 815.5 207.9 816.3 209.9C817.1 211.9 817.5 213.9 817.5 216C817.5 222.3 814.4 227.5 807.6 229.8Z" fill="white"/>
<path d="M779.9 209.9L770 200H780.7L796.5 215.9H785.8C784.8 215.9 783.7 216.1 782.8 216.5C781.8 216.9 781 217.5 780.2 218.2C778.7 219.7 777.9 221.7 777.9 223.8C777.9 225.9 778.7 227.9 780.2 229.4C780.9 230.1 781.8 230.7 782.8 231.1C783.8 231.5 784.8 231.7 785.8 231.7H789.8L797.7 239.7H785.8C781.6 239.7 777.6 238 774.6 235C771.6 232 770 228 770 223.8C770 217.4 773.2 212.2 779.9 209.9Z" fill="white"/>
</svg>
