<svg width="1160" height="800" viewBox="0 0 1160 800" fill="none" xmlns="http://www.w3.org/2000/svg">
<path d="M1160 0H0V800H1160V0Z" fill="white"/>
<path d="M568 60.2008C568 57.8008 567.4 55.5008 566.3 53.5008C565.7 52.3008 564.8 51.2008 563.9 50.3008C563.6 50.0008 563.3 49.7008 563 49.5008C562.9 49.4008 562.8 49.4008 562.7 49.3008C562.5 49.1008 562.2 48.9008 562 48.8008C561.9 48.7008 561.8 48.7008 561.7 48.6008C560.6 47.9008 559.4 47.3008 558.2 46.9008C557.8 46.8008 557.3 46.6008 556.9 46.6008C556.4 46.5008 556 46.4008 555.5 46.4008C555 46.4008 554.6 46.3008 554.1 46.3008H58.7C51 46.3008 44.7 52.6008 44.7 60.3008V741.801C44.7 749.501 51 755.801 58.7 755.801H554C554.5 755.801 555 755.801 555.4 755.701C555.9 755.701 556.3 755.601 556.8 755.501C557.3 755.401 557.7 755.301 558.1 755.201C558.5 755.101 559 754.901 559.4 754.701C560.2 754.401 561 754.001 561.7 753.501C561.8 753.401 561.9 753.401 562 753.301C562.2 753.101 562.5 752.901 562.7 752.801C562.8 752.701 562.9 752.701 563 752.601C563.3 752.301 563.6 752.101 563.9 751.801C564.9 750.801 565.7 749.801 566.3 748.601C567.4 746.601 568 744.301 568 741.901V60.2008Z" fill="#FEB8A5"/>
<path d="M568 623H44.7V635H568V623Z" fill="#ED6D47"/>
<path d="M568 507.6H44.7V527.6H568V507.6Z" fill="#ED6D47"/>
<path d="M568 532.9H44.7V562.9H568V532.9Z" fill="#ED6D47"/>
<path d="M568 502.901V60.2008C568 57.8008 567.4 55.5008 566.3 53.5008C565.7 52.3008 564.8 51.2008 563.9 50.3008C563.6 50.0008 563.3 49.7008 563 49.5008C562.9 49.4008 562.8 49.4008 562.7 49.3008C562.5 49.1008 562.2 48.9008 562 48.8008C561.9 48.7008 561.8 48.7008 561.7 48.6008C560.6 47.9008 559.4 47.3008 558.2 46.9008C557.8 46.8008 557.3 46.6008 556.9 46.6008C556.5 46.6008 556 46.4008 555.5 46.4008C555 46.4008 554.6 46.3008 554.1 46.3008H58.7C51 46.3008 44.7 52.6008 44.7 60.3008V503.001H568V502.901Z" fill="#ED6D47"/>
<path d="M1101 45.9004H605C597.3 45.9004 591 52.2004 591 59.9004V741.2C591 748.9 597.3 755.2 605 755.2H1101C1108.7 755.2 1115 748.9 1115 741.2V59.9004C1115 52.1004 1108.7 45.9004 1101 45.9004Z" fill="#2970FF"/>
<path d="M245.1 322.4H241.8C243.1 322.4 244.1 321.3 244.1 320C244.1 318.7 243.1 317.6 241.8 317.6H252.3C247.6 317.2 243.9 313.1 243.9 308.1C243.9 304 246.3 300.6 249.8 298.6H357.4V389.5H307.3H244.2H266.9C261.8 389.5 257.6 385.2 257.6 379.9C257.6 374.6 261.8 370.3 266.9 370.3H241.9C243.2 370.3 244.2 369.2 244.2 367.9C244.2 366.6 243.2 365.5 241.9 365.5H251.2C246.1 365.5 241.9 361.2 241.9 355.9C241.9 350.6 246.1 346.3 251.2 346.3H241.9C243.2 346.3 244.2 345.2 244.2 343.9C244.2 342.6 243.2 341.5 241.9 341.5H245.2C240.1 341.5 235.9 337.2 235.9 331.9C235.8 326.6 240 322.3 245.1 322.4Z" fill="#C4CBD2"/>
<path d="M323.7 110.499L305 106.499L290.2 171.199L266.5 194.899V128.799V102.299H247.4V128.799L221 102.499V73.1992H201.9V110.199H202L201.9 110.399L247.4 155.899V247.199L215.4 215.199L201.9 228.699L247.4 274.199V416.199L266.5 404.399V221.999L307.5 180.899L323.7 110.499Z" fill="#091440"/>
<path d="M241.5 370.299H256.7C260.8 370.299 264.1 374.599 264.1 379.899C264.1 385.199 260.8 389.499 256.7 389.499H241.5" fill="white"/>
<path d="M234.5 346.299H269.2C273.3 346.299 276.6 350.599 276.6 355.899C276.6 361.199 273.3 365.499 269.2 365.499H234.5" fill="white"/>
<path d="M228.5 322.398H274H284C288.1 322.398 291.4 326.698 291.4 331.998C291.4 337.298 288.1 341.598 284 341.598H274H228.5" fill="white"/>
<path d="M234.5 298.5H267.5C271.6 298.5 274.9 302.8 274.9 308.1C274.9 313.1 272 317.2 268.2 317.6H234.5" fill="white"/>
<path d="M568 331.301H364.1V361.301H568V331.301Z" fill="#091440"/>
<path d="M913.9 322.4H917.2C915.9 322.4 914.9 321.3 914.9 320C914.9 318.7 915.9 317.6 917.2 317.6H906.7C911.4 317.2 915.1 313.1 915.1 308.1C915.1 304 912.7 300.6 909.2 298.6H801.6V389.5H851.7H914.8H892.1C897.2 389.5 901.4 385.2 901.4 379.9C901.4 374.6 897.2 370.3 892.1 370.3H917.1C915.8 370.3 914.8 369.2 914.8 367.9C914.8 366.6 915.8 365.5 917.1 365.5H907.8C912.9 365.5 917.1 361.2 917.1 355.9C917.1 350.6 912.9 346.3 907.8 346.3H917.1C915.8 346.3 914.8 345.2 914.8 343.9C914.8 342.6 915.8 341.5 917.1 341.5H913.8C918.9 341.5 923.1 337.2 923.1 331.9C923.2 326.6 919 322.3 913.9 322.4Z" fill="#C4CBD2"/>
<path d="M591.001 361.354L794.901 361.354L794.901 331.354L591.001 331.354L591.001 361.354Z" fill="#091440"/>
<path d="M341.3 308.2C340.7 307.5 340.1 306.7 339.5 306L339.4 298.5L307.3 269.1H280.3L241.5 283.5C244.9 293.5 255.8 298.8 265.8 295.4L280.5 291.5C280.8 291.4 281.1 291.4 281.4 291.4C283 291.4 284.3 292.4 284.7 293.9C284.6 295.3 284.7 296.9 284.8 298.5H282.3H284.8C285.8 309.7 292.2 324.3 302.9 338C320.6 360.7 343.6 372.4 354.1 364.2C364.9 356 359.1 330.9 341.3 308.2Z" fill="white"/>
<path d="M914.1 322.4H917.4C916.1 322.4 915.1 321.3 915.1 320C915.1 318.7 916.1 317.6 917.4 317.6H906.9C911.6 317.2 915.3 313.1 915.3 308.1C915.3 304 912.9 300.6 909.4 298.6H801.8V389.5H851.9H915H892.3C897.4 389.5 901.6 385.2 901.6 379.9C901.6 374.6 897.4 370.3 892.3 370.3H917.3C916 370.3 915 369.2 915 367.9C915 366.6 916 365.5 917.3 365.5H908C913.1 365.5 917.3 361.2 917.3 355.9C917.3 350.6 913.1 346.3 908 346.3H917.3C916 346.3 915 345.2 915 343.9C915 342.6 916 341.5 917.3 341.5H914C919.1 341.5 923.3 337.2 923.3 331.9C923.4 326.6 919.2 322.3 914.1 322.4Z" fill="#C4CBD2"/>
<path d="M375.4 298.5H339.5V407.1H375.4V298.5Z" fill="#091440"/>
<path d="M357.4 396.5C361.1 396.5 364.1 393.5 364.1 389.8C364.1 386.099 361.1 383.1 357.4 383.1C353.7 383.1 350.7 386.099 350.7 389.8C350.7 393.5 353.7 396.5 357.4 396.5Z" fill="white"/>
<path d="M905.9 242H883.3V298.4H894.6L905.9 242Z" fill="#2DD8A3"/>
<path d="M855.1 253.301H877.7V298.401H866.4L855.1 253.301Z" fill="#2DD8A3"/>
<path d="M883 465.5H877.9C872.7 465.5 868.2 462 866.9 457.1L839.3 313C837.3 305.7 842.8 298.6 850.3 298.6H910.7C918.2 298.6 923.7 305.8 921.7 313.1L894.1 457.3C892.7 462.1 888.2 465.5 883 465.5Z" fill="#ED6D47"/>
<path d="M886.1 332.3H916.4L919.5 321H886.1C884.1 321 882.4 322.6 882.4 324.7V328.7C882.5 330.7 884.1 332.3 886.1 332.3Z" fill="#FEB8A5"/>
<path d="M862.8 343.6H845.1L847.3 354.9H862.7C864.7 354.9 866.4 353.3 866.4 351.2V347.2C866.4 345.2 864.8 343.6 862.8 343.6Z" fill="#FEB8A5"/>
<path d="M861.8 366.199H849.5L851.6 377.499H861.7C863.7 377.499 865.4 375.899 865.4 373.799V369.799C865.4 367.799 863.8 366.199 861.8 366.199Z" fill="#FEB8A5"/>
<path d="M917.7 370.301H902.5C898.4 370.301 895.1 374.601 895.1 379.901C895.1 385.201 898.4 389.501 902.5 389.501H917.7" fill="white"/>
<path d="M924.7 346.301H890C885.9 346.301 882.6 350.601 882.6 355.901C882.6 361.201 885.9 365.501 890 365.501H924.7" fill="white"/>
<path d="M930.7 322.4H885.2H875.2C871.1 322.4 867.8 326.7 867.8 332C867.8 337.3 871.1 341.6 875.2 341.6H885.2H930.7" fill="white"/>
<path d="M924.7 298.5H891.7C887.6 298.5 884.3 302.8 884.3 308.1C884.3 313.1 887.2 317.2 891 317.6H924.7" fill="white"/>
<path d="M839.3 312.999C839.1 312.099 838.9 311.199 838.9 310.299C838.8 308.299 839.3 306.399 840.2 304.699C842.1 301.099 845.8 298.599 850.3 298.599H874.2H876.7H874.2C874.3 296.999 874.4 295.499 874.3 293.999C874.8 292.599 876.1 291.499 877.6 291.499C877.9 291.499 878.2 291.599 878.5 291.599L893.2 295.499C903.2 298.899 914.1 293.599 917.5 283.599L878.7 269.199H851.7L819.6 298.599L819.5 306.099C818.9 306.799 818.3 307.599 817.7 308.299C800 330.999 794.2 356.099 804.7 364.299C813.4 371.099 830.4 364.399 846 349.199L839.3 312.999Z" fill="white"/>
<path d="M783.602 407.102L819.502 407.102L819.502 298.502L783.602 298.502L783.602 407.102Z" fill="#091440"/>
<path d="M801.6 396.5C805.3 396.5 808.3 393.5 808.3 389.8C808.3 386.099 805.3 383.1 801.6 383.1C797.9 383.1 794.9 386.099 794.9 389.8C794.9 393.5 797.9 396.5 801.6 396.5Z" fill="#2970FF"/>
<path d="M1115 647.199H591V659.199H1115V647.199Z" fill="#091440"/>
<path d="M1115 603.199H591V609.199H1115V603.199Z" fill="#091440"/>
<path d="M1115 556.9H591V562.9H1115V556.9Z" fill="#091440"/>
<path d="M1115 674.5H591V704.5H1115V674.5Z" fill="#091440"/>
<path d="M1000.4 607.599V591.599C991.6 591.599 984.4 598.699 984.4 607.599V630.199C984.4 631.299 983.5 632.199 982.4 632.199C981.3 632.199 980.4 631.299 980.4 630.199V557.799C980.4 553.399 976.8 549.799 972.4 549.799C968.2 549.799 964.8 552.999 964.4 556.999V599.999C964.4 601.099 963.5 601.999 962.4 601.999C961.3 601.999 960.4 601.099 960.4 599.999V550.699C960.4 546.299 956.8 542.699 952.4 542.699C948 542.699 944.4 546.299 944.4 550.699V599.999C944.4 601.099 943.5 601.999 942.4 601.999C941.3 601.999 940.4 601.099 940.4 599.999V555.999C940.4 551.599 936.8 547.999 932.4 547.999C928 547.999 924.4 551.599 924.4 555.999V600.099C924.4 601.199 923.5 602.099 922.4 602.099C921.3 602.099 920.4 601.199 920.4 600.099V569.499C920.4 565.099 916.8 561.499 912.4 561.499C908 561.499 904.4 565.099 904.4 569.499V602.099V656.299V725.499H980.2V665.299H980.3C991.3 665.299 1000.1 656.399 1000.1 645.499L1000.4 607.599Z" fill="white"/>
<path d="M724.4 633.701V617.701C733.2 617.701 740.4 624.801 740.4 633.701V656.301C740.4 657.401 741.3 658.301 742.4 658.301C743.5 658.301 744.4 657.401 744.4 656.301V583.901C744.4 579.501 748 575.901 752.4 575.901C756.6 575.901 760 579.101 760.4 583.101V626.101C760.4 627.201 761.3 628.101 762.4 628.101C763.5 628.101 764.4 627.201 764.4 626.101V576.801C764.4 572.401 768 568.801 772.4 568.801C776.8 568.801 780.4 572.401 780.4 576.801V626.101C780.4 627.201 781.3 628.101 782.4 628.101C783.5 628.101 784.4 627.201 784.4 626.101V582.001C784.4 577.601 788 574.001 792.4 574.001C796.8 574.001 800.4 577.601 800.4 582.001V626.101C800.4 627.201 801.3 628.101 802.4 628.101C803.5 628.101 804.4 627.201 804.4 626.101V595.501C804.4 591.101 808 587.501 812.4 587.501C816.8 587.501 820.4 591.101 820.4 595.501V628.101V682.301V725.401H744.6V691.301H744.5C733.5 691.301 724.7 682.401 724.7 671.501L724.4 633.701Z" fill="white"/>
<path d="M929.2 581.5V565.5C920.4 565.5 913.2 572.6 913.2 581.5V604.1C913.2 605.2 912.3 606.1 911.2 606.1C910.1 606.1 909.2 605.2 909.2 604.1V531.7C909.2 527.3 905.6 523.7 901.2 523.7C897 523.7 893.6 526.9 893.2 530.9V573.9C893.2 575 892.3 575.9 891.2 575.9C890.1 575.9 889.2 575 889.2 573.9V524.6C889.2 520.2 885.6 516.6 881.2 516.6C876.8 516.6 873.2 520.2 873.2 524.6V573.9C873.2 575 872.3 575.9 871.2 575.9C870.1 575.9 869.2 575 869.2 573.9V529.8C869.2 525.4 865.6 521.8 861.2 521.8C856.8 521.8 853.2 525.4 853.2 529.8V573.9C853.2 575 852.3 575.9 851.2 575.9C850.1 575.9 849.2 575 849.2 573.9V543.3C849.2 538.9 845.6 535.3 841.2 535.3C836.8 535.3 833.2 538.9 833.2 543.3V575.9V630.1V725.4H909V639.1H909.1C920.1 639.1 928.9 630.2 928.9 619.3L929.2 581.5Z" fill="#091440"/>
</svg>
