<svg width="1160" height="800" viewBox="0 0 1160 800" fill="none" xmlns="http://www.w3.org/2000/svg">
<path d="M1160 0H0V800H1160V0Z" fill="white"/>
<path d="M1099 292.9H60.8C53.1 292.9 46.8 299.2 46.8 306.9L46.2 740.6C46.2 748.3 52.5 754.6 60.2 754.6H1098.4C1106.1 754.6 1112.4 748.3 1112.4 740.6L1113 306.9C1113 299.1 1106.8 292.9 1099 292.9Z" fill="#FEB8A5"/>
<path d="M1098.5 45.4004H60.2C52.5 45.4004 46.2 51.7004 46.2 59.4004V258.9C46.2 266.6 52.5 272.9 60.2 272.9H1098.4C1106.1 272.9 1112.4 266.6 1112.4 258.9V59.4004C1112.5 51.7004 1106.2 45.4004 1098.5 45.4004Z" fill="#C4CBD2"/>
<path d="M71.4 151.1H46.2V161.9H71.4V151.1Z" fill="white"/>
<path d="M123 151.1H77.5V161.9H123V151.1Z" fill="white"/>
<path d="M71.4 186.1H46.2V198.4H71.4V186.1Z" fill="white"/>
<path d="M123 186.1H77.5V198.4H123V186.1Z" fill="white"/>
<path d="M122.9 116.299H46.2V128.499H122.9V116.299Z" fill="white"/>
<path d="M71.4 157.1H46.2V178.5H71.4V157.1Z" fill="#091440"/>
<path d="M123 157.1H77.5V178.5H123V157.1Z" fill="#091440"/>
<path d="M71.4 192.199H46.2V213.599H71.4V192.199Z" fill="#091440"/>
<path d="M123 192.199H77.5V213.599H123V192.199Z" fill="#091440"/>
<path d="M122.9 122.398H46.2V143.698H122.9V122.398Z" fill="#091440"/>
<path d="M237.3 151.1H191.6V161.9H237.3V151.1Z" fill="white"/>
<path d="M288.9 151.1H243.4V161.9H288.9V151.1Z" fill="white"/>
<path d="M237.3 186.1H191.6V198.4H237.3V186.1Z" fill="white"/>
<path d="M288.9 186.1H243.4V198.4H288.9V186.1Z" fill="white"/>
<path d="M288.9 116.299H191.6V128.499H288.9V116.299Z" fill="white"/>
<path d="M237.3 157.1H191.6V178.5H237.3V157.1Z" fill="#091440"/>
<path d="M288.9 157.1H243.4V178.5H288.9V157.1Z" fill="#091440"/>
<path d="M237.3 192.199H191.6V213.599H237.3V192.199Z" fill="#091440"/>
<path d="M288.9 192.199H243.4V213.599H288.9V192.199Z" fill="#091440"/>
<path d="M288.9 122.398H191.6V143.698H288.9V122.398Z" fill="#091440"/>
<path d="M401.1 151.1H355.4V161.9H401.1V151.1Z" fill="white"/>
<path d="M452.7 151.1H407.2V161.9H452.7V151.1Z" fill="white"/>
<path d="M401.1 186.1H355.4V198.4H401.1V186.1Z" fill="white"/>
<path d="M452.7 186.1H407.2V198.4H452.7V186.1Z" fill="white"/>
<path d="M452.7 116.299H355.4V128.499H452.7V116.299Z" fill="white"/>
<path d="M401.1 157.1H355.4V178.5H401.1V157.1Z" fill="#091440"/>
<path d="M452.7 157.1H407.2V178.5H452.7V157.1Z" fill="#091440"/>
<path d="M401.1 192.199H355.4V213.599H401.1V192.199Z" fill="#091440"/>
<path d="M452.7 192.199H407.2V213.599H452.7V192.199Z" fill="#091440"/>
<path d="M452.7 122.398H355.4V143.698H452.7V122.398Z" fill="#091440"/>
<path d="M162.7 167.4L151.8 156.5V178.4L162.7 167.4Z" fill="#091440"/>
<path d="M327.6 167.4L316.6 156.5V178.4L327.6 167.4Z" fill="#091440"/>
<path d="M500.7 167.4L489.7 156.5V178.4L500.7 167.4Z" fill="#091440"/>
<path d="M579.3 178.098H577.9V176.998H578.2V176.198H579.3V178.098ZM576.8 178.098H574.6V176.998H576.8V178.098ZM573.5 178.098H571.3V176.998H573.5V178.098ZM570.2 178.098H568V176.998H570.2V178.098ZM567 178.098H564.8V176.998H567V178.098ZM563.7 178.098H561.5V176.998H563.7V178.098ZM560.5 178.098H558.3V176.998H560.5V178.098ZM557.2 178.098H555V176.998H557.2V178.098ZM553.9 178.098H551.7V176.998H553.9V178.098ZM550.7 178.098H548.5V176.998H550.7V178.098ZM547.4 178.098H545.2V176.998H547.4V178.098ZM544.1 178.098H542V176.998H544.2V178.098H544.1ZM540.9 178.098H538.7V176.998H540.9V178.098ZM537.6 178.098H535.4V176.998H537.6V178.098ZM534.3 178.098H533.1V176.098H534.2V177.098H534.3V178.098ZM579.3 175.198H578.2V172.998H579.3V175.198ZM534.2 174.998H533.1V172.798H534.2V174.998ZM579.3 171.898H578.2V169.698H579.3V171.898ZM534.2 171.698H533.1V169.498H534.2V171.698ZM579.3 168.598H578.2V166.398H579.3V168.598ZM534.2 168.398H533.1V166.198H534.2V168.398ZM579.3 165.398H578.2V163.198H579.3V165.398ZM534.2 165.198H533.1V162.998H534.2V165.198ZM579.3 162.098H578.2V159.998H579.3V162.098ZM534.2 161.898H533.1V159.698H534.2V161.898ZM579.3 158.898H578.2V156.698H579.3V158.898ZM534.2 158.598H533.1V155.698H534.2V158.598ZM579.3 155.598H578.2V153.398H579.3V155.598ZM534.2 154.698H533.1V152.498H534.2V154.698ZM579.3 152.298H578.2V150.498H578.4V149.998H579.3V152.298ZM534.2 151.398H533.1V149.898H534.9V150.998H534.2V151.398ZM577.3 150.998H575.1V149.898H577.3V150.998ZM574.1 150.998H571.9V149.898H574.1V150.998ZM570.8 150.998H568.6V149.898H570.8V150.998ZM567.5 150.998H565.3V149.898H567.5V150.998ZM564.3 150.998H562.1V149.898H564.3V150.998ZM561 150.998H558.8V149.898H561V150.998ZM557.7 150.998H555.5V149.898H557.7V150.998ZM554.5 150.998H552.3V149.898H554.5V150.998ZM551.2 150.998H549V149.898H551.2V150.998ZM548 150.998H545.8V149.898H548V150.998ZM544.7 150.998H542.5V149.898H544.7V150.998ZM541.4 150.998H539.2V149.898H541.4V150.998ZM538.2 150.998H536V149.898H538.2V150.998Z" fill="#091440"/>
<path d="M630.1 178.098H628.9V176.998H629V175.998H630.1V178.098ZM627.8 178.098H625.6V176.998H627.8V178.098ZM624.5 178.098H622.3V176.998H624.5V178.098ZM621.3 178.098H619.1V176.998H621.3V178.098ZM618 178.098H615.8V176.998H618V178.098ZM614.8 178.098H612.6V176.998H614.8V178.098ZM611.5 178.098H609.3V176.998H611.5V178.098ZM608.2 178.098H606V176.998H608.2V178.098ZM605 178.098H602.8V176.998H605V178.098ZM601.7 178.098H599.5V176.998H601.7V178.098ZM598.4 178.098H596.2V176.998H598.4V178.098ZM595.2 178.098H593V176.998H595.2V178.098ZM591.9 178.098H589.7V176.998H591.9V178.098ZM588.7 178.098H586.5V176.998H588.7V178.098ZM585.4 178.098H584.2V176.098H585.3V177.098H585.4V178.098ZM585.3 174.998H584.2V172.798H585.3V174.998ZM630.1 174.898H629V172.698H630.1V174.898ZM585.3 171.698H584.2V169.498H585.3V171.698ZM630.1 171.698H629V169.498H630.1V171.698ZM585.3 168.398H584.2V166.198H585.3V168.398ZM630.1 168.398H629V166.198H630.1V168.398ZM585.3 165.198H584.2V162.998H585.3V165.198ZM630.1 165.098H629V162.998H630.1V165.098ZM585.3 161.898H584.2V159.698H585.3V161.898ZM630.1 161.898H629V159.698H630.1V161.898ZM585.3 158.598H584.2V156.198H585.3V158.598ZM630.1 158.598H629V156.498H630.1V158.598ZM630.1 155.398H629V153.198H630.1V155.398ZM585.3 155.198H584.2V152.998H585.3V155.198ZM630.1 152.098H629V149.998H630.1V152.098ZM585.3 151.898H584.2V149.898H585.5V150.998H585.3V151.898ZM627.9 150.998H625.7V149.898H627.9V150.998ZM624.6 150.998H622.4V149.898H624.6V150.998ZM621.4 150.998H619.2V149.898H621.4V150.998ZM618.1 150.998H615.9V149.898H618.1V150.998ZM614.8 150.998H612.6V149.898H614.8V150.998ZM611.6 150.998H609.4V149.898H611.6V150.998ZM608.3 150.998H606.1V149.898H608.3V150.998ZM605 150.998H602.8V149.898H605V150.998ZM601.8 150.998H599.6V149.898H601.8V150.998ZM598.5 150.998H596.3V149.898H598.5V150.998ZM595.3 150.998H593.1V149.898H595.3V150.998ZM592 150.998H589.8V149.898H592V150.998ZM588.7 150.998H586.5V149.898H588.7V150.998Z" fill="#091440"/>
<path d="M579.3 212.598H577.9V211.498H578.2V210.698H579.3V212.598ZM576.8 212.598H574.6V211.498H576.8V212.598ZM573.5 212.598H571.3V211.498H573.5V212.598ZM570.2 212.598H568V211.498H570.2V212.598ZM567 212.598H564.8V211.498H567V212.598ZM563.7 212.598H561.5V211.498H563.7V212.598ZM560.5 212.598H558.3V211.498H560.5V212.598ZM557.2 212.598H555V211.498H557.2V212.598ZM553.9 212.598H551.7V211.498H553.9V212.598ZM550.7 212.598H548.5V211.498H550.7V212.598ZM547.4 212.598H545.2V211.498H547.4V212.598ZM544.1 212.598H542V211.498H544.2V212.598H544.1ZM540.9 212.598H538.7V211.498H540.9V212.598ZM537.6 212.598H535.4V211.498H537.6V212.598ZM534.3 212.598H533.1V210.598H534.2V211.598H534.3V212.598ZM579.3 209.698H578.2V207.498H579.3V209.698ZM534.2 209.498H533.1V207.298H534.2V209.498ZM579.3 206.398H578.2V204.198H579.3V206.398ZM534.2 206.198H533.1V203.998H534.2V206.198ZM579.3 203.198H578.2V200.998H579.3V203.198ZM534.2 202.898H533.1V200.698H534.2V202.898ZM579.3 199.898H578.2V197.698H579.3V199.898ZM534.2 199.698H533.1V197.498H534.2V199.698ZM579.3 196.598H578.2V194.398H579.3V196.598ZM534.2 196.398H533.1V194.198H534.2V196.398ZM579.3 193.398H578.2V191.198H579.3V193.398ZM534.2 193.198H533.1V190.298H534.2V193.198ZM579.3 190.098H578.2V187.898H579.3V190.098ZM534.2 189.198H533.1V186.998H534.2V189.198ZM579.3 186.798H578.2V184.998H578.4V184.498H579.3V186.798ZM534.2 185.898H533.1V184.398H534.9V185.498H534.2V185.898ZM577.3 185.498H575.1V184.398H577.3V185.498ZM574.1 185.498H571.9V184.398H574.1V185.498ZM570.8 185.498H568.6V184.398H570.8V185.498ZM567.5 185.498H565.3V184.398H567.5V185.498ZM564.3 185.498H562.1V184.398H564.3V185.498ZM561 185.498H558.8V184.398H561V185.498ZM557.7 185.498H555.5V184.398H557.7V185.498ZM554.5 185.498H552.3V184.398H554.5V185.498ZM551.2 185.498H549V184.398H551.2V185.498ZM548 185.498H545.8V184.398H548V185.498ZM544.7 185.498H542.5V184.398H544.7V185.498ZM541.4 185.498H539.2V184.398H541.4V185.498ZM538.2 185.498H536V184.398H538.2V185.498Z" fill="#091440"/>
<path d="M630.1 212.598H628.9V211.498H629V210.498H630.1V212.598ZM627.8 212.598H625.6V211.498H627.8V212.598ZM624.5 212.598H622.3V211.498H624.5V212.598ZM621.3 212.598H619.1V211.498H621.3V212.598ZM618 212.598H615.8V211.498H618V212.598ZM614.8 212.598H612.6V211.498H614.8V212.598ZM611.5 212.598H609.3V211.498H611.5V212.598ZM608.2 212.598H606V211.498H608.2V212.598ZM605 212.598H602.8V211.498H605V212.598ZM601.7 212.598H599.5V211.498H601.7V212.598ZM598.4 212.598H596.2V211.498H598.4V212.598ZM595.2 212.598H593V211.498H595.2V212.598ZM591.9 212.598H589.7V211.498H591.9V212.598ZM588.7 212.598H586.5V211.498H588.7V212.598ZM585.4 212.598H584.2V210.598H585.3V211.598H585.4V212.598ZM585.3 209.498H584.2V207.298H585.3V209.498ZM630.1 209.398H629V207.198H630.1V209.398ZM585.3 206.198H584.2V203.998H585.3V206.198ZM630.1 206.198H629V203.998H630.1V206.198ZM585.3 202.898H584.2V200.698H585.3V202.898ZM630.1 202.898H629V200.698H630.1V202.898ZM585.3 199.698H584.2V197.498H585.3V199.698ZM630.1 199.698H629V197.498H630.1V199.698ZM585.3 196.398H584.2V194.198H585.3V196.398ZM630.1 196.398H629V194.198H630.1V196.398ZM585.3 193.198H584.2V190.798H585.3V193.198ZM630.1 193.098H629V190.998H630.1V193.098ZM630.1 189.898H629V187.698H630.1V189.898ZM585.3 189.698H584.2V187.498H585.3V189.698ZM630.1 186.598H629V184.498H630.1V186.598ZM585.3 186.398H584.2V184.398H585.5V185.498H585.3V186.398ZM627.9 185.498H625.7V184.398H627.9V185.498ZM624.6 185.498H622.4V184.398H624.6V185.498ZM621.4 185.498H619.2V184.398H621.4V185.498ZM618.1 185.498H615.9V184.398H618.1V185.498ZM614.8 185.498H612.6V184.398H614.8V185.498ZM611.6 185.498H609.4V184.398H611.6V185.498ZM608.3 185.498H606.1V184.398H608.3V185.498ZM605 185.498H602.8V184.398H605V185.498ZM601.8 185.498H599.6V184.398H601.8V185.498ZM598.5 185.498H596.3V184.398H598.5V185.498ZM595.3 185.498H593.1V184.398H595.3V185.498ZM592 185.498H589.8V184.398H592V185.498ZM588.7 185.498H586.5V184.398H588.7V185.498Z" fill="#091440"/>
<path d="M629.5 143.699H627.4V142.599H629.5V143.099H630V143.599L629.5 143.699ZM626.4 143.699H624.2V142.599H626.4V143.699ZM623.1 143.699H620.9V142.599H623.1V143.699ZM619.8 143.699H617.6V142.599H619.8V143.699ZM616.6 143.699H614.4V142.599H616.6V143.699ZM613.3 143.699H611.1V142.599H613.3V143.699ZM610.1 143.699H607.9V142.599H610.1V143.699ZM606.8 143.699H604.6V142.599H606.8V143.699ZM603.5 143.699H601.3V142.599H603.5V143.699ZM600.3 143.699H598.1V142.599H600.3V143.699ZM597 143.699H594.8V142.599H597V143.699ZM593.7 143.699H591.5V142.599H593.7V143.699ZM590.5 143.699H588.3V142.599H590.5V143.699ZM587.2 143.699H585V142.599H587.2V143.699ZM583.9 143.699H581.7V142.599H583.9V143.699ZM580.7 143.699H578.5V142.599H580.7V143.699ZM577.4 143.699H575.2V142.599H577.4V143.699ZM574.2 143.699H572V142.599H574.2V143.699ZM570.9 143.699H568.7V142.599H570.9V143.699ZM567.6 143.699H565.4V142.599H567.6V143.699ZM564.4 143.699H562.2V142.599H564.4V143.699ZM561.1 143.699H558.9V142.599H561.1V143.699ZM557.8 143.699H555.6V142.599H557.8V143.699ZM554.6 143.699H552.4V142.599H554.6V143.699ZM551.3 143.699H549.1V142.599H551.3V143.699ZM548.1 143.699H545.9V142.599H548.1V143.699ZM544.8 143.699H542.6V142.599H544.8V143.699ZM541.5 143.699H539.3V142.599H541.5V143.699ZM538.3 143.699H536.1V142.599H538.3V143.699ZM535 143.699H533.1V142.299H534.2V142.599H535V143.699ZM630.1 141.999H629V139.799H630.1V141.999ZM534.2 141.199H533.1V138.999H534.2V141.199ZM630.1 138.699H629V136.499H630.1V138.699ZM534.2 137.999H533.1V135.799H534.2V137.999ZM630.1 135.499H629V133.299H630.1V135.499ZM534.2 134.699H533.1V132.499H534.2V134.699ZM630.1 132.199H629V129.999H630.1V132.199ZM534.2 131.399H533.1V129.199H534.2V131.399ZM630.1 128.899H629V126.699H630.1V128.899ZM534.2 128.199H533.1V125.999H534.2V128.199ZM630.1 125.699H629V123.499H630.1V125.699ZM534.2 124.899H533.1V122.699H534.2V124.899ZM630.1 122.399H629V120.199H630.1V122.399ZM534.2 121.599H533.1V119.399H534.2V121.599ZM630.1 119.099H629V116.999H630.1V119.099ZM534.2 118.399H533.1V115.699H534.5V116.799H534.1V118.399H534.2ZM629.2 116.799H627V115.699H629.2V116.799ZM625.9 116.799H623.7V115.699H625.9V116.799ZM622.7 116.799H620.5V115.699H622.7V116.799ZM619.4 116.799H617.2V115.699H619.4V116.799ZM616.2 116.799H614V115.699H616.2V116.799ZM612.9 116.799H610.7V115.699H612.9V116.799ZM609.6 116.799H607.4V115.699H609.6V116.799ZM606.4 116.799H604.2V115.699H606.4V116.799ZM603.1 116.799H600.9V115.699H603.1V116.799ZM599.8 116.799H597.6V115.699H599.8V116.799ZM596.6 116.799H594.4V115.699H596.6V116.799ZM593.3 116.799H591.1V115.699H593.3V116.799ZM590 116.799H587.8V115.699H590V116.799ZM586.8 116.799H584.6V115.699H586.8V116.799ZM583.5 116.799H581.3V115.699H583.5V116.799ZM580.3 116.799H578.1V115.699H580.3V116.799ZM577 116.799H574.8V115.699H577V116.799ZM573.7 116.799H571.5V115.699H573.7V116.799ZM570.5 116.799H568.3V115.699H570.5V116.799ZM567.2 116.799H565V115.699H567.2V116.799ZM563.9 116.799H561.7V115.699H563.9V116.799ZM560.7 116.799H558.5V115.699H560.7V116.799ZM557.4 116.799H555.2V115.699H557.4V116.799ZM554.2 116.799H552V115.699H554.2V116.799ZM550.9 116.799H548.7V115.699H550.9V116.799ZM547.6 116.799H545.4V115.699H547.6V116.799ZM544.4 116.799H542.2V115.699H544.4V116.799ZM541.1 116.799H538.9V115.699H541.1V116.799ZM537.8 116.799H535.6V115.699H537.8V116.799Z" fill="#091440"/>
<path d="M296.2 730.301L270.5 657.501L340.7 651.801L343.1 667.201L343 667.401L296.2 730.301ZM272.1 658.601L296.6 728.001L342.1 666.901L339.9 653.001L272.1 658.601Z" fill="#ED6D47"/>
<path d="M271.2 658.601L179.7 637.701L252.4 631.801H252.5L343.9 652.701L271.2 658.601ZM187.1 638.301L271.3 657.501L336.6 652.201L252.4 633.001L187.1 638.301Z" fill="#ED6D47"/>
<path d="M297.2 729.901L208.1 709.601L208 709.301L182.6 637.201L183.6 637.401L271.7 657.501L271.8 657.801L297.2 729.901ZM208.9 708.601L295.5 728.401L270.9 658.501L184.3 638.701L208.9 708.601Z" fill="#ED6D47"/>
<path d="M351.4 701.6H178.1V734H351.4V701.6Z" fill="#FEB8A5"/>
<path d="M180.2 703.101C180.2 698.901 188.6 695.101 202.6 692.201L201.9 690.301C172.1 693.201 152.7 697.801 152.7 703.101C152.7 709.901 185.1 715.701 230.5 717.901C200.7 715.201 180.2 709.601 180.2 703.101Z" fill="#ED6D47"/>
<path d="M199.9 703.1C199.9 704.7 202.9 706.2 208.1 707.5L205.2 699.5C201.8 700.6 199.9 701.8 199.9 703.1Z" fill="#ED6D47"/>
<path d="M223.1 710.1C229.9 710.9 237.8 711.6 246.6 712C241.3 711.5 236.4 710.9 232.3 710.1H223.1Z" fill="#ED6D47"/>
<path d="M134.9 703.1C134.9 695.2 160.8 688.2 199.7 684.4L199.5 684C137.1 687.2 93.5 694.6 93.5 703.2C93.5 712.3 142.1 720 210.1 722.9C165.6 719.2 134.9 711.7 134.9 703.1Z" fill="#ED6D47"/>
<path d="M331.4 683.4C376 687 406.7 694.5 406.7 703.1C406.7 711.7 376 719.2 331.4 722.8C399.4 719.9 448 712.2 448 703.1C448 694 399.4 686.3 331.4 683.4Z" fill="#ED6D47"/>
<path d="M341.7 703.1C341.7 700.5 333.7 698.1 320.8 696.4L319.2 698.6C323 700 325.2 701.5 325.2 703.1C325.2 707 312.9 710.4 295.1 712C322.3 710.6 341.7 707.1 341.7 703.1Z" fill="#ED6D47"/>
<path d="M389 703.101C389 697.101 363.5 691.801 326.2 689.201L325.6 689.901C347.4 692.901 361.4 697.701 361.4 703.101C361.4 709.601 341 715.201 311.2 717.901C356.6 715.701 389 709.901 389 703.101Z" fill="#ED6D47"/>
<path d="M503.2 634.3L462.6 574.8L479.7 572.1H479.8L565.1 602.7L503.2 634.3ZM464.2 575.6L503.4 633L562.5 602.9L479.5 573.1L464.2 575.6Z" fill="#ED6D47"/>
<path d="M496.2 715.899L455.4 656.099V655.899L463 573.699L503.8 633.499V633.699L496.2 715.899ZM456.4 655.899L495.4 713.099L502.8 633.899L463.8 576.699L456.4 655.899Z" fill="#ED6D47"/>
<path d="M495.2 715.4L502.8 633.4L503 633.3L564.3 602.1L556.7 684.1L556.5 684.2L495.2 715.4ZM503.8 634L496.4 713.6L555.9 683.3L563.3 603.7L503.8 634Z" fill="#ED6D47"/>
<path d="M590.2 639.299L509.489 647.754L453 639.299V734H590.2V639.299Z" fill="#FEB8A5"/>
<path d="M442 640.5C442 636.9 446.2 633 458.2 630.5L458.3 629.4C432.5 631.9 418.1 635.9 418.1 640.5C418.1 646.4 446.2 651.4 485.4 653.3C459.7 651 442 646.1 442 640.5Z" fill="#ED6D47"/>
<path d="M479.1 646.601C485 647.301 491.8 647.901 499.4 648.201C494.8 647.801 482.7 645.001 479.1 644.301V646.601Z" fill="#ED6D47"/>
<path d="M402.8 640.5C402.8 633.6 425.3 627.6 458.9 624.3L458.8 623.9C404.8 626.7 367 633.1 367 640.5C367 648.3 409.1 655 468 657.6C429.3 654.5 402.8 648 402.8 640.5Z" fill="#ED6D47"/>
<path d="M572.9 623.5C611.5 626.6 638.1 633.1 638.1 640.6C638.1 648.1 611.6 654.5 572.9 657.7C631.8 655.2 673.9 648.5 673.9 640.6C673.9 632.7 631.8 626 572.9 623.5Z" fill="#ED6D47"/>
<path d="M581.8 640.499C581.8 638.199 574.9 636.199 563.7 634.699L562.3 636.599C565.6 637.799 567.5 639.099 567.5 640.499C567.5 643.899 556.9 646.799 541.4 648.199C565 647.099 581.8 644.099 581.8 640.499Z" fill="#ED6D47"/>
<path d="M622.7 640.5C622.7 635.3 593.9 629.8 561.6 627.5C580.4 630.1 598.8 635.9 598.8 640.5C598.8 646.1 581.1 651 555.3 653.3C594.7 651.4 622.7 646.4 622.7 640.5Z" fill="#ED6D47"/>
<path d="M689 564.199C688.9 562.499 688.7 560.799 688.5 559.199L689.5 559.099C689.7 560.799 689.8 562.499 690 564.099L689 564.199ZM688 553.799C687.8 551.999 687.6 550.199 687.4 548.399L688.4 548.299C688.6 550.099 688.8 551.899 689 553.699L688 553.799ZM686.8 543.099C686.6 541.299 686.4 539.499 686.1 537.699L687.1 537.599C687.3 539.399 687.6 541.199 687.8 542.999L686.8 543.099ZM685.4 532.399C685.1 530.599 684.9 528.799 684.6 527.099L685.6 526.899C685.9 528.699 686.1 530.499 686.4 532.299L685.4 532.399ZM683.7 521.699C683.4 519.899 683.1 518.099 682.7 516.399L683.7 516.199C684 517.999 684.3 519.699 684.7 521.499L683.7 521.699ZM681.7 511.099C681.3 509.299 681 507.599 680.6 505.799L681.6 505.599C682 507.299 682.4 509.099 682.7 510.899L681.7 511.099ZM679.4 500.499C679 498.699 678.5 496.999 678.1 495.299L679.1 494.999C679.6 496.699 680 498.499 680.4 500.299L679.4 500.499ZM676.6 490.099C676.1 488.399 675.6 486.599 675.1 484.899L676 484.599C676.5 486.299 677 487.999 677.5 489.799L676.6 490.099ZM673.4 479.799C672.8 478.099 672.2 476.399 671.6 474.699L672.5 474.399C673.1 476.099 673.7 477.799 674.3 479.499L673.4 479.799ZM669.7 469.699C669 467.999 668.3 466.299 667.6 464.699L668.5 464.299C669.2 465.899 669.9 467.599 670.6 469.299L669.7 469.699ZM665.4 459.799C664.6 458.199 663.8 456.599 663 454.999L663.9 454.499C664.7 456.099 665.5 457.699 666.3 459.399L665.4 459.799ZM660.5 450.199C659.6 448.599 658.7 447.099 657.8 445.499L658.6 444.999C659.5 446.499 660.4 448.099 661.3 449.699L660.5 450.199ZM654.9 440.999C653.9 439.499 652.9 437.999 651.9 436.599L652.7 435.999C653.7 437.499 654.8 438.999 655.8 440.499L654.9 440.999ZM648.7 432.199C647.6 430.799 646.5 429.399 645.3 427.999L646.1 427.399C647.3 428.799 648.4 430.199 649.5 431.599L648.7 432.199ZM641.7 423.999C640.5 422.699 639.3 421.399 638 420.099L638.7 419.399C640 420.699 641.2 421.999 642.4 423.299L641.7 423.999ZM634.2 416.299C632.9 415.099 631.6 413.899 630.2 412.699L630.9 411.899C632.3 413.099 633.6 414.299 634.9 415.499L634.2 416.299ZM626.1 409.199C624.7 408.099 623.3 406.999 621.9 405.899L622.5 405.099C623.9 406.199 625.4 407.299 626.8 408.399L626.1 409.199ZM617.5 402.699C616 401.699 614.5 400.699 613 399.699L613.5 398.899C615 399.899 616.5 400.899 618 401.899L617.5 402.699ZM608.4 396.799C606.9 395.899 605.3 394.999 603.8 393.999L604.3 393.099C605.9 393.999 607.5 394.899 609 395.899L608.4 396.799ZM599.1 391.499C597.5 390.699 595.9 389.799 594.3 388.999L594.7 388.099C596.3 388.899 597.9 389.799 599.5 390.599L599.1 391.499ZM589.5 386.599C587.9 385.799 586.3 385.099 584.6 384.299L585 383.399C586.7 384.099 588.3 384.899 589.9 385.699L589.5 386.599ZM579.6 382.199C578 381.499 576.3 380.799 574.6 380.099L575 379.199C576.7 379.899 578.4 380.599 580 381.299L579.6 382.199Z" fill="#091440"/>
<path d="M785.9 701.899C798.4 721.399 825.5 734.199 772 729.799C721.4 725.599 684.3 717.999 684.3 713.999C684.3 709.999 755.3 698.999 762.3 697.799C779.6 694.899 785.9 701.899 785.9 701.899Z" fill="#ED6D47"/>
<path d="M630.1 130.601C638.053 130.601 644.5 124.154 644.5 116.201C644.5 108.248 638.053 101.801 630.1 101.801C622.147 101.801 615.7 108.248 615.7 116.201C615.7 124.154 622.147 130.601 630.1 130.601Z" fill="white"/>
<path d="M622.4 119.101C624.002 119.101 625.3 117.802 625.3 116.201C625.3 114.599 624.002 113.301 622.4 113.301C620.798 113.301 619.5 114.599 619.5 116.201C619.5 117.802 620.798 119.101 622.4 119.101Z" fill="#091440"/>
<path d="M630.1 119.101C631.702 119.101 633 117.802 633 116.201C633 114.599 631.702 113.301 630.1 113.301C628.498 113.301 627.2 114.599 627.2 116.201C627.2 117.802 628.498 119.101 630.1 119.101Z" fill="#091440"/>
<path d="M637.8 119.101C639.402 119.101 640.7 117.802 640.7 116.201C640.7 114.599 639.402 113.301 637.8 113.301C636.198 113.301 634.9 114.599 634.9 116.201C634.9 117.802 636.198 119.101 637.8 119.101Z" fill="#091440"/>
<path d="M1099.1 292.9H60.9C53.2 292.9 46.9 299.2 46.9 306.9L46.7 442.3H1113L1113.2 306.9C1113.1 299.1 1106.9 292.9 1099.1 292.9ZM486.9 411.6L496.4 352.3H647.8L657.3 411.6H486.9Z" fill="#ED6D47"/>
<path d="M574.8 394C583.084 394 589.8 387.284 589.8 379C589.8 370.716 583.084 364 574.8 364C566.516 364 559.8 370.716 559.8 379C559.8 387.284 566.516 394 574.8 394Z" fill="#ED6D47"/>
<path d="M581.9 374.3L579.5 371.9L574.8 376.6L570.1 371.9L567.7 374.3L572.5 379L567.7 383.7L570.1 386.1L574.8 381.3L579.5 386.1L581.9 383.7L577.2 379L581.9 374.3Z" fill="white"/>
<path d="M730.6 581.1L797.9 531.1L803.7 537.3L806 629.1L730.6 581.1Z" fill="#ED6D47"/>
<path d="M730.6 581.1L634 626.6L701.3 576.7L797.9 531.1L730.6 581.1Z" fill="white"/>
<path d="M806 629.1L709.4 674.7L634 626.6L730.6 581.1L806 629.1Z" fill="#091440"/>
</svg>
