<svg width="92" height="92" viewBox="0 0 92 92" fill="none" xmlns="http://www.w3.org/2000/svg">
<rect width="92" height="92" fill="#C4CBD2"/>
<path d="M44.2503 37.6738H16.6799V44.1894H44.2503V37.6738Z" fill="white"/>
<path d="M75.3801 37.6738H47.9304V44.1894H75.3801V37.6738Z" fill="white"/>
<path d="M44.2503 58.7891H16.6799V66.2095H44.2503V58.7891Z" fill="white"/>
<path d="M75.3801 58.7891H47.9304V66.2095H75.3801V58.7891Z" fill="white"/>
<path d="M75.3801 16.6816H16.6799V24.0418H75.3801V16.6816Z" fill="white"/>
<path d="M44.2506 41.2949H16.6802V54.2053H44.2506V41.2949Z" fill="#091440"/>
<path d="M75.3801 41.2949H47.9304V54.2053H75.3801V41.2949Z" fill="#091440"/>
<path d="M44.2503 62.4727H16.6799V75.3831H44.2503V62.4727Z" fill="#091440"/>
<path d="M75.3801 62.4727H47.9304V75.3831H75.3801V62.4727Z" fill="#091440"/>
<path d="M75.3804 20.3594H16.6802V33.2095H75.3804V20.3594Z" fill="#091440"/>
</svg>
