<svg width="92" height="92" viewBox="0 0 92 92" fill="none" xmlns="http://www.w3.org/2000/svg">
<rect width="92" height="92" fill="#C4CBD2"/>
<path d="M66.2894 72.398L72.519 66.1727L67.5723 61.2295C69.845 57.9825 71.3674 54.2717 72.0297 50.365H79V41.5756H72.0363C71.3625 37.6749 69.8336 33.9716 67.5591 30.7309L72.519 25.781L66.2894 19.5557L61.3295 24.5122C58.1076 22.1627 54.3713 20.6153 50.4309 19.9985V13H41.6088V19.9522C37.7068 20.6186 34.0007 22.1397 30.7565 24.4064L25.909 19.5623L19.6794 25.7876L24.5269 30.6317C22.1795 33.8559 20.6314 37.5908 20.01 41.5293H13V50.3319H20.01C20.6326 54.2701 22.1806 58.0047 24.5269 61.2295L19.686 66.0604L25.9156 72.2856L30.7499 67.4482C33.986 69.7586 37.6947 71.3229 41.6088 72.0279V79H50.4044L50.4375 71.9817C54.3779 71.3607 58.1137 69.8112 61.3361 67.4614L66.2894 72.398ZM33.5738 58.4473C30.5537 55.4193 28.7424 51.3946 28.4793 47.1276C28.2162 42.8606 29.5193 38.6441 32.1445 35.2685C34.7696 31.8929 38.5366 29.5898 42.7393 28.791C46.9421 27.9921 51.2921 28.7523 54.9742 30.9291L42.8719 43.0228L49.1016 49.2481L61.2038 37.1544C63.3587 40.8437 64.0955 45.1909 63.2765 49.3835C62.4575 53.5762 60.1388 57.3273 56.7538 59.936C53.3687 62.5447 49.1489 63.8324 44.8829 63.5584C40.617 63.2844 36.5968 61.4675 33.5738 58.4473V58.4473Z" fill="#091440"/>
<path d="M46 63.8889C55.8797 63.8889 63.8889 55.8797 63.8889 46C63.8889 36.1202 55.8797 28.1111 46 28.1111C36.1202 28.1111 28.1111 36.1202 28.1111 46C28.1111 55.8797 36.1202 63.8889 46 63.8889Z" fill="#C4CBD2"/>
<path d="M43.8943 33.2222H33.4779C32.6806 33.9991 31.9548 34.8577 31.3108 35.7777H43.8841V33.2222H43.8943Z" fill="#091440"/>
<path d="M51.1113 33.2222V35.7777H56.2224H60.6793C60.0353 34.8577 59.3096 33.9991 58.5122 33.2222H56.2224H51.1113Z" fill="#091440"/>
<path d="M57.4695 51.1111H63.153C63.3984 50.2831 63.5926 49.4244 63.7153 48.5555H57.4695V51.1111Z" fill="#091440"/>
<path d="M44.1294 51.1111H51.1112V48.5555H44.1294H30.6667H28.2952C28.4178 49.4244 28.6121 50.2831 28.8574 51.1111H30.6667H44.1294Z" fill="#091440"/>
<path d="M38.3335 40.8889V43.4445H47.5846H63.705C63.5824 42.5756 63.3882 41.7169 63.1428 40.8889H47.5846H38.3335Z" fill="#091440"/>
<path d="M56.2224 56.2222H40.889H39.3557V58.7777H40.889H56.2224H57.449H58.5122C59.3095 58.0008 60.0353 57.1422 60.6793 56.2222H57.449H56.2224Z" fill="#091440"/>
<path d="M61.2619 47.2778H53.6667V52.3889H61.2619V51.1112V48.5556V47.2778Z" fill="white"/>
<path d="M35.7779 39.6111H29.2868C28.6734 41.216 28.285 42.9333 28.1521 44.7222H35.7779V39.6111Z" fill="white"/>
<path d="M40.8889 37.0556H48.5556V31.9445H40.8889V33.2222V35.7778V37.0556Z" fill="white"/>
<path d="M36.8001 59.8409V54.9445H30.5032C31.6481 56.9173 33.1507 58.6551 34.9294 60.0556H36.8001V59.8409Z" fill="white"/>
</svg>
