<?xml version="1.0" encoding="utf-8"?>
<!-- Generator: Adobe Illustrator 16.0.0, SVG Export Plug-In . SVG Version: 6.00 Build 0)  -->
<!DOCTYPE svg PUBLIC "-//W3C//DTD SVG 1.1//EN" "http://www.w3.org/Graphics/SVG/1.1/DTD/svg11.dtd">
<svg version="1.1" id="Layer_1" xmlns="http://www.w3.org/2000/svg" xmlns:xlink="http://www.w3.org/1999/xlink" x="0px" y="0px"
	 width="52px" height="52px" viewBox="0 0 52 52" enable-background="new 0 0 52 52" xml:space="preserve">
<g id="XMLID_7066_">
	<g>
		<path id="XMLID_7071_" fill="#E9F8FE" d="M46,42.1c0,2.154-1.746,3.9-3.9,3.9H9.9C7.746,46,6,44.254,6,42.1V9.9
			C6,7.746,7.746,6,9.9,6H42.1C44.254,6,46,7.746,46,9.9V42.1z"/>
		<rect id="XMLID_7070_" x="10" y="36" fill="#2970FF" width="32" height="2"/>
		<rect id="XMLID_7069_" x="24" fill="#2970FF" width="4" height="30"/>
		
			<rect id="XMLID_7068_" x="16.137" y="24.93" transform="matrix(0.707 0.7072 -0.7072 0.707 25.411 -8.2289)" fill="#2970FF" width="13" height="3.25"/>
		
			<rect id="XMLID_7067_" x="23.031" y="24.93" transform="matrix(-0.707 0.7072 -0.7072 -0.707 69.1898 24.4457)" fill="#2970FF" width="13" height="3.25"/>
	</g>
</g>
<g>
</g>
<g>
</g>
<g>
</g>
<g>
</g>
<g>
</g>
<g>
</g>
<g>
</g>
<g>
</g>
<g>
</g>
<g>
</g>
<g>
</g>
<g>
</g>
<g>
</g>
<g>
</g>
<g>
</g>
</svg>
