<?xml version="1.0" encoding="UTF-8" standalone="no"?>
<svg
   xmlns:dc="http://purl.org/dc/elements/1.1/"
   xmlns:cc="http://creativecommons.org/ns#"
   xmlns:rdf="http://www.w3.org/1999/02/22-rdf-syntax-ns#"
   xmlns:svg="http://www.w3.org/2000/svg"
   xmlns="http://www.w3.org/2000/svg"
   xml:space="preserve"
   enable-background="new 0 0 40 36"
   viewBox="0 0 40 36"
   height="36px"
   width="40px"
   y="0px"
   x="0px"
   id="Layer_1"
   version="1.1"><metadata
     id="metadata3627"><rdf:RDF><cc:Work
         rdf:about=""><dc:format>image/svg+xml</dc:format><dc:type
           rdf:resource="http://purl.org/dc/dcmitype/StillImage" /><dc:title></dc:title></cc:Work></rdf:RDF></metadata><defs
     id="defs3625" /><path
     id="path3684"
     d="M 10.947266,5.9082031 11.125,5.9238281 c 0,0 -1.6564418,-0.2654332 -2.8867188,0.9648438 C 7.0885603,8.038393 7.2636719,9.5703125 7.2636719,9.5703125 l -0.00391,-0.087891 0,22.3203125 0.00391,-0.09961 c 0,0 -0.043193,0.47343 0.011719,1.042969 0.054912,0.569539 0.1335126,1.324919 0.8027344,1.99414 0.6561754,0.656176 1.3943798,0.73924 1.9492187,0.796875 0.554839,0.05764 1.013672,0.01758 1.013672,0.01758 l -0.0918,0.0039 17.396484,0 -0.07617,-0.002 c 0,0 0.491773,0.03325 1.082031,-0.0332 0.590259,-0.06646 1.361276,-0.158151 2.041016,-0.837891 0.670583,-0.670583 0.757762,-1.435862 0.810547,-2.009766 0.05279,-0.573904 0.0039,-1.048828 0.0039,-1.048828 l 0.0059,0.111328 0,-6.907645 -2.300782,0 0,6.964286 0.0059,0.05469 c 0,0 0.02506,0.279059 -0.0059,0.615235 -0.03092,0.336175 -0.185645,0.636817 -0.144531,0.595703 0.0394,-0.0394 -0.306874,0.136419 -0.673828,0.177734 -0.366954,0.04131 -0.673828,0.02344 -0.673828,0.02344 l -0.03711,-0.002 -17.478515,0 -0.04492,0.002 c 0,0 -0.27101,0.02006 -0.595703,-0.01367 -0.3246925,-0.03373 -0.6159388,-0.192111 -0.5585936,-0.134766 0.05514,0.05514 -0.1079856,-0.249358 -0.140625,-0.58789 -0.032639,-0.338533 -0.00977,-0.621094 -0.00977,-0.621094 l 0.00391,-0.05078 0,-22.4140633 -0.00195,-0.042969 c 0,0 0.012141,-0.5844069 0.3085938,-0.8808594 C 10.259957,8.1209019 10.769531,8.1953125 10.769531,8.1953125 l 0.08789,0.013672 4.447266,0 0,-2.3007813 z M 29.798828,6.046875 C 29.313803,5.99009 28.962891,6.070312 28.962891,6.070312 l 0.142578,-0.00977 -4.419086,0 0,2.4511719 -0.21568,0 1.150391,0 0,-0.1503907 3.55664,0 0.07031,-0.00977 c 0,0 0.53371,0.074726 0.572265,0.1132813 0.167839,0.167837 0.103516,0.085937 0.103516,0.085937 l -0.01172,0.078125 0,8.9428015 2.300782,0 0,-8.8646765 -0.01172,0.15625 c 0,0 0.08654,-1.1829991 -0.753906,-2.0234374 C 30.904415,6.2969931 30.283853,6.1036598 29.798828,6.046875 Z"
     style="color:#000000;font-style:normal;font-variant:normal;font-weight:normal;font-stretch:normal;font-size:medium;line-height:normal;font-family:sans-serif;text-indent:0;text-align:start;text-decoration:none;text-decoration-line:none;text-decoration-style:solid;text-decoration-color:#000000;letter-spacing:normal;word-spacing:normal;text-transform:none;direction:ltr;block-progression:tb;writing-mode:lr-tb;baseline-shift:baseline;text-anchor:start;white-space:normal;clip-rule:nonzero;display:inline;overflow:visible;visibility:visible;opacity:1;isolation:auto;mix-blend-mode:normal;color-interpolation:sRGB;color-interpolation-filters:linearRGB;solid-color:#000000;solid-opacity:1;fill:#2970ff;fill-opacity:1;fill-rule:evenodd;stroke:none;stroke-width:2.29999995;stroke-linecap:butt;stroke-linejoin:miter;stroke-miterlimit:4;stroke-dasharray:none;stroke-dashoffset:0;stroke-opacity:1;color-rendering:auto;image-rendering:auto;shape-rendering:auto;text-rendering:auto;enable-background:accumulate" /><path
     id="path4490"
     d="m 19.650391,-0.22851562 c -0.864651,0.0292943 -1.496163,0.46516398 -2.03125,0.96289062 -0.535088,0.4977266 -0.976009,1.1097038 -1.28125,1.7851562 -0.610483,1.3509051 -0.519532,2.6699219 -0.519532,2.6699219 l 2.335938,-0.1171875 c 0,0 -0.01777,-0.8589983 0.3125,-1.5898437 0.165137,-0.3654226 0.458657,-0.7715592 0.744141,-1.0371094 0.285483,-0.2655502 0.561475,-0.3393779 0.517578,-0.3378906 0.04354,-0.00148 0.251603,0.047078 0.517578,0.28125 0.265975,0.2341717 0.552629,0.6190302 0.742187,1.0292969 0.379118,0.8205343 0.466797,1.9414062 0.466797,1.9414062 l 2.335938,-0.1230469 c 0,0 -0.04494,-1.4250313 -0.679688,-2.7988281 C 22.793955,1.7506011 22.351839,1.1265767 21.791016,0.6328125 21.230192,0.13904829 20.513331,-0.25775206 19.650391,-0.22851562 Z"
     style="color:#000000;font-style:normal;font-variant:normal;font-weight:normal;font-stretch:normal;font-size:medium;line-height:normal;font-family:sans-serif;text-indent:0;text-align:start;text-decoration:none;text-decoration-line:none;text-decoration-style:solid;text-decoration-color:#000000;letter-spacing:normal;word-spacing:normal;text-transform:none;direction:ltr;block-progression:tb;writing-mode:lr-tb;baseline-shift:baseline;text-anchor:start;white-space:normal;clip-rule:nonzero;display:inline;overflow:visible;visibility:visible;opacity:1;isolation:auto;mix-blend-mode:normal;color-interpolation:sRGB;color-interpolation-filters:linearRGB;solid-color:#000000;solid-opacity:1;fill:#2970ff;fill-opacity:1;fill-rule:evenodd;stroke:none;stroke-width:2.33800006;stroke-linecap:butt;stroke-linejoin:miter;stroke-miterlimit:4;stroke-dasharray:none;stroke-dashoffset:0;stroke-opacity:1;color-rendering:auto;image-rendering:auto;shape-rendering:auto;text-rendering:auto;enable-background:accumulate" /><path
     id="rect4486"
     d="m 15.273438,4.3398438 c -0.679528,-10e-8 -1.250001,0.5704729 -1.25,1.25 l 0,4.3789062 c -1e-6,0.679527 0.570472,1.25 1.25,1.25 l 9,0 c 0.679527,0 1.25,-0.570473 1.25,-1.25 l 0,-4.3789062 c 0,-0.6795271 -0.570473,-1.25 -1.25,-1.25 z"
     style="color:#000000;font-style:normal;font-variant:normal;font-weight:normal;font-stretch:normal;font-size:medium;line-height:normal;font-family:sans-serif;text-indent:0;text-align:start;text-decoration:none;text-decoration-line:none;text-decoration-style:solid;text-decoration-color:#000000;letter-spacing:normal;word-spacing:normal;text-transform:none;direction:ltr;block-progression:tb;writing-mode:lr-tb;baseline-shift:baseline;text-anchor:start;white-space:normal;clip-rule:nonzero;display:inline;overflow:visible;visibility:visible;opacity:1;isolation:auto;mix-blend-mode:normal;color-interpolation:sRGB;color-interpolation-filters:linearRGB;solid-color:#000000;solid-opacity:1;fill:#2970ff;fill-opacity:1;fill-rule:nonzero;stroke:none;stroke-width:1.5;stroke-linecap:butt;stroke-linejoin:miter;stroke-miterlimit:4;stroke-dasharray:none;stroke-dashoffset:0;stroke-opacity:1;color-rendering:auto;image-rendering:auto;shape-rendering:auto;text-rendering:auto;enable-background:accumulate" /><path
     id="path4492"
     d="m 11.892299,14.87221 c -1.662153,-0.06444 -1.662153,2.462881 0,2.398438 l 9.482422,0 c 1.662153,0.06444 1.662153,-2.462882 0,-2.398438 z"
     style="color:#000000;font-style:normal;font-variant:normal;font-weight:normal;font-stretch:normal;font-size:medium;line-height:normal;font-family:sans-serif;text-indent:0;text-align:start;text-decoration:none;text-decoration-line:none;text-decoration-style:solid;text-decoration-color:#000000;letter-spacing:normal;word-spacing:normal;text-transform:none;direction:ltr;block-progression:tb;writing-mode:lr-tb;baseline-shift:baseline;text-anchor:start;white-space:normal;clip-rule:nonzero;display:inline;overflow:visible;visibility:visible;opacity:1;isolation:auto;mix-blend-mode:normal;color-interpolation:sRGB;color-interpolation-filters:linearRGB;solid-color:#000000;solid-opacity:1;fill:#2970ff;fill-opacity:1;fill-rule:evenodd;stroke:none;stroke-width:2.4000001;stroke-linecap:round;stroke-linejoin:miter;stroke-miterlimit:4;stroke-dasharray:none;stroke-dashoffset:0;stroke-opacity:1;color-rendering:auto;image-rendering:auto;shape-rendering:auto;text-rendering:auto;enable-background:accumulate" /><path
     id="path4492-3"
     d="m 12.32087,21.086495 c -1.662152,-0.06444 -1.662152,2.462882 0,2.398438 l 5.572266,0 c 1.662153,0.06444 1.662153,-2.462881 0,-2.398438 z"
     style="color:#000000;font-style:normal;font-variant:normal;font-weight:normal;font-stretch:normal;font-size:medium;line-height:normal;font-family:sans-serif;text-indent:0;text-align:start;text-decoration:none;text-decoration-line:none;text-decoration-style:solid;text-decoration-color:#000000;letter-spacing:normal;word-spacing:normal;text-transform:none;direction:ltr;block-progression:tb;writing-mode:lr-tb;baseline-shift:baseline;text-anchor:start;white-space:normal;clip-rule:nonzero;display:inline;overflow:visible;visibility:visible;opacity:1;isolation:auto;mix-blend-mode:normal;color-interpolation:sRGB;color-interpolation-filters:linearRGB;solid-color:#000000;solid-opacity:1;fill:#2970ff;fill-opacity:1;fill-rule:evenodd;stroke:none;stroke-width:2.4000001;stroke-linecap:round;stroke-linejoin:miter;stroke-miterlimit:4;stroke-dasharray:none;stroke-dashoffset:0;stroke-opacity:1;color-rendering:auto;image-rendering:auto;shape-rendering:auto;text-rendering:auto;enable-background:accumulate" /><path
     id="path4492-6"
     d="m 12.268136,26.763951 c -1.600259,0 -1.600259,2.40039 0,2.40039 l 13.070312,0 c 1.60026,0 1.60026,-2.40039 0,-2.40039 z"
     style="color:#000000;font-style:normal;font-variant:normal;font-weight:normal;font-stretch:normal;font-size:medium;line-height:normal;font-family:sans-serif;text-indent:0;text-align:start;text-decoration:none;text-decoration-line:none;text-decoration-style:solid;text-decoration-color:#000000;letter-spacing:normal;word-spacing:normal;text-transform:none;direction:ltr;block-progression:tb;writing-mode:lr-tb;baseline-shift:baseline;text-anchor:start;white-space:normal;clip-rule:nonzero;display:inline;overflow:visible;visibility:visible;opacity:1;isolation:auto;mix-blend-mode:normal;color-interpolation:sRGB;color-interpolation-filters:linearRGB;solid-color:#000000;solid-opacity:1;fill:#2970ff;fill-opacity:1;fill-rule:evenodd;stroke:none;stroke-width:2.4000001;stroke-linecap:round;stroke-linejoin:miter;stroke-miterlimit:4;stroke-dasharray:none;stroke-dashoffset:0;stroke-opacity:1;color-rendering:auto;image-rendering:auto;shape-rendering:auto;text-rendering:auto;enable-background:accumulate" /><g
     id="g7722"><path
       id="path4534"
       d="m 25.486328,20.685547 0,0.701172 1.13086,0 0,-0.701172 -1.13086,0 z"
       style="color:#000000;font-style:normal;font-variant:normal;font-weight:normal;font-stretch:normal;font-size:medium;line-height:normal;font-family:sans-serif;text-indent:0;text-align:start;text-decoration:none;text-decoration-line:none;text-decoration-style:solid;text-decoration-color:#000000;letter-spacing:normal;word-spacing:normal;text-transform:none;direction:ltr;block-progression:tb;writing-mode:lr-tb;baseline-shift:baseline;text-anchor:start;white-space:normal;clip-rule:nonzero;display:inline;overflow:visible;visibility:visible;opacity:1;isolation:auto;mix-blend-mode:normal;color-interpolation:sRGB;color-interpolation-filters:linearRGB;solid-color:#000000;solid-opacity:1;fill:#2970ff;fill-opacity:1;fill-rule:evenodd;stroke:none;stroke-width:0.69999999;stroke-linecap:butt;stroke-linejoin:miter;stroke-miterlimit:4;stroke-dasharray:none;stroke-dashoffset:0;stroke-opacity:1;color-rendering:auto;image-rendering:auto;shape-rendering:auto;text-rendering:auto;enable-background:accumulate" /><path
       id="path7726"
       d="m 21.184327,21.303857 6.986858,-5.210714 -0.107143,9.939285 z"
       style="fill:#2970ff;fill-opacity:1;fill-rule:evenodd;stroke:#2970ff;stroke-width:0.55999999pt;stroke-opacity:1" /></g><path
     id="path6344"
     d="m 25.822266,19.313337 0,3.854353 11.785156,0 0,-3.854353 z"
     style="color:#000000;font-style:normal;font-variant:normal;font-weight:normal;font-stretch:normal;font-size:medium;line-height:normal;font-family:sans-serif;text-indent:0;text-align:start;text-decoration:none;text-decoration-line:none;text-decoration-style:solid;text-decoration-color:#000000;letter-spacing:normal;word-spacing:normal;text-transform:none;direction:ltr;block-progression:tb;writing-mode:lr-tb;baseline-shift:baseline;text-anchor:start;white-space:normal;clip-rule:nonzero;display:inline;overflow:visible;visibility:visible;opacity:1;isolation:auto;mix-blend-mode:normal;color-interpolation:sRGB;color-interpolation-filters:linearRGB;solid-color:#000000;solid-opacity:1;fill:#2970ff;fill-opacity:1;fill-rule:evenodd;stroke:none;stroke-width:2.29999995;stroke-linecap:butt;stroke-linejoin:miter;stroke-miterlimit:4;stroke-dasharray:none;stroke-dashoffset:0;stroke-opacity:1;color-rendering:auto;image-rendering:auto;shape-rendering:auto;text-rendering:auto;enable-background:accumulate" /></svg>