<svg xmlns="http://www.w3.org/2000/svg" viewBox="0 0 400.03 400.01"><defs><style>.cls-1{fill:#a9b4bf;}.cls-2{fill:#18173f;}</style></defs><title>expiry</title><g id="Layer_2" data-name="Layer 2"><g id="design"><path id="_Compound_Path_" data-name="&lt;Compound Path&gt;" class="cls-1" d="M82.66,38A202.54,202.54,0,0,0,66.21,51.37l-.12.1,0,0-.07.07-.05,0-.07.06-.05,0-.06.06-.05,0-.06.06-.05,0-.06.06-.05,0-.06.05-.06,0-.06.05-.06.06,0,0-.07.06,0,0-.07.06,0,0-.26.24,0,0-.07.07,0,0-.07.06,0,0-.07.06,0,0-.08.07,0,0-.08.07,0,0-.08.07,0,0-.08.08,0,0-.09.09h0l-.64.6h0l-.1.1h0l-.1.1h0l-.1.1h0l-.1.1h0q-5.16,4.87-9.9,10L89.58,98.49c3.18-3.45,6.57-6.8,10.09-10A153.13,153.13,0,0,1,112,78.5L82.66,38ZM28.82,96.52,27.93,98h0l-.07.13h0l-.07.12v0l-.07.12,0,0-.06.11,0,0-.06.1,0,0-.06.1,0,0-.06.1,0,0-.06.1,0,0-.06.09,0,0-.05.09,0,0-.05.09,0,0-.05.09,0,0-.05.09,0,0-.05.09,0,0-.05.09,0,0-.05.09,0,0-.05.09,0,.05,0,.08,0,0,0,.09,0,.05,0,.08,0,.06,0,.08,0,.06,0,.08,0,.06,0,.08,0,.06,0,.08,0,.06,0,.07,0,.06,0,.08,0,.06,0,.08,0,.06,0,.07,0,.06,0,.07,0,.07-.06.1,0,0-.05.09-.07.13,0,0-.13.23,0,0-.06.11v0l-.06.11,0,0-.06.1,0,0-.05.1,0,0-.05.09,0,0-.05.1,0,0-.05.1,0,0-.05.1,0,0-.05.1,0,0-.05.1,0,0-.05.1,0,0-.05.1,0,0-.05.1,0,0-.05.1,0,0-.05.1,0,0-.06.1,0,0-.06.1,0,0L24,105v0l-.06.11v0l-.06.11v0l-.06.11v0l-.06.12v0l-.06.12v0l-.06.12v0l-.06.12v0l-.06.12h0l-.07.12h0l-.07.13h0q-3.58,6.76-6.6,13.72h0l-.06.13h0l-.06.13h0l-.05.13v0l-.05.12v0l-.05.12v0l-.05.12v0l-.05.12v0l0,.11v0l0,.11,0,0,0,.1,0,0,0,.1,0,0,0,.1,0,0,0,.09,0,0,0,.09,0,0,0,.1,0,0,0,.09,0,.05,0,.09,0,.05,0,.09,0,.06,0,.09,0,.06,0,.08,0,.07,0,.07,0,.07,0,.08,0,.06,0,.08,0,.06,0,.07,0,.07,0,.07,0,.08,0,.06,0,.1,0,0-.64,1.58h0l-.06.14h0l-.11.28h0q-1.32,3.32-2.52,6.68L58.78,149.4a149.12,149.12,0,0,1,12.82-27L28.82,96.52ZM2.09,171.35Q1.46,175.68,1,180H1v.14H1v.92h0v.3h0l-.06.62v2.83h0a201.06,201.06,0,0,0-.26,26.35l49.92-2.78a151.52,151.52,0,0,1,1.32-30L2.09,171.35ZM6.51,250.7a198.86,198.86,0,0,0,8.25,24.81h0l.24.58h0l.06.14h0l.06.14h0l.06.14h0l.06.14h0l.06.14h0l.06.14h0l.06.14h0l.06.14h0q.54,1.3,1.11,2.59h0l.06.14v0l.05.13v0l.05.12v0l.05.11v0l0,.11,0,0,0,.1,0,0,0,.1,0,0,0,.1,0,0,0,.09,0,0,0,.09,0,.05,0,.09,0,0,0,.09,0,.05,0,.09,0,.06,0,.09,0,.06,0,.09,0,.06,0,.08,0,.06,0,.09,0,.06,0,.08,0,.06,0,.08,0,.06,0,.08,0,.06,0,.09,0,.06,0,.08,0,.06,0,.08,0,.06,0,.08,0,.06,0,.08,0,.06,0,.08,0,.06,0,.08,0,.06,0,.08,0,.07,0,.07,0,.07,0,.07,0,.08,0,.06,0,.08,0,.05,0,.09,0,0,0,.11v0l.38.8h0l.06.12v0l.06.12v0l.05.11v0l.06.12v0l.05.11v0l.05.11v0l.05.11v0l.05.11v0l.05.11v0l.05.11v0l.05.11v0l.05.11v0l.05.11v0l.05.11v0l.05.11,0,0,.05.11v0l.05.11v0l.05.11v0l.06.11v0l0,.06,44.88-22a149,149,0,0,1-10.41-28L6.51,250.7Zm74.62,40.78L41.55,322q.94,1.22,1.91,2.43h0l.06.08,0,0,.06.07,0,0,.08.1,0,.06,0,0,.06.07,0,0,.09.11h0l.08.1,0,0q3.3,4.1,6.85,8.07h0l.21.23,0,0,.08.09,0,0,.1.11h0l.12.13,0,0,.08.09,0,0,.08.09,0,0,.11.13,0,0,.08.08,0,.05.07.08,0,.05.1.11.05.06.08.09.05.06.06.07.05.06.07.07.05.06.11.12.06.06.06.07.06.06.06.07.06.06.06.06.11.12.05.06.07.07.05.05.07.07,0,0,.17.18h0l.07.08,0,0,.07.08,0,0,.08.08,0,0,.16.17,0,0,.07.08,0,0,.08.08,0,0,.18.19h0l.08.08,0,0,.08.08,0,0,.27.29,0,0,.08.09,0,0,.09.09,0,0,.28.3,0,0,.09.09,0,0,.29.3h0l.09.09,0,0,.09.09h0l.3.31h0l.09.1h0l.3.3h0l.09.09,0,0,.4.4,0,0,.09.09,0,0,.29.29,0,0,.09.09,0,0,.4.4,0,0,.09.09h0l.3.3h0l.09.09,0,0,.4.4,0,0,.09.09,0,0,.3.29,0,0,.09.09,0,0,.3.3h0l.09.09,0,0,.09.09,0,0,.28.27,0,0,.08.08,0,0,.09.08h0l.18.18,0,0,.08.07,0,0,.08.07,0,0,.17.16,0,0,.07.07.05,0,.07.07,0,0,.07.07,0,0,.13.13.05.05.07.06.06.06.06.06.07.06.09.08.09.08.06.06.07.06.06.05.08.07,0,0,.12.11,0,0,.09.09,0,0,.08.08,0,0,.11.1,0,0,.13.12,0,0,.1.09,0,0,.1.1,0,0,.13.12h0l.12.11,0,0,.11.1,0,0,.27.25h0l.13.12h0q2,1.87,4.12,3.68l32.82-37.72a152.67,152.67,0,0,1-13.21-13c-2.58-2.87-5.07-5.86-7.42-8.89Zm45,39.15-24.62,43.52q5.62,3.18,11.41,6h0l.13.06h0l.12.06h0l.12.06h0l.12.06h0l.13.06h0l.13.06h0l.42.2h0l.13.06,0,0,.1,0,0,0,.1,0,0,0,.1,0,0,0,.09,0,0,0,.1,0,0,0,.11.05h0l.14.06h0l.14.07h0l.12.05,0,0,.1,0,0,0,.09,0,.06,0,.08,0,.06,0,.07,0,.06,0,.08,0,.06,0,.07,0,.06,0,.07,0,.07,0,.08,0,.05,0,.09,0,.12.05.05,0,.08,0,0,0,.08,0,.05,0,.08,0,.05,0,.08,0,.05,0,.08,0,.05,0,.08,0,.05,0,.08,0,0,0,.09,0h0l.36.16h0l.1,0,0,0,.09,0,0,0,.09,0,0,0,.09,0,0,0,.09,0,0,0,.1,0h0l.11,0h0l.75.33h0l.11,0h0l.11,0h0l.11,0h0l.12.05h0l.12.05h0l.91.39h0l.13.05h0l.12.05h0l.12.05h0l1,.44h0l.13.05h0l.13.05h0q7.24,3,14.67,5.4l15.44-47.56a149.31,149.31,0,0,1-27.37-12ZM182.83,349l-5.71,49.67a201.15,201.15,0,0,0,39.93.6l-4.22-49.82a151.45,151.45,0,0,1-30-.45Zm59.45-5,14,48a198.55,198.55,0,0,0,37-15L270,332.76A148.94,148.94,0,0,1,242.27,344Zm73.91-49a152.16,152.16,0,0,1-15.8,16.53c-1.78,1.6-3.62,3.18-5.47,4.7l31.67,38.69q3.45-2.83,6.81-5.83h0l.11-.1h0l.1-.09,0,0,.09-.08.11-.1h0l.11-.1,0,0,.09-.08,0,0,.23-.2h0a201.38,201.38,0,0,0,20.52-21.54L316.19,295ZM344,242.34a149.51,149.51,0,0,1-11.23,27.72l44.22,23.34a198.82,198.82,0,0,0,8.6-18.55h0l.11-.28h0l.05-.14h0l.06-.14h0l.17-.42h0l.05-.14h0l.6-1.54h0l0-.11v0l0-.11v0l0-.1,0,0,0-.09,0,0,0-.08,0-.06,0-.08,0-.06,0-.08,0-.06,0-.08,0-.06,0-.08,0-.07,0-.08,0-.07,0-.08,0-.06,0-.08,0-.07,0-.07,0-.08,0-.07,0-.08,0-.07,0-.08,0-.07,0-.08,0-.06,0-.09,0-.05,0-.09,0-.05,0-.09,0-.05,0-.1,0,0,0-.11v0l0-.11v0l0-.11v0l0-.13h0l0-.14h0q.48-1.32.94-2.64h0q1.64-4.7,3-9.47l-48-14Zm5.1-59.48a151.4,151.4,0,0,1,.42,30l49.82,4.27A201.33,201.33,0,0,0,400,195.5h0v-.15h0v-.14h0v-.44h0v-.29h0v-.29h0V194h0v-.14h0v-.14h0c0-.6,0-1.18-.06-1.78h0v-1.94h0c0-.65-.07-1.29-.11-1.94h0v-.15h0v-.14h0v-.14h0v-.14h0v-.14h0v-.14h0V187h0v-.14h0v-.14h0v-.14h0q-.31-4.65-.84-9.29l-49.68,5.66Zm-18.37-56.61a148.86,148.86,0,0,1,12,27.35l47.56-15.43a198.58,198.58,0,0,0-7.71-20h0l-.06-.14h0l-.06-.13h0l-.06-.13h0l-.06-.13h0l-.06-.13v0l-.06-.12v0l-.05-.12v0l-.05-.12v0l-.05-.12v0l-.05-.11v0l-.05-.11v0l-.05-.11v0l-.05-.11v0l0-.1,0,0,0-.1,0,0,0-.1,0,0,0-.1,0,0,0-.1,0,0,0-.09,0,0,0-.09,0,0,0-.09,0-.06,0-.08,0-.07,0-.07,0-.07,0-.07,0-.07,0-.07,0-.07,0-.06,0-.08,0-.05,0-.09,0,0,0-.09,0,0,0-.09v0q-3-6.28-6.45-12.4l-43.51,24.63Zm-8.55-84.69L291.57,81.14a151.71,151.71,0,0,1,19.94,18.51c.63.7,1.26,1.42,1.88,2.13L351.16,69l-1.09-1.25h0l-.08-.09,0,0,0-.05-1.06-1.19v0l-.06-.07-.09-.1-.1-.11,0,0-.07-.08,0,0-.06-.07,0,0-.06-.07,0,0-.06-.06,0,0-.06-.06,0,0-.05-.06,0,0-.06-.06,0,0-.05-.06,0,0-.06-.06,0,0-.05-.06,0,0-.06-.06,0,0-.06-.06,0,0-.06-.06,0,0-.06-.06,0,0-.06-.07,0,0-.06-.07,0,0-.07-.08,0,0-.09-.1h0l-.31-.33h0l-.09-.1,0,0-.08-.09,0,0-.07-.08,0,0-.08-.08,0,0-.07-.08,0,0-.07-.08,0,0-.07-.07,0,0-.07-.07,0,0-.07-.08,0,0-.07-.07,0,0-.07-.07,0,0-.07-.08,0,0-.08-.08,0,0-.08-.08,0,0-.09-.09h0l-.93-1h0l-.1-.1h0l-.09-.1v0l-.09-.09h0l-.09-.1h0l-.1-.1h0l-.1-.1h0l-.1-.1h0l-.1-.1h0a200.49,200.49,0,0,0-21-18.69Zm-71.32-35L238.16,54.91a149.74,149.74,0,0,1,28,10.43l22-44.88A199.43,199.43,0,0,0,250.82,6.54ZM171.47,2l7.09,49.49a151.25,151.25,0,0,1,30-1.28L211.37.32A201.14,201.14,0,0,0,171.47,2ZM96.64,28.76l25.89,42.77a148.87,148.87,0,0,1,27-12.82L132.71,11.62A198.74,198.74,0,0,0,114,19.41h0l-.11.05h0l-.1,0,0,0-.09,0,0,0-.09,0,0,0-.09,0,0,0-.09,0,0,0-.08,0-.05,0-.08,0-.06,0-.08,0-.13.06-.05,0-.08,0-.06,0-.08,0-.06,0-.08,0-.06,0-.08,0-.06,0-.08,0-.06,0-.08,0-.05,0-.09,0,0,0-.1,0,0,0-.11.05h0l-.13.06h0l-.84.42h0l-.13.07h0l-.13.07h0q-6.85,3.45-13.49,7.47Z"/><path class="cls-2" d="M200,.07C89.54.07,0,89.61,0,200.07a201.92,201.92,0,0,0,1.55,25H52.07a151.87,151.87,0,0,1-2.07-25A150.07,150.07,0,0,1,175,52.14V175.07H100v50H225V1.62A202,202,0,0,0,200,.07Z"/></g></g></svg>