<svg xmlns="http://www.w3.org/2000/svg" viewBox="0 0 400 400"><defs><style>.cls-1{fill:#18173f;}.cls-2{fill:#8795a2;}</style></defs><title>max-per-block</title><g id="Layer_2" data-name="Layer 2"><g id="design"><rect id="_Path_" data-name="&lt;Path&gt;" class="cls-1" y="143" width="188" height="25"/><polygon id="_Path_2" data-name="&lt;Path&gt;" class="cls-2" points="188 230.93 188 168 0 168 0 230.93 0 256 188 256 188 230.93"/><rect id="_Path_3" data-name="&lt;Path&gt;" class="cls-1" x="213" y="143" width="187" height="25"/><polygon id="_Path_4" data-name="&lt;Path&gt;" class="cls-2" points="213 230.93 213 256 400 256 400 230.93 400 168 213 168 213 230.93"/><rect id="_Path_5" data-name="&lt;Path&gt;" class="cls-1" y="287" width="188" height="25"/><polygon id="_Path_6" data-name="&lt;Path&gt;" class="cls-2" points="188 374.68 188 312 0 312 0 374.68 0 400 188 400 188 374.68"/><rect id="_Path_7" data-name="&lt;Path&gt;" class="cls-1" x="213" y="287" width="187" height="25"/><polygon id="_Path_8" data-name="&lt;Path&gt;" class="cls-2" points="213 374.68 213 400 400 400 400 374.68 400 312 213 312 213 374.68"/><polygon id="_Path_9" data-name="&lt;Path&gt;" class="cls-1" points="0 0 0 25 250.24 25 400 25 400 0 250.24 0 0 0"/><path class="cls-1" d="M58.34,35.48H85l15.26,40.4,5.39,15.86h.6l5.39-15.86,14.66-40.4H152.9v97.25H129V104c0-9.87,2.09-25,3.29-34.71h-.6L123.57,92l-13.47,32.77h-9.58L87.07,92,79.29,69.3h-.6C79.88,79,82,94.13,82,104v28.73H58.34Z"/><path class="cls-1" d="M220.08,112.09H192.85l-4.79,20.65H161.73l29.62-97.25h31.12l29.62,97.25H224.87Zm-4.64-19.9-1.65-6.73c-2.39-9.28-4.79-21.1-7.18-30.82H206c-2.09,9.88-4.49,21.55-6.88,30.82l-1.65,6.73Z"/><path class="cls-1" d="M283,82.76,258.17,35.48H286.9l6.58,15.86c2.09,4.49,4.19,9.87,6.88,16.16h.6c2.09-6.28,4.19-11.67,6-16.16l5.69-15.86h27.53L315.33,84l26.33,48.78H312.93l-7.78-17.36c-2.39-5.09-4.49-10.17-6.88-16.16h-.6c-2.09,6-4.19,11.07-6.28,16.16l-7.18,17.36H256.68Z"/></g></g></svg>