<svg xmlns="http://www.w3.org/2000/svg" viewBox="0 0 400 400"><defs><style>.cls-1{fill:none;}.cls-2{fill:#18173f;}.cls-3{fill:#8795a2;}</style></defs><title>absolute</title><g id="Layer_2" data-name="Layer 2"><g id="design"><circle id="_Path_" data-name="&lt;Path&gt;" class="cls-1" cx="365.82" cy="168.61" r="12.5"/><path id="_Compound_Path_" data-name="&lt;Compound Path&gt;" class="cls-2" d="M357.92,183.51a34.23,34.23,0,0,0,10-22l1.64-25.18,4.82-74.17A34.25,34.25,0,0,0,338,25.76l-99.42,6.39a34.35,34.35,0,0,0-22.07,9.93L10.81,247.76l35.56,35.56L152.24,389.19ZM326.73,53.24a14.29,14.29,0,1,1,0,20.2A14.29,14.29,0,0,1,326.73,53.24Z"/><path class="cls-3" d="M63.92,265.53l19.34-19.34,40.42,18.26L139.12,272l.43-.43-7.61-15.43-18.69-40,19.34-19.34,70.63,70.63-17.39,17.39L165,264c-7.17-7.17-16.63-19.67-22.82-27.6l-.43.43,10.65,22.38,14,33.58-7,7-33.58-14-22.17-10.87-.43.43c7.93,6.19,20.43,15.65,27.6,22.82L151.72,319l-17.17,17.17Z"/><path class="cls-3" d="M237,203.7l-19.78,19.78,11.52,18.47-19.12,19.12-49.12-92.15,22.6-22.6,92.15,49.12-19.78,19.78ZM219.2,192.61l-6.09-3.69c-8.48-5-18.8-11.84-27.6-17.17l-.43.43c5.65,8.69,12.39,18.91,17.39,27.38l3.69,6.09Z"/><path class="cls-3" d="M261.43,136.69l-52.38-16.3,20.86-20.86,16.3,6.74C251,108,256.43,110.4,263,113l.43-.43c-3-6.09-5.43-11.52-7.39-16.08l-7.39-15.65,20-20,17.17,53.25,54.55,16.3-20.86,20.86-18.26-7c-5.43-2-10.65-4.13-16.73-6.74L284,138c2.83,5.87,5,11.08,7.17,16.3l7.39,17.82-20,20Z"/><rect class="cls-1" width="400" height="400"/></g></g></svg>