<svg xmlns="http://www.w3.org/2000/svg" viewBox="0 0 401.85 400.49"><defs><style>.cls-1{fill:#8795a2;}.cls-2{fill:#18173f;}.cls-3{fill:none;}</style></defs><title>pool-fee-address</title><g id="Layer_2" data-name="Layer 2"><g id="design"><path class="cls-1" d="M155.81,245,77.09,323.74A174.45,174.45,0,0,0,200.83,375V263.68A63.48,63.48,0,0,1,155.81,245Z"/><path class="cls-2" d="M155.81,245a63.48,63.48,0,0,1-18.65-45H25.83A174.45,174.45,0,0,0,77.09,323.74Z"/><path class="cls-1" d="M155.81,155,77.09,76.26A174.45,174.45,0,0,0,25.83,200H137.16A63.48,63.48,0,0,1,155.81,155Z"/><path class="cls-2" d="M77.09,76.26,155.81,155a63.48,63.48,0,0,1,45-18.65V25A174.45,174.45,0,0,0,77.09,76.26Z"/><path class="cls-2" d="M270.86,130a63.48,63.48,0,0,1,18.65,45H400.83A174.45,174.45,0,0,0,349.58,51.26Z"/><path class="cls-1" d="M270.86,130l78.72-78.72A174.45,174.45,0,0,0,225.83,0V111.32A63.48,63.48,0,0,1,270.86,130Z"/><path class="cls-1" d="M264.51,200a63.48,63.48,0,0,1-18.65,45l78.72,78.72A174.45,174.45,0,0,0,375.83,200Z"/><path class="cls-2" d="M245.86,245a63.48,63.48,0,0,1-45,18.65V375a174.45,174.45,0,0,0,123.74-51.26Z"/><path id="_Compound_Path_" data-name="&lt;Compound Path&gt;" class="cls-1" d="M113.32,400.49a110.4,110.4,0,0,0,70.9-25.68A112.66,112.66,0,0,0,224.79,288a114.4,114.4,0,0,0-1.18-16.37l1.33-.47-1.34.46c-7.09-49-45.49-87.76-94.05-94.91A110.89,110.89,0,0,0,27.32,216.43,112.65,112.65,0,0,0,1.85,288C1.85,350.13,51.76,400.49,113.32,400.49Z"/><path class="cls-2" d="M191,206.86a111.25,111.25,0,0,0-81.64-31.81C50.68,176.65,1.68,225.69,0,284.3A112.5,112.5,0,0,0,112.52,400a11.25,11.25,0,0,0,0-22.5A90,90,0,0,1,22.5,285C23.79,238,63,198.85,109.9,197.56c24.45-.62,46.56,9.66,65.29,25.47,28.79,24.23,27.24,70.17,27.24,70.17a16.88,16.88,0,0,1-33.75,0s4.83-59.18-56.26-61.88c-31.27-1.37-56.26,25.25-56.26,56.26a56.11,56.11,0,0,0,101.4,33.27,39.34,39.34,0,0,0,67.38-27.64v-5.71A111.06,111.06,0,0,0,191,206.86ZM112.52,321.24a33.75,33.75,0,1,1,33.75-33.75A33.8,33.8,0,0,1,112.52,321.24Z"/><rect class="cls-3" x="1.85" width="400" height="400"/></g></g></svg>