<?xml version="1.0" encoding="utf-8"?>
<!-- Generator: Adobe Illustrator 16.0.0, SVG Export Plug-In . SVG Version: 6.00 Build 0)  -->
<!DOCTYPE svg PUBLIC "-//W3C//DTD SVG 1.1//EN" "http://www.w3.org/Graphics/SVG/1.1/DTD/svg11.dtd">
<svg version="1.1" id="Layer_1" xmlns="http://www.w3.org/2000/svg" xmlns:xlink="http://www.w3.org/1999/xlink" x="0px" y="0px"
	 width="40px" height="40px" viewBox="0 0 40 40" enable-background="new 0 0 40 40" xml:space="preserve">
<path id="XMLID_61_" fill="#2970FF" d="M40,37.652L29.332,26.984c2.328-2.85,3.729-6.488,3.729-10.455C33.061,7.4,25.66,0,16.531,0
	S0,7.4,0,16.529c0,9.131,7.402,16.529,16.531,16.529c3.967,0,7.605-1.398,10.453-3.727L37.654,40L40,37.652z M3.689,16.529
	c0-7.08,5.76-12.84,12.842-12.84c7.08,0,12.84,5.76,12.84,12.84s-5.76,12.842-12.84,12.842C9.449,29.371,3.689,23.609,3.689,16.529z
	"/>
<g>
</g>
<g>
</g>
<g>
</g>
<g>
</g>
<g>
</g>
<g>
</g>
<g>
</g>
<g>
</g>
<g>
</g>
<g>
</g>
<g>
</g>
<g>
</g>
<g>
</g>
<g>
</g>
<g>
</g>
</svg>
