<svg xmlns="http://www.w3.org/2000/svg" viewBox="0 0 400 400"><defs><style>.cls-1{fill:#8795a2;}.cls-2{fill:#18173f;}</style></defs><title>stake-pool</title><g id="Layer_2" data-name="Layer 2"><g id="design"><path class="cls-1" d="M148.54,251.46l-90,90A199.37,199.37,0,0,0,200,400V272.77A72.55,72.55,0,0,1,148.54,251.46Z"/><path class="cls-2" d="M148.54,251.46A72.55,72.55,0,0,1,127.23,200H0A199.37,199.37,0,0,0,58.58,341.42Z"/><path class="cls-1" d="M148.54,148.54l-90-90A199.37,199.37,0,0,0,0,200H127.23A72.55,72.55,0,0,1,148.54,148.54Z"/><path class="cls-2" d="M58.58,58.58l90,90A72.55,72.55,0,0,1,200,127.23V0A199.37,199.37,0,0,0,58.58,58.58Z"/><path class="cls-2" d="M251.46,148.54A72.55,72.55,0,0,1,272.77,200H400A199.37,199.37,0,0,0,341.42,58.58Z"/><path class="cls-1" d="M251.46,148.54l90-90A199.37,199.37,0,0,0,200,0V127.23A72.55,72.55,0,0,1,251.46,148.54Z"/><path class="cls-1" d="M272.77,200a72.55,72.55,0,0,1-21.32,51.46l90,90A199.37,199.37,0,0,0,400,200Z"/><path class="cls-2" d="M251.46,251.46A72.55,72.55,0,0,1,200,272.77V400a199.37,199.37,0,0,0,141.42-58.58Z"/></g></g></svg>