<?xml version="1.0" encoding="utf-8"?>
<!-- Generator: Adobe Illustrator 16.0.0, SVG Export Plug-In . SVG Version: 6.00 Build 0)  -->
<!DOCTYPE svg PUBLIC "-//W3C//DTD SVG 1.1//EN" "http://www.w3.org/Graphics/SVG/1.1/DTD/svg11.dtd">
<svg version="1.1" id="Layer_1" xmlns="http://www.w3.org/2000/svg" xmlns:xlink="http://www.w3.org/1999/xlink" x="0px" y="0px"
	 width="40px" height="40px" viewBox="0 0 40 40" enable-background="new 0 0 40 40" xml:space="preserve">
<path id="XMLID_2984_" fill="#8795A2" d="M22.676,40v-4.261c2.352-0.406,4.643-1.36,6.57-2.726l2.986,2.984l3.775-3.762
	l-3.004-2.944c1.371-1.92,2.328-4.187,2.736-6.527H40v-5.318h-4.26c-0.408-2.554-1.367-4.685-2.74-6.603l3-3.003l-3.781-3.771
	l-2.973,2.98c-1.928-1.367-4.219-2.323-6.57-2.731V0h-5.348v4.318c-2.566,0.408-4.699,1.359-6.629,2.727L7.688,4.06L3.898,7.821
	l2.996,3.022c-1.375,1.918-2.334,4.049-2.744,6.603H0v5.318h4.15c0.41,2.341,1.369,4.607,2.74,6.527l-3,2.964l3.781,3.752
	l3.027-2.99c1.93,1.367,4.063,2.315,6.629,2.722V40H22.676z M9.297,20.028c0-4.936,3.324-9.097,8.031-10.28v10.251h5.348V9.748
	c4.492,1.184,7.973,5.345,7.973,10.28c0,5.855-4.789,10.619-10.676,10.619S9.297,25.884,9.297,20.028z"/>
</svg>
