<?xml version="1.0" encoding="utf-8"?>
<!-- Generator: Adobe Illustrator 16.0.0, SVG Export Plug-In . SVG Version: 6.00 Build 0)  -->
<!DOCTYPE svg PUBLIC "-//W3C//DTD SVG 1.1//EN" "http://www.w3.org/Graphics/SVG/1.1/DTD/svg11.dtd">
<svg version="1.1" id="Layer_1" xmlns="http://www.w3.org/2000/svg" xmlns:xlink="http://www.w3.org/1999/xlink" x="0px" y="0px"
	 width="40px" height="36px" viewBox="0 0 40 36" enable-background="new 0 0 40 36" xml:space="preserve">
<g id="XMLID_75_" opacity="0.75">
	<path id="XMLID_81_" fill="#8997A5" d="M0.031,3.868c0.008-0.041,0.012-0.084,0.02-0.123C0.043,3.784,0.035,3.827,0.031,3.868z"/>
	<path id="XMLID_80_" fill="#C4CBD2" d="M3.43,6.599h30.852V4.315c0-1.885-1.544-3.428-3.431-3.428H3.43
		c-1.691,0-3.105,1.24-3.379,2.855C0.324,5.358,1.738,6.599,3.43,6.599z"/>
	<path id="XMLID_79_" fill="#8997A5" d="M0.016,4.009C0.02,3.972,0.023,3.937,0.027,3.901C0.023,3.937,0.02,3.972,0.016,4.009z"/>
	<path id="XMLID_78_" fill="#8997A5" d="M0.004,4.157c0-0.025,0.004-0.053,0.004-0.08C0.008,4.104,0.004,4.132,0.004,4.157z"/>
	<path id="XMLID_77_" fill="#FFFFFF" d="M36.57,6.599h-2.285h-0.004H3.43c-1.691,0-3.105-1.24-3.379-2.855l0,0v0.002
		c-0.008,0.039-0.012,0.082-0.02,0.123C0.027,3.878,0.027,3.89,0.027,3.901C0.023,3.937,0.02,3.972,0.016,4.009
		C0.012,4.03,0.012,4.054,0.008,4.077c0,0.027-0.004,0.055-0.004,0.08C0,4.21,0,4.263,0,4.315v5.711v15.945v5.711
		c0,1.887,1.543,3.43,3.43,3.43h33.14c1.887,0,3.43-1.543,3.43-3.43V28c-3.945,0-7.141-3.197-7.141-7.143
		c0-3.946,3.195-7.144,7.141-7.144v-3.689C40,8.142,38.457,6.599,36.57,6.599z"/>
	<path id="XMLID_76_" fill="#C4CBD2" d="M32.859,20.857c0,3.945,3.195,7.144,7.141,7.144v-0.183v-2.856v-8.389v-2.857
		C36.055,13.716,32.859,16.913,32.859,20.857z"/>
</g>
</svg>
